<svg width="514" height="462" viewBox="0 0 514 462" fill="none" xmlns="http://www.w3.org/2000/svg">
<path d="M70.3418 1.01953C97.2433 0.463456 123.012 11.8408 140.725 32.0957L485.295 426.123C497.17 439.702 487.527 460.947 469.487 460.947H124.962C115.246 460.947 106.798 454.282 104.538 444.832L7.68652 39.9092C3.08669 20.6775 17.4255 2.11387 37.1953 1.70508L70.3418 1.01953Z" fill="white" stroke="#1E1E1E" stroke-width="2"/>
<mask id="mask0_21_351" style="mask-type:alpha" maskUnits="userSpaceOnUse" x="5" y="0" width="487" height="462">
<path d="M70.3418 1.01953C97.2433 0.463456 123.012 11.8408 140.725 32.0957L485.295 426.123C497.17 439.702 487.527 460.947 469.487 460.947H124.962C115.246 460.947 106.798 454.282 104.538 444.832L7.68652 39.9092C3.08669 20.6775 17.4255 2.11387 37.1953 1.70508L70.3418 1.01953Z" fill="white" stroke="#1E1E1E" stroke-width="2"/>
</mask>
<g mask="url(#mask0_21_351)">
<path d="M278.269 182.394C217.849 191.49 113.903 221.375 15.1569 64.1559L-32.2695 -13.8025L155.483 -80.0684L320.497 135.619L278.269 182.394Z" fill="#77D3F0"/>
<path d="M279.712 180.877C180.486 117.326 118.72 75.4717 -0.794167 -8.3252L-62.3945 71.9755L38.8071 164.377C136.442 204.764 188.722 203.988 279.712 180.877Z" fill="#BBD2DA" fill-opacity="0.7"/>
<path d="M183.458 246.328L58.0566 239.179L149.909 369.53C226.254 410.038 270.11 431.701 342.412 476.232L381.462 506.483L545.365 485.032L449.663 369.53C327.011 299.129 256.739 260.915 183.458 246.328Z" fill="#BBD2DA" fill-opacity="0.7"/>
<path d="M183.458 246.328L58.0566 239.179L149.909 369.53L222.837 476.232L381.462 506.483L423.353 476.232C416.085 455.284 324.706 327.209 292.875 301.511C259.949 271.492 225.867 254.066 183.458 246.328Z" fill="#C52976"/>
<path d="M-0.793945 -8.3252C118.701 75.4585 180.467 117.313 279.665 180.847L279.616 180.9C274.434 182.216 269.377 183.458 264.43 184.625C202.773 194.844 106.73 209.953 15.1572 64.1562L-16.4902 12.1348L-0.793945 -8.3252Z" fill="#0FA9DF"/>
<path d="M183.458 246.328C190.896 247.809 198.303 249.532 205.737 251.509C238.182 260.798 265.916 276.933 292.875 301.512C324.706 327.209 416.085 455.284 423.353 476.232L381.462 506.482L342.412 476.232C270.11 431.701 226.254 410.037 149.908 369.53L58.0566 239.179L183.458 246.328Z" fill="#7A1846"/>
<path d="M70.3418 1.01953C97.2433 0.463456 123.012 11.8408 140.725 32.0957L485.295 426.123C497.17 439.702 487.527 460.947 469.487 460.947H124.962C115.246 460.947 106.798 454.282 104.538 444.832L7.68652 39.9092C3.08669 20.6775 17.4255 2.11387 37.1953 1.70508L70.3418 1.01953Z" stroke="#1E1E1E" stroke-width="2"/>
</g>
</svg>
