<svg width="514" height="459" viewBox="0 0 514 459" fill="none" xmlns="http://www.w3.org/2000/svg">
<path d="M70.3622 0.867752L37.2161 1.55301C18.0839 1.94855 4.20762 19.914 8.65915 38.5253L105.51 443.448C107.663 452.448 115.708 458.796 124.962 458.796H469.487C486.667 458.796 495.852 438.563 484.542 425.63L139.972 31.6029C122.454 11.5704 96.9682 0.317701 70.3622 0.867752Z" fill="#00B3F0"/>
<mask id="mask0_1_86" style="mask-type:alpha" maskUnits="userSpaceOnUse" x="7" y="0" width="483" height="459">
<path d="M70.3622 0.867752L37.2161 1.55301C18.0839 1.94855 4.20762 19.914 8.65915 38.5253L105.51 443.448C107.663 452.448 115.708 458.796 124.962 458.796H469.487C486.667 458.796 495.852 438.563 484.542 425.63L139.972 31.6029C122.454 11.5704 96.9682 0.317701 70.3622 0.867752Z" fill="#00B3F0"/>
</mask>
<g mask="url(#mask0_1_86)">
<path d="M370.357 161.789C307.174 181.535 247.914 235.837 187.706 294.105C110.683 298.029 26.7619 328.639 17.8804 333.597C106.738 379.988 128.467 400.726 128.467 400.726C128.467 400.726 98.8266 485.66 92.8984 539.94C112.645 491.566 151.167 425.408 174.858 393.806C142.285 367.162 81.0637 338.556 81.0637 338.556C81.0637 338.556 129.437 317.818 226.185 312.881C226.185 312.881 266.69 234.867 370.357 161.811V161.789ZM321.983 233.875C313.08 252.63 297.279 294.084 294.326 324.694C362.446 329.653 408.858 345.432 408.858 345.432C408.858 345.432 339.725 371.106 301.246 401.717C308.144 418.51 323.945 467.875 332.827 506.376C318.017 492.558 273.588 456.019 240.994 436.273C197.557 453.066 79.102 570.551 12.9224 679.154C41.5715 649.535 126.462 553.758 240.994 484.647C264.707 498.443 373.31 569.581 373.31 569.581C373.31 569.581 349.619 443.171 340.76 413.552C374.302 390.853 431.557 359.272 485.859 342.479C409.849 311.868 317.047 303.978 317.047 303.978C317.047 303.978 315.064 280.266 321.983 233.875Z" fill="white"/>
</g>
</svg>
