<svg width="514" height="461" viewBox="0 0 514 461" fill="none" xmlns="http://www.w3.org/2000/svg">
<path d="M70.3622 0.867752L37.2161 1.55301C18.0839 1.94855 4.20762 19.914 8.65915 38.5253L105.51 443.448C107.663 452.448 115.708 458.796 124.962 458.796H469.487C486.667 458.796 495.852 438.563 484.542 425.63L139.972 31.6029C122.454 11.5704 96.9682 0.317701 70.3622 0.867752Z" fill="#445CC1"/>
<mask id="mask0_21_930" style="mask-type:alpha" maskUnits="userSpaceOnUse" x="5" y="-2" width="487" height="463">
<path d="M70.3418 -0.131836C97.2433 -0.687911 123.012 10.6894 140.725 30.9443L485.295 424.972C497.17 438.551 487.527 459.796 469.487 459.796H124.962C115.246 459.796 106.798 453.13 104.538 443.681L7.68652 38.7578C3.08669 19.5262 17.4255 0.962498 37.1953 0.553711L70.3418 -0.131836Z" fill="white" stroke="#1E1E1E" stroke-width="2"/>
</mask>
<g mask="url(#mask0_21_930)">
<path d="M758.789 374.021C755.974 373.813 754.094 373.546 752.214 373.553C733.794 373.625 715.369 373.654 696.949 373.867C671.584 374.159 648.169 381.035 627.104 395.206C622.464 398.328 618.194 402.08 614.094 405.91C584.574 433.552 555.124 461.291 525.649 488.988C524.094 490.447 522.434 491.801 520.554 493.452C518.864 492.043 517.354 490.9 515.989 489.609C448.194 425.918 380.414 362.216 312.639 298.514C303.959 290.366 295.184 282.329 286.654 274.039C267.539 255.455 245.489 241.066 221.769 229.131C190.129 213.204 156.614 203.292 121.414 199.068C112.839 198.04 104.239 197.197 95.7791 196.282C94.5341 199.117 96.6491 199.835 97.7341 200.868C118.139 220.223 138.574 239.537 159.024 258.843C267.714 361.462 376.424 464.073 485.114 566.702C494.714 575.757 504.199 584.927 513.784 594.012C515.634 595.772 517.649 597.377 519.469 598.957C524.414 595.917 754.079 380.2 758.789 374.021Z" fill="#E9F4FF"/>
</g>
</svg>
