<svg width="514" height="462" viewBox="0 0 514 462" fill="none" xmlns="http://www.w3.org/2000/svg">
<path d="M70.3418 1.01953C97.2433 0.463456 123.012 11.8408 140.725 32.0957L485.295 426.123C497.17 439.702 487.527 460.947 469.487 460.947H124.962C115.246 460.947 106.798 454.282 104.538 444.832L7.68652 39.9092C3.08669 20.6775 17.4255 2.11387 37.1953 1.70508L70.3418 1.01953Z" fill="white" stroke="#1E1E1E" stroke-width="2"/>
<path d="M307.705 257.154H280.559C280.559 252.279 276.456 242.99 265.853 242.99C261.653 242.99 260.996 243.851 255.694 242.768C248.768 240.397 245.536 236.401 244.132 233.267C244.132 233.267 241.433 244.704 252.346 250.662C258.518 254.126 268.02 251.426 268.02 251.426C268.02 251.426 275.594 250.343 276.562 257.154C272.335 257.154 265.64 261.585 265.64 269.044V332.084C265.64 336.622 261.981 341.382 256.333 341.382C251.485 341.382 247.151 337.377 247.151 332.084V287.755C247.151 222.442 196.331 195.313 166.698 193.137C142.277 191.317 125.841 193.474 95.7816 172.491C95.7816 172.491 105.177 209.05 147.561 217.913C155.456 219.529 178.819 216.82 200.877 239.749C218.282 257.917 220.121 274.683 220.121 296.714V335.654C220.121 352.739 233.849 370.038 254.824 370.038C275.053 370.038 289.332 353.814 289.332 335.654V269.48C289.332 264.063 293.204 259.107 299.366 259.107H307.705V257.154Z" fill="#E60012"/>
<path d="M283.915 365.713C283.915 365.713 261.653 388.295 232.233 371.227C212.883 359.976 212.341 336.524 212.341 336.524V284.078C212.341 284.078 213.105 257.695 189.298 238.87C172.763 225.807 157.409 226.651 146.815 225.363C119.678 222.015 107.672 204.939 107.672 204.939C107.352 207.843 110.265 239.304 144.213 248.291C151.14 250.12 188.445 246.56 188.445 289.708V341.595C188.445 352.517 191.029 371.778 211.578 385.391C232.446 399.235 266.51 397.175 283.915 365.713Z" fill="#E60012"/>
<path d="M252.551 398.484C219.357 407.781 181.306 384.516 181.306 345.825V300.403C181.306 287.003 170.276 269.483 150.278 269.483C129.304 269.483 119.234 288.3 119.234 300.403C119.234 307.96 122.378 323.323 136.754 323.323C148.228 323.323 155.571 311.664 151.992 302.126C152.756 305.261 151.025 308.404 147.677 308.404C144.329 308.404 142.482 305.261 143.024 301.389C143.13 300.51 144.107 293.255 152.232 293.255C158.919 293.255 161.192 299.418 161.192 302.357V342.895C161.192 386.363 208.337 418.366 252.551 398.484Z" fill="#E60012"/>
</svg>
