<svg width="514" height="462" viewBox="0 0 514 462" fill="none" xmlns="http://www.w3.org/2000/svg">
<path d="M70.3418 1.01953C97.2433 0.463456 123.012 11.8408 140.725 32.0957L485.295 426.123C497.17 439.702 487.527 460.947 469.487 460.947H124.962C115.246 460.947 106.798 454.282 104.538 444.832L7.68652 39.9092C3.08669 20.6775 17.4255 2.11387 37.1953 1.70508L70.3418 1.01953Z" fill="#003BA8" stroke="#1E1E1E" stroke-width="2"/>
<mask id="mask0_25_92" style="mask-type:alpha" maskUnits="userSpaceOnUse" x="5" y="0" width="487" height="462">
<path d="M70.3418 1.01953C97.2433 0.463456 123.012 11.8408 140.725 32.0957L485.295 426.123C497.17 439.702 487.527 460.947 469.487 460.947H124.962C115.246 460.947 106.798 454.282 104.538 444.832L7.68652 39.9092C3.08669 20.6775 17.4255 2.11387 37.1953 1.70508L70.3418 1.01953Z" fill="#003BA8" stroke="#1E1E1E" stroke-width="2"/>
</mask>
<g mask="url(#mask0_25_92)">
<path d="M175.579 152.829C175.579 91.9486 149.52 98.867 149.52 38.4819L297.3 204.557L262.891 206.286C236.054 206.286 172.907 249.966 121.906 249.966C61.112 249.966 28.5623 189.022 26.5923 169.747C19.674 102.056 54.9579 77.1088 93.1836 77.1088C120.55 77.1088 147.917 103.09 149.52 135.133C149.52 152.829 140.469 180.687 115.008 180.687C92.4907 180.687 85.1998 150.688 105.571 141.161C116.232 136.175 113.916 115.102 98.9595 115.102C84.0035 115.102 67.3791 133.228 67.3791 152.829C67.3791 180.514 91.6475 204.557 121.907 204.557C137.721 204.557 175.579 177.916 175.579 152.829Z" fill="white"/>
<path d="M241.102 231.845C284.624 224.683 310.951 229.658 352.603 252.47C363.256 289.364 363.49 330.702 354.389 349.448C343.433 372.012 334.013 415.195 353.302 448.883L352.926 448.51C331.962 427.683 308.288 404.164 321.185 348.646C331.191 305.569 305.946 263.782 241.102 231.845Z" fill="white"/>
<path d="M252.594 409.915C303.007 412.918 320.693 436.941 326.611 464.346H291.701C291.701 455.688 268.074 444.875 252.594 444.875C230.42 444.875 175.082 411.919 173.121 350.725C172.173 321.147 192.119 299.432 208.063 292.453C213.903 289.898 211.358 282.541 208.063 284.166C191.259 292.453 164.167 305.651 129.924 305.651C95.6815 305.651 74.6255 281.871 47.4512 253.264C75.4372 269.71 92.6736 274.238 129.924 274.238C147.713 274.238 194.265 257.099 230.5 257.099C274.153 257.099 300.418 297.964 300.418 326.333C299.501 352.493 278.279 381.903 258.285 381.903C249.393 381.903 240.976 374.453 239.61 360.267C239.61 344.83 258.285 341.588 258.285 329.749C258.285 320.66 247.33 313.807 240.976 313.807C227.581 313.807 210.036 330.911 210.041 350.725C210.041 376.794 234.624 407.907 252.594 409.915Z" fill="white"/>
<path d="M364.021 397.276C364.036 371.546 380.979 344.753 381.478 310.189L427.014 351.933C403.868 366.188 399.305 376.944 399.305 397.276C399.305 423.546 422.876 440.459 445.532 440.459C465.339 440.459 477.935 432.362 485.132 419.227L513.546 433.802C498.267 452.875 481.713 466.909 445.532 466.909C389.049 466.909 364.021 425.345 364.021 397.276Z" fill="white"/>
<path d="M427.794 410.772C417.181 396.874 422.955 384.828 436.027 374.003L463.838 399.387C460.098 411.519 437.802 423.877 427.794 410.772Z" fill="white"/>
<path d="M70.3418 1.01953C97.2433 0.463456 123.012 11.8408 140.725 32.0957L485.295 426.123C497.17 439.702 487.527 460.947 469.487 460.947H124.962C115.246 460.947 106.798 454.282 104.538 444.832L7.68652 39.9092C3.08669 20.6775 17.4255 2.11387 37.1953 1.70508L70.3418 1.01953Z" stroke="#1E1E1E" stroke-width="2"/>
</g>
</svg>
