<svg width="514" height="459" viewBox="0 0 514 459" fill="none" xmlns="http://www.w3.org/2000/svg">
<path d="M70.3622 0.0193633L37.2161 0.704623C18.0839 1.10016 4.20762 19.0656 8.65915 37.6769L105.51 442.6C107.663 451.599 115.708 457.947 124.962 457.947H469.487C486.667 457.947 495.852 437.714 484.542 424.781L139.972 30.7545C122.454 10.722 96.9682 -0.530687 70.3622 0.0193633Z" fill="#2371E5"/>
<mask id="mask0_45_1237" style="mask-type:alpha" maskUnits="userSpaceOnUse" x="7" y="0" width="483" height="458">
<path d="M70.3622 0.0193633L37.2161 0.704623C18.0839 1.10016 4.20762 19.0656 8.65915 37.6769L105.51 442.6C107.663 451.599 115.708 457.947 124.962 457.947H469.487C486.667 457.947 495.852 437.714 484.542 424.781L139.972 30.7545C122.454 10.722 96.9682 -0.530687 70.3622 0.0193633Z" fill="#1C1C1C"/>
</mask>
<g mask="url(#mask0_45_1237)">
<path d="M178.985 226.347C165.607 226.687 151.313 226.586 139.518 233.877C134.279 237.063 129.417 241.227 125.843 246.148C124.804 249.473 129.21 249.79 131.44 249.015C144.838 247.692 158.568 248.866 171.707 245.442C179.255 243.211 186.097 237.581 188.222 229.817C188.408 225.056 181.81 226.757 178.985 226.347ZM201.009 228.132C200.284 228.135 199.581 228.257 198.854 228.55C190.725 236.371 183.483 246.548 172.2 250.011C158.774 252.136 145.203 247.346 131.771 249.648C125.466 251.755 119.053 253.797 112.351 254.089C120.435 247.314 127.404 239.14 136.047 233.107C138.445 230.338 134.263 228.095 131.722 229.016C109.818 228.886 87.555 229.185 66.2832 234.957C63.016 237.016 66.2217 240.319 68.2261 241.893C72.4856 245.819 77.0323 249.416 81.3208 253.31C79.6971 255.503 78.0324 257.666 76.3372 259.805C68.4162 250.592 60.279 241.085 49.7388 234.79C37.7992 229.177 24.1125 229.786 11.2582 230.415C-4.08841 231.89 -18.8035 236.604 -34.057 238.229C-80.0082 244.312 -126.647 240.818 -172.758 246.137C-195.719 248.684 -217.751 255.918 -240.282 260.04C-247.574 261.154 -254.708 263.629 -262.113 263.575C-278.056 260.376 -294.406 263.69 -309.429 269.245C-330.249 276.773 -350.862 285.237 -372.657 289.495C-404.756 296.298 -437.622 296.689 -470.231 298.281C-473.792 298.794 -472.557 303.781 -469.351 303.511C-456.416 306.053 -443.249 307.082 -430.076 306.732C-400.705 306.859 -371.719 300.819 -343.328 293.825C-324.78 289.351 -306.775 282.971 -288.395 277.922C-284.223 276.91 -279.953 276.266 -275.657 276.203C-291.354 290.477 -307.951 304.098 -321.017 320.943C-330.386 332.592 -334.446 348.465 -347.059 357.394C-358.238 365.32 -372.798 364.599 -385.492 361.611C-396.449 359.452 -406.306 353.924 -417.045 351.115C-428.682 348.663 -440.122 353.677 -451.182 356.593C-479.7 365.3 -507.962 374.92 -535.734 385.778C-538.611 386.778 -543.681 389.047 -541.739 392.898C-537.761 397.515 -530.88 395.655 -525.558 396.076C-511.033 396.525 -498.314 388.49 -485.207 383.465C-472.012 378.369 -459.295 372.051 -445.509 369.378C-428.379 366.28 -410.639 369.738 -395.069 377.203C-377.011 385.705 -358.924 396.237 -338.469 397.509C-317.834 399.549 -297.731 389.687 -283.436 375.307C-279.876 371.682 -276.322 368.057 -271.424 366.32C-242.536 352.057 -214.487 335.265 -191 313.005C-184.989 307.309 -176.93 304.026 -168.629 304.088C-145.259 303.786 -122.151 309.928 -100.425 318.143C-74.4162 328.116 -49.9589 341.79 -23.6346 350.959C-4.54188 357.675 16.3715 362.223 36.4492 357.353C42.8174 355.463 49.2512 352.302 53.5396 347.113C55.9536 343.559 52.2629 339.919 48.9892 338.838C39.866 334.655 29.1037 333.326 21.4155 326.431C20.5005 325.614 19.3934 324.225 21.2407 323.706C27.2632 319.877 34.8509 322.645 40.8258 325.233C61.072 334.942 76.6162 351.626 94.4896 364.789C106.875 373.928 122.016 379.8 137.574 379.106C165.394 378.459 192.823 372.419 220.628 372.79C235.919 372.442 251.96 372.658 266.156 379.166C272.882 382.809 277.364 389.393 282.978 394.423C287.506 398.386 291.223 404.07 297.497 405.316C304.751 407.173 313.537 406.93 319.473 401.868C323.24 397.535 319.34 391.862 316.31 388.326C308.837 379.989 299.334 373.807 290.622 366.869C286.578 363.482 282.022 360.708 276.74 359.849C236.913 349.834 195.548 350.719 154.899 347.533C148.218 346.947 141.176 347.246 134.99 344.142C125.169 327.559 115.188 311.07 105.572 294.367C118.234 285.284 132.368 277.879 147.929 275.285C156.418 273.499 165.292 273.469 173.947 272.672C177.559 272.022 177.087 267.735 175.555 265.376C174.245 261.874 180.043 264.019 180.387 266.714C182.591 268.871 183.858 272.705 187.127 273.337C190.925 272.605 189.564 267.775 189.753 265.033C202.535 277.857 219.209 287.845 237.515 289.474C245.845 289.675 254.259 289.785 262.505 288.643C277.764 290.929 293.278 296.336 308.801 293.038C314.557 291.952 318.737 286.383 318.084 280.546C318.34 274.978 313.439 270.953 308.401 269.843C296.314 266.785 283.705 266.132 271.769 262.345C264.11 260.091 256.333 257.048 250.702 251.157C247.431 249.595 244.021 252.626 240.526 252.113C237.492 252.527 236.911 251.492 239.418 249.461C241.012 246.885 244.52 244.791 244.444 241.625C242.975 238.602 238.656 238.478 235.974 236.743C225.435 231.758 214.034 228.619 202.346 228.248C201.886 228.172 201.444 228.131 201.009 228.132ZM-152.995 274.04C-152.232 274.71 -155.386 277.009 -156.259 278.231C-161.519 283.429 -166.755 289.711 -171.742 294.532C-174.39 287.439 -168.674 281.067 -163.8 276.631C-160.71 274.429 -156.674 274.089 -152.995 274.04ZM124.877 295.126C124.481 295.138 124.057 295.23 123.696 295.162C120.503 297.273 116.18 298.159 113.864 301.299C113.77 304.924 117.74 306.893 119.255 309.908C123.91 316.193 127.523 323.28 131.56 330.024C133.686 332.424 136.906 329.621 136.041 326.963C135.868 315.832 132.596 304.443 125.885 295.561C125.638 295.179 125.272 295.113 124.877 295.126ZM-221.449 344.683C-221.668 344.673 -221.891 344.698 -222.115 344.76C-232.622 350.362 -242.802 356.742 -253.407 362.092C-261.615 366.499 -270.29 370.405 -276.895 377.182C-278.707 379.106 -282.822 381.716 -280.523 384.707C-277 386.859 -272.432 385.433 -268.528 385.356C-254.688 383.661 -241.874 376.468 -232.584 366.158C-227.376 360.704 -222.887 354.502 -219.136 347.981C-218.599 346.459 -219.915 344.751 -221.449 344.683ZM305.986 368.876C302.641 369.2 303.225 373.354 305.414 374.798C316.299 386.042 330.254 395.354 346.005 397.588C353.915 397.862 362.644 398.368 369.656 394.059C373.383 392.04 373.523 386.566 370.119 384.165C364.442 379.623 356.817 378.801 350.034 376.801C335.487 373.537 320.76 370.82 305.986 368.876ZM-430.143 379.307C-430.264 379.314 -430.388 379.329 -430.513 379.355C-449.059 385.139 -467.868 390.627 -485.349 399.24C-488.725 400.519 -491.307 405.256 -487.987 408.012C-481.956 413.046 -473.318 410.782 -466.803 408C-455.846 403.375 -445.549 397.328 -436.236 389.926C-433.432 387.607 -430.098 385.765 -427.782 382.936C-427.007 381.258 -428.328 379.213 -430.143 379.307Z" fill="white"/>
<path d="M131.242 217.707C96.0808 217.532 67.7191 226.114 60.5822 224.891C19.3013 217.818 -41.2688 228.861 -67.5305 231.383C-141.437 238.48 -197.701 233.595 -256.232 253.115C-271.839 258.32 -268.663 249.976 -305.271 261.936C-347.877 275.854 -437.798 306.567 -487.14 291.041C-493.535 289.029 -500.243 288.867 -501.218 293.383C-501.698 295.608 -490.921 301.021 -478.579 303.967C-461.538 308.035 -440.482 310.123 -437.043 310.798C-422.001 313.751 -323.329 300.158 -307.212 290.336C-319.802 305.214 -327.446 318.141 -335.613 334.789C-338.43 340.532 -338.631 348.143 -350.302 347.136C-356.681 346.586 -378.497 335.886 -394.458 355.617C-404.359 354.685 -418.064 345.921 -426.515 345.264C-436.918 344.456 -446.898 350.094 -456.575 353.996C-484.946 365.436 -510.262 373.116 -542.53 382.593C-547.042 383.918 -555.919 387.044 -552.056 393.001C-544.794 404.201 -514.082 401.943 -503.476 395.283L-500.357 402.642C-507.104 404.888 -497.234 412.624 -492.624 413.37C-467.353 417.454 -445.483 401.195 -427.693 389.473C-414.633 380.868 -401.177 376.727 -380.771 389.297C-357.994 403.327 -317.922 406.375 -289.925 389.65C-249.08 392.203 -221.16 362.211 -193.611 338.493C-177.438 324.57 -153.462 302.222 -98.3542 329.32C-46.3329 354.901 15.115 383.236 72.4016 359.132C77.0783 357.164 78.8999 359.022 80.5156 361.601C86.1736 370.636 87.7165 369.934 95.3332 378.183C109.096 393.09 200.441 380.527 225.694 379.242C249.416 378.034 258.259 374.006 271.028 390.708C277.317 398.934 286.95 407.515 302.305 409.627C319.998 412.062 327.97 407.1 330.744 397.528C343.29 399.033 360.963 402.371 373.778 395.408C377.79 393.228 379.132 389.595 376.023 387.55C368.499 382.599 360.469 378.047 351.819 375.537C275.654 353.437 238.14 348.325 172.457 339.028C172.457 339.028 151.233 340.885 141.197 321.911C137.592 315.095 135.704 307.184 132.792 300.36C126.809 286.337 134.781 282.071 144.891 281.775C151.074 281.595 160.349 278.876 169.214 277.285C177.042 278.538 210.562 291.054 237.693 292.627C267.576 294.359 311.705 300.8 326.379 286.266C332.865 279.842 328.745 278.342 325.007 275.787C312.736 267.401 297.826 263.457 283.72 258.949C270.746 254.802 261.168 252.836 242.892 233.094C231.877 228.429 220.059 225.299 208.319 222.464C198.589 220.114 192.579 215.654 178.329 224.01C162.145 219.416 146.087 217.781 131.242 217.707ZM186.268 228.508C180.095 251.254 148.871 243.457 127.262 247.382C145.927 225.204 166.265 229.516 186.268 228.508ZM199.851 230.448C221.564 230.929 230.723 237.164 242.558 242.172L233.514 252.962C238.427 255.495 243.631 254.832 248.978 252.587C257.009 261.822 272.42 265.686 289.903 268.815C301.321 270.858 317.819 270.201 315.834 283.104C313.354 299.229 279.048 289.266 262.39 286.079C232.018 292.218 207.6 281.53 187.238 259.378L187.767 272.431L178.682 260.877L171.803 262.289L175.202 270.798C136.811 270.301 119.36 281.897 102.357 293.75L132.792 344.89C135.785 349.919 151.65 349.31 164.226 350.379C194.282 352.935 240.664 352.009 280.228 363.102C283.99 364.156 285.493 366.012 287.337 367.468C292.078 371.208 318.176 387.898 318.895 397.653C319.393 404.405 298.625 407.508 290.331 398.9L273.866 381.812C256.401 363.685 193.527 371.69 180.44 373.08C134.161 377.998 118.362 384.098 81.9009 351.875C63.4799 335.596 32.5608 310.827 19.035 322.438C15.1223 325.797 21.3222 330.964 31.6531 335.142C38.7203 338 57.1083 341.206 51.0569 346.784C29.4091 366.736 -11.7577 354.483 -40.6716 342.021C-76.4996 326.58 -110.424 306.4 -156.92 301.979C-185.954 299.218 -190.651 310.463 -201.196 319.266C-223.427 337.825 -249.617 353.91 -278.829 367.342C-313.544 406.409 -347.756 398.712 -381.86 381.063C-432.254 353.476 -456.142 369.764 -483.789 380.389C-500.24 386.711 -515.273 397.031 -535.739 393.619C-539.621 392.971 -542.952 390.836 -535.386 387.973C-500.749 374.865 -466.3 362.582 -429.811 352.958C-417.604 349.738 -404.25 359.172 -393.119 362.131C-370.456 368.157 -348.947 370.344 -333.496 345.902C-321.685 327.218 -328.202 324.709 -269.992 274.284C-285.514 271.823 -301.59 280.344 -330.85 288.219C-365.221 297.471 -423.456 312.149 -473.04 300.36C-408.261 298.824 -372.279 295.697 -328.599 278.782C-301.748 268.384 -283.112 260.92 -260.369 266.308L-223.947 259.073C-202.56 254.825 -188.148 245.796 -109.441 244.854C-72.2168 244.408 -36.0301 242.843 -3.62755 234.946C9.81966 231.669 39.5524 229.045 53.1734 239.533C62.807 246.95 69.6791 255.197 76.2825 263.523L84.5731 252.939L66.051 237.239C90.9689 230.785 113.036 231.129 135.2 231.242C122.213 238.774 118.49 248.423 105.212 256.467C113.348 256.893 122.142 256.005 132.73 251.528C146.358 249.732 158.357 254.162 170.303 252.762C181.955 251.397 191.879 238.99 199.851 230.448ZM-153.556 271.525C-158.144 271.581 -164.842 273.306 -166.886 276.048C-170.977 281.537 -177.699 285.681 -173.324 296.863C-171.923 300.444 -167.602 293.376 -165.298 290.953L-149.863 274.724C-147.696 272.446 -149.987 271.481 -153.556 271.525ZM124.528 297.304C131.543 307.287 134.208 318.221 133.701 329.85C128.455 319.338 122.82 309.457 115.707 301.979L124.528 297.304ZM-220.33 345.889C-227.451 357.014 -244.071 385.719 -279.578 383.433C-275.454 378.979 -272.67 374.692 -263.238 369.837C-246.798 361.374 -234.111 354.706 -220.33 345.889ZM304.092 370.517C324.464 374.276 346.28 377.037 363.808 382.992C370.891 385.399 375.618 392.45 360.113 395.121C339.936 398.596 321.031 388.257 304.092 370.517ZM-426.889 380.315C-438.465 388.215 -448.325 397.508 -462.189 403.515C-469.708 406.774 -477.039 410.879 -484.516 407.632C-488.412 405.939 -489.078 403.352 -483.144 400.522C-464.857 391.801 -445.689 386.762 -426.889 380.315Z" fill="#373737"/>
</g>
</svg>
