<svg width="514" height="462" viewBox="0 0 514 462" fill="none" xmlns="http://www.w3.org/2000/svg">
<path d="M70.3622 2.01912L37.2161 2.70438C18.0839 3.09992 4.20762 21.0653 8.65915 39.6767L105.51 444.599C107.663 453.599 115.708 459.947 124.962 459.947H469.487C486.667 459.947 495.852 439.714 484.542 426.781L139.972 32.7543C122.454 12.7218 96.9682 1.46907 70.3622 2.01912Z" fill="#62358B"/>
<mask id="mask0_46_179" style="mask-type:alpha" maskUnits="userSpaceOnUse" x="7" y="2" width="483" height="458">
<path d="M70.3622 2.01912L37.2161 2.70438C18.0839 3.09992 4.20762 21.0653 8.65915 39.6767L105.51 444.599C107.663 453.599 115.708 459.947 124.962 459.947H469.487C486.667 459.947 495.852 439.714 484.542 426.781L139.972 32.7543C122.454 12.7218 96.9682 1.46907 70.3622 2.01912Z" fill="#1C1C1C"/>
</mask>
<g mask="url(#mask0_46_179)">
<path d="M74.3419 425.76C79.9936 440.124 83.2773 443.006 98.9144 443.006C114.551 443.006 126.436 435.947 134.902 416.445L168.41 339.109L206.073 425.76C212.082 439.7 215.008 443.006 230.645 443.006C246.081 443.006 256.916 436.304 266.097 416.445L362.309 208.696C365.749 201.346 360.768 195.896 354.401 195.896H329.36C307.177 195.896 293.618 205.144 283.476 227.438L235.158 334.73L206.721 269.725C205.358 266.753 204.652 263.523 204.652 260.253C204.652 256.984 205.358 253.753 206.721 250.782L212.774 236.798C222.514 214.459 231.472 207.758 245.031 204.72C243.959 198.018 239.38 195.784 228.724 195.784H193.742C172.23 195.784 156.771 204.72 147.791 227.326L105.348 334.663L68.0871 227.438C60.6036 205.613 44.8326 195.851 22.6279 195.851H-2.39132C-8.9142 195.851 -13.3149 201.123 -10.4109 208.651L74.3419 425.76Z" fill="white"/>
</g>
<path d="M70.3418 1.01953C97.2433 0.463456 123.012 11.8408 140.725 32.0957L485.295 426.123C497.17 439.702 487.527 460.947 469.487 460.947H124.962C115.246 460.947 106.798 454.282 104.538 444.832L7.68652 39.9092C3.08669 20.6775 17.4255 2.11387 37.1953 1.70508L70.3418 1.01953Z" stroke="#1E1E1E" stroke-width="2"/>
</svg>
