<svg width="514" height="459" viewBox="0 0 514 459" fill="none" xmlns="http://www.w3.org/2000/svg">
<path d="M70.3622 0.0191191L37.2161 0.704379C18.0839 1.09992 4.20762 19.0653 8.65915 37.6767L105.51 442.599C107.663 451.599 115.708 457.947 124.962 457.947H469.487C486.667 457.947 495.852 437.714 484.542 424.781L139.972 30.7543C122.454 10.7218 96.9682 -0.530932 70.3622 0.0191191Z" fill="#5FDD25"/>
<mask id="mask0_46_448" style="mask-type:alpha" maskUnits="userSpaceOnUse" x="7" y="0" width="483" height="458">
<path d="M70.3622 0.0191191L37.2161 0.704379C18.0839 1.09992 4.20762 19.0653 8.65915 37.6767L105.51 442.599C107.663 451.599 115.708 457.947 124.962 457.947H469.487C486.667 457.947 495.852 437.714 484.542 424.781L139.972 30.7543C122.454 10.7218 96.9682 -0.530932 70.3622 0.0191191Z" fill="#9BAFC8"/>
</mask>
<g mask="url(#mask0_46_448)">
<path d="M294.144 269.609C301.806 271.586 305.419 283.257 302.216 295.687C299.013 308.116 290.197 316.578 282.529 314.586C274.867 312.624 271.252 300.937 274.463 288.523C277.666 276.093 286.474 267.616 294.144 269.609ZM277.089 260.12C274.984 254.111 269.268 249.794 262.531 249.794C254.6 249.794 248.077 255.787 247.222 263.489L233.915 345.093C233.852 345.629 233.821 346.199 233.821 346.768C233.821 355.291 240.723 362.172 249.232 362.172C257.208 362.172 263.772 356.114 264.555 348.334L269.158 320.184H269.149C271.245 322.636 273.704 324.802 276.527 326.59C293.875 337.628 318.141 330.511 330.737 310.711C343.325 290.895 339.458 265.925 322.119 254.886C308.361 246.141 290.26 248.798 277.08 260.137L277.089 260.12Z" fill="white"/>
<path d="M195.279 263.489C196.133 255.787 202.664 249.793 210.595 249.793C219.111 249.793 225.998 256.673 225.998 265.196C225.998 265.735 225.967 266.256 225.926 266.762L217.506 318.081C216.723 325.86 210.16 331.934 202.181 331.934C193.674 331.934 186.771 325.038 186.771 316.515C186.771 315.946 186.802 315.375 186.866 314.792V314.839L195.279 263.489Z" fill="white"/>
<path d="M133.079 273.056H108.97C102.55 273.056 97.3463 267.869 97.3463 261.433C97.3463 255.012 102.55 249.825 108.97 249.825L167.324 249.793C173.745 249.793 178.948 254.981 178.948 261.385C178.948 265.054 177.264 268.296 174.638 270.431L130.225 308.623H157.575C163.988 308.623 169.198 313.826 169.198 320.247C169.198 326.668 163.988 331.871 157.575 331.871H95.9868C89.5661 331.871 84.3627 326.668 84.3627 320.247C84.3627 317.038 85.6592 314.128 87.7705 312.04V312.023L133.079 273.056Z" fill="white"/>
<circle cx="171.303" cy="392.715" r="7.38757" fill="white"/>
<circle cx="136.793" cy="402.766" r="7.38757" fill="white"/>
<circle cx="107.775" cy="419.403" r="7.38757" fill="white"/>
<circle cx="206.641" cy="384.38" r="7.38757" fill="white"/>
<circle cx="241.979" cy="382.547" r="7.38757" fill="white"/>
<circle cx="277.317" cy="388.881" r="7.38757" fill="white"/>
<circle cx="309.988" cy="403.656" r="7.38757" fill="white"/>
<circle cx="338.136" cy="423.792" r="7.38757" fill="white"/>
</g>
</svg>
