<svg width="514" height="460" viewBox="0 0 514 460" fill="none" xmlns="http://www.w3.org/2000/svg">
<path d="M70.3622 1.01936L37.2161 1.70462C18.0839 2.10016 4.20762 20.0656 8.65915 38.6769L105.51 443.6C107.663 452.599 115.708 458.947 124.962 458.947H469.487C486.667 458.947 495.852 438.714 484.542 425.781L139.972 31.7545C122.454 11.722 96.9682 0.469313 70.3622 1.01936Z" fill="#2E33C0" stroke="#1E1E1E" stroke-width="2"/>
<mask id="mask0_45_1432" style="mask-type:alpha" maskUnits="userSpaceOnUse" x="7" y="1" width="483" height="458">
<path d="M70.3622 1.01936L37.2161 1.70462C18.0839 2.10016 4.20762 20.0656 8.65915 38.6769L105.51 443.6C107.663 452.599 115.708 458.947 124.962 458.947H469.487C486.667 458.947 495.852 438.714 484.542 425.781L139.972 31.7545C122.454 11.722 96.9682 0.469313 70.3622 1.01936Z" fill="#9BAFC8"/>
</mask>
<g mask="url(#mask0_45_1432)">
<path d="M529.71 610.256L53.7974 280.296L120.77 580.126L529.71 610.256Z" fill="white"/>
<path d="M517.736 551.429L41.8232 221.469L-55.3966 -19.363L13.4369 -21.8421L489.35 308.118L517.736 551.429Z" fill="#D91D3F"/>
</g>
</svg>
