<svg width="514" height="462" viewBox="0 0 514 462" fill="none" xmlns="http://www.w3.org/2000/svg">
<path d="M70.3622 2.01912L37.2161 2.70438C18.0839 3.09992 4.20762 21.0653 8.65915 39.6767L105.51 444.599C107.663 453.599 115.708 459.947 124.962 459.947H469.487C486.667 459.947 495.852 439.714 484.542 426.781L139.972 32.7543C122.454 12.7218 96.9682 1.46907 70.3622 2.01912Z" fill="white"/>
<mask id="mask0_17_1094" style="mask-type:alpha" maskUnits="userSpaceOnUse" x="5" y="0" width="487" height="462">
<path d="M70.3418 1.01953C97.2433 0.463456 123.012 11.8408 140.725 32.0957L485.295 426.123C497.17 439.702 487.527 460.947 469.487 460.947H124.962C115.246 460.947 106.798 454.282 104.538 444.832L7.68652 39.9092C3.08669 20.6775 17.4255 2.11387 37.1953 1.70508L70.3418 1.01953Z" fill="white" stroke="#1E1E1E" stroke-width="2"/>
</mask>
<g mask="url(#mask0_17_1094)">
<path d="M457.513 472.217C291.759 299.121 201.034 197.093 45.874 0.192383H139.393L380.797 164.807L642.713 472.217H457.513Z" fill="#FFD101"/>
<path d="M437.101 472.217C254.433 290.669 170.63 185.932 14.4052 0.192421L2.64957 -24.5293L-38.8994 5.97495L76.8063 319.432L233.535 485.628L437.101 472.217Z" fill="#F60028"/>
<path d="M213.549 485.628L86.799 357.826L81.54 350.462L92.5847 485.628H213.549Z" fill="#0249B5"/>
</g>
</svg>
