<svg width="514" height="459" viewBox="0 0 514 459" fill="none" xmlns="http://www.w3.org/2000/svg">
<path d="M70.3622 0.0193633L37.2161 0.704623C18.0839 1.10016 4.20762 19.0656 8.65915 37.6769L105.51 442.6C107.663 451.599 115.708 457.947 124.962 457.947H469.487C486.667 457.947 495.852 437.714 484.542 424.781L139.972 30.7545C122.454 10.722 96.9682 -0.530687 70.3622 0.0193633Z" fill="#CB2D34"/>
<mask id="mask0_46_210" style="mask-type:alpha" maskUnits="userSpaceOnUse" x="7" y="0" width="483" height="458">
<path d="M70.3622 0.0193633L37.2161 0.704623C18.0839 1.10016 4.20762 19.0656 8.65915 37.6769L105.51 442.6C107.663 451.599 115.708 457.947 124.962 457.947H469.487C486.667 457.947 495.852 437.714 484.542 424.781L139.972 30.7545C122.454 10.722 96.9682 -0.530687 70.3622 0.0193633Z" fill="#9BAFC8"/>
</mask>
<g mask="url(#mask0_46_210)">
<path d="M469.921 472.154C406.58 301.818 202.862 146.034 0 156.305L11.895 235.391C263.358 230.66 354.672 321.99 469.921 472.154Z" fill="white"/>
</g>
</svg>
