<svg width="514" height="462" viewBox="0 0 514 462" fill="none" xmlns="http://www.w3.org/2000/svg">
<path d="M70.3418 1.02002C97.2433 0.463945 123.012 11.8413 140.725 32.0962L485.295 426.124C497.17 439.703 487.527 460.947 469.487 460.948H124.962C115.246 460.948 106.798 454.282 104.538 444.833L7.68652 39.9097C3.08669 20.678 17.4255 2.11435 37.1953 1.70557L70.3418 1.02002Z" fill="white" stroke="#1E1E1E" stroke-width="2"/>
<mask id="mask0_31_7646" style="mask-type:alpha" maskUnits="userSpaceOnUse" x="7" y="2" width="483" height="458">
<path d="M70.3622 2.01961L37.2161 2.70487C18.0839 3.10041 4.20762 21.0658 8.65915 39.6771L105.51 444.6C107.663 453.6 115.708 459.948 124.962 459.948H469.487C486.667 459.948 495.852 439.715 484.542 426.782L139.972 32.7547C122.454 12.7223 96.9682 1.46956 70.3622 2.01961Z" fill="#003BA8"/>
</mask>
<g mask="url(#mask0_31_7646)">
<path d="M9.63789 258.506C9.63789 260.982 44.4422 263.304 94.1285 265.254C102.903 260.277 109.561 255.274 114.436 250.963C54.1797 253.093 9.63789 255.722 9.63789 258.506ZM45.3299 174.623C45.3299 176.688 74.5026 178.625 116.209 180.293C110.231 176.804 104.073 173.289 97.6073 169.761C66.0998 171.21 45.3299 172.891 45.3299 174.623ZM356.088 355.085C375.395 355.316 392.329 355.405 405.555 355.405C424.593 355.405 440.013 349.542 440.013 342.269C440.013 335.033 424.594 329.171 405.555 329.171C388.698 329.171 365.863 329.35 339.667 329.684C349.801 344.309 354.612 353.097 355.061 353.648C355.356 354.072 355.729 354.571 356.088 355.085ZM345.687 372.654C339.324 380.339 333.218 386.804 325.046 393.873C325.046 393.873 321.967 398.273 312.615 394.501C303.096 390.627 295.026 385.354 285.931 373.154C259.375 373.603 231.216 374.194 203.494 374.822C201.21 378.144 196.579 385.021 190.87 393.5C268.15 395.502 352.025 396.695 394.989 396.695C412.884 396.695 427.406 391.14 427.406 384.341C427.406 377.503 412.885 371.987 394.989 371.987C381.903 371.987 365.046 372.076 345.752 372.294C345.755 372.417 345.733 372.54 345.687 372.654ZM375.582 437.102C391.464 437.102 404.331 432.214 404.331 426.184C404.331 420.142 391.465 415.241 375.582 415.241C333.568 415.241 247.436 416.524 173.67 418.615C170.117 423.708 166.563 428.776 163.19 433.432C239.135 435.665 331.579 437.102 375.582 437.102ZM130.589 472.148C192.539 474.867 299.056 476.689 343.316 476.689C355.772 476.689 365.894 472.801 365.894 468.094C365.894 463.347 355.772 459.485 343.315 459.485C300.981 459.485 201.558 461.153 138.812 463.655C135.977 466.695 133.206 469.557 130.589 472.148ZM292.209 495.382C255.66 495.382 144.397 498.141 144.397 501.476C144.397 504.863 255.673 507.596 292.209 507.596C299.329 507.596 305.089 504.863 305.089 501.476C305.089 498.141 299.33 495.382 292.209 495.382ZM291.805 270.41C337.809 271.193 379.028 271.628 405.558 271.628C424.583 271.628 440.016 265.766 440.016 258.505C440.016 251.257 424.583 245.368 405.558 245.368C374.743 245.368 324.108 245.958 269.214 246.998C276.928 254.622 284.46 262.429 291.805 270.41ZM66.1613 211.735C39.2087 213.198 22.2485 214.801 22.2485 216.469C22.2485 218.303 42.7746 220.061 74.539 221.626C67.7521 216.52 66.2643 212.068 66.1613 211.735ZM394.982 228.802C412.891 228.802 427.413 223.286 427.413 216.461C427.413 209.649 412.891 204.107 394.982 204.107C358.254 204.107 291.634 205.005 224.809 206.48C232.714 213.145 240.485 219.967 248.118 226.942C306.771 228.123 362.525 228.802 394.982 228.802ZM195.265 182.761C263.591 184.493 337.613 185.558 375.586 185.558C391.468 185.558 404.322 180.67 404.322 174.628C404.322 168.586 391.468 163.672 375.586 163.672C333.674 163.672 247.748 164.981 174.085 167.059C177.754 169.727 181.449 172.395 185.194 175.192C188.607 177.732 191.969 180.234 195.265 182.761ZM343.32 141.299C355.777 141.299 365.899 137.463 365.899 132.704C365.899 127.957 355.777 124.095 343.32 124.095C296.329 124.095 179.125 126.173 119.6 129.137C123.397 131.626 127.194 134.205 131.03 136.796C193.07 139.477 299.151 141.299 343.32 141.299ZM409.108 313.751C428.479 313.751 444.207 307.785 444.207 300.383C444.207 293.032 428.479 287.042 409.108 287.042C384.823 287.042 348.478 287.4 307.376 288.029C314.325 296.195 321.054 304.545 327.555 313.071C360.282 313.507 388.89 313.751 409.108 313.751ZM305.084 99.3086C305.084 95.9347 299.325 93.2024 292.204 93.2024C255.668 93.2024 144.391 95.9347 144.391 99.3086C144.391 102.657 255.655 105.402 292.204 105.402C299.324 105.402 305.084 102.657 305.084 99.3086Z" fill="#C4C4C4"/>
<path d="M5.99457 290.503C5.73748 297.083 5.77603 303.67 6.1101 310.247C70.8441 312.812 132.229 316.713 132.229 321.1C132.229 325.41 72.2165 329.272 8.22707 331.825C9.34021 339.136 10.7912 346.392 12.5754 353.57C75.6545 356.148 134.192 359.945 134.192 364.218C134.192 368.336 79.542 372.043 19.0282 374.621C21.7995 382.344 24.9424 389.849 28.4708 397.033C80.4398 399.535 123.391 402.871 123.391 406.513C123.391 409.914 85.8663 413.056 38.567 415.481C41.2227 419.804 43.9932 424.038 46.8925 428.04C49.9714 432.402 53.3196 436.726 56.8606 440.972C86.4312 443.217 106.726 445.77 106.726 448.502C106.726 450.85 92.1915 453.043 69.7919 455.007C82.0176 467.104 96.4627 478.406 113.487 488.271C113.487 488.271 133.538 471.004 150.087 450.837C164.84 432.851 196.142 385.436 203.506 374.827C210.883 364.217 215.732 361.113 224.353 364.191C235.911 368.284 249.343 370.337 253.474 370.337C257.605 370.337 259.875 368.733 252.948 365.988C246.046 363.204 218.76 350.323 205.327 323.704C190.241 293.723 203.507 252.325 203.507 252.325C208.573 274.455 220.094 282.716 220.094 282.716C216.373 262.164 220.427 243.537 230.575 230.465L236.232 256.482C236.232 256.482 239.773 256.302 248.535 263.666C257.284 271.042 259.696 281.793 259.696 281.793C252.807 284.563 244.519 277.649 244.519 277.649C255.103 317.251 270.279 349.49 281.351 366.539C292.409 383.589 301.531 390.016 312.615 394.519C321.967 398.265 325.046 393.864 325.046 393.864C333.218 386.809 339.324 380.343 345.687 372.659C345.687 372.659 346.201 371.761 344.482 371.786C339.927 371.85 331.82 364.064 330.049 360.831C328.022 357.123 328.24 354.288 329.254 354.095C330.254 353.929 331.986 356.866 340.774 362.408C349.51 367.938 353.525 364.102 356.438 361.023C358.696 358.573 356.476 355.545 355.065 353.646C353.731 351.953 307.509 265.757 185.2 175.199C24.9161 56.5195 -77.4437 24.4726 -83.307 22.1635C-87.1814 20.6373 -93.5061 18.6226 -94.9426 20.0979C-96.5335 21.7661 -97.3157 23.1002 -97.0979 25.0371C-96.8926 26.9614 -95.8667 27.9496 -88.4514 31.2212C-26.9243 58.3282 44.9035 103.511 85.7117 129.81C135.898 154.262 183.814 189.181 185.558 190.015C189.419 192.414 186.572 195.904 184.237 194.441C99.4901 138.072 0.131237 99.6751 -109.67 68.219C-114.917 66.7311 -117.79 66.7311 -118.663 67.8857C-119.651 69.1683 -120.074 70.6305 -120.228 72.2472C-120.37 74.2612 -118.701 75.326 -114.199 77.0833C3.76211 120.906 90.7023 161.612 146.623 199.239C146.623 199.239 152.408 202.729 152.486 206.769C152.511 208.309 149.381 208.488 149.381 208.488C121.389 208.989 83.9676 210.631 66.1605 211.67C66.1605 211.67 68.7008 220.689 85.7501 227.95C98.9125 233.569 111.1 232.671 123.159 232.773C125.84 232.722 128.111 235.429 125.969 238.315C124.891 239.752 99.2339 281.061 5.99457 290.503Z" fill="#7E1249"/>
<path d="M70.3418 1.02002C97.2433 0.463945 123.012 11.8413 140.725 32.0962L485.295 426.124C497.17 439.703 487.527 460.947 469.487 460.948H124.962C115.246 460.948 106.798 454.282 104.538 444.833L7.68652 39.9097C3.08669 20.678 17.4255 2.11435 37.1953 1.70557L70.3418 1.02002Z" stroke="#1E1E1E" stroke-width="2"/>
</g>
</svg>
