<svg width="514" height="462" viewBox="0 0 514 462" fill="none" xmlns="http://www.w3.org/2000/svg">
<path d="M70.3418 1.01953C97.2433 0.463456 123.012 11.8408 140.725 32.0957L485.295 426.123C497.17 439.702 487.527 460.947 469.487 460.947H124.962C115.246 460.947 106.798 454.282 104.538 444.832L7.68652 39.9092C3.08669 20.6775 17.4255 2.11387 37.1953 1.70508L70.3418 1.01953Z" fill="url(#paint0_linear_18_2)" stroke="#1E1E1E" stroke-width="2"/>
<mask id="mask0_18_2" style="mask-type:alpha" maskUnits="userSpaceOnUse" x="5" y="0" width="487" height="462">
<path d="M70.3418 1.01953C97.2433 0.463456 123.012 11.8408 140.725 32.0957L485.295 426.123C497.17 439.702 487.527 460.947 469.487 460.947H124.962C115.246 460.947 106.798 454.282 104.538 444.832L7.68652 39.9092C3.08669 20.6775 17.4255 2.11387 37.1953 1.70508L70.3418 1.01953Z" fill="white" stroke="#1E1E1E" stroke-width="2"/>
</mask>
<g mask="url(#mask0_18_2)">
<path d="M325.752 389.408L306.686 370.342L265.652 411.375C258.21 418.817 260.942 424.809 267.653 431.521C270.205 434.072 273.285 436.433 276.006 439.154L253.298 461.862C247.486 456.41 241.134 451.498 235.513 445.876C209.173 419.537 210.073 405.192 235.682 379.584L275.805 339.461L260.19 323.846L280.918 303.118L296.533 318.733L326.133 289.133L357.014 320.014L327.414 349.614L346.48 368.68L325.752 389.408ZM128.039 258.17C100.482 285.726 72.4067 285.535 43.4738 256.602C10.9204 224.049 19.1883 194.778 46.5755 167.39L51.9111 162.055L82.0508 192.194L70.6809 203.564C62.5822 211.663 62.5824 220.619 70.5011 228.538C77.9116 235.948 86.1797 235.938 98.0683 224.049L180.05 142.067L212.095 174.113L128.039 258.17ZM217.539 312.576C227.437 301.597 228.708 285.569 218.439 275.3C207.63 264.492 192.682 265.042 179.544 274.581L217.539 312.576ZM162.447 291.678C150.198 305.006 149.118 320.844 162.087 333.812C169.465 341.191 180.084 344.991 189.824 341.032L218.439 369.647C191.253 385.675 161.907 375.047 141.02 354.159C110.594 323.734 108.233 284.659 139.569 253.323C168.195 224.697 211.6 227.047 239.146 254.593C272.641 288.089 264.162 330.043 231.058 360.289L162.447 291.678Z" fill="#100E0C"/>
<path fill-rule="evenodd" clip-rule="evenodd" d="M558.847 453.237L498.917 521.128L587.198 609.409L446.694 580.804L373.076 691.729L363.622 557.44L216.639 510.923L353.417 489.538L355.661 377.872L444.206 466.417L558.847 453.237Z" fill="#FE5815"/>
<path d="M70.3418 1.01953C97.2433 0.463456 123.012 11.8408 140.725 32.0957L485.295 426.123C497.17 439.702 487.527 460.947 469.487 460.947H124.962C115.246 460.947 106.798 454.282 104.538 444.832L7.68652 39.9092C3.08669 20.6775 17.4255 2.11387 37.1953 1.70508L70.3418 1.01953Z" stroke="#1E1E1E" stroke-width="2"/>
</g>
<defs>
<linearGradient id="paint0_linear_18_2" x1="256.773" y1="1.15137" x2="256.773" y2="459.947" gradientUnits="userSpaceOnUse">
<stop stop-color="#D4D4D4"/>
<stop offset="1" stop-color="#B1B1B1"/>
</linearGradient>
</defs>
</svg>
