<svg width="514" height="462" viewBox="0 0 514 462" fill="none" xmlns="http://www.w3.org/2000/svg">
<path d="M70.3418 1.01953C97.2433 0.463456 123.012 11.8408 140.725 32.0957L485.295 426.123C497.17 439.702 487.527 460.947 469.487 460.947H124.962C115.246 460.947 106.798 454.282 104.538 444.832L7.68652 39.9092C3.08669 20.6775 17.4255 2.11387 37.1953 1.70508L70.3418 1.01953Z" fill="#E00003" stroke="#1E1E1E" stroke-width="2"/>
<mask id="mask0_27_362" style="mask-type:alpha" maskUnits="userSpaceOnUse" x="7" y="2" width="483" height="458">
<path d="M70.3622 2.01912L37.2161 2.70438C18.0839 3.09992 4.20762 21.0653 8.65915 39.6767L105.51 444.599C107.663 453.599 115.708 459.947 124.962 459.947H469.487C486.667 459.947 495.852 439.714 484.542 426.781L139.972 32.7543C122.454 12.7218 96.9682 1.46907 70.3622 2.01912Z" fill="#F3CD02"/>
</mask>
<g mask="url(#mask0_27_362)">
<path d="M374.814 362.665C184.243 265.903 81.4933 117.862 62.8186 -58.1504C29.0219 -27.0646 15.5554 -1.18241 2.42578 22.289C28.7283 166.708 185.493 335.324 374.814 362.665Z" fill="white"/>
<path d="M370.547 388.765C184.33 361.808 28.0289 227.558 -27.3806 89.7651C-47.9335 143.508 -49.0293 162.214 -52.6172 197.373C39.1168 333.48 217.463 410.381 370.547 388.765Z" fill="white"/>
<path d="M237.706 254.972C198.18 373.21 124.936 458.995 -16.7285 432.602C50.934 432.602 137.566 349.438 157.757 288.321C218.586 104.194 286.54 23.3442 435.7 52.1498C377.178 55.0977 287.375 106.392 237.706 254.972Z" fill="white"/>
</g>
</svg>
