<svg width="514" height="459" viewBox="0 0 514 459" fill="none" xmlns="http://www.w3.org/2000/svg">
<path d="M70.3622 0.867752L37.2161 1.55301C18.0839 1.94855 4.20762 19.914 8.65915 38.5253L105.51 443.448C107.663 452.448 115.708 458.796 124.962 458.796H469.487C486.667 458.796 495.852 438.563 484.542 425.63L139.972 31.6029C122.454 11.5704 96.9682 0.317701 70.3622 0.867752Z" fill="#CE1942"/>
<mask id="mask0_100_152" style="mask-type:alpha" maskUnits="userSpaceOnUse" x="7" y="0" width="483" height="459">
<path d="M70.3622 0.867752L37.2161 1.55301C18.0839 1.94855 4.20762 19.914 8.65915 38.5253L105.51 443.448C107.663 452.448 115.708 458.796 124.962 458.796H469.487C486.667 458.796 495.852 438.563 484.542 425.63L139.972 31.6029C122.454 11.5704 96.9682 0.317701 70.3622 0.867752Z" fill="#1C1C1C"/>
</mask>
<g mask="url(#mask0_100_152)">
<path opacity="0.984" fill-rule="evenodd" clip-rule="evenodd" d="M139.469 279.185C138.591 279.249 137.883 279.629 137.34 280.327C148.626 305.19 159.941 330.023 171.273 354.831C195.409 349.134 219.456 343.058 243.401 336.604C234.468 316.893 225.466 297.215 216.398 277.569C190.686 278.295 165.041 278.834 139.469 279.185Z" fill="#981432"/>
<path opacity="0.979" fill-rule="evenodd" clip-rule="evenodd" d="M394.162 316.33C277.354 345.848 160.552 375.364 43.7448 404.881C48.8039 410.89 54.0303 416.82 59.4183 422.672C60.3178 422.884 61.2414 422.952 62.1893 422.878C169.936 405.251 277.556 387.22 385.06 368.779C388.458 351.333 391.496 333.85 394.162 316.33Z" fill="#981432"/>
<path opacity="0.992" fill-rule="evenodd" clip-rule="evenodd" d="M189.397 414.598C188.829 414.741 188.261 414.885 187.693 415.029C193.655 478.601 199.453 542.189 205.084 605.792C231.961 599.199 258.703 592.24 285.304 584.916C280.701 552.042 276.355 519.305 272.268 486.704C275.71 487.773 279.125 488.924 282.506 490.159C304.321 516.614 326.198 543.008 348.133 569.341C374.922 562.975 401.615 556.229 428.212 549.105C386.468 503.463 344.724 457.821 302.98 412.178C265.048 413.182 227.187 413.989 189.397 414.598Z" fill="#981432"/>
<path opacity="0.984" fill-rule="evenodd" clip-rule="evenodd" d="M11.9083 159.302C11.5365 160.1 11.5243 160.904 11.8702 161.717C39.0826 163.957 66.2832 166.158 93.4694 168.33C100.239 144.473 106.632 120.509 112.647 96.4493C91.0808 94.6607 69.509 92.9494 47.9335 91.3099C36.0552 114.126 24.0463 136.792 11.9083 159.302Z" fill="#981432"/>
<path opacity="0.979" fill-rule="evenodd" clip-rule="evenodd" d="M168.302 -45.1222C137.245 71.2856 106.19 187.688 75.1334 304.096C82.8447 302.6 90.5683 300.92 98.3027 299.061C98.9256 298.378 99.4351 297.605 99.8312 296.74C136.867 194.035 173.486 91.243 209.693 -11.6472C196.105 -23.1053 182.31 -34.2673 168.302 -45.1222Z" fill="#981432"/>
<path opacity="0.992" fill-rule="evenodd" clip-rule="evenodd" d="M154.502 181.582C154.351 182.148 154.2 182.714 154.049 183.28C212.488 209.008 270.859 234.888 329.164 260.92C336.484 234.232 343.418 207.484 349.965 180.681C319.006 168.705 288.292 156.57 257.823 144.275C260.432 141.789 263.099 139.366 265.823 137.013C299.55 130.83 333.255 124.562 366.934 118.214C374.408 91.7131 381.506 65.1114 388.225 38.409C328.038 52.6654 267.85 66.9218 207.663 81.1782C190.08 114.804 172.36 148.272 154.502 181.582Z" fill="#981432"/>
<path opacity="0.984" fill-rule="evenodd" clip-rule="evenodd" d="M104.83 88.2499C103.963 88.0964 103.184 88.2916 102.487 88.8357C107.338 115.706 112.223 142.554 117.132 169.382C141.928 169.773 166.731 169.773 191.527 169.382C187.696 148.084 183.789 126.8 179.812 105.531C154.705 99.9353 129.709 94.175 104.83 88.2499Z" fill="white"/>
<path opacity="0.979" fill-rule="evenodd" clip-rule="evenodd" d="M342.661 186.663C222.182 186.663 101.708 186.663 -18.7714 186.663C-15.3387 193.728 -11.7244 200.757 -7.93433 207.751C-7.11422 208.177 -6.23554 208.47 -5.29827 208.63C103.483 217.939 212.241 226.823 320.987 235.283C328.555 219.202 335.784 202.995 342.661 186.663Z" fill="white"/>
<path opacity="0.992" fill-rule="evenodd" clip-rule="evenodd" d="M120.061 231.768C119.475 231.768 118.889 231.768 118.304 231.768C108.509 294.864 98.5507 357.934 88.4282 420.978C116.101 421.172 143.733 420.977 171.318 420.393C174.908 387.393 178.716 354.588 182.74 321.98C185.816 323.86 188.844 325.812 191.82 327.838C206.488 358.831 221.233 389.781 236.047 420.686C263.58 421.076 291.112 421.076 318.644 420.686C289.354 366.207 260.065 311.729 230.775 257.25C193.753 248.93 156.849 240.436 120.061 231.768Z" fill="white"/>
</g>
</svg>
