<svg width="551" height="492" viewBox="0 0 551 492" fill="none" xmlns="http://www.w3.org/2000/svg">
<path d="M70.3622 0.867752L37.2161 1.55301C18.0839 1.94855 4.20762 19.914 8.65915 38.5253L105.51 443.448C107.663 452.448 115.708 458.796 124.962 458.796H469.487C486.667 458.796 495.852 438.563 484.542 425.63L139.972 31.6029C122.454 11.5704 96.9682 0.317701 70.3622 0.867752Z" fill="#082C88"/>
<mask id="mask0_100_456" style="mask-type:alpha" maskUnits="userSpaceOnUse" x="7" y="0" width="483" height="459">
<path d="M70.3622 0.867752L37.2161 1.55301C18.0839 1.94855 4.20762 19.914 8.65915 38.5253L105.51 443.448C107.663 452.448 115.708 458.796 124.962 458.796H469.487C486.667 458.796 495.852 438.563 484.542 425.63L139.972 31.6029C122.454 11.5704 96.9682 0.317701 70.3622 0.867752Z" fill="#104093"/>
</mask>
<g mask="url(#mask0_100_456)">
<path d="M446.951 268.578C434.853 262.238 347.969 239.767 277.497 227.622C254.019 223.073 230.214 220.433 206.32 219.727C248.828 221.465 282.413 256.394 282.44 298.934C282.44 300.633 282.296 302.293 282.191 303.98C281.25 327.249 278.581 350.424 274.187 373.301L478.98 324.685C479.163 322.855 479.255 320.999 479.255 319.129C479.241 297.416 466.636 277.687 446.951 268.578Z" fill="#005EB8"/>
<path d="M203.059 378.275C200.273 378.275 197.501 378.118 194.728 377.831C172.519 376.707 150.401 374.079 128.548 369.961L177.163 574.519C178.994 574.702 180.851 574.794 182.721 574.794C204.459 574.794 224.221 562.166 233.323 542.427C239.667 530.348 262.084 443.677 274.248 373.295C278.643 350.418 281.324 327.253 282.253 303.974C279.61 345.753 244.94 378.275 203.059 378.275Z" fill="#0077C8"/>
<path d="M123.62 298.921V298.634C123.62 297.235 123.751 295.863 123.83 294.477C124.68 270.894 127.348 247.418 131.834 224.253L-72.9586 272.883C-73.1418 274.726 -73.2334 276.569 -73.2334 278.438C-73.2334 300.164 -60.5989 319.917 -40.8493 329.014C-28.7512 335.354 58.1328 357.812 128.592 369.956C150.447 374.074 172.551 376.702 194.772 377.825C154.344 373.59 123.634 339.552 123.62 298.921Z" fill="#00A3E0"/>
<path d="M228.907 23.0435C227.062 22.8604 225.218 22.7688 223.348 22.7688C201.611 22.7688 181.848 35.3967 172.746 55.1359C166.403 67.2277 143.985 153.885 131.835 224.268C127.348 247.432 124.667 270.911 123.83 294.491C126.145 252.476 160.896 219.588 202.986 219.561C204.124 219.561 205.183 219.692 206.282 219.731C230.204 220.424 254.033 223.065 277.524 227.614L228.907 23.0435Z" fill="#71C5E8"/>
<path d="M204.164 218.949H203.026C159.002 218.949 123.282 254.584 123.216 298.585V298.847C123.216 342.43 158.281 377.908 201.889 378.43H203.027C247.052 378.43 282.771 342.795 282.838 298.793V298.532C282.851 254.949 247.772 219.471 204.164 218.949Z" fill="#082C88"/>
<path d="M202.748 343.507C187.38 343.115 173.372 334.566 165.996 321.088C73.382 314.225 -26.711 299.819 -27.8616 299.819C-29.5881 299.819 -30.1505 298.094 -30.1505 296.944C-30.2549 295.453 -29.1303 294.159 -27.6393 294.041C-27.5477 294.028 -27.4561 294.028 -27.3516 294.041L160.752 298.068C160.282 277.374 174.08 259.06 194.117 253.804L200.448 176.756C200.356 175.266 201.494 173.971 202.985 173.88C203.089 173.867 203.207 173.867 203.312 173.88C204.803 173.788 206.098 174.926 206.189 176.416C206.203 176.52 206.203 176.638 206.189 176.743L213.056 253.791C232.832 259.321 246.329 277.544 245.846 298.055L433.441 294.028C434.945 293.95 436.227 295.087 436.318 296.591V296.891C436.462 298.316 435.442 299.584 434.029 299.767C432.891 299.767 332.206 313.572 240.181 320.461C232.896 334.461 218.522 343.311 202.748 343.507Z" fill="white"/>
</g>
</svg>
