<svg width="514" height="459" viewBox="0 0 514 459" fill="none" xmlns="http://www.w3.org/2000/svg">
<path d="M70.3622 0.867752L37.2161 1.55301C18.0839 1.94855 4.20762 19.914 8.65915 38.5253L105.51 443.448C107.663 452.448 115.708 458.796 124.962 458.796H469.487C486.667 458.796 495.852 438.563 484.542 425.63L139.972 31.6029C122.454 11.5704 96.9682 0.317701 70.3622 0.867752Z" fill="#FFE900"/>
<mask id="mask0_24_34" style="mask-type:alpha" maskUnits="userSpaceOnUse" x="7" y="0" width="483" height="459">
<path d="M70.3622 0.867752L37.2161 1.55301C18.0839 1.94855 4.20762 19.914 8.65915 38.5253L105.51 443.448C107.663 452.448 115.708 458.796 124.962 458.796H469.487C486.667 458.796 495.852 438.563 484.542 425.63L139.972 31.6029C122.454 11.5704 96.9682 0.317701 70.3622 0.867752Z" fill="white"/>
</mask>
<g mask="url(#mask0_24_34)">
<path d="M195.118 108.533C213.563 133.44 211.913 159.062 196.912 170.568L194.929 172.09L172.495 142.844L174.478 141.322C176.227 139.981 176.898 138.142 176.751 135.965C176.599 133.697 175.539 131.13 173.843 128.863C172.146 126.595 169.986 124.861 167.904 124.072C165.894 123.31 164.111 123.455 162.6 124.614C159.811 126.754 158.36 129.18 157.926 132.159C157.478 135.244 158.087 139.169 159.978 144.296C167.053 159.633 169.553 172.78 168.177 183.747C166.789 194.811 161.477 203.463 153.359 209.69C144.43 216.54 132.414 217.1 121.281 213.996C110.124 210.885 99.3715 203.982 92.6 195.155C84.9735 185.212 78.5826 173.363 77.0899 161.592C75.5733 149.632 79.1492 137.857 91.1788 128.629L93.1624 127.108L115.395 156.091L113.411 157.612C111.934 158.746 111.022 160.671 111.275 163.529C111.534 166.444 113.024 170.231 116.322 174.531C119.84 179.116 125.386 180.665 129.342 179.507C131.263 178.945 132.795 177.763 133.689 175.964C134.592 174.145 134.976 171.418 134.032 167.567L126.288 140.914L126.281 140.893L126.276 140.872C123.615 131.075 121.989 122.879 123.461 115.374C124.967 107.699 129.609 101.155 138.459 94.3662C147.596 87.3571 158.519 86.5603 168.572 89.5037C178.583 92.4346 187.899 99.1019 194.224 107.348L195.118 108.533Z" fill="white" stroke="#1D1D1B" stroke-width="5"/>
<path d="M272.189 216.867C281.729 229.303 286.298 243.995 286.207 258.544L286.191 261.071L283.665 261.028L251.007 260.482L248.523 260.44L248.549 257.956C248.62 251.35 246.563 244.678 242.229 239.028C231.945 225.62 212.739 223.089 199.331 233.373C185.924 243.658 183.392 262.864 193.677 276.271C198.037 281.955 203.993 285.681 210.436 287.309L212.494 287.829L212.314 289.944L209.535 322.748L209.304 325.471L206.612 324.999C190.461 322.166 175.278 313.503 164.51 299.466C141.701 269.731 147.315 227.136 177.05 204.327C206.785 181.517 249.38 187.132 272.189 216.867Z" fill="white" stroke="#1D1D1B" stroke-width="5"/>
<path d="M342.824 308.944C365.599 338.635 359.993 381.168 330.302 403.943C300.611 426.718 258.079 421.112 235.303 391.422C212.528 361.731 218.134 319.198 247.824 296.423C277.515 273.647 320.048 279.253 342.824 308.944ZM313.791 330.452C303.095 316.507 283.12 313.874 269.175 324.571C255.231 335.267 252.597 355.243 263.294 369.188C273.99 383.132 293.966 385.764 307.911 375.068C321.855 364.371 324.488 344.396 313.791 330.452Z" fill="white" stroke="#1D1D1B" stroke-width="5"/>
<path d="M431.486 424.529C454.261 454.22 448.655 496.753 418.964 519.528C389.273 542.303 346.741 536.697 323.965 507.007C301.19 477.316 306.796 434.783 336.486 412.008C366.178 389.232 408.711 394.838 431.486 424.529ZM402.454 446.037C391.757 432.092 371.782 429.459 357.837 440.156C343.893 450.852 341.259 470.828 351.956 484.773C362.652 498.717 382.628 501.349 396.573 490.653C410.517 479.956 413.15 459.981 402.454 446.037Z" fill="white" stroke="#1D1D1B" stroke-width="5"/>
</g>
</svg>
