<svg width="514" height="459" viewBox="0 0 514 459" fill="none" xmlns="http://www.w3.org/2000/svg">
<path d="M70.3622 0.867752L37.2161 1.55301C18.0839 1.94855 4.20762 19.914 8.65915 38.5253L105.51 443.448C107.663 452.448 115.708 458.796 124.962 458.796H469.487C486.667 458.796 495.852 438.563 484.542 425.63L139.972 31.6029C122.454 11.5704 96.9682 0.317701 70.3622 0.867752Z" fill="#0C2F59"/>
<mask id="mask0_35_6" style="mask-type:alpha" maskUnits="userSpaceOnUse" x="7" y="0" width="483" height="459">
<path d="M70.3622 0.867752L37.2161 1.55301C18.0839 1.94855 4.20762 19.914 8.65915 38.5253L105.51 443.448C107.663 452.448 115.708 458.796 124.962 458.796H469.487C486.667 458.796 495.852 438.563 484.542 425.63L139.972 31.6029C122.454 11.5704 96.9682 0.317701 70.3622 0.867752Z" fill="#1C1C1C"/>
</mask>
<g mask="url(#mask0_35_6)">
<path d="M-23.3434 63.2907L149.61 5.27459L145.779 -27.0173L-40.8577 -4.02984L-23.3434 63.2907Z" fill="#E41D25"/>
<path d="M253.008 287.827C256.016 287.86 258.074 288.753 259.746 289.542C263.229 291.194 267.307 293.095 272.418 295.565C272.418 295.587 280.652 289.695 281.095 289.391C283.907 287.49 286.606 288.938 287.481 290.577C290.556 296.381 296.225 308.419 299.218 319.434C299.562 320.762 299.148 322.8 297.08 323.44C295.886 323.775 293.837 324.075 291.696 324.345C288.708 324.715 288.76 327.134 288.76 328.592C288.76 330.408 288.785 342.551 288.785 346.71C288.852 349.26 286.907 357.602 277.27 357.602C276.627 357.602 255.196 357.602 255.29 357.602C246.974 357.636 240.29 350.599 240.245 343.121C240.236 338.204 240.245 303.982 240.256 300.15C240.295 292.742 246.948 287.743 253.008 287.827Z" fill="white"/>
<path d="M218.232 357.602H146.764V365.538H230.622C230.622 365.538 233.665 358.519 233.665 350.745C233.665 350.334 233.691 296.868 233.691 296.868C233.691 292.624 235.419 285.433 244.152 283.532C244.392 283.48 244.637 283.427 244.889 283.381C269.634 277.538 295.141 282.857 309.542 289.056C312.124 290.315 312.713 288.253 312.637 287.372C312.933 275.265 303.73 261.458 286.805 260.63C273.041 260.313 265.415 265.245 262.622 266.608C262.384 266.728 262.049 266.678 261.732 266.323C259.2 263.824 253.787 260.075 247.696 258.342C246.784 258.139 246.713 256.79 247.749 256.682C260.759 255.276 272.172 256.768 276.912 257.531C278.011 257.72 278.846 257.079 278.408 256.068C278.057 255.292 277.795 254.95 277.239 253.76C276.077 251.259 273.017 248.625 269.123 247.533C258.882 244.687 241.45 242.228 225.934 242.134C208.46 242.025 190.031 245.511 185.377 246.572C184.264 246.808 182.699 247.212 182.414 247.257C181.143 247.514 180.84 248.729 181.4 249.316C181.734 249.686 182.706 250.502 183.166 251.067C183.743 251.792 184.003 252.817 182.914 253.889L150.591 282.907H172.706H172.956C174.392 282.857 175.761 284.18 175.761 285.83C175.776 287.312 174.572 288.735 173.062 288.735H172.886H144.156L135.363 296.734H172.974L173.185 296.716C174.665 296.734 175.811 298.237 175.787 299.647C175.776 300.926 174.685 302.502 173.185 302.502L172.956 302.527H128.92L120.115 310.465H196.081L196.325 310.474C197.823 310.474 198.985 312.023 198.992 313.368C199.016 314.922 197.914 316.313 196.382 316.308H196.175H120.098V324.244H196.003L196.231 324.263C197.973 324.28 198.992 325.849 198.985 327.276C198.972 328.615 197.709 330.037 196.196 330.037H195.994H120.098V338.021H219.19H219.431C221.085 338.067 222.135 339.484 222.089 341.035C222.042 342.38 220.929 343.796 219.443 343.796H219.223H146.794V351.797H218.232L219.75 351.78C221.085 351.78 222.242 353.442 222.242 354.787C222.242 356.139 221.061 357.602 219.715 357.602H218.232Z" fill="white"/>
<path d="M173.459 385.036L173.45 393.169C173.45 393.169 184.189 393.202 190.313 393.169C205.413 393.049 215.304 385.036 215.304 385.036H173.459Z" fill="white"/>
<path d="M173.459 371.36L173.45 379.315H221.957C224.192 377.035 227.065 372.894 227.832 371.378L173.459 371.36Z" fill="white"/>
</g>
</svg>
