<svg width="514" height="461" viewBox="0 0 514 461" fill="none" xmlns="http://www.w3.org/2000/svg">
<path d="M70.3622 0.867752L37.2161 1.55301C18.0839 1.94855 4.20762 19.914 8.65915 38.5253L105.51 443.448C107.663 452.448 115.708 458.796 124.962 458.796H469.487C486.667 458.796 495.852 438.563 484.542 425.63L139.972 31.6029C122.454 11.5704 96.9682 0.317701 70.3622 0.867752Z" fill="#034484"/>
<mask id="mask0_100_37" style="mask-type:alpha" maskUnits="userSpaceOnUse" x="5" y="-2" width="487" height="463">
<path d="M70.3418 -0.131836C97.2433 -0.687911 123.012 10.6894 140.725 30.9443L485.295 424.972C497.17 438.551 487.527 459.796 469.487 459.796H124.962C115.246 459.796 106.798 453.13 104.538 443.681L7.68652 38.7578C3.08669 19.5262 17.4255 0.962498 37.1953 0.553711L70.3418 -0.131836Z" fill="white" stroke="#1E1E1E" stroke-width="2"/>
</mask>
<g mask="url(#mask0_100_37)">
<path fill-rule="evenodd" clip-rule="evenodd" d="M174.504 26.8591C175.624 26.8591 175.944 41.2591 176.264 93.5791C176.584 159.339 176.584 160.299 178.664 160.779C179.944 160.939 185.064 160.779 199.624 159.659L198.824 152.779C198.344 149.099 197.544 142.059 196.904 137.259C196.264 132.459 194.984 124.299 194.184 119.179C193.224 114.059 191.624 104.299 190.664 97.7391C189.864 91.0191 188.584 82.0591 187.944 77.7391C187.464 73.2591 186.664 69.2591 186.344 68.6191C186.024 67.9791 186.024 66.6991 186.344 65.8991C186.824 64.6191 188.744 64.1391 194.824 64.2991C199.304 64.2991 208.104 64.9391 214.344 65.7391C220.744 66.6991 229.704 68.4591 234.184 69.7391C238.664 71.0191 244.424 72.2991 246.984 72.6191C249.704 72.7791 251.784 73.5791 251.784 74.0591C251.784 74.6991 252.584 75.1791 253.704 75.1791C254.664 75.1791 256.104 75.6591 256.744 76.1391C257.224 76.6191 259.464 77.7391 261.544 78.5391C263.784 79.3391 270.664 82.3791 276.904 85.4191C283.304 88.4591 288.744 91.3391 289.064 91.6591C289.384 91.9791 290.824 92.9391 292.424 93.7391C294.504 94.8591 296.584 95.0191 302.184 94.0591C306.184 93.4191 313.064 92.2991 317.544 91.8191C322.184 91.1791 330.664 90.0591 336.424 89.2591C342.344 88.4591 347.464 88.1391 347.784 88.6191C348.104 89.0991 347.784 90.5391 346.984 91.9791C346.184 93.2591 345.064 95.0191 344.264 95.8191C343.624 96.6191 342.504 97.0991 341.864 97.0991C341.224 97.0991 340.584 97.7391 340.584 98.2191C340.584 98.8591 336.264 103.819 330.984 109.099C325.704 114.539 318.664 122.059 315.144 125.899C311.624 129.739 308.744 132.939 308.744 133.099C308.744 133.259 303.624 138.699 297.224 145.259C290.824 151.819 283.304 159.819 280.424 163.179C277.704 166.379 274.344 170.059 273.224 171.019C271.144 172.779 270.984 174.059 271.304 186.379C271.624 194.219 272.264 200.459 273.064 201.259C274.024 202.379 274.664 202.059 276.104 199.659C277.224 198.059 278.664 195.659 279.464 194.539C280.264 193.419 281.864 191.179 283.304 189.579C284.584 187.979 289.544 181.579 294.184 175.179C298.824 168.779 302.984 163.339 303.304 163.179C303.624 162.859 305.224 160.779 306.664 158.699C308.264 156.619 310.344 154.059 311.144 153.259C311.944 152.299 314.824 148.299 317.544 144.459C320.264 140.459 323.624 135.979 324.904 134.539C326.344 133.099 328.264 130.699 329.384 129.259C330.664 127.659 331.944 127.019 332.904 127.339C333.864 127.819 337.064 131.019 340.104 134.699C343.144 138.219 346.024 141.739 346.664 142.539C347.304 143.339 349.064 145.739 350.504 147.979C352.104 150.219 353.704 152.139 354.184 152.139C354.504 152.139 354.984 152.619 354.984 153.259C354.984 153.739 356.904 157.419 359.304 161.099C361.864 164.939 364.424 169.419 365.064 171.019C365.864 172.779 366.824 174.059 367.304 174.059C367.784 174.059 368.104 175.019 368.104 176.299C368.104 177.419 368.584 178.539 369.224 178.539C369.864 178.539 370.344 179.339 370.344 180.459C370.344 181.419 371.304 183.979 372.424 186.219C373.544 188.299 375.464 192.779 376.744 196.139C378.024 199.339 379.144 202.699 379.144 203.499C379.144 204.299 379.624 204.779 380.264 204.779C380.744 204.779 381.224 205.899 381.384 207.339C381.384 208.619 382.504 213.099 383.784 217.099C385.544 222.379 387.464 225.419 390.664 228.299C393.064 230.539 395.304 232.299 395.624 232.299C395.944 232.299 397.704 233.739 399.624 235.339C401.544 236.939 406.664 241.099 410.984 244.459C415.304 247.659 420.104 251.499 421.704 252.939C423.304 254.219 425.224 255.339 426.024 255.339C426.824 255.339 427.624 256.299 427.784 257.259C428.104 259.179 423.464 259.339 349.064 260.139C305.384 260.619 266.504 261.099 262.504 260.939C258.344 260.939 254.824 261.419 254.504 262.059C254.184 262.539 255.304 263.979 256.904 264.939C258.504 266.059 262.664 269.419 265.864 272.459C269.064 275.499 273.064 279.819 277.544 286.539L284.744 285.739C288.584 285.419 294.984 284.619 298.984 283.979C302.824 283.499 310.344 282.379 315.464 281.739C320.584 281.099 328.264 280.139 332.424 279.499C336.584 279.019 343.784 278.219 348.264 277.739C352.584 277.259 356.424 276.459 356.744 275.979C356.904 275.499 361.064 275.179 365.864 275.179C370.824 275.179 374.664 274.859 374.664 274.379C374.664 273.899 378.664 273.419 392.264 272.939V276.779C392.264 278.859 391.784 283.979 391.304 288.139C390.664 292.139 389.704 300.459 388.904 306.539C388.264 312.459 386.824 320.139 386.024 323.499C385.064 326.859 383.944 331.339 383.464 333.419C382.984 335.499 382.184 338.699 381.544 340.619C380.904 342.379 379.144 347.339 377.544 351.499C375.784 355.819 372.584 363.499 365.704 377.899L367.944 393.899C369.064 402.539 370.664 413.899 371.304 419.179C371.944 424.299 372.424 430.859 372.424 433.579C372.584 438.379 372.264 438.859 370.344 438.379C369.064 438.059 368.104 437.099 368.104 436.459C368.104 435.659 366.504 433.579 364.584 431.659C362.664 429.739 345.384 412.299 326.344 392.939C307.304 373.419 291.464 356.779 290.984 355.819C290.504 355.019 289.544 354.219 288.744 354.379C288.104 354.379 286.824 353.099 286.024 351.499C285.224 350.059 283.944 348.459 282.984 348.299C282.184 347.979 280.584 348.299 279.624 349.099C278.664 349.739 278.024 351.339 278.024 352.299C278.024 353.419 277.704 354.219 277.224 354.219C276.744 354.219 275.624 355.979 274.504 358.059C273.384 360.299 271.784 362.219 270.984 362.539C270.024 362.859 269.384 363.979 269.384 364.939C269.384 366.059 270.664 367.979 272.104 369.419C273.544 370.699 275.144 371.819 275.624 371.819C276.104 371.819 278.344 373.579 280.744 375.819C283.304 378.059 286.984 381.099 289.064 382.699C291.144 384.299 293.224 386.059 293.544 386.699C294.024 387.339 296.424 389.259 299.144 391.019C301.704 392.939 304.584 395.019 305.544 395.979C306.504 396.779 308.904 398.699 310.984 400.299C313.064 401.899 315.624 403.979 316.584 405.099C317.384 406.059 318.664 406.859 319.304 406.859C319.784 406.859 323.464 409.739 327.304 413.259C332.424 417.899 334.024 420.139 333.384 421.259C332.904 422.219 331.624 423.499 330.504 424.299C329.544 425.099 328.584 426.219 328.584 426.859C328.584 427.339 327.784 428.779 326.664 429.739C325.704 430.859 324.584 431.659 324.264 431.499C323.944 431.339 321.704 433.099 319.144 435.339C316.744 437.579 312.584 441.099 309.864 443.179C307.144 445.259 304.904 447.499 304.744 447.979C304.584 448.299 303.784 448.779 302.984 448.779C302.344 448.779 300.744 449.579 299.464 450.699C298.344 451.659 295.944 453.419 294.184 454.219C292.584 455.179 291.144 456.299 291.144 456.779C291.304 457.259 290.824 457.579 290.184 457.579C289.544 457.579 286.984 458.859 284.424 460.619C281.864 462.219 277.064 464.939 273.704 466.539C270.344 468.139 265.864 470.219 263.784 471.179C261.704 472.139 256.744 473.899 252.744 475.179C248.904 476.299 244.584 477.419 243.304 477.579C241.864 477.739 240.104 479.019 239.464 480.459C238.664 481.899 236.104 485.099 233.864 487.659C231.624 490.059 229.704 492.779 229.704 493.579C229.704 494.219 229.384 494.859 228.904 494.859C228.424 494.859 227.304 496.299 226.344 497.899C225.384 499.659 222.664 502.859 220.584 505.419C218.344 507.819 216.584 510.379 216.584 511.179C216.584 511.819 216.264 512.459 215.784 512.459C215.304 512.459 214.184 513.739 213.224 515.499C212.424 517.099 210.984 519.019 210.024 519.819C209.064 520.459 207.784 520.779 206.984 520.619C205.864 520.299 205.544 507.179 205.544 460.299C205.544 413.259 205.384 400.299 204.264 399.979C203.464 399.819 198.984 400.139 194.024 400.459C189.224 400.939 184.424 401.419 183.304 401.419C181.864 401.579 181.544 402.059 182.184 403.979C182.504 405.419 183.144 409.739 183.784 413.579C184.264 417.579 185.224 424.459 185.864 428.939C186.504 433.579 187.304 439.499 187.624 442.219C187.944 444.939 188.904 451.819 189.864 457.579C190.824 463.339 191.784 472.139 192.904 486.219L187.464 486.059C184.424 486.059 176.744 485.419 170.504 484.939C164.104 484.459 155.784 483.339 151.784 482.699C147.944 482.059 141.224 480.619 137.064 479.339C132.744 478.059 124.904 475.659 119.464 473.899C114.024 471.979 106.344 469.099 102.344 467.179C98.5042 465.259 92.9042 462.219 90.0242 460.619C86.3442 458.379 83.3042 457.579 79.6242 457.579C76.7442 457.579 71.6242 458.059 68.4242 458.699C65.0642 459.179 57.8642 460.299 52.4242 460.939C46.9842 461.579 40.2642 462.539 37.5442 463.019C34.8242 463.499 32.1042 463.659 31.3042 463.499C30.5042 463.179 29.8642 462.539 29.8642 461.899C29.8642 461.419 36.4242 454.219 44.4242 446.059C52.4242 438.059 68.7442 421.579 80.7442 409.579C92.5842 397.579 102.344 387.179 102.344 386.379C102.344 385.579 100.904 385.099 98.3442 385.099C95.9442 385.099 93.5442 384.459 92.7442 383.659C91.9442 382.859 91.4642 379.499 91.4642 374.859C91.4642 370.699 90.9842 367.499 90.3442 367.499C89.7042 367.499 88.1042 369.259 86.8242 371.659C85.3842 373.899 82.5042 378.219 80.2642 381.259C77.8642 384.139 76.1042 387.339 76.1042 388.139C76.1042 388.779 75.6242 389.579 75.1442 389.739C74.6642 389.899 72.5842 392.139 70.5042 394.859C68.4242 397.579 66.5042 400.139 66.1842 400.459C65.7042 400.779 63.3042 404.139 60.5842 408.139C57.8642 411.979 54.9842 415.979 54.1842 416.939C53.3842 417.739 51.9442 419.979 50.9842 421.579C50.0242 423.179 48.7442 424.619 48.2642 424.619C47.9442 424.619 47.7842 425.099 48.1042 425.739C48.4242 426.379 47.4642 426.699 45.8642 426.539C44.4242 426.379 43.3042 426.059 43.4642 425.899C43.6242 425.739 41.8642 423.819 39.7842 421.579C37.7042 419.179 34.1842 415.339 32.1042 412.939C30.0242 410.539 26.9842 406.859 25.5442 404.779C24.1042 402.699 22.1842 400.299 21.3842 399.659C20.7442 398.859 20.1042 397.739 20.1042 397.099C20.1042 396.459 19.4642 395.339 18.6642 394.699C17.8642 393.899 15.7842 390.859 13.8642 387.819C12.1042 384.779 9.38419 379.979 7.94419 377.099C6.50419 374.219 4.90419 371.819 4.42419 371.819C3.94419 371.819 3.62419 371.019 3.62419 369.899C3.62419 368.939 3.14419 367.499 2.66419 366.859C2.18419 366.379 0.104189 361.899 -1.65581 357.099C-3.57581 352.139 -5.17581 347.659 -5.17581 346.859C-5.17581 346.059 -5.65581 345.419 -6.29581 345.419C-6.93581 345.419 -7.41581 344.299 -7.41581 343.019C-7.41581 341.579 -8.05581 338.859 -8.69581 336.619C-9.33581 334.539 -10.2958 331.979 -10.7758 330.859C-11.4158 329.899 -11.7358 327.499 -11.7358 325.739C-11.7358 323.819 -12.2158 322.379 -12.6958 322.379C-13.0158 322.379 -14.9358 321.099 -16.8558 319.339C-18.7758 317.739 -23.4158 314.219 -27.0958 311.499C-30.9358 308.779 -35.4158 305.099 -37.1758 303.499C-38.9358 301.739 -40.6958 300.459 -41.1758 300.459C-41.6558 300.459 -44.6958 298.059 -48.0558 295.019C-51.4158 292.139 -53.8158 289.419 -53.4958 289.099C-53.1758 288.779 -44.0558 288.299 -33.1758 287.819C-22.2958 287.499 13.0642 287.019 45.2242 286.699C77.5442 286.379 104.104 285.899 104.264 285.579C104.424 285.259 104.264 284.459 103.784 283.499C103.304 282.699 101.544 280.299 99.6242 278.059C97.8642 275.819 95.3042 272.139 94.0242 269.899C92.7442 267.659 91.1442 265.899 90.5042 266.059C89.7042 266.219 89.2242 266.059 89.3842 265.579C89.3842 265.099 89.3842 264.139 89.3842 263.339C89.2242 262.379 87.4642 262.219 82.3442 262.539C78.6642 262.859 71.9442 263.659 67.4642 264.299C63.1442 264.779 55.9442 265.739 51.6242 266.379C47.3042 266.859 39.6242 267.819 34.8242 268.459C30.0242 269.099 22.3442 270.059 17.8642 270.699C13.3842 271.339 5.70419 272.299 0.90419 272.939C-4.05581 273.419 -9.97581 274.219 -12.3758 274.699C-15.5758 275.179 -16.8558 275.019 -17.4958 273.899C-17.8158 273.099 -17.4958 265.259 -16.6958 256.459C-15.8958 247.659 -14.1358 235.819 -13.0158 230.059C-11.7358 224.459 -9.81581 216.299 -8.69581 211.979C-7.41581 207.819 -5.17581 201.099 -3.57581 197.099C-1.97581 193.259 0.264189 188.139 1.54419 185.899C2.66419 183.659 3.62419 181.099 3.62419 180.139C3.62419 179.179 4.10419 178.539 4.74419 178.539C5.22419 178.539 5.70419 177.419 5.70419 176.299C5.70419 175.019 6.18419 174.059 6.66419 174.059C6.98419 174.059 8.58419 171.659 10.0242 168.779C12.4242 164.139 12.5842 162.859 11.7842 155.339C11.4642 150.859 10.6642 142.699 10.0242 137.259C9.54419 131.819 8.74419 122.859 8.42419 117.259C7.94419 107.819 8.10419 107.179 9.86419 107.979C10.9842 108.619 13.7042 111.179 16.1042 113.739C18.5042 116.459 27.1442 125.739 35.4642 134.539C43.7842 143.339 54.1842 154.379 58.6642 159.179C63.1442 163.979 71.3042 172.459 76.9042 178.059C82.5042 183.819 86.9842 188.779 86.9842 189.259C86.9842 189.579 89.0642 192.139 91.4642 194.699C93.8642 197.259 96.4242 199.339 97.2242 199.339C97.8642 199.339 101.704 195.979 105.384 191.979C109.224 187.819 112.264 183.979 112.264 183.499C112.424 182.859 109.864 180.139 106.664 177.419C103.624 174.699 99.9442 171.659 98.6642 170.859C97.3842 170.059 95.6242 168.459 94.6642 167.339C93.8642 166.219 92.7442 165.419 92.2642 165.419C91.7842 165.259 88.1042 162.539 83.9442 159.179C79.9442 155.819 75.6242 152.299 74.3442 151.339C73.2242 150.379 69.2242 147.019 65.5442 143.979C62.0242 140.939 58.8242 138.059 58.8242 137.579C58.6642 137.099 57.7042 136.779 56.9042 136.779C55.9442 136.779 54.9842 136.299 54.9842 135.819C54.8242 135.499 52.2642 133.099 49.3842 130.699C46.5042 128.299 44.1042 125.739 44.1042 124.939C44.1042 124.139 47.6242 120.139 51.9442 115.819C56.1042 111.659 59.9442 108.139 60.4242 108.139C60.9042 108.139 62.5042 107.179 63.9442 105.899C65.5442 104.779 69.2242 101.899 72.2642 99.6591C75.1442 97.4191 78.9842 94.8591 80.7442 93.8991C82.3442 92.9391 89.2242 89.4191 96.1042 85.8991C102.824 82.3791 109.064 79.4991 109.864 79.4991C110.504 79.6591 111.304 79.1791 111.464 78.6991C111.624 78.3791 114.984 76.7791 118.824 75.4991C122.824 74.2191 126.824 73.0991 127.624 73.0991C128.584 73.0991 131.944 71.9791 135.304 70.5391C138.664 69.2591 142.824 66.6991 144.584 64.7791C146.184 63.0191 148.424 60.1391 149.384 58.3791C150.504 56.7791 151.624 55.3391 152.104 55.3391C152.584 55.4991 152.904 54.8591 152.904 54.3791C152.904 53.7391 154.984 50.5391 157.544 47.3391C160.104 44.1391 163.464 39.9791 164.744 38.2191C166.184 36.4591 168.584 33.2591 170.344 31.0191C171.944 28.7791 173.864 26.8591 174.504 26.8591ZM124.744 124.619C125.544 127.979 126.824 133.579 127.624 137.259C128.424 140.939 130.024 147.819 131.144 152.619C132.264 157.419 133.064 162.379 133.064 163.659C133.064 164.779 133.864 166.539 134.664 167.179C135.624 167.979 137.704 168.299 139.144 167.979C140.744 167.819 141.864 167.019 141.864 166.379C141.864 165.739 143.464 165.259 145.544 165.259C147.464 165.259 149.864 164.619 150.984 163.819C151.944 163.179 152.744 162.059 152.744 161.579C152.584 161.099 150.184 156.779 147.144 152.299C144.104 147.659 141.064 143.819 140.584 143.659C140.104 143.499 139.784 142.699 139.784 141.899C139.784 141.259 138.824 139.659 137.864 138.379C136.744 137.099 134.664 133.899 133.064 131.019C131.624 128.139 130.024 125.739 129.544 125.739C129.064 125.739 128.904 125.259 128.904 124.459C129.064 123.819 127.944 121.899 126.344 119.979C124.904 118.219 123.464 117.259 123.464 117.739C123.304 118.219 123.944 121.259 124.744 124.619ZM242.984 132.939C242.984 133.259 241.384 135.019 239.624 136.939C237.864 139.019 236.424 141.259 236.424 141.899C236.424 142.699 235.944 143.499 235.464 143.659C235.144 143.819 233.544 145.579 231.944 147.659C230.504 149.899 227.784 153.579 226.024 156.139C224.264 158.699 222.984 161.099 222.984 161.579C223.144 162.059 225.544 163.179 228.424 163.979C231.304 164.779 234.984 165.899 236.584 166.379C238.824 167.179 240.104 167.179 241.224 166.059C242.024 165.419 243.304 161.579 243.944 157.579C244.744 153.739 245.704 148.779 246.344 146.539C246.824 144.459 248.264 138.699 249.544 133.739C250.664 128.779 251.784 123.979 251.784 123.019C251.784 122.059 251.304 121.419 250.824 121.419C250.344 121.419 248.424 123.819 246.504 126.859C244.584 129.899 242.984 132.619 242.984 132.939ZM323.144 212.459C320.904 213.099 316.584 214.059 313.224 214.699C309.864 215.339 304.904 216.459 302.184 217.099C299.464 217.739 296.264 218.699 295.144 219.179C293.864 219.659 290.984 220.299 288.584 220.779C286.024 221.099 282.344 221.579 280.264 222.059C278.184 222.379 275.784 223.179 274.984 223.659C274.024 224.299 273.704 228.299 273.704 236.779C273.704 243.339 273.864 248.779 274.184 248.779C274.504 248.779 277.064 247.339 279.784 245.579C282.504 243.659 285.224 242.219 285.704 242.219C286.344 242.219 286.824 241.739 286.824 241.099C286.824 240.459 287.304 239.979 287.944 239.979C288.584 239.979 292.104 238.059 295.944 235.659C299.624 233.259 303.464 230.859 304.104 230.219C304.904 229.579 306.344 229.099 307.144 229.099C308.104 229.099 309.384 228.139 310.184 227.179C310.984 226.059 312.264 224.939 313.224 224.779C314.184 224.619 316.904 223.019 319.464 221.259C322.024 219.499 324.424 218.059 324.744 218.059C325.064 218.059 326.824 216.939 328.904 215.499C330.824 214.219 332.584 212.779 332.744 212.299C332.904 211.819 334.024 211.499 335.144 211.499C336.424 211.499 337.544 211.019 337.864 210.379C338.184 209.739 337.544 209.259 336.584 209.419C335.464 209.419 332.904 209.899 330.824 210.539C328.744 211.179 325.224 211.979 323.144 212.459ZM40.4242 213.579C41.8642 214.859 43.6242 215.819 44.2642 215.819C44.7442 215.819 45.2242 216.139 45.2242 216.619C45.2242 217.099 46.6642 218.219 48.5842 219.179C50.5042 219.979 51.9442 221.099 51.9442 221.579C51.9442 222.059 52.9042 222.699 54.0242 223.019C55.3042 223.339 56.9042 224.139 57.7042 224.939C58.5042 225.579 60.7442 227.339 62.6642 228.779C64.5842 230.059 66.8242 231.179 67.4642 231.179C68.2642 231.179 69.5442 232.139 70.3442 233.419C70.9842 234.699 72.2642 235.659 73.0642 235.659C73.7042 235.659 76.4242 237.259 78.8242 239.499C81.2242 241.579 83.6242 243.339 83.9442 243.339C84.4242 243.339 84.9042 242.859 84.9042 242.539C84.9042 242.059 85.2242 240.139 85.3842 238.379C85.5442 236.619 86.1842 231.659 86.6642 227.659L87.6242 220.139C81.5442 220.139 77.7042 219.499 74.9842 218.539C72.2642 217.579 67.4642 216.299 64.5842 215.659C61.5442 215.019 57.0642 214.059 54.6642 213.419C52.2642 212.939 47.9442 211.979 45.2242 211.659C42.6642 211.179 39.7842 210.859 38.9842 211.179C38.1842 211.339 38.6642 212.299 40.4242 213.579ZM80.7442 310.379C79.9442 310.379 79.1442 311.019 78.8242 311.659C78.5042 312.459 76.2642 314.059 73.8642 315.339C71.4642 316.459 69.3842 317.899 69.3842 318.219C69.3842 318.699 68.9042 319.179 68.4242 319.179C67.7842 319.179 64.1042 321.259 60.4242 323.659C56.5842 326.219 53.3842 328.779 53.2242 329.259C53.0642 329.739 52.4242 330.059 51.9442 330.059C51.3042 330.059 47.6242 332.139 43.6242 334.699C38.8242 337.899 36.9042 339.659 37.8642 340.299C38.6642 340.619 40.7442 340.619 42.5042 339.979C44.4242 339.499 48.2642 338.539 51.3042 337.899C54.3442 337.259 62.3442 335.499 68.9042 333.899C75.6242 332.299 82.0242 330.699 83.1442 330.539C84.4242 330.379 86.6642 330.219 88.4242 330.219C91.3042 330.059 91.4642 329.899 91.4642 324.139C91.4642 320.779 90.9842 317.739 90.3442 317.419C89.7042 317.099 89.3842 314.859 89.3842 312.299C89.5442 309.739 90.1842 307.179 90.8242 306.699C91.4642 306.379 90.6642 305.899 89.0642 305.899C87.4642 305.899 85.3842 306.859 84.1042 308.139C82.9842 309.419 81.5442 310.379 80.7442 310.379ZM285.384 311.179C285.864 314.059 286.184 317.579 286.184 319.179C286.184 320.619 285.864 323.659 285.384 325.739C284.584 329.419 284.584 329.579 288.104 330.219C290.184 330.699 294.024 331.659 296.744 332.299C299.464 332.939 304.104 334.059 307.144 334.699C310.184 335.179 314.824 336.139 317.544 336.619C320.264 337.099 326.024 338.379 330.184 339.339C334.504 340.299 338.344 341.099 338.664 341.099C339.144 341.099 339.624 340.619 339.624 339.979C339.624 339.339 338.824 338.859 337.864 338.859C337.064 338.859 333.224 336.779 329.384 334.379C325.704 331.819 322.344 329.259 322.344 328.779C322.184 328.299 321.544 327.979 320.904 327.979C320.264 327.979 316.904 325.899 313.224 323.499C309.544 321.099 306.184 319.179 305.544 319.179C304.904 319.179 304.424 318.699 304.424 318.219C304.424 317.899 302.984 316.779 301.064 315.819C299.304 314.859 297.704 313.739 297.864 313.419C297.864 312.939 296.904 312.459 295.624 312.459C294.504 312.459 293.384 312.139 293.384 311.659C293.384 311.179 291.304 309.579 288.904 308.299L284.744 305.899L285.384 311.179ZM236.424 389.419C235.144 389.419 232.264 390.539 230.024 391.819C227.784 393.099 225.704 394.379 225.384 394.539C225.064 394.699 227.944 399.499 231.944 405.099C235.784 410.699 239.304 415.339 239.784 415.499C240.264 415.659 240.744 416.459 240.744 417.099C240.744 417.899 241.544 419.499 242.664 420.779C243.784 421.899 245.384 424.299 246.184 426.059C247.144 427.659 248.424 428.939 248.904 428.619C249.544 428.459 249.864 426.539 249.704 424.459C249.544 422.379 248.904 420.299 248.424 419.659C247.944 419.019 247.304 416.779 246.984 414.699C246.664 412.619 245.864 408.459 245.224 405.419C244.744 402.379 243.784 397.579 243.464 394.859C242.984 392.139 241.864 389.419 241.064 388.619C240.264 387.819 239.464 387.179 239.144 387.179C238.824 387.179 238.504 387.659 238.504 388.299C238.504 388.939 237.544 389.419 236.424 389.419ZM130.504 398.699C130.024 401.259 129.544 404.939 129.224 407.019C128.904 409.099 128.104 414.059 127.144 418.059C126.344 421.899 125.864 426.219 126.024 427.659C126.344 428.939 126.984 429.899 127.624 429.579C128.264 429.259 128.744 427.979 128.744 426.859C128.744 425.579 129.064 424.459 129.544 424.299C130.024 424.139 131.464 422.379 132.904 420.459C134.184 418.539 135.304 416.139 135.304 415.179C135.304 414.379 135.784 413.579 136.104 413.579C136.584 413.579 138.184 411.819 139.624 409.419C140.904 407.179 142.024 404.939 142.024 404.619C142.024 404.139 142.984 402.699 144.104 401.579C145.384 400.299 146.504 398.859 146.504 398.379C146.664 397.899 143.944 396.299 140.584 395.019C137.064 393.739 134.184 392.779 134.024 392.779C133.864 392.779 133.224 393.099 132.424 393.579C131.784 394.059 130.984 396.299 130.504 398.699Z" fill="#F68235"/>
<path d="M173.705 180.619C169.225 181.099 163.625 182.059 161.065 182.699C158.665 183.339 154.985 184.299 152.905 184.779C150.825 185.419 146.345 187.019 142.985 188.459C139.625 190.059 133.705 193.419 129.865 196.139C125.865 198.699 121.705 201.899 120.425 203.179C119.305 204.459 117.065 207.179 115.625 209.259C114.185 211.339 112.585 213.259 112.265 213.579C111.945 213.899 110.665 216.139 109.545 218.539C108.425 220.939 106.985 225.259 106.025 227.979C105.225 230.699 104.585 236.139 104.585 239.979C104.585 244.139 105.385 249.419 106.505 252.619C107.625 255.659 109.705 259.819 111.145 262.059C112.585 264.139 115.785 267.659 118.025 269.899C120.265 272.139 122.505 274.059 122.985 274.059C123.465 274.059 125.065 275.179 126.665 276.459C128.105 277.899 130.505 279.659 131.785 280.459C133.225 281.099 135.305 282.379 136.745 283.179C138.025 283.819 139.625 284.939 140.265 285.579C140.905 286.219 144.425 288.139 147.945 289.899C151.625 291.659 154.825 293.419 155.145 293.739C155.465 294.059 159.145 295.979 163.305 298.059C167.625 300.139 172.265 302.379 173.705 303.019C175.305 303.659 176.745 304.459 177.065 304.779C177.385 305.099 180.745 307.019 184.745 309.099C188.745 311.179 194.025 314.219 196.585 315.979C199.145 317.739 201.545 319.179 201.705 319.179C202.025 319.179 203.945 320.779 205.865 322.699C207.945 324.619 210.345 328.139 211.465 330.379C212.425 332.619 213.225 337.099 213.225 340.299C213.225 343.499 212.745 347.819 212.265 350.219C211.625 352.459 209.385 355.979 206.985 358.219C204.745 360.299 201.385 362.699 199.625 363.499C197.705 364.299 194.505 365.419 192.425 366.219C190.345 366.859 186.345 367.499 183.625 367.499C180.905 367.499 176.265 366.859 173.225 366.059C170.185 365.259 165.225 363.179 162.185 361.579C159.145 359.979 155.465 357.579 153.705 356.139C152.105 354.859 148.425 351.819 145.385 349.259C142.505 346.859 138.185 342.059 135.785 338.379C133.385 334.859 130.985 330.539 130.185 329.099C129.545 327.499 128.265 324.459 127.305 322.379C126.505 320.299 125.385 316.779 124.905 314.699C124.425 312.619 123.305 310.219 122.345 309.579C121.385 308.779 118.825 308.139 116.745 308.139C114.505 308.139 112.105 308.619 111.145 309.259C109.705 310.059 109.545 314.219 109.865 336.939C110.025 351.659 110.505 364.459 110.665 365.579C110.985 366.859 112.585 367.659 115.785 367.979C118.345 368.139 122.025 368.619 123.785 369.099C125.545 369.419 128.105 370.219 129.225 370.699C130.505 371.339 137.705 373.739 145.225 376.139C152.745 378.539 163.465 381.099 168.905 381.739C176.745 382.699 181.225 382.539 191.305 381.259C198.345 380.299 206.505 378.859 209.385 377.899C212.425 377.099 217.225 375.659 219.945 374.539C222.665 373.579 227.465 371.499 230.825 369.899C234.185 368.299 239.145 365.579 241.865 363.659C244.585 361.899 249.385 357.579 252.585 354.219C255.625 351.019 259.785 345.259 261.545 341.579C263.305 338.059 265.225 332.139 266.025 328.459C266.665 324.779 266.985 319.179 266.825 315.819C266.505 312.459 265.865 308.299 265.385 306.539C265.065 304.619 264.105 301.899 263.465 300.139C262.665 298.539 261.865 297.099 261.385 297.099C260.905 297.099 260.585 296.459 260.585 295.819C260.585 295.019 258.345 291.979 255.625 289.099C252.905 286.379 250.185 283.979 249.865 283.979C249.385 283.979 247.945 283.179 246.825 282.059C245.545 280.939 242.825 278.859 240.745 277.419C238.665 275.979 236.585 274.379 236.425 274.059C236.105 273.739 234.665 272.939 233.385 272.139C231.945 271.339 229.705 270.219 228.425 269.419C226.985 268.619 225.705 267.819 225.385 267.339C225.065 267.019 216.105 262.379 205.545 257.099C194.985 251.819 182.505 245.259 177.705 242.379C173.065 239.499 167.785 235.979 166.025 234.219C164.265 232.619 161.705 228.939 160.425 226.059C158.505 221.739 158.345 219.659 158.825 214.699C159.305 211.179 160.585 207.339 162.025 205.419C163.305 203.659 166.345 200.939 168.905 199.339C171.305 197.739 174.665 195.819 176.585 195.019C178.505 194.219 184.105 193.739 190.825 193.739C198.985 193.739 203.305 194.379 207.785 195.979C211.145 197.259 214.025 198.699 214.185 199.339C214.345 199.979 214.985 200.459 215.785 200.459C216.585 200.459 219.625 203.019 222.665 206.219C225.865 209.419 229.865 214.539 231.625 217.419C233.545 220.459 236.425 226.219 237.865 230.059C239.465 234.059 240.745 237.899 240.745 238.699C240.745 239.339 241.545 240.299 242.345 240.619C243.305 240.939 245.865 241.099 248.105 241.099C250.345 241.099 253.065 240.459 254.185 239.819C255.785 238.539 255.945 237.419 254.985 231.179C254.345 227.339 253.545 216.459 253.065 207.019L252.265 190.059C244.585 188.139 237.385 186.379 231.465 185.099C225.385 183.819 219.305 182.219 218.025 181.739C216.585 181.099 207.945 180.459 198.825 180.299C189.545 179.979 178.345 180.139 173.705 180.619Z" fill="#034484"/>
</g>
</svg>
