<svg width="514" height="459" viewBox="0 0 514 459" fill="none" xmlns="http://www.w3.org/2000/svg">
<path d="M70.3622 0.867752L37.2161 1.55301C18.0839 1.94855 4.20762 19.914 8.65915 38.5253L105.51 443.448C107.663 452.448 115.708 458.796 124.962 458.796H469.487C486.667 458.796 495.852 438.563 484.542 425.63L139.972 31.6029C122.454 11.5704 96.9682 0.317701 70.3622 0.867752Z" fill="#FF0000"/>
<mask id="mask0_23_7719" style="mask-type:alpha" maskUnits="userSpaceOnUse" x="7" y="0" width="483" height="459">
<path d="M70.3622 0.867752L37.2161 1.55301C18.0839 1.94855 4.20762 19.914 8.65915 38.5253L105.51 443.448C107.663 452.448 115.708 458.796 124.962 458.796H469.487C486.667 458.796 495.852 438.563 484.542 425.63L139.972 31.6029C122.454 11.5704 96.9682 0.317701 70.3622 0.867752Z" fill="white"/>
</mask>
<g mask="url(#mask0_23_7719)">
<mask id="mask1_23_7719" style="mask-type:luminance" maskUnits="userSpaceOnUse" x="-5" y="0" width="600" height="478">
<path d="M594.126 463.221L108.166 477.809L-4.39258 0H106.256C116.44 0.00168489 126.497 2.2552 135.694 6.59683C144.892 10.9385 153 17.2592 159.429 25.0999L450.716 380.246C478.878 414.613 516.728 439.859 559.424 452.754L594.126 463.221Z" fill="white"/>
</mask>
<g mask="url(#mask1_23_7719)">
<path d="M47.3206 22.0386C86.2741 22.0386 117.852 -9.30769 117.852 -47.9753C117.852 -86.6429 86.2741 -117.989 47.3206 -117.989C8.36711 -117.989 -23.2109 -86.6429 -23.2109 -47.9753C-23.2109 -9.30769 8.36711 22.0386 47.3206 22.0386Z" fill="#8DC6E8"/>
<path d="M-17.1169 91.1265C21.8366 91.1265 53.4147 59.7802 53.4147 21.1126C53.4147 -17.5551 21.8366 -48.9014 -17.1169 -48.9014C-56.0704 -48.9014 -87.6484 -17.5551 -87.6484 21.1126C-87.6484 59.7802 -56.0704 91.1265 -17.1169 91.1265Z" fill="#0033A1"/>
<path d="M122.035 88.23C160.989 88.23 192.567 56.8837 192.567 18.2161C192.567 -20.4516 160.989 -51.7979 122.035 -51.7979C83.0819 -51.7979 51.5039 -20.4516 51.5039 18.2161C51.5039 56.8837 83.0819 88.23 122.035 88.23Z" fill="#00B2E3"/>
<path d="M50.1371 155.138C89.0906 155.138 120.669 123.792 120.669 85.1243C120.669 46.4567 89.0906 15.1104 50.1371 15.1104C11.1836 15.1104 -20.3945 46.4567 -20.3945 85.1243C-20.3945 123.792 11.1836 155.138 50.1371 155.138Z" fill="#00205C"/>
<path d="M189.289 152.242C228.243 152.242 259.821 120.895 259.821 82.2278C259.821 43.5602 228.243 12.2139 189.289 12.2139C150.336 12.2139 118.758 43.5602 118.758 82.2278C118.758 120.895 150.336 152.242 189.289 152.242Z" fill="#0083D4"/>
<path d="M-15.2672 220.897C23.6863 220.897 55.2643 189.551 55.2643 150.883C55.2643 112.215 23.6863 80.8691 -15.2672 80.8691C-54.2207 80.8691 -85.7988 112.215 -85.7988 150.883C-85.7988 189.551 -54.2207 220.897 -15.2672 220.897Z" fill="#0083D4"/>
<path d="M124.758 216.671C163.712 216.671 195.29 185.325 195.29 146.657C195.29 107.99 163.712 76.6436 124.758 76.6436C85.8047 76.6436 54.2266 107.99 54.2266 146.657C54.2266 185.325 85.8047 216.671 124.758 216.671Z" fill="#00B2E3"/>
<path d="M263.91 213.759C302.864 213.759 334.442 182.413 334.442 143.745C334.442 105.078 302.864 73.7314 263.91 73.7314C224.957 73.7314 193.379 105.078 193.379 143.745C193.379 182.413 224.957 213.759 263.91 213.759Z" fill="#00205C"/>
<path d="M53.098 295.032C92.0515 295.032 123.63 263.686 123.63 225.018C123.63 186.35 92.0515 155.004 53.098 155.004C14.1445 155.004 -17.4336 186.35 -17.4336 225.018C-17.4336 263.686 14.1445 295.032 53.098 295.032Z" fill="#0033A1"/>
<path d="M192.25 292.135C231.204 292.135 262.782 260.789 262.782 222.121C262.782 183.454 231.204 152.107 192.25 152.107C153.297 152.107 121.719 183.454 121.719 222.121C121.719 260.789 153.297 292.135 192.25 292.135Z" fill="#8DC6E8"/>
<path d="M331.42 289.223C370.374 289.223 401.952 257.877 401.952 219.209C401.952 180.542 370.374 149.195 331.42 149.195C292.467 149.195 260.889 180.542 260.889 219.209C260.889 257.877 292.467 289.223 331.42 289.223Z" fill="#0033A1"/>
<path d="M127.827 361.223C166.78 361.223 198.358 329.877 198.358 291.209C198.358 252.542 166.78 221.195 127.827 221.195C88.873 221.195 57.2949 252.542 57.2949 291.209C57.2949 329.877 88.873 361.223 127.827 361.223Z" fill="#0083D4"/>
<path d="M266.979 358.327C305.932 358.327 337.51 326.98 337.51 288.313C337.51 249.645 305.932 218.299 266.979 218.299C228.025 218.299 196.447 249.645 196.447 288.313C196.447 326.98 228.025 358.327 266.979 358.327Z" fill="#00B2E3"/>
<path d="M406.135 355.415C445.089 355.415 476.667 324.068 476.667 285.401C476.667 246.733 445.089 215.387 406.135 215.387C367.182 215.387 335.604 246.733 335.604 285.401C335.604 324.068 367.182 355.415 406.135 355.415Z" fill="#0083D4"/>
<path d="M55.928 428.146C94.8816 428.146 126.46 396.8 126.46 358.132C126.46 319.465 94.8816 288.118 55.928 288.118C16.9745 288.118 -14.6035 319.465 -14.6035 358.132C-14.6035 396.8 16.9745 428.146 55.928 428.146Z" fill="#00B2E3"/>
<path d="M195.08 425.235C234.034 425.235 265.612 393.889 265.612 355.221C265.612 316.553 234.034 285.207 195.08 285.207C156.127 285.207 124.549 316.553 124.549 355.221C124.549 393.889 156.127 425.235 195.08 425.235Z" fill="#00205C"/>
<path d="M334.231 422.338C373.184 422.338 404.762 390.992 404.762 352.324C404.762 313.657 373.184 282.311 334.231 282.311C295.277 282.311 263.699 313.657 263.699 352.324C263.699 390.992 295.277 422.338 334.231 422.338Z" fill="#0033A1"/>
<path d="M473.383 419.426C512.337 419.426 543.915 388.08 543.915 349.412C543.915 310.745 512.337 279.398 473.383 279.398C434.43 279.398 402.852 310.745 402.852 349.412C402.852 388.08 434.43 419.426 473.383 419.426Z" fill="#00205C"/>
<path d="M130.549 489.665C169.503 489.665 201.081 458.318 201.081 419.651C201.081 380.983 169.503 349.637 130.549 349.637C91.5957 349.637 60.0176 380.983 60.0176 419.651C60.0176 458.318 91.5957 489.665 130.549 489.665Z" fill="#0033A1"/>
<path d="M269.702 486.753C308.655 486.753 340.233 455.406 340.233 416.739C340.233 378.071 308.655 346.725 269.702 346.725C230.748 346.725 199.17 378.071 199.17 416.739C199.17 455.406 230.748 486.753 269.702 486.753Z" fill="#0083D4"/>
<path d="M408.854 483.856C447.807 483.856 479.385 452.51 479.385 413.842C479.385 375.174 447.807 343.828 408.854 343.828C369.9 343.828 338.322 375.174 338.322 413.842C338.322 452.51 369.9 483.856 408.854 483.856Z" fill="#00B2E3"/>
<path d="M548.006 480.944C586.96 480.944 618.538 449.598 618.538 410.93C618.538 372.262 586.96 340.916 548.006 340.916C509.053 340.916 477.475 372.262 477.475 410.93C477.475 449.598 509.053 480.944 548.006 480.944Z" fill="#0083D4"/>
<path d="M58.5433 552.078C97.4968 552.078 129.075 520.731 129.075 482.064C129.075 443.396 97.4968 412.05 58.5433 412.05C19.5898 412.05 -11.9883 443.396 -11.9883 482.064C-11.9883 520.731 19.5898 552.078 58.5433 552.078Z" fill="#00205C"/>
<path d="M197.711 549.181C236.665 549.181 268.243 517.835 268.243 479.167C268.243 440.5 236.665 409.153 197.711 409.153C158.758 409.153 127.18 440.5 127.18 479.167C127.18 517.835 158.758 549.181 197.711 549.181Z" fill="#8DC6E8"/>
<path d="M336.864 546.27C375.817 546.27 407.395 514.924 407.395 476.256C407.395 437.588 375.817 406.242 336.864 406.242C297.91 406.242 266.332 437.588 266.332 476.256C266.332 514.924 297.91 546.27 336.864 546.27Z" fill="#0033A1"/>
<path d="M476.016 543.358C514.969 543.358 546.548 512.012 546.548 473.344C546.548 434.676 514.969 403.33 476.016 403.33C437.062 403.33 405.484 434.676 405.484 473.344C405.484 512.012 437.062 543.358 476.016 543.358Z" fill="#0083D4"/>
</g>
</g>
</svg>
