<svg width="514" height="459" viewBox="0 0 514 459" fill="none" xmlns="http://www.w3.org/2000/svg">
<path d="M70.3622 0.867752L37.2161 1.55301C18.0839 1.94855 4.20762 19.914 8.65915 38.5253L105.51 443.448C107.663 452.448 115.708 458.796 124.962 458.796H469.487C486.667 458.796 495.852 438.563 484.542 425.63L139.972 31.6029C122.454 11.5704 96.9682 0.317701 70.3622 0.867752Z" fill="#FF0000"/>
<mask id="mask0_23_8098" style="mask-type:alpha" maskUnits="userSpaceOnUse" x="7" y="0" width="483" height="459">
<path d="M70.3622 0.867752L37.2161 1.55301C18.0839 1.94855 4.20762 19.914 8.65915 38.5253L105.51 443.448C107.663 452.448 115.708 458.796 124.962 458.796H469.487C486.667 458.796 495.852 438.563 484.542 425.63L139.972 31.6029C122.454 11.5704 96.9682 0.317701 70.3622 0.867752Z" fill="white"/>
</mask>
<g mask="url(#mask0_23_8098)">
<mask id="mask1_23_8098" style="mask-type:luminance" maskUnits="userSpaceOnUse" x="-3" y="0" width="589" height="472">
<path d="M585.778 456.713L108.35 471.096L-2.23242 0H106.473C116.479 0.00166122 126.359 2.22351 135.395 6.50414C144.431 10.7848 152.397 17.0167 158.713 24.7472L444.886 374.904C472.554 408.788 509.739 433.679 551.686 446.393L585.778 456.713Z" fill="white"/>
</mask>
<g mask="url(#mask1_23_8098)">
<mask id="mask2_23_8098" style="mask-type:luminance" maskUnits="userSpaceOnUse" x="-896" y="-38" width="1636" height="607">
<path d="M739.82 -37.8496H-895.645V568.039H739.82V-37.8496Z" fill="white"/>
</mask>
<g mask="url(#mask2_23_8098)">
<path d="M16.6678 1052.75L-568.328 268.039L488.539 -441.8L1073.54 342.899L16.6678 1052.75Z" fill="#00205C"/>
<path d="M-468.414 393.998L-473.896 377.274L480.088 -261.503L485.57 -244.794L-468.414 393.998Z" fill="white"/>
<path d="M-490.583 355.633L-513.592 323.687L440.377 -315.09L463.401 -283.144L-490.583 355.633Z" fill="#0033A1"/>
<path d="M-469.744 362.464L-476.971 354.47L476.999 -284.307L484.225 -276.313L-469.744 362.464Z" fill="#FF8300"/>
<path d="M-297.317 548.93L-299.711 545.603L654.258 -93.1592L656.652 -89.8468L-297.317 548.93Z" fill="#FF8300"/>
<path d="M-24.6645 1001.93L-47.7031 970L906.281 331.209L929.305 363.155L-24.6645 1001.93Z" fill="#0033A1"/>
<path d="M458.275 -166.032L460.669 -162.705L-493.315 476.071L-495.709 472.744" fill="#FF8300"/>
<path d="M-416.782 457.993L-425.205 446.304L528.779 -192.473L537.202 -180.784L-416.782 457.993Z" fill="#3A8DDE"/>
<path d="M539.626 -177.412L542.02 -174.07L-411.95 464.706L-414.344 461.379" fill="white"/>
<path d="M-391.997 490.676L-409.391 467.813L544.594 -170.964L561.987 -148.101L-391.997 490.676Z" fill="#0033A1"/>
<path d="M-393.061 486.892L-401.484 475.203L552.485 -163.573L560.923 -151.884L-393.061 486.892Z" fill="#3A8DDE"/>
<path d="M563.346 -144.509L565.74 -141.182L-388.23 497.61L-390.639 494.268" fill="white"/>
<path d="M-363.7 531.646L-378.152 511.595L575.832 -127.182L590.285 -107.131L-363.7 531.646Z" fill="#3A8DDE"/>
<path d="M-322.041 589.429L-365.887 528.584L588.083 -110.192L631.943 -49.3474L-322.041 589.429Z" fill="#0033A1"/>
<path d="M-381.595 506.811L-384.004 503.469L569.98 -135.308L572.374 -131.981L-381.595 506.811Z" fill="#FF8300"/>
<path d="M-147.944 830.939L-191.805 770.094L855.886 66.2324L899.746 127.063L-147.944 830.939Z" fill="#00205C"/>
<path d="M-156.616 825.816L-165.039 814.127L882.636 110.266L891.06 121.955" fill="#4F8FC9"/>
<path d="M-189.764 825.816L-191.98 820.134L855.71 116.272L857.912 121.955L-189.764 825.816Z" fill="#0033A1"/>
<path d="M-124.223 863.842L-143.346 837.314L904.33 133.438L923.452 159.966L-124.223 863.842Z" fill="#00205C"/>
<path d="M99.232 861.383L90.8086 849.694L1044.79 210.933L1053.22 222.622L99.232 861.383Z" fill="#3A8DDE"/>
<path d="M890.068 129.698L892.477 133.025L-155.213 836.887L-157.607 833.56" fill="white"/>
<path d="M-96.6195 902.133L-111.072 882.082L936.618 178.221L951.071 198.272L-96.6195 902.133Z" fill="#124C8D"/>
<path d="M-172.771 813.243L-194.154 785.743L853.521 81.8818L874.92 109.367L-172.771 813.243Z" fill="#124C8D"/>
<path d="M-114.528 877.298L-116.922 873.971L930.754 170.095L933.163 173.422L-114.528 877.298Z" fill="#FF8300"/>
<path d="M1.15182 901.766L-1.24219 898.439L952.742 259.662L955.136 262.989L1.15182 901.766Z" fill="white"/>
<path d="M-323.799 582.98L-332.223 577.96L621.747 -60.8164L630.17 -55.7963L-323.799 582.98Z" fill="#3A8DDE"/>
<path d="M-298.323 622.332L-317.445 595.804L636.524 -42.9873L655.661 -16.444L-298.323 622.332Z" fill="#0033A1"/>
<path d="M-180.292 771.61L-182.701 768.283L864.989 64.4072L867.383 67.7491" fill="#FF8300"/>
</g>
</g>
</g>
</svg>
