<svg width="514" height="459" viewBox="0 0 514 459" fill="none" xmlns="http://www.w3.org/2000/svg">
<path d="M70.3622 0.867752L37.2161 1.55301C18.0839 1.94855 4.20762 19.914 8.65915 38.5253L105.51 443.448C107.663 452.448 115.708 458.796 124.962 458.796H469.487C486.667 458.796 495.852 438.563 484.542 425.63L139.972 31.6029C122.454 11.5704 96.9682 0.317701 70.3622 0.867752Z" fill="white"/>
<mask id="mask0_23_6766" style="mask-type:alpha" maskUnits="userSpaceOnUse" x="7" y="0" width="483" height="459">
<path d="M70.3622 0.867752L37.2161 1.55301C18.0839 1.94855 4.20762 19.914 8.65915 38.5253L105.51 443.448C107.663 452.448 115.708 458.796 124.962 458.796H469.487C486.667 458.796 495.852 438.563 484.542 425.63L139.972 31.6029C122.454 11.5704 96.9682 0.317701 70.3622 0.867752Z" fill="white"/>
</mask>
<g mask="url(#mask0_23_6766)">
<mask id="mask1_23_6766" style="mask-type:luminance" maskUnits="userSpaceOnUse" x="0" y="11" width="588" height="463">
<path d="M587.111 458.965L110.414 473.051L0 11.7129H108.54C118.53 11.7145 128.395 13.8903 137.417 18.0823C146.439 22.2743 154.393 28.3771 160.699 35.9475L446.435 378.851C474.06 412.033 511.189 436.409 553.071 448.859L587.111 458.965Z" fill="white"/>
</mask>
<g mask="url(#mask1_23_6766)">
<path d="M278.431 62.6184C284.024 75.6195 285.546 89.9492 282.804 103.795C280.062 117.642 273.179 130.382 263.026 140.407C252.873 150.431 239.906 157.288 225.764 160.112C211.622 162.935 196.941 161.598 183.577 156.269C170.213 150.94 158.767 141.859 150.685 130.173C142.603 118.488 138.25 104.724 138.175 90.6208C138.1 76.518 142.307 62.7102 150.263 50.9434C158.22 39.1766 169.569 29.9794 182.876 24.5148C191.71 20.8827 201.19 18.9872 210.775 18.9366C220.359 18.886 229.86 20.6813 238.734 24.2199C247.608 27.7586 255.682 32.9711 262.493 39.5598C269.304 46.1484 274.72 53.9839 278.431 62.6184Z" fill="#00205C"/>
<path d="M258.541 70.7924C262.477 79.9482 263.546 90.0388 261.613 99.7882C259.68 109.538 254.831 118.508 247.681 125.565C240.53 132.623 231.398 137.45 221.44 139.437C211.481 141.423 201.144 140.48 191.734 136.727C182.324 132.974 174.264 126.578 168.574 118.35C162.884 110.121 159.819 100.429 159.766 90.4983C159.714 80.5677 162.676 70.8448 168.278 62.5591C173.881 54.2733 181.872 47.7968 191.242 43.9483C197.465 41.3924 204.142 40.0593 210.892 40.0251C217.642 39.9909 224.333 41.2564 230.582 43.7492C236.832 46.242 242.518 49.9133 247.315 54.5534C252.112 59.1936 255.926 64.7116 258.541 70.7924Z" fill="#0033A1"/>
<path d="M244.921 76.3718C247.729 82.8957 248.493 90.0865 247.118 97.0348C245.743 103.983 242.289 110.377 237.195 115.408C232.1 120.439 225.594 123.88 218.497 125.298C211.401 126.715 204.033 126.045 197.327 123.372C190.62 120.698 184.876 116.141 180.82 110.278C176.764 104.415 174.578 97.5078 174.54 90.4308C174.501 83.3538 176.611 76.4246 180.603 70.5193C184.595 64.6141 190.29 59.9981 196.967 57.2551C201.4 55.4338 206.157 54.4835 210.967 54.4585C215.776 54.4335 220.543 55.3343 224.996 57.1095C229.449 58.8846 233.501 61.4993 236.92 64.8044C240.338 68.1094 243.057 72.04 244.921 76.3718Z" fill="#3A8DDE"/>
<path d="M224.381 288.558C233.412 309.548 235.87 332.683 231.444 355.038C227.017 377.392 215.906 397.963 199.514 414.147C183.122 430.331 162.186 441.402 139.354 445.96C116.522 450.518 92.819 448.358 71.2433 439.754C49.6676 431.149 31.188 416.487 18.1416 397.62C5.09525 378.753 -1.93194 356.53 -2.05119 333.761C-2.17044 310.992 4.6236 288.7 17.4717 269.704C30.3198 250.708 48.6448 235.861 70.1292 227.041C98.9341 215.221 131.365 215.06 160.29 226.596C189.216 238.132 212.269 260.419 224.381 288.558Z" fill="#00205C"/>
<path d="M192.248 301.75C198.617 316.525 200.358 332.814 197.251 348.556C194.145 364.298 186.33 378.786 174.795 390.188C163.26 401.59 148.524 409.394 132.449 412.612C116.375 415.83 99.6848 414.318 84.4899 408.268C69.2949 402.217 56.2778 391.899 47.085 378.619C37.8922 365.34 32.9366 349.695 32.845 333.663C32.7535 317.631 37.53 301.933 46.5705 288.554C55.611 275.175 68.5094 264.716 83.6342 258.499C103.908 250.167 126.738 250.043 147.106 258.153C167.473 266.264 183.711 281.945 192.248 301.75Z" fill="#0033A1"/>
<path d="M170.258 310.789C174.788 321.319 176.02 332.926 173.798 344.141C171.577 355.355 166.002 365.674 157.778 373.793C149.554 381.912 139.05 387.465 127.596 389.752C116.142 392.038 104.251 390.954 93.4269 386.637C82.603 382.32 73.3323 374.964 66.7873 365.499C60.2424 356.034 56.717 344.885 56.657 333.463C56.5971 322.04 60.0052 310.856 66.4505 301.326C72.8958 291.796 82.0887 284.348 92.8667 279.923C100.022 276.983 107.701 275.449 115.463 275.409C123.226 275.369 130.92 276.824 138.107 279.69C145.294 282.557 151.832 286.779 157.349 292.115C162.865 297.45 167.252 303.796 170.258 310.789Z" fill="#3A8DDE"/>
<path d="M530.937 331.117C544.704 363.132 548.446 398.417 541.69 432.51C534.933 466.603 517.982 497.973 492.979 522.652C467.975 547.332 436.044 564.214 401.221 571.162C366.398 578.111 330.249 574.814 297.344 561.69C264.439 548.565 236.256 526.202 216.359 497.427C196.462 468.653 185.744 434.76 185.561 400.035C185.378 365.309 195.738 331.31 215.331 302.337C234.924 273.364 262.87 250.719 295.635 237.264C317.392 228.329 340.738 223.67 364.338 223.551C387.938 223.432 411.331 227.857 433.182 236.572C455.032 245.288 474.911 258.123 491.684 274.345C508.457 290.567 521.795 309.858 530.937 331.117Z" fill="#00205C"/>
<path d="M481.92 351.243C491.612 373.787 494.245 398.634 489.485 422.64C484.726 446.647 472.787 468.735 455.179 486.112C437.572 503.489 415.086 515.375 390.565 520.266C366.043 525.157 340.589 522.834 317.419 513.59C294.249 504.347 274.405 488.598 260.396 468.335C246.387 448.072 238.841 424.205 238.715 399.753C238.588 375.301 245.885 351.36 259.683 330.96C273.481 310.559 293.16 294.614 316.233 285.142C331.554 278.847 347.994 275.564 364.613 275.48C381.233 275.396 397.707 278.512 413.093 284.651C428.48 290.789 442.478 299.83 454.288 311.256C466.097 322.682 475.487 336.27 481.92 351.243Z" fill="#0033A1"/>
<path d="M448.384 365.011C455.293 381.076 457.171 398.782 453.78 415.889C450.389 432.997 441.883 448.738 429.335 461.122C416.788 473.506 400.764 481.976 383.29 485.461C365.816 488.946 347.676 487.29 331.165 480.702C314.654 474.114 300.514 462.89 290.532 448.45C280.55 434.009 275.175 417.001 275.087 399.576C274.999 382.15 280.201 365.091 290.037 350.555C299.872 336.018 313.898 324.658 330.342 317.911C352.388 308.865 377.209 308.745 399.345 317.578C421.482 326.411 439.121 343.472 448.384 365.011Z" fill="#3A8DDE"/>
<path d="M394.804 157.553C404.021 178.961 406.534 202.559 402.024 225.363C397.514 248.166 386.185 269.15 369.469 285.662C352.752 302.174 331.4 313.472 308.112 318.127C284.824 322.782 260.646 320.584 238.636 311.813C216.627 303.041 197.773 288.09 184.46 268.849C171.148 249.608 163.974 226.942 163.845 203.717C163.717 180.492 170.641 157.752 183.741 138.372C196.84 118.992 215.528 103.843 237.44 94.8403C266.82 82.7734 299.902 82.6012 329.412 94.3615C358.922 106.122 382.443 128.852 394.804 157.553Z" fill="#00205C"/>
<path d="M362.019 171.018C368.501 186.094 370.262 202.71 367.079 218.764C363.897 234.818 355.913 249.589 344.139 261.21C332.364 272.831 317.327 280.779 300.929 284.05C284.531 287.321 267.509 285.768 252.014 279.587C236.52 273.405 223.249 262.873 213.881 249.323C204.512 235.773 199.467 219.812 199.382 203.46C199.297 187.108 204.177 171.099 213.404 157.456C222.632 143.814 235.792 133.151 251.222 126.816C271.914 118.325 295.21 118.212 315.988 126.501C336.766 134.79 353.323 150.803 362.019 171.018Z" fill="#0033A1"/>
<path d="M339.592 180.216C344.216 190.96 345.474 202.802 343.209 214.244C340.944 225.687 335.257 236.216 326.866 244.5C318.476 252.785 307.76 258.451 296.073 260.784C284.386 263.117 272.254 262.011 261.21 257.606C250.167 253.202 240.708 245.696 234.031 236.038C227.354 226.381 223.758 215.005 223.698 203.351C223.638 191.696 227.117 180.286 233.695 170.563C240.273 160.841 249.654 153.243 260.652 148.73C275.393 142.681 291.991 142.6 306.794 148.504C321.597 154.409 333.394 165.815 339.592 180.216Z" fill="#3A8DDE"/>
<path d="M233.267 169.49C237.684 179.757 238.886 191.073 236.721 202.007C234.556 212.941 229.121 223.003 221.103 230.919C213.086 238.836 202.846 244.251 191.678 246.482C180.51 248.712 168.917 247.657 158.363 243.45C147.809 239.242 138.769 232.072 132.386 222.845C126.003 213.618 122.564 202.748 122.503 191.612C122.442 180.475 125.762 169.57 132.044 160.277C138.326 150.984 147.287 143.719 157.794 139.402C164.771 136.533 172.259 135.035 179.828 134.995C187.398 134.955 194.902 136.372 201.911 139.166C208.92 141.96 215.297 146.076 220.677 151.28C226.057 156.483 230.335 162.671 233.267 169.49Z" fill="#00205C"/>
<path d="M217.537 175.949C220.644 183.179 221.486 191.147 219.959 198.845C218.431 206.543 214.601 213.625 208.954 219.196C203.306 224.768 196.095 228.578 188.231 230.144C180.367 231.711 172.205 230.964 164.775 227.998C157.346 225.032 150.984 219.98 146.493 213.481C142.003 206.982 139.586 199.328 139.547 191.487C139.509 183.645 141.851 175.969 146.278 169.429C150.705 162.888 157.018 157.777 164.418 154.742C174.34 150.672 185.51 150.62 195.472 154.597C205.434 158.574 213.37 166.254 217.537 175.949Z" fill="#0033A1"/>
<path d="M206.793 180.361C209.011 185.513 209.615 191.191 208.53 196.679C207.444 202.166 204.718 207.216 200.695 211.189C196.672 215.163 191.533 217.881 185.928 219.001C180.324 220.12 174.506 219.591 169.209 217.479C163.913 215.368 159.376 211.769 156.174 207.138C152.971 202.507 151.245 197.053 151.215 191.464C151.185 185.875 152.853 180.402 156.006 175.739C159.16 171.076 163.658 167.431 168.931 165.266C176.001 162.364 183.961 162.323 191.061 165.154C198.161 167.984 203.82 173.454 206.793 180.361Z" fill="#3A8DDE"/>
<path d="M132.635 201.107C134.079 204.455 134.474 208.147 133.77 211.716C133.066 215.284 131.295 218.568 128.681 221.152C126.066 223.736 122.725 225.505 119.082 226.233C115.438 226.962 111.655 226.619 108.212 225.246C104.768 223.874 101.818 221.534 99.7362 218.523C97.6539 215.512 96.5325 211.965 96.5139 208.332C96.4953 204.698 97.5803 201.14 99.6316 198.109C101.683 195.078 104.608 192.71 108.038 191.303C112.631 189.424 117.799 189.401 122.41 191.239C127.02 193.076 130.697 196.625 132.635 201.107Z" fill="#00205C"/>
<path d="M127.501 203.225C128.528 205.592 128.811 208.203 128.317 210.727C127.822 213.251 126.571 215.575 124.723 217.404C122.875 219.233 120.513 220.484 117.936 220.999C115.359 221.514 112.683 221.27 110.248 220.297C107.813 219.325 105.729 217.668 104.26 215.536C102.79 213.404 102.002 210.894 101.994 208.324C101.987 205.754 102.761 203.24 104.218 201.1C105.675 198.96 107.75 197.291 110.179 196.305C111.781 195.645 113.5 195.3 115.239 195.29C116.978 195.281 118.702 195.607 120.311 196.25C121.921 196.893 123.384 197.84 124.618 199.037C125.852 200.234 126.832 201.657 127.501 203.225Z" fill="#0033A1"/>
<path d="M124.003 204.653C124.728 206.332 124.927 208.184 124.574 209.974C124.221 211.764 123.333 213.411 122.021 214.708C120.71 216.004 119.034 216.891 117.207 217.257C115.379 217.623 113.482 217.45 111.754 216.762C110.027 216.073 108.547 214.9 107.503 213.39C106.458 211.879 105.896 210.1 105.887 208.278C105.878 206.455 106.422 204.67 107.451 203.15C108.48 201.63 109.948 200.442 111.668 199.737C113.971 198.793 116.564 198.78 118.876 199.702C121.189 200.624 123.033 202.404 124.003 204.653Z" fill="#3A8DDE"/>
<path d="M301.597 434.038C314.131 463.169 317.541 495.277 311.398 526.302C305.255 557.326 289.833 585.874 267.084 608.335C244.334 630.796 215.279 646.161 183.591 652.487C151.904 658.813 119.009 655.815 89.065 643.874C59.1214 631.932 33.4745 611.583 15.3678 585.4C-2.7388 559.216 -12.4919 528.374 -12.658 496.775C-12.8241 465.175 -3.39586 434.237 14.4345 407.873C32.2649 381.509 57.6965 360.903 87.513 348.662C127.49 332.253 172.501 332.029 212.648 348.039C252.794 364.05 284.789 394.983 301.597 434.038Z" fill="#00205C"/>
<path d="M257.007 452.377C265.814 472.88 268.203 495.475 263.87 517.305C259.536 539.135 248.677 559.22 232.663 575.02C216.649 590.821 196.2 601.627 173.901 606.075C151.602 610.522 128.455 608.41 107.384 600.005C86.3138 591.601 68.2666 577.281 55.5241 558.857C42.7815 540.432 35.9157 518.73 35.7946 496.494C35.6735 474.258 42.3024 452.485 54.8435 433.93C67.3846 415.374 85.2747 400.867 106.252 392.244C120.191 386.514 135.149 383.525 150.271 383.446C165.393 383.367 180.383 386.201 194.384 391.786C208.384 397.37 221.121 405.596 231.866 415.992C242.611 426.389 251.154 438.752 257.007 452.377Z" fill="#0033A1"/>
<path d="M226.494 464.876C232.793 479.488 234.515 495.597 231.442 511.165C228.369 526.733 220.64 541.062 209.233 552.338C197.825 563.614 183.251 571.331 167.354 574.514C151.457 577.696 134.951 576.201 119.924 570.217C104.897 564.233 92.0235 554.029 82.9321 540.896C73.8407 527.763 68.9397 512.291 68.8489 496.436C68.7582 480.581 73.4818 465.056 82.4223 451.824C91.3627 438.593 104.118 428.249 119.076 422.101C139.127 413.86 161.706 413.737 181.85 421.758C201.993 429.779 218.052 445.289 226.494 464.876Z" fill="#3A8DDE"/>
</g>
</g>
</svg>
