<svg width="514" height="459" viewBox="0 0 514 459" fill="none" xmlns="http://www.w3.org/2000/svg">
<path d="M70.3622 0.867752L37.2161 1.55301C18.0839 1.94855 4.20762 19.914 8.65915 38.5253L105.51 443.448C107.663 452.448 115.708 458.796 124.962 458.796H469.487C486.667 458.796 495.852 438.563 484.542 425.63L139.972 31.6029C122.454 11.5704 96.9682 0.317701 70.3622 0.867752Z" fill="#FF0000"/>
<mask id="mask0_23_4381" style="mask-type:alpha" maskUnits="userSpaceOnUse" x="7" y="0" width="483" height="459">
<path d="M70.3622 0.867752L37.2161 1.55301C18.0839 1.94855 4.20762 19.914 8.65915 38.5253L105.51 443.448C107.663 452.448 115.708 458.796 124.962 458.796H469.487C486.667 458.796 495.852 438.563 484.542 425.63L139.972 31.6029C122.454 11.5704 96.9682 0.317701 70.3622 0.867752Z" fill="white"/>
</mask>
<g mask="url(#mask0_23_4381)">
<mask id="mask1_23_4381" style="mask-type:luminance" maskUnits="userSpaceOnUse" x="-14" y="-11" width="602" height="484">
<path d="M587.198 457.371L99.8287 472.104L-13.0684 -10.7461H97.8942C108.112 -10.7463 118.201 -8.4699 127.429 -4.08229C136.657 0.305326 144.791 6.69388 151.24 14.619L443.364 373.568C471.603 408.288 509.56 433.792 552.377 446.816L587.198 457.371Z" fill="white"/>
</mask>
<g mask="url(#mask1_23_4381)">
<path d="M109.92 644.599H285.727L285.727 355.647H109.92L109.92 644.599Z" fill="#00205C"/>
<path d="M445.73 616.417H606.68V454.477H445.73V616.417Z" fill="white"/>
<path d="M284.225 456.241H445.902V367.487H284.225V456.241Z" fill="#0033A1"/>
<path d="M122.362 454.739H284.039V293.062H122.362L122.362 454.739Z" fill="white"/>
<path d="M284.225 616.433H445.902V454.755H284.225V616.433Z" fill="white"/>
<path d="M283.792 616.664H445.918V442.25H283.792V616.664Z" fill="#0033A1"/>
<path d="M216.875 379.062H138.566V392.031H216.875V379.062Z" fill="#00205C"/>
<path d="M148.453 387.311L152.291 383.271L156.702 387.899L159.658 383.767" stroke="#8DC6E8" stroke-width="1.96" stroke-linejoin="round"/>
<path d="M246.959 438.552H125.055V454.74H246.959V438.552Z" fill="#8DC6E8"/>
<path d="M233.075 392.294H151.037V411.144H233.075V392.294Z" fill="#8DC6E8"/>
<path d="M158.158 401.935C158.161 400.828 158.492 399.746 159.11 398.827C159.727 397.908 160.603 397.192 161.627 396.771C162.651 396.349 163.777 396.24 164.863 396.458C165.949 396.676 166.945 397.211 167.727 397.995C168.509 398.779 169.041 399.777 169.256 400.864C169.471 401.95 169.359 403.076 168.935 404.098C168.51 405.121 167.792 405.995 166.871 406.61C165.95 407.225 164.868 407.553 163.761 407.553C163.024 407.553 162.294 407.408 161.613 407.125C160.932 406.843 160.314 406.429 159.794 405.907C159.273 405.385 158.861 404.766 158.58 404.084C158.3 403.403 158.156 402.672 158.158 401.935Z" fill="white"/>
<path d="M222.15 394.136V409.364H229.935V394.136H222.15Z" fill="white"/>
<path d="M218.467 394.136V409.364H220.2V394.136H218.467Z" fill="white"/>
<path d="M215.248 394.136V409.364H216.981V394.136H215.248Z" fill="white"/>
<path d="M227.288 359.036H147.293V379.031H227.288V359.036Z" fill="#0083D4"/>
<path d="M174.862 331.142L172.068 337.437L220.899 359.106L223.693 352.811L174.862 331.142Z" fill="#0083D4"/>
<path d="M179.189 358.17C190.984 358.17 200.546 348.608 200.546 336.813C200.546 325.018 190.984 315.456 179.189 315.456C167.394 315.456 157.832 325.018 157.832 336.813C157.832 348.608 167.394 358.17 179.189 358.17Z" fill="#0083D4"/>
<path d="M179.19 353.187C188.233 353.187 195.563 345.856 195.563 336.813C195.563 327.77 188.233 320.439 179.19 320.439C170.147 320.439 162.816 327.77 162.816 336.813C162.816 345.856 170.147 353.187 179.19 353.187Z" fill="white"/>
<path d="M184.156 349.689C180.849 350.956 177.175 350.861 173.938 349.425C170.701 347.99 168.165 345.33 166.885 342.028L169.268 341.115C170.306 343.774 172.351 345.915 174.959 347.074C177.567 348.233 180.527 348.317 183.196 347.306L184.156 349.689Z" fill="#8DC6E8"/>
<path d="M239.05 411.159H130.238V438.567H239.05V411.159Z" fill="#0083D4"/>
<path d="M159.057 434.59V415.307" stroke="#8DC6E8" stroke-width="1.36" stroke-linecap="round" stroke-linejoin="round"/>
<path d="M137.744 434.59V415.307" stroke="#8DC6E8" stroke-width="1.36" stroke-linecap="round" stroke-linejoin="round"/>
<path d="M141.984 424.871L145.9 422.937L146.519 418.619L149.568 421.745L153.855 421.018L151.827 424.871L153.855 428.74L149.568 427.998L146.519 431.124L145.9 426.806L141.984 424.871Z" fill="#8DC6E8"/>
<path d="M156.473 368.94H219.8" stroke="#8DC6E8" stroke-width="7.5" stroke-linejoin="round"/>
<mask id="mask2_23_4381" style="mask-type:luminance" maskUnits="userSpaceOnUse" x="-23" y="-19" width="677" height="499">
<path d="M192.018 473.357L226.947 471.221L252.916 469.674L281.268 468.126L308.32 466.718L334.768 465.372L359.623 464.164L380.655 463.174L411.607 461.719L446.52 460.729L478.091 459.723L508.594 458.748L533.356 457.912L565.855 456.674L590.896 455.776L615.1 454.863L627.728 454.43L637.014 454.09L653.511 453.44C581.471 458.547 506.877 426.682 459.102 367.161C455.461 362.214 451.44 357.557 447.077 353.233L151.827 5.89041C139.044 -11.2415 121.37 -18.6699 104.966 -18.6699H-22.6797L98.7756 475.307L102.443 474.982L103.465 479.161L140.793 476.065L158.405 474.704L191.987 472.289L192.018 473.357Z" fill="white"/>
</mask>
<g mask="url(#mask2_23_4381)">
<path d="M-39.3159 293.062H122.361L122.361 131.385L-39.3159 131.385L-39.3159 293.062Z" fill="#0083D4"/>
<path d="M43.1996 277.292C41.4359 277.288 39.7457 276.585 38.4985 275.338C37.2514 274.091 36.549 272.401 36.5449 270.637V170.864C36.5449 169.099 37.246 167.406 38.494 166.158C39.742 164.91 41.4346 164.209 43.1996 164.209C44.9645 164.209 46.6571 164.91 47.9051 166.158C49.1531 167.406 49.8543 169.099 49.8543 170.864V270.637C49.8543 272.402 49.1531 274.095 47.9051 275.343C46.6571 276.591 44.9645 277.292 43.1996 277.292Z" fill="white"/>
<path d="M49.8543 164.209H36.5449V245.938H49.8543V164.209Z" fill="white"/>
<path d="M43.2013 273.3C42.4528 273.296 41.7365 272.995 41.2087 272.465C40.6809 271.934 40.3847 271.216 40.3847 270.467V173.263C40.3559 172.875 40.4076 172.484 40.5365 172.117C40.6654 171.749 40.8687 171.412 41.1338 171.127C41.3989 170.841 41.72 170.613 42.077 170.458C42.4341 170.302 42.8195 170.222 43.209 170.222C43.5986 170.222 43.9839 170.302 44.341 170.458C44.6981 170.613 45.0192 170.841 45.2843 171.127C45.5493 171.412 45.7527 171.749 45.8816 172.117C46.0105 172.484 46.0622 172.875 46.0334 173.263V270.467C46.0334 271.219 45.735 271.939 45.2039 272.47C44.6728 273.001 43.9524 273.3 43.2013 273.3Z" fill="#FF8300"/>
<path d="M49.8543 164.209H36.5449V188.367H49.8543V164.209Z" fill="white"/>
<path d="M93.5764 277.292C91.8115 277.292 90.1188 276.591 88.8708 275.343C87.6229 274.095 86.9218 272.403 86.9218 270.638V170.864C86.8784 169.964 87.0181 169.065 87.3325 168.221C87.6469 167.376 88.1296 166.605 88.7511 165.953C89.3726 165.3 90.12 164.781 90.9482 164.426C91.7763 164.072 92.6678 163.889 93.5687 163.889C94.4696 163.889 95.3611 164.072 96.1892 164.426C97.0174 164.781 97.7648 165.3 98.3863 165.953C99.0078 166.605 99.4905 167.376 99.8049 168.221C100.119 169.065 100.259 169.964 100.216 170.864V270.638C100.216 272.4 99.5167 274.09 98.272 275.338C97.0274 276.585 95.3387 277.288 93.5764 277.292Z" fill="white"/>
<path d="M100.229 164.209H86.9199V245.938H100.229V164.209Z" fill="white"/>
<path d="M93.5763 273.299C92.8251 273.299 92.1048 273.001 91.5737 272.47C91.0425 271.939 90.7441 271.218 90.7441 270.467V173.263C90.7441 172.512 91.0425 171.791 91.5737 171.26C92.1048 170.729 92.8251 170.431 93.5763 170.431C94.3274 170.431 95.0477 170.729 95.5789 171.26C96.11 171.791 96.4084 172.512 96.4084 173.263V270.467C96.4084 271.218 96.11 271.939 95.5789 272.47C95.0477 273.001 94.3274 273.299 93.5763 273.299Z" fill="#00205C"/>
<path d="M100.229 164.209H86.9199V188.367H100.229V164.209Z" fill="white"/>
<path d="M49.8563 164.271C49.8563 165.819 46.8849 167.134 43.2017 167.134C39.5184 167.134 36.5625 165.85 36.5625 164.271C36.5625 162.693 39.5338 161.408 43.2017 161.408C46.8695 161.408 49.8563 162.693 49.8563 164.271Z" fill="#E4E4E5"/>
<path d="M100.229 164.271C100.229 165.819 97.2578 167.134 93.5746 167.134C89.8913 167.134 86.9199 165.85 86.9199 164.271C86.9199 162.693 89.9068 161.408 93.5746 161.408C97.2424 161.408 100.229 162.693 100.229 164.271Z" fill="#E4E4E5"/>
<path d="M52.0679 151.581C52.0679 151.517 52.055 151.453 52.03 151.394C52.0049 151.335 51.9682 151.281 51.922 151.236C51.8758 151.192 51.821 151.157 51.761 151.133C51.701 151.11 51.637 151.099 51.5727 151.101C51.5014 151.089 51.4282 151.092 51.3582 151.11C51.2882 151.129 51.2232 151.163 51.1676 151.209C51.1121 151.256 51.0674 151.314 51.0368 151.379C51.0061 151.445 50.9902 151.517 50.9902 151.589C50.9902 151.661 51.0061 151.733 51.0368 151.799C51.0674 151.864 51.1121 151.922 51.1676 151.969C51.2232 152.015 51.2882 152.049 51.3582 152.068C51.4282 152.086 51.5014 152.089 51.5727 152.076C51.704 152.076 51.83 152.024 51.9229 151.931C52.0157 151.839 52.0679 151.713 52.0679 151.581Z" fill="white"/>
<path d="M98.6506 155.155C98.6506 155.057 98.6216 154.962 98.5672 154.88C98.5128 154.799 98.4354 154.735 98.3449 154.698C98.2544 154.66 98.1549 154.651 98.0588 154.67C97.9628 154.689 97.8745 154.736 97.8052 154.805C97.7359 154.874 97.6888 154.963 97.6697 155.059C97.6505 155.155 97.6604 155.254 97.6979 155.345C97.7354 155.435 97.7989 155.513 97.8803 155.567C97.9617 155.622 98.0575 155.651 98.1555 155.651C98.2211 155.653 98.2864 155.641 98.3475 155.617C98.4085 155.593 98.464 155.557 98.5104 155.51C98.5568 155.464 98.5932 155.408 98.6174 155.347C98.6415 155.286 98.6528 155.221 98.6506 155.155Z" fill="white"/>
<path d="M37.291 157.199C37.2941 157.1 37.2673 157.002 37.214 156.918C37.1608 156.834 37.0836 156.769 36.9925 156.729C36.9014 156.69 36.8006 156.679 36.7031 156.697C36.6056 156.716 36.516 156.763 36.4458 156.834C36.3756 156.904 36.3282 156.993 36.3096 157.091C36.291 157.188 36.3021 157.289 36.3414 157.38C36.3808 157.471 36.4467 157.549 36.5305 157.602C36.6142 157.655 36.7121 157.682 36.8113 157.679C36.9385 157.679 37.0605 157.628 37.1505 157.538C37.2405 157.448 37.291 157.326 37.291 157.199Z" fill="white"/>
<path d="M47.8276 156.347C47.8276 156.041 47.7368 155.742 47.5668 155.488C47.3967 155.233 47.155 155.035 46.8722 154.918C46.5895 154.8 46.2783 154.77 45.9781 154.83C45.6779 154.889 45.4021 155.037 45.1857 155.253C44.9693 155.47 44.8219 155.745 44.7622 156.045C44.7024 156.346 44.7331 156.657 44.8502 156.94C44.9674 157.222 45.1657 157.464 45.4202 157.634C45.6747 157.804 45.974 157.895 46.28 157.895C46.6905 157.895 47.0841 157.732 47.3743 157.442C47.6646 157.151 47.8276 156.758 47.8276 156.347Z" fill="white"/>
<path d="M92.1519 156.146C92.1519 155.84 92.0611 155.541 91.891 155.286C91.7209 155.032 91.4792 154.834 91.1965 154.716C90.9137 154.599 90.6025 154.569 90.3023 154.628C90.0021 154.688 89.7263 154.835 89.5099 155.052C89.2935 155.268 89.1461 155.544 89.0864 155.844C89.0266 156.145 89.0574 156.456 89.1745 156.738C89.2916 157.021 89.4899 157.263 89.7444 157.433C89.9989 157.603 90.2982 157.694 90.6043 157.694C91.0147 157.694 91.4084 157.531 91.6986 157.241C91.9888 156.95 92.1519 156.557 92.1519 156.146Z" fill="white"/>
<path d="M39.688 151.519C39.6911 150.982 39.5348 150.457 39.2391 150.01C38.9434 149.562 38.5215 149.213 38.0269 149.006C37.5323 148.798 36.9873 148.742 36.4609 148.845C35.9346 148.948 35.4505 149.205 35.0702 149.583C34.6899 149.961 34.4304 150.443 34.3247 150.969C34.2189 151.495 34.2716 152.04 34.4761 152.536C34.6807 153.032 35.0278 153.456 35.4735 153.754C35.9192 154.052 36.4434 154.211 36.9797 154.211C37.3347 154.214 37.6865 154.145 38.015 154.011C38.3435 153.877 38.6422 153.679 38.8939 153.428C39.1456 153.178 39.3453 152.88 39.4816 152.553C39.6179 152.225 39.688 151.874 39.688 151.519Z" fill="white"/>
<path d="M100.045 147.108C100.049 146.572 99.8919 146.046 99.5955 145.598C99.2991 145.15 98.8763 144.801 98.3808 144.594C97.8853 144.387 97.3395 144.332 96.8127 144.436C96.2859 144.54 95.8019 144.798 95.4222 145.178C95.0425 145.558 94.7842 146.042 94.6802 146.568C94.5762 147.095 94.6311 147.641 94.838 148.137C95.0449 148.632 95.3945 149.055 95.8422 149.351C96.29 149.648 96.8157 149.804 97.3527 149.801C98.0669 149.801 98.7518 149.518 99.2568 149.013C99.7618 148.508 100.045 147.823 100.045 147.108Z" fill="white"/>
<path d="M50.0576 143.332C50.0576 142.54 49.8225 141.765 49.3821 141.106C48.9416 140.446 48.3156 139.933 47.5832 139.629C46.8507 139.326 46.0448 139.247 45.2673 139.401C44.4898 139.556 43.7756 139.938 43.215 140.498C42.6544 141.059 42.2727 141.773 42.118 142.551C41.9634 143.328 42.0428 144.134 42.3461 144.866C42.6495 145.599 43.1633 146.225 43.8224 146.665C44.4816 147.106 45.2565 147.341 46.0493 147.341C47.1123 147.341 48.1319 146.918 48.8836 146.167C49.6353 145.415 50.0576 144.396 50.0576 143.332Z" fill="white"/>
</g>
<mask id="mask3_23_4381" style="mask-type:luminance" maskUnits="userSpaceOnUse" x="-23" y="-19" width="677" height="499">
<path d="M192.018 473.357L226.947 471.221L252.916 469.674L281.268 468.126L308.32 466.718L334.768 465.372L359.623 464.164L380.655 463.174L411.607 461.719L446.52 460.729L478.091 459.723L508.594 458.748L533.356 457.912L565.855 456.674L590.896 455.776L615.1 454.863L627.728 454.43L637.014 454.09L653.511 453.44C581.471 458.547 506.877 426.682 459.102 367.161C455.461 362.214 451.44 357.557 447.077 353.233L151.827 5.89041C139.044 -11.2415 121.37 -18.6699 104.966 -18.6699H-22.6797L98.7756 475.307L102.443 474.982L103.465 479.161L140.793 476.065L158.405 474.704L191.987 472.289L192.018 473.357Z" fill="white"/>
</mask>
<g mask="url(#mask3_23_4381)">
<path d="M-39.3159 131.37L122.361 131.37L122.361 -30.3072L-39.3159 -30.3072L-39.3159 131.37Z" fill="#00205C"/>
<path d="M50.752 83.8282L31.9023 96.4875L41.6832 82.0484L107.673 18.2256L50.752 83.8282Z" fill="#0033A1"/>
<path d="M27.8184 70.426L31.904 96.4875L42.4741 82.5127L107.674 18.2256L27.8184 70.426Z" fill="#0083D4"/>
<path d="M1.91238 57.4717L108.155 17.7295L78.8588 104.07C78.7665 104.348 78.6108 104.601 78.4039 104.808C78.1971 105.015 77.9447 105.172 77.667 105.265C77.3892 105.358 77.0937 105.385 76.8036 105.344C76.5136 105.303 76.237 105.196 75.9958 105.029L42.4748 82.4964L106.592 19.1533C106.592 19.1533 29.212 75.0524 28.4072 74.712C27.6025 74.3715 9.7432 65.1169 1.71118 60.9538C1.38123 60.7862 1.10735 60.526 0.922979 60.2051C0.738609 59.8842 0.651743 59.5165 0.673091 59.147C0.694439 58.7775 0.823074 58.4223 1.04318 58.1247C1.26328 57.8272 1.56532 57.6003 1.91238 57.4717Z" fill="white"/>
</g>
<mask id="mask4_23_4381" style="mask-type:luminance" maskUnits="userSpaceOnUse" x="-23" y="-19" width="677" height="499">
<path d="M192.018 473.357L226.947 471.221L252.916 469.674L281.268 468.126L308.32 466.718L334.768 465.372L359.623 464.164L380.655 463.174L411.607 461.719L446.52 460.729L478.091 459.723L508.594 458.748L533.356 457.912L565.855 456.674L590.896 455.776L615.1 454.863L627.728 454.43L637.014 454.09L653.511 453.44C581.471 458.547 506.877 426.682 459.102 367.161C455.461 362.214 451.44 357.557 447.077 353.233L151.827 5.89041C139.044 -11.2415 121.37 -18.6699 104.966 -18.6699H-22.6797L98.7756 475.307L102.443 474.982L103.465 479.161L140.793 476.065L158.405 474.704L191.987 472.289L192.018 473.357Z" fill="white"/>
</mask>
<g mask="url(#mask4_23_4381)">
<path d="M-39.3159 454.74H122.361L122.361 293.063H-39.3159L-39.3159 454.74Z" fill="#0033A1"/>
<path d="M122.207 293.062L-39.8887 454.74V293.062H122.918" fill="#8DC6E8"/>
</g>
<mask id="mask5_23_4381" style="mask-type:luminance" maskUnits="userSpaceOnUse" x="-23" y="-19" width="677" height="499">
<path d="M192.018 473.357L226.947 471.221L252.916 469.674L281.268 468.126L308.32 466.718L334.768 465.372L359.623 464.164L380.655 463.174L411.607 461.719L446.52 460.729L478.091 459.723L508.594 458.748L533.356 457.912L565.855 456.674L590.896 455.776L615.1 454.863L627.728 454.43L637.014 454.09L653.511 453.44C581.471 458.547 506.877 426.682 459.102 367.161C455.461 362.214 451.44 357.557 447.077 353.233L151.827 5.89041C139.044 -11.2415 121.37 -18.6699 104.966 -18.6699H-22.6797L98.7756 475.307L102.443 474.982L103.465 479.161L140.793 476.065L158.405 474.704L191.987 472.289L192.018 473.357Z" fill="white"/>
</mask>
<g mask="url(#mask5_23_4381)">
<path d="M284.221 293.062H445.898V131.385L284.221 131.385V293.062Z" fill="#0033A1"/>
<path d="M284.221 379.836H445.898V293.062H284.221V379.836Z" fill="#0033A1"/>
</g>
<mask id="mask6_23_4381" style="mask-type:luminance" maskUnits="userSpaceOnUse" x="-23" y="-19" width="677" height="499">
<path d="M192.018 473.357L226.947 471.221L252.916 469.674L281.268 468.126L308.32 466.718L334.768 465.372L359.623 464.164L380.655 463.174L411.607 461.719L446.52 460.729L478.091 459.723L508.594 458.748L533.356 457.912L565.855 456.674L590.896 455.776L615.1 454.863L627.728 454.43L637.014 454.09L653.511 453.44C581.471 458.547 506.877 426.682 459.102 367.161C455.461 362.214 451.44 357.557 447.077 353.233L151.827 5.89041C139.044 -11.2415 121.37 -18.6699 104.966 -18.6699H-22.6797L98.7756 475.307L102.443 474.982L103.465 479.161L140.793 476.065L158.405 474.704L191.987 472.289L192.018 473.357Z" fill="white"/>
</mask>
<g mask="url(#mask6_23_4381)">
<path d="M122.362 293.062H284.039V131.385L122.362 131.385L122.362 293.062Z" fill="#8DC6E8"/>
</g>
<mask id="mask7_23_4381" style="mask-type:luminance" maskUnits="userSpaceOnUse" x="-23" y="-19" width="677" height="499">
<path d="M192.018 473.357L226.947 471.221L252.916 469.674L281.268 468.126L308.32 466.718L334.768 465.372L359.623 464.164L380.655 463.174L411.607 461.719L446.52 460.729L478.091 459.723L508.594 458.748L533.356 457.912L565.855 456.674L590.896 455.776L615.1 454.863L627.728 454.43L637.014 454.09L653.511 453.44C581.471 458.547 506.877 426.682 459.102 367.161C455.461 362.214 451.44 357.557 447.077 353.233L151.827 5.89041C139.044 -11.2415 121.37 -18.6699 104.966 -18.6699H-22.6797L98.7756 475.307L102.443 474.982L103.465 479.161L140.793 476.065L158.405 474.704L191.987 472.289L192.018 473.357Z" fill="white"/>
</mask>
<g mask="url(#mask7_23_4381)">
<path d="M445.452 454.6H606.773V292.922H445.452V454.6Z" fill="#0083D4"/>
</g>
<mask id="mask8_23_4381" style="mask-type:luminance" maskUnits="userSpaceOnUse" x="-23" y="-19" width="677" height="499">
<path d="M192.018 473.357L226.947 471.221L252.916 469.674L281.268 468.126L308.32 466.718L334.768 465.372L359.623 464.164L380.655 463.174L411.607 461.719L446.52 460.729L478.091 459.723L508.594 458.748L533.356 457.912L565.855 456.674L590.896 455.776L615.1 454.863L627.728 454.43L637.014 454.09L653.511 453.44C581.471 458.547 506.877 426.682 459.102 367.161C455.461 362.214 451.44 357.557 447.077 353.233L151.827 5.89041C139.044 -11.2415 121.37 -18.6699 104.966 -18.6699H-22.6797L98.7756 475.307L102.443 474.982L103.465 479.161L140.793 476.065L158.405 474.704L191.987 472.289L192.018 473.357Z" fill="white"/>
</mask>
<g mask="url(#mask8_23_4381)">
<path d="M445.452 454.6H606.773V292.922H445.452V454.6Z" fill="#0083D4"/>
</g>
<mask id="mask9_23_4381" style="mask-type:luminance" maskUnits="userSpaceOnUse" x="227" y="292" width="287" height="163">
<path d="M513.437 292.613H227.643V454.6H513.437V292.613Z" fill="white"/>
</mask>
<g mask="url(#mask9_23_4381)">
<mask id="mask10_23_4381" style="mask-type:luminance" maskUnits="userSpaceOnUse" x="-23" y="-19" width="677" height="499">
<path d="M192.018 473.357L226.947 471.221L252.916 469.674L281.268 468.126L308.32 466.718L334.768 465.372L359.623 464.164L380.655 463.174L411.607 461.719L446.52 460.729L478.091 459.723L508.594 458.748L533.356 457.912L565.855 456.674L590.896 455.776L615.1 454.863L627.728 454.43L637.014 454.09L653.511 453.44C581.471 458.547 506.877 426.682 459.102 367.161C455.461 362.214 451.44 357.557 447.077 353.233L151.827 5.89041C139.044 -11.2415 121.37 -18.6699 104.966 -18.6699H-22.6797L98.7756 475.307L102.443 474.982L103.465 479.161L140.793 476.065L158.405 474.704L191.987 472.289L192.018 473.357Z" fill="white"/>
</mask>
<g mask="url(#mask10_23_4381)">
<path d="M445.452 454.601H606.773V292.923H445.452V454.601Z" fill="#0083D4"/>
<path d="M462.46 346.346C456.492 346.341 450.666 348.161 445.761 351.561V293.402H387.897C391.275 297.748 393.366 302.954 393.932 308.429C394.497 313.904 393.515 319.428 391.096 324.372C388.677 329.316 384.919 333.482 380.25 336.396C375.581 339.31 370.187 340.855 364.683 340.855C359.179 340.855 353.785 339.31 349.116 336.396C344.446 333.482 340.689 329.316 338.27 324.372C335.851 319.428 334.869 313.904 335.434 308.429C336 302.954 338.091 297.748 341.469 293.402H283.744V353C279.439 349.463 274.218 347.222 268.689 346.537C263.159 345.853 257.549 346.753 252.512 349.134C247.475 351.515 243.218 355.277 240.236 359.984C237.255 364.691 235.672 370.147 235.672 375.719C235.672 381.29 237.255 386.747 240.236 391.454C243.218 396.161 247.475 399.923 252.512 402.304C257.549 404.685 263.159 405.585 268.689 404.901C274.218 404.216 279.439 401.975 283.744 398.438V458.036H342.831C339.048 453.804 336.571 448.569 335.698 442.96C334.825 437.352 335.594 431.611 337.912 426.431C340.229 421.25 343.997 416.85 348.76 413.764C353.523 410.677 359.077 409.034 364.753 409.034C370.428 409.034 375.983 410.677 380.745 413.764C385.508 416.85 389.276 421.25 391.593 426.431C393.911 431.611 394.68 437.352 393.807 442.96C392.934 448.569 390.457 453.804 386.674 458.036H445.761V399.97C449.557 402.583 453.913 404.267 458.479 404.887C463.045 405.507 467.692 405.045 472.047 403.539C476.401 402.033 480.341 399.524 483.548 396.216C486.755 392.907 489.14 388.892 490.51 384.492C491.88 380.093 492.197 375.433 491.435 370.889C490.673 366.345 488.854 362.043 486.125 358.331C483.395 354.619 479.831 351.6 475.721 349.518C471.61 347.436 467.068 346.349 462.46 346.346Z" fill="#8DC6E8"/>
</g>
</g>
<mask id="mask11_23_4381" style="mask-type:luminance" maskUnits="userSpaceOnUse" x="-23" y="-19" width="677" height="499">
<path d="M192.018 473.357L226.947 471.221L252.916 469.674L281.268 468.126L308.32 466.718L334.768 465.372L359.623 464.164L380.655 463.174L411.607 461.719L446.52 460.729L478.091 459.723L508.594 458.748L533.356 457.912L565.855 456.674L590.896 455.776L615.1 454.863L627.728 454.43L637.014 454.09L653.511 453.44C581.471 458.547 506.877 426.682 459.102 367.161C455.461 362.214 451.44 357.557 447.077 353.233L151.827 5.89041C139.044 -11.2415 121.37 -18.6699 104.966 -18.6699H-22.6797L98.7756 475.307L102.443 474.982L103.465 479.161L140.793 476.065L158.405 474.704L191.987 472.289L192.018 473.357Z" fill="white"/>
</mask>
<g mask="url(#mask11_23_4381)">
<mask id="mask12_23_4381" style="mask-type:luminance" maskUnits="userSpaceOnUse" x="122" y="-31" width="150" height="163">
<path d="M271.409 -30.1992H122.406V131.478H271.409V-30.1992Z" fill="white"/>
</mask>
<g mask="url(#mask12_23_4381)">
<path d="M278.358 66.0293H107.07V69.1709H278.358V66.0293Z" fill="#00205C"/>
<path d="M255.408 64.6837C254.871 63.1353 254.722 61.4785 254.976 59.8593C255.23 58.2401 255.878 56.7081 256.863 55.3981C259.05 52.7873 262.126 51.0784 265.498 50.6006C265.498 50.6006 267.618 56.2803 263.95 60.2885C259.447 65.1325 255.47 64.6373 255.47 64.6373" fill="#0083D4"/>
<path d="M255.918 64.7757C256.365 63.4658 256.486 62.0665 256.271 60.6993C256.055 59.332 255.509 58.038 254.68 56.9294C252.825 54.7068 250.211 53.2511 247.345 52.8438C247.345 52.8438 245.534 57.6568 248.706 61.077C252.529 65.1936 255.918 64.7757 255.918 64.7757Z" fill="#0083D4"/>
<path d="M175.877 64.6837C175.356 63.1275 175.224 61.467 175.494 59.848C175.764 58.2291 176.427 56.7011 177.425 55.3981C179.604 52.786 182.676 51.0764 186.045 50.6006C186.045 50.6006 188.181 56.2803 184.497 60.2885C179.994 65.1325 176.001 64.6373 176.001 64.6373" fill="#0083D4"/>
<path d="M176.418 64.7757C176.861 63.4642 176.978 62.0648 176.759 60.698C176.541 59.3311 175.994 58.0379 175.165 56.9294C173.314 54.709 170.706 53.2533 167.845 52.8438C167.845 52.8438 166.034 57.6568 169.206 61.077C173.029 65.1936 176.418 64.7757 176.418 64.7757Z" fill="#0083D4"/>
<path d="M272.677 23.9199H108.354V27.0615H272.677V23.9199Z" fill="#00205C"/>
<path d="M248.722 108.589H102.01V111.73H248.722V108.589Z" fill="#00205C"/>
<path d="M202.682 107.242C202.15 105.692 202.006 104.035 202.262 102.416C202.518 100.798 203.168 99.2664 204.153 97.9566C206.334 95.3433 209.404 93.629 212.773 93.1436C212.773 93.1436 214.909 98.8387 211.225 102.847C206.722 107.691 202.744 107.196 202.744 107.196" fill="#0083D4"/>
<path d="M203.207 107.32C203.649 106.011 203.766 104.614 203.548 103.249C203.33 101.885 202.782 100.594 201.954 99.4888C200.097 97.265 197.485 95.8047 194.618 95.3877C194.618 95.3877 192.9 100.154 195.995 103.636C199.818 107.753 203.207 107.32 203.207 107.32Z" fill="#0083D4"/>
<path d="M136.119 107.242C135.587 105.693 135.442 104.037 135.695 102.419C135.949 100.801 136.594 99.2689 137.574 97.9566C139.767 95.3503 142.839 93.638 146.21 93.1436C146.21 93.1436 148.345 98.8387 144.662 102.847C140.158 107.691 136.181 107.196 136.181 107.196" fill="#0083D4"/>
<path d="M136.631 107.32C137.078 106.012 137.199 104.615 136.983 103.251C136.768 101.886 136.222 100.595 135.393 99.4888C133.536 97.265 130.924 95.8047 128.057 95.3877C128.057 95.3877 126.247 100.216 129.419 103.636C133.257 107.753 136.631 107.32 136.631 107.32Z" fill="#0083D4"/>
<path d="M136.785 22.2021C136.264 20.6459 136.132 18.9854 136.402 17.3664C136.672 15.7475 137.335 14.2195 138.333 12.9165C140.514 10.3033 143.584 8.58897 146.953 8.10352C146.953 8.10352 149.089 13.7832 145.406 17.8069C140.902 22.6509 136.925 22.1557 136.925 22.1557" fill="#0083D4"/>
<path d="M137.311 22.2796C137.753 20.968 137.87 19.5687 137.652 18.2018C137.433 16.835 136.886 15.5418 136.057 14.4333C134.196 12.2175 131.585 10.7634 128.722 10.3477C128.722 10.3477 126.911 15.1762 130.083 18.5963C133.921 22.7129 137.311 22.2796 137.311 22.2796Z" fill="#0083D4"/>
</g>
</g>
<path d="M493.723 459.893C493.723 458.098 492.268 456.643 490.473 456.643C488.678 456.643 487.223 458.098 487.223 459.893V466.408C487.223 468.203 488.678 469.658 490.473 469.658C492.268 469.658 493.723 468.203 493.723 466.408V459.893Z" stroke="#00B2E3" stroke-width="1.72" stroke-linecap="round" stroke-linejoin="round"/>
<mask id="mask13_23_4381" style="mask-type:luminance" maskUnits="userSpaceOnUse" x="-23" y="-19" width="677" height="499">
<path d="M192.018 473.357L226.947 471.221L252.916 469.674L281.268 468.126L308.32 466.718L334.768 465.372L359.623 464.164L380.655 463.174L411.607 461.719L446.52 460.729L478.091 459.723L508.594 458.748L533.356 457.912L565.855 456.674L590.896 455.776L615.1 454.863L627.728 454.43L637.014 454.09L653.511 453.44C581.471 458.547 506.877 426.682 459.102 367.161C455.461 362.214 451.44 357.557 447.077 353.233L151.827 5.89041C139.044 -11.2415 121.37 -18.6699 104.966 -18.6699H-22.6797L98.7756 475.307L102.443 474.982L103.465 479.161L140.793 476.065L158.405 474.704L191.987 472.289L192.018 473.357Z" fill="white"/>
</mask>
<g mask="url(#mask13_23_4381)">
<path d="M493.723 459.893C493.723 458.098 492.268 456.643 490.473 456.643C488.678 456.643 487.223 458.098 487.223 459.893V466.408C487.223 468.203 488.678 469.658 490.473 469.658C492.268 469.658 493.723 468.203 493.723 466.408V459.893Z" stroke="#00B2E3" stroke-width="1.72" stroke-linecap="round" stroke-linejoin="round"/>
<path d="M493.723 442.219C493.723 440.424 492.268 438.969 490.473 438.969C488.678 438.969 487.223 440.424 487.223 442.219V448.734C487.223 450.529 488.678 451.984 490.473 451.984C492.268 451.984 493.723 450.529 493.723 448.734V442.219Z" stroke="#00B2E3" stroke-width="1.72" stroke-linecap="round" stroke-linejoin="round"/>
<path d="M493.723 425.489C493.723 423.694 492.268 422.239 490.473 422.239C488.678 422.239 487.223 423.694 487.223 425.489V432.005C487.223 433.799 488.678 435.255 490.473 435.255C492.268 435.255 493.723 433.799 493.723 432.005V425.489Z" stroke="#00B2E3" stroke-width="1.72" stroke-linecap="round" stroke-linejoin="round"/>
<path d="M493.723 407.801C493.723 406.006 492.268 404.551 490.473 404.551C488.678 404.551 487.223 406.006 487.223 407.801V414.316C487.223 416.111 488.678 417.566 490.473 417.566C492.268 417.566 493.723 416.111 493.723 414.316V407.801Z" stroke="#00B2E3" stroke-width="1.72" stroke-linecap="round" stroke-linejoin="round"/>
</g>
<mask id="mask14_23_4381" style="mask-type:luminance" maskUnits="userSpaceOnUse" x="-81" y="-19" width="3023" height="880">
<path d="M2022.96 786.296L2020.47 841.36L2019.54 844.146L2017.72 846.188L2012.27 848.695L2002.26 851.62L1986.15 854.607L1971.4 856.449L1954.05 857.997L1944.36 858.848L1900.43 860.395H1849.48L1808.96 859.405L1755.52 856.186L1717.72 852.518L1682.48 847.643L1648.55 842.149L1624.91 837.801L1622.88 792.657L1610.81 793.555L1583.57 793.477H1542.4H1528.32H1514.07H1484.37H1468.89L1434.21 793.199L1416.49 792.858L1389.67 791.636L1365.89 789.964L1348.3 788.417L1331.44 786.621H891.718L866.368 785.43L843.742 782.799L818.068 779.704L784.934 775.386C609.632 749.592 435.86 714.301 264.384 669.67C228.367 660.302 192.514 650.531 156.826 640.358C100.014 624.217 43.6197 606.791 -12.2175 588.808C-21.859 585.511 -38.7588 579.522 -52.78 573.904C-67.5441 568.008 -79.7082 562.592 -80.6367 562.174L-79.2129 511.428L-69.2774 508.41L-58.9549 505.439L-37.7838 500.347L-25.0316 497.964L-15.5448 496.416L-6.89379 494.869L2.57749 493.321L12.6524 491.774L22.3712 490.412L38.7603 488.059L51.141 486.295L75.9026 482.921L95.8666 480.987L107.458 479.996L119.591 478.959L134.835 477.752L158.436 475.942L174.454 474.781L192.174 473.481L192.081 472.305L141.35 475.942L103.558 479.13L102.537 474.967L98.8689 475.276L-22.6328 -18.6699H104.982C113.128 -18.6542 121.174 -16.8788 128.57 -13.4652C135.967 -10.0516 142.538 -5.08033 147.835 1.10835L459.211 367.192C502.869 421.636 568.239 452.929 634.616 453.997C640.961 454.1 647.301 453.93 653.636 453.486H2437.69L2459.03 453.981L2483.45 454.987L2507.64 456.535L2532.74 458.655L2557.29 461.193L2583.7 464.52L2610.01 468.56L2636.23 473.202L2655.9 477.365L2676.02 482.178L2695.86 487.966L2706.29 491.464L2716.24 495.039L2728.76 499.914L2741.14 505.516L2749.03 509.37L2758.12 514.415L2761.21 516.396L2765.25 518.996L2769.25 521.58L2772.34 523.7L2776.78 527.152L2787.75 536.05L2835.73 583.53L2850.96 589.427L2865.89 596.004L2874.3 600.121L2882.48 604.485L2890.52 609.128L2898.33 614.08L2905.73 619.295L2913.02 624.898L2918.46 629.541L2924.38 635.189L2928.77 640.111L2932.41 644.846L2936.48 651.501L2939.09 657.289L2940.77 662.736L2941.63 668.153L2941.85 672.595L2941.63 677.237L2940.94 681.741L2939.85 686.028L2937.9 690.934L2935.44 695.468L2929.25 703.655L2921.81 711.099L2912.15 718.837L2901.43 725.863L2890.27 731.697L2878.46 736.727L2866.08 741.37L2853.39 745.579L2841.38 749.201L2830.55 751.94L2819.87 754.401L2808.71 756.923L2797.61 759.337L2786.08 761.674L2771.57 764.336L2753.34 767.168L2736.98 769.551L2717.97 771.966L2696.01 774.411L2670.73 776.856L2641.8 779.193L2620.38 780.741L2597.09 782.103L2571.85 783.356L2544.5 784.439L2515.02 785.352L2483.23 786.018L2439.1 786.606H2022.9L2022.96 786.296Z" fill="white"/>
</mask>
<g mask="url(#mask14_23_4381)">
<path d="M-161.328 653.574H122.361L122.361 454.739H-161.328V653.574Z" fill="#0083D4"/>
</g>
<path d="M196.661 157.06C196.745 158.591 197.277 160.064 198.19 161.296C199.102 162.529 200.356 163.467 201.796 163.994C203.236 164.522 204.799 164.616 206.292 164.264C207.785 163.913 209.142 163.132 210.196 162.018C211.249 160.904 211.954 159.505 212.221 157.995C212.489 156.485 212.308 154.93 211.701 153.522C211.094 152.113 210.088 150.914 208.807 150.071C207.525 149.228 206.025 148.78 204.492 148.78C202.357 148.845 200.335 149.752 198.868 151.304C197.4 152.856 196.607 154.925 196.661 157.06Z" stroke="#00205C" stroke-width="2.76" stroke-miterlimit="10"/>
<path d="M159.707 265.918V198.613C159.707 186.734 164.426 175.342 172.825 166.943C181.224 158.544 192.616 153.825 204.494 153.825C216.373 153.825 227.765 158.544 236.164 166.943C244.563 175.342 249.282 186.734 249.282 198.613V265.918H159.707Z" fill="#00205C"/>
<path d="M228.557 196.74H179.39C175.415 196.74 172.193 199.962 172.193 203.937V237.829C172.193 241.803 175.415 245.025 179.39 245.025H228.557C232.531 245.025 235.753 241.803 235.753 237.829V203.937C235.753 199.962 232.531 196.74 228.557 196.74Z" stroke="white" stroke-width="1.53" stroke-miterlimit="10"/>
<path d="M233.852 242.286C233.834 242.598 233.911 242.909 234.073 243.177C234.235 243.445 234.474 243.658 234.759 243.787C235.045 243.916 235.362 243.955 235.671 243.9C235.979 243.845 236.263 243.697 236.486 243.477C236.708 243.257 236.859 242.974 236.917 242.666C236.976 242.359 236.94 242.041 236.814 241.754C236.688 241.467 236.478 241.226 236.212 241.061C235.945 240.896 235.635 240.816 235.322 240.831C235.13 240.829 234.939 240.865 234.761 240.937C234.583 241.009 234.421 241.116 234.284 241.251C234.147 241.387 234.038 241.548 233.964 241.725C233.89 241.903 233.852 242.093 233.852 242.286Z" fill="#CFD1D2"/>
<path d="M233.852 242.286C233.834 242.598 233.911 242.909 234.073 243.177C234.235 243.445 234.474 243.658 234.759 243.787C235.045 243.916 235.362 243.955 235.671 243.9C235.979 243.845 236.263 243.697 236.486 243.477C236.708 243.257 236.859 242.974 236.917 242.666C236.976 242.359 236.94 242.041 236.814 241.754C236.688 241.467 236.478 241.226 236.212 241.061C235.945 240.896 235.635 240.816 235.322 240.831C235.13 240.829 234.939 240.865 234.761 240.937C234.583 241.009 234.421 241.116 234.284 241.251C234.147 241.387 234.038 241.548 233.964 241.725C233.89 241.903 233.852 242.093 233.852 242.286Z" stroke="white" stroke-width="1.02" stroke-miterlimit="10"/>
<path d="M235.43 242.61L236.699 247.919L234.27 247.95L235.43 242.61Z" fill="#CFD1D2"/>
<path d="M235.43 242.61L236.699 247.919L234.27 247.95L235.43 242.61Z" stroke="white" stroke-width="1.02" stroke-miterlimit="10"/>
<path d="M226.715 210.188H181.742" stroke="white" stroke-width="1.53" stroke-miterlimit="10"/>
<path d="M237.378 276.905H171.637C168.472 276.905 165.437 275.648 163.199 273.411C160.962 271.173 159.705 268.138 159.705 264.973V253.97H249.295L249.295 264.973C249.295 268.135 248.04 271.168 245.806 273.405C243.571 275.642 240.54 276.901 237.378 276.905Z" fill="#0033A1"/>
<path d="M230.4 454.136H216.967V472.289H230.4V454.136Z" fill="#0092DA"/>
<path d="M223.685 448.518C222.584 448.521 221.508 448.85 220.594 449.464C219.68 450.078 218.968 450.949 218.549 451.968C218.129 452.986 218.021 454.106 218.238 455.185C218.455 456.265 218.986 457.256 219.766 458.034C220.546 458.812 221.539 459.341 222.619 459.554C223.699 459.768 224.819 459.657 225.836 459.235C226.853 458.813 227.722 458.098 228.334 457.183C228.945 456.267 229.272 455.19 229.272 454.089C229.272 453.356 229.127 452.63 228.846 451.953C228.565 451.276 228.153 450.661 227.634 450.144C227.115 449.626 226.499 449.216 225.822 448.937C225.144 448.658 224.418 448.516 223.685 448.518ZM223.685 458.608C222.791 458.608 221.917 458.343 221.174 457.846C220.431 457.35 219.852 456.644 219.51 455.818C219.168 454.993 219.078 454.084 219.253 453.207C219.427 452.331 219.857 451.526 220.489 450.894C221.121 450.262 221.927 449.831 222.803 449.657C223.68 449.482 224.588 449.572 225.414 449.914C226.24 450.256 226.946 450.835 227.442 451.578C227.939 452.321 228.204 453.195 228.204 454.089C228.204 455.287 227.728 456.437 226.88 457.284C226.033 458.132 224.883 458.608 223.685 458.608Z" fill="#0092DA"/>
<path d="M262.682 408.327C264.066 408.586 265.331 409.284 266.287 410.319C267.243 411.353 267.841 412.668 267.99 414.069L266.442 431.356C266.443 432.612 266.023 433.832 265.251 434.822L257.822 444.402L253.551 443.427L260.499 430.969L259.091 411.98C259.107 408.745 260.747 408.204 262.682 408.327Z" fill="#1A49AD"/>
<path d="M252.593 450.282C253.247 450.423 253.929 450.349 254.537 450.07C255.145 449.791 255.647 449.322 255.966 448.734L257.761 445.84C258.984 443.844 258.226 441.538 256.214 441.197C254.357 440.857 253.769 442.095 252.856 444.293L251.2 447.62C251.054 448.158 251.117 448.73 251.375 449.224C251.633 449.717 252.068 450.095 252.593 450.282Z" fill="#00205C"/>
<path d="M251.014 444.277C251.364 444.365 251.727 444.381 252.084 444.325C252.44 444.269 252.781 444.143 253.088 443.952L254.914 443.024C256.167 442.389 256.616 441.476 255.811 441.26C255.264 441.19 254.708 441.231 254.176 441.38C253.644 441.528 253.148 441.782 252.716 442.126L251.308 443.225C250.735 443.72 250.627 444.092 251.014 444.277Z" fill="#00205C"/>
<path d="M249.047 454.368L242.176 463.298L276.47 460.404C276.859 460.333 277.228 460.181 277.554 459.959C277.88 459.737 278.156 459.449 278.364 459.114C278.573 458.778 278.709 458.403 278.764 458.013C278.819 457.622 278.791 457.224 278.684 456.844V456.69C278.496 456.037 278.081 455.473 277.513 455.101C276.945 454.728 276.262 454.573 275.588 454.662L249.047 454.368Z" fill="#1A49AD"/>
<g opacity="0.42" style="mix-blend-mode:multiply">
<path d="M248.09 454.554L241.203 463.483L275.42 460.589C275.81 460.52 276.18 460.37 276.508 460.149C276.835 459.927 277.112 459.639 277.321 459.303C277.529 458.967 277.665 458.591 277.719 458.2C277.773 457.808 277.744 457.41 277.633 457.03V456.875C277.446 456.222 277.031 455.658 276.463 455.286C275.895 454.914 275.212 454.758 274.538 454.848L248.09 454.554Z" fill="#0033A1"/>
</g>
<path d="M273.902 457.293C273.902 457.873 274.059 458.443 274.356 458.941C274.653 459.44 275.079 459.849 275.589 460.125L284.349 464.876C284.656 465.05 285.002 465.144 285.355 465.147C285.708 465.15 286.056 465.063 286.366 464.894C286.676 464.725 286.937 464.48 287.126 464.181C287.315 463.883 287.424 463.542 287.444 463.189C287.466 462.873 287.415 462.556 287.294 462.264C287.174 461.971 286.986 461.71 286.747 461.502L279.288 454.894C278.826 454.473 278.25 454.196 277.633 454.097C277.016 453.997 276.383 454.08 275.812 454.334C275.24 454.589 274.756 455.004 274.417 455.529C274.077 456.055 273.899 456.667 273.902 457.293Z" fill="#0083D4"/>
<g opacity="0.42" style="mix-blend-mode:multiply">
<path d="M273.902 457.293C273.902 457.873 274.059 458.443 274.356 458.941C274.653 459.44 275.079 459.849 275.589 460.125L284.349 464.876C284.656 465.05 285.002 465.144 285.355 465.147C285.708 465.15 286.056 465.063 286.366 464.894C286.676 464.725 286.937 464.48 287.126 464.181C287.315 463.883 287.424 463.542 287.444 463.189C287.466 462.873 287.415 462.556 287.294 462.264C287.174 461.971 286.986 461.71 286.747 461.502L279.288 454.894C278.826 454.473 278.25 454.196 277.633 454.097C277.016 453.997 276.383 454.08 275.812 454.334C275.24 454.589 274.756 455.004 274.417 455.529C274.077 456.055 273.899 456.667 273.902 457.293Z" fill="#0033A1"/>
</g>
<path d="M247.578 411.036L248.646 410.742C249.54 410.302 250.514 410.049 251.509 409.999C252.205 409.999 253.66 409.859 253.66 409.859L260.454 408.126C262.698 407.925 264.741 410.494 265.484 412.397L266.288 414.456C266.458 414.874 266.552 415.32 266.567 415.771L267.666 439.109C268.44 439.896 269.149 440.745 269.786 441.647C270.034 442.111 270.42 442.715 270.622 443.195C271.508 445.334 271.686 447.701 271.129 449.948C270.572 452.196 269.309 454.206 267.526 455.684C266.341 456.677 264.926 457.357 263.41 457.665L252.329 460.063L272.912 462.834C273.825 462.893 274.679 463.303 275.296 463.978C275.913 464.653 276.246 465.541 276.224 466.455C276.09 467.374 275.598 468.203 274.857 468.762C274.115 469.321 273.183 469.566 272.262 469.442L240.49 464.799C239.374 464.733 238.29 464.401 237.328 463.83C236.367 463.26 235.557 462.467 234.965 461.518V461.41C234.649 460.869 234.414 460.285 234.269 459.676C234.269 459.491 234.269 459.305 234.16 459.135C233.711 456.365 233.804 452.588 236.404 451.056L237.503 450.422L251.045 441.43L248.692 433.692L247.145 425.954L246.324 422.457L241.96 420.507C236.652 418.34 236.373 418.959 232.597 413.527L226.268 403.731L229.487 401.951L237.782 410.138C238.829 411.041 240.091 411.659 241.447 411.93C242.803 412.201 244.206 412.117 245.52 411.686L247.578 411.036Z" fill="#1A49AD"/>
<path d="M258.336 400.388C259.685 401.373 260.59 402.852 260.854 404.501C261.118 406.151 260.719 407.838 259.744 409.194C258.552 410.602 257.128 410.386 255.256 410.2C253.863 410.061 252.037 410.308 250.83 409.271C247.982 406.873 247.348 402.926 249.421 400.466C251.495 398.005 255.488 398.02 258.336 400.388Z" fill="#FF8300"/>
<path d="M246.278 422.41C246.278 422.41 250.209 421.791 250.55 415.137C250.327 413.526 249.669 412.006 248.646 410.741C248.228 410.215 249.389 410.308 250.488 410.122C251.61 410.386 252.664 410.882 253.583 411.577C256.678 413.388 260.578 412.475 261.073 411.175C261.372 410.165 261.372 409.09 261.073 408.079C260.764 407.027 263.24 408.791 264.261 409.906C265.836 411.667 266.943 413.795 267.481 416.096C267.821 419.052 267.929 436.323 268.409 437.53C268.889 438.737 270.854 444.046 270.854 444.046C267.222 445.862 263.256 446.915 259.201 447.141C254.711 446.84 250.273 445.998 245.984 444.634C245.984 444.634 249.327 441.786 248.94 439C248.507 435.905 248.167 434.187 248.167 434.187L246.278 422.41Z" fill="#FF942F"/>
<path d="M268.27 435.302L268.502 437.577L257.498 439.712C254.712 440.347 251.819 440.347 249.033 439.712L248.94 439.387L248.816 437.515L251.525 437.933C253.596 437.971 255.667 437.832 257.715 437.515L268.27 435.302Z" fill="#C7C8C2"/>
<path d="M262.447 407.654C263.948 405.155 261.583 400.978 257.166 398.324C252.748 395.669 247.95 395.543 246.449 398.041C244.947 400.539 247.312 404.716 251.73 407.371C256.147 410.025 260.946 410.152 262.447 407.654Z" fill="#0083D4"/>
<g opacity="0.83" style="mix-blend-mode:multiply">
<path d="M262.447 407.654C263.948 405.155 261.583 400.978 257.166 398.324C252.748 395.669 247.95 395.543 246.449 398.041C244.947 400.539 247.312 404.716 251.73 407.371C256.147 410.025 260.946 410.152 262.447 407.654Z" fill="#0033A1"/>
</g>
<path d="M250.735 397.293C247.965 399.274 249.512 403.684 252.824 405.944C256.136 408.203 261.135 408.312 262.729 405.479C263.211 404.789 263.542 404.005 263.699 403.177C263.855 402.35 263.835 401.499 263.639 400.68C263.443 399.861 263.076 399.093 262.562 398.427C262.047 397.76 261.398 397.21 260.655 396.813C259.173 395.807 257.404 395.31 255.615 395.396C253.826 395.483 252.113 396.148 250.735 397.293Z" fill="#0083D4"/>
<g opacity="0.57" style="mix-blend-mode:multiply">
<path d="M250.735 397.293C247.965 399.274 249.512 403.684 252.824 405.944C256.136 408.203 261.135 408.312 262.729 405.479C263.211 404.789 263.542 404.005 263.699 403.177C263.855 402.35 263.835 401.499 263.639 400.68C263.443 399.861 263.076 399.093 262.562 398.427C262.047 397.76 261.398 397.21 260.655 396.813C259.173 395.807 257.404 395.31 255.615 395.396C253.826 395.483 252.113 396.148 250.735 397.293Z" fill="#0033A1"/>
</g>
<path d="M254.357 396.659L254.713 395.993C256.53 396.197 258.295 396.721 259.929 397.541C261.33 398.348 262.419 399.601 263.024 401.1L262.513 401.75L261.306 399.862C260.307 398.632 258.94 397.753 257.406 397.355L254.357 396.659Z" fill="#0083D4"/>
<path d="M226.004 398.361C226.484 397.448 227.382 397.386 228.186 398.206L229.858 401.131L229.997 401.332C230.055 400.738 230.331 400.187 230.771 399.785C231.111 399.599 231.375 399.908 231.421 400.527L231.545 402.152C231.588 402.992 231.384 403.827 230.957 404.551C230.837 404.817 230.669 405.058 230.461 405.263C230.165 405.581 229.791 405.815 229.376 405.943C228.96 406.07 228.519 406.086 228.095 405.989C227.672 405.891 227.282 405.685 226.963 405.389C226.645 405.093 226.411 404.719 226.283 404.304C226.007 403.688 225.779 403.051 225.602 402.4C225.33 401.044 225.47 399.637 226.004 398.361Z" fill="#00205C"/>
<path d="M226.004 398.361C226.484 397.448 227.382 397.386 228.186 398.206L229.858 401.131L229.997 401.332C230.055 400.738 230.331 400.187 230.771 399.785C231.111 399.599 231.375 399.908 231.421 400.527L231.545 402.152C231.588 402.992 231.384 403.827 230.957 404.551C230.837 404.817 230.669 405.058 230.461 405.263C230.165 405.581 229.791 405.815 229.376 405.943C228.96 406.07 228.519 406.086 228.095 405.989C227.672 405.891 227.282 405.685 226.963 405.389C226.645 405.093 226.411 404.719 226.283 404.304C226.007 403.688 225.779 403.051 225.602 402.4C225.33 401.044 225.47 399.637 226.004 398.361Z" fill="#0092DA"/>
<path d="M227.444 404.051L228.713 404.73L233.374 396.026L232.105 395.347L227.444 404.051Z" fill="#CECFC9"/>
<path d="M230.042 400.945C230.095 400.35 230.372 399.798 230.815 399.398C231.156 399.197 231.419 399.506 231.465 400.141L231.589 401.688C231.635 402.528 231.43 403.363 231.001 404.087C230.885 404.355 230.717 404.597 230.506 404.799C230.178 405.147 229.76 405.399 229.299 405.526" fill="#0092DA"/>
<path d="M230.336 395.575L234.035 397.711L236.65 393.177C235.48 392.836 234.262 392.689 233.044 392.743C232.178 393.053 230.336 395.575 230.336 395.575Z" fill="#666667"/>
<path d="M230.174 395.873L233.9 398.024L234.388 397.18L230.662 395.029L230.174 395.873Z" fill="#C7C8C2"/>
<path d="M481.28 439.279L478.185 439.17C476.702 439.12 475.23 439.433 473.897 440.083C472.565 440.733 471.412 441.701 470.539 442.9L468.373 445.918L463.931 450.901C463.11 451.727 462.629 452.832 462.585 453.996V455.823C462.571 456.587 462.746 457.342 463.094 458.023C463.442 458.703 463.953 459.287 464.581 459.722L468.636 462.462C468.636 462.462 491.153 462.678 491.509 462.462C491.865 462.245 494.202 459.955 495.61 458.453C496.346 457.646 496.774 456.605 496.818 455.513V454.584C496.845 453.763 496.65 452.949 496.252 452.23C495.854 451.51 495.269 450.912 494.558 450.499L490.89 447.404L489.033 443.968C488.268 442.573 487.148 441.405 485.787 440.581C484.425 439.758 482.87 439.309 481.28 439.279Z" fill="#0033A1"/>
<path d="M482.209 449.911L476.312 449.71C474.001 449.646 471.752 450.467 470.026 452.006C468.3 453.545 467.227 455.685 467.027 457.989L465.479 476.065L464.04 488.446C463.962 489.102 464.026 489.766 464.226 490.396L474.765 507.791C474.885 508.149 475.08 508.478 475.338 508.754C475.595 509.031 475.908 509.25 476.257 509.397C476.605 509.543 476.981 509.614 477.359 509.604C477.736 509.594 478.108 509.503 478.448 509.338C478.988 509.081 479.426 508.65 479.693 508.114C479.959 507.578 480.039 506.969 479.918 506.382L470.633 487.811L472.552 477.644L473.867 474.688C474.236 473.862 474.842 473.165 475.608 472.686C476.374 472.206 477.266 471.966 478.169 471.995H479.609C480.51 472.026 481.382 472.325 482.113 472.855C482.843 473.384 483.399 474.119 483.71 474.966L484.824 478.061L487.672 486.326L481.156 495.828C480.96 496.444 480.995 497.11 481.254 497.703C481.513 498.295 481.979 498.773 482.565 499.047C483.957 499.697 484.824 498.335 486.263 497.035L493.351 489.39C493.58 488.846 493.696 488.262 493.692 487.672L491.448 473.125L490.953 458.593C490.857 456.31 489.903 454.148 488.282 452.539C486.66 450.929 484.492 449.991 482.209 449.911Z" fill="#0033A1"/>
<path d="M472.63 472.073C472.057 470.34 468.73 467.43 466.857 467.275C466.425 467.323 466.006 467.449 465.619 467.647L466.764 460.064L466.316 458.238C465.671 455.92 465.555 453.487 465.975 451.119L466.114 450.546C470.401 448.506 475.158 447.658 479.885 448.091C484.613 448.524 489.136 450.222 492.981 453.007C492.981 453.007 492.981 454.43 492.81 455.839C492.702 457.371 492.33 458.874 491.712 460.28L491.062 461.828L491.789 469.272H491.309C489.607 468.22 487.626 470.386 486.094 471.702C485.351 472.336 484.097 473.683 483.153 473.358C482.008 467.817 475.849 468.622 475.415 471.98L474.007 474.054C472.413 474.085 472.816 473.621 472.63 472.073Z" fill="#FF8300"/>
<path d="M491.293 461.239L482.301 459.506C480.322 459.307 478.331 459.24 476.343 459.305L466.779 460.063L466.33 458.237L476.188 457.184C478.073 457.122 479.96 457.184 481.837 457.37L492.144 459.227L491.293 461.239Z" fill="#C7C8C2"/>
</g>
</g>
</svg>
