<svg width="514" height="459" viewBox="0 0 514 459" fill="none" xmlns="http://www.w3.org/2000/svg">
<path d="M70.3622 0.867752L37.2161 1.55301C18.0839 1.94855 4.20762 19.914 8.65915 38.5253L105.51 443.448C107.663 452.448 115.708 458.796 124.962 458.796H469.487C486.667 458.796 495.852 438.563 484.542 425.63L139.972 31.6029C122.454 11.5704 96.9682 0.317701 70.3622 0.867752Z" fill="#FF0000"/>
<mask id="mask0_23_5286" style="mask-type:alpha" maskUnits="userSpaceOnUse" x="7" y="0" width="483" height="459">
<path d="M70.3622 0.867752L37.2161 1.55301C18.0839 1.94855 4.20762 19.914 8.65915 38.5253L105.51 443.448C107.663 452.448 115.708 458.796 124.962 458.796H469.487C486.667 458.796 495.852 438.563 484.542 425.63L139.972 31.6029C122.454 11.5704 96.9682 0.317701 70.3622 0.867752Z" fill="white"/>
</mask>
<g mask="url(#mask0_23_5286)">
<mask id="mask1_23_5286" style="mask-type:luminance" maskUnits="userSpaceOnUse" x="-6" y="0" width="594" height="478">
<path d="M587.666 462.777L105.735 477.351L-5.89062 0H103.84C113.941 0.00168328 123.914 2.25304 133.035 6.59051C142.156 10.928 150.197 17.2427 156.573 25.0759L445.445 379.882C473.374 414.216 510.91 439.438 553.252 452.32L587.666 462.777Z" fill="white"/>
</mask>
<g mask="url(#mask1_23_5286)">
<path d="M891.233 -300.164H-77.5215V808.112H891.233V-300.164Z" fill="#00205C"/>
<path d="M37.8906 3.7446C37.8906 24.9271 37.8906 49.0333 37.8906 70.8722L66.1588 61.5787V-5.54883L37.8906 3.7446Z" fill="#00205C"/>
<path d="M-4.65234 17.7229C-4.65234 38.8606 -4.65234 62.9817 -4.65234 84.8504L23.6904 75.5719V8.44434L-4.65234 17.7229Z" fill="#0033A1"/>
<path d="M80.375 -10.2327C80.375 10.9498 80.375 35.071 80.375 56.8949L108.718 47.5865V-19.541L80.375 -10.2327Z" fill="#0033A1"/>
<path d="M122.875 42.9171L151.218 33.6236V-33.5039L122.875 -24.1955C122.875 -2.99816 122.875 21.1081 122.875 42.932" fill="#0033A1"/>
<path d="M37.8906 96.4555C37.8906 117.638 37.8906 141.744 37.8906 163.583L66.1588 154.29V87.1621L37.8906 96.4555Z" fill="#6ABF4B"/>
<path d="M-4.65234 110.373C-4.65234 131.511 -4.65234 155.632 -4.65234 177.5L23.6904 168.192V101.064L-4.65234 110.373Z" fill="#00205C"/>
<path d="M80.375 82.4187C80.375 103.601 80.375 127.722 80.375 149.546L108.718 140.238V73.1104L80.375 82.4187Z" fill="#00205C"/>
<path d="M122.875 135.568L151.218 126.26V59.1621L122.875 68.4705C122.875 89.6679 122.875 113.789 122.875 135.598" fill="#3A8DDE"/>
<path d="M37.8906 189.047C37.8906 210.214 37.8906 234.335 37.8906 256.174L66.1588 246.866V179.738L37.8906 189.047Z" fill="#3A8DDE"/>
<path d="M-4.65234 203.01C-4.65234 224.162 -4.65234 248.283 -4.65234 270.137L23.6904 260.829V193.701L-4.65234 203.01Z" fill="#0033A1"/>
<path d="M80.375 175.069C80.375 196.237 80.375 220.358 80.375 242.197L108.718 232.888V165.761L80.375 175.069Z" fill="#0033A1"/>
<path d="M122.875 228.204L151.218 218.911V151.783L122.875 161.092C122.875 182.289 122.875 206.41 122.875 228.219" fill="#6ABF4B"/>
<path d="M37.8906 281.682C37.8906 302.865 37.8906 326.971 37.8906 348.81L66.1588 339.502V272.374L37.8906 281.682Z" fill="#6ABF4B"/>
<path d="M-4.65234 295.66C-4.65234 316.798 -4.65234 340.934 -4.65234 362.787L23.6904 353.479V286.352L-4.65234 295.66Z" fill="#0033A1"/>
<path d="M80.375 267.72C80.375 288.888 80.375 313.009 80.375 334.848L108.718 325.54V258.412L80.375 267.72Z" fill="#6ABF4B"/>
<path d="M122.875 320.856L151.218 311.562V244.435L122.875 253.743C122.875 274.94 122.875 299.047 122.875 320.87" fill="#0033A1"/>
<path d="M37.8906 374.334C37.8906 395.516 37.8906 419.623 37.8906 441.461L66.1886 432.093V364.966L37.8906 374.334Z" fill="#0033A1"/>
<path d="M-4.65234 388.311C-4.65234 409.449 -4.65234 433.57 -4.65234 455.439L23.6904 446.13V379.003L-4.65234 388.311Z" fill="#0033A1"/>
<path d="M80.375 360.356C80.375 381.539 80.375 405.66 80.375 427.484L108.718 418.175V351.048L80.375 360.356Z" fill="#00205C"/>
<path d="M122.875 413.506L151.218 404.198V337.07L122.875 346.364C122.875 367.561 122.875 391.682 122.875 413.491" fill="#00205C"/>
<path d="M37.8906 466.984C37.8906 488.167 37.8906 512.273 37.8906 534.112L66.1588 524.803V457.676L37.8906 466.984Z" fill="#0033A1"/>
<path d="M80.375 452.977C80.375 474.145 80.375 498.281 80.375 520.105L108.718 510.796V443.669L80.375 452.977Z" fill="#3A8DDE"/>
<path d="M122.875 506.143L151.218 496.849V429.722L122.875 439.03C122.875 460.227 122.875 484.349 122.875 506.158" fill="#3A8DDE"/>
<path d="M389.582 -60.9514C389.582 -39.8137 389.582 -15.7074 389.582 6.17614L417.925 -3.13222V-70.2598L389.582 -60.9514Z" fill="#0033A1"/>
<path d="M389.582 31.6999C389.582 52.8227 389.582 76.9439 389.582 98.8275L417.925 89.5191V22.3916L389.582 31.6999Z" fill="#0033A1"/>
<path d="M474.535 3.7446C474.535 24.9271 474.535 49.0333 474.535 70.8722L502.878 61.5787V-5.54883L474.535 3.7446Z" fill="#0033A1"/>
<path d="M432.051 17.7229C432.051 38.8606 432.051 62.9817 432.051 84.8504L460.394 75.542V8.44434L432.051 17.7229Z" fill="#0033A1"/>
<path d="M389.582 124.336C389.582 145.473 389.582 169.595 389.582 191.463L417.925 182.155V115.027L389.582 124.336Z" fill="#0033A1"/>
<path d="M474.535 96.4555C474.535 117.638 474.535 141.744 474.535 163.583L502.878 154.29V87.1621L474.535 96.4555Z" fill="#0033A1"/>
<path d="M432.051 110.373C432.051 131.511 432.051 155.632 432.051 177.5L460.394 168.192V101.064L432.051 110.373Z" fill="#0033A1"/>
<path d="M389.582 216.986C389.582 238.124 389.582 262.245 389.582 284.114L417.925 274.805V207.678L389.582 216.986Z" fill="#0033A1"/>
<path d="M474.535 189.047C474.535 210.214 474.535 234.335 474.535 256.174L502.878 246.866V179.738L474.535 189.047Z" fill="#0033A1"/>
<path d="M432.051 203.01C432.051 224.162 432.051 248.283 432.051 270.137L460.394 260.829V193.701L432.051 203.01Z" fill="#0033A1"/>
<path d="M389.582 309.637C389.582 330.775 389.582 354.881 389.582 376.765L417.925 367.457V300.329L389.582 309.637Z" fill="#0033A1"/>
<path d="M474.535 281.682C474.535 302.865 474.535 326.971 474.535 348.81L502.878 339.502V272.374L474.535 281.682Z" fill="#0033A1"/>
<path d="M432.051 295.66C432.051 316.798 432.051 340.934 432.051 362.787L460.394 353.479V286.352L432.051 295.66Z" fill="#0033A1"/>
<path d="M389.582 402.259C389.582 423.396 389.582 447.517 389.582 469.386L417.925 460.078V392.95L389.582 402.259Z" fill="#00205C"/>
<path d="M474.535 374.334C474.535 395.516 474.535 419.623 474.535 441.461L502.878 432.153V364.966L474.535 374.334Z" fill="#3A8DDE"/>
<path d="M432.051 388.311C432.051 409.449 432.051 433.57 432.051 455.439L460.394 446.13V379.003L432.051 388.311Z" fill="#6ABF4B"/>
<path d="M474.535 466.984C474.535 488.167 474.535 512.273 474.535 534.112L502.878 524.803V457.676L474.535 466.984Z" fill="#0033A1"/>
<path d="M369.503 -60.9514C369.503 -39.8137 369.503 -15.7074 369.503 6.17614L341.234 -3.13222V-70.2598L369.503 -60.9514Z" fill="#0033A1"/>
<path d="M369.503 31.6999C369.503 52.8227 369.503 76.9439 369.503 98.8275L341.234 89.5191V22.3916L369.503 31.6999Z" fill="#0033A1"/>
<path d="M284.55 3.7446C284.55 24.9271 284.55 49.0333 284.55 70.8722L256.207 61.5787V-5.54883L284.55 3.7446Z" fill="#0033A1"/>
<path d="M327.032 17.7229C327.032 38.8606 327.032 62.9817 327.032 84.8504L298.689 75.542V8.44434L327.032 17.7229Z" fill="#0033A1"/>
<path d="M242.079 -10.2327C242.079 10.9498 242.079 35.071 242.079 56.8949L213.736 47.5865V-19.541L242.079 -10.2327Z" fill="#0033A1"/>
<path d="M199.563 42.9171L171.221 33.6236V-33.5039L199.563 -24.1955C199.563 -2.99816 199.563 21.1081 199.563 42.932" fill="#0033A1"/>
<path d="M369.503 124.336C369.503 145.473 369.503 169.595 369.503 191.463L341.234 182.155V115.027L369.503 124.336Z" fill="#0033A1"/>
<path d="M284.55 96.4555C284.55 117.638 284.55 141.744 284.55 163.583L256.207 154.29V87.1621L284.55 96.4555Z" fill="#00205C"/>
<path d="M327.032 110.373C327.032 131.511 327.032 155.632 327.032 177.5L298.689 168.192V101.064L327.032 110.373Z" fill="#0033A1"/>
<path d="M242.079 82.4187C242.079 103.601 242.079 127.722 242.079 149.546L213.736 140.238V73.1104L242.079 82.4187Z" fill="#3A8DDE"/>
<path d="M199.563 135.568L171.221 126.26V59.1621L199.563 68.4705C199.563 89.6679 199.563 113.789 199.563 135.598" fill="#0033A1"/>
<path d="M369.503 216.986C369.503 238.124 369.503 262.245 369.503 284.114L341.234 274.805V207.678L369.503 216.986Z" fill="#0033A1"/>
<path d="M284.55 189.047C284.55 210.214 284.55 234.335 284.55 256.174L256.207 246.866V179.738L284.55 189.047Z" fill="#3A8DDE"/>
<path d="M327.032 203.01C327.032 224.162 327.032 248.283 327.032 270.137L298.689 260.829V193.701L327.032 203.01Z" fill="#6ABF4B"/>
<path d="M242.079 175.069C242.079 196.237 242.079 220.358 242.079 242.197L213.736 232.888V165.761L242.079 175.069Z" fill="#6ABF4B"/>
<path d="M199.563 228.204L171.221 218.911V151.783L199.563 161.092C199.563 182.289 199.563 206.41 199.563 228.219" fill="#0033A1"/>
<path d="M369.503 309.637C369.503 330.775 369.503 354.881 369.503 376.765L341.234 367.457V300.329L369.503 309.637Z" fill="#0033A1"/>
<path d="M284.55 281.682C284.55 302.865 284.55 326.971 284.55 348.81L256.207 339.502V272.374L284.55 281.682Z" fill="#0033A1"/>
<path d="M327.032 295.66C327.032 316.798 327.032 340.934 327.032 362.787L298.689 353.479V286.352L327.032 295.66Z" fill="#0033A1"/>
<path d="M242.079 267.72C242.079 288.888 242.079 313.009 242.079 334.848L213.736 325.54V258.412L242.079 267.72Z" fill="#00205C"/>
<path d="M199.563 320.856L171.221 311.562V244.435L199.563 253.743C199.563 274.94 199.563 299.047 199.563 320.87" fill="#3A8DDE"/>
<path d="M369.503 402.259C369.503 423.396 369.503 447.517 369.503 469.386L341.234 460.078V392.95L369.503 402.259Z" fill="#3A8DDE"/>
<path d="M284.55 374.334C284.55 395.516 284.55 419.623 284.55 441.461L256.207 432.153V364.966L284.55 374.334Z" fill="#0033A1"/>
<path d="M327.032 388.311C327.032 409.449 327.032 433.57 327.032 455.439L298.689 446.13V379.003L327.032 388.311Z" fill="#6ABF4B"/>
<path d="M242.079 360.356C242.079 381.539 242.079 405.66 242.079 427.484L213.736 418.175V351.048L242.079 360.356Z" fill="#0033A1"/>
<path d="M199.563 413.506L171.221 404.198V337.07L199.563 346.364C199.563 367.561 199.563 391.682 199.563 413.491" fill="#0033A1"/>
<path d="M284.55 466.984C284.55 488.167 284.55 512.273 284.55 534.112L256.207 524.803V457.676L284.55 466.984Z" fill="#0033A1"/>
<path d="M242.079 452.977C242.079 474.145 242.079 498.281 242.079 520.105L213.736 510.796V443.669L242.079 452.977Z" fill="#6ABF4B"/>
<path d="M199.563 506.143L171.221 496.849V429.722L199.563 439.03C199.563 460.227 199.563 484.349 199.563 506.158" fill="#3A8DDE"/>
</g>
</g>
</svg>
