<svg width="514" height="459" viewBox="0 0 514 459" fill="none" xmlns="http://www.w3.org/2000/svg">
<path d="M70.3622 0.867752L37.2161 1.55301C18.0839 1.94855 4.20762 19.914 8.65915 38.5253L105.51 443.448C107.663 452.448 115.708 458.796 124.962 458.796H469.487C486.667 458.796 495.852 438.563 484.542 425.63L139.972 31.6029C122.454 11.5704 96.9682 0.317701 70.3622 0.867752Z" fill="#FF0000"/>
<mask id="mask0_23_4785" style="mask-type:alpha" maskUnits="userSpaceOnUse" x="7" y="0" width="483" height="459">
<path d="M70.3622 0.867752L37.2161 1.55301C18.0839 1.94855 4.20762 19.914 8.65915 38.5253L105.51 443.448C107.663 452.448 115.708 458.796 124.962 458.796H469.487C486.667 458.796 495.852 438.563 484.542 425.63L139.972 31.6029C122.454 11.5704 96.9682 0.317701 70.3622 0.867752Z" fill="white"/>
</mask>
<g mask="url(#mask0_23_4785)">
<mask id="mask1_23_4785" style="mask-type:luminance" maskUnits="userSpaceOnUse" x="-28" y="0" width="668" height="481">
<path d="M-27.5488 0.0334162L116.912 480.839L639.162 464.252L561.703 444.808C512.376 432.406 468.055 405.137 434.749 366.697L132.814 18.375C127.839 12.618 121.684 7.99774 114.767 4.82742C107.85 1.65711 100.333 0.0107707 92.7237 0L-27.5488 0.0334162Z" fill="white"/>
</mask>
<g mask="url(#mask1_23_4785)">
<path d="M392.101 102.282L423.488 138.447L392.101 102.282L360.713 66.0996L392.101 102.282Z" fill="#0033A1"/>
<path d="M59.049 10.7914C78.0493 -5.69769 100.111 -18.2828 123.975 -26.2455C147.84 -34.2082 173.038 -37.3923 198.133 -35.6162C223.228 -33.8402 247.727 -27.1386 270.232 -15.8942C292.737 -4.64978 312.806 10.9173 329.295 29.9181L297.907 -6.24719C281.419 -25.2516 261.35 -40.8222 238.844 -52.0695C216.338 -63.3169 191.838 -70.0209 166.741 -71.7986C141.644 -73.5762 116.443 -70.3928 92.5766 -62.43C68.7103 -54.4673 46.6463 -41.8812 27.6445 -25.3906L59.049 10.7914Z" fill="#0033A1"/>
<path d="M360.715 66.1L329.294 29.9181C312.805 10.9148 292.734 -4.65432 270.228 -15.9002C247.722 -27.1461 223.221 -33.8485 198.124 -35.6246C173.027 -37.4007 147.827 -34.2158 123.961 -26.2516C100.095 -18.2875 78.0319 -5.70024 59.0312 10.7914L90.419 46.9567C128.802 13.6545 178.842 -3.03729 229.531 0.552727C280.221 4.14274 327.408 27.7206 360.715 66.1Z" fill="#0083D4"/>
<path d="M392.105 102.265L360.718 66.0997C327.411 27.7203 280.224 4.14243 229.534 0.552411C178.845 -3.03761 128.805 13.6542 90.4219 46.9563L121.843 83.0882C140.848 66.6016 162.914 54.0197 186.781 46.061C210.648 38.1022 235.85 34.9224 260.946 36.7031C286.042 38.4839 310.542 45.1903 333.046 56.4394C355.551 67.6885 375.619 83.2601 392.105 102.265Z" fill="#00205C"/>
<path d="M423.49 138.447L392.102 102.281C375.617 83.2753 355.549 67.7023 333.046 56.4517C310.542 45.2011 286.042 38.4931 260.946 36.7108C235.85 34.9285 210.648 38.1068 186.78 46.0642C162.913 54.0216 140.846 66.6023 121.84 83.0879L144.925 109.815L153.278 119.387C191.64 86.0879 241.658 69.3895 292.331 72.9638C343.003 76.538 390.182 100.092 423.49 138.447Z" fill="#8DC6E8"/>
<path d="M454.877 174.628L517.669 246.976L540.755 273.519L517.669 246.909L486.315 210.794L454.91 174.628L423.522 138.446C407.033 119.438 386.961 103.865 364.452 92.616C341.942 81.3672 317.438 74.6632 292.337 72.887C267.236 71.1108 242.031 74.2973 218.163 82.2643C194.294 90.2314 172.228 102.823 153.227 119.32L161.579 128.875L184.664 155.485C223.039 122.2 273.063 105.519 323.734 109.109C374.406 112.699 421.578 136.266 454.877 174.628Z" fill="#00205C"/>
<path d="M486.315 210.794L517.703 246.976L454.878 174.629C421.577 136.252 374.395 112.675 323.711 109.085C273.027 105.495 222.993 122.186 184.615 155.486L216.003 191.668C235.007 175.173 257.074 162.582 280.944 154.616C304.814 146.65 330.02 143.464 355.121 145.241C380.222 147.017 404.728 153.72 427.239 164.968C449.749 176.216 469.824 191.788 486.315 210.794Z" fill="#00B2E3"/>
<path d="M517.671 246.976L486.316 210.794C469.825 191.788 449.75 176.216 427.24 164.968C404.729 153.72 380.223 147.017 355.122 145.241C330.02 143.464 304.815 146.65 280.945 154.616C257.075 162.582 235.008 175.173 216.004 191.668L247.442 227.833C285.821 194.552 335.846 177.873 386.519 181.462C437.192 185.052 484.366 208.617 517.671 246.976Z" fill="#00205C"/>
<path d="M549.06 283.157L540.708 273.586L517.622 246.975C484.319 208.631 437.156 185.076 386.495 181.486C335.834 177.897 285.82 194.566 247.443 227.832L278.848 264.014C317.221 230.725 367.245 214.041 417.918 217.631C468.591 221.221 515.763 244.791 549.06 283.157Z" fill="#0083D4"/>
<path d="M580.447 319.323L549.059 283.158C532.572 264.154 512.502 248.583 489.996 237.336C467.491 226.088 442.99 219.384 417.893 217.607C392.796 215.829 367.595 219.012 343.729 226.975C319.863 234.938 297.799 247.524 278.797 264.015L310.185 300.247C329.182 283.752 351.243 271.161 375.107 263.193C398.971 255.225 424.17 252.035 449.267 253.807C474.364 255.578 498.866 262.276 521.374 273.517C543.882 284.759 563.955 300.324 580.447 319.323Z" fill="#0033A1"/>
<path d="M341.571 336.362C379.954 303.065 429.99 286.376 480.675 289.966C531.36 293.556 578.544 317.131 611.85 355.505L643.238 391.671L611.85 355.489L580.446 319.307C563.953 300.308 543.878 284.745 521.37 273.505C498.861 262.265 474.359 255.569 449.263 253.799C424.166 252.029 398.966 255.22 375.103 263.189C351.24 271.159 329.18 283.751 310.184 300.247L341.571 336.362Z" fill="#0083D4"/>
<path d="M643.239 391.671L611.851 355.505C578.545 317.131 531.361 293.556 480.676 289.967C429.991 286.377 379.955 303.065 341.572 336.362L372.96 372.544C411.338 339.241 461.374 322.547 512.061 326.134C562.747 329.72 609.933 353.295 643.239 391.671Z" fill="#00205C"/>
<path d="M674.624 427.853L643.236 391.687C609.93 353.311 562.744 329.737 512.058 326.15C461.371 322.563 411.335 339.258 372.957 372.561L404.361 408.743C423.361 392.25 445.423 379.662 469.289 371.696C493.154 363.731 518.354 360.544 543.451 362.319C568.548 364.093 593.049 370.794 615.556 382.038C638.063 393.283 658.134 408.851 674.624 427.853Z" fill="#8DC6E8"/>
<path d="M706.013 464.035L674.626 427.853C658.137 408.849 638.066 393.28 615.56 382.034C593.054 370.788 568.553 364.086 543.456 362.31C518.359 360.534 493.159 363.719 469.293 371.683C445.427 379.647 423.364 392.234 404.363 408.726L435.751 444.891C474.129 411.591 524.163 394.9 574.847 398.49C625.531 402.08 672.713 425.657 706.013 464.035Z" fill="#00205C"/>
<path d="M737.401 500.2L768.789 536.382L705.997 464.034C672.696 425.657 625.514 402.08 574.83 398.49C524.146 394.9 474.112 411.591 435.734 444.891L467.122 481.073C486.123 464.579 508.188 451.989 532.055 444.024C555.922 436.058 581.125 432.873 606.224 434.649C631.322 436.425 655.825 443.128 678.333 454.375C700.841 465.623 720.912 481.194 737.401 500.2Z" fill="#00B2E3"/>
<path d="M768.789 536.382L737.401 500.2C720.912 481.197 700.842 465.628 678.336 454.382C655.829 443.136 631.328 436.434 606.231 434.658C581.135 432.882 555.934 436.066 532.068 444.031C508.203 451.995 486.139 464.582 467.139 481.074L498.526 517.239C536.904 483.939 586.938 467.248 637.622 470.838C688.306 474.428 735.488 498.005 768.789 536.382Z" fill="#00205C"/>
<path d="M27.6602 -25.3906L90.4357 46.9566L59.048 10.7914L27.6602 -25.3906Z" fill="#00205C"/>
<path d="M144.926 109.749L153.228 119.321L144.926 109.749Z" fill="#00205C"/>
<path d="M-211.214 -8.35211C-172.836 -41.6523 -122.802 -58.3433 -72.1177 -54.7532C-21.4338 -51.1631 25.7481 -27.5861 59.0487 10.7913L90.4198 46.9565L27.6443 -25.3907C-5.66159 -63.7667 -52.8476 -87.341 -103.534 -90.9279C-154.221 -94.5148 -204.256 -77.8205 -242.635 -44.5174L-211.214 -8.35211Z" fill="#00205C"/>
<path d="M90.4215 46.9565L59.0337 10.7912C25.7332 -27.5861 -21.4488 -51.1631 -72.1327 -54.7532C-122.817 -58.3433 -172.851 -41.6523 -211.229 -8.35214L-179.841 27.8298C-160.84 11.3382 -138.777 -1.24909 -114.911 -9.21321C-91.0454 -17.1773 -65.8447 -20.3623 -40.7479 -18.5861C-15.6512 -16.81 8.84986 -10.1077 31.3561 1.13823C53.8623 12.3841 73.9329 27.9533 90.4215 46.9565Z" fill="#00B2E3"/>
<path d="M121.84 83.088L153.228 119.27L144.875 109.698L121.84 83.088L90.4186 46.9561C73.9299 27.9529 53.8594 12.3838 31.3531 1.13788C8.8469 -10.108 -15.6542 -16.8104 -40.7509 -18.5865C-65.8476 -20.3626 -91.0484 -17.1777 -114.914 -9.21356C-138.78 -1.24945 -160.843 11.3378 -179.844 27.8295L-148.456 63.9948C-110.079 30.6866 -60.0433 13.9862 -9.35413 17.5668C41.3351 21.1474 88.5263 44.7158 121.84 83.088Z" fill="#00205C"/>
<path d="M184.613 155.485L161.527 128.875L184.613 155.485Z" fill="#0083D4"/>
<path d="M153.228 119.32L121.841 83.0877C88.5272 44.7155 41.3359 21.1471 -9.35325 17.5665C-60.0425 13.9859 -110.078 30.6863 -148.455 63.9945L-117.067 100.176C-98.0628 83.6848 -75.996 71.0981 -52.127 63.1348C-28.2579 55.1716 -3.05405 51.988 22.0454 53.7656C47.1449 55.5432 71.6485 62.2474 94.157 73.4952C116.665 84.7431 136.738 100.314 153.228 119.32Z" fill="#0083D4"/>
<path d="M184.615 155.486L161.53 128.876L153.177 119.321C119.874 80.9426 72.6892 57.3651 22.0025 53.7751C-28.6842 50.185 -78.7211 66.8764 -117.102 100.178L-85.697 136.36C-66.6951 119.86 -44.6285 107.267 -20.758 99.2981C3.11254 91.3296 28.3192 88.1424 53.4219 89.9186C78.5246 91.6948 103.031 98.3996 125.542 109.65C148.053 120.9 168.126 136.476 184.615 155.486Z" fill="#0033A1"/>
<path d="M216.004 191.667L184.616 155.485C168.127 136.482 148.057 120.913 125.55 109.667C103.044 98.4213 78.5431 91.7189 53.4464 89.9428C28.3496 88.1667 3.14881 91.3516 -20.7169 99.3157C-44.5827 107.28 -66.6458 119.867 -85.6465 136.359L-62.5608 162.952L-54.2086 172.524C-15.8336 139.239 34.1894 122.558 84.8611 126.148C135.533 129.738 182.704 153.305 216.004 191.667Z" fill="#0083D4"/>
<path d="M247.44 227.832L216.003 191.667C182.702 153.29 135.52 129.713 84.8361 126.123C34.1522 122.533 -15.8821 139.224 -54.2598 172.524L-22.872 208.706C-3.8701 192.207 18.1965 179.613 42.067 171.644C65.9376 163.676 91.1443 160.489 116.247 162.265C141.35 164.041 165.856 170.746 188.367 181.996C210.878 193.246 230.951 208.822 247.44 227.832Z" fill="#00205C"/>
<path d="M310.184 300.196L372.959 372.544L341.571 336.362L310.184 300.196Z" fill="#00B2E3"/>
<path d="M8.56681 244.888C46.9451 211.585 96.9807 194.89 147.667 198.477C198.354 202.064 245.54 225.638 278.846 264.014L310.183 300.247L278.796 264.065L247.441 227.833C230.952 208.822 210.879 193.247 188.368 181.996C165.857 170.746 141.351 164.041 116.248 162.265C91.1452 160.489 65.9385 163.676 42.068 171.644C18.1974 179.613 -3.86918 192.207 -22.8711 208.706L8.56681 244.888Z" fill="#00B2E3"/>
<path d="M310.183 300.247L278.795 264.082C245.5 225.711 198.329 202.134 147.655 198.535C96.9802 194.935 46.9505 211.609 8.56641 244.888L39.9709 281.053C78.3541 247.779 128.38 231.109 179.051 234.708C229.721 238.307 276.888 261.881 310.183 300.247Z" fill="#0033A1"/>
<path d="M341.572 336.363L372.96 372.545L310.184 300.248C276.879 261.876 229.696 238.305 179.014 234.719C128.331 231.132 78.2993 247.823 39.9219 281.121L71.3097 317.303C90.3062 300.807 112.366 288.215 136.229 280.245C160.092 272.276 185.292 269.085 210.389 270.855C235.485 272.625 259.987 279.321 282.496 290.561C305.005 301.801 325.079 317.364 341.572 336.363Z" fill="#00B2E3"/>
<path d="M372.959 372.544L341.571 336.362C325.082 317.359 305.012 301.79 282.505 290.544C259.999 279.298 235.498 272.596 210.401 270.82C185.305 269.044 160.104 272.229 136.238 280.193C112.372 288.157 90.3093 300.744 71.3086 317.236L102.696 353.401C141.074 320.101 191.108 303.41 241.792 307C292.476 310.59 339.658 334.167 372.959 372.544Z" fill="#00205C"/>
<path d="M134.084 389.583C153.087 373.092 175.152 360.505 199.02 352.542C222.888 344.579 248.09 341.396 273.188 343.173C298.286 344.951 322.789 351.655 345.296 362.903C367.803 374.15 387.874 389.721 404.363 408.726L435.75 444.891L444.103 454.463L467.188 481.073L435.801 444.891L404.413 408.726L373.008 372.544C339.708 334.167 292.526 310.59 241.842 307C191.158 303.41 141.124 320.101 102.746 353.401L134.084 389.583Z" fill="#0083D4"/>
<path d="M467.14 481.073L444.055 454.463L467.14 481.073Z" fill="#0033A1"/>
<path d="M435.751 444.891L404.363 408.726C387.874 389.721 367.803 374.15 345.296 362.902C322.789 351.655 298.287 344.951 273.189 343.173C248.09 341.395 222.888 344.579 199.02 352.542C175.153 360.505 153.087 373.091 134.084 389.583L165.472 425.765C203.85 392.461 253.886 375.767 304.572 379.354C355.259 382.941 402.445 406.515 435.751 444.891Z" fill="#0033A1"/>
<path d="M467.139 481.073L444.053 454.463L435.701 444.892C402.395 406.515 355.209 382.941 304.522 379.354C253.836 375.767 203.8 392.462 165.422 425.765L196.826 461.93C215.83 445.434 237.898 432.843 261.769 424.877C285.64 416.911 310.846 413.726 335.948 415.504C361.05 417.282 385.556 423.987 408.066 435.238C430.576 446.489 450.649 462.064 467.139 481.073Z" fill="#0083D4"/>
<path d="M498.525 517.239L467.137 481.073C433.837 442.696 386.655 419.119 335.971 415.529C285.287 411.939 235.253 428.63 196.875 461.93L228.263 498.112C247.264 481.62 269.327 469.033 293.192 461.069C317.058 453.105 342.259 449.92 367.356 451.696C392.452 453.472 416.953 460.175 439.46 471.42C461.966 482.666 482.036 498.235 498.525 517.239Z" fill="#00205C"/>
<path d="M529.913 553.42L506.828 526.81L498.475 517.238C481.987 498.235 461.916 482.666 439.41 471.42C416.904 460.174 392.403 453.472 367.306 451.696C342.209 449.92 317.008 453.105 293.143 461.069C269.277 469.033 247.214 481.62 228.213 498.112L259.601 534.277C278.605 517.781 300.672 505.19 324.543 497.224C348.414 489.258 373.621 486.073 398.723 487.851C423.825 489.629 448.331 496.334 470.841 507.585C493.351 518.835 513.424 534.41 529.913 553.42Z" fill="#00B2E3"/>
<path d="M8.56664 244.888C-24.7338 206.503 -71.9184 182.92 -122.607 179.325C-173.296 175.73 -223.336 192.419 -261.721 225.719C-300.105 259.02 -323.688 306.204 -327.283 356.893C-330.878 407.582 -314.19 457.622 -280.889 496.007L-249.501 532.189C-282.804 493.811 -299.497 443.776 -295.909 393.09C-292.32 342.405 -268.744 295.221 -230.366 261.918C-191.989 228.615 -141.954 211.922 -91.268 215.511C-40.5825 219.099 6.60167 242.675 39.9043 281.053L8.56664 244.888Z" fill="#0033A1"/>
<path d="M134.085 389.582L102.697 353.4L165.473 425.748V425.764L134.085 389.582Z" fill="#0083D4"/>
<path d="M-218.096 568.37C-234.586 549.368 -247.171 527.303 -255.134 503.437C-263.097 479.57 -266.28 454.369 -264.504 429.272C-262.727 404.175 -256.024 379.674 -244.778 357.167C-233.532 334.661 -217.964 314.59 -198.961 298.1C-179.959 281.61 -157.894 269.025 -134.028 261.062C-110.161 253.099 -84.9598 249.916 -59.8628 251.692C-34.7659 253.469 -10.2647 260.172 12.2419 271.418C34.7485 282.664 54.8197 298.232 71.3095 317.235L39.9217 281.053C6.61903 242.673 -40.5659 219.095 -91.2531 215.505C-141.94 211.914 -191.978 228.607 -230.357 261.909C-268.737 295.212 -292.316 342.397 -295.906 393.084C-299.496 443.771 -282.803 493.809 -249.501 532.189L-186.725 604.536L-218.096 568.37Z" fill="#0083D4"/>
<path d="M71.3109 317.235C54.8211 298.232 34.7499 282.663 12.2434 271.418C-10.2632 260.172 -34.7644 253.469 -59.8614 251.692C-84.9583 249.915 -110.159 253.099 -134.026 261.062C-157.893 269.024 -179.957 281.61 -198.96 298.1C-217.962 314.589 -233.531 334.661 -244.777 357.167C-256.023 379.674 -262.725 404.175 -264.502 429.272C-266.279 454.369 -263.095 479.57 -255.133 503.437C-247.17 527.303 -234.585 549.368 -218.095 568.37L-186.707 604.535C-220.01 566.158 -236.703 516.123 -233.114 465.437C-229.526 414.752 -205.949 367.568 -167.572 334.265C-129.194 300.962 -79.1592 284.269 -28.4736 287.858C22.212 291.446 69.396 315.022 102.699 353.4L71.3109 317.235Z" fill="#00205C"/>
<path d="M-123.932 676.884L-155.32 640.719C-188.622 602.341 -205.316 552.306 -201.727 501.62C-198.139 450.935 -174.562 403.751 -136.185 370.448C-97.8072 337.145 -47.7721 320.452 2.91349 324.041C53.5991 327.629 100.783 351.205 134.086 389.583L165.474 425.748L102.698 353.401C69.3954 315.023 22.2113 291.447 -28.4742 287.859C-79.1598 284.27 -129.195 300.963 -167.573 334.266C-205.95 367.569 -229.526 414.753 -233.115 465.438C-236.703 516.124 -220.01 566.159 -186.708 604.537L-123.932 676.884Z" fill="#8DC6E8"/>
<path d="M-136.177 370.406C-174.552 403.712 -198.126 450.896 -201.716 501.581C-205.306 552.266 -188.617 602.302 -155.32 640.685L-123.933 676.85C-156.741 638.406 -173.029 588.556 -169.251 538.158C-165.472 487.76 -141.932 440.896 -103.758 407.775C-65.5844 374.653 -15.8694 357.957 34.5582 361.324C84.9858 364.69 132.04 387.846 165.473 425.748L134.085 389.582C117.599 370.577 97.5304 355.006 75.026 343.757C52.5217 332.508 28.0219 325.801 2.92571 324.021C-22.1705 322.24 -47.3717 325.42 -71.239 333.378C-95.1063 341.337 -117.172 353.919 -136.177 370.406Z" fill="#00205C"/>
<path d="M-73.4012 442.803C-35.0229 409.5 15.0127 392.806 65.6994 396.393C116.386 399.98 163.572 423.554 196.878 461.93L259.653 534.277L228.266 498.112L196.878 461.93L165.473 425.765C132.121 387.569 84.9871 364.153 34.4007 360.65C-16.1857 357.146 -66.098 373.84 -104.398 407.072C-142.697 440.305 -166.26 487.366 -169.921 537.941C-173.583 588.516 -157.045 638.48 -123.932 676.883L-100.83 703.494L-92.4777 713.065C-108.972 694.068 -121.563 672.007 -129.532 648.143C-137.5 624.28 -140.689 599.08 -138.918 573.983C-137.146 548.886 -130.449 524.385 -119.207 501.877C-107.966 479.369 -92.4009 459.295 -73.4012 442.803Z" fill="#00B2E3"/>
<path d="M-29.7504 785.413L-61.1382 749.248C-77.628 730.245 -90.2135 708.181 -98.1761 684.314C-106.139 660.448 -109.322 635.247 -107.546 610.15C-105.769 585.053 -99.0661 560.552 -87.8203 538.045C-76.5745 515.538 -61.0058 495.467 -42.0032 478.977C-23.0005 462.488 -0.936054 449.902 22.9305 441.939C46.797 433.977 71.9982 430.793 97.0952 432.57C122.192 434.347 146.693 441.049 169.2 452.295C191.706 463.541 211.778 479.11 228.268 498.112L259.655 534.278L196.88 461.93C163.577 423.553 116.393 399.976 65.7073 396.388C15.0218 392.799 -35.0134 409.493 -73.391 442.795C-111.769 476.098 -135.345 523.282 -138.933 573.968C-142.522 624.653 -125.829 674.688 -92.526 713.066L33.0418 857.777L-29.7504 785.413Z" fill="#00205C"/>
<path d="M-10.61 515.15C8.39064 498.659 30.4538 486.071 54.3196 478.107C78.1853 470.143 103.386 466.958 128.483 468.734C153.58 470.51 178.081 477.213 200.587 488.459C223.093 499.705 243.164 515.274 259.652 534.277L228.265 498.112C211.775 479.109 191.703 463.54 169.197 452.295C146.69 441.049 122.189 434.346 97.0922 432.569C71.9953 430.792 46.794 433.976 22.9275 441.939C-0.939031 449.901 -23.0035 462.487 -42.0062 478.977C-61.0088 495.466 -76.5775 515.538 -87.8233 538.044C-99.069 560.551 -105.772 585.052 -107.549 610.149C-111.137 660.834 -94.4439 710.87 -61.1412 749.247L-29.7534 785.412C-63.0536 747.035 -79.7446 697.001 -76.1545 646.317C-72.5644 595.633 -48.9874 548.451 -10.61 515.15Z" fill="#0083D4"/>
</g>
</g>
</svg>
