<svg width="514" height="459" viewBox="0 0 514 459" fill="none" xmlns="http://www.w3.org/2000/svg">
<path d="M70.3622 0.867752L37.2161 1.55301C18.0839 1.94855 4.20762 19.914 8.65915 38.5253L105.51 443.448C107.663 452.448 115.708 458.796 124.962 458.796H469.487C486.667 458.796 495.852 438.563 484.542 425.63L139.972 31.6029C122.454 11.5704 96.9682 0.317701 70.3622 0.867752Z" fill="#FF0000"/>
<mask id="mask0_23_5566" style="mask-type:alpha" maskUnits="userSpaceOnUse" x="7" y="0" width="483" height="459">
<path d="M70.3622 0.867752L37.2161 1.55301C18.0839 1.94855 4.20762 19.914 8.65915 38.5253L105.51 443.448C107.663 452.448 115.708 458.796 124.962 458.796H469.487C486.667 458.796 495.852 438.563 484.542 425.63L139.972 31.6029C122.454 11.5704 96.9682 0.317701 70.3622 0.867752Z" fill="white"/>
</mask>
<g mask="url(#mask0_23_5566)">
<path d="M92.0402 477.571L-23.9062 -4.38281C-23.9062 -4.38281 110.714 -2.31528 133.904 -2.31528C157.062 -2.31528 176.904 25.1578 176.904 25.1578L454.223 348.789C454.223 348.789 488.224 387.164 523.361 413.29C558.467 439.353 604.947 444.117 658.236 451.134C711.556 458.089 -39.2634 487.314 92.0402 477.571Z" fill="white"/>
<mask id="mask1_23_5566" style="mask-type:luminance" maskUnits="userSpaceOnUse" x="-24" y="-5" width="685" height="485">
<path d="M92.0402 477.571L-23.9062 -4.38281C-23.9062 -4.38281 110.714 -2.31528 133.904 -2.31528C157.062 -2.31528 176.904 25.1578 176.904 25.1578L454.223 348.789C454.223 348.789 488.224 387.164 523.361 413.29C558.467 439.353 604.947 444.117 658.236 451.134C711.556 458.089 -39.2634 487.314 92.0402 477.571Z" fill="white"/>
</mask>
<g mask="url(#mask1_23_5566)">
<path d="M746.634 -174.797H-275.365V690.48H746.634V-174.797Z" fill="#1A2857"/>
<mask id="mask2_23_5566" style="mask-type:luminance" maskUnits="userSpaceOnUse" x="-274" y="-175" width="1027" height="875">
<path d="M752.73 -174.797H-273.068V699.114H752.73V-174.797Z" fill="white"/>
</mask>
<g mask="url(#mask2_23_5566)">
<path d="M83.4797 -319.694H-543.863V260.712H83.4797V-319.694Z" fill="#004A91"/>
<path d="M-75.4434 -29.2422H30.7019V23.862H-75.4434V-29.2422Z" fill="#0073BB"/>
<path d="M-110.812 162.777H34.6432V188.06H-110.812V162.777Z" fill="#4F8FC9"/>
<path d="M35.5391 162.971H83.3993V188.061H35.5391V162.971Z" fill="#0073BB"/>
<path d="M34.2129 162.509H36.2042V187.984H34.2129V162.509Z" fill="#B5D2EE"/>
<path d="M29.4531 -29.2021H31.4444V23.8238H29.4531V-29.2021Z" fill="#B5D2EE"/>
<path d="M-159.492 187.137H83.5203V189.099H-159.492V187.137Z" fill="#B5D2EE"/>
<path d="M-110.695 161.623H83.5187V163.587H-110.695V161.623Z" fill="#B5D2EE"/>
<path d="M-543.863 22.9395H83.4006V24.9016H-543.863V22.9395Z" fill="#B5D2EE"/>
<path d="M711.251 -319.694H83.9082V260.712H711.251V-319.694Z" fill="#004A91"/>
<path d="M83.9082 -28.4717H205.901V23.8627H83.9082V-28.4717Z" fill="#4F8FC9"/>
<path d="M233.465 -29.0488H286.596V23.8629H233.465V-29.0488Z" fill="#0073BB"/>
<path d="M156.52 105.058H205.864V187.828H156.52V105.058Z" fill="#0073BB"/>
<path d="M156.52 187.829H205.864V260.943H156.52V187.829Z" fill="#4F8FC9"/>
<path d="M286.83 -28.6641H298.19V23.8628H286.83V-28.6641Z" fill="#4F8FC9"/>
<path d="M206.297 162.316H351.089V212.726H206.297V162.316Z" fill="#4F8FC9"/>
<path d="M350.854 162.701H397.036V212.958H350.854V162.701Z" fill="#0073BB"/>
<path d="M83.9082 23.5166H156.479V162.701H83.9082V23.5166Z" fill="#0073BB"/>
<path d="M83.9082 162.894H156.284V260.865H83.9082V162.894Z" fill="#4F8FC9"/>
<path d="M205.865 -28.8564H233.231V23.8628H205.865V-28.8564Z" fill="#4F8FC9"/>
<path d="M396.295 -29.2422H515.985V23.862H396.295V-29.2422Z" fill="#0073BB"/>
<path d="M468.201 105.673H516.804V187.791H468.201V105.673Z" fill="#0073BB"/>
<path d="M397.072 24.8252H468.279V162.701H397.072V24.8252Z" fill="#0073BB"/>
<path d="M396.295 163.047H468.164V260.751H396.295V163.047Z" fill="#4F8FC9"/>
<path d="M205.162 -29.2021H207.153V260.636H205.162V-29.2021Z" fill="#B5D2EE"/>
<path d="M155.506 23.7861H157.497V261.251H155.506V23.7861Z" fill="#B5D2EE"/>
<path d="M467.148 23.7861H469.14V260.673H467.148V23.7861Z" fill="#B5D2EE"/>
<path d="M232.139 -29.2021H234.13V23.8238H232.139V-29.2021Z" fill="#B5D2EE"/>
<path d="M285.658 -29.2021H287.649V23.8238H285.658V-29.2021Z" fill="#B5D2EE"/>
<path d="M349.955 163.01H351.946V212.035H349.955V163.01Z" fill="#B5D2EE"/>
<path d="M297.098 -29.2021H299.089V23.8238H297.098V-29.2021Z" fill="#B5D2EE"/>
<path d="M156.832 104.172H206.176V106.134H156.832V104.172Z" fill="#B5D2EE"/>
<path d="M156.832 187.137H206.215V189.099H156.832V187.137Z" fill="#B5D2EE"/>
<path d="M468.904 104.172H517.076V106.134H468.904V104.172Z" fill="#B5D2EE"/>
<path d="M468.32 187.137H711.333V189.099H468.32V187.137Z" fill="#B5D2EE"/>
<path d="M205.629 161.623H468.356V163.587H205.629V161.623Z" fill="#B5D2EE"/>
<path d="M205.629 212.035H397.267V213.997H205.629V212.035Z" fill="#B5D2EE"/>
<path d="M83.9082 161.623H156.675V163.587H83.9082V161.623Z" fill="#B5D2EE"/>
<path d="M83.9082 22.9395H711.172V24.9016H83.9082V22.9395Z" fill="#B5D2EE"/>
<path d="M396.176 -319.694H398.167V260.712H396.176V-319.694Z" fill="#B5D2EE"/>
<path d="M-543.863 262.021H83.4798V842.427H-543.863V262.021Z" fill="#004A91"/>
<path d="M-40.0391 336.674H8.44776V416.791H-40.0391V336.674Z" fill="#0073BB"/>
<path d="M8.64453 360.454H83.5203V499.216H8.64453V360.454Z" fill="#0073BB"/>
<path d="M8.64453 262.021H83.5978V360.071H8.64453V262.021Z" fill="#4F8FC9"/>
<path d="M-230.775 334.903H8.41117V336.865H-230.775V334.903Z" fill="#B5D2EE"/>
<path d="M8.80078 359.146H83.5587V361.109H8.80078V359.146Z" fill="#B5D2EE"/>
<path d="M-39.7617 415.944H8.41028V417.906H-39.7617V415.944Z" fill="#B5D2EE"/>
<path d="M7.51172 262.021H9.50298V499.063H7.51172V262.021Z" fill="#B5D2EE"/>
<path d="M83.9082 262.021H851.554V842.427H83.9082V262.021Z" fill="#004A91"/>
<path d="M276.213 418.215H324.58V499.717H276.213V418.215Z" fill="#4F8FC9"/>
<path d="M159.213 360.493H275.352V499.679H159.213V360.493Z" fill="#0073BB"/>
<path d="M186.035 262.021H275.745V334.327H186.035V262.021Z" fill="#0073BB"/>
<path d="M276.213 334.98H323.839V418.484H276.213V334.98Z" fill="#4F8FC9"/>
<path d="M83.9082 334.596H129.543V360.416H83.9082V334.596Z" fill="#0073BB"/>
<path d="M397.308 360.839H323.955V499.601H397.308V360.839Z" fill="#0073BB"/>
<path d="M325.244 262.021H397.035V360.262H325.244V262.021Z" fill="#4F8FC9"/>
<path d="M469.529 262.021H587.971V335.173H469.529V262.021Z" fill="#0073BB"/>
<path d="M397.033 360.839H587.735V498.754H397.033V360.839Z" fill="#4F8FC9"/>
<path d="M442.359 336.674H587.738V360.801H442.359V336.674Z" fill="#4F8FC9"/>
<path d="M397.66 336.674H440.953V359.955H397.66V336.674Z" fill="#0073BB"/>
<path d="M274.883 262.021H276.874V552.782H274.883V262.021Z" fill="#B5D2EE"/>
<path d="M185.096 262.021H187.087V334.172H185.096V262.021Z" fill="#B5D2EE"/>
<path d="M128.766 334.248H130.757V361.109H128.766V334.248Z" fill="#B5D2EE"/>
<path d="M440.521 335.672H442.513V360.453H440.521V335.672Z" fill="#B5D2EE"/>
<path d="M158.316 360.416H160.308V499.6H158.316V360.416Z" fill="#B5D2EE"/>
<path d="M83.9082 333.633H324.07V335.595H83.9082V333.633Z" fill="#B5D2EE"/>
<path d="M397.033 334.903H636.22V336.865H397.033V334.903Z" fill="#B5D2EE"/>
<path d="M323.838 359.146H587.19V361.109H323.838V359.146Z" fill="#B5D2EE"/>
<path d="M275.938 415.944H324.109V417.906H275.938V415.944Z" fill="#B5D2EE"/>
<path d="M83.9082 359.146H276.21V361.109H83.9082V359.146Z" fill="#B5D2EE"/>
<path d="M323.215 262.021H325.206V498.833H323.215V262.021Z" fill="#B5D2EE"/>
<path d="M396.176 262.021H398.167V842.427H396.176V262.021Z" fill="#B5D2EE"/>
<path d="M468.475 262.021H470.464V335.672H468.475V262.021Z" fill="#B5D2EE"/>
<path d="M83.4395 -319.694H85.3516V842.58H83.4395V-319.694Z" fill="#B5D2EE"/>
<path d="M-543.863 260.48H711.212V262.405H-543.863V260.48Z" fill="#B5D2EE"/>
</g>
</g>
</g>
</svg>
