<svg width="514" height="459" viewBox="0 0 514 459" fill="none" xmlns="http://www.w3.org/2000/svg">
<path d="M70.3622 0.867752L37.2161 1.55301C18.0839 1.94855 4.20762 19.914 8.65915 38.5253L105.51 443.448C107.663 452.448 115.708 458.796 124.962 458.796H469.487C486.667 458.796 495.852 438.563 484.542 425.63L139.972 31.6029C122.454 11.5704 96.9682 0.317701 70.3622 0.867752Z" fill="#FF0000"/>
<mask id="mask0_23_4330" style="mask-type:alpha" maskUnits="userSpaceOnUse" x="7" y="0" width="483" height="459">
<path d="M70.3622 0.867752L37.2161 1.55301C18.0839 1.94855 4.20762 19.914 8.65915 38.5253L105.51 443.448C107.663 452.448 115.708 458.796 124.962 458.796H469.487C486.667 458.796 495.852 438.563 484.542 425.63L139.972 31.6029C122.454 11.5704 96.9682 0.317701 70.3622 0.867752Z" fill="white"/>
</mask>
<g mask="url(#mask0_23_4330)">
<mask id="mask1_23_4330" style="mask-type:luminance" maskUnits="userSpaceOnUse" x="-5" y="0" width="590" height="474">
<path d="M584.058 458.717L106.355 473.163L-4.29102 0H104.477C114.489 0.00166851 124.374 2.23327 133.416 6.53269C142.457 10.8321 150.427 17.0914 156.747 24.8559L443.085 376.549C470.768 410.582 507.975 435.582 549.946 448.352L584.058 458.717Z" fill="white"/>
</mask>
<g mask="url(#mask1_23_4330)">
<path d="M94.2917 -100.118L56.6309 108.177L230.282 90.9511L94.2917 -100.118Z" fill="#0072CE"/>
<path d="M94.2918 -100.118L-52.1523 -25.8315L56.6309 108.177L94.2918 -100.118Z" fill="#0032A0"/>
<path d="M-52.1523 -25.832L-18.957 171.862L56.6309 108.177L-52.1523 -25.832Z" fill="#00205B"/>
<path d="M-18.959 171.862L3.56065 273.813L99.9824 264.232L56.6288 108.177L-18.959 171.862Z" fill="#6CC24A"/>
<path d="M56.6309 108.177L99.9845 264.232L230.282 90.9512L56.6309 108.177Z" fill="#00205B"/>
<path d="M230.282 90.9512L234.466 230.446L99.9844 264.232L230.282 90.9512Z" fill="#0032A0"/>
<path d="M3.56055 273.814L111.767 386.678L99.9824 264.232L3.56055 273.814Z" fill="#0032A0"/>
<path d="M111.769 386.678L234.466 230.445L99.9844 264.232L111.769 386.678Z" fill="#00205B"/>
<path d="M45.1398 462.147L3.56055 273.813L111.767 386.678L45.1398 462.147Z" fill="#00205B"/>
<path d="M234.465 230.445L111.768 386.678L211.132 501.745L234.465 230.445Z" fill="#0032A0"/>
<path d="M60.6091 532.19L45.1426 462.147L111.77 386.678L211.134 501.745L60.6091 532.19Z" fill="#6CC24A"/>
<path d="M230.281 90.9512L322.016 219.829L324.589 337.735L234.466 230.446L230.281 90.9512Z" fill="#6CC24A"/>
<path d="M211.133 501.745L324.589 337.735L234.466 230.445L211.133 501.745Z" fill="#00205B"/>
<path d="M211.133 501.746H376.134L324.589 337.735L211.133 501.746Z" fill="#0072CE"/>
<path d="M322.016 219.829L527.487 395.742L324.589 337.735L322.016 219.829Z" fill="#00205B"/>
<path d="M527.488 395.742L376.135 501.746L324.59 337.735L527.488 395.742Z" fill="#0032A0"/>
<path d="M230.281 90.951L322.016 219.829L424.751 62.0732L230.281 90.951Z" fill="#00205B"/>
<path d="M424.751 62.0732L479.269 219.001L322.016 219.829L424.751 62.0732Z" fill="#0072CE"/>
<path d="M479.269 219.001L527.487 395.742L322.016 219.829L479.269 219.001Z" fill="#0032A0"/>
<path d="M230.281 90.9511L282.033 -100.118L424.751 62.0734L230.281 90.9511Z" fill="#0032A0"/>
<path d="M282.035 -100.118H94.293L230.283 90.9511L282.035 -100.118Z" fill="#00205B"/>
<path d="M527.486 395.742L625.608 509.05L376.133 501.746L527.486 395.742Z" fill="#00205B"/>
</g>
</g>
</svg>
