<svg width="514" height="459" viewBox="0 0 514 459" fill="none" xmlns="http://www.w3.org/2000/svg">
<path d="M70.3622 0.867752L37.2161 1.55301C18.0839 1.94855 4.20762 19.914 8.65915 38.5253L105.51 443.448C107.663 452.448 115.708 458.796 124.962 458.796H469.487C486.667 458.796 495.852 438.563 484.542 425.63L139.972 31.6029C122.454 11.5704 96.9682 0.317701 70.3622 0.867752Z" fill="#FF0000"/>
<mask id="mask0_23_4250" style="mask-type:alpha" maskUnits="userSpaceOnUse" x="7" y="0" width="483" height="459">
<path d="M70.3622 0.867752L37.2161 1.55301C18.0839 1.94855 4.20762 19.914 8.65915 38.5253L105.51 443.448C107.663 452.448 115.708 458.796 124.962 458.796H469.487C486.667 458.796 495.852 438.563 484.542 425.63L139.972 31.6029C122.454 11.5704 96.9682 0.317701 70.3622 0.867752Z" fill="white"/>
</mask>
<g mask="url(#mask0_23_4250)">
<mask id="mask1_23_4250" style="mask-type:luminance" maskUnits="userSpaceOnUse" x="-8" y="-6" width="604" height="486">
<path d="M595.119 464.5L105.901 479.295L-7.41211 -5.27441H103.978C114.231 -5.27271 124.355 -2.98731 133.614 1.41575C142.873 5.8188 151.036 12.229 157.508 20.1806L450.748 380.352C479.099 415.205 517.202 440.807 560.185 453.885L595.119 464.5Z" fill="white"/>
</mask>
<g mask="url(#mask1_23_4250)">
<path d="M-4.09799 533.022C-10.6777 516.838 -19.9613 501.891 -31.5518 488.82C-40.6375 478.795 -49.39 468.483 -58.8088 458.731C-68.2276 448.979 -79.5544 437.455 -92.3652 429.127L279.269 -24.5508H464.586L0.490314 544.576C-0.978536 540.699 -2.47772 536.838 -4.09799 533.022Z" fill="#00B2E3"/>
<path d="M772.727 56.1912L669.529 -47.0068L519.933 136.448L494.978 167.052L471.401 195.959L140.273 602.013L143.423 602.664C184.172 611.492 224.013 633.131 248.241 667.914C252.323 673.818 255.846 680.089 258.766 686.646L613.94 251.003V250.927L772.727 56.1912Z" fill="#00B2E3"/>
<path d="M92.6664 -24.5508H-26.159L-37.4102 -11.4523V133.782L92.6664 -24.5508Z" fill="#00B2E3"/>
<path d="M134.369 377.46L134.142 377.733C109.081 408.488 99.3134 447.389 140.35 487.139L141.259 487.881C172.529 513.382 221.985 501.707 247.062 470.952L299.577 407.352C274.5 438.107 229.708 441.817 198.438 416.301L197.53 415.574C170.363 393.421 162.868 355.003 178.01 325.596L178.48 324.657L134.369 377.46Z" fill="#0083D4"/>
<path d="M235.735 253.668L235.508 253.941C210.432 284.681 215.338 330.2 246.471 355.579L247.365 356.306C278.498 381.7 324.063 377.354 349.139 346.6L349.367 346.327L349.866 345.721L400.367 283.863C375.291 314.618 326.168 310.333 301.803 289.617L300.91 288.89C269.776 263.496 263.901 222.868 288.977 192.113L291.627 189.645L289.598 187.04L235.72 253.668H235.735Z" fill="#0083D4"/>
<path d="M-91.4236 199.214C-116.5 229.954 -112.911 277.245 -82.1562 302.321L-81.2779 303.048C-50.5229 328.124 -0.657724 318.902 24.4187 288.162L24.6459 287.89L25.1304 287.269L76.1919 224.154C51.1155 254.894 -6.45741 238.312 -22.2362 221.58L-23.1145 220.853C-53.8695 195.776 -60.7746 163.416 -35.6981 132.676L-35.471 132.404L-37.4244 131.132L-91.4236 199.214Z" fill="#0083D4"/>
<path d="M338.053 127.574L337.826 127.846C312.75 158.601 317.671 204.105 348.805 229.5L349.698 230.226C380.832 255.606 426.396 251.26 451.473 220.52L451.7 220.247L452.185 219.626L502.64 157.753C477.564 188.508 428.441 184.238 404.076 163.507L403.183 162.781C372.049 137.401 366.158 96.758 391.235 66.003L393.9 63.5498L391.871 60.9453L337.993 127.574H338.053Z" fill="#0083D4"/>
<path d="M439.436 5.17459L439.209 5.44716C414.133 36.2021 419.054 81.7062 450.188 107.085L451.081 107.827C482.199 133.207 527.779 128.861 552.856 98.121L553.068 97.8333L553.567 97.2276L604.099 35.3693C579.022 66.1243 529.899 61.854 505.55 41.1235L504.641 40.3967C473.523 15.0174 467.632 -25.6258 492.708 -56.3808L495.343 -58.7885L493.299 -61.3779L439.421 5.2503L439.436 5.17459Z" fill="#0083D4"/>
<path d="M11.545 70.9246C-13.5163 101.664 -5.7329 150.621 25.0221 175.698L25.9004 176.424C56.6554 201.501 108.111 186.449 133.187 155.694L129.84 159.858L133.914 154.816L179.054 98.2876C174.345 104.042 166.032 105.859 159.657 109.009C132.036 122.925 95.2997 117.004 78.6427 101.301L77.7493 100.589C52.0065 79.6166 46.6914 49.6793 59.5779 20.7717C61.8214 16.2488 63.7295 11.5672 65.2867 6.76465L11.545 70.9246Z" fill="#0083D4"/>
<path d="M117.152 -57.3802L116.925 -57.0924C110.963 -49.7807 106.499 -41.3661 103.789 -32.3291C101.079 -23.2922 100.176 -13.8099 101.131 -4.42377C102.085 4.96236 104.88 14.0685 109.354 22.3746C113.828 30.6808 119.895 38.0242 127.207 43.9856L128.086 44.6973C158.841 69.7738 204.087 65.1704 230.224 35.4754L282.375 -28.5029C256.254 1.19212 210.992 5.78039 180.237 -19.2961L179.359 -20.0078C172.048 -25.9703 165.982 -33.3145 161.509 -41.6212C157.037 -49.9279 154.244 -59.0342 153.29 -68.4203C152.337 -77.8064 153.242 -87.2884 155.953 -96.3248C158.664 -105.361 163.129 -113.775 169.092 -121.086L169.304 -121.358L117.137 -57.3802H117.152Z" fill="#0083D4"/>
<path d="M771.559 288.209L669.209 185.904L515.192 371.6L462.873 434.67L462.661 434.958C437.585 465.697 441.189 512.716 471.929 537.792L472.822 538.519C503.562 563.596 549.823 557.22 574.9 526.481L575.112 526.208L575.611 525.587L627.097 462.518C626.234 463.578 625.34 464.607 624.432 465.546L771.559 288.209Z" fill="#0083D4"/>
<path d="M-37.3947 131.072C-37.3193 130.984 -37.2485 130.893 -37.1826 130.799L15.0448 66.8965L14.8177 67.169C-10.2588 97.9089 -5.33738 143.428 25.781 168.807L26.6896 169.549C40.6437 180.918 58.3356 186.675 76.3078 185.694C94.2799 184.714 111.241 177.068 123.876 164.249C125.39 162.629 125.118 163.114 125.118 163.114C137.909 152.134 154.153 146.002 171.008 145.789C187.864 145.576 204.258 151.295 217.322 161.948L218.2 162.659C230.519 172.703 239.158 186.549 242.764 202.029C246.37 217.509 244.74 233.747 238.128 248.201C235.478 253.986 231.677 259.119 228.558 264.646C225.638 269.876 223.448 275.48 222.047 281.303C219.365 292.235 219.272 303.643 221.774 314.617C225.435 330.518 234.284 344.748 246.926 355.064L247.82 355.79C263.81 368.828 285.525 373.402 305.68 370.131C315.885 368.511 325.644 364.799 334.345 359.228C343.28 353.443 349.276 344.782 357.771 338.513C383.878 319.281 420.023 321.386 444.903 341.662L445.796 342.389C459.401 353.395 468.552 368.961 471.554 386.2C474.556 403.439 471.204 421.182 462.12 436.138C462.12 436.138 464.059 433.761 464.074 433.761L463.847 434.048C463.135 434.911 462.453 435.805 461.772 436.698C460.651 438.485 459.455 440.227 458.168 441.923C439.209 471.648 442.722 508.929 473.159 535.884L474.053 536.626C481.424 542.662 489.928 547.165 499.064 549.869C508.2 552.574 517.784 553.425 527.253 552.374C536.723 551.324 545.887 548.391 554.208 543.749C562.528 539.108 569.838 532.85 575.706 525.344L526.053 589.777L525.553 590.398L525.326 590.67C500.25 621.41 451.823 627.815 420.69 602.421L419.796 601.694C389.193 576.739 381.939 532.355 410.226 499.677C419.155 484.723 422.386 467.05 419.326 449.904C416.265 432.759 407.119 417.294 393.569 406.352L392.691 405.625C383.211 397.815 371.885 392.569 359.798 390.389C347.71 388.21 335.265 389.17 323.655 393.178C311.684 397.556 301.077 405.009 292.9 414.787C285.722 423.267 274.728 429.294 264.34 432.716C253.41 436.216 241.812 437.107 230.475 435.316C219.138 433.525 208.379 429.103 199.06 422.404C197.879 421.556 196.728 420.677 195.607 419.754L194.714 419.027C181.27 408.174 172.144 392.876 168.982 375.89C165.82 358.904 168.828 341.347 177.466 326.383L176.043 327.973L176.255 327.701C176.951 326.853 177.618 325.989 178.269 325.111C179.359 323.339 180.51 321.613 181.782 319.917C190.894 305.091 194.315 287.461 191.41 270.303C188.505 253.145 179.472 237.624 165.988 226.623L165.095 225.896C134.355 200.834 95.8012 199.456 70.7248 230.211L72.2391 228.213C46.4963 254.879 3.9906 257.605 -25.5833 233.497L-26.4767 232.771C-57.5649 207.346 -62.4711 161.827 -37.3947 131.072Z" fill="#0033A1"/>
<path d="M20.4045 291.933C33.1913 280.953 49.4317 274.818 66.2846 274.602C83.1375 274.386 99.5298 280.103 112.594 290.752L113.472 291.479C125.792 301.518 134.432 315.362 138.038 330.84C141.644 346.317 140.013 362.554 133.4 377.005C130.765 382.805 126.949 387.938 123.83 393.45C120.916 398.681 118.73 404.285 117.333 410.107C114.654 421.039 114.556 432.445 117.046 443.421C120.716 459.33 129.582 473.561 142.243 483.868L143.137 484.61C159.128 497.648 180.842 502.206 200.997 498.935C211.201 497.323 220.961 493.616 229.663 488.047C238.597 482.248 244.609 473.586 253.104 467.332C279.21 448.085 315.356 450.19 340.22 470.482L341.113 471.208C354.716 482.212 363.868 497.773 366.872 515.009C369.877 532.245 366.53 549.986 357.452 564.942L359.391 562.58L359.179 562.853C358.452 563.731 357.771 564.609 357.104 565.503C355.984 567.289 354.772 569.031 353.485 570.742C334.526 600.452 338.039 637.749 368.492 664.627L369.385 665.354C376.756 671.392 385.259 675.897 394.395 678.602C403.531 681.308 413.116 682.16 422.586 681.109C432.056 680.058 441.221 677.125 449.542 672.482C457.862 667.839 465.171 661.58 471.038 654.073L421.37 718.52L420.87 719.126L420.658 719.399C395.582 750.154 347.14 756.544 316.022 731.165L315.128 730.438C284.51 705.467 277.181 661.099 305.558 628.406C314.48 613.45 317.708 595.778 314.648 578.634C311.588 561.491 302.446 546.026 288.901 535.081L288.008 534.354C278.526 526.547 267.2 521.304 255.114 519.124C243.027 516.945 230.583 517.903 218.972 521.907C207.001 526.293 196.395 533.75 188.217 543.53C181.054 552.01 170.045 558.037 159.657 561.444C148.729 564.95 137.13 565.845 125.793 564.057C114.456 562.269 103.696 557.847 94.377 551.147C93.211 550.299 92.0449 549.406 90.9244 548.482L90.031 547.755C76.5905 536.903 67.4684 521.607 64.3088 504.623C61.1493 487.64 64.1601 470.087 72.7985 455.127L71.3599 456.717L71.5871 456.444C72.2836 455.581 72.9348 454.718 73.5859 453.855C74.6762 452.083 75.8422 450.342 77.0991 448.646C86.2129 433.823 89.6353 416.195 86.7304 399.038C83.8254 381.882 74.7907 366.363 61.3051 355.366L60.4268 354.639C29.6719 329.563 -8.86653 328.185 -33.943 358.94L-32.4287 356.956C-58.1714 383.623 -100.692 386.348 -130.251 362.241L-131.144 361.499C-162.278 336.12 -167.199 290.616 -142.123 259.861C-142.044 259.771 -141.973 259.675 -141.911 259.573L-89.7441 195.625L-89.9561 195.898C-115.033 226.653 -110.126 272.157 -78.9928 297.551L-78.0993 298.278C-64.1687 309.562 -46.5484 315.278 -28.6467 314.322C-10.745 313.365 6.16574 305.803 18.8145 293.099" fill="#0033A1"/>
<path d="M67.8164 2.7972C67.892 2.70497 67.9627 2.60895 68.0284 2.5095C68.0284 2.5095 120.195 -61.4536 120.195 -61.4385L119.983 -61.1659C94.9069 -30.4109 99.8131 15.0931 130.947 40.4724L131.84 41.2144C146.759 53.2896 165.859 58.9549 184.949 56.9678C204.04 54.9807 221.563 45.5034 233.675 30.6145L231.04 33.643C256.935 11.3529 295.079 11.262 322.473 33.643L323.351 34.3548C335.669 44.3985 344.309 58.2447 347.915 73.7243C351.521 89.204 349.89 105.443 343.279 119.896C340.644 125.681 336.828 130.814 333.709 136.341C330.794 141.572 328.608 147.176 327.212 152.998C324.533 163.93 324.434 175.336 326.925 186.313C330.586 202.213 339.435 216.443 352.077 226.759L352.97 227.486C368.961 240.524 390.676 245.097 410.831 241.826C421.036 240.209 430.796 236.497 439.496 230.923C448.43 225.139 454.442 216.477 462.937 210.208C489.043 190.977 525.189 193.081 550.053 213.358L550.947 214.084C564.548 225.092 573.698 240.656 576.703 257.894C579.707 275.131 576.361 292.874 567.286 307.833L569.224 305.456L569.012 305.744C568.285 306.607 567.604 307.5 566.938 308.394C565.817 310.181 564.606 311.922 563.319 313.618C544.36 343.343 547.873 380.625 578.325 407.503L579.218 408.245C586.587 414.284 595.088 418.79 604.222 421.498C613.357 424.206 622.94 425.062 632.409 424.015C641.879 422.969 651.044 420.041 659.366 415.403C667.688 410.765 675 404.512 680.872 397.009L631.204 461.457L630.704 462.063L630.492 462.335C605.415 493.075 556.974 499.48 525.855 474.086L524.962 473.359C494.343 448.404 487.105 409.26 515.392 371.342C524.314 356.387 527.541 338.715 524.482 321.571C521.422 304.427 512.28 288.963 498.735 278.017L497.841 277.29C488.362 269.48 477.036 264.234 464.948 262.054C452.86 259.875 440.415 260.835 428.805 264.843C416.871 269.242 406.302 276.698 398.156 286.467C390.994 294.947 379.985 300.974 369.597 304.396C358.657 307.897 347.048 308.784 335.702 306.986C324.357 305.187 313.592 300.752 304.271 294.038C303.105 293.19 301.939 292.312 300.818 291.388L299.925 290.661C286.486 279.805 277.365 264.506 274.206 247.521C271.047 230.536 274.056 212.981 282.692 198.018C282.692 198.018 285.721 193.248 286.993 191.552C296.105 176.726 299.526 159.096 296.621 141.938C293.716 124.78 284.683 109.258 271.199 98.2573L270.321 97.5304C240.656 73.302 203.693 71.2123 178.677 98.6813C178.326 99.1062 177.936 99.4967 177.511 99.8473C151.768 126.514 109.247 129.239 79.6884 105.132L78.795 104.405C47.6614 79.0108 42.74 33.5825 67.8164 2.7972Z" fill="#0033A1"/>
<path d="M167.713 -120.662C167.808 -120.728 167.899 -120.798 167.986 -120.874C167.986 -120.874 220.077 -184.897 220.092 -184.897L219.865 -184.625C194.789 -153.87 199.786 -108.366 230.828 -83.0168L231.737 -82.29C246.655 -70.2109 265.755 -64.5432 284.847 -66.5304C303.938 -68.5177 321.462 -77.9976 333.572 -92.8899L330.937 -89.8614C356.832 -112.152 394.961 -112.242 422.369 -89.8614L423.248 -89.1345C435.567 -79.0949 444.207 -65.2513 447.814 -49.7736C451.42 -34.2959 449.789 -18.0591 443.176 -3.60808C440.526 2.19161 436.725 7.32501 433.605 12.837C430.687 18.0671 428.496 23.6712 427.094 29.494C424.412 40.4263 424.319 51.8335 426.821 62.8082C430.489 78.7019 439.337 92.925 451.974 103.239L452.867 103.966C468.858 117.004 490.573 121.562 510.728 118.291C520.931 116.677 530.69 112.97 539.393 107.404C548.327 101.604 554.324 92.9423 562.819 86.6883C588.925 67.4419 625.071 69.5467 649.95 89.838L650.844 90.5649C664.448 101.571 673.599 117.136 676.601 134.376C679.603 151.615 676.251 169.358 667.168 184.314C667.168 184.314 669.106 181.921 669.121 181.936L668.894 182.209C668.182 183.087 667.501 183.981 666.819 184.874C665.699 186.646 664.503 188.387 663.215 190.098C644.257 219.809 647.77 257.105 678.207 284.059L679.1 284.786C686.473 290.823 694.978 295.326 704.115 298.031C713.252 300.735 722.837 301.587 732.308 300.536C741.779 299.485 750.944 296.553 759.266 291.911C767.588 287.269 774.899 281.011 780.769 273.505L731.101 337.953L730.601 338.558L730.374 338.831C705.297 369.586 656.871 375.976 625.737 350.597L624.844 349.87C594.24 324.899 586.987 285.755 615.273 247.838C624.202 232.884 627.433 215.21 624.373 198.065C621.313 180.919 612.167 165.454 598.616 154.513L597.738 153.786C588.255 145.982 576.93 140.74 564.843 138.561C552.757 136.381 540.313 137.338 528.702 141.339C516.731 145.725 506.125 153.182 497.947 162.963C490.769 171.442 479.776 177.469 469.388 180.876C458.478 184.372 446.901 185.265 435.584 183.485C424.267 181.704 413.524 177.3 404.213 170.625C403.032 169.777 401.881 168.883 400.761 167.975L399.867 167.233C386.422 156.384 377.296 141.088 374.136 124.103C370.976 107.118 373.99 89.5625 382.635 74.6044C382.635 74.6044 385.663 69.8193 386.935 68.1233C396.046 53.2992 399.467 35.6722 396.562 18.5165C393.657 1.36073 384.624 -14.1576 371.141 -25.1563L370.248 -25.8831C340.598 -50.1116 303.696 -52.2013 278.604 -24.7323C278.253 -24.3073 277.863 -23.9169 277.438 -23.5663C251.695 3.10018 209.189 5.82587 179.616 -18.2814L178.722 -19.0083C147.543 -44.4027 142.637 -89.9068 167.713 -120.662Z" fill="#0033A1"/>
<path d="M-71.9364 -39.8143C-60.2862 -43.7485 -47.8271 -44.6563 -35.7297 -42.4525C-23.6322 -40.2486 -12.2937 -35.0054 -2.77932 -27.2155L-1.8859 -26.4887C11.7153 -15.4811 20.8656 0.0832348 23.8699 17.3208C26.8741 34.5583 23.5286 52.3005 14.4531 67.2603L16.3914 64.8829L16.1794 65.1706C15.4526 66.0337 14.7712 66.9271 14.1049 67.8206C12.9843 69.6074 11.7729 71.3488 10.4857 73.0448C-0.417075 90.141 -4.74792 108.661 0.0674867 127.347C-2.46136 129.361 -4.0816 132.465 -6.51959 134.479C-23.7672 148.728 -37.2746 169.626 -52.9625 185.556C-53.8862 168.505 -50.8577 145.897 -37.7289 130.784C-28.7532 115.875 -25.4608 98.2265 -28.4571 81.0836C-31.4533 63.9407 -40.5368 48.4554 -54.0376 37.4744L-54.9311 36.7476C-63.5119 29.702 -73.6029 24.7316 -84.4186 22.2234C-95.2343 19.7151 -106.483 19.7366 -117.289 22.2862C-102.192 1.58603 -86.4129 -18.6901 -71.9364 -39.8143Z" fill="#0033A1"/>
</g>
</g>
</svg>
