<svg width="514" height="459" viewBox="0 0 514 459" fill="none" xmlns="http://www.w3.org/2000/svg">
<path d="M70.3622 0.867752L37.2161 1.55301C18.0839 1.94855 4.20762 19.914 8.65915 38.5253L105.51 443.448C107.663 452.448 115.708 458.796 124.962 458.796H469.487C486.667 458.796 495.852 438.563 484.542 425.63L139.972 31.6029C122.454 11.5704 96.9682 0.317701 70.3622 0.867752Z" fill="#FF0000"/>
<mask id="mask0_23_4114" style="mask-type:alpha" maskUnits="userSpaceOnUse" x="7" y="0" width="483" height="459">
<path d="M70.3622 0.867752L37.2161 1.55301C18.0839 1.94855 4.20762 19.914 8.65915 38.5253L105.51 443.448C107.663 452.448 115.708 458.796 124.962 458.796H469.487C486.667 458.796 495.852 438.563 484.542 425.63L139.972 31.6029C122.454 11.5704 96.9682 0.317701 70.3622 0.867752Z" fill="white"/>
</mask>
<g mask="url(#mask0_23_4114)">
<mask id="mask1_23_4114" style="mask-type:luminance" maskUnits="userSpaceOnUse" x="0" y="0" width="587" height="472">
<path d="M586.74 457.463L110.344 471.869L0 0H108.471C118.455 0.00166395 128.313 2.22716 137.33 6.51482C146.347 10.8025 154.295 17.0446 160.598 24.7879L446.152 375.52C473.76 409.459 510.865 434.391 552.721 447.126L586.74 457.463Z" fill="white"/>
</mask>
<g mask="url(#mask1_23_4114)">
<mask id="mask2_23_4114" style="mask-type:luminance" maskUnits="userSpaceOnUse" x="-30" y="-49" width="643" height="579">
<path d="M612.338 529.511V-48.8828L-29.3455 -48.8828V529.511H612.338Z" fill="white"/>
</mask>
<g mask="url(#mask2_23_4114)">
<path d="M151.762 -328.241L-345.611 340.74L452.523 934.136L949.896 265.154L151.762 -328.241Z" fill="#0083D4"/>
<path d="M171.305 211.294C152.158 197.059 137.662 177.466 129.65 154.992C121.638 132.519 120.47 108.174 126.293 85.0364C132.117 61.8991 144.671 41.0081 162.367 25.0053C180.064 9.0025 202.108 -1.3935 225.713 -4.8681C249.317 -8.34271 273.422 -4.73988 294.979 5.48482C316.536 15.7095 334.577 32.0969 346.821 52.5747C359.065 73.0525 364.962 96.7012 363.766 120.53C362.569 144.359 354.334 167.298 340.101 186.447C321.011 212.124 292.503 229.167 260.848 233.826C229.194 238.486 196.984 230.381 171.305 211.294Z" fill="#FF8300"/>
<path d="M191.758 600.041C172.681 585.864 158.237 566.348 150.253 543.962C142.268 521.575 141.102 497.324 146.901 474.274C152.701 451.225 165.205 430.413 182.833 414.471C200.461 398.529 222.421 388.172 245.935 384.711C269.45 381.25 293.462 384.839 314.936 395.026C336.41 405.213 354.381 421.539 366.576 441.94C378.771 462.341 384.642 485.9 383.447 509.637C382.251 533.375 374.043 556.225 359.861 575.297C340.85 600.87 312.459 617.844 280.934 622.484C249.408 627.124 217.331 619.051 191.758 600.041Z" fill="#FF8300"/>
<path d="M175.609 438.322C162.696 455.694 155.223 476.506 154.138 498.125C153.052 519.744 158.402 541.2 169.51 559.778C180.618 578.357 196.986 593.224 216.545 602.5C236.103 611.777 257.972 615.045 279.387 611.891C300.803 608.738 320.802 599.305 336.856 584.785C352.911 570.265 364.299 551.311 369.58 530.319C374.862 509.327 373.8 487.24 366.529 466.851C359.258 446.463 346.104 428.688 328.731 415.776C305.425 398.492 276.214 391.159 247.508 395.386C218.802 399.613 192.945 415.054 175.609 438.322Z" fill="#0033A1"/>
<path d="M15.4686 500.86C-1.91917 487.937 -15.0842 470.148 -22.3617 449.743C-29.6391 429.338 -30.702 407.233 -25.4161 386.223C-20.1301 365.214 -8.73257 346.244 7.33503 331.712C23.4026 317.18 43.4186 307.74 64.8518 304.584C86.2849 301.429 108.172 304.7 127.746 313.984C147.32 323.268 163.702 338.149 174.818 356.743C185.935 375.337 191.288 396.811 190.201 418.448C189.113 440.085 181.634 460.913 168.708 478.299C151.375 501.607 125.496 517.076 96.7596 521.307C68.0234 525.538 38.7833 518.183 15.4686 500.86Z" fill="#00B2E3"/>
<path d="M167.01 431.922C151.697 452.446 143.384 477.347 143.299 502.954C158.461 492.417 170.713 478.219 178.917 461.678C187.12 445.137 191.008 426.79 190.22 408.344C181.433 415.095 173.623 423.03 167.01 431.922Z" fill="#8DC6E8"/>
<path d="M175.609 438.323C163.507 454.577 156.184 473.886 154.463 494.077C174.86 475.543 187.535 450.012 189.971 422.56C184.681 427.334 179.871 432.613 175.609 438.323Z" fill="#0083D4"/>
<path d="M-26.2772 648.187C-43.6629 635.263 -56.8257 617.473 -64.1011 597.068C-71.3765 576.663 -72.4378 554.559 -67.1508 533.551C-61.8637 512.542 -50.4658 493.574 -34.3983 479.043C-18.3308 464.513 1.68466 455.073 23.117 451.918C44.5493 448.763 66.4359 452.034 86.0092 461.318C105.582 470.601 121.963 485.48 133.08 504.074C144.197 522.667 149.551 544.139 148.465 565.775C147.378 587.412 139.901 608.24 126.977 625.626C118.397 637.172 107.627 646.915 95.2806 654.297C82.9347 661.68 69.2552 666.558 55.0236 668.654C40.7919 670.749 26.287 670.02 12.3372 666.508C-1.61257 662.996 -14.7338 656.771 -26.2772 648.187Z" fill="#0033A1"/>
<path d="M275.188 520.841C257.804 507.915 244.642 490.125 237.368 469.719C230.095 449.313 229.035 427.209 234.324 406.201C239.613 385.193 251.013 366.225 267.082 351.696C283.151 337.167 303.167 327.729 324.6 324.576C346.033 321.423 367.919 324.696 387.491 333.981C407.064 343.267 423.443 358.148 434.558 376.742C445.674 395.337 451.025 416.81 449.937 438.446C448.848 460.082 441.368 480.91 428.443 498.295C419.862 509.839 409.09 519.581 396.744 526.962C384.397 534.344 370.718 539.22 356.486 541.314C342.254 543.408 327.75 542.678 313.801 539.165C299.851 535.652 286.731 529.425 275.188 520.841Z" fill="#00B2E3"/>
<path d="M241.864 385.429C232.352 405.157 228.974 427.285 232.169 448.953C235.364 470.621 244.984 490.833 259.786 506.976C274.587 523.12 293.891 534.453 315.201 539.511C336.511 544.569 358.848 543.12 379.326 535.351C384.699 515.752 385.013 495.111 380.237 475.358C375.461 455.606 365.752 437.388 352.018 422.409C338.285 407.431 320.975 396.181 301.71 389.714C282.445 383.246 261.854 381.772 241.864 385.429Z" fill="#8DC6E8"/>
<path d="M148.359 290.082C130.971 277.159 117.806 259.37 110.529 238.965C103.251 218.559 102.189 196.454 107.475 175.445C112.761 154.435 124.158 135.465 140.226 120.934C156.293 106.402 176.309 96.9615 197.742 93.8059C219.176 90.6504 241.063 93.9215 260.637 103.206C280.211 112.49 296.592 127.37 307.709 145.965C318.826 164.559 324.179 186.033 323.091 207.669C322.004 229.306 314.524 250.135 301.599 267.521C284.266 290.828 258.386 306.298 229.65 310.529C200.914 314.76 171.674 307.405 148.359 290.082Z" fill="#00B2E3"/>
<path d="M47.7044 35.2873C62.2841 51.305 71.7868 71.2863 75.011 92.7046C78.2352 114.123 75.036 136.016 65.818 155.616C56.6001 175.216 41.7772 191.643 23.2238 202.819C4.67035 213.996 -16.7804 219.419 -38.4162 218.405C-60.052 217.39 -80.9012 209.983 -98.3274 197.12C-115.754 184.257 -128.974 166.515 -136.318 146.138C-143.662 125.762 -144.798 103.665 -139.584 82.6426C-134.37 61.62 -123.039 42.6155 -107.025 28.0323C-85.5438 8.47668 -57.1746 -1.74512 -28.1575 -0.384555C0.859568 0.97601 28.1478 13.8075 47.7044 35.2873Z" fill="#00B2E3"/>
<path d="M110.433 -75.5282C125.018 -59.5093 134.525 -39.5252 137.752 -18.1032C140.979 3.31889 137.781 25.2168 128.562 44.8213C119.344 64.4258 104.519 80.8565 85.9622 92.0355C67.4056 103.214 45.9507 108.64 24.3107 107.625C2.67076 106.61 -18.1823 99.2014 -35.6115 86.3351C-53.0407 73.4688 -66.2631 55.723 -73.6067 35.3419C-80.9503 14.9608 -82.0852 -7.14021 -76.8679 -28.1663C-71.6506 -49.1924 -60.3155 -68.1992 -44.2959 -82.7832C-22.8152 -102.339 5.55399 -112.561 34.5711 -111.2C63.5882 -109.839 90.8764 -97.0079 110.433 -75.5282Z" fill="#0033A1"/>
<path d="M-79.4805 9.67353C-77.6566 27.0143 -71.7197 43.6692 -62.1634 58.2536C-52.6071 72.8381 -39.7075 84.9307 -24.537 93.5263C-9.36644 102.122 7.63674 106.972 25.059 107.673C42.4813 108.375 59.8194 104.907 75.6319 97.5592C73.808 80.2184 67.8711 63.5635 58.3148 48.9791C48.7586 34.3947 35.859 22.302 20.6884 13.7065C5.51787 5.11095 -11.4853 0.26084 -28.9076 -0.440607C-46.3299 -1.14205 -63.668 2.32542 -79.4805 9.67353Z" fill="#0083D4"/>
<path d="M323.171 204.88C323.746 181.63 316.906 158.801 303.64 139.699C290.374 120.597 271.371 106.214 249.384 98.6328C227.398 91.052 203.569 90.6673 181.349 97.5343C159.129 104.401 139.672 118.163 125.796 136.827L124.971 138.022C129.11 158.828 138.664 178.175 152.667 194.111C166.67 210.047 184.628 222.009 204.729 228.789C224.83 235.57 246.364 236.93 267.159 232.732C287.954 228.534 307.274 218.927 323.171 204.88Z" fill="#8DC6E8"/>
<path d="M365.773 154.051C348.385 141.128 335.22 123.339 327.943 102.933C320.666 82.5281 319.603 60.423 324.889 39.4136C330.175 18.4042 341.572 -0.565845 357.64 -15.0975C373.707 -29.6292 393.723 -39.0697 415.156 -42.2253C436.59 -45.3809 458.477 -42.1097 478.051 -32.8255C497.625 -23.5413 514.006 -8.66108 525.123 9.93336C536.24 28.5278 541.593 50.0013 540.505 71.6381C539.418 93.275 531.938 114.103 519.013 131.489C501.683 154.8 475.803 170.273 447.065 174.504C418.328 178.735 389.087 171.378 365.773 154.051Z" fill="#00B2E3"/>
<path d="M359.021 148.565C365.155 127.67 365.526 105.504 360.093 84.4157C354.659 63.3269 343.625 44.0997 328.158 28.7695C320.635 49.5225 319.557 72.0638 325.064 93.4401C330.571 114.816 342.407 134.031 359.021 148.565Z" fill="#8DC6E8"/>
<path d="M14.4957 402.18C-2.88698 389.257 -16.0473 371.47 -23.3213 351.068C-30.5953 330.666 -31.6562 308.565 -26.3698 287.56C-21.0834 266.555 -9.6872 247.59 6.3778 233.061C22.4428 218.533 42.4551 209.095 63.8841 205.94C85.3131 202.785 107.196 206.055 126.767 215.337C146.337 224.618 162.716 239.495 173.832 258.085C184.948 276.675 190.302 298.144 189.217 319.777C188.131 341.409 180.656 362.235 167.735 379.619C150.405 402.93 124.525 418.402 95.7876 422.633C67.0502 426.864 37.8091 419.507 14.4957 402.18Z" fill="#0033A1"/>
<path d="M145.174 226.38C133.011 217.313 119.089 210.884 104.299 207.505C105.463 231.36 114.392 254.182 129.725 272.494C145.058 290.805 165.956 303.605 189.235 308.942C188.462 292.777 184.108 276.985 176.488 262.707C168.869 248.429 158.173 236.021 145.174 226.38Z" fill="#0083D4"/>
<path d="M177.94 202.373C160.558 189.449 147.399 171.661 140.127 151.258C132.854 130.855 131.795 108.754 137.084 87.7493C142.372 66.7447 153.77 47.7798 169.836 33.2528C185.903 18.7259 205.916 9.28928 227.345 6.13632C248.775 2.98335 270.658 6.25563 290.228 15.5393C309.798 24.8231 326.175 39.7013 337.289 58.2926C348.403 76.884 353.755 98.3535 352.667 119.986C351.58 141.619 344.102 162.444 331.179 179.827C322.6 191.371 311.83 201.112 299.484 208.493C287.139 215.875 273.461 220.751 259.23 222.845C245 224.939 230.497 224.209 216.549 220.696C202.6 217.183 189.481 210.957 177.94 202.373Z" fill="#0033A1"/>
<path d="M387.463 81.0436C370.077 68.1193 356.915 50.3298 349.639 29.9247C342.364 9.51961 341.302 -12.5846 346.589 -33.5929C351.877 -54.6011 363.274 -73.5698 379.342 -88.1003C395.409 -102.631 415.425 -112.07 436.857 -115.226C458.29 -118.381 480.176 -115.11 499.749 -105.826C519.323 -96.5423 535.703 -81.6631 546.82 -63.0698C557.937 -44.4764 563.291 -23.0041 562.205 -1.36807C561.119 20.268 553.641 41.096 540.717 58.4823C532.136 70.0268 521.365 79.768 509.019 87.1496C496.673 94.5313 482.994 99.4089 468.763 101.504C454.532 103.599 440.027 102.87 426.078 99.3598C412.128 95.8492 399.007 89.6253 387.463 81.0436Z" fill="#0033A1"/>
<path d="M236.863 397.638C230.528 416.265 229.327 436.253 233.385 455.504C237.444 474.755 246.613 492.557 259.928 507.04C273.244 521.523 290.215 532.153 309.057 537.812C327.9 543.471 347.919 543.95 367.01 539.199C373.34 520.573 374.538 500.587 370.477 481.338C366.416 462.09 357.247 444.29 343.933 429.808C330.619 415.326 313.651 404.697 294.811 399.036C275.971 393.376 255.954 392.893 236.863 397.638Z" fill="#0083D4"/>
<path d="M364.738 400.396C347.353 387.472 334.19 369.682 326.915 349.277C319.639 328.872 318.578 306.768 323.865 285.76C329.152 264.751 340.55 245.783 356.617 231.252C372.685 216.722 392.7 207.282 414.133 204.127C435.565 200.972 457.451 204.243 477.025 213.527C496.598 222.81 512.979 237.689 524.096 256.283C535.213 274.876 540.567 296.348 539.48 317.984C538.394 339.621 530.916 360.449 517.993 377.835C500.66 401.147 474.777 416.62 446.037 420.85C417.298 425.081 388.054 417.724 364.738 400.396Z" fill="#0033A1"/>
<path d="M364.741 400.397C376.727 409.321 390.416 415.691 404.962 419.113C419.508 422.534 434.602 422.935 449.309 420.289C447.592 405.446 442.853 391.112 435.385 378.17C427.917 365.229 417.878 353.953 405.886 345.04C393.894 336.126 380.204 329.762 365.659 326.341C351.114 322.92 336.022 322.514 321.314 325.148C323.028 339.986 327.765 354.316 335.235 367.25C342.704 380.185 352.746 391.451 364.741 400.352" fill="#0083D4"/>
<path d="M-15.4355 465.278C-8.46919 478.109 0.991625 489.417 12.3908 498.539C23.7901 507.661 36.8977 514.413 50.9434 518.397C64.9891 522.381 79.6895 523.517 94.1806 521.739C108.672 519.96 122.661 515.303 135.327 508.041C128.36 495.21 118.899 483.902 107.5 474.78C96.101 465.658 82.9934 458.906 68.9477 454.922C54.902 450.938 40.2016 449.802 25.7105 451.58C11.2194 453.359 -2.76997 458.016 -15.4355 465.278Z" fill="#0083D4"/>
<path d="M-7.09387 347.665C-11.0414 352.998 -14.4963 358.679 -17.416 364.638C-8.10715 382.647 6.01921 397.719 23.3891 408.173C40.759 418.627 60.6903 424.053 80.9624 423.846C101.234 423.64 121.051 417.809 138.205 407.004C155.358 396.198 169.175 380.842 178.115 362.647C169.573 346.147 156.973 332.091 141.502 321.802C126.031 311.512 108.197 305.328 89.6778 303.829C71.1582 302.331 52.5619 305.568 35.6381 313.237C18.7143 320.905 4.01937 332.753 -7.06435 347.665" fill="#0083D4"/>
<path d="M134.453 126.609C136.761 147.327 144.935 166.956 158.015 183.189C171.095 199.421 188.538 211.581 208.292 218.241C228.046 224.901 249.291 225.782 269.529 220.782C289.767 215.782 308.157 205.109 322.537 190.016C320.23 169.298 312.056 149.669 298.975 133.436C285.895 117.204 268.453 105.043 248.699 98.3836C228.944 91.724 207.7 90.8424 187.461 95.8423C167.223 100.842 148.833 111.516 134.453 126.609Z" fill="#0083D4"/>
<path d="M349.892 139.586C353.953 122.317 353.764 104.321 349.342 87.1412C344.919 69.9616 336.395 54.1114 324.5 40.9502C320.439 58.2189 320.628 76.215 325.051 93.3946C329.473 110.574 337.998 126.424 349.892 139.586Z" fill="#0083D4"/>
<path d="M343.551 0.368679C345.021 22.6825 353.288 44.0113 367.239 61.4875C381.191 78.9638 400.159 91.7496 421.593 98.1262C443.026 104.503 465.899 104.164 487.134 97.156C508.37 90.1479 526.951 76.8063 540.379 58.9247C538.909 36.6109 530.642 15.2821 516.691 -2.19413C502.739 -19.6704 483.771 -32.4562 462.338 -38.8328C440.904 -45.2093 418.031 -44.8707 396.796 -37.8626C375.56 -30.8545 356.979 -17.5129 343.551 0.368679Z" fill="#0083D4"/>
</g>
</g>
</g>
</svg>
