<svg width="514" height="459" viewBox="0 0 514 459" fill="none" xmlns="http://www.w3.org/2000/svg">
<path d="M70.3622 0.867752L37.2161 1.55301C18.0839 1.94855 4.20762 19.914 8.65915 38.5253L105.51 443.448C107.663 452.448 115.708 458.796 124.962 458.796H469.487C486.667 458.796 495.852 438.563 484.542 425.63L139.972 31.6029C122.454 11.5704 96.9682 0.317701 70.3622 0.867752Z" fill="#FF0000"/>
<mask id="mask0_23_3990" style="mask-type:alpha" maskUnits="userSpaceOnUse" x="7" y="0" width="483" height="459">
<path d="M70.3622 0.867752L37.2161 1.55301C18.0839 1.94855 4.20762 19.914 8.65915 38.5253L105.51 443.448C107.663 452.448 115.708 458.796 124.962 458.796H469.487C486.667 458.796 495.852 438.563 484.542 425.63L139.972 31.6029C122.454 11.5704 96.9682 0.317701 70.3622 0.867752Z" fill="white"/>
</mask>
<g mask="url(#mask0_23_3990)">
<mask id="mask1_23_3990" style="mask-type:luminance" maskUnits="userSpaceOnUse" x="-10" y="-11" width="603" height="485">
<path d="M592.082 458.478L103.852 473.243L-9.23242 -10.3477H101.933C112.165 -10.346 122.268 -8.06517 131.509 -3.671C140.749 0.723161 148.895 7.12037 155.355 15.056L448.002 374.5C476.296 409.282 514.323 434.833 557.218 447.885L592.082 458.478Z" fill="white"/>
</mask>
<g mask="url(#mask1_23_3990)">
<path d="M617.251 -73.5343L-178.287 -68.8135L-174.883 504.775L620.655 500.054L617.251 -73.5343Z" fill="#0083D4"/>
<path d="M0.347379 252.393C17.9833 267.808 36.2389 283.736 71.3747 282.693L75.1225 282.557L79.3237 282.406C83.7093 282.252 88.0806 281.818 92.4109 281.107C104.458 279.158 115.943 274.632 126.081 267.838C101.282 264.272 86.1544 251.215 71.4805 238.339C52.6205 221.867 33.1106 204.835 -5.28949 205.969H-6.31711C-27.8973 206.8 -43.5234 212.86 -56.4141 221.081C-30.6478 225.358 -14.9462 239.049 0.347379 252.393Z" fill="#0033A1"/>
<path d="M230.294 218.194H229.357C224.987 218.355 220.631 218.79 216.315 219.494C188.871 224.028 172.882 239.215 157.377 253.904C146.255 264.483 134.709 275.182 119.4 282.618L128.8 284.129C135.711 285.162 142.701 285.566 149.685 285.338H150.652H150.788C192.816 283.751 214.517 263.123 233.664 244.928L233.785 244.822C240.597 238.026 247.907 231.748 255.652 226.038L260.851 222.411C250.994 219.21 240.649 217.782 230.294 218.194Z" fill="#0033A1"/>
<path d="M307.52 240.786C325.171 256.201 343.412 272.129 378.548 271.101H379.485C383.855 270.939 388.21 270.505 392.526 269.802C405.276 267.715 417.387 262.765 427.949 255.324C406.248 250.791 392.254 238.625 378.668 226.747C359.627 210.124 339.936 192.941 300.856 194.407C279.26 195.223 263.619 201.298 250.729 209.595C276.51 213.766 292.227 227.442 307.52 240.786Z" fill="#0033A1"/>
<path d="M530.453 206.874H529.516C525.124 207.058 520.747 207.522 516.414 208.265C489.031 212.798 473.087 227.911 457.658 242.615L457.552 242.706C446.429 253.284 434.884 263.999 419.545 271.419L428.93 272.93C435.84 273.963 442.831 274.368 449.815 274.139H450.782H450.933C492.945 272.552 514.661 251.939 533.808 233.744L533.914 233.638C540.731 226.842 548.046 220.563 555.797 214.854L561.056 211.166C551.188 207.941 540.827 206.488 530.453 206.874Z" fill="#0033A1"/>
<path d="M499.067 169.548C481.204 186.519 462.797 204.064 426.8 205.394H425.863C390.531 206.436 372.2 190.448 354.473 174.958C335.432 158.334 315.74 141.152 276.66 142.633C237.58 144.114 217.934 162.762 198.938 180.806L198.847 180.897C181 197.853 162.578 215.383 126.641 216.698L122.984 216.818L119.629 216.939H118.692C83.3449 217.982 65.0289 201.978 47.2872 186.503C28.4272 170.031 8.9173 153 -29.4677 154.133H-30.5104C-69.6208 155.644 -89.2818 174.278 -108.278 192.337C-115.574 199.612 -123.432 206.302 -131.777 212.345L-131.641 237.432C-119.967 229.076 -106.52 223.531 -92.3496 221.231C-87.5494 220.443 -82.7035 219.963 -77.8419 219.796H-76.7991C-69.9787 219.567 -63.1521 219.992 -56.4127 221.065C-43.522 212.784 -27.896 206.724 -6.31579 205.953H-5.28817C33.1119 204.819 52.6218 221.851 71.4818 238.323C86.1558 251.138 101.283 264.256 126.082 267.822C135.497 261.611 143.416 254.115 151.184 246.665L151.274 246.59C167.792 230.888 184.869 214.673 214.746 209.701C219.556 208.911 224.412 208.431 229.283 208.265C236.44 207.956 243.609 208.371 250.682 209.504C263.573 201.208 279.214 195.132 300.81 194.316C339.89 192.805 359.581 210.033 378.622 226.657C392.223 238.505 406.142 250.624 427.782 255.203C436.183 249.231 444.092 242.596 451.433 235.361C467.966 219.66 485.058 203.414 515.04 198.442C519.835 197.653 524.676 197.173 529.533 197.006H530.575C537.658 196.766 544.746 197.242 551.733 198.427L551.128 198.306C557.68 194.063 564.744 190.665 572.149 188.196L571.817 131.722C536.061 134.533 517.216 152.35 499.067 169.548Z" fill="#00B2E3"/>
<path d="M572.177 204.533C560.964 199.531 547.62 196.463 530.558 196.977H529.516C524.659 197.144 519.818 197.623 515.023 198.412C485.04 203.384 467.948 219.57 451.416 235.332C435.956 250.021 419.982 265.193 392.478 269.742C388.162 270.446 383.806 270.88 379.436 271.042H378.499C343.348 272.069 325.108 256.141 307.472 240.727C288.4 224.103 268.573 206.845 229.281 208.266C224.415 208.433 219.564 208.912 214.759 209.701C184.821 214.673 167.745 230.858 151.287 246.59L151.197 246.666C135.752 261.34 119.793 276.497 92.4253 281.031C88.0949 281.742 83.7237 282.176 79.3381 282.331L75.1369 282.482L71.389 282.618C36.2381 283.66 17.9825 267.732 0.361676 252.318C-18.589 235.785 -38.1744 218.678 -76.7106 219.811H-77.7533C-82.615 219.979 -87.4608 220.459 -92.261 221.247C-106.432 223.547 -119.879 229.092 -131.553 237.447L-131.477 249.28C-119.737 239.783 -105.737 233.488 -90.8404 231.009C-86.5051 230.298 -82.1288 229.864 -77.7382 229.71H-76.8012C-41.6503 228.667 -23.3947 244.61 -5.77388 260.01C13.3431 276.709 33.1098 293.967 72.4016 292.486L76.6028 292.32L79.4136 292.214C84.2658 292.007 89.1008 291.502 93.8911 290.703C123.889 285.731 140.981 269.546 157.514 253.784C172.958 239.095 188.947 223.922 216.451 219.373C220.767 218.669 225.123 218.235 229.493 218.073H230.43C265.566 217.046 283.821 232.974 301.457 248.389C320.393 264.921 339.978 282.028 378.53 280.88H379.572C384.439 280.706 389.289 280.226 394.095 279.444C424.047 274.472 441.124 258.287 457.566 242.555L457.672 242.465C473.102 227.912 489.045 212.799 516.413 208.266C520.744 207.554 525.115 207.12 529.5 206.966H530.437C547.862 206.452 561.13 210.109 572.223 215.807L572.177 204.533Z" fill="#8DC6E8"/>
<path d="M-20.887 450.211C-3.23594 465.626 15.0045 481.554 50.1404 480.436L53.8882 480.3L58.0894 480.148C62.48 479.994 66.8563 479.56 71.1917 478.849C83.2335 476.897 94.7126 472.371 104.847 465.58C80.0625 462.014 64.9352 448.881 50.2613 436.081C31.3861 419.609 11.8763 402.577 -26.5087 403.711H-27.5515C-49.1166 404.527 -64.7577 410.602 -77.6484 418.823C-51.8066 423.175 -36.1654 436.867 -20.887 450.211Z" fill="#0033A1"/>
<path d="M209.064 416.012H208.127C203.757 416.174 199.401 416.608 195.085 417.312C167.641 421.846 151.668 436.958 136.147 451.723C125.04 462.301 113.555 473.001 98.1855 480.436L107.57 481.947C114.481 482.98 121.471 483.385 128.455 483.156H129.422H129.574C171.586 481.569 193.302 460.941 212.449 442.746L212.555 442.64C219.373 435.844 226.687 429.566 234.437 423.856L239.621 420.229C229.765 417.026 219.419 415.598 209.064 416.012Z" fill="#0033A1"/>
<path d="M286.289 438.606C303.94 454.02 322.195 469.948 357.316 468.921H358.238C362.613 468.759 366.974 468.325 371.295 467.621C384.06 465.52 396.183 460.549 406.748 453.083C385.032 448.549 371.053 436.46 357.452 424.506C338.411 407.882 318.72 390.7 279.639 392.166C258.059 392.982 242.418 399.057 229.527 407.353C255.279 411.585 271.01 425.261 286.289 438.606Z" fill="#0033A1"/>
<path d="M509.22 404.724H508.298C503.908 404.878 499.531 405.312 495.196 406.024C467.828 410.557 451.869 425.67 436.44 440.374L436.349 440.465C425.211 451.043 413.681 461.758 398.342 469.178L407.727 470.689C414.636 471.735 421.627 472.144 428.612 471.913H429.579H429.715C471.742 470.326 493.443 449.713 512.59 431.518L512.711 431.412C519.511 424.587 526.81 418.278 534.548 412.537L539.807 408.865C529.937 405.684 519.581 404.282 509.22 404.724Z" fill="#0033A1"/>
<path d="M477.833 367.367C459.97 384.338 441.564 401.883 405.581 403.213H404.644C369.297 404.256 350.966 388.267 333.239 372.777C314.198 356.153 294.522 338.971 255.442 340.452C216.362 341.933 196.701 360.581 177.704 378.625L177.614 378.716C159.766 395.657 141.314 413.232 105.362 414.532L101.69 414.668L98.3503 414.789H97.4133C62.0659 415.832 43.7348 399.828 26.0081 384.353C7.133 367.881 -12.3768 350.849 -50.7618 351.983H-51.8046C-78.5834 353.01 -96.2345 362.077 -110.742 373.487L-110.47 418.688C-106.783 418.189 -102.914 417.811 -99.0604 417.66H-98.0026C-91.1872 417.431 -84.3656 417.856 -77.6313 418.93C-64.7406 410.648 -49.0995 404.573 -27.5344 403.817H-26.4916C11.8934 402.684 31.4032 419.715 50.2783 436.188C64.9523 448.988 80.0796 462.12 104.864 465.687C114.294 459.476 122.197 451.98 129.965 444.53L130.056 444.454C146.573 428.753 163.665 412.537 193.527 407.565C198.337 406.776 203.193 406.296 208.065 406.13C215.221 405.822 222.391 406.237 229.464 407.369C242.354 399.072 257.996 392.997 279.576 392.181C318.656 390.67 338.347 407.898 357.389 424.521C370.99 436.399 384.968 448.534 406.685 453.098C415.009 447.08 422.846 440.415 430.124 433.165C446.656 417.464 463.763 401.218 493.731 396.246C498.526 395.457 503.367 394.977 508.224 394.811H509.281C516.749 394.563 524.222 395.115 531.572 396.458C530.967 396.352 530.393 396.201 529.789 396.11C532.972 394.061 536.272 392.199 539.672 390.534L539.324 330.977C510.687 336.236 494.003 352.013 477.833 367.367Z" fill="#00B2E3"/>
<path d="M539.778 398.302C529.877 395.555 519.608 394.367 509.341 394.78H508.284C503.427 394.947 498.586 395.427 493.791 396.216C463.824 401.188 446.717 417.373 430.184 433.135C414.724 447.824 398.75 462.997 371.246 467.546C366.925 468.249 362.564 468.683 358.189 468.845H357.267C322.116 469.873 303.861 453.945 286.24 438.53C267.168 421.922 247.417 404.724 208.125 406.145C203.253 406.312 198.397 406.791 193.587 407.58C163.665 412.552 146.573 428.737 130.116 444.469L130.025 444.545C114.596 459.219 98.6371 474.376 71.2689 478.91C66.9335 479.621 62.5572 480.055 58.1666 480.21L53.9654 480.361L50.2176 480.497C15.0666 481.54 -3.17385 465.611 -20.8098 450.272C-39.7605 433.74 -59.3459 416.633 -97.882 417.766H-98.9399C-102.854 417.917 -106.662 418.295 -110.35 418.794V428.722C-106.588 428.172 -102.799 427.818 -99.0004 427.665H-98.0634C-62.8973 426.622 -44.6568 442.565 -27.036 457.965C-7.91907 474.664 11.8476 491.922 51.1243 490.441L55.3406 490.274L58.1364 490.169C62.992 489.987 67.832 489.507 72.629 488.733C102.612 483.761 119.703 467.576 136.236 451.814C151.696 437.125 167.67 421.952 195.174 417.403C199.49 416.7 203.846 416.266 208.216 416.104H209.153C244.304 415.076 262.544 431.004 280.18 446.419C299.131 462.952 318.716 480.043 357.252 478.91H358.295C363.161 478.729 368.011 478.249 372.818 477.474C402.77 472.502 419.847 456.317 436.38 440.585L436.47 440.495C451.9 425.836 467.858 410.678 495.227 406.145C499.562 405.433 503.938 404.999 508.329 404.845H509.251C519.623 404.409 529.99 405.821 539.868 409.016L539.778 398.302Z" fill="#8DC6E8"/>
<path d="M-6.36161 79.9929C11.2895 95.3922 29.5299 111.336 64.6658 110.217L68.4136 110.081L72.6148 109.93C77.005 109.781 81.3813 109.352 85.7171 108.646C97.7588 106.694 109.238 102.168 119.372 95.3771C94.5728 91.8106 79.4606 78.6781 64.7866 65.863C45.9115 49.4058 26.4017 32.3743 -11.9833 33.5077H-13.0261C-34.6063 34.3238 -50.2323 40.3838 -63.123 48.6199C-37.3567 52.9571 -21.5796 66.6488 -6.36161 79.9929Z" fill="#0033A1"/>
<path d="M223.587 45.7946H222.65C218.28 45.949 213.924 46.3831 209.608 47.0942C182.165 51.6279 166.191 66.7401 150.671 81.4896C139.548 92.0682 128.078 102.783 112.709 110.203L122.094 111.714C129.005 112.747 135.995 113.152 142.979 112.923H143.946H144.097C186.109 111.412 207.81 90.7232 226.972 72.5281L227.078 72.4223C233.896 65.6265 241.211 59.3477 248.961 53.6378L254.144 49.9958C244.287 46.8001 233.941 45.3777 223.587 45.7946Z" fill="#0033A1"/>
<path d="M294.159 21.9769C272.579 22.7929 256.938 28.8529 244.047 37.1646C269.738 41.3658 285.53 55.0424 300.808 68.3865C306.052 72.9201 311.387 77.5747 317.129 81.7759L316.782 23.4579C309.316 22.1515 301.731 21.6549 294.159 21.9769Z" fill="#0033A1"/>
<path d="M269.95 -29.7521C230.87 -28.2409 211.224 -9.62267 192.228 8.43642H192.137C174.29 25.3923 155.868 42.9376 119.946 44.2372L116.274 44.3732L112.934 44.5092H111.982C76.6499 45.552 58.3188 29.5482 40.5922 14.0733C21.717 -2.39904 2.20716 -19.4305 -36.1778 -18.2971H-37.2206C-76.331 -16.7859 -95.9919 1.86259 -114.988 19.9217C-118.373 23.1406 -121.788 26.3746 -125.34 29.5179L-125.174 57.2186C-116.926 53.1312 -108.114 50.2991 -99.0295 48.8162C-94.2351 48.009 -89.3947 47.5043 -84.5369 47.305H-83.4941C-76.6686 47.0686 -69.8362 47.4937 -63.0927 48.5744C-50.202 40.2778 -34.5759 34.2178 -12.9957 33.4622H-11.953C26.432 32.3288 45.9419 49.3603 64.8171 65.8175C79.491 78.6326 94.6032 91.7651 119.402 95.3316C128.832 89.1205 136.736 81.6097 144.504 74.1745L144.594 74.0838C161.112 58.3974 178.189 42.1669 208.066 37.2101C212.876 36.4209 217.732 35.9413 222.604 35.7744C229.76 35.4665 236.929 35.8817 244.002 37.0136C256.893 28.7019 272.534 22.6419 294.115 21.8258C301.703 21.5106 309.303 22.0173 316.783 23.3371L316.526 -20.4128C304.3 -26.5181 289.581 -30.5077 269.95 -29.7521Z" fill="#00B2E3"/>
<path d="M317.129 81.7763C311.356 77.5751 306.052 72.9659 300.808 68.3869C281.691 51.6879 261.924 34.4751 222.647 35.9863C217.776 36.1533 212.92 36.6328 208.109 37.422C178.172 42.3788 161.095 58.5791 144.638 74.2958L144.548 74.3865C129.118 89.0453 113.159 104.218 85.7913 108.752C81.4556 109.458 77.0793 109.887 72.689 110.036L68.4878 110.187L64.74 110.323C29.589 111.366 11.3486 95.4226 -6.28737 80.0989C-25.2381 63.4754 -44.8235 46.4591 -83.3596 47.5925H-84.4024C-89.2601 47.7918 -94.1006 48.2965 -98.895 49.1037C-107.98 50.5866 -116.792 53.4187 -125.039 57.5061V68.4171C-116.536 63.5995 -107.26 60.2962 -97.6255 58.6546C-93.295 57.948 -88.9237 57.5189 -84.5384 57.3701H-83.6014C-48.4504 56.3274 -30.1949 72.2556 -12.5741 87.6701C6.54289 104.293 26.3097 121.612 65.5863 120.131L69.8026 119.98L72.5984 119.874C77.4561 119.675 82.2965 119.17 87.0909 118.363C117.074 113.391 134.165 97.2059 150.698 81.4439C166.158 66.7699 182.132 51.5973 209.636 47.0485C213.951 46.3374 218.307 45.9033 222.678 45.7488H223.615C258.766 44.7061 277.006 60.6495 294.642 75.9732C301.726 82.4594 309.266 88.4289 317.205 93.8359L317.129 81.7763Z" fill="#8DC6E8"/>
</g>
</g>
</svg>
