<svg width="514" height="459" viewBox="0 0 514 459" fill="none" xmlns="http://www.w3.org/2000/svg">
<path d="M70.3622 0.867752L37.2161 1.55301C18.0839 1.94855 4.20762 19.914 8.65915 38.5253L105.51 443.448C107.663 452.448 115.708 458.796 124.962 458.796H469.487C486.667 458.796 495.852 438.563 484.542 425.63L139.972 31.6029C122.454 11.5704 96.9682 0.317701 70.3622 0.867752Z" fill="#FF0000"/>
<mask id="mask0_23_1137" style="mask-type:alpha" maskUnits="userSpaceOnUse" x="7" y="0" width="483" height="459">
<path d="M70.3622 0.867752L37.2161 1.55301C18.0839 1.94855 4.20762 19.914 8.65915 38.5253L105.51 443.448C107.663 452.448 115.708 458.796 124.962 458.796H469.487C486.667 458.796 495.852 438.563 484.542 425.63L139.972 31.6029C122.454 11.5704 96.9682 0.317701 70.3622 0.867752Z" fill="white"/>
</mask>
<g mask="url(#mask0_23_1137)">
<mask id="mask1_23_1137" style="mask-type:luminance" maskUnits="userSpaceOnUse" x="-7" y="0" width="594" height="472">
<path d="M586.795 457.505L104.721 471.913L-6.9375 0H102.826C112.929 0.0016641 122.905 2.22737 132.029 6.51543C141.153 10.8035 149.196 17.0462 155.574 24.7902L444.532 375.555C472.469 409.497 510.016 434.431 552.37 447.167L586.795 457.505Z" fill="white"/>
</mask>
<g mask="url(#mask1_23_1137)">
<path d="M-44.0352 -75.0488L79.516 484.286H685.245C685.245 484.286 686.245 446.386 685.245 445.413C650.493 445.413 611.771 425.784 566.753 382.84L161.212 -48.4595C153.244 -59.2987 138.292 -75.0046 114.388 -75.0046L-44.0352 -75.0488Z" fill="#00205C"/>
<path d="M-101.057 -161.773L-104.756 -159.203L658.549 914.179L662.248 911.61L-101.057 -161.773Z" fill="#6ABF4B"/>
<path d="M1239.76 -338.907L1237.18 -342.55L-325.441 743.559L-322.845 747.201L1239.76 -338.907Z" fill="#6ABF4B"/>
<path d="M1430.76 -70.4766L1428.18 -74.1191L-134.43 1011.99L-131.833 1015.63L1430.76 -70.4766Z" fill="#72BE49"/>
<path d="M1048.08 -605.302L1045.5 -608.93L-515.693 476.176L-513.112 479.834L1048.08 -605.302Z" fill="#6ABF4B"/>
<path d="M-67.3742 -178.496L-76.0371 -172.545L680.649 903.301L689.312 897.35L-67.3742 -178.496Z" fill="#0033A1"/>
<path d="M-129.394 -141.729L-138.035 -135.723L625.666 937.421L634.307 931.414L-129.394 -141.729Z" fill="#0033A1"/>
<path d="M800.458 815.629L804.159 813.063L40.4988 -260.083L36.8281 -257.502L800.458 815.629Z" fill="#6ABF4B"/>
<path d="M787.206 824.846L790.876 822.295L27.2462 -250.865L23.5605 -248.299L787.206 824.846Z" fill="#6ABF4B"/>
<path d="M771.835 835.847L778.58 831.158L14.9197 -242.032L8.16016 -237.328L771.835 835.847Z" fill="#0083D4"/>
<path d="M812.588 807.518L819.332 802.828L55.6574 -270.347L48.9277 -265.657L812.588 807.518Z" fill="#0083D4"/>
<path d="M-231.913 -70.7682L-235.598 -68.2041L528.646 1004.51L532.331 1001.94L-231.913 -70.7682Z" fill="#6ABF4B"/>
<path d="M515.062 1013.99L518.747 1011.43L-244.898 -61.7168L-248.568 -59.1508L515.062 1013.99Z" fill="#6ABF4B"/>
<path d="M-257.236 -52.9082L-263.998 -48.208L499.711 1024.95L506.473 1020.25L-257.236 -52.9082Z" fill="#0083D4"/>
<path d="M540.445 996.667L547.205 991.977L-216.455 -81.2129L-223.215 -76.5085L540.445 996.667Z" fill="#0083D4"/>
<path d="M944.495 -752.751L-614.746 335.126L-612.139 338.776L947.103 -749.101L944.495 -752.751Z" fill="#478AC9"/>
<path d="M955.744 -736.961L-607.33 345.53L-604.744 349.178L958.33 -733.314L955.744 -736.961Z" fill="#478AC9"/>
<path d="M963.82 -726.251L-597.377 358.961L-592.63 365.632L968.567 -719.58L963.82 -726.251Z" fill="#214191"/>
<path d="M1029.34 -634.163L1023.27 -642.702L-537.971 442.463L-531.913 451.001L1029.34 -634.163Z" fill="#0033A1"/>
<path d="M1071.11 -575.484L1065.03 -584.037L-496.219 501.128L-490.146 509.681L1071.11 -575.484Z" fill="#0033A1"/>
<path d="M1214.12 -374.51L-347.074 710.701L-341.005 719.229L1220.19 -365.982L1214.12 -374.51Z" fill="#0033A1"/>
<path d="M1256.3 -315.261L-305.85 768.604L-299.779 777.149L1262.37 -306.716L1256.3 -315.261Z" fill="#0033A1"/>
<path d="M935.148 -766.521L-626.061 318.699L-621.313 325.37L939.895 -759.85L935.148 -766.521Z" fill="#214191"/>
<path d="M1138.6 -479.979L1136 -483.622L-425.178 601.484L-422.611 605.141L1138.6 -479.979Z" fill="#6ABF4B"/>
<path d="M1144.39 -471.824L-414.855 616.054L-412.248 619.704L1146.99 -468.173L1144.39 -471.824Z" fill="#6ABF4B"/>
<path d="M1154.37 -458.48L-406.838 626.74L-402.082 633.423L1159.13 -451.797L1154.37 -458.48Z" fill="#0083D4"/>
<path d="M1126.19 -498.113L-435.98 585.76L-431.239 592.434L1130.93 -491.439L1126.19 -498.113Z" fill="#0083D4"/>
<path d="M1327.33 -214.784L-234.213 869.863L-231.613 873.519L1329.93 -211.128L1327.33 -214.784Z" fill="#6ABF4B"/>
<path d="M1336.97 -201.109L-225.131 882.722L-222.542 886.367L1339.56 -197.464L1336.97 -201.109Z" fill="#6ABF4B"/>
<path d="M1350.32 -183.087L1345.57 -189.782L-215.664 895.383L-210.934 902.063L1350.32 -183.087Z" fill="#0083D4"/>
<path d="M1404.96 -106.299L-156.234 978.912L-150.157 987.452L1411.04 -97.7591L1404.96 -106.299Z" fill="#214191"/>
<path d="M1446.9 -47.4312L-114.689 1037.25L-108.615 1045.79L1452.98 -38.8888L1446.9 -47.4312Z" fill="#214191"/>
<path d="M1321.65 -223.377L1316.91 -230.043L-244.342 855.122L-239.582 861.773L1321.65 -223.377Z" fill="#0083D4"/>
</g>
</g>
</svg>
