<svg width="514" height="462" viewBox="0 0 514 462" fill="none" xmlns="http://www.w3.org/2000/svg">
<path d="M70.3418 1.01953C97.2433 0.463456 123.012 11.8408 140.725 32.0957L485.295 426.123C497.17 439.702 487.527 460.947 469.487 460.947H124.962C115.246 460.947 106.798 454.282 104.538 444.832L7.68652 39.9092C3.08669 20.6775 17.4255 2.11387 37.1953 1.70508L70.3418 1.01953Z" fill="white" stroke="#1E1E1E" stroke-width="2"/>
<mask id="mask0_27_373" style="mask-type:alpha" maskUnits="userSpaceOnUse" x="7" y="2" width="483" height="458">
<path d="M70.3622 2.01912L37.2161 2.70438C18.0839 3.09992 4.20762 21.0653 8.65915 39.6767L105.51 444.599C107.663 453.599 115.708 459.947 124.962 459.947H469.487C486.667 459.947 495.852 439.714 484.542 426.781L139.972 32.7543C122.454 12.7218 96.9682 1.46907 70.3622 2.01912Z" fill="#F3CD02"/>
</mask>
<g mask="url(#mask0_27_373)">
<path d="M191.243 184.819C135.564 184.819 90.2917 230.101 90.2917 285.762C90.2917 341.423 135.564 386.705 191.243 386.705C246.887 386.705 292.177 341.423 292.177 285.762C292.177 230.101 246.887 184.819 191.243 184.819ZM191.243 392.264C132.507 392.264 84.7402 344.498 84.7402 285.762C84.7402 227.051 132.507 179.268 191.243 179.268C249.971 179.268 297.729 227.051 297.729 285.762C297.729 344.498 249.971 392.264 191.243 392.264Z" fill="#231F20"/>
<path d="M152.594 293.068C144.901 293.15 132.582 294.38 126.376 294.556C120.143 294.745 115.424 288.998 117.425 283.117C119.466 277.234 126.322 257.628 149.309 235.831C174.595 211.844 198.271 204.745 202.138 203.731C206.06 202.703 211.603 204.002 215.565 207.138C246.583 231.936 241.905 255.87 262.836 275.666C277.372 289.403 269.611 308.97 257.752 317.827C240.242 330.943 183.559 353.537 167.589 356.714C155.555 359.094 147.253 357.026 145.198 350.426C143.791 345.762 148.795 329.049 150.079 318.462C151.336 308.361 152.337 294.758 152.594 293.068Z" fill="#231F20"/>
<path fill-rule="evenodd" clip-rule="evenodd" d="M209.609 318.95C214.599 315.624 218.75 314.352 218.696 312.027C218.641 309.687 213.719 300.371 201.969 303.617C190.22 306.848 181.605 312.297 175.859 320.018C175.859 320.018 179.334 312.798 183.972 308.308C188.61 303.846 190.111 302.913 190.111 302.913C190.111 302.913 181.863 299.127 175.183 303.846C168.531 308.538 164.704 313.513 163.001 323.696C161.31 333.85 163.825 337.974 166.232 338.543C168.625 339.096 174.588 336.636 177.685 335.094C180.795 333.594 204.647 322.303 209.609 318.95Z" fill="#EA2227"/>
<path fill-rule="evenodd" clip-rule="evenodd" d="M157.623 292.731C157.623 292.731 157.394 304.319 154.973 318.084C152.567 331.889 147.144 348.507 151.471 351.293C158.935 356.107 178.136 349.36 203.164 338.704C228.247 328.036 250.017 320.072 257.656 310.593C263.538 303.305 266.364 295.625 263.62 286.646C261.618 280.115 250.76 272.097 248.191 267.77C245.622 263.457 228.869 228.923 220.323 220.647C211.791 212.413 209.263 207.559 199.338 210.939C189.467 214.333 165.223 226.082 148.943 244.189C132.676 262.253 127.024 273.03 122.535 285.497C121.778 287.606 125.28 290.892 132.298 289.837C139.343 288.769 173.16 287.187 191.901 290.405C210.615 293.677 240.268 296.03 247.65 294.178C254.953 292.312 258.239 290.825 253.708 295.3C246.799 302.128 236.78 311.689 199.527 330.092C191.618 334.012 163.993 348.102 158.651 343.328C154.649 339.759 158.097 330.97 160.598 315.529C162.505 303.764 163.533 292.663 163.533 292.663L157.623 292.731Z" fill="#FFCC08"/>
<path fill-rule="evenodd" clip-rule="evenodd" d="M196.338 246.553C197.176 244.931 200.813 239.671 204.072 238.887C207.384 238.129 210.359 239.968 207.452 242.335C204.518 244.688 202.098 245.026 200.353 246.134C198.609 247.256 195.485 248.19 196.338 246.553Z" fill="#231F20"/>
</g>
</svg>
