<svg width="514" height="459" viewBox="0 0 514 459" fill="none" xmlns="http://www.w3.org/2000/svg">
<path d="M70.3622 0.867752L37.2161 1.55301C18.0839 1.94855 4.20762 19.914 8.65915 38.5253L105.51 443.448C107.663 452.448 115.708 458.796 124.962 458.796H469.487C486.667 458.796 495.852 438.563 484.542 425.63L139.972 31.6029C122.454 11.5704 96.9682 0.317701 70.3622 0.867752Z" fill="#54B149"/>
<mask id="mask0_27_141" style="mask-type:alpha" maskUnits="userSpaceOnUse" x="7" y="0" width="483" height="459">
<path d="M70.3622 0.867752L37.2161 1.55301C18.0839 1.94855 4.20762 19.914 8.65915 38.5253L105.51 443.448C107.663 452.448 115.708 458.796 124.962 458.796H469.487C486.667 458.796 495.852 438.563 484.542 425.63L139.972 31.6029C122.454 11.5704 96.9682 0.317701 70.3622 0.867752Z" fill="#54B149"/>
</mask>
<g mask="url(#mask0_27_141)">
<path d="M-0.324966 15.269L271.274 169.146L189.322 70.8494L-0.324966 15.269Z" fill="#CDD745"/>
<path d="M-58.1914 137.787L92.9672 175.979C70.9782 165.006 47.8016 153.4 22.9599 140.983L-58.1914 137.787Z" fill="#0C803D"/>
<path d="M430.669 330.448L366.529 245.098L92.9672 175.979C214.916 236.831 300.337 278.199 430.669 330.448Z" fill="#CDD745"/>
<path d="M204.919 333.596C163.274 317.367 116.956 298.844 63.291 276.957L69.3786 303.838L204.919 333.596Z" fill="#0C803D"/>
<path d="M539.534 450.92L480.376 394.073L204.919 333.596C334.844 384.226 419.296 412.521 539.534 450.92Z" fill="#CDD745"/>
<path d="M81.6797 377.662C170.482 409.399 229.26 431.027 301.732 461.098L92.5371 418.918L81.6797 377.662Z" fill="#0C803D"/>
</g>
</svg>
