<svg width="514" height="459" viewBox="0 0 514 459" fill="none" xmlns="http://www.w3.org/2000/svg">
<path d="M70.3622 0.0193633L37.2161 0.704623C18.0839 1.10016 4.20762 19.0656 8.65915 37.6769L105.51 442.6C107.663 451.599 115.708 457.947 124.962 457.947H469.487C486.667 457.947 495.852 437.714 484.542 424.781L139.972 30.7545C122.454 10.722 96.9682 -0.530687 70.3622 0.0193633Z" fill="#1B60C7"/>
<mask id="mask0_45_1058" style="mask-type:alpha" maskUnits="userSpaceOnUse" x="7" y="0" width="483" height="458">
<path d="M70.3622 0.0193633L37.2161 0.704623C18.0839 1.10016 4.20762 19.0656 8.65915 37.6769L105.51 442.6C107.663 451.599 115.708 457.947 124.962 457.947H469.487C486.667 457.947 495.852 437.714 484.542 424.781L139.972 30.7545C122.454 10.722 96.9682 -0.530687 70.3622 0.0193633Z" fill="#1C1C1C"/>
</mask>
<g mask="url(#mask0_45_1058)">
</g>
<g clip-path="url(#clip0_45_1058)">
<path d="M140.086 151.897C140.753 151.837 141.119 151.792 141.119 151.792L172.494 149.105L155.266 168.5L140.086 151.897ZM134.812 191.444L153.577 211.968L201.682 156.862L184.491 138.059C184.491 138.059 121.236 151.473 91.0317 133.003C34.9383 98.7182 119.265 58.8497 148.315 90.3899C163.328 106.682 154.7 122.695 154.7 122.695L170.753 129.815C170.753 129.815 183.327 109.806 160.095 84.3947C137.487 59.6669 110.544 56.1424 110.544 56.1424C50.9556 48.3185 31.0262 89.0219 64.2597 124.69C84.0946 145.997 110.436 151.062 126.563 151.997L148.554 176.051L134.812 191.444Z" fill="white"/>
<path d="M228.125 185.867L247.338 206.882L232.023 244.506L267.83 229.212L277.095 239.346L206.109 269.543L196.164 258.666L218.427 203.576L166.439 226.153L157.051 215.885L228.125 185.867Z" fill="white"/>
<path d="M299.594 242.195L316.549 260.74L231.902 297.507C231.902 297.507 211.886 307.401 195.605 289.593L181.364 274.016L189.591 270.59L196.367 278.001C196.367 278.001 200.991 284.67 214.716 278.71L299.594 242.195Z" fill="white"/>
<path d="M339.771 322.135L348.969 318.043L310.65 276.13L239.557 306.011L279.704 349.923L288.535 346.053L265.927 321.325L288.602 311.352L309.358 334.055L318.552 329.958L297.828 307.291L318.067 298.395L339.771 322.135Z" fill="white"/>
<path d="M402.78 376.9L352.005 321.363L343.098 325.774L359.503 343.718L297.848 369.768L315.312 388.87L376.276 362.064L393.58 380.99L402.78 376.9Z" fill="white"/>
<path d="M97.2347 124.389L103.123 119.907L91.057 111.423L97.683 108.996L96.7139 91.0436L102.476 94.62L109.771 87.9505L113.984 94.5458L119.146 93.2329L118.069 103.975L131.079 91.3925L132.345 97.5019L144.766 95.6888L140.035 105.913L145.98 108.196L127.906 114.5L141.079 117.223L137.25 120.487L144.826 126.048L134.626 128.785L135.778 134.772L114.945 128.618L110.496 132.685L104.135 121.26L98.2512 125.501L97.2347 124.389Z" fill="#ED1C2E"/>
</g>
<defs>
<clipPath id="clip0_45_1058">
<rect width="461.02" height="112.252" fill="white" transform="translate(105.179 24.3296) rotate(47.5644)"/>
</clipPath>
</defs>
</svg>
