<svg width="514" height="459" viewBox="0 0 514 459" fill="none" xmlns="http://www.w3.org/2000/svg">
<path d="M70.3622 0.867752L37.2161 1.55301C18.0839 1.94855 4.20762 19.914 8.65915 38.5253L105.51 443.448C107.663 452.448 115.708 458.796 124.962 458.796H469.487C486.667 458.796 495.852 438.563 484.542 425.63L139.972 31.6029C122.454 11.5704 96.9682 0.317701 70.3622 0.867752Z" fill="#ED1D24"/>
<mask id="mask0_46_2" style="mask-type:alpha" maskUnits="userSpaceOnUse" x="7" y="0" width="483" height="459">
<path d="M70.3622 0.867752L37.2161 1.55301C18.0839 1.94855 4.20762 19.914 8.65915 38.5253L105.51 443.448C107.663 452.448 115.708 458.796 124.962 458.796H469.487C486.667 458.796 495.852 438.563 484.542 425.63L139.972 31.6029C122.454 11.5704 96.9682 0.317701 70.3622 0.867752Z" fill="#F3CD02"/>
</mask>
<g mask="url(#mask0_46_2)">
<path d="M163.711 138.123L145.479 116.601C140.358 120.589 138.41 125.513 142.991 130.919C146.26 134.778 150.726 137.606 153.433 138.779L147.422 145.625C143.357 143.958 138.053 140.309 133.479 134.91C125.681 125.705 126.556 115.687 135.764 107.885C141.358 103.147 149.273 99.5601 156.433 98.8558C164.582 97.9791 172.356 100.563 177.964 107.183C184.791 115.241 183.677 123.949 175.19 131.138C173.056 132.946 167.86 136.368 163.711 138.123ZM170.436 111.365C167.866 108.332 163.495 107.623 158.264 109.014C156.011 109.676 155.456 109.926 153.024 111.146L163.776 123.838C165.144 123.18 167.211 121.891 168.418 120.868C172.242 117.629 172.898 114.272 170.436 111.365Z" fill="white"/>
<path d="M80.4503 93.7346L72.3857 84.215L117.668 38.144L126.484 48.5506L94.7341 78.7318L140.505 65.1017L149.618 75.8584L80.4503 93.7346Z" fill="white"/>
<path d="M198.609 148.055L193.829 142.412L170.506 155.363C169.821 155.731 165.803 158.023 168.455 161.516C169.182 162.522 170.626 163.701 171.435 164.073C171.435 164.073 162.336 168.977 156.068 161.578C151.219 155.854 153.518 149.42 161.405 145.043L200.187 123.614C200.187 123.614 207.824 123.603 212.718 132.008C205.384 136.049 202.115 137.829 202.115 137.829L206.901 143.45L198.609 148.055Z" fill="white"/>
<path d="M257.914 218.061L253.129 212.412L229.799 225.355C229.112 225.721 225.103 228.023 227.758 231.52C228.478 232.518 229.923 233.696 230.73 234.067C230.73 234.067 221.634 238.975 215.366 231.576C210.524 225.86 212.823 219.426 220.719 215.06L259.484 193.609C259.484 193.609 267.134 193.615 272.029 202.022C264.687 206.053 261.413 207.827 261.413 207.827L266.221 213.473L257.914 218.061Z" fill="white"/>
<path d="M223.022 208.137L204.788 186.614C199.659 190.594 197.712 195.517 202.291 200.922C205.548 204.767 210.022 207.603 212.73 208.778L206.729 215.636C202.66 213.964 197.36 210.319 192.766 204.897C184.993 195.721 185.864 185.699 195.073 177.898C200.667 173.159 208.57 169.559 215.728 168.852C223.889 167.99 231.667 170.579 237.276 177.2C244.099 185.254 242.992 193.969 234.505 201.159C232.371 202.966 227.172 206.384 223.022 208.137ZM229.741 181.374C227.168 178.337 222.787 177.616 217.573 179.026C215.3 179.665 214.753 179.925 212.329 181.155L223.068 193.831C224.444 193.182 226.511 191.894 227.719 190.871C231.542 187.631 232.205 184.282 229.741 181.374Z" fill="white"/>
<path d="M321.959 293.951C320.848 290.605 318.614 287.822 316.353 286.744L279.922 307.036L271.141 296.671L313.227 273.331C319.417 275.573 327.747 282.439 331.954 289.778L321.959 293.951Z" fill="white"/>
<path d="M237.203 278.768L248.229 269.607L236.064 255.247L220.216 258.716L211.501 248.43L284.446 235.012L293.542 245.749L246.014 289.169L237.203 278.768ZM275.666 246.769L246.347 253.025L255.318 263.614L275.666 246.769Z" fill="white"/>
<path d="M142.917 178.332C135.034 169.027 137.071 158.551 144.344 153.68C142.666 163.018 149.912 171.602 158.927 172.745C162.224 173.192 166.276 172.411 173.94 168.102C187.039 160.785 210.602 147.847 210.602 147.847L219.432 158.269L177.384 181.495C164.157 188.609 150.806 187.645 142.917 178.332Z" fill="white"/>
<path d="M115.394 112.808L106.581 102.405L151.192 77.7212L160.019 88.1416L115.394 112.808Z" fill="white"/>
<path d="M266.995 291.759L258.167 281.339L302.797 256.679L311.634 267.109L266.995 291.759Z" fill="white"/>
<path d="M286.807 315.904C285.344 314.177 285.62 311.879 287.274 310.478C289.511 308.583 293.394 308.804 295.31 311.066C296.77 312.789 296.564 315.102 294.872 316.535C292.644 318.423 288.707 318.146 286.807 315.904Z" fill="white"/>
<path d="M331.917 322.427C331.895 321.56 331.543 320.048 330.48 318.793C328.729 316.726 325.94 315.903 322.161 316.706C318.664 317.384 314.261 319.651 311.527 321.968C308.044 324.918 307.361 327.845 309.195 330.01C310.392 331.423 312.181 332.474 313.396 332.752L308.905 337.676C306.645 337.357 303.731 335.843 301.076 332.71C296.609 327.436 297.613 320.096 304.308 314.424C308.472 310.896 314.764 308.174 320.05 307.578C326.349 306.911 331.602 309.039 334.921 312.957C337.522 316.027 338.549 319.593 338.364 321.276L331.917 322.427Z" fill="white"/>
<path d="M332.577 357.099C326.554 357.89 320.89 356.097 316.548 350.972C311.102 344.544 312.591 337.567 318.763 332.338C322.922 328.814 329.328 325.895 334.57 325.244C340.699 324.454 346.288 326.374 350.502 331.349C355.966 337.798 354.57 344.788 348.396 350.018C344.228 353.549 337.785 356.392 332.577 357.099ZM344.85 335.029C343.064 332.921 340.087 332.841 336.673 333.923C332.998 335.049 327.309 338.132 324.402 340.595C321.979 342.647 320.88 344.771 322.763 346.994C324.61 349.175 327.362 349.236 330.792 348.137C334.438 346.985 340.255 343.925 343.146 341.476C345.575 339.418 346.679 337.189 344.85 335.029Z" fill="white"/>
<path d="M384.749 390.626L361.535 403.562L354.828 395.645L378.389 382.58C378.796 382.31 379.157 382.106 379.524 381.795C381.179 380.393 381.53 378.42 379.552 376.085C378.349 374.665 376.519 373.797 374.831 373.551L348.507 388.183L341.797 380.262L365.42 367.148C365.824 366.887 366.179 366.684 366.496 366.416C368.26 364.921 368.292 362.793 366.274 360.411C365.183 359.123 364.063 358.244 362.841 357.543L335.47 372.794L328.773 364.889L360.394 347.341C364.522 349.402 368.416 352.499 372.271 357.05C375.334 360.665 376.542 364.675 376.033 367.309C379.066 367.866 383.37 370.151 387.196 374.667C391.893 380.212 391.243 385.466 386.99 389.068C386.31 389.645 385.563 390.186 384.749 390.626Z" fill="white"/>
<path d="M260.639 391.977L263.038 394.858C266.818 399.398 271.099 404.627 279.153 403.513C285.095 402.628 292.902 396.048 294.735 391.03C297.409 383.455 293.541 378.187 290.051 373.996L287.325 370.723L260.639 391.977ZM251.334 387.844C252.788 387.63 254.575 387.369 257.565 384.987L278.538 368.283C281.484 365.937 283.705 363.078 284.535 361.401C284.563 361.524 295.84 374.976 295.84 374.976C300.565 380.651 304.755 386.752 300.684 396.747C298 403.24 289.803 409.261 282.637 410.104C271.34 411.333 265.837 405.261 260.894 399.324L251.334 387.844Z" fill="white"/>
<path d="M241.769 380.815L250.733 334.18L229.982 350.707C227.082 353.017 226.915 353.44 225.353 356.645L219.827 350.01C222.85 349.272 223.972 349.105 226.337 347.221L248.516 329.556C251.908 326.855 252.609 324.845 252.811 323.305L259.862 331.773C259.289 332.956 258.626 334.21 258.274 336.015L252.404 365.955L268.29 353.302C271.147 351.027 271.313 350.604 272.876 347.4L278.401 354.034C275.378 354.772 274.256 354.94 271.936 356.788L241.769 380.815Z" fill="white"/>
<path d="M234.452 299.298L216.772 337.338C215.372 340.559 215.025 341.924 214.918 344.114L207.067 334.686C210.483 333.708 211.524 331.571 213.535 327.211L215.537 322.931L205.868 311.32L199.777 312.83C195.195 314.012 193.83 314.155 192.2 316.833L186.965 310.547C188.278 310.519 190.148 310.626 193.098 309.801L234.452 299.298ZM211.087 309.922L218.029 318.259L223.847 306.438L211.087 309.922Z" fill="white"/>
<path d="M174.727 287.742C178.69 295.621 184.656 299.219 188.524 300.567L181.026 303.417L164.887 284.036C166.701 283.898 168.484 283.276 171.653 280.753L193.475 263.372C195.974 261.382 197.258 259.27 198.088 257.593L204.922 265.799C202.239 266.411 201.413 266.488 199.182 268.265L174.727 287.742Z" fill="white"/>
<path d="M181.574 247.299C183.716 245.593 184.465 243.907 185.295 242.23L192.129 250.436C189.446 251.048 188.62 251.125 186.389 252.902L162.559 271.882C160.328 273.659 160.083 274.435 158.927 276.88L152.094 268.673C153.986 268.183 155.781 267.842 157.923 266.136L181.574 247.299Z" fill="white"/>
<path d="M166.572 217.787L148.891 255.827C147.491 259.048 147.144 260.413 147.038 262.603L139.186 253.175C142.602 252.196 143.644 250.06 145.654 245.7L147.656 241.419L137.987 229.808L131.897 231.319C127.314 232.501 125.949 232.644 124.319 235.322L119.085 229.036C120.397 229.007 122.267 229.115 125.217 228.29L166.572 217.787ZM143.206 228.411L150.149 236.748L155.966 224.927L143.206 228.411Z" fill="white"/>
<path d="M128.035 200.121L136.603 193.297C138.745 191.591 139.494 189.905 140.324 188.228L147.121 196.39C144.475 197.046 143.649 197.123 141.418 198.9L117.588 217.88C115.357 219.657 115.112 220.432 113.92 222.834L107.123 214.671C109.015 214.18 110.81 213.84 112.952 212.134L123.974 203.355L110.452 187.117L99.3402 195.967C97.1089 197.744 96.8642 198.52 95.6723 200.921L88.8749 192.759C90.7672 192.268 92.5619 191.928 94.7039 190.222L118.355 171.384C120.497 169.678 121.246 167.993 122.076 166.315L128.874 174.478C126.228 175.133 125.401 175.211 123.17 176.988L114.513 183.883L128.035 200.121Z" fill="white"/>
<path d="M100.442 147.289C97.4385 143.147 94.4279 140.245 90.2075 138.742L96.9801 136.179L116.864 160.056L110.127 162.662C109.611 158.209 107.636 155.571 105.168 152.963L80.1328 172.902C77.9016 174.679 77.6569 175.455 76.465 177.857L69.6675 169.694C71.5598 169.203 73.3546 168.863 75.4966 167.157L100.442 147.289Z" fill="white"/>
<path d="M341.428 509.161L6.33203 105.64L61.9686 488.697L341.428 509.161Z" fill="#FFD500"/>
</g>
</svg>
