<svg width="514" height="459" viewBox="0 0 514 459" fill="none" xmlns="http://www.w3.org/2000/svg">
<path d="M70.3622 0.867752L37.2161 1.55301C18.0839 1.94855 4.20762 19.914 8.65915 38.5253L105.51 443.448C107.663 452.448 115.708 458.796 124.962 458.796H469.487C486.667 458.796 495.852 438.563 484.542 425.63L139.972 31.6029C122.454 11.5704 96.9682 0.317701 70.3622 0.867752Z" fill="#F35C17"/>
<mask id="mask0_17_1143" style="mask-type:alpha" maskUnits="userSpaceOnUse" x="7" y="0" width="483" height="459">
<path d="M70.3622 0.867752L37.2161 1.55301C18.0839 1.94855 4.20762 19.914 8.65915 38.5253L105.51 443.448C107.663 452.448 115.708 458.796 124.962 458.796H469.487C486.667 458.796 495.852 438.563 484.542 425.63L139.972 31.6029C122.454 11.5704 96.9682 0.317701 70.3622 0.867752Z" fill="#1C1C1C"/>
</mask>
<g mask="url(#mask0_17_1143)">
</g>
<g clip-path="url(#clip0_17_1143)">
<path d="M300.195 262.113L301.006 263.604L300.903 264.365L299.817 265.114L291.883 271.64L291.451 271.254L293.379 267.492L295.799 264.651L298.735 262.411" fill="white"/>
<path d="M290.67 283L296.471 284.404L299.097 285.578L302.019 286.412L304.01 287.845L303.013 289.562L300.631 289.022L295.385 287.814L294.322 286.911L292.314 285.792L290.72 284.488" fill="white"/>
<path d="M288.689 291.672L289.76 291.037L294.929 296.046L297.674 299.12L298.469 300.926L298.841 302.022L297.854 302.771L296.738 302.688L293.759 299.342L290.911 295.583L289.351 293.105" fill="white"/>
<path d="M277.004 292.856L277.823 292.81L277.869 293.629L276.232 294.952L274.408 299.383L272.928 301.986L272.355 302.866L269.487 305.419L268.723 304.747L269.27 302.273L268.332 301.749L268.245 300.866L270.39 298.92L270.436 298.308L275.112 294.099" fill="white"/>
<path d="M262.708 283.11L268.715 282.992L269.893 283.695L270.451 284.46L267.427 285.717L262.459 287.044L260.112 286.86L259.183 286.229L259.171 285.667" fill="white"/>
<path d="M253.281 263.624L256.255 265.185L260.733 269.058L262.977 271.334L263.887 271.394L262.679 272.434L259.837 271.36L254.152 268.411L251.082 266.389L250.921 264.424L252.451 263.208" fill="white"/>
<path d="M271.068 255.099L275.021 258.48L276.883 262.987L277.965 267.121L278.022 268.302L277.411 268.356L274.333 264.895L272.047 261.125L270.727 257.596L270.525 255.482" fill="white"/>
<path d="M282.515 269.3L279.555 269.186L277.112 270.902L275.857 272.554L273.387 278.113L273.426 279.039L272.936 280.032L273.609 283.359L275.865 286.096L279.944 289.84L281.971 290.199L282.827 289.748L284.212 289.129L285.665 287.392L288.215 284.254L288.945 279.333L288.097 275.571L285.244 271.258L282.515 269.3ZM282.365 273.349L285.034 277.448L285.34 278.901L284.384 282.013L282.377 284.885L280.491 286.136L277.846 284.292L276.775 279.49L277.632 276.378L278.568 274.041L280.809 272.971" fill="white"/>
<path d="M73.7031 148.558C74.4807 151.623 76.4319 156.984 79.5231 160.576C82.1545 163.634 85.0628 163.921 86.896 162.344C88.7291 160.766 88.974 158.424 87.6942 153.545C86.1544 147.416 86.2023 141.136 90.8633 137.126C98.648 130.427 109.619 132.818 117.895 142.436C121.644 146.793 123.68 151.022 124.2 153.637L114.171 157.745C113.553 155.63 112.16 152.165 109.337 148.885C106.84 145.983 103.976 145.115 101.912 146.89C100.391 148.199 100.408 150.845 101.588 155.009C103.084 160.904 103.711 167.819 98.5158 172.289C89.9583 179.653 79.0513 176.405 70.5804 166.411C66.6437 161.686 63.9921 156.128 63.6852 152.529" fill="white"/>
<path d="M160.376 193.5L131.089 210.46C125.562 213.614 120.986 216.493 117.164 218.851L108.817 209.151L115.438 204.641L115.393 204.423C107.219 204.817 101.273 202.08 97.3963 197.575C92.2043 191.541 92.4753 185.056 99.5777 178.944C101.567 177.232 104.059 175.489 107.116 173.788L131.388 159.813L140.852 170.812L117.553 184.222C115.608 185.352 113.501 186.778 112.129 187.96C109.761 189.997 108.702 192.64 111.064 195.385C114.283 199.126 122.149 199.139 130.736 194.138L150.911 182.501" fill="white"/>
<path d="M122.943 225.567L152.238 208.601C157.757 205.454 162.332 202.59 166.091 200.142L174.445 209.85L167.661 214.486L167.788 214.634C175.625 214.015 181.855 216.766 186.057 221.649C191.32 227.765 190.592 234.5 184.097 240.089C182.429 241.524 179.413 243.59 177.318 244.863L152.065 259.411L142.601 248.412L166.661 234.49C168.158 233.603 169.74 232.498 171.113 231.317C173.785 229.018 174.824 226.535 172.391 223.708C169.3 220.115 161.259 219.866 151.627 225.365L132.415 236.575" fill="white"/>
<path d="M207.365 248.108L191.546 261.864C187.409 265.552 183.763 268.432 179.438 271.753L179.566 271.901C184.662 269.776 189.852 268.242 194.917 266.546L217.558 259.954L225.247 268.889L210.306 283.349C206.073 287.392 202.608 290.631 198.431 293.824L198.629 294.055C203.81 291.728 208.594 289.872 214.259 287.644L235.37 280.653L244.905 291.734L191.896 305.7L183.026 295.391L195.096 283.131C198.722 279.481 202.314 276.39 206.745 272.577L206.547 272.347C199.573 274.9 196.091 276.423 191.356 277.722L172.373 283.012L163.503 272.703L197.837 237.035" fill="white"/>
<path d="M204.183 319.979L247.664 294.94L257.057 305.857L213.648 330.978" fill="white"/>
<path d="M219.632 337.932L248.926 320.965C254.438 317.81 259.013 314.947 262.78 312.507L271.127 322.207L264.342 326.843L264.477 326.999C272.306 326.371 278.536 329.122 282.745 334.013C288.001 340.121 287.28 346.865 280.786 352.453C279.11 353.881 276.094 355.946 274 357.22L248.747 371.767L239.282 360.768L263.342 346.847C264.839 345.959 266.429 344.863 267.801 343.682C270.473 341.383 271.506 338.892 269.072 336.064C265.981 332.472 257.941 332.223 248.308 337.722L229.096 348.931" fill="white"/>
<path d="M307.952 381.713C307.617 380.542 306.535 378.669 305.226 377.148C299.504 370.498 288.023 372.136 280.994 378.184C277.18 381.466 275.876 385.521 278.762 388.875C281.854 392.468 288.997 392.573 296.315 388.407L307.952 381.713ZM251.573 385.56C252.132 388.67 255.161 393.904 257.92 397.109C262.652 402.609 268.589 404.554 277.458 399.713L281.187 397.562L281.06 397.414C274.74 397.802 270.088 395.953 266.275 391.522C259.895 384.108 262.061 374.404 269.329 368.02C281.556 357.356 301.413 355.707 315.411 371.975C319.946 377.245 322.891 382.679 324.705 388.029L289.059 408.872C281.061 413.494 273.114 416.613 265.709 415.273C259.008 413.986 253.353 409.409 249.087 404.453C244.744 399.405 241.717 394.041 240.936 390.191" fill="white"/>
</g>
<defs>
<clipPath id="clip0_17_1143">
<rect width="348.761" height="131.581" fill="white" transform="translate(145.396 82.2168) rotate(49.2883)"/>
</clipPath>
</defs>
</svg>
