<svg width="514" height="459" viewBox="0 0 514 459" fill="none" xmlns="http://www.w3.org/2000/svg">
<path d="M70.3622 0.867752L37.2161 1.55301C18.0839 1.94855 4.20762 19.914 8.65915 38.5253L105.51 443.448C107.663 452.448 115.708 458.796 124.962 458.796H469.487C486.667 458.796 495.852 438.563 484.542 425.63L139.972 31.6029C122.454 11.5704 96.9682 0.317701 70.3622 0.867752Z" fill="#00416A"/>
<mask id="mask0_23_8272" style="mask-type:alpha" maskUnits="userSpaceOnUse" x="7" y="0" width="483" height="459">
<path d="M70.3622 0.867752L37.2161 1.55301C18.0839 1.94855 4.20762 19.914 8.65915 38.5253L105.51 443.448C107.663 452.448 115.708 458.796 124.962 458.796H469.487C486.667 458.796 495.852 438.563 484.542 425.63L139.972 31.6029C122.454 11.5704 96.9682 0.317701 70.3622 0.867752Z" fill="white"/>
</mask>
<g mask="url(#mask0_23_8272)">
<g clip-path="url(#clip0_23_8272)">
<path d="M-19.0462 194.193C-11.8833 137.116 9.7187 137.983 23.4414 117.323C37.1641 96.664 101.517 63.639 135.749 50.1802C161.008 40.2275 181.667 46.9004 203.872 51.4997C169.49 55.4959 111.96 71.7822 96.6541 84.2985C92.8628 87.8668 89.4401 91.8073 86.4377 96.0608C86.4377 96.0608 86.2113 96.4378 86.0605 96.5509C70.3351 101.487 56.3167 110.75 45.6088 123.28C41.8389 127.05 38.4458 131.159 34.6758 134.929C31.9992 137.606 28.7194 139.415 26.0427 142.092C18.7666 149.632 11.6036 156.908 4.28988 164.448C3.53365 165.073 2.91543 165.848 2.47416 166.724C2.03288 167.6 1.77818 168.558 1.72633 169.537C1.72633 170.405 2.10338 171.837 3.19667 170.857C4.28997 169.877 6.25035 169.274 6.96664 170.48C7.94684 172.29 5.98649 174.853 4.1769 177.266C2.20332 180.667 0.537871 184.237 -0.799484 187.935C-4.62771 195.575 -7.63537 203.6 -9.77203 211.874C-12.127 219.787 -15.0112 227.533 -18.4052 235.06C-24.8599 250.986 -27.1185 268.302 -24.9649 285.351C-23.2684 296.171 -21.572 306.84 -20.3656 317.546C-22.0621 310.007 -24.3618 300.544 -27.9056 288.518C-37.6321 255.719 -26.2091 251.233 -19.1592 194.268M236.709 492.021C246.548 493.34 253.334 494.811 259.781 494.094C287.339 490.814 339.93 479.014 359.836 446.743C379.741 414.472 414.613 387.253 420.57 346.311C426.413 306.35 433.803 270.535 426.263 239.81C426.379 248.319 426.014 256.827 425.169 265.295C423.963 277.321 418.874 288.857 414.727 322.485C412.653 339.488 405.754 352.004 395.651 365.463C391.504 370.929 387.281 376.283 383.624 382.089C383.027 385.001 382.13 387.843 380.948 390.571C376.084 401.881 366.245 420.429 353.728 424.501C351.375 424.974 349.142 425.923 347.169 427.29C345.363 429.206 343.851 431.378 342.682 433.737C339.215 437.86 335.163 441.454 330.656 444.406C329.789 445.612 328.96 446.819 328.243 448.176C304.568 482.445 264.493 489.005 236.709 492.021Z" fill="#B1D78A"/>
<path d="M388.981 359.318C390.451 355.548 392.374 352.042 394.221 348.386C394.598 347.669 394.938 346.915 395.428 346.086C401.227 335.311 405.829 323.933 409.15 312.156C412.801 299.509 413.254 286.153 410.47 273.288C407.607 263.983 404.196 254.856 400.253 245.955C394.674 230.649 392.713 214.25 388.001 198.718C385.674 192.343 382.666 186.238 379.028 180.509C375.111 173.918 370.552 167.731 365.419 162.036C353.147 147.137 338.934 133.95 323.157 122.828C319.619 119.921 315.7 117.511 311.508 115.665C308.151 115.057 304.884 114.031 301.782 112.612C294.242 108.125 290.472 99.8691 282.932 95.6091C272.979 90.0295 262.159 79.8128 250.623 77.8902C246.185 77.5639 241.768 76.9976 237.391 76.1937C230.944 74.2334 224.761 71.7074 218.202 69.8978C215.33 68.7247 212.311 67.951 209.229 67.5982C202.782 67.5982 196.11 69.0684 189.663 68.4652C182.613 67.7489 175.714 64.6952 168.551 63.6019C168.193 63.4924 167.812 63.4802 167.448 63.5663C167.083 63.6524 166.749 63.8338 166.478 64.0921C165.987 64.8084 166.478 65.6755 166.968 66.2787C169.041 69.0685 170.964 72.9515 168.777 75.5151C168.057 76.2035 167.193 76.723 166.248 77.036C165.302 77.349 164.299 77.4476 163.311 77.3247C155.771 77.3247 148.005 74.5349 140.691 76.8346C136.538 77.7649 132.313 78.3326 128.062 78.5311C123.462 79.1343 118.712 79.6243 114.113 80.2275C113.198 80.3117 112.298 80.5145 111.436 80.8307C111.028 81.0279 110.685 81.3397 110.451 81.7279C110.217 82.1161 110.101 82.5642 110.116 83.0174C110.116 84.4877 112.19 85.204 112.529 86.7873C112.61 87.3328 112.51 87.8897 112.244 88.373C111.979 88.8563 111.563 89.2395 111.059 89.464C105.269 91.848 99.2405 93.6048 93.0763 94.7042C92.8501 94.7042 92.6992 94.7043 92.473 94.9305C92.0758 95.0301 91.6729 95.1056 91.2666 95.1567C89.5701 95.6468 87.9868 96.2499 86.4034 96.74C86.4034 96.74 86.6295 96.363 86.7803 96.2499C89.7826 91.9963 93.2054 88.0557 96.997 84.4876C113.623 70.7649 181.52 52.4429 213.564 50.8595C245.609 49.2762 279.275 64.6953 317.389 79.1719C355.504 93.6486 374.467 133.083 401.196 159.208C427.925 185.334 428.264 238.378 425.474 265.597C424.268 277.623 419.179 289.159 415.032 322.787C412.958 339.79 406.059 352.306 395.956 365.765C391.809 371.232 387.586 376.585 383.929 382.391C384.925 374.622 386.681 366.97 389.17 359.545" fill="#46A8C6"/>
<path d="M-17.947 235.21C-14.553 227.684 -11.6689 219.938 -9.31389 212.025C-7.2316 203.734 -4.22175 195.703 -0.341339 188.086C0.945026 184.367 2.61272 180.792 4.63505 177.417C6.44463 175.004 8.40498 172.554 7.42479 170.631C6.5577 169.425 4.63501 169.915 3.65482 171.008C2.67463 172.101 2.18448 170.518 2.18448 169.688C2.20423 168.702 2.44494 167.733 2.88858 166.853C3.33223 165.972 3.9675 165.202 4.74803 164.599C12.0241 157.059 19.1871 149.783 26.5008 142.243C29.1775 139.453 32.4575 137.757 35.1342 135.08C38.9042 131.31 42.4101 127.314 46.067 123.431C61.8632 105.825 74.3795 100.359 91.3066 94.8922C91.7011 94.7807 92.1049 94.705 92.513 94.666C84.1437 97.0788 84.9731 100.962 81.2031 107.409C76.83 114.571 67.1035 120.905 60.5438 125.994C56.2871 129.138 52.2675 132.591 48.5176 136.324C42.8249 142.394 40.1482 150.047 36.2652 157.21C34.7949 160 34.4556 163.393 32.269 165.579C30.0824 167.766 25.9731 168.256 24.2389 171.046C22.5048 173.835 24.2389 177.718 24.2389 181.111C23.8619 188.048 -5.61919 207.501 13.9093 214.136C14.422 214.205 14.8915 214.46 15.2287 214.853C15.3849 215.103 15.486 215.384 15.525 215.676C15.564 215.969 15.5401 216.267 15.4548 216.549C14.8516 221.525 10.8555 225.409 7.68872 229.405C1.76054 237.103 -1.67269 246.429 -2.15085 256.134C-2.37705 259.037 -1.92465 275.813 1.61912 280.412C2.10921 281.129 1.8453 281.506 1.129 281.732C-1.77387 282.448 -5.16679 285.012 -4.94059 287.312C-4.2243 294.248 0.148821 300.431 0.902815 307.217C2.10921 317.773 -5.16684 328.216 -2.86715 338.658C-0.90677 347.631 7.95264 354.681 7.95264 363.917C7.62111 366.113 7.78864 368.355 8.44276 370.477C9.65304 372.242 11.3394 373.628 13.3059 374.473C23.5226 380.656 28.3858 392.795 37.3584 400.599C42.5986 405.085 49.1206 407.875 54.7379 411.909C61.2976 416.659 69.8179 430.495 78.1872 430.985C81.0209 430.79 83.8261 430.298 86.5564 429.515C90.932 429.422 95.2407 430.601 98.9598 432.908C106.99 436.678 114.869 438.487 123.012 441.767C131.872 445.537 140.241 452.436 148.045 457.903C164.18 469.213 180.353 481.201 199.279 487.761C202.068 488.741 206.215 488.967 207.158 486.177C208.1 483.388 203.162 480.598 202.672 477.054C205.725 476.451 208.251 478.864 210.815 480.824C216.238 484.091 222.467 485.776 228.797 485.687C240.759 486.479 252.771 485.372 264.386 482.407C271.06 480.893 277.432 478.268 283.236 474.641C297.185 465.066 313.396 460.919 325.723 449.006C327.498 447.327 329.402 445.789 331.416 444.406C330.549 445.612 329.72 446.819 329.003 448.176C303.028 486.177 256.507 490.173 229.325 492.85C217.186 493.943 204.933 491.267 171.155 493.83C137.376 496.394 134.925 484.481 81.3916 465.329C61.2222 458.166 42.297 448.214 30.7609 429.515C24.4651 419.298 18.1315 409.119 11.9111 398.676C9.12129 393.926 5.84141 389.327 3.42863 384.463C1.01585 379.6 -3.13112 372.211 -5.0538 373.644C-6.03399 374.247 -5.54395 376.81 -6.52415 377.414C-7.50434 378.017 -7.61726 377.187 -7.99426 376.697C-16.0243 364.294 -16.7407 351.816 -17.7208 337.113C-18.9272 319.394 -21.4909 302.731 -24.3938 285.389C-26.7602 268.413 -24.588 251.112 -18.098 235.248" fill="#0F7BB6"/>
<path d="M26.7244 335.756C28.0439 336.472 28.7979 338.659 29.7781 339.903C31.2701 341.81 32.6547 343.798 33.9252 345.86C35.2447 348.046 37.205 349.63 38.5245 351.929C38.8976 352.506 39.2253 353.111 39.5047 353.739C40.2995 355.485 40.6368 357.405 40.4849 359.318C40.4849 360.902 39.7685 362.372 39.6177 363.805C39.1276 367.198 40.9374 369.384 42.1815 372.438C44.4045 377.239 46.9226 381.897 49.7214 386.387C49.0051 386.764 48.251 386.161 47.7609 385.52C43.0106 380.135 38.5555 374.497 34.4153 368.63C32.1227 365.09 30.2501 361.294 28.8356 357.32C26.5359 351.138 28.1193 344.088 25.5558 338.244C25.0657 336.548 24.9527 334.474 26.8754 335.681M46.4416 203.43C44.8582 206.333 43.5387 209.387 42.1815 212.403C35.3966 228.323 32.0808 245.506 32.4549 262.807C32.4549 265.974 32.2287 269.857 29.175 270.837C26.1213 271.817 26.2721 237.435 26.7622 234.532C27.7424 229.669 28.5718 224.957 29.175 220.093C29.8913 214.514 33.1711 210.518 35.2446 205.504C37.0689 200.854 39.395 196.417 42.1815 192.271C44.6117 189.593 46.2098 186.266 46.7807 182.695C46.7807 181.376 46.4038 179.906 46.4038 178.548C46.4038 170.669 57.7137 167.502 60.2395 160.339C60.923 156.428 62.4965 152.726 64.8388 149.52C69.4536 144.279 74.6668 139.598 80.3713 135.571C86.0639 131.311 95.6773 130.821 102.463 129.501C103.517 129.165 104.634 129.078 105.727 129.248C106.82 129.418 107.858 129.84 108.759 130.481C106.001 133.61 102.658 136.171 98.9195 138.021C91.4055 142.727 84.75 148.681 79.2401 155.627C73.6606 162.677 70.1168 171.046 64.1602 177.719C57.2948 185.585 51.315 194.182 46.3283 203.355M258.201 329.913C259.294 327.952 261.103 329.536 262.348 330.29C263.592 331.044 267.211 333.683 269.888 335.643C271.978 337.36 273.47 339.697 274.148 342.316C274.864 344.502 274.864 347.669 273.167 348.499C272.51 348.704 271.818 348.776 271.132 348.711C270.446 348.646 269.779 348.446 269.171 348.122C267.933 347.665 266.755 347.057 265.665 346.312C264.153 345.302 262.728 344.167 261.405 342.919C259.773 341.241 258.492 339.254 257.635 337.076C257.092 335.929 256.872 334.657 256.998 333.395C257.124 332.132 257.592 330.929 258.351 329.913M232.226 347.745C216.621 350.072 200.877 351.332 185.101 351.515C180.533 351.123 176.061 349.976 171.868 348.122C168.475 346.651 167.382 345.935 166.779 344.616C166.497 341.88 166.74 339.116 167.495 336.472C168.602 334.363 170.129 332.503 171.981 331.006C173.518 329.644 175.143 328.384 176.845 327.236C178.541 326.03 180.615 325.766 192.151 326.746C199.664 327.129 207.04 328.906 213.904 331.986C217.751 333.764 221.181 336.333 223.969 339.526C227.023 341.826 231.132 343.296 232.942 345.596C234.525 347.405 233.168 347.782 232.226 347.895M104.047 275.625C107.183 273.518 110.631 271.915 114.263 270.875C116.14 270.491 118.043 270.252 119.956 270.159C121.426 269.933 121.766 269.933 122.029 270.159C122.293 270.385 121.803 271.026 120.333 271.855C118.221 272.988 116.226 274.327 114.376 275.851C112.68 277.435 110.983 279.131 112.077 280.828C113.17 282.524 116.45 281.921 118.863 280.601C121.275 279.282 124.706 276.605 126.026 276.002C127.345 275.399 128.325 275.399 127.986 276.718C127.646 278.038 127.006 279.621 127.986 280.488C129.132 280.961 130.396 281.074 131.608 280.811C132.82 280.549 133.924 279.923 134.772 279.018C137.449 276.718 138.278 275.248 141.822 272.232C143.929 270.694 146.119 269.272 148.381 267.972C150.146 266.34 152.206 265.06 154.451 264.202C161.14 262.61 168.089 262.443 174.847 263.712C185.403 265.522 187.853 267.482 191.133 267.105C193.093 266.879 193.433 266.238 194.036 264.315C194.639 262.393 195.016 262.129 196.109 261.639C197.202 261.148 198.296 261.412 200.105 260.545C204.445 258.9 208.117 255.865 210.548 251.912C213.941 246.936 215.148 243.882 216.731 241.582C218.314 239.283 219.521 238.679 221.481 238.792C224.271 238.792 225.854 242.789 226.948 248.745C228.041 254.702 228.531 260.055 231.321 261.865C232.473 262.477 233.746 262.827 235.049 262.893C236.352 262.958 237.653 262.735 238.861 262.242C240.777 261.428 242.851 261.054 244.93 261.148C248.217 261.149 251.43 262.12 254.167 263.938C257.34 266.126 260.875 267.735 264.61 268.688C268.983 269.669 270.302 269.669 271.546 269.895C272.79 270.121 273.356 269.895 274.11 272.571C274.864 275.248 276.41 278.415 278.106 278.641C279.472 278.747 280.825 278.314 281.876 277.435C283.763 275.961 285.754 274.626 287.833 273.439C289.231 272.735 290.813 272.485 292.36 272.721C293.907 272.958 295.342 273.669 296.466 274.758C301.989 281.385 305.449 289.485 306.419 298.056C308.228 309.969 309.472 321.355 306.419 322.448C303.365 323.541 298.389 308.952 293.412 311.138C289.039 312.948 291.112 348.31 291.339 355.963C291.565 363.616 293.148 375.039 290.132 382.918C287.116 390.798 284.289 394.568 272.15 404.52C266.261 409.075 260.623 413.946 255.26 419.11C251.715 422.259 247.848 425.026 243.724 427.366C243.072 427.746 242.345 427.981 241.594 428.057C240.843 428.132 240.085 428.045 239.37 427.802C238.656 427.559 238.001 427.165 237.452 426.648C236.902 426.131 236.47 425.501 236.184 424.803C234.918 419.942 232.21 415.579 228.418 412.286C223.178 408.29 221.971 404.747 223.328 402.447C224.686 400.147 226.835 400.034 230.378 400.637C236.517 402.3 242.928 402.711 249.228 401.844C258.578 400.373 272.677 396.604 273.884 390.081C274.751 385.482 271.094 380.845 270.114 377.075C269.134 373.305 267.06 366.142 270.981 362.975C273.544 360.902 275.731 363.956 277.051 365.765C278.37 367.575 281.914 369.535 281.801 364.559C281.688 359.582 281.574 354.719 281.084 350.346C280.927 346.317 281.218 342.284 281.951 338.32C282.218 336.74 282.078 335.118 281.544 333.607C281.009 332.097 280.099 330.747 278.898 329.686C276.108 327.877 270.415 325.087 268.229 323.73C266.042 322.373 263.743 321.053 263.629 317.547C262.948 312.88 261.469 308.366 259.256 304.201C257.857 301.983 256.909 299.511 256.466 296.925C256.24 295.229 255.26 293.759 252.47 293.155C249.68 292.552 248.7 292.779 249.304 295.116C250.416 297.502 251.154 300.045 251.49 302.656C251.431 303.685 251.066 304.673 250.441 305.492C249.816 306.312 248.961 306.926 247.984 307.255C246.579 308.182 244.956 308.725 243.276 308.831C241.597 308.937 239.918 308.602 238.408 307.858C233.806 305.137 228.549 303.72 223.203 303.76C217.856 303.8 212.621 305.295 208.06 308.085C205.27 308.952 204.893 309.065 199.804 310.384C199.037 310.692 198.209 310.819 197.384 310.753C196.56 310.688 195.763 310.432 195.054 310.007C194.518 309.559 194.136 308.955 193.96 308.279C193.785 307.603 193.824 306.889 194.073 306.237C194.564 304.164 196.976 299.677 194.79 298.697C192.603 297.717 190.303 300.771 188.607 304.88C186.856 309.55 184.485 313.962 181.557 318C178.671 320.498 175.214 322.246 171.491 323.089C167.344 324.559 164.705 324.182 163.009 331.232C161.822 335.384 161.126 339.661 160.936 343.975C160.936 351.024 162.142 352.118 162.142 357.094C162.142 362.938 161.539 364.634 163.725 367.311C164.442 368.178 165.309 368.894 166.138 368.178C166.967 367.462 166.138 366.707 165.912 365.614C165.529 363.368 165.529 361.074 165.912 358.828C165.898 357.931 165.974 357.034 166.138 356.152C166.138 354.945 166.854 354.342 167.834 354.455C170.021 354.681 171.341 356.416 174.621 356.642C177.9 356.868 185.29 357.019 189.927 357.358C194.564 357.697 204.139 358.338 211.679 358.564C218.481 358.885 225.296 358.721 232.075 358.074C239.615 357.207 241.047 356.868 242.405 356.868C243.762 356.868 250.548 357.584 251.754 362.221C252.357 364.634 252.131 365.614 250.435 365.991C248.738 366.368 241.311 366.858 237.805 367.311C234.299 367.763 226.495 368.894 222.499 369.007C218.503 369.12 213.64 368.63 210.737 368.63C207.834 368.63 201.274 369.12 201.01 378.47C201.01 381.637 200.784 384.426 198.597 386.01C192.761 389.346 186.717 392.306 180.502 394.869C174.814 397.816 168.248 398.593 162.029 397.056C158.259 395.472 156.788 393.06 158.033 389.516C159.277 385.972 159.503 383.22 158.033 381.976C156.562 380.732 154.753 379.412 147.477 379.789C143.481 380.015 138.127 381.976 135.714 378.47C133.389 374.425 130.033 371.069 125.988 368.743C119.918 364.596 116.865 361.807 117.128 351.515C117.902 338.24 117.826 324.93 116.902 311.666C115.432 300.846 108.646 295.531 104.763 287.991C101.257 281.431 99.7865 278.151 104.763 275.474M307.964 143.186C308.19 142.96 309.171 143.676 309.774 144.053C311.583 145.146 313.544 146.014 315.617 146.956C319.764 148.916 323.157 150.726 323.874 155.702C324.058 156.343 324.058 157.022 323.874 157.663C323.874 157.889 323.874 158.04 323.647 158.266C322.554 159.736 318.294 157.399 317.088 156.682C315.603 155.632 314.43 154.199 313.695 152.536C312.978 151.329 311.998 149.972 311.282 148.766C310.566 147.559 309.472 146.089 308.492 144.769C308.266 144.166 307.889 143.45 308.115 143.186M277.955 251.61C277.465 253.081 275.995 255.116 271.886 253.684C267.776 252.251 259.746 249.914 255.599 248.821C251.652 247.964 247.595 247.722 243.573 248.104C241.387 248.33 241.273 246.144 242.48 245.692C243.686 245.239 252.056 243.015 255.826 241.922C258.014 241.104 260.423 241.104 262.611 241.922C264.082 242.299 271.245 244.598 274.638 245.692C278.031 246.785 279.124 248.745 277.918 251.874M270.642 212.139C270.038 213.835 267.965 214.815 262.875 214.325C257.183 213.835 237.994 211.046 232.716 215.042C229.813 217.228 229.323 217.718 228.946 223.298C228.569 228.877 227.965 228.387 227.136 228.538C226.307 228.689 223.969 227.445 221.443 222.959C218.918 218.472 208.211 213.722 193.885 212.516C179.559 211.309 167.495 211.309 152.83 218.962C138.165 226.616 122.67 238.378 115.13 234.872C111.36 233.062 108.834 226.842 112.717 211.423C114.905 201.359 119.439 191.956 125.95 183.977C128.363 181.3 132.02 178.284 134.433 179.717C136.845 181.15 133.829 189.444 131.379 193.214C128.928 196.983 128.702 199.17 133.188 197.587C138.268 195.866 142.885 193.003 146.685 189.217C151.171 184.731 158.221 171.725 162.104 173.798C165.987 175.872 161.011 184.618 163.084 185.56C165.158 186.503 169.267 181.79 173.037 176.588C176.807 171.385 179.484 165.278 184.347 163.582C189.21 161.885 202.066 160.528 220.916 168.822C236.295 175.847 250.329 185.505 262.385 197.361C271.019 206.484 271.358 210.48 270.755 212.176M124.291 262.694C124.291 262.091 125.988 261.827 127.081 261.978C131.821 261.48 136.326 259.664 140.087 256.738C144.574 252.591 148.834 247.275 151.397 244.598C152.842 242.718 154.767 241.263 156.97 240.387C159.174 239.511 161.573 239.247 163.914 239.622C171.077 240.338 177.863 242.525 177.146 245.692C176.769 247.388 172.773 246.898 168.777 246.069C164.781 245.239 158.824 244.372 157.241 246.936C154.923 251.334 151.832 255.28 148.118 258.585C143.215 262.896 136.927 265.304 130.399 265.371C123.349 265.371 124.329 263.184 124.442 262.694M116.073 250.743C118.636 251.12 126.289 252.327 127.383 252.327C128.476 252.327 130.286 252.553 130.172 253.91C130.059 255.267 125.573 256.813 119.126 255.984C112.68 255.154 109.89 254.4 110.154 252.214C110.418 250.027 113.547 250.404 116.224 250.743M338.652 181.037C337.785 176.89 333.789 174.364 334.166 170.217C334.166 169.991 334.166 169.5 335.259 169.99C340.009 172.177 344.835 180.056 348.265 183.487C353.845 189.067 359.311 194.797 364.552 200.867C368.856 205.438 372.498 210.59 375.371 216.173C381.953 231.298 384.461 247.882 382.647 264.277C381.894 273.097 380.393 281.837 378.161 290.403C376.201 297.679 376.351 305.936 374.165 312.759C373.527 314.807 372.193 316.567 370.395 317.736C369.792 318.113 368.321 318.113 368.321 315.662C368.321 299.263 368.321 282.863 367.454 266.653C367.203 262.279 366.839 257.906 366.361 253.533C364.965 241.686 361.932 230.09 357.351 219.076C352.865 208.256 338.049 199.283 338.501 187.144C338.803 185.17 338.803 183.161 338.501 181.187M-3.20912 338.81C-1.24874 347.782 7.61067 354.832 7.61067 364.069C7.27914 366.264 7.44668 368.506 8.10079 370.628C9.31107 372.394 10.9976 373.779 12.9642 374.624C23.1808 380.807 28.0441 392.946 37.0166 400.75C42.2569 405.237 48.7789 408.026 54.3961 412.06C60.9559 416.81 69.4759 430.646 77.8452 431.136C80.6789 430.942 83.4843 430.449 86.2147 429.666C90.5903 429.573 94.8987 430.752 98.6178 433.059C106.648 436.829 114.527 438.639 122.557 441.919C131.416 445.689 139.786 452.587 147.59 458.054C163.725 469.364 179.898 481.352 198.824 487.912C201.613 488.892 205.76 489.118 206.703 486.329C207.645 483.539 202.707 480.749 202.217 477.205C205.27 476.602 207.796 479.015 210.36 480.975C215.783 484.242 222.012 485.927 228.342 485.839C240.304 486.631 252.316 485.524 263.931 482.559C270.605 481.044 276.977 478.419 282.781 474.793C296.73 465.217 312.941 461.07 325.268 449.157C330.358 444.294 339.217 439.317 342.874 433.851C344.043 431.492 345.554 429.319 347.36 427.404C349.386 426.133 351.6 425.192 353.92 424.614C366.436 420.467 376.54 401.994 381.139 390.685C385.399 380.619 384.909 369.573 389.019 359.356C390.489 355.586 392.412 352.08 394.259 348.423C394.636 347.707 394.975 346.953 395.465 346.123C401.265 335.349 405.867 323.971 409.188 312.194C412.839 299.547 413.292 286.191 410.507 273.325C407.645 264.021 404.233 254.894 400.291 245.993C394.711 230.687 392.751 214.288 388.038 198.755C385.712 192.38 382.704 186.275 379.066 180.546C375.148 173.956 370.59 167.768 365.456 162.074C353.256 147.148 339.075 133.957 323.308 122.866C319.77 119.958 315.85 117.548 311.659 115.703C308.302 115.095 305.034 114.069 301.932 112.649C294.392 108.163 290.622 99.9067 283.082 95.6467C273.13 90.0671 262.31 79.8506 250.774 77.9279C246.336 77.6016 241.918 77.0352 237.541 76.2313C231.095 74.271 224.912 71.7451 218.352 69.9356C215.48 68.7624 212.461 67.9886 209.38 67.6358C202.933 67.6358 196.26 69.1061 189.813 68.503C182.764 67.7867 175.865 64.7329 168.702 63.6397C168.344 63.5302 167.963 63.5179 167.599 63.604C167.234 63.6901 166.899 63.8716 166.628 64.1298C166.138 64.8461 166.628 65.7131 167.118 66.3163C169.192 69.1061 171.114 72.9892 168.928 75.5528C168.208 76.2412 167.344 76.7607 166.399 77.0737C165.453 77.3867 164.45 77.4853 163.461 77.3624C155.921 77.3624 148.155 74.5726 140.842 76.8723C136.69 77.8105 132.464 78.3781 128.212 78.5687C123.613 79.1719 118.863 79.662 114.263 80.2652C113.349 80.3494 112.449 80.5522 111.587 80.8684C111.178 81.0656 110.836 81.3774 110.602 81.7656C110.367 82.1539 110.251 82.6018 110.267 83.055C110.267 84.5253 112.341 85.2416 112.567 86.8249C112.647 87.3704 112.547 87.9274 112.282 88.4107C112.016 88.894 111.6 89.2772 111.096 89.5017C105.307 91.8858 99.2778 93.6425 93.1136 94.7419C83.9902 97.1547 85.2344 101.038 81.2006 107.748C77.1667 114.459 67.101 121.245 60.5412 126.334C56.2845 129.478 52.2649 132.93 48.515 136.664C42.8223 142.734 40.1457 150.387 36.2626 157.55C34.7923 160.339 34.453 163.732 32.2664 165.919C30.0798 168.106 25.9706 168.596 24.2364 171.385C22.5022 174.175 24.2364 178.058 24.2364 181.602C23.7463 188.539 -5.62176 207.992 13.9067 214.627C14.4194 214.696 14.8889 214.951 15.2261 215.343C15.5343 215.852 15.6666 216.448 15.603 217.04C14.9998 222.016 11.0036 225.899 7.83686 229.895C1.90868 237.594 -1.52454 246.92 -2.0027 256.624C-2.2289 259.527 -1.77651 276.304 1.76727 280.903C2.25736 281.619 1.99345 281.996 1.27715 282.222C-1.62573 282.939 -5.01864 285.502 -4.79245 287.802C-4.07615 294.739 0.296968 300.922 1.05096 307.707C2.14425 318.15 -5.01869 328.593 -2.71901 339.036M152.34 328.819C153.81 328.819 154.149 329.046 154.903 329.913C155.657 330.78 155.507 331.232 154.903 333.909C153.833 338.166 153.227 342.527 153.094 346.915C152.795 352.804 153.405 358.705 154.903 364.408C156.223 367.801 153.207 367.801 152.717 367.801H149.814C148.608 367.801 148.231 366.708 147.741 365.011C147.017 359.538 146.727 354.017 146.873 348.499C146.688 342.864 147.892 337.271 150.379 332.212C151.247 329.8 151.36 328.706 152.34 328.819ZM243.875 272.27C245.458 271.29 246.438 271.063 247.645 270.196C248.851 269.329 248.964 269.593 249.944 270.196C252.808 272.526 256.178 274.153 259.784 274.946C263.249 276.025 266.831 276.684 270.453 276.907C271.659 276.907 272.866 276.53 273.733 278.377C274.6 280.225 274.223 281.28 273.017 281.77C269.886 282.977 266.515 283.43 263.177 283.09C259.146 282.756 255.204 281.723 251.528 280.036C248.655 279.072 245.947 277.673 243.498 275.889C242.178 274.569 242.404 273.212 243.988 272.119M160.558 277.472C164.807 279.603 169.533 280.602 174.281 280.375C178.545 280.441 182.808 280.151 187.024 279.508C188.494 279.508 189.097 277.812 189.21 275.738C189.436 271.742 187.024 272.571 184.46 272.685C181.897 272.798 179.597 272.194 175.978 272.307C171.458 272.866 166.887 272.866 162.368 272.307C160.097 271.978 157.98 270.966 156.298 269.405C155.318 268.688 154.828 269.028 153.999 270.988C153.169 272.948 156.298 274.758 160.558 277.171" fill="#00416A"/>
<path d="M39.4994 353.625C40.2942 355.372 40.6316 357.292 40.4797 359.205C40.4797 360.675 39.7632 362.108 39.6124 363.691C39.1223 367.084 40.9321 369.27 42.1762 372.324C44.3992 377.125 46.9174 381.784 49.7161 386.273C48.9998 386.65 48.2458 386.047 47.7557 385.406C43.0053 380.021 38.5503 374.383 34.4101 368.516C32.1411 364.962 30.2698 361.17 28.8304 357.207C26.5307 351.024 28.1141 343.974 25.5505 338.131C24.9473 336.66 24.8342 334.624 26.7569 335.718C28.0764 336.434 28.8304 338.621 29.8106 339.865C31.3026 341.772 32.687 343.76 33.9575 345.821C35.277 348.008 37.2375 349.591 38.5569 351.891C39.031 352.378 39.4026 352.955 39.6502 353.588M32.4873 263.108C32.4873 266.275 32.2612 270.158 29.2075 271.138C26.1538 272.118 26.3046 237.736 26.7947 234.833C27.7748 229.97 28.6043 225.258 29.2075 220.394C29.9238 214.815 33.2036 210.819 35.2771 205.805C37.1013 201.155 39.4272 196.718 42.2137 192.572C44.644 189.894 46.2422 186.567 46.8132 182.996C46.8132 181.677 46.4363 180.206 46.4363 178.849C46.4363 170.97 57.7461 167.803 60.272 160.64C60.9555 156.729 62.529 153.027 64.8713 149.821C69.4861 144.58 74.699 139.899 80.4035 135.872C86.0962 131.612 95.7098 131.008 102.496 129.802C103.549 129.466 104.666 129.379 105.759 129.549C106.852 129.719 107.89 130.141 108.792 130.782C106.033 133.911 102.691 136.472 98.9519 138.322C91.438 143.028 84.7825 148.982 79.2726 155.928C73.693 162.978 70.1492 171.347 64.1927 178.02C57.2241 185.838 51.1891 194.442 46.2099 203.656C44.6265 206.559 43.3072 209.612 41.95 212.628C35.2135 228.559 31.949 245.742 32.3741 263.033M323.416 158.114C322.323 159.585 318.063 157.134 316.856 156.531C315.371 155.481 314.199 154.048 313.463 152.384C312.747 151.065 311.767 149.821 311.05 148.614C310.334 147.408 309.241 145.937 308.261 144.618C308.034 144.241 307.657 143.525 307.884 143.298C308.11 143.072 309.09 143.789 309.693 144.166C311.503 145.259 313.463 146.126 315.537 147.068C319.684 149.029 323.077 150.838 323.793 155.815C323.977 156.455 323.977 157.135 323.793 157.775C323.734 157.91 323.658 158.037 323.567 158.152M366.318 253.344C366.924 257.694 367.289 262.074 367.411 266.463C368.128 282.976 368.392 299.262 368.278 315.473C368.278 317.886 369.749 317.886 370.352 317.546C372.185 316.416 373.53 314.641 374.122 312.57C376.309 305.784 376.195 297.49 378.118 290.214C380.409 281.661 381.91 272.916 382.604 264.088C384.418 247.693 381.91 231.109 375.328 215.984C372.455 210.401 368.813 205.248 364.509 200.677C359.268 194.721 353.839 188.915 348.222 183.298C344.716 179.905 339.966 171.988 335.216 169.801C334.236 169.311 334.123 169.801 334.009 170.028C333.632 174.288 337.779 176.7 338.496 180.847C338.679 182.791 338.679 184.747 338.496 186.691C338.119 198.83 352.935 207.803 357.346 218.623C361.798 229.683 364.777 241.281 366.205 253.118" fill="#7FA9C8"/>
<path d="M184.349 272.986C181.785 272.986 179.485 272.496 175.866 272.609C171.347 273.167 166.776 273.167 162.257 272.609C159.986 272.279 157.869 271.267 156.187 269.706C155.207 268.99 154.717 269.329 153.887 271.289C153.058 273.25 156.187 275.059 160.447 277.472C164.696 279.602 169.422 280.602 174.17 280.375C178.434 280.441 182.696 280.151 186.912 279.508C188.382 279.508 188.986 277.811 189.099 275.738C189.325 271.968 186.912 272.684 184.349 272.684M270.304 276.831C266.682 276.608 263.1 275.95 259.635 274.871C256.01 274.135 252.627 272.502 249.795 270.121C248.815 269.254 248.589 269.14 247.496 270.121C246.402 271.101 245.422 271.101 243.726 272.081C243.391 272.25 243.103 272.499 242.887 272.805C242.67 273.111 242.532 273.465 242.484 273.836C242.435 274.208 242.479 274.586 242.61 274.937C242.741 275.288 242.956 275.602 243.236 275.851C245.701 277.61 248.405 279.006 251.266 279.998C254.967 281.614 258.897 282.645 262.915 283.052C266.253 283.378 269.62 282.926 272.754 281.732C273.961 281.242 274.338 279.923 273.471 278.339C272.604 276.756 271.284 276.869 270.191 276.869M152.04 367.574C152.53 367.574 155.81 367.574 154.227 364.181C151.748 354.179 151.748 343.723 154.227 333.72C154.83 331.043 155.094 330.553 154.227 329.724C153.359 328.894 153.133 328.744 151.663 328.517C150.796 328.517 150.683 329.498 149.703 332.287C147.197 337.406 146.006 343.068 146.234 348.762C146.088 354.281 146.378 359.802 147.101 365.275C147.591 366.971 147.969 368.064 149.175 368.064C150.142 368.002 151.111 368.002 152.078 368.064M221.257 238.981C224.046 238.981 225.63 242.977 226.723 248.933C227.816 254.89 228.307 260.243 231.096 262.053C232.249 262.665 233.521 263.016 234.824 263.081C236.127 263.146 237.429 262.924 238.636 262.43C240.552 261.616 242.626 261.242 244.706 261.337C247.992 261.338 251.205 262.308 253.942 264.126C257.115 266.314 260.651 267.923 264.385 268.877C266.666 269.442 268.984 269.845 271.322 270.083C272.528 270.083 273.131 270.083 273.885 272.76C274.639 275.436 276.185 278.603 277.882 278.829C279.248 278.935 280.601 278.502 281.652 277.623C283.539 276.149 285.529 274.814 287.608 273.627C289.006 272.924 290.588 272.673 292.135 272.909C293.682 273.146 295.117 273.857 296.241 274.946C301.766 281.561 305.192 289.672 306.081 298.244C307.891 310.158 309.135 321.543 306.081 322.636C303.027 323.73 298.051 309.14 293.075 311.326C288.701 313.136 290.775 348.498 291.001 356.151C291.227 363.804 292.811 375.227 289.795 383.107C286.779 390.986 283.951 394.756 271.812 404.709C265.923 409.264 260.285 414.134 254.922 419.298C251.377 422.447 247.51 425.215 243.386 427.555C242.734 427.934 242.008 428.17 241.257 428.245C240.506 428.32 239.747 428.233 239.033 427.99C238.318 427.747 237.664 427.354 237.114 426.836C236.564 426.319 236.132 425.689 235.846 424.991C234.58 420.131 231.873 415.767 228.08 412.475C222.84 408.479 221.634 404.935 222.991 402.635C224.348 400.335 226.497 400.222 230.041 400.825C236.179 402.488 242.59 402.899 248.891 402.032C258.24 400.562 272.34 396.792 273.546 390.27C274.413 385.67 270.756 381.033 269.776 377.263C268.796 373.493 266.722 366.33 270.643 363.163C273.207 361.09 275.393 364.144 276.713 365.953C278.032 367.763 281.576 369.723 281.463 364.747C281.35 359.77 281.237 354.907 280.747 350.534C280.59 346.505 280.881 342.472 281.614 338.508C281.861 336.899 281.673 335.254 281.069 333.743C280.466 332.231 279.47 330.909 278.183 329.912C275.393 328.103 269.701 325.313 267.514 323.956C265.328 322.599 263.028 321.279 262.915 317.773C262.234 313.107 260.754 308.592 258.542 304.427C257.142 302.209 256.194 299.736 255.752 297.151C255.526 295.455 254.545 293.985 251.756 293.381C248.966 292.778 247.986 293.004 248.589 295.342C249.702 297.727 250.439 300.271 250.776 302.882C250.717 303.911 250.351 304.899 249.727 305.718C249.102 306.538 248.246 307.152 247.269 307.481C245.864 308.408 244.242 308.951 242.562 309.057C240.882 309.163 239.204 308.827 237.694 308.084C233.091 305.363 227.835 303.946 222.488 303.986C217.142 304.026 211.907 305.521 207.345 308.31C204.556 309.178 204.179 309.291 199.089 310.61C198.322 310.918 197.494 311.045 196.67 310.979C195.846 310.914 195.048 310.659 194.339 310.233C193.804 309.785 193.422 309.181 193.246 308.505C193.07 307.829 193.11 307.115 193.359 306.463C193.849 304.39 196.262 299.903 194.075 298.923C191.889 297.943 189.589 300.997 187.892 304.993C186.141 309.662 183.77 314.075 180.843 318.112C177.956 320.61 174.499 322.358 170.777 323.202C166.63 324.672 163.991 324.295 162.294 331.345C161.107 335.497 160.412 339.773 160.221 344.087C160.221 351.137 161.427 352.231 161.427 357.207C161.427 363.05 160.824 364.747 163.011 367.424C163.727 368.291 164.594 369.007 165.423 368.291C166.253 367.574 165.423 366.82 165.197 365.727C164.815 363.481 164.815 361.187 165.197 358.941C165.184 358.044 165.26 357.147 165.423 356.264C165.423 355.058 166.14 354.455 167.12 354.568C169.306 354.794 170.626 356.528 173.906 356.754C177.186 356.981 184.575 357.131 189.212 357.471C193.849 357.81 203.425 358.451 210.965 358.677C217.766 358.998 224.582 358.834 231.36 358.187C238.9 357.32 240.333 356.981 241.69 356.981C243.047 356.981 249.833 357.697 251.039 362.334C251.643 364.747 251.416 365.727 249.72 366.104C248.023 366.481 240.597 366.971 237.091 367.424C233.584 367.876 225.781 369.007 221.784 369.12C217.788 369.233 212.925 368.894 210.022 368.743C207.119 368.592 200.559 369.233 200.296 378.583C200.296 381.749 200.069 384.539 197.883 386.122C192.046 389.459 186.002 392.418 179.787 394.982C174.099 397.929 167.533 398.706 161.314 397.169C157.544 395.585 156.074 393.173 157.318 389.629C158.562 386.085 158.788 383.333 157.318 382.089C155.848 380.845 154.038 379.525 146.762 379.902C142.766 380.128 137.413 382.089 135 378.583C132.674 374.538 129.318 371.182 125.273 368.856C119.204 364.709 116.15 361.919 116.414 351.627C117.187 338.353 117.112 325.043 116.188 311.779C114.717 300.959 107.931 295.643 104.048 288.103C100.655 281.544 99.185 278.151 104.048 275.587C107.185 273.48 110.632 271.877 114.265 270.837C116.141 270.453 118.045 270.213 119.958 270.121C121.428 269.894 121.767 269.894 122.031 270.121C122.295 270.347 121.805 270.988 120.335 271.817C118.223 272.951 116.228 274.289 114.378 275.813C112.681 277.397 110.985 279.093 112.078 280.79C113.172 282.486 116.451 281.883 118.864 280.563C121.277 279.244 124.708 276.567 126.027 275.964C127.347 275.361 128.327 275.361 127.987 276.68C127.648 278 127.007 279.583 127.987 280.45C129.134 280.923 130.398 281.036 131.61 280.773C132.822 280.511 133.926 279.885 134.774 278.98C137.45 276.68 138.28 275.21 141.823 272.194C143.931 270.656 146.121 269.234 148.383 267.934C150.148 266.302 152.208 265.022 154.453 264.164C161.142 262.572 168.091 262.405 174.848 263.674C185.404 265.484 187.855 267.444 191.134 267.067C193.095 266.841 193.434 266.2 194.037 264.277C194.641 262.354 195.018 262.091 196.111 261.6C197.204 261.11 198.298 261.374 200.107 260.507C204.446 258.862 208.119 255.826 210.55 251.874C213.943 246.898 215.149 243.844 216.733 241.544C218.316 239.245 219.409 238.641 221.483 238.754M185.178 351.439C180.62 350.99 176.157 349.846 171.945 348.046C168.552 346.576 167.459 345.859 166.856 344.54C166.574 341.805 166.817 339.041 167.572 336.397C168.679 334.287 170.206 332.427 172.058 330.93C173.595 329.568 175.22 328.309 176.922 327.16C178.618 325.954 180.692 325.69 192.228 326.67C199.741 327.053 207.117 328.83 213.981 331.911C217.828 333.689 221.258 336.258 224.046 339.45C227.1 341.75 231.209 343.22 233.019 345.52C234.828 347.82 233.019 347.82 232.152 347.933C216.574 350.152 200.873 351.411 185.14 351.703M269.286 348.197C268.047 347.74 266.87 347.132 265.78 346.387C264.267 345.377 262.842 344.242 261.52 342.994C259.888 341.316 258.606 339.329 257.75 337.151C257.16 336.003 256.904 334.713 257.01 333.426C257.117 332.14 257.582 330.91 258.353 329.875C259.446 327.914 261.256 329.498 262.5 330.252C263.744 331.006 267.363 333.645 270.04 335.605C272.131 337.322 273.622 339.659 274.3 342.278C275.016 344.465 275.016 347.631 273.32 348.461C272.714 348.704 272.061 348.81 271.409 348.771C270.758 348.732 270.122 348.549 269.55 348.234M130.4 253.985C130.4 255.568 125.801 256.888 119.354 256.059C112.908 255.229 110.118 254.475 110.382 252.289C110.646 250.102 113.775 250.328 116.451 250.818C119.128 251.308 126.668 252.402 127.761 252.402C128.855 252.402 130.551 252.628 130.551 253.985M177.412 245.616C177.035 247.312 173.039 246.822 169.043 245.993C165.046 245.163 159.09 244.296 157.506 246.86C155.233 251.287 152.137 255.241 148.383 258.509C143.48 262.82 137.193 265.228 130.664 265.295C123.727 265.069 124.708 263.108 124.821 262.505C124.934 261.902 126.404 261.638 127.611 261.789C132.37 261.29 136.886 259.432 140.617 256.436C145.103 252.289 149.363 246.973 151.927 244.296C153.371 242.416 155.297 240.961 157.5 240.085C159.703 239.209 162.102 238.945 164.443 239.32C171.493 240.187 178.279 242.374 177.563 245.616M272.641 253.759C268.381 252.289 260.502 249.989 256.355 248.896C252.407 248.039 248.351 247.797 244.329 248.179C242.142 248.406 242.029 246.219 243.236 245.767C244.442 245.314 252.811 243.09 256.581 241.997C258.769 241.179 261.179 241.179 263.367 241.997C264.838 242.374 272 244.673 275.393 245.767C278.786 246.86 279.88 248.67 278.673 251.836C278.183 253.307 276.864 255.342 272.604 254.023M153.473 219.301C168.062 211.761 180.202 211.762 194.528 212.855C208.853 213.948 219.56 218.698 222.086 223.298C224.612 227.897 227.062 228.99 227.779 228.877C228.495 228.764 229.098 229.254 229.588 223.637C230.078 218.02 230.568 217.567 233.358 215.381C238.598 211.384 257.75 214.174 263.518 214.664C268.607 215.154 270.681 214.174 271.284 212.478C271.887 210.781 271.661 206.785 262.651 197.888C250.595 186.033 236.561 176.375 221.181 169.349C202.331 160.98 189.627 162.413 184.613 164.109C179.598 165.806 177.073 171.875 173.303 177.115C169.533 182.356 165.536 187.068 163.35 186.088C161.163 185.108 166.253 176.362 162.37 174.326C158.487 172.29 151.437 185.259 146.951 189.745C143.17 193.554 138.547 196.421 133.454 198.114C128.968 199.698 129.194 197.398 131.644 193.741C134.095 190.084 137.111 181.715 134.698 180.244C132.285 178.774 128.742 181.828 126.216 184.505C119.804 192.546 115.281 201.925 112.983 211.95C109.213 227.256 111.513 233.552 115.396 235.399C122.936 238.679 139.071 226.653 153.096 219.264" fill="white"/>
</g>
</g>
<defs>
<clipPath id="clip0_23_8272">
<rect width="461.105" height="449.192" fill="white" transform="matrix(-1 0 0 1 429.545 44.978)"/>
</clipPath>
</defs>
</svg>
