<svg width="514" height="459" viewBox="0 0 514 459" fill="none" xmlns="http://www.w3.org/2000/svg">
<path d="M70.3622 0.867752L37.2161 1.55301C18.0839 1.94855 4.20762 19.914 8.65915 38.5253L105.51 443.448C107.663 452.448 115.708 458.796 124.962 458.796H469.487C486.667 458.796 495.852 438.563 484.542 425.63L139.972 31.6029C122.454 11.5704 96.9682 0.317701 70.3622 0.867752Z" fill="#16389C"/>
<mask id="mask0_7_1793" style="mask-type:alpha" maskUnits="userSpaceOnUse" x="7" y="0" width="483" height="459">
<path d="M70.3622 0.867752L37.2161 1.55301C18.0839 1.94855 4.20762 19.914 8.65915 38.5253L105.51 443.448C107.663 452.448 115.708 458.796 124.962 458.796H469.487C486.667 458.796 495.852 438.563 484.542 425.63L139.972 31.6029C122.454 11.5704 96.9682 0.317701 70.3622 0.867752Z" fill="#1C1C1C"/>
</mask>
<g mask="url(#mask0_7_1793)">
<path d="M202.927 195.879C210.459 195.879 218.345 198.504 223.575 203.745C232.888 213.058 242.181 222.361 251.494 229.351H256.182C258.516 227.018 253.859 224.684 253.859 220.027C253.859 215.371 251.536 210.724 253.859 206.068C258.516 201.401 267.798 201.432 274.778 201.432C277.111 201.432 281.778 203.745 284.101 203.745C286.435 203.745 288.789 203.745 288.789 206.068C288.789 210.724 288.789 215.371 291.112 220.027V227.028C291.112 234.008 284.112 229.351 281.789 229.351C279.455 229.351 279.465 231.664 279.465 231.664V236.352C284.122 245.665 298.092 250.291 302.749 254.947C309.729 264.261 298.061 266.615 298.061 271.282V273.595C298.061 278.252 295.748 282.898 295.748 287.555C291.092 299.202 284.122 308.536 279.465 317.85C277.142 322.506 274.788 324.829 272.465 329.486C270.131 331.82 270.142 334.122 270.142 334.122C249.192 352.749 221.241 366.74 202.614 387.7C197.957 392.357 193.311 399.316 188.654 403.973C181.675 413.286 174.695 422.62 172.372 431.944C170.038 436.601 167.704 441.247 163.048 445.904C160.725 445.904 163.048 441.226 163.048 438.903V436.58C165.381 434.257 165.361 429.6 167.684 424.943V422.62C167.684 415.64 170.038 410.952 172.372 406.296C174.695 396.982 179.351 390.002 184.008 380.689C188.665 371.376 195.613 364.396 204.927 357.406C211.917 355.082 216.595 348.102 221.262 343.446C228.242 334.132 232.888 324.84 235.222 315.526L242.222 301.515C246.879 294.535 260.818 292.232 260.818 282.919C260.818 273.606 256.192 264.271 253.859 254.947C242.222 238.654 221.251 229.341 200.291 231.664C177.007 231.664 156.047 238.665 132.764 240.988C121.117 240.988 107.157 241.009 95.5203 236.352C93.1867 236.352 88.5196 234.029 86.1965 234.029C76.883 231.706 67.5905 227.007 58.277 220.027C55.9435 217.694 55.9539 217.715 55.9539 215.392H58.277C65.2569 217.715 69.8928 220.027 76.8726 220.027H88.5196C104.813 217.694 121.148 213.048 137.452 208.38C158.401 203.724 174.695 196.744 195.655 196.744C198.035 196.159 200.477 195.869 202.927 195.879ZM193.749 244.634C194.207 244.561 194.79 244.801 195.655 245.676C200.312 243.342 202.604 247.988 204.927 250.312C214.24 268.938 221.262 287.565 221.262 308.526C221.262 310.849 221.262 313.162 218.939 313.162H216.574C209.594 294.535 204.927 273.616 193.29 257.323C190.957 252.656 188.644 250.332 190.967 245.676C192.426 245.676 192.967 244.738 193.749 244.634ZM170.007 247.999C170.007 247.999 170.048 250.312 172.372 250.312C184.008 271.272 190.988 292.201 197.978 313.162C200.301 322.475 202.625 334.132 200.291 343.446H197.978C195.645 343.446 195.655 341.133 195.655 341.133C188.675 315.516 174.695 292.243 163.048 268.959C160.725 261.979 156.037 257.291 158.36 250.312C160.693 247.988 165.35 247.999 170.007 247.999ZM132.764 250.312C137.42 250.312 139.754 254.989 142.087 257.312C146.744 268.959 153.714 278.231 158.37 289.878C170.007 310.828 176.997 336.476 179.331 362.093C179.331 364.417 181.654 369.042 179.331 371.365C179.331 373.699 177.007 373.699 177.007 371.365L170.007 350.446C160.693 317.85 139.775 292.222 125.805 261.959C123.481 259.625 123.481 254.958 125.805 252.635C128.138 250.301 130.43 250.312 132.764 250.312ZM95.5203 250.312C100.177 252.645 102.511 257.312 104.844 259.635C116.481 285.253 130.44 308.515 142.087 334.122C151.401 357.406 160.725 378.366 163.048 403.973C163.048 406.306 163.058 408.65 160.725 410.984H158.37C156.037 403.993 153.734 399.316 151.411 392.336C144.431 373.709 137.452 352.749 125.805 334.122C114.168 310.838 97.833 289.878 88.5092 266.594C88.5092 261.938 86.186 259.615 88.5092 254.947C90.8427 250.291 93.1971 250.312 95.5203 250.312Z" fill="#F1C931"/>
</g>
</svg>
