<svg width="514" height="459" viewBox="0 0 514 459" fill="none" xmlns="http://www.w3.org/2000/svg">
<path d="M70.3622 0.867752L37.2161 1.55301C18.0839 1.94855 4.20762 19.914 8.65915 38.5253L105.51 443.448C107.663 452.448 115.708 458.796 124.962 458.796H469.487C486.667 458.796 495.852 438.563 484.542 425.63L139.972 31.6029C122.454 11.5704 96.9682 0.317701 70.3622 0.867752Z" fill="#2D346F"/>
<mask id="mask0_31_7442" style="mask-type:alpha" maskUnits="userSpaceOnUse" x="7" y="0" width="483" height="459">
<path d="M70.3622 0.867752L37.2161 1.55301C18.0839 1.94855 4.20762 19.914 8.65915 38.5253L105.51 443.448C107.663 452.448 115.708 458.796 124.962 458.796H469.487C486.667 458.796 495.852 438.563 484.542 425.63L139.972 31.6029C122.454 11.5704 96.9682 0.317701 70.3622 0.867752Z" fill="#00B3F0"/>
</mask>
<g mask="url(#mask0_31_7442)">
<path d="M347.441 493.931L5.12164 0V493.931H347.441Z" fill="url(#paint0_linear_31_7442)"/>
<path fill-rule="evenodd" clip-rule="evenodd" d="M212.523 229.416L220.543 236.788H255.439C255.439 236.794 255.433 236.782 255.439 236.788C255.091 235.819 255.321 234.913 256.811 234.144C258.462 233.296 259.531 233.184 259.504 231.557C259.485 230.297 258.431 229.483 256.593 229.416H212.523ZM255.366 306.537L265.358 306.524L274.551 315.09L269.741 319.461L274.427 324.022L266.037 331.837L255.957 331.831L264.471 324.022L259.679 319.461L264.656 315.142L255.366 306.537ZM199.105 229.407L209.091 229.398L218.284 237.96L213.48 242.331L217.639 246.396H197.791L200.75 244.209L208.386 238.015L199.105 229.407ZM212.453 248.416L222.446 248.407L231.632 256.921L226.828 261.289L230.987 265.353H211.139L214.38 262.954L221.734 256.969L212.453 248.416ZM227.325 267.876H237.311L246.44 276.466L241.642 280.828L245.795 284.892H225.956L229.179 282.509L236.551 276.512L227.27 267.876H227.325ZM240.61 286.916L250.596 286.91L259.788 295.424L254.984 299.788L259.137 303.859H239.295L242.684 301.345L249.89 295.475L240.61 286.916ZM252.028 306.524L260.96 315.108L256.617 318.64H166.572C164.988 318.213 163.88 317.61 163.201 316.847C161.19 316.865 149.199 316.686 147.578 314.078L252.262 314.066C251.653 313.712 250.559 313.273 249.587 312.746C247.587 311.976 245.547 311.311 243.478 310.753C242.951 310.61 242.43 310.48 241.915 310.35C241.218 310.177 240.525 310.02 239.849 309.877C239.116 309.717 238.411 309.575 237.732 309.45C233.377 308.629 230.172 308.375 229.918 308.302C229.804 308.288 229.69 308.276 229.575 308.266C227.446 308.078 220.383 307.669 216.406 307.681H216.188L216.139 306.521L252.028 306.524ZM186.666 321.76C187.244 322.541 190.391 322.487 194.635 322.487C196.001 323.677 201.462 323.616 202.385 323.604L250.15 323.592L255.078 319.882L175.435 319.93C177.543 321.405 181.644 321.76 186.666 321.76ZM312.866 322.723H276.692L273.433 319.515L276.971 316.256H312.975C314.526 316.256 315.407 315.684 315.798 315.469C316.561 315.048 316.909 314.73 317.237 314.309C317.564 313.888 317.633 313.309 317.888 313.006C318.278 313.006 318.539 313.006 319.502 312.943H330.524C332.329 313.067 332.844 312.824 333.223 313.433C333.272 313.509 333.301 313.597 333.305 313.687C333.309 313.778 333.289 313.868 333.247 313.948C333.117 314.203 332.826 314.421 332.696 314.63C331.421 316.124 330.301 317.744 329.352 319.464C329.228 319.806 328.967 320.221 328.831 320.551C328.377 321.657 328.322 322.605 328.298 323.126C328.292 323.156 328.292 323.189 328.292 323.219H323.955C323.948 323.191 323.948 323.161 323.955 323.132C323.979 322.938 324.142 322.568 324.185 322.468C324.675 321.351 327.083 319.464 327.083 319.464C328.177 318.67 329.188 317.546 329.449 317.086C329.74 316.571 330 316.123 330 315.608C330 315.093 329.664 314.484 329.561 314.342C329.052 313.815 328.022 313.424 327.214 313.406C324.86 313.376 322.931 315.205 322.44 315.608C321.341 316.402 320.571 316.88 319.393 317.395C318.209 317.916 316.682 318.482 315.186 319.312C315.05 319.382 314.744 319.648 314.623 319.721C313.138 320.545 312.866 322.723 312.866 322.723ZM276.968 325.049H313.363C314.232 327.296 316.858 326.403 316.858 329.071C316.858 331.243 314.023 331.84 309.795 331.84L269.502 331.834L276.968 325.049ZM257.453 321.014C257.453 321.014 256.175 321.92 253.797 323.759C253.343 324.113 252.471 324.752 251.922 325.155C248.397 327.745 241.246 328.493 237.114 329.053C229.56 330.089 216.551 330.649 216.191 330.649V331.821L252.213 331.773L260.603 324.071L257.453 321.014ZM328.419 315.678C328.358 314.814 327.414 314.602 326.805 314.578C326.241 314.621 325.711 314.887 325.172 315.151C324.639 315.405 323.582 316.329 322.919 316.813C322.255 317.292 320.971 318.086 319.287 318.737C318.475 319.046 317.96 319.258 317.494 319.464C317.007 319.686 316.527 319.924 316.055 320.179C315.15 320.651 314.329 321.729 314.329 323.138C314.329 323.162 314.323 323.18 314.329 323.201H322.143L322.168 323.132C322.498 322.202 323.228 320.984 324.018 320.351C324.563 319.909 324.924 319.642 325.166 319.464C325.408 319.285 325.539 319.203 325.614 319.134C325.814 318.955 326.396 318.488 326.974 317.928C326.849 317.973 326.717 317.996 326.584 317.998C325.981 317.998 325.496 317.537 325.496 316.974C325.496 316.411 325.981 315.956 326.584 315.956C327.186 315.956 327.677 316.411 327.677 316.974C327.674 317.056 327.662 317.137 327.641 317.216C328.104 316.671 328.446 316.114 328.419 315.678ZM333.156 321.345C332.747 320.966 331.281 320.487 331.097 320.415C330.918 320.351 330.642 320.339 330.512 320.551C330.194 321.09 329.737 322.108 329.915 322.892C329.92 322.913 329.923 322.935 329.921 322.956C331.784 322.832 333.08 322.093 333.305 321.875C333.318 321.858 333.33 321.839 333.341 321.82C333.374 321.687 333.359 321.535 333.156 321.345ZM334.919 315.335C334.831 315.291 334.737 315.259 334.64 315.241C334.404 315.205 334.168 315.29 333.926 315.508C333.186 316.154 332.522 316.88 331.945 317.674C331.472 318.361 331.393 318.431 331.248 318.74C331.103 319.049 331.136 319.188 331.396 319.291C331.478 319.321 331.645 319.385 331.845 319.47C331.845 319.47 333.105 320.033 333.305 320.151C334.074 320.612 334.695 321.287 335.134 321.741C335.183 321.796 335.228 321.835 335.27 321.878C335.449 322.044 335.549 322.072 335.743 321.938C336.215 321.629 337.033 320.418 337.151 319.473C337.176 319.327 337.186 319.179 337.182 319.031C337.16 317.843 336.134 315.92 334.919 315.335ZM268.787 306.491L276.807 313.927H311.7C311.706 313.933 311.7 313.915 311.7 313.927C311.358 312.952 311.588 312.052 313.078 311.283C314.723 310.432 315.792 310.32 315.771 308.693C315.752 307.433 314.695 306.558 312.86 306.491H268.787ZM238.429 310.91C230.672 309.335 224.729 309.066 224.729 309.066C223.872 309.184 223.072 309.284 222.358 309.384C214.81 310.42 201.795 310.98 201.434 310.974V312.152L237.111 312.11L243.796 312.098L238.429 310.91ZM236.693 286.879L246.201 295.439L241.851 298.97H151.813C150.229 298.537 149.12 297.935 148.442 297.177C146.43 297.196 134.445 297.017 132.825 294.409C132.825 294.409 224.045 294.373 236.254 294.403L237.502 294.385C236.893 294.036 235.8 293.603 234.827 293.076C234.419 292.91 234.01 292.761 233.598 292.61C231.994 292.03 230.366 291.521 228.718 291.083C227.518 290.754 226.308 290.462 225.09 290.208C224.357 290.047 223.651 289.905 222.973 289.775C218.617 288.957 215.419 288.7 215.158 288.633C215.046 288.619 214.934 288.607 214.822 288.597C212.687 288.403 205.623 287.994 201.652 288.012H201.428V286.876L236.693 286.879ZM171.912 302.09C172.491 302.872 175.635 302.811 179.875 302.811C181.247 304.007 186.702 303.886 187.626 303.823L235.394 303.829L240.316 300.209L160.672 300.161C162.783 301.633 166.884 302.09 171.912 302.09ZM298.046 303.829H262.878L258.671 299.843L262.208 296.584H298.212C299.763 296.584 300.644 296.014 301.035 295.802C301.798 295.381 302.147 295.057 302.474 294.636C302.798 294.221 302.871 293.561 303.131 293.258L315.768 293.276C317.573 293.4 318.088 293.158 318.46 293.767C318.511 293.841 318.54 293.928 318.544 294.019C318.547 294.109 318.524 294.198 318.478 294.276C318.354 294.53 318.063 294.754 317.933 294.963C317.046 295.933 315.531 298.053 314.589 299.791C314.465 300.134 314.205 300.555 314.068 300.885C313.741 301.705 313.561 302.577 313.535 303.459L313.529 303.547H309.192C309.186 303.52 309.186 303.492 309.192 303.465C309.216 303.265 309.38 302.896 309.422 302.796C309.913 301.678 312.321 299.791 312.321 299.791C313.414 299.004 314.426 297.88 314.692 297.42C314.983 296.905 315.244 296.457 315.244 295.942C315.244 295.427 314.901 294.812 314.801 294.67C314.293 294.142 313.263 293.752 312.454 293.74C310.101 293.709 308.171 295.539 307.687 295.942C306.581 296.735 305.812 297.214 304.633 297.729C303.455 298.244 301.92 298.81 300.426 299.64C300.29 299.716 299.984 299.976 299.863 300.049C298.158 301.085 298.046 303.829 298.046 303.829ZM313.659 296.008C313.599 295.145 312.66 294.927 312.045 294.909C311.482 294.951 310.946 295.218 310.413 295.478C309.873 295.739 308.828 296.656 308.159 297.141C307.03 297.929 305.808 298.575 304.521 299.064C303.722 299.379 303.201 299.585 302.734 299.791C302.274 300.003 301.871 300.206 301.296 300.506C300.768 300.8 300.329 301.23 300.026 301.752C299.722 302.274 299.564 302.868 299.569 303.471V303.535H307.384C307.391 303.511 307.401 303.487 307.414 303.465C307.738 302.535 308.474 301.318 309.259 300.679C309.804 300.24 310.164 299.97 310.406 299.791C310.655 299.613 310.779 299.531 310.855 299.461C311.055 299.289 311.636 298.822 312.215 298.256C312.092 298.303 311.961 298.326 311.83 298.325C311.221 298.325 310.737 297.871 310.737 297.302C310.737 296.738 311.221 296.284 311.83 296.284C312.427 296.284 312.917 296.738 312.917 297.302C312.917 297.389 312.899 297.468 312.881 297.55C313.344 297.002 313.687 296.444 313.659 296.008ZM318.397 301.675C317.994 301.297 316.522 300.812 316.337 300.745C316.152 300.676 315.883 300.67 315.752 300.882C315.434 301.415 314.977 302.439 315.156 303.217L315.168 303.287C317.025 303.156 318.321 302.423 318.539 302.199C318.557 302.187 318.571 302.17 318.581 302.151C318.615 302.018 318.596 301.863 318.397 301.675ZM320.153 295.66C320.066 295.62 319.975 295.59 319.881 295.572C319.644 295.536 319.414 295.621 319.166 295.833C318.43 296.481 317.766 297.207 317.185 297.998C316.706 298.692 316.634 298.755 316.488 299.064C316.34 299.379 316.382 299.513 316.637 299.616C316.719 299.652 316.885 299.716 317.085 299.794C317.085 299.794 318.351 300.358 318.539 300.476C319.32 300.942 319.935 301.612 320.371 302.066C320.426 302.127 320.465 302.166 320.508 302.202C320.686 302.375 320.792 302.402 320.98 302.266C321.459 301.951 322.27 300.739 322.389 299.794C322.412 299.649 322.425 299.502 322.425 299.355C322.401 298.174 321.374 296.245 320.153 295.66ZM254.027 286.879L262.042 294.252H296.943C296.943 294.258 296.937 294.245 296.943 294.252C296.601 293.282 296.825 292.377 298.315 291.607C299.96 290.762 301.029 290.65 301.008 289.021C300.99 287.761 299.936 286.943 298.097 286.879H254.027ZM225.087 291.95C217.327 290.375 211.381 290.105 211.381 290.105C210.524 290.223 209.724 290.323 209.016 290.42C201.462 291.456 188.447 292.022 188.086 292.016V293.188L223.763 293.152H230.33L225.087 291.95ZM223.348 267.916L232.856 276.475L228.506 280.01H138.468C136.883 279.577 135.775 278.977 135.096 278.217C133.085 278.235 121.1 278.053 119.48 275.442C119.48 275.442 210.7 275.412 222.909 275.442L224.163 275.424C223.548 275.073 222.461 274.64 221.482 274.113C218.983 273.146 216.422 272.347 213.816 271.72C213.128 271.55 212.438 271.391 211.745 271.244C211.038 271.093 210.331 270.95 209.621 270.814C205.272 269.993 202.067 269.739 201.813 269.669L201.471 269.636C199.335 269.445 192.278 269.036 188.307 269.048H188.083V267.913L223.348 267.916ZM158.561 283.124C159.139 283.911 162.286 283.85 166.53 283.85C167.896 285.047 173.357 284.926 174.281 284.856L222.049 284.868L226.971 281.249L147.327 281.2C149.438 282.669 153.536 283.124 158.561 283.124ZM284.701 284.868H249.533L245.325 280.882L248.863 277.62H284.867C286.418 277.62 287.305 277.051 287.69 276.836C288.453 276.415 288.802 276.094 289.129 275.676C289.453 275.255 289.532 274.597 289.786 274.294L302.416 274.313C304.222 274.434 304.743 274.188 305.115 274.803C305.167 274.878 305.196 274.966 305.199 275.057C305.202 275.147 305.179 275.237 305.133 275.315C305.009 275.57 304.718 275.788 304.588 275.997C303.707 276.972 302.186 279.086 301.244 280.828C301.12 281.17 300.86 281.585 300.723 281.921C300.269 283.027 300.214 283.975 300.19 284.496L300.184 284.583H295.847C295.841 284.557 295.841 284.529 295.847 284.502C295.871 284.302 296.032 283.932 296.077 283.832C296.568 282.709 298.976 280.828 298.976 280.828C300.069 280.034 301.081 278.913 301.341 278.45C301.638 277.935 301.892 277.49 301.892 276.972C301.892 276.457 301.55 275.842 301.453 275.703C300.944 275.176 299.915 274.785 299.106 274.776C296.758 274.74 294.817 276.575 294.332 276.975C293.233 277.765 292.464 278.247 291.285 278.762C290.101 279.28 288.571 279.846 287.078 280.676C286.948 280.749 286.636 281.012 286.515 281.085C284.813 282.124 284.701 284.868 284.701 284.868ZM300.311 277.048C300.251 276.181 299.306 275.969 298.697 275.945C298.134 275.988 297.597 276.254 297.064 276.515C296.531 276.772 295.48 277.693 294.811 278.177C293.681 278.964 292.46 279.61 291.173 280.101C290.374 280.413 289.853 280.622 289.392 280.828C288.902 281.049 288.42 281.287 287.947 281.542C287.419 281.835 286.98 282.266 286.676 282.788C286.372 283.309 286.215 283.904 286.221 284.508V284.568H294.036L294.06 284.505C294.39 283.575 295.126 282.357 295.91 281.718C296.286 281.413 296.668 281.117 297.058 280.831C297.307 280.652 297.431 280.57 297.507 280.501C297.706 280.325 298.288 279.858 298.867 279.292C298.742 279.339 298.609 279.362 298.476 279.362C297.879 279.362 297.388 278.904 297.388 278.341C297.388 277.778 297.879 277.32 298.476 277.32C299.079 277.32 299.563 277.778 299.563 278.341C299.562 278.423 299.552 278.504 299.533 278.583C299.993 278.041 300.342 277.484 300.311 277.048ZM305.051 282.709C304.643 282.336 303.183 281.851 302.998 281.785C302.81 281.715 302.537 281.703 302.413 281.921C302.089 282.454 301.632 283.472 301.811 284.256C301.811 284.274 301.811 284.305 301.823 284.32C303.679 284.196 304.976 283.463 305.194 283.239C305.212 283.226 305.226 283.209 305.236 283.19C305.27 283.051 305.251 282.905 305.051 282.709ZM306.808 276.699C306.724 276.653 306.631 276.622 306.536 276.608C306.299 276.575 306.069 276.654 305.821 276.872C305.082 277.518 304.418 278.245 303.84 279.038C303.367 279.725 303.289 279.792 303.143 280.101C303.001 280.41 303.031 280.549 303.292 280.652L303.74 280.831C303.74 280.831 305.006 281.394 305.2 281.512C305.975 281.979 306.59 282.648 307.029 283.102C307.084 283.163 307.123 283.196 307.166 283.239C307.344 283.411 307.45 283.439 307.638 283.299C308.111 282.99 308.928 281.779 309.047 280.834C309.071 280.688 309.083 280.54 309.083 280.391C309.056 279.21 308.02 277.284 306.808 276.699ZM240.682 267.916L248.697 275.291H283.592C283.598 275.297 283.592 275.285 283.592 275.291C283.25 274.319 283.48 273.416 284.97 272.647C286.615 271.796 287.684 271.684 287.663 270.06C287.639 268.8 286.591 267.985 284.752 267.919L240.682 267.916ZM210.276 272.413C202.516 270.835 196.57 270.566 196.57 270.566C195.719 270.684 194.913 270.787 194.198 270.881C186.651 271.914 173.636 272.48 173.275 272.474V273.649L208.958 273.607L215.612 273.586L210.276 272.413ZM208.537 248.38L218.051 256.936L213.701 260.471H123.656C122.072 260.038 120.97 259.438 120.291 258.681C118.274 258.699 106.289 258.517 104.669 255.906C104.669 255.906 195.895 255.876 208.104 255.903L209.346 255.888C208.743 255.537 207.647 255.104 206.671 254.577C204.675 253.794 202.635 253.128 200.562 252.581C198.665 252.07 196.748 251.635 194.816 251.278C190.461 250.457 187.262 250.2 187.008 250.133L186.666 250.1C184.53 249.906 177.467 249.5 173.496 249.512H173.272V248.38H208.537ZM143.753 263.584C144.331 264.366 147.478 264.314 151.722 264.314C153.088 265.508 158.543 265.387 159.467 265.32L207.235 265.326L212.157 261.706L132.519 261.661C134.63 263.133 138.725 263.584 143.753 263.584ZM269.893 265.329H234.718L230.517 261.34L234.055 258.078H270.053C271.604 258.078 272.491 257.508 272.876 257.293C273.645 256.875 273.988 256.551 274.315 256.133C274.642 255.715 274.717 255.055 274.972 254.752L287.608 254.77C289.413 254.892 289.928 254.649 290.307 255.261C290.356 255.337 290.383 255.424 290.386 255.515C290.389 255.605 290.368 255.694 290.325 255.773C290.195 256.027 289.91 256.245 289.78 256.457C288.893 257.43 287.372 259.544 286.433 261.289C286.309 261.631 286.048 262.046 285.912 262.382C285.464 263.487 285.409 264.432 285.379 264.953C285.379 264.984 285.379 265.017 285.373 265.044H281.036V264.963C281.06 264.766 281.223 264.396 281.272 264.293C281.763 263.175 284.171 261.292 284.171 261.292C285.258 260.501 286.27 259.374 286.536 258.914C286.833 258.402 287.087 257.954 287.087 257.439C287.087 256.924 286.745 256.309 286.645 256.17C286.142 255.643 285.106 255.255 284.298 255.243C281.95 255.21 280.015 257.042 279.524 257.442C278.582 258.154 277.559 258.754 276.477 259.229C275.293 259.747 273.766 260.313 272.27 261.14C272.134 261.216 271.828 261.476 271.707 261.549C270.002 262.585 269.893 265.329 269.893 265.329ZM285.5 257.505C285.446 256.639 284.501 256.427 283.892 256.406C283.322 256.448 282.792 256.715 282.259 256.972C281.72 257.23 280.669 258.154 280 258.638C278.872 259.425 277.653 260.071 276.368 260.562C275.563 260.874 275.048 261.083 274.581 261.289C274.092 261.512 273.611 261.75 273.136 262.003C272.609 262.296 272.17 262.725 271.867 263.247C271.564 263.768 271.408 264.362 271.416 264.966L271.41 265.029H279.23L279.255 264.959C279.579 264.03 280.315 262.812 281.099 262.176C281.651 261.734 282.005 261.467 282.247 261.289C282.496 261.11 282.62 261.028 282.695 260.955C282.895 260.783 283.477 260.313 284.055 259.75C283.932 259.795 283.802 259.819 283.671 259.82C283.068 259.82 282.583 259.365 282.583 258.799C282.583 258.235 283.068 257.781 283.671 257.781C284.267 257.781 284.758 258.235 284.758 258.799C284.758 258.881 284.746 258.963 284.722 259.041C285.185 258.499 285.53 257.945 285.5 257.505ZM290.243 263.172C289.835 262.794 288.369 262.312 288.184 262.246C287.999 262.179 287.729 262.167 287.599 262.382C287.275 262.915 286.818 263.936 286.996 264.717L287.009 264.787C288.865 264.66 290.162 263.924 290.386 263.699C290.404 263.681 290.422 263.663 290.428 263.651C290.461 263.515 290.44 263.36 290.243 263.172ZM292 257.163C291.915 257.117 291.823 257.085 291.728 257.069C291.485 257.036 291.255 257.115 291.013 257.333C290.274 257.981 289.608 258.707 289.026 259.498C288.553 260.186 288.481 260.253 288.329 260.565C288.187 260.874 288.223 261.01 288.484 261.116L288.932 261.295C288.932 261.295 290.192 261.858 290.386 261.976C291.161 262.439 291.782 263.109 292.215 263.566C292.259 263.613 292.305 263.659 292.351 263.703C292.536 263.872 292.636 263.902 292.824 263.766C293.303 263.451 294.114 262.243 294.238 261.298C294.26 261.151 294.271 261.003 294.269 260.855C294.248 259.671 293.215 257.745 292 257.163ZM225.868 248.38L233.889 255.752H268.784C268.784 255.758 268.778 255.746 268.784 255.752C268.442 254.78 268.672 253.874 270.156 253.108C271.807 252.256 272.87 252.144 272.849 250.521C272.83 249.261 271.776 248.446 269.938 248.38H225.868ZM196.93 253.45C189.174 251.872 183.225 251.605 183.225 251.605C182.368 251.723 181.568 251.823 180.859 251.92C173.305 252.956 160.29 253.516 159.93 253.513V254.689L195.613 254.649L202.222 254.658L196.93 253.45ZM195.189 229.416L204.696 237.975L200.353 241.51H110.308C108.724 241.077 107.622 240.477 106.943 239.72C104.926 239.735 92.9348 239.556 91.3204 236.946C91.3204 236.946 182.546 236.915 194.75 236.946L196.004 236.93C195.395 236.576 194.301 236.146 193.323 235.616C190.825 234.647 188.263 233.847 185.657 233.223C184.269 232.885 182.872 232.584 181.468 232.321C177.113 231.5 173.908 231.245 173.654 231.176C173.542 231.161 173.43 231.149 173.318 231.139C171.182 230.948 164.125 230.54 160.148 230.555H159.924V229.419L195.189 229.416ZM130.408 244.624C130.986 245.405 134.13 245.351 138.377 245.351C139.743 246.544 145.198 246.423 146.121 246.356L193.886 246.362L198.82 242.746L119.177 242.697C121.279 244.169 125.38 244.624 130.408 244.624ZM256.547 246.365H221.373L217.172 242.379L220.71 239.117H256.714C258.259 239.117 259.146 238.548 259.537 238.336C260.3 237.915 260.642 237.594 260.969 237.173C261.294 236.755 261.372 236.095 261.627 235.792L274.263 235.81C276.062 235.931 276.583 235.689 276.962 236.297C277.01 236.373 277.038 236.461 277.041 236.551C277.044 236.641 277.023 236.73 276.98 236.809C276.85 237.064 276.565 237.285 276.435 237.491C275.547 238.463 274.027 240.58 273.091 242.325C272.961 242.667 272.7 243.082 272.564 243.415C272.237 244.235 272.057 245.105 272.031 245.987V246.078H267.688V245.993C267.74 245.762 267.819 245.539 267.924 245.326C268.408 244.206 270.816 242.325 270.816 242.325C271.91 241.534 272.921 240.411 273.188 239.947C273.479 239.435 273.739 238.987 273.739 238.469C273.739 237.954 273.397 237.342 273.297 237.2C272.788 236.673 271.758 236.285 270.95 236.27C268.602 236.237 266.667 238.069 266.176 238.469C265.077 239.263 264.307 239.741 263.135 240.256C261.951 240.774 260.421 241.34 258.928 242.17C258.792 242.243 258.48 242.507 258.359 242.579C256.653 243.621 256.547 246.365 256.547 246.365ZM272.155 238.548C272.095 237.682 271.156 237.467 270.541 237.445C269.983 237.488 269.447 237.754 268.908 238.015C268.375 238.272 267.324 239.193 266.655 239.681C265.529 240.47 264.309 241.116 263.023 241.604C262.217 241.916 261.696 242.125 261.23 242.334C260.776 242.543 260.367 242.749 259.791 243.049C259.264 243.341 258.825 243.771 258.522 244.292C258.219 244.814 258.063 245.408 258.071 246.011L258.065 246.075H265.879L265.91 246.005C266.234 245.075 266.97 243.857 267.754 243.221C268.305 242.779 268.66 242.51 268.902 242.337C269.144 242.158 269.275 242.076 269.35 242.004C269.55 241.831 270.132 241.362 270.71 240.798C270.587 240.844 270.457 240.867 270.326 240.865C269.723 240.865 269.232 240.411 269.232 239.847C269.232 239.281 269.723 238.827 270.326 238.827C270.922 238.827 271.413 239.281 271.413 239.847C271.41 239.928 271.398 240.008 271.377 240.087C271.84 239.538 272.188 238.984 272.155 238.548ZM276.892 244.212C276.489 243.833 275.023 243.352 274.839 243.282C274.654 243.215 274.378 243.206 274.248 243.418C273.93 243.954 273.473 244.972 273.651 245.757L273.663 245.823C275.52 245.696 276.816 244.96 277.041 244.739C277.059 244.718 277.077 244.699 277.077 244.687C277.11 244.554 277.098 244.403 276.892 244.212ZM278.655 238.2C278.568 238.154 278.474 238.124 278.376 238.109C278.14 238.072 277.91 238.154 277.662 238.372C276.924 239.019 276.26 239.746 275.681 240.538C275.208 241.225 275.129 241.295 274.984 241.601C274.842 241.913 274.878 242.046 275.132 242.152C275.214 242.182 275.381 242.246 275.581 242.331C275.581 242.331 276.847 242.891 277.041 243.009C277.816 243.476 278.437 244.145 278.87 244.603L279.006 244.736C279.185 244.908 279.285 244.936 279.485 244.799C279.957 244.484 280.769 243.276 280.887 242.331C280.914 242.185 280.926 242.037 280.924 241.889C280.896 240.707 279.867 238.784 278.655 238.2Z" fill="#DAA30C"/>
<mask id="mask1_31_7442" style="mask-type:alpha" maskUnits="userSpaceOnUse" x="132" y="348" width="185" height="21">
<rect x="132.475" y="348.208" width="183.627" height="20.1576" fill="#D9D9D9"/>
</mask>
<g mask="url(#mask1_31_7442)">
<path fill-rule="evenodd" clip-rule="evenodd" d="M160.661 398.22C160.661 402.664 161.189 402.947 167.661 403.192V404.133H148.379V403.192C154.587 402.948 155.115 402.664 155.115 398.22V378.987H152.011C146.133 378.987 144.35 379.515 143.361 380.287C142.634 380.861 141.841 382.001 141.049 383.793H139.398C139.661 381.307 140.057 378.699 140.19 376.621H141.115C142.106 377.559 142.765 377.64 144.549 377.64H171.623C173.34 377.64 173.67 377.396 174.728 376.621H175.652C175.719 378.333 176.05 381.308 176.378 383.671L174.728 383.793C174.067 381.838 173.342 380.697 172.352 380.047C171.229 379.271 169.182 378.987 165.088 378.987H160.663L160.661 398.22ZM202.153 403.192L204.266 403.03C206.709 402.867 206.972 402.418 206.313 401.155C205.851 400.178 203.936 396.999 202.088 394.065H188.682C188.021 395.125 186.305 398.303 185.381 400.017C184.126 402.378 184.719 402.909 187.691 403.073L189.672 403.192V404.133H175.54V403.192C179.833 402.908 180.361 402.664 182.672 399.037L196.275 377.395L197.794 377.029L202.482 384.773C205.586 389.95 208.492 395.125 211.068 399.28C213.181 402.706 214.039 402.991 218.135 403.192V404.133H202.153V403.192ZM189.539 392.517H201.227L195.417 382.489H195.284L189.539 392.517ZM256.868 384.324C254.887 379.637 250.663 378.372 244.189 378.372C232.303 378.372 227.02 383.915 227.02 390.315C227.02 398.181 233.558 403.397 244.255 403.397C251.651 403.397 255.086 401.196 258.323 396.916L259.974 397.038C259.116 398.791 257.662 402.049 256.605 403.6C254.757 403.888 248.813 404.74 244.189 404.74C227.482 404.74 220.483 397.733 220.483 391.252C220.483 382.858 230.983 377.027 245.442 377.027C251.057 377.027 255.48 377.842 257.33 378.088C257.858 380.33 258.122 382.121 258.519 384.241L256.868 384.324ZM290.847 403.192L292.962 403.03C295.405 402.867 295.668 402.418 295.009 401.155C294.547 400.178 292.631 396.999 290.781 394.065H277.376C276.717 395.125 274.998 398.303 274.074 400.017C272.82 402.378 273.415 402.909 276.384 403.073L278.367 403.192V404.133H264.235V403.192C268.527 402.908 269.054 402.664 271.366 399.037L284.971 377.395L286.488 377.029L291.178 384.773C294.28 389.95 297.189 395.125 299.764 399.28C301.875 402.706 302.735 402.991 306.831 403.192V404.133H290.847V403.192ZM278.234 392.517H289.923L284.112 382.489H283.981L278.234 392.517ZM158.921 355.849C157.871 352.997 154.758 352.457 151.419 352.457C145.605 352.457 141.891 354.837 141.891 359.082C141.891 362.495 144.592 366.246 152.02 366.246C153.37 366.246 154.646 366.155 155.545 365.953C156.372 365.75 156.633 365.594 156.633 364.515V362.517C156.633 360.989 156.483 360.833 152.395 360.653V360.136H162.037V360.653C159.934 360.855 159.783 360.922 159.783 362.517V364.044C159.783 364.853 159.821 365.572 160.009 366.088C157.683 366.469 154.644 366.985 151.831 366.985C143.915 366.985 138.175 363.908 138.175 359.509C138.175 354.434 144.965 351.716 152.057 351.716C155.32 351.716 157.909 352.098 159.222 352.301C159.334 353.064 159.522 354.232 159.822 355.781L158.921 355.849ZM173.111 363.394C173.111 365.841 173.41 365.999 176.487 366.132V366.649H166.508V366.132C169.66 365.997 169.961 365.839 169.961 363.394V355.309C169.961 352.862 169.66 352.704 166.659 352.57V352.052H176.187C178.588 352.052 180.726 352.254 182.115 352.815C183.615 353.377 184.59 354.387 184.59 355.691C184.59 357.554 182.678 358.879 179.64 359.62C180.315 360.294 181.854 361.841 182.979 362.831C184.329 364.021 185.116 364.628 186.129 365.301C186.917 365.863 187.592 366.222 188.942 366.424L188.868 366.851H188.342C184.027 366.784 182.714 365.997 181.289 364.762C180.127 363.752 178.551 362.09 177.5 361.035C176.9 360.45 176.299 360.226 175.137 360.226H173.111V363.394ZM173.111 359.576H175.286C176.825 359.576 178.026 359.463 179.037 358.969C180.651 358.206 181.212 357.106 181.212 356.005C181.212 353.647 178.362 352.704 175.547 352.704C174.272 352.704 173.747 352.75 173.447 352.817C173.223 352.862 173.109 352.975 173.109 353.424L173.111 359.576ZM201.694 352.054V352.572C198.695 352.706 198.395 352.864 198.395 355.311V360.003C198.395 361.912 198.807 363.35 199.971 364.359C201.133 365.348 202.858 365.908 205.373 365.908C207.738 365.908 209.687 365.301 210.888 364.224C212.127 363.102 212.577 361.125 212.577 359.24V358.027C212.577 355.669 212.427 354.434 212.278 353.738C212.09 352.951 211.077 352.637 208.602 352.57V352.052H217.604V352.57C215.541 352.615 214.565 352.951 214.378 353.738C214.229 354.434 214.078 355.669 214.078 358.027V359.531C214.078 362.135 213.403 363.976 211.228 365.369C209.614 366.402 206.913 366.985 204.289 366.985C202.224 366.985 199.862 366.693 198.137 365.841C196.149 364.876 195.249 363.349 195.249 360.789V355.309C195.249 352.862 194.949 352.704 191.799 352.57V352.052L201.694 352.054ZM228.046 363.394C228.046 365.841 228.344 365.999 231.984 366.132V366.649H221.517V366.132C224.591 365.997 224.893 365.839 224.893 363.394V355.309C224.893 352.862 224.593 352.704 221.706 352.57V352.052H231.196C233.711 352.052 235.847 352.299 237.423 352.997C238.887 353.625 239.825 354.657 239.825 356.074C239.825 358.835 236.111 360.317 232.51 360.587C231.911 360.631 231.271 360.631 230.821 360.631L228.046 360.206V363.394ZM228.046 359.531C228.533 359.665 229.585 359.8 230.859 359.8C233.222 359.8 236.3 359.058 236.3 356.139C236.3 353.693 234.159 352.704 230.297 352.704C229.208 352.704 228.682 352.75 228.383 352.817C228.159 352.862 228.046 352.975 228.046 353.424V359.531ZM269.471 359.151C269.471 363.821 264.032 366.987 256.867 366.987C249.777 366.987 244.748 363.754 244.748 359.51C244.748 355.738 249.176 351.718 257.542 351.718C264.032 351.716 269.471 354.726 269.471 359.151ZM256.567 352.457C252.14 352.457 248.389 354.637 248.389 358.857C248.389 363.191 252.176 366.244 257.654 366.244C262.155 366.244 265.832 364.155 265.832 359.979C265.83 355.129 261.93 352.457 256.567 352.457Z" fill="#DAA30C"/>
</g>
<mask id="mask2_31_7442" style="mask-type:alpha" maskUnits="userSpaceOnUse" x="282" y="347" width="96" height="23">
<rect x="282.429" y="347.402" width="94.9041" height="21.7707" fill="#D9D9D9"/>
</mask>
<g mask="url(#mask2_31_7442)">
<path fill-rule="evenodd" clip-rule="evenodd" d="M298.4 362.699C298.4 365.098 298.685 365.251 302.179 365.384V365.892H291.767V365.384C295.12 365.252 295.405 365.098 295.405 362.699V352.312H293.728C290.554 352.312 289.592 352.598 289.057 353.015C288.665 353.325 288.237 353.94 287.809 354.908H286.917C287.059 353.565 287.273 352.157 287.345 351.035H287.844C288.38 351.542 288.736 351.585 289.699 351.585H304.319C305.246 351.585 305.425 351.454 305.996 351.035H306.495C306.531 351.959 306.709 353.566 306.887 354.842L305.996 354.908C305.639 353.852 305.247 353.236 304.713 352.885C304.106 352.466 303.001 352.312 300.79 352.312H298.4L298.4 362.699ZM320.806 365.384L321.947 365.296C323.266 365.208 323.408 364.966 323.052 364.284C322.803 363.756 321.768 362.04 320.77 360.455H313.531C313.174 361.027 312.247 362.744 311.748 363.669C311.071 364.944 311.391 365.231 312.996 365.32L314.066 365.384V365.892H306.434V365.384C308.752 365.23 309.037 365.098 310.286 363.14L317.631 351.453L318.452 351.255L320.983 355.437C322.66 358.233 324.229 361.027 325.62 363.271C326.761 365.121 327.224 365.275 329.436 365.384V365.892H320.806V365.384ZM313.994 359.619H320.306L317.168 354.204H317.096L313.994 359.619ZM350.352 355.195C349.282 352.664 347.001 351.981 343.506 351.981C337.087 351.981 334.234 354.974 334.234 358.43C334.234 362.678 337.764 365.494 343.541 365.494C347.535 365.494 349.39 364.306 351.138 361.995L352.03 362.061C351.566 363.007 350.781 364.767 350.21 365.604C349.212 365.76 346.002 366.22 343.506 366.22C334.484 366.22 330.704 362.436 330.704 358.936C330.704 354.403 336.374 351.254 344.182 351.254C347.214 351.254 349.603 351.694 350.602 351.827C350.887 353.038 351.03 354.005 351.244 355.15L350.352 355.195ZM368.701 365.384L369.843 365.296C371.163 365.208 371.305 364.966 370.949 364.284C370.699 363.756 369.665 362.04 368.666 360.455H361.427C361.071 361.027 360.143 362.744 359.644 363.669C358.966 364.944 359.288 365.231 360.891 365.32L361.962 365.384V365.892H354.331V365.384C356.648 365.23 356.933 365.098 358.181 363.14L365.528 351.453L366.348 351.255L368.88 355.437C370.555 358.233 372.126 361.027 373.517 363.271C374.657 365.121 375.121 365.275 377.333 365.384V365.892H368.701V365.384ZM361.89 359.619H368.202L365.065 354.204H364.994L361.89 359.619ZM297.46 339.818C296.893 338.278 295.212 337.986 293.409 337.986C290.269 337.986 288.263 339.271 288.263 341.564C288.263 343.407 289.722 345.432 293.733 345.432C294.462 345.432 295.151 345.383 295.637 345.274C296.083 345.165 296.224 345.08 296.224 344.498V343.419C296.224 342.594 296.144 342.509 293.936 342.412V342.133H299.142V342.412C298.007 342.521 297.925 342.557 297.925 343.419V344.243C297.925 344.68 297.946 345.068 298.047 345.347C296.791 345.553 295.15 345.832 293.631 345.832C289.356 345.832 286.257 344.17 286.257 341.794C286.257 339.054 289.924 337.586 293.753 337.586C295.515 337.586 296.913 337.792 297.622 337.902C297.683 338.314 297.784 338.945 297.947 339.781L297.46 339.818ZM309.3 343.892C309.3 345.214 309.462 345.299 311.124 345.371V345.65H305.735V345.371C307.437 345.298 307.599 345.213 307.599 343.892V339.526C307.599 338.205 307.437 338.12 305.816 338.047V337.768H310.961C312.258 337.768 313.412 337.877 314.163 338.18C314.972 338.483 315.499 339.028 315.499 339.732C315.499 340.739 314.467 341.454 312.826 341.854C313.191 342.218 314.022 343.054 314.629 343.588C315.358 344.231 315.783 344.558 316.33 344.922C316.755 345.225 317.12 345.42 317.849 345.528L317.809 345.759H317.525C315.195 345.723 314.486 345.298 313.716 344.631C313.089 344.086 312.238 343.188 311.671 342.618C311.346 342.302 311.022 342.182 310.394 342.182H309.3V343.892ZM309.3 341.83H310.475C311.306 341.83 311.955 341.77 312.501 341.503C313.372 341.091 313.675 340.496 313.675 339.902C313.675 338.629 312.136 338.12 310.616 338.12C309.927 338.12 309.644 338.144 309.482 338.181C309.361 338.205 309.299 338.266 309.299 338.508L309.3 341.83ZM328.913 337.769V338.048C327.293 338.121 327.131 338.206 327.131 339.527V342.061C327.131 343.092 327.354 343.869 327.982 344.413C328.61 344.948 329.542 345.25 330.9 345.25C332.177 345.25 333.229 344.922 333.878 344.341C334.547 343.734 334.79 342.667 334.79 341.649V340.994C334.79 339.721 334.709 339.054 334.629 338.678C334.527 338.253 333.98 338.083 332.643 338.047V337.768H337.504V338.047C336.39 338.072 335.864 338.253 335.763 338.678C335.682 339.054 335.601 339.721 335.601 340.994V341.806C335.601 343.213 335.236 344.206 334.061 344.959C333.19 345.517 331.732 345.832 330.314 345.832C329.199 345.832 327.924 345.674 326.992 345.214C325.918 344.693 325.433 343.868 325.433 342.486V339.526C325.433 338.205 325.271 338.12 323.569 338.047V337.768L328.913 337.769ZM347.321 343.892C347.321 345.214 347.482 345.299 349.447 345.371V345.65H343.795V345.371C345.455 345.298 345.619 345.213 345.619 343.892V339.526C345.619 338.205 345.456 338.12 343.897 338.047V337.768H349.022C350.38 337.768 351.533 337.901 352.385 338.278C353.175 338.617 353.682 339.174 353.682 339.939C353.682 341.43 351.676 342.231 349.731 342.377C349.408 342.4 349.063 342.4 348.82 342.4L347.321 342.171V343.892ZM347.321 341.806C347.584 341.879 348.152 341.951 348.84 341.951C350.116 341.951 351.778 341.551 351.778 339.975C351.778 338.653 350.622 338.12 348.537 338.12C347.948 338.12 347.664 338.144 347.503 338.181C347.382 338.205 347.321 338.266 347.321 338.508V341.806ZM373.869 341.601C373.869 344.123 370.931 345.832 367.062 345.832C363.234 345.832 360.518 344.086 360.518 341.795C360.518 339.758 362.909 337.587 367.427 337.587C370.931 337.586 373.869 339.211 373.869 341.601ZM366.9 337.986C364.51 337.986 362.484 339.163 362.484 341.442C362.484 343.782 364.529 345.431 367.487 345.431C369.918 345.431 371.903 344.303 371.903 342.048C371.903 339.429 369.796 337.986 366.9 337.986Z" fill="#DAA30C"/>
</g>
</g>
<defs>
<linearGradient id="paint0_linear_31_7442" x1="376.97" y1="159.298" x2="10.7493" y2="422.642" gradientUnits="userSpaceOnUse">
<stop offset="0.51903" stop-color="#CF3A3A"/>
<stop offset="0.603858" stop-color="#CB3D3D" stop-opacity="0.5"/>
<stop offset="0.662942" stop-color="#651F1F" stop-opacity="0"/>
</linearGradient>
</defs>
</svg>
