<svg width="514" height="459" viewBox="0 0 514 459" fill="none" xmlns="http://www.w3.org/2000/svg">
<path d="M70.3622 0.867752L37.2161 1.55301C18.0839 1.94855 4.20762 19.914 8.65915 38.5253L105.51 443.448C107.663 452.448 115.708 458.796 124.962 458.796H469.487C486.667 458.796 495.852 438.563 484.542 425.63L139.972 31.6029C122.454 11.5704 96.9682 0.317701 70.3622 0.867752Z" fill="#FD5000"/>
<mask id="mask0_7_1889" style="mask-type:alpha" maskUnits="userSpaceOnUse" x="7" y="0" width="483" height="459">
<path d="M70.3622 0.867752L37.2161 1.55301C18.0839 1.94855 4.20762 19.914 8.65915 38.5253L105.51 443.448C107.663 452.448 115.708 458.796 124.962 458.796H469.487C486.667 458.796 495.852 438.563 484.542 425.63L139.972 31.6029C122.454 11.5704 96.9682 0.317701 70.3622 0.867752Z" fill="#1C1C1C"/>
</mask>
<g mask="url(#mask0_7_1889)">
<path d="M158.275 120.825L203.276 114.264L214.23 131.702L146.717 138.536L118.627 156.182L108.481 140.032L136.572 122.385L172.027 64.5215L183.498 82.7811L158.123 120.584L158.275 120.825Z" fill="white"/>
<path d="M224.776 195.251L166.266 232.007L156.709 216.793L164.316 212.014L164.169 211.781C155.504 210.201 148.186 205.832 143.407 198.225C136.053 186.517 139.985 175.889 151.921 168.391L192.062 143.175L201.622 158.393L164.997 181.401C158.906 185.228 156.52 191.293 160.344 197.379C163.356 202.174 168.911 205.046 172.626 206.794L215.218 180.037L224.776 195.251Z" fill="white"/>
<path d="M182.069 257.171L172.586 242.076L254.506 190.613L263.992 205.713L220.107 233.282L254.406 242.416L265.946 260.786L231.504 252.721L208.173 298.715L196.926 280.811L214.4 248.616L201.382 245.045L182.072 257.176L182.069 257.171Z" fill="white"/>
<path d="M249.695 364.826L308.205 328.07L317.762 343.284L310.159 348.06L310.309 348.298C318.853 349.948 326.287 354.25 331.069 361.861C338.418 373.56 334.492 384.189 322.434 391.765L282.412 416.907L272.854 401.693L309.365 378.757C315.456 374.93 318.209 369.45 314.016 362.774C311.001 357.975 305.563 355.036 301.731 353.355L259.252 380.04L249.695 364.826Z" fill="white"/>
<path d="M286.876 337.804C294.631 344.094 300.323 349.771 300.323 349.771C300.323 349.771 294.667 344.019 288.935 336.77C297.569 332.328 303.447 325.64 305.433 318.004C317.287 318.93 327.247 320.483 327.247 320.483C327.247 320.483 317.309 318.86 305.89 316.117C307.083 309.181 305.072 302.158 300.236 295.936C308.064 291.422 317.303 286.421 327.012 281.34L328.934 276.411C316.834 281.474 304.943 286.253 294.566 290.087C287.736 284.404 278.703 280.604 269.115 278.902C269.628 270.902 271.042 264.279 271.042 264.279C271.042 264.279 269.468 270.878 266.423 278.484C255.573 277.022 244.23 278.235 234.705 282.538C226.75 276.138 220.838 270.288 220.838 270.288C220.838 270.288 226.458 276.372 232.167 283.825C223.926 288.213 218.288 294.673 216.277 302.037C204.185 301.125 193.905 299.551 193.905 299.551C193.905 299.551 204.141 301.447 215.732 304.348C214.502 311.77 216.926 319.285 222.566 325.801C213.956 331.008 206.035 334.969 206.035 334.969C206.035 334.969 214.098 331.297 224.326 327.742C224.341 327.756 224.351 327.77 224.366 327.785C231.213 334.632 241.042 339.212 251.603 341.243C251.218 349.165 250.108 355.754 250.108 355.754C250.108 355.754 251.62 349.279 254.593 341.76C265.609 343.347 277.178 342.169 286.876 337.804ZM285.877 332.749C284.343 330.647 282.881 328.492 281.602 326.369C285.346 323.96 288.077 320.842 289.521 317.327C293.071 317.317 296.76 317.448 300.386 317.659C298.477 323.824 293.416 329.097 285.877 332.749ZM295.912 298.469C300.075 303.592 301.859 309.315 301.021 314.897C297.53 313.985 294.017 312.981 290.7 311.894C290.779 308.909 289.966 305.944 288.351 303.152C290.611 301.687 293.13 300.125 295.912 298.469ZM285.617 304.972C286.666 306.846 287.269 308.793 287.39 310.752C285.162 309.944 283.069 309.101 281.196 308.223C282.421 307.233 283.902 306.145 285.617 304.972ZM308.722 317.576C308.722 317.576 290.135 314.688 277.153 315.436C277.043 314.432 277.054 313.491 277.248 312.646C277.398 311.992 278.021 311.154 278.979 310.188C290.722 314.638 308.722 317.576 308.722 317.576ZM277.705 318.067C280.195 317.703 282.968 317.488 285.904 317.393C284.652 319.73 282.641 321.805 279.998 323.519C279.003 321.617 278.212 319.78 277.705 318.067ZM271.723 327.07C268.474 327.903 265.039 328.256 261.604 328.154C262.743 326.525 263.979 325.053 265.286 323.751C267.393 324.673 269.554 325.796 271.723 327.07ZM269.289 318.63C262.869 321.566 253.871 320.153 249.194 315.475C244.516 310.798 245.928 304.626 252.348 301.69C258.769 298.754 267.765 300.166 272.443 304.844C277.121 309.522 275.709 315.695 269.289 318.63ZM249.839 321.402C250.356 322.918 250.765 324.573 251.052 326.361C248.081 325.414 245.291 324.12 242.849 322.475C245.262 321.985 247.609 321.621 249.839 321.402ZM270.753 297.723C270.32 296.444 269.948 295.104 269.685 293.675C271.976 294.34 274.158 295.225 276.184 296.304C274.192 296.881 272.392 297.349 270.753 297.723ZM289.003 292.105C285.946 293.188 283.068 294.162 280.404 295.012C277.109 292.845 273.274 291.233 269.202 290.209C268.996 288.127 268.917 285.985 268.928 283.862C276.341 285.264 283.332 288.054 289.003 292.105ZM267.2 298.422C265.527 298.67 264.16 298.746 263.197 298.595C261.944 298.398 260.627 298.05 259.277 297.603C265.104 289.744 268.135 276.99 268.135 276.99C268.135 276.99 265.463 289.393 267.2 298.422ZM249.946 293.242C252.949 292.475 256.112 292.121 259.287 292.155C258.212 293.672 257.061 295.049 255.841 296.272C253.913 295.42 251.937 294.396 249.946 293.242ZM243.223 301.978C240.989 302.29 238.535 302.489 235.935 302.585C237.1 300.555 238.82 298.719 241.063 297.163C241.964 298.858 242.705 300.48 243.223 301.978ZM264.4 283.178C263.475 285.157 262.456 287.127 261.342 289C256.161 288.688 250.929 289.295 246.208 290.947C243.843 289.413 241.499 287.756 239.246 286.068C247.007 283.123 255.836 282.231 264.4 283.178ZM235.166 287.873C236.701 290.018 238.167 292.2 239.449 294.329C236.114 296.605 233.649 299.465 232.253 302.664C228.696 302.687 224.985 302.571 221.326 302.368C223.248 296.49 228.076 291.455 235.166 287.873ZM212.431 302.46C212.431 302.46 230.954 305.292 243.905 304.586C244.077 305.634 244.1 306.59 243.913 307.412C243.712 308.284 243.236 309.222 242.551 310.204C230.939 305.886 212.431 302.46 212.431 302.46ZM226.857 323.126C221.963 317.741 219.759 311.602 220.596 305.608C224.111 306.551 227.639 307.57 230.941 308.647C230.901 311.948 231.917 315.229 233.94 318.263C231.732 319.907 229.317 321.547 226.857 323.126ZM236.542 316.236C235.204 314.161 234.429 311.976 234.251 309.78C236.627 310.625 238.833 311.499 240.754 312.39C239.586 313.635 238.15 314.928 236.542 316.236ZM229.749 325.94C232.671 325.019 235.678 324.154 238.652 323.422C242.204 326.361 246.657 328.524 251.472 329.859C251.655 331.958 251.737 334.119 251.734 336.274C243.374 334.543 235.608 331.03 229.749 325.94ZM253.585 321.192C255.146 321.175 256.621 321.252 257.964 321.463C259.208 321.658 260.508 321.998 261.842 322.433C255.979 330.298 253.017 343.045 253.017 343.045C253.017 343.045 255.215 330.088 253.585 321.192ZM256.59 337.06C257.5 335.1 258.511 333.146 259.612 331.28C265.014 331.691 270.498 331.097 275.427 329.374C277.788 330.919 280.119 332.578 282.352 334.265C274.405 337.274 265.343 338.127 256.59 337.06Z" fill="white"/>
</g>
</svg>
