<svg width="514" height="462" viewBox="0 0 514 462" fill="none" xmlns="http://www.w3.org/2000/svg">
<path d="M70.3418 1.01953C97.2433 0.463456 123.012 11.8408 140.725 32.0957L485.295 426.123C497.17 439.702 487.527 460.947 469.487 460.947H124.962C115.246 460.947 106.798 454.282 104.538 444.832L7.68652 39.9092C3.08669 20.6775 17.4255 2.11387 37.1953 1.70508L70.3418 1.01953Z" fill="white" stroke="#1E1E1E" stroke-width="2"/>
<path d="M95.5239 276.448C95.4558 277.427 96.1178 278.123 95.9976 278.926C96.3491 280.325 96.6622 281.676 97.0175 283.09C98.9225 289.555 100.957 295.88 102.592 302.388C104.111 308.433 105.457 312.54 106.439 316.451C106.667 317.486 108.253 322.914 108.467 323.928C109.27 327.284 110.75 330.191 111.968 333.262C115.886 343.305 123.159 351.256 132.808 356.243C136.226 357.982 139.615 359.316 143.178 360.319C144.275 360.545 145.389 360.807 146.506 361.044C146.621 361.041 146.717 361.065 146.857 361.03L147.261 360.928C148.61 359.496 149.961 358.072 151.332 356.66C154.234 353.851 157.756 351.373 161.654 349.769C163.522 349.02 165.708 348.159 167.886 347.923C181.012 346.343 196.381 352.934 205.058 362.792C207.689 365.771 209.922 368.875 211.669 372.675C212.852 375.345 213.796 378.904 214.205 381.948C215.926 393.167 214.214 403.08 208.516 412.572C205.478 417.6 202.095 421.91 198.369 426.075C196.979 427.509 195.542 428.987 194.185 430.454C194.04 430.564 193.908 430.598 193.97 430.845L193.783 430.892L193.818 431.031C200.458 429.133 207.115 423.327 211.308 418.56C214.368 415.03 217.351 411.659 219.796 407.422C221.16 405.131 222.168 402.668 223.059 400.266C224.078 397.455 225.2 394.659 225.798 391.747C227.477 383.577 227.138 373.884 224.235 364.794C222.488 359.35 219.948 354.532 217.012 350.142C215.374 347.694 213.234 345.651 211.176 343.572C200.612 333.202 185.507 328.747 172.181 323.911C163.59 320.835 155.001 317.669 146.39 314.581C138.141 311.584 129.969 308.699 122.284 303.809C115.297 299.328 109.136 293.571 104.127 287.369C102.026 284.725 97.409 279.229 95.5218 276.449" fill="#ED1C24"/>
<path d="M88.476 243.77C88.3885 244.672 88.808 245.815 89.0663 246.843L90.7246 253.444C91.7888 257.679 93.2491 262.769 94.7344 266.611C98.1246 275.307 103.955 281.098 110.248 287.315C112.424 289.438 114.752 291.278 116.991 293.287C118.992 295.044 121.124 296.825 123.429 298.243C127.203 300.582 131.177 302.566 135.113 304.231C141.39 306.837 147.471 309.417 153.91 311.39C160.463 313.384 166.854 315.887 173.279 318.225C186.984 323.155 201.32 329.151 212.503 339.127C215.682 341.952 218.217 345.341 220.642 348.783C224.457 354.176 227.514 360.918 228.885 368.347C230.147 375.08 229.612 381.558 228.67 387.801C228.008 391.838 227.114 395.834 225.576 399.704C223.876 404.273 221.171 408.823 218.252 412.909C215.266 417.094 212.22 421.006 208.819 424.72C208.358 425.255 203.795 429.072 203.181 429.226C203.195 429.282 206.65 427.656 206.676 427.757C213.698 424.357 219.629 418.619 224.053 412.7C234.852 398.081 240.053 380.365 236.328 362.089C235.062 355.703 233.156 349.649 229.79 344.874C216.083 325.442 191.68 313.915 169.877 304.783C162.254 301.521 154.632 298.259 147.023 295.052C142.113 292.957 137.188 290.867 132.26 288.769C130.726 287.856 129.192 286.943 127.641 286.059C119.382 281.117 111.816 275.582 105.18 269.081C103.292 267.222 101.361 265.382 99.6442 263.381C96.5862 259.72 93.833 255.531 91.736 251.062C90.6115 248.69 89.2721 246.348 88.476 243.77Z" fill="#B49142"/>
<path d="M54.1107 98.6807C52.8993 98.985 51.7111 99.2836 51.2879 100.458C50.7657 101.83 51.9888 105.089 52.4141 106.782C54.4627 115.199 74.9473 198.311 76.26 203.536C77.5904 209.323 79.5122 216.244 81.0603 222.05C85.2431 237.713 94.1414 250.424 104.115 261.106C107.905 265.117 111.27 269.375 116.027 272.6C119.401 274.891 122.795 277.161 126.396 279.173C133.458 283.061 140.68 286.275 147.91 289.421C155.515 293.074 163.112 296.728 170.711 300.324C175.975 302.543 181.246 304.76 186.426 307.436C189.754 309.147 192.959 310.996 196.275 312.759C199.688 314.581 202.917 316.884 206.254 318.962C216.104 325.041 225.386 332.414 231.273 341.978C233.364 345.307 235.089 348.587 236.613 352.42C237.916 355.7 238.554 359.525 239.176 362.984C242.476 380.717 238.281 398.229 227.258 412.289C223.824 416.66 220.118 420.738 215.777 424.064C214.904 424.728 213.393 426.274 212.329 426.541L212.366 426.688C228.262 420.557 241.514 411.098 251.755 398.459C253.727 396.09 255.381 393.44 256.996 390.799C268.648 371.356 270.74 347.412 262.429 324.093C258.584 313.226 253.363 303.519 246.618 295.173C235.202 281.015 219.874 271.202 203.241 262.34C199.622 260.62 196.047 258.913 192.485 257.187C186.346 254.407 180.333 251.472 174.217 248.457C171.386 247.015 168.567 245.587 165.721 244.149C157.316 239.449 148.7 235.057 140.67 229.613C130.993 222.973 121.561 216.156 113.014 208.558C107.867 203.976 103.025 199.161 98.1964 194.368C94.4414 190.66 91.0747 186.559 87.8051 182.418C76.3012 167.551 66.723 149.308 61.0723 129.512C59.2647 123.203 58.2237 117.121 57.6253 111.158C57.4775 109.092 57.3203 107.02 57.1978 104.922C57.1494 103.48 57.1744 101.838 56.6134 100.361C56.1804 99.2287 55.1358 98.9161 54.1107 98.6807Z" fill="#254AA5"/>
</svg>
