<svg width="514" height="459" viewBox="0 0 514 459" fill="none" xmlns="http://www.w3.org/2000/svg">
<path d="M70.3622 0.867752L37.2161 1.55301C18.0839 1.94855 4.20762 19.914 8.65915 38.5253L105.51 443.448C107.663 452.448 115.708 458.796 124.962 458.796H469.487C486.667 458.796 495.852 438.563 484.542 425.63L139.972 31.6029C122.454 11.5704 96.9682 0.317701 70.3622 0.867752Z" fill="#009846"/>
<mask id="mask0_48_7" style="mask-type:alpha" maskUnits="userSpaceOnUse" x="7" y="0" width="483" height="459">
<path d="M70.3622 0.867752L37.2161 1.55301C18.0839 1.94855 4.20762 19.914 8.65915 38.5253L105.51 443.448C107.663 452.448 115.708 458.796 124.962 458.796H469.487C486.667 458.796 495.852 438.563 484.542 425.63L139.972 31.6029C122.454 11.5704 96.9682 0.317701 70.3622 0.867752Z" fill="#54B149"/>
</mask>
<g mask="url(#mask0_48_7)">
<path d="M149.22 214.735C149.22 252.649 190.891 279.767 167.71 316.501C151.008 342.972 115.889 310.402 136.255 289.89C139.124 286.994 143.855 283.364 148.252 283.004C147.031 279.62 138.65 256.853 138.083 254.438C121.248 254.811 78.8557 295.068 115.049 341.384C121.468 349.604 134.72 357.085 149.22 357.085C208.481 357.085 200.32 284.945 248.958 284.945C268.335 284.945 278.204 311.269 257.659 325.122C246.222 331.741 238.161 323.601 232.496 319.811L212.164 341.597C220.332 353.788 263.104 373.58 290.115 336.279C304.835 315.947 301.566 289.189 284.857 268.424C262.937 241.179 215.24 263.626 187.341 234.739C171.387 218.218 181.316 194.423 200.06 194.423C210.776 194.423 222.514 206.647 219.404 220.059C219.044 221.607 218.603 222.275 218.457 223.956C223.615 225.244 243.773 230.736 247.503 230.736C262.544 166.177 179.221 136.944 154.051 193.922C151.696 199.247 149.22 207.128 149.22 214.735Z" fill="#FFDB02"/>
</g>
</svg>
