<svg width="514" height="462" viewBox="0 0 514 462" fill="none" xmlns="http://www.w3.org/2000/svg">
<path d="M70.3418 1.01978C97.2433 0.4637 123.012 11.841 140.725 32.0959L485.295 426.123C497.17 439.703 487.527 460.947 469.487 460.948H124.962C115.246 460.948 106.798 454.282 104.538 444.832L7.68652 39.9094C3.08669 20.6778 17.4255 2.11411 37.1953 1.70532L70.3418 1.01978Z" fill="white" stroke="#1E1E1E" stroke-width="2"/>
<path fill-rule="evenodd" clip-rule="evenodd" d="M95.6773 269.195C170.083 271.258 242.092 288.144 248.783 312.09C249.396 314.261 249.549 316.409 249.549 318.597C249.549 342.179 200.32 350.246 147.026 356.89C146.112 356.997 146.152 356.269 146.45 355.745C146.659 355.373 147.457 353.964 148.004 352.993C148.218 352.614 148.448 352.365 149.193 352.151C178.362 344.729 207.974 333.887 207.974 323.778C207.974 304.655 158.358 285.714 101.858 277.056C99.9924 276.696 99.1022 276.347 97.8494 275.351C96.2824 274.103 92.8342 271.286 91.376 270.122C90.4255 269.332 90.7632 269.082 91.1223 269.09C92.6367 269.121 94.1506 269.15 95.6773 269.195Z" fill="#1B1D80"/>
<path fill-rule="evenodd" clip-rule="evenodd" d="M177.986 384.635C216.637 374.949 254.941 342.511 248.907 312.457C240.089 268.608 181.12 226.133 107.528 206.172C105.868 205.681 105.256 204.585 107.382 204.585H207.823C225.213 204.585 228.983 206.833 235.719 215.947C239.308 220.794 269.367 262.242 282.922 280.925C284.666 283.149 287.131 285.543 292.618 285.543H316.848C316.848 285.551 316.848 285.555 316.828 285.567C288.114 366.694 257.27 385.824 226.373 385.824H177.591C176.902 385.824 176.213 385.083 177.986 384.635Z" fill="#DF0011"/>
</svg>
