<svg width="514" height="459" viewBox="0 0 514 459" fill="none" xmlns="http://www.w3.org/2000/svg">
<path d="M70.3622 0.867752L37.2161 1.55301C18.0839 1.94855 4.20762 19.914 8.65915 38.5253L105.51 443.448C107.663 452.448 115.708 458.796 124.962 458.796H469.487C486.667 458.796 495.852 438.563 484.542 425.63L139.972 31.6029C122.454 11.5704 96.9682 0.317701 70.3622 0.867752Z" fill="#223F9A"/>
<mask id="mask0_17_1180" style="mask-type:alpha" maskUnits="userSpaceOnUse" x="7" y="0" width="483" height="459">
<path d="M70.3622 0.867752L37.2161 1.55301C18.0839 1.94855 4.20762 19.914 8.65915 38.5253L105.51 443.448C107.663 452.448 115.708 458.796 124.962 458.796H469.487C486.667 458.796 495.852 438.563 484.542 425.63L139.972 31.6029C122.454 11.5704 96.9682 0.317701 70.3622 0.867752Z" fill="#1C1C1C"/>
</mask>
<g mask="url(#mask0_17_1180)">
<path d="M112.411 389.325L23.6172 18.0878C21.2641 8.24979 14.1117 0.26006 4.59306 -3.16331L-24.1846 -13.5132L96.2662 483.465H199.816V458.796C158.716 458.796 122.354 432.45 112.411 389.325Z" fill="#00B3F0"/>
<path d="M233.359 206.785C234.294 206.246 235.624 206.424 236.38 207.283C237.049 208.043 237.107 209.258 236.657 210.106L186.238 286.897L212.567 316.802L312.386 255.965L300.793 242.798L223.942 289.654C222.968 290.236 221.699 290.119 220.916 289.229C220.205 288.422 220.18 287.217 220.741 286.348L271.333 209.335L245.016 179.444L145.201 240.285L156.777 253.434L233.359 206.785ZM151.425 188.288L187.888 151.647C188.729 150.869 189.039 149.576 188.511 148.515C187.913 147.356 186.561 146.822 185.383 147.191L82.2475 168.781L69.1309 153.882L198.662 126.785L224.006 155.571L142.668 237.408L123.855 216.041L132.723 207.123C134.644 205.247 134.915 202.333 133.15 200.33L104.697 168.011L124.005 163.952L145.341 188.186C146.9 189.957 149.721 190.026 151.425 188.288ZM294.288 350.927L329.648 313.755C330.57 312.783 330.612 311.289 329.703 310.257C329.095 309.566 328.193 309.264 327.333 309.385L228.102 334.443L215.282 319.882L340.729 288.154L366.073 316.94L286.412 400.673L267.456 379.142L276.137 370.004C278.021 368.062 278.301 365.209 276.552 363.223L249.874 332.921L268.593 328.184L288.363 350.64C289.979 352.475 292.828 352.534 294.288 350.927Z" fill="white"/>
</g>
</svg>
