<svg width="514" height="459" viewBox="0 0 514 459" fill="none" xmlns="http://www.w3.org/2000/svg">
<path d="M70.3622 0.867752L37.2161 1.55301C18.0839 1.94855 4.20762 19.914 8.65915 38.5253L105.51 443.448C107.663 452.448 115.708 458.796 124.962 458.796H469.487C486.667 458.796 495.852 438.563 484.542 425.63L139.972 31.6029C122.454 11.5704 96.9682 0.317701 70.3622 0.867752Z" fill="#008E8F"/>
<mask id="mask0_18_135" style="mask-type:alpha" maskUnits="userSpaceOnUse" x="5" y="-2" width="487" height="463">
<path d="M70.3418 -0.131836C97.2433 -0.687911 123.012 10.6894 140.725 30.9443L485.295 424.972C497.17 438.551 487.527 459.796 469.487 459.796H124.962C115.246 459.796 106.798 453.13 104.538 443.681L7.68652 38.7578C3.08669 19.5262 17.4255 0.962498 37.1953 0.553711L70.3418 -0.131836Z" fill="white" stroke="#1E1E1E" stroke-width="2"/>
</mask>
<g mask="url(#mask0_18_135)">
<path fill-rule="evenodd" clip-rule="evenodd" d="M176.72 192.71L250.832 277.63H335.749L261.639 192.71H176.72ZM176.72 370.269L250.832 285.734H335.749L261.639 370.269H176.72ZM80.223 282.648L161.668 235.555L243.113 281.876L162.44 328.58L80.223 282.648Z" fill="white"/>
</g>
</svg>
