<svg width="514" height="459" viewBox="0 0 514 459" fill="none" xmlns="http://www.w3.org/2000/svg">
<path d="M70.3622 0.867752L37.2161 1.55301C18.0839 1.94855 4.20762 19.914 8.65915 38.5253L105.51 443.448C107.663 452.448 115.708 458.796 124.962 458.796H469.487C486.667 458.796 495.852 438.563 484.542 425.63L139.972 31.6029C122.454 11.5704 96.9682 0.317701 70.3622 0.867752Z" fill="#08A53C"/>
<mask id="mask0_100_392" style="mask-type:alpha" maskUnits="userSpaceOnUse" x="7" y="0" width="483" height="459">
<path d="M70.3622 0.867752L37.2161 1.55301C18.0839 1.94855 4.20762 19.914 8.65915 38.5253L105.51 443.448C107.663 452.448 115.708 458.796 124.962 458.796H469.487C486.667 458.796 495.852 438.563 484.542 425.63L139.972 31.6029C122.454 11.5704 96.9682 0.317701 70.3622 0.867752Z" fill="#1C1C1C"/>
</mask>
<g mask="url(#mask0_100_392)">
<path d="M103.975 321.229C103.858 321.463 102.404 324.91 100.716 328.92C99.0276 332.929 97.4332 336.681 97.1753 337.291L96.7063 338.416H99.4497L102.193 338.393L104.89 331.968L107.586 325.52H111.408C114.034 325.52 115.207 325.59 115.207 325.778C115.207 325.918 114.269 328.263 113.12 331.006C111.971 333.726 110.798 336.517 110.541 337.173L110.048 338.416H112.745H115.441L115.793 337.525C116.004 337.056 117.223 334.149 118.536 331.077L120.905 325.52H124.75C128.525 325.52 128.595 325.52 128.455 326.012C128.361 326.27 127.189 329.084 125.852 332.273C124.515 335.438 123.413 338.135 123.413 338.228C123.413 338.322 124.609 338.416 126.063 338.416H128.689L132.324 329.811C134.317 325.098 136.005 321.135 136.028 321.018C136.075 320.924 128.924 320.83 120.154 320.83C105.194 320.83 104.186 320.854 103.975 321.229Z" fill="#FFBB00"/>
<path d="M141.867 321.58C136.239 334.899 134.903 338.111 134.903 338.252C134.903 338.346 139.803 338.416 145.783 338.416H156.639L157.507 336.353C157.976 335.227 158.351 334.219 158.351 334.125C158.351 334.031 154.693 333.961 150.238 333.961C142.594 333.961 142.125 333.937 142.289 333.562C142.383 333.328 142.57 332.859 142.688 332.484L142.922 331.851H150.847C158.046 331.851 158.82 331.804 159.265 331.452C159.64 331.124 163.978 321.487 163.978 320.947C163.978 320.877 159.078 320.83 153.075 320.83H142.172L141.867 321.58ZM156.475 325.684C156.475 325.778 156.358 326.2 156.194 326.622L155.912 327.396H150.449C147.448 327.396 144.985 327.349 144.985 327.278C144.985 327.208 145.15 326.786 145.314 326.34L145.665 325.52H151.058C154.036 325.52 156.475 325.59 156.475 325.684Z" fill="#FFBB00"/>
<path d="M166.159 320.994C166.206 321.111 167.331 323.058 168.644 325.332C169.981 327.63 170.989 329.6 170.919 329.717C170.848 329.834 168.551 331.804 165.831 334.102L160.906 338.299L164.588 338.369C168.855 338.439 167.894 338.862 172.748 334.711C175.28 332.531 175.96 332.062 176.898 331.874C178.188 331.593 179.313 331.757 179.735 332.273C179.899 332.46 180.79 333.891 181.681 335.462L183.323 338.299L186.183 338.369L189.044 338.439L186.535 334.055L184.05 329.67L184.636 329.224C184.941 328.967 187.262 326.997 189.771 324.84L194.343 320.947L190.732 320.877C187.731 320.83 187.027 320.877 186.558 321.205C186.23 321.416 184.565 322.776 182.83 324.23C181.119 325.707 179.501 327.02 179.243 327.138C178.985 327.278 178.047 327.396 177.156 327.396H175.515L173.592 324.113L171.669 320.83H168.879C167.331 320.83 166.112 320.9 166.159 320.994Z" fill="#FFBB00"/>
<path d="M198.47 321.346C198.353 321.651 196.711 325.52 194.836 329.951C192.96 334.406 191.412 338.111 191.412 338.228C191.412 338.322 192.608 338.416 194.062 338.416H196.688L200.322 329.834C202.315 325.098 204.004 321.135 204.027 321.041C204.074 320.924 202.878 320.83 201.401 320.83C198.798 320.83 198.658 320.854 198.47 321.346Z" fill="#FFBB00"/>
<path d="M209.725 321.346C209.608 321.651 209.115 322.729 208.646 323.761C207.544 326.153 204.309 333.984 203.394 336.47L202.691 338.416H213.078H223.489L224.333 336.399C224.802 335.297 225.177 334.289 225.177 334.172C225.177 334.055 221.918 333.961 217.557 333.961C213.359 333.961 209.936 333.891 209.936 333.773C209.936 333.68 210.71 331.804 211.648 329.623L213.336 325.637L221.168 325.52L229.023 325.402L229.914 323.198C230.406 321.979 230.805 320.947 230.805 320.9C230.805 320.854 226.115 320.83 220.37 320.83H209.936L209.725 321.346Z" fill="#FFBB00"/>
<path d="M236.104 322.824C235.635 323.902 235.189 324.958 235.119 325.169C235.002 325.473 235.987 325.52 243.42 325.567L251.861 325.638L251.509 326.505L251.157 327.396H242.997C235.588 327.396 234.791 327.443 234.345 327.795C233.97 328.123 229.632 337.807 229.632 338.323C229.632 338.37 234.65 338.393 240.793 338.37L251.978 338.299L255.566 329.741C257.559 325.051 259.177 321.112 259.177 321.018C259.177 320.924 254.182 320.831 248.062 320.831H236.948L236.104 322.824ZM249.094 332.086C249.094 332.226 248.93 332.648 248.742 333.024L248.367 333.727H242.763C239.668 333.727 237.136 333.657 237.136 333.563C237.136 333.469 237.253 333.047 237.417 332.625L237.698 331.851H243.396C247.218 331.851 249.094 331.922 249.094 332.086Z" fill="#FFBB00"/>
<path d="M264.64 321.698C264.452 322.19 262.811 326.059 261.029 330.303C259.247 334.547 257.77 338.111 257.77 338.205C257.77 338.322 258.966 338.416 260.419 338.416H263.045L265.765 332.015L268.462 325.637L274.254 325.567C278.099 325.543 280.045 325.59 280.045 325.754C280.045 325.895 278.896 328.755 277.466 332.109C276.059 335.485 274.887 338.275 274.887 338.322C274.887 338.369 276.083 338.416 277.536 338.416C280.139 338.416 280.209 338.393 280.467 337.853C281.053 336.564 287.549 321.065 287.549 320.947C287.549 320.877 282.484 320.83 276.27 320.83H265.015L264.64 321.698Z" fill="#FFBB00"/>
<path d="M292.637 321.582C292.449 322.004 292.027 323.013 291.675 323.81C291.347 324.607 291.066 325.334 291.066 325.404C291.066 325.475 294.864 325.521 299.484 325.521H307.901L307.55 326.459L307.174 327.397L298.71 327.444L290.245 327.515L289.565 328.921C288.604 330.914 285.907 337.691 285.907 338.09C285.907 338.371 287.455 338.418 296.951 338.371L307.972 338.301L311.489 329.977C313.412 325.404 315.053 321.465 315.123 321.23C315.241 320.855 314.607 320.832 304.103 320.832H292.942L292.637 321.582ZM305.017 332.368C304.923 332.673 304.689 333.142 304.525 333.447C304.173 333.963 304.173 333.963 298.616 333.916C293.2 333.845 293.059 333.822 293.129 333.376C293.176 333.119 293.364 332.673 293.551 332.368C293.88 331.852 293.95 331.852 299.53 331.852H305.158L305.017 332.368Z" fill="#FFBB00"/>
<path d="M167.122 165.409C160.867 178.514 160.421 180.077 162.729 181.269C164.218 182.088 164.739 181.79 167.643 178.96C170.622 176.056 171.292 175.759 175.387 175.461C178.887 175.237 179.855 175.386 179.855 176.205C179.855 176.727 175.387 186.928 169.877 198.767L159.899 220.36L182.833 220.584C195.491 220.658 216.34 220.658 229.222 220.584L252.677 220.36L237.264 187.449L221.925 154.463H197.129H172.334L167.122 165.409Z" fill="#FFBB00"/>
<path d="M135.849 271.441C125.871 292.737 117.531 310.533 117.457 310.905C117.308 311.352 125.573 311.501 138.231 311.426L159.304 311.203L165.707 285.514C169.281 271.367 172.409 258.932 172.632 257.74L173.153 255.73H184.025C194.002 255.73 194.821 255.804 194.449 256.996C193.555 260.272 181.344 310.309 181.344 310.905C181.344 311.277 192.215 311.575 206.288 311.575C219.989 311.575 231.232 311.426 231.232 311.203C231.232 311.054 228.254 298.768 224.531 283.95C220.882 269.207 217.83 256.772 217.83 256.4C217.83 255.953 222.148 255.804 228.477 255.879L239.051 256.102L246.125 283.801L253.124 311.575H273.898C291.471 311.575 294.598 311.426 294.375 310.533C294.226 309.937 286.11 292.141 276.281 271.069L258.411 232.647H206.288H154.091L135.849 271.441Z" fill="#FFBB00"/>
</g>
</svg>
