<svg width="514" height="462" viewBox="0 0 514 462" fill="none" xmlns="http://www.w3.org/2000/svg">
<mask id="mask0_16_975" style="mask-type:alpha" maskUnits="userSpaceOnUse" x="5" y="0" width="487" height="462">
<path d="M70.3418 1.01953C97.2433 0.463456 123.012 11.8408 140.725 32.0957L485.295 426.123C497.17 439.702 487.527 460.947 469.487 460.947H124.962C115.246 460.947 106.798 454.282 104.538 444.832L7.68652 39.9092C3.08669 20.6775 17.4255 2.11387 37.1953 1.70508L70.3418 1.01953Z" fill="white" stroke="#1E1E1E" stroke-width="2"/>
</mask>
<g mask="url(#mask0_16_975)">
<path d="M70.3418 1.01953C97.2433 0.463456 123.012 11.8408 140.725 32.0957L485.295 426.123C497.17 439.702 487.527 460.947 469.487 460.947H124.962C115.246 460.947 106.798 454.282 104.538 444.832L7.68652 39.9092C3.08669 20.6775 17.4255 2.11387 37.1953 1.70508L70.3418 1.01953Z" fill="white"/>
<path d="M70.3418 1.01953C97.2433 0.463456 123.012 11.8408 140.725 32.0957L485.295 426.123C497.17 439.702 487.527 460.947 469.487 460.947H124.962C115.246 460.947 106.798 454.282 104.538 444.832L7.68652 39.9092C3.08669 20.6775 17.4255 2.11387 37.1953 1.70508L70.3418 1.01953Z" stroke="#1E1E1E" stroke-width="2"/>
<path d="M70.3418 1.01953C97.2433 0.463456 123.012 11.8408 140.725 32.0957L485.295 426.123C497.17 439.702 487.527 460.947 469.487 460.947H124.962C115.246 460.947 106.798 454.282 104.538 444.832L7.68652 39.9092C3.08669 20.6775 17.4255 2.11387 37.1953 1.70508L70.3418 1.01953Z" stroke="#1E1E1E" stroke-width="2"/>
<path d="M193.135 135.804C101.073 106.612 49.7986 86.308 -41.1937 44.4811L-54.5107 43.6255L16.2973 313.629L160.08 511.557L298.032 499.619L193.135 135.804Z" fill="#F50026"/>
<path d="M456.553 585.311C420.561 483.742 394.872 421.982 365.335 318.924C292.872 296.157 286.99 291.838 222.619 267.811L253.335 336.089C319.058 358.844 225.627 338.627 303.102 363.389C328.059 452.839 357.811 550.101 369.357 594.592L456.553 585.311Z" fill="#71357B"/>
<path d="M355.833 493.053C319.841 391.484 294.152 329.723 264.615 226.665C192.152 203.898 55.4256 148.28 -8.94531 124.252L21.7707 192.531C87.4936 215.286 144.176 243.795 221.652 268.557C246.608 358.008 286.549 454.804 298.094 499.295L355.833 493.053Z" fill="#CC8A58"/>
<mask id="mask1_16_975" style="mask-type:alpha" maskUnits="userSpaceOnUse" x="24" y="251" width="202" height="274">
<path d="M186.215 298.248L223.899 409.975C231.108 444.229 217.244 486.368 171.696 524.249L24.5054 417.696L51.3494 251.672C84.1213 257.113 119.709 271.192 186.215 298.248Z" fill="#D9D9D9"/>
</mask>
<g mask="url(#mask1_16_975)">
<path d="M186.216 298.248L211.095 375.878C218.304 410.133 204.44 452.271 158.892 490.152L11.7018 383.6L51.3498 251.672C84.1217 257.113 119.71 271.192 186.216 298.248Z" fill="#B10024"/>
<circle cx="148.235" cy="390.846" r="8.46568" transform="rotate(3.67596 148.235 390.846)" fill="#F50026"/>
<circle cx="90.136" cy="330.039" r="8.46568" transform="rotate(3.67596 90.136 330.039)" fill="#F50026"/>
<circle cx="174.763" cy="305.231" r="8.46568" transform="rotate(3.67596 174.763 305.231)" fill="#F50026"/>
<circle cx="206.579" cy="452.597" r="8.46568" transform="rotate(3.67596 206.579 452.597)" fill="#F50026"/>
<path d="M198.894 438.574L162.922 400.959L196.275 404.644L198.894 438.574Z" fill="#F50026"/>
<path d="M216.56 376.422L166.018 388.846L196.136 403.642L216.56 376.422Z" fill="#F50026"/>
<path d="M131.366 399.668L80.8242 412.091L110.942 426.888L131.366 399.668Z" fill="#F50026"/>
<path d="M225.088 385.116L210.499 435.076L197.014 404.349L225.088 385.116Z" fill="#F50026"/>
<path d="M216.025 437.616L230.614 387.656L244.1 418.383L216.025 437.616Z" fill="#F50026"/>
<path d="M157.295 405.645L193.268 443.259L159.914 439.574L157.295 405.645Z" fill="#F50026"/>
<path d="M190.065 454.374L139.504 466.719L159.372 439.677L190.065 454.374Z" fill="#F50026"/>
<path d="M190.897 459.711L140.411 472.361L170.595 487.023L190.897 459.711Z" fill="#F50026"/>
<path d="M157.819 374.718L172.408 324.757L185.894 355.485L157.819 374.718Z" fill="#F50026"/>
<path d="M98.4701 313.169L111.116 262.682L125.78 292.865L98.4701 313.169Z" fill="#F50026"/>
<path d="M75.9255 314.725L44.1348 273.516L76.9111 280.709L75.9255 314.725Z" fill="#F50026"/>
<path d="M48.0344 260.621L99.8926 256.194L76.1036 279.861L48.0344 260.621Z" fill="#F50026"/>
<path d="M165.672 322.541L151.083 372.501L137.598 341.774L165.672 322.541Z" fill="#F50026"/>
<path d="M104.301 260.727L91.6553 311.214L76.9917 281.031L104.301 260.727Z" fill="#F50026"/>
<path d="M138.481 376.932L102.509 339.317L135.862 343.002L138.481 376.932Z" fill="#F50026"/>
<path d="M97.6313 345.402L133.604 383.017L100.25 379.332L97.6313 345.402Z" fill="#F50026"/>
<path d="M156.305 309.088L105.743 321.433L125.611 294.391L156.305 309.088Z" fill="#F50026"/>
<path d="M156.002 313.783L105.614 326.818L135.909 341.248L156.002 313.783Z" fill="#F50026"/>
<path d="M130.953 458.373L145.542 408.413L159.027 439.141L130.953 458.373Z" fill="#F50026"/>
<path d="M121.26 456.039L138.864 407.06L109.879 423.968L121.26 456.039Z" fill="#F50026"/>
<path d="M183.544 321.639L219.517 359.254L186.163 355.569L183.544 321.639Z" fill="#F50026"/>
<path d="M124.807 260.102L160.779 297.716L127.426 294.031L124.807 260.102Z" fill="#F50026"/>
<path d="M216.927 370.718L166.365 383.063L186.233 356.021L216.927 370.718Z" fill="#F50026"/>
<path d="M131.734 393.963L81.1729 406.309L101.041 379.266L131.734 393.963Z" fill="#F50026"/>
</g>
<g filter="url(#filter0_f_16_975)">
<path d="M-6.11133 195.751C58.2596 219.778 194.986 275.397 267.449 298.164L277.102 355.147L224.486 340.055C147.01 315.294 90.3276 286.784 24.6047 264.029L-6.11133 195.751Z" fill="black" fill-opacity="0.4"/>
</g>
<path d="M70.3418 1.01953C97.2433 0.463456 123.012 11.8408 140.725 32.0957L485.295 426.123C497.17 439.702 487.527 460.947 469.487 460.947H124.962C115.246 460.947 106.798 454.282 104.538 444.832L7.68652 39.9092C3.08669 20.6775 17.4255 2.11387 37.1953 1.70508L70.3418 1.01953Z" stroke="#1E1E1E" stroke-width="2"/>
<path d="M70.3418 1.01953C97.2433 0.463456 123.012 11.8408 140.725 32.0957L485.295 426.123C497.17 439.702 487.527 460.947 469.487 460.947H124.962C115.246 460.947 106.798 454.282 104.538 444.832L7.68652 39.9092C3.08669 20.6775 17.4255 2.11387 37.1953 1.70508L70.3418 1.01953Z" stroke="#1E1E1E" stroke-width="2"/>
</g>
<defs>
<filter id="filter0_f_16_975" x="-20.1113" y="181.751" width="311.214" height="187.396" filterUnits="userSpaceOnUse" color-interpolation-filters="sRGB">
<feFlood flood-opacity="0" result="BackgroundImageFix"/>
<feBlend mode="normal" in="SourceGraphic" in2="BackgroundImageFix" result="shape"/>
<feGaussianBlur stdDeviation="7" result="effect1_foregroundBlur_16_975"/>
</filter>
</defs>
</svg>
