<svg width="514" height="459" viewBox="0 0 514 459" fill="none" xmlns="http://www.w3.org/2000/svg">
<path d="M70.3622 0.867752L37.2161 1.55301C18.0839 1.94855 4.20762 19.914 8.65915 38.5253L105.51 443.448C107.663 452.448 115.708 458.796 124.962 458.796H469.487C486.667 458.796 495.852 438.563 484.542 425.63L139.972 31.6029C122.454 11.5704 96.9682 0.317701 70.3622 0.867752Z" fill="#CDDA32"/>
<mask id="mask0_18_149" style="mask-type:alpha" maskUnits="userSpaceOnUse" x="5" y="-2" width="487" height="463">
<path d="M70.3418 -0.131836C97.2433 -0.687911 123.012 10.6894 140.725 30.9443L485.295 424.972C497.17 438.551 487.527 459.796 469.487 459.796H124.962C115.246 459.796 106.798 453.13 104.538 443.681L7.68652 38.7578C3.08669 19.5262 17.4255 0.962498 37.1953 0.553711L70.3418 -0.131836Z" fill="white" stroke="#1E1E1E" stroke-width="2"/>
</mask>
<g mask="url(#mask0_18_149)">
<path d="M132.721 439.68V346.076H162.723C170.639 346.076 197.46 346.076 197.46 368.931C197.46 384.639 185.21 388.851 178.954 391.018C186.086 392.939 199.627 396.766 199.627 414.012C199.627 428.183 188.898 439.68 164.906 439.68H132.721ZM150.335 384.27H162.723C178.677 384.27 180.091 374.695 180.091 371.621C180.091 359.878 167.964 359.878 164.26 359.878H150.335V384.27ZM150.335 425.893H161.324C173.067 425.893 181.505 422.065 181.505 411.983C181.505 405.343 177.924 397.796 162.493 397.796H150.35V425.893H150.335Z" fill="#152649"/>
<path d="M247.087 439.68L245.181 432.226C241.123 435.884 234.483 441.171 223.924 441.171C211.32 441.171 202.375 433.04 202.375 421.789C202.375 414.473 204.957 405.943 220.527 400.655L240.708 393.893C243.551 392.94 243.828 392.801 243.828 390.772V387.929C243.828 381.965 238.418 380.213 231.916 380.213C220.804 380.213 210.644 386.991 206.709 389.697V375.064C211.182 372.497 219.851 367.748 234.483 367.748C256.278 367.748 260.628 378.707 260.628 392.125V439.665H247.087V439.68ZM228.935 409.601C221.88 412.183 219.451 415.441 219.451 420.452C219.451 427.492 225.538 428.983 228.535 428.983C231.24 428.983 237.065 428.045 243.844 421.128V403.791C242.891 404.606 242.491 404.744 239.509 405.82L228.95 409.601H228.935Z" fill="#152649"/>
<path d="M284.331 346.091H267.531V439.679H284.331V346.091Z" fill="#152649"/>
<path d="M298.301 381.98H288.064V369.254H298.301V346.091H315.1V369.254H327.842V381.98H315.1V417.608C315.1 422.757 315.792 427.491 323.508 427.491C325.537 427.491 327.028 427.23 328.38 426.953V439.679C326.228 439.956 323.908 440.233 320.526 440.233C301.836 440.233 298.301 430.872 298.301 418.561V381.98Z" fill="#152649"/>
<path d="M334.33 346.091H351.13V362.89H334.33V346.091ZM334.33 369.254H351.13V439.679H334.33V369.254Z" fill="#152649"/>
<path d="M412.026 388.206C408.645 385.362 403.219 380.889 393.736 380.889C379.38 380.889 373.416 392.955 373.416 404.467C373.416 409.34 374.769 428.03 393.198 428.03C402.819 428.03 409.044 423.68 413.379 420.575V435.484C409.982 437.252 402.404 441.171 390.477 441.171C366.5 441.171 356.479 423.142 356.479 404.467C356.479 385.793 367.453 367.748 391.292 367.748C402.804 367.748 409.029 371.268 412.011 372.897V388.206H412.026Z" fill="#152649"/>
</g>
</svg>
