<svg width="514" height="459" viewBox="0 0 514 459" fill="none" xmlns="http://www.w3.org/2000/svg">
<path d="M70.3622 0.867752L37.2161 1.55301C18.0839 1.94855 4.20762 19.914 8.65915 38.5253L105.51 443.448C107.663 452.448 115.708 458.796 124.962 458.796H469.487C486.667 458.796 495.852 438.563 484.542 425.63L139.972 31.6029C122.454 11.5704 96.9682 0.317701 70.3622 0.867752Z" fill="#DF1D25"/>
<mask id="mask0_25_6" style="mask-type:alpha" maskUnits="userSpaceOnUse" x="7" y="0" width="483" height="459">
<path d="M70.3622 0.867752L37.2161 1.55301C18.0839 1.94855 4.20762 19.914 8.65915 38.5253L105.51 443.448C107.663 452.448 115.708 458.796 124.962 458.796H469.487C486.667 458.796 495.852 438.563 484.542 425.63L139.972 31.6029C122.454 11.5704 96.9682 0.317701 70.3622 0.867752Z" fill="white"/>
</mask>
<g mask="url(#mask0_25_6)">
<path d="M306.02 430.166C310.296 434.936 313.177 441.119 313.542 447.566C313.653 451.781 311.862 456.651 307.636 458.273C303.579 459.629 299.114 459.235 295.087 457.982C292.701 457.318 291.566 454.736 291.165 452.499C292.759 448.631 296.624 445.065 295.186 440.525C293.174 436.702 289.254 433.497 284.744 433.78C278.927 434.069 273.09 437.302 270.457 442.615C267.187 448.572 265.03 455.692 259.08 459.623C249.201 465.671 235.97 466.832 225.767 460.885C217.433 456.095 210.169 448.6 207.331 439.252C205.596 432.79 205.759 425.112 210.345 419.827C213.857 415.257 220.263 416.025 225.381 415.755C228.153 415.691 233.061 415.604 232.632 419.654C230.684 425.557 228.206 431.711 229.653 438.041C230.159 441.916 234.145 445.835 238.211 444.711C242.359 442.825 243.426 437.948 245.617 434.36C250.179 425.432 259.907 420.323 269.585 419.182C282.476 417.6 296.616 420.81 306.02 430.166ZM370.902 519.673C375.053 522.894 378.524 528.366 376.762 533.771C375.973 537.306 372.764 539.42 371.042 542.421C370.071 546.858 371.895 551.836 369.33 555.936C367.082 557.823 364.042 557.98 361.245 557.886C350.262 557.134 339.19 556.464 328.19 557.449C325.637 557.902 321.877 558.586 321.729 561.83C322.589 564.914 325.925 565.723 328.524 566.767C335.15 569.22 342.224 569.671 349.165 570.54C351.988 570.739 354.121 573.062 354.594 575.787C354.335 577.881 352.499 579.092 350.478 579.163C340.543 580.341 330.598 578.405 320.964 576.093C312.674 573.796 304.177 570.711 298.058 564.391C295.082 561.373 292.63 557.27 293.349 552.879C293.903 548.976 297.423 546.616 300.02 544.059C292.158 541.013 283.403 539.549 276.735 534.024C271.38 529.906 267.87 522.083 271.148 515.639C273.517 510.43 278.781 507.651 283.77 505.454C272.177 503.759 260.48 501.303 249.97 495.954C245.05 493.533 240.668 489.024 240.142 483.364C240.021 477.595 245.116 473.472 250.031 471.521C261.143 466.826 273.473 466.86 285.326 466.566C299.651 466.081 314.073 468.117 328.326 465.847C335.291 467.557 341.578 475.248 339.373 482.641C338.452 486.228 334.484 487.841 331.154 488.285C313.844 488.166 296.567 486.105 279.25 486.684C276.698 486.743 274.328 487.722 271.994 488.642C274.373 492.703 279.445 493.634 283.63 494.809C303.78 499.153 324.341 501.656 344.23 507.138C353.636 510.022 363.077 513.583 370.902 519.673ZM353.431 529.326C338.813 523.537 322.792 522.635 307.233 522.906C302.435 523.293 296.385 522.636 293.434 527.308C298.202 532.883 305.887 533.96 312.653 535.48C326.003 537.758 339.668 538.4 353.172 537.393C355.467 536.923 359.162 536.978 359.655 534.088C358.652 531.455 355.79 530.384 353.431 529.326ZM236.026 204.266C240.412 207.725 243.001 214.93 239.037 219.619C232.092 227.279 218.782 224.129 213.325 216.237C210.122 212.1 210.35 205.555 214.571 202.206C220.992 197.479 230.334 199.176 236.026 204.266ZM377.709 466.747C382.435 470.496 384.438 478.423 379.536 482.857C370.749 490.368 355.233 484.618 352.611 473.592C351.874 469.7 353.821 465.355 357.434 463.578C363.903 459.901 372.404 461.91 377.709 466.747ZM365.864 349.463C369.706 351.135 374.587 352.764 375.946 357.172C376.255 360.307 373.629 362.408 371.983 364.717C369.706 367.338 368.613 370.683 366.807 373.595C364.238 377.396 359.416 378.24 355.209 379.002C342.564 380.815 329.756 381.032 317.085 382.635C303.467 384.707 290.128 388.318 276.629 391C280.267 396.886 285.662 402.831 285.195 410.188C281.802 413.73 275.078 415.307 271.313 411.383C266.223 406.583 262.702 400.403 257.638 395.577C239.114 400.488 221.072 406.953 203.045 413.424C199.229 414.896 195.501 416.782 191.4 417.308C185.33 418.116 180.103 411.957 180.349 406.189C180.776 401.209 184.427 397.291 188.3 394.533C193.599 390.952 199.565 388.506 205.577 386.391C217.569 382.439 229.846 379.433 242.143 376.601C234.38 367.886 226.621 359.156 218.342 350.933C185.397 350.454 152.281 350.924 119.591 355.454C113.158 356.27 105.303 360.059 99.6779 355.131C93.2469 346.621 99.6998 332.708 110.233 331.418C137.903 327.569 165.928 327.159 193.819 327.326C186.572 320.976 178.909 315.081 170.866 309.74C167.98 308.066 166.26 304.517 167.138 301.24C168.377 295.124 175.193 292.781 180.38 290.983C186.837 290.796 191.263 296.187 195.901 299.862C206.776 308.75 216.487 318.962 226.388 328.844C256.135 331.038 285.903 333.537 315.401 338.056C332.418 340.836 349.62 343.484 365.864 349.463ZM246.55 352.005C251.917 358.632 257.295 365.254 262.398 372.09C285.878 367.266 309.537 363.335 333.386 360.869C304.655 356.127 275.607 353.625 246.55 352.005ZM260.418 134.728C263.75 136.298 267.855 137.814 269.19 141.593C269.739 145.106 266.686 147.536 264.887 150.117C261.677 154.132 260.82 160.411 255.297 162.166C245.334 165.4 234.655 164.838 224.341 166.124C205.878 167.034 188.004 172.015 170.008 175.851C178.093 187.144 186.146 198.504 193.416 210.345C197.076 215.749 193.398 224.186 186.559 224.157C170.588 224.016 154.545 223.072 138.58 224.264C135.55 224.443 132.639 225.335 129.848 226.496C132.121 230.923 137.594 231.21 141.778 232.674C160.923 237.686 180.934 239.899 200.706 238.589C204.427 238.67 208.317 235.655 211.783 238.051C216.674 241.128 222.125 246.233 221.063 252.602C220.091 257.564 214.269 257.658 210.319 258.673C216.723 260.045 223.162 261.779 228.94 264.954C236.144 268.601 236.626 279.247 231.96 285.083C229.419 288.202 224.987 287.347 221.811 285.855C214.616 282.675 210.984 275.162 205.155 270.27C199.364 264.665 191.182 263.009 183.497 261.748C168.132 259.185 151.845 259.253 137.227 265.2C135.403 265.881 133.242 267.097 131.357 265.856C127.454 263.586 123.37 260.894 121.38 256.667C119.895 253.539 121.368 249.744 124.088 247.833C127.679 244.507 132.7 243.696 137.156 242.195C127.013 241.392 116.844 239.136 107.553 234.925C102.333 232.77 98.3868 228.006 97.4094 222.412C97.4987 217.967 100.693 214.21 104.359 212.039C111.844 207.505 120.672 206.129 129.2 204.994C142.51 203.729 155.902 203.315 169.276 203.263C163.314 195.515 157.19 187.888 150.818 180.475C132.325 185.186 114.398 191.778 96.4768 198.301C91.7682 199.901 87.0601 202.85 81.8929 202.018C75.5522 200.589 71.6181 192.492 74.8562 186.709C78.4745 180.266 85.3898 176.564 91.9816 173.795C105.889 168.317 120.493 164.905 135.013 161.482C127.233 152.867 119.343 144.346 111.416 135.857C94.0449 135.244 76.6437 135.629 59.2679 136.276C41.0246 137.339 22.6151 137.909 4.71282 141.96C0.385123 142.717 -5.33683 142.932 -7.9512 138.635C-12.5286 129.9 -6.47084 117.886 3.30267 116.331C16.3328 114.104 29.5723 113.543 42.7597 112.849C57.4539 112.051 72.1664 112.03 86.8726 112.261C79.631 105.868 72.0362 99.8995 64.1197 94.3654C60.2804 92.0895 58.6979 86.9139 60.6857 82.9161C64.6456 76.3429 74.4486 72.3887 80.9748 77.7604C93.6405 88.0142 105.563 99.226 116.632 111.201C117.736 112.213 118.722 113.78 120.391 113.818C156.012 116.154 191.644 119.545 226.788 125.916C238.144 128.187 249.647 130.359 260.418 134.728ZM139.646 136.787C145.286 143.515 150.256 150.875 156.417 157.096C179.437 151.583 202.979 148.391 226.466 145.698C197.762 140.851 168.703 138.459 139.646 136.787Z" fill="white"/>
</g>
</svg>
