<svg width="514" height="462" viewBox="0 0 514 462" fill="none" xmlns="http://www.w3.org/2000/svg">
<path d="M70.3622 2.01912L37.2161 2.70438C18.0839 3.09992 4.20762 21.0653 8.65915 39.6767L105.51 444.599C107.663 453.599 115.708 459.947 124.962 459.947H469.487C486.667 459.947 495.852 439.714 484.542 426.781L139.972 32.7543C122.454 12.7218 96.9682 1.46907 70.3622 2.01912Z" fill="white"/>
<mask id="mask0_46_733" style="mask-type:alpha" maskUnits="userSpaceOnUse" x="7" y="2" width="483" height="458">
<path d="M70.3622 2.01912L37.2161 2.70438C18.0839 3.09992 4.20762 21.0653 8.65915 39.6767L105.51 444.599C107.663 453.599 115.708 459.947 124.962 459.947H469.487C486.667 459.947 495.852 439.714 484.542 426.781L139.972 32.7543C122.454 12.7218 96.9682 1.46907 70.3622 2.01912Z" fill="#1C1C1C"/>
</mask>
<g mask="url(#mask0_46_733)">
<circle cx="109.599" cy="196.8" r="129.572" fill="#D02A1E"/>
<circle cx="77.3975" cy="142.364" r="32.2012" fill="white"/>
<circle cx="290.257" cy="436.01" r="125.299" transform="rotate(21.6632 290.257 436.01)" stroke="#ABABAB" stroke-width="8.54582"/>
<circle cx="282.256" cy="371.047" r="32.2012" transform="rotate(21.6632 282.256 371.047)" fill="#ABABAB"/>
</g>
<path d="M70.3418 1.01953C97.2433 0.463456 123.012 11.8408 140.725 32.0957L485.295 426.123C497.17 439.702 487.527 460.947 469.487 460.947H124.962C115.246 460.947 106.798 454.282 104.538 444.832L7.68652 39.9092C3.08669 20.6775 17.4255 2.11387 37.1953 1.70508L70.3418 1.01953Z" stroke="#1E1E1E" stroke-width="2"/>
</svg>
