<svg width="514" height="462" viewBox="0 0 514 462" fill="none" xmlns="http://www.w3.org/2000/svg">
<path d="M70.3418 1.01953C97.2433 0.463456 123.012 11.8408 140.725 32.0957L485.295 426.123C497.17 439.702 487.527 460.947 469.487 460.947H124.962C115.246 460.947 106.798 454.282 104.538 444.832L7.68652 39.9092C3.08669 20.6775 17.4255 2.11387 37.1953 1.70508L70.3418 1.01953Z" fill="white" stroke="#1E1E1E" stroke-width="2"/>
<mask id="mask0_21_384" style="mask-type:alpha" maskUnits="userSpaceOnUse" x="5" y="0" width="487" height="462">
<path d="M70.3418 1.01953C97.2433 0.463456 123.012 11.8408 140.725 32.0957L485.295 426.123C497.17 439.702 487.527 460.947 469.487 460.947H124.962C115.246 460.947 106.798 454.282 104.538 444.832L7.68652 39.9092C3.08669 20.6775 17.4255 2.11387 37.1953 1.70508L70.3418 1.01953Z" fill="white" stroke="#1E1E1E" stroke-width="2"/>
</mask>
<g mask="url(#mask0_21_384)">
<path d="M150.741 131.01C77.0905 83.8828 30.9047 66.0564 -59.1035 76.4828L-0.990845 217.036C98.5624 203.776 152.562 205.981 200.092 229.579C284.672 275.199 330.969 281.54 412.907 281.771L278.636 173.971C227.543 175.196 200.786 163.032 150.741 131.01Z" fill="#E9273C"/>
<path d="M229.859 341.005C309.394 343.323 326.888 336.663 375.986 312.747C313.778 316.317 276.384 310.305 207.794 286.445C119.715 251.222 85.489 259.108 25.6113 279.266L80.785 409.418C127.778 357.245 178.608 342.692 229.859 341.005Z" fill="#003781"/>
<path d="M322.829 388.975C365.568 380.117 382.481 387.114 459.896 319.365L495.42 348.43C470.744 398.5 455.203 425.278 412.533 461.815H125.84C194.015 423.781 216.979 388.975 322.829 388.975Z" fill="#E9273C"/>
<mask id="mask1_21_384" style="mask-type:alpha" maskUnits="userSpaceOnUse" x="-60" y="73" width="556" height="389">
<path d="M150.741 131.01C77.0905 83.8828 30.9047 66.0564 -59.1035 76.4828L-0.990845 217.036C98.5624 203.776 152.562 205.981 200.092 229.579C284.672 275.199 330.969 281.54 412.907 281.771L278.636 173.971C227.543 175.196 200.786 163.032 150.741 131.01Z" fill="#E9273C"/>
<path d="M229.859 341.005C309.394 343.323 326.888 336.663 375.986 312.747C313.778 316.317 276.384 310.305 207.794 286.445C119.715 251.222 85.489 259.108 25.6113 279.266L80.785 409.418C127.778 357.245 178.608 342.692 229.859 341.005Z" fill="#003781"/>
<path d="M322.829 388.975C365.568 380.117 382.481 387.114 459.896 319.365L495.42 348.43C470.744 398.5 455.203 425.278 412.533 461.815H125.84C194.015 423.781 216.979 388.975 322.829 388.975Z" fill="#E9273C"/>
</mask>
<g mask="url(#mask1_21_384)">
<path d="M307.106 471.738L179.659 493.825L71.652 72.6316L199.099 50.5439L307.106 471.738Z" fill="url(#paint0_linear_21_384)" fill-opacity="0.6"/>
</g>
<path d="M70.3418 1.01953C97.2433 0.463456 123.012 11.8408 140.725 32.0957L485.295 426.123C497.17 439.702 487.527 460.947 469.487 460.947H124.962C115.246 460.947 106.798 454.282 104.538 444.832L7.68652 39.9092C3.08669 20.6775 17.4255 2.11387 37.1953 1.70508L70.3418 1.01953Z" stroke="#1E1E1E" stroke-width="2"/>
<path d="M456.576 438.079L366.174 496.515L174.139 164.551L264.541 106.114L456.576 438.079Z" fill="url(#paint1_linear_21_384)" fill-opacity="0.6"/>
<path d="M206.938 470.485L117.336 490.05L9.32881 68.8564L98.9308 49.2919L206.938 470.485Z" fill="url(#paint2_linear_21_384)" fill-opacity="0.6"/>
</g>
<defs>
<linearGradient id="paint0_linear_21_384" x1="222.663" y1="278.731" x2="165.985" y2="293.69" gradientUnits="userSpaceOnUse">
<stop stop-opacity="0"/>
<stop offset="0.5" stop-opacity="0.5"/>
<stop offset="1" stop-opacity="0"/>
</linearGradient>
<linearGradient id="paint1_linear_21_384" x1="341.765" y1="307.372" x2="297.341" y2="333.487" gradientUnits="userSpaceOnUse">
<stop stop-color="white" stop-opacity="0"/>
<stop offset="0.5" stop-color="white" stop-opacity="0.9"/>
<stop offset="1" stop-color="white" stop-opacity="0"/>
</linearGradient>
<linearGradient id="paint2_linear_21_384" x1="145.2" y1="281.515" x2="88.5225" y2="296.474" gradientUnits="userSpaceOnUse">
<stop stop-color="white" stop-opacity="0"/>
<stop offset="0.5" stop-color="white" stop-opacity="0.8"/>
<stop offset="1" stop-color="white" stop-opacity="0"/>
</linearGradient>
</defs>
</svg>
