<svg width="514" height="459" viewBox="0 0 514 459" fill="none" xmlns="http://www.w3.org/2000/svg">
<path d="M70.3622 0.867752L37.2161 1.55301C18.0839 1.94855 4.20762 19.914 8.65915 38.5253L105.51 443.448C107.663 452.448 115.708 458.796 124.962 458.796H469.487C486.667 458.796 495.852 438.563 484.542 425.63L139.972 31.6029C122.454 11.5704 96.9682 0.317701 70.3622 0.867752Z" fill="#2B356F"/>
<mask id="mask0_6_9" style="mask-type:alpha" maskUnits="userSpaceOnUse" x="7" y="0" width="483" height="459">
<path d="M70.3622 0.867752L37.2161 1.55301C18.0839 1.94855 4.20762 19.914 8.65915 38.5253L105.51 443.448C107.663 452.448 115.708 458.796 124.962 458.796H469.487C486.667 458.796 495.852 438.563 484.542 425.63L139.972 31.6029C122.454 11.5704 96.9682 0.317701 70.3622 0.867752Z" fill="#3A416C"/>
</mask>
<g mask="url(#mask0_6_9)">
<path d="M177.863 518.227L160.303 284.037L354.425 171.961L177.863 518.227ZM152.622 552.227L121.93 306.192L38.4126 354.411L152.622 552.227Z" fill="#98002E"/>
<path d="M-33.7314 151.735L354.425 171.961L160.303 284.038L-33.7314 151.735Z" fill="#E31837"/>
<path d="M-75.7959 156.596L38.413 354.412L121.931 306.193L-75.7959 156.596Z" fill="#E31837"/>
</g>
</svg>
