<svg width="514" height="462" viewBox="0 0 514 462" fill="none" xmlns="http://www.w3.org/2000/svg">
<path d="M70.3418 1.01953C97.2433 0.463456 123.012 11.8408 140.725 32.0957L485.295 426.123C497.17 439.702 487.527 460.947 469.487 460.947H124.962C115.246 460.947 106.798 454.282 104.538 444.832L7.68652 39.9092C3.08669 20.6775 17.4255 2.11387 37.1953 1.70508L70.3418 1.01953Z" fill="#D7211B" stroke="#1E1E1E" stroke-width="2"/>
<mask id="mask0_22_1040" style="mask-type:alpha" maskUnits="userSpaceOnUse" x="7" y="2" width="483" height="458">
<path d="M70.3622 2.01912L37.2161 2.70438C18.0839 3.09992 4.20762 21.0653 8.65915 39.6767L105.51 444.599C107.663 453.599 115.708 459.947 124.962 459.947H469.487C486.667 459.947 495.852 439.714 484.542 426.781L139.972 32.7543C122.454 12.7218 96.9682 1.46907 70.3622 2.01912Z" fill="white"/>
</mask>
<g mask="url(#mask0_22_1040)">
<rect x="-151.57" y="151.236" width="599.083" height="234.304" fill="white"/>
<path d="M113.855 313.924C140.078 292.922 158.799 274.933 164.378 265.172C166.749 261.418 167.51 257.816 166.196 254.885C163.749 249.43 155.121 247.778 144.468 249.817C191.381 239.343 239.795 232.79 289.37 230.55C289.806 230.536 290.193 230.84 290.269 231.269C290.345 231.69 290.096 232.105 289.681 232.237C227.939 252.071 171.741 284.204 123.983 325.767C123.921 325.822 123.852 325.85 123.776 325.863L92.7008 331.256C92.2653 331.332 92.0371 330.765 92.3897 330.502C99.9667 324.847 107.15 319.289 113.855 313.924Z" fill="#D7211B"/>
<path d="M106.189 259.316C105.463 259.516 104.744 259.71 104.011 259.917C103.582 260.035 103.624 260.664 104.066 260.726L116.393 262.489L137.935 265.565C138.017 265.572 138.1 265.558 138.176 265.524C153.33 258.299 163.438 255.513 165.664 258.666C166.348 259.634 166.231 261.134 165.429 263.077C165.159 263.726 164.8 264.425 164.371 265.178C166.742 261.431 167.503 257.829 166.189 254.891C163.742 249.444 155.121 247.784 144.433 249.831C143.209 250.107 141.993 250.384 140.776 250.66C129.155 253.308 117.616 256.191 106.189 259.316Z" fill="#93282B"/>
</g>
</svg>
