<svg width="514" height="462" viewBox="0 0 514 462" fill="none" xmlns="http://www.w3.org/2000/svg">
<path d="M70.3622 2.01936L37.2161 2.70462C18.0839 3.10016 4.20762 21.0656 8.65915 39.6769L105.51 444.6C107.663 453.599 115.708 459.947 124.962 459.947H469.487C486.667 459.947 495.852 439.714 484.542 426.781L139.972 32.7545C122.454 12.722 96.9682 1.46931 70.3622 2.01936Z" fill="#EF0909"/>
<mask id="mask0_46_602" style="mask-type:alpha" maskUnits="userSpaceOnUse" x="7" y="2" width="483" height="458">
<path d="M70.3622 2.01936L37.2161 2.70462C18.0839 3.10016 4.20762 21.0656 8.65915 39.6769L105.51 444.6C107.663 453.599 115.708 459.947 124.962 459.947H469.487C486.667 459.947 495.852 439.714 484.542 426.781L139.972 32.7545C122.454 12.722 96.9682 1.46931 70.3622 2.01936Z" fill="#1C1C1C"/>
</mask>
<g mask="url(#mask0_46_602)">
<path d="M105.308 481.247C105.308 463.123 113.072 460.527 131.197 470.887C151.581 482.688 172.294 493.911 193.312 504.541C193.312 494.203 203.673 486.416 221.797 491.585C239.922 496.776 258.024 499.349 258.024 499.349C258.024 499.349 247.686 476.056 242.495 465.719C234.73 447.594 242.495 437.234 250.259 434.661C250.259 434.661 239.922 426.896 232.135 421.705C216.606 411.368 219.201 398.412 234.73 393.22C255.451 382.883 283.913 372.545 283.913 372.545C276.148 367.354 265.788 354.398 276.148 336.296C286.486 320.767 304.633 297.474 304.633 297.474H255.451C237.303 297.474 232.135 281.945 232.135 271.585C232.135 271.585 203.673 292.282 182.975 305.238C164.827 318.171 149.322 305.238 151.917 284.518C157.086 253.46 159.682 217.211 159.682 217.211C149.322 227.571 131.197 224.998 120.86 209.469C107.904 183.58 94.9706 152.5 94.9706 152.5C94.9706 152.5 82.0146 183.58 69.0815 209.492C61.3171 225.021 43.1924 227.594 32.8322 219.83C34.5247 242.36 37.1149 264.813 40.5966 287.137C43.1924 305.261 27.6635 318.194 9.53886 305.261C-7.84221 294.228 -25.0951 282.994 -42.2164 271.562C-42.2164 281.899 -47.408 294.855 -65.5097 297.451H-114.692C-114.692 297.451 -96.5674 320.744 -86.2072 336.273C-75.8699 351.802 -86.2072 367.331 -93.9946 372.499C-93.9946 372.499 -68.1055 385.455 -44.8122 393.22C-29.2833 400.984 -24.0917 411.322 -42.2164 421.705C-47.408 426.873 -60.341 434.638 -60.341 434.638C-50.0038 437.211 -42.2164 447.571 -50.0038 465.696C-55.1724 476.033 -65.5097 499.326 -65.5097 499.326C-65.5097 499.326 -47.408 494.157 -29.2833 491.562C-11.1586 486.393 -3.3942 496.753 -0.798401 504.518C-0.798401 504.518 30.2593 486.393 61.317 470.864C76.8459 460.527 87.2061 465.696 87.2061 481.201V525.215C87.2061 551.104 82.0145 576.993 74.2501 592.522C-42.2164 579.566 -140.581 486.393 -140.581 362.162L-179.403 359.589C-179.403 486.416 -83.6343 592.522 43.1924 615.839C63.9128 621.007 76.8459 623.603 89.779 636.536C102.735 610.67 105.308 558.892 105.308 530.407V481.247Z" fill="white"/>
<path d="M98.9424 108.828C240.077 108.828 355.338 216.542 355.338 353.484C355.338 480.797 254.471 583.805 125.238 595.741L119.778 596.246V558.085L124.237 557.599C229.936 546.098 312.454 458.833 312.454 353.463C312.454 241.241 218.499 149.335 101.277 149.335C-15.923 149.335 -109.878 241.241 -109.878 353.463V358.805L-115.208 358.452L-150.449 356.117L-155.118 355.807V351.128C-155.118 216.54 -39.8551 108.828 98.9424 108.828Z" fill="white" stroke="white" stroke-width="10"/>
</g>
<path d="M70.3418 1.01978C97.2433 0.4637 123.012 11.841 140.725 32.0959L485.295 426.123C497.17 439.703 487.527 460.947 469.487 460.948H124.962C115.246 460.948 106.798 454.282 104.538 444.832L7.68652 39.9094C3.08669 20.6778 17.4255 2.11411 37.1953 1.70532L70.3418 1.01978Z" stroke="#1E1E1E" stroke-width="2"/>
</svg>
