<svg width="514" height="459" viewBox="0 0 514 459" fill="none" xmlns="http://www.w3.org/2000/svg">
<path d="M70.3622 0.867752L37.2161 1.55301C18.0839 1.94855 4.20762 19.914 8.65915 38.5253L105.51 443.448C107.663 452.448 115.708 458.796 124.962 458.796H469.487C486.667 458.796 495.852 438.563 484.542 425.63L139.972 31.6029C122.454 11.5704 96.9682 0.317701 70.3622 0.867752Z" fill="#2A1361"/>
<mask id="mask0_45_816" style="mask-type:alpha" maskUnits="userSpaceOnUse" x="7" y="0" width="483" height="459">
<path d="M70.3622 0.867752L37.2161 1.55301C18.0839 1.94855 4.20762 19.914 8.65915 38.5253L105.51 443.448C107.663 452.448 115.708 458.796 124.962 458.796H469.487C486.667 458.796 495.852 438.563 484.542 425.63L139.972 31.6029C122.454 11.5704 96.9682 0.317701 70.3622 0.867752Z" fill="#1C1C1C"/>
</mask>
<g mask="url(#mask0_45_816)">
<path d="M204.962 330.204C204.962 317.639 210.345 315.839 222.911 323.022C237.042 331.203 251.403 338.984 265.974 346.353C265.974 339.187 273.157 333.788 285.722 337.371C298.288 340.97 310.837 342.754 310.837 342.754C310.837 342.754 303.671 326.605 300.071 319.439C294.688 306.873 300.071 299.691 305.454 297.907C305.454 297.907 298.288 292.524 292.889 288.925C282.123 281.758 283.923 272.776 294.688 269.177C309.053 262.01 328.786 254.843 328.786 254.843C323.403 251.244 316.22 242.262 323.403 229.712C330.569 218.947 343.151 202.798 343.151 202.798H309.053C296.472 202.798 292.889 192.032 292.889 184.849C292.889 184.849 273.157 199.199 258.807 208.181C246.226 217.147 235.476 208.181 237.276 193.816C240.859 172.284 242.659 147.153 242.659 147.153C235.476 154.335 222.911 152.552 215.744 141.786C206.762 123.837 197.796 102.29 197.796 102.29C197.796 102.29 188.813 123.837 179.847 141.802C174.464 152.568 161.899 154.351 154.716 148.968C155.89 164.588 157.685 180.155 160.099 195.631C161.899 208.197 151.133 217.163 138.567 208.197C126.518 200.547 114.556 192.759 102.687 184.833C102.687 192 99.0873 200.982 86.5378 202.782H52.4406C52.4406 202.782 65.0061 218.931 72.1886 229.696C79.3552 240.462 72.1886 251.228 66.7898 254.812C66.7898 254.812 84.7382 263.794 100.887 269.177C111.653 274.56 115.252 281.726 102.687 288.925C99.0873 292.508 90.1211 297.891 90.1211 297.891C97.2877 299.675 102.687 306.857 97.2877 319.423C93.7044 326.589 86.5378 342.738 86.5378 342.738C86.5378 342.738 99.0873 339.155 111.653 337.355C124.218 333.772 129.601 340.954 131.401 346.337C131.401 346.337 152.933 333.772 174.464 323.006C185.23 315.839 192.413 319.423 192.413 330.173V360.686C192.413 378.635 188.813 396.583 183.431 407.349C102.687 398.367 34.4922 333.772 34.4922 247.645C34.4922 159.718 108.07 87.9247 199.579 87.9247C291.105 87.9247 364.682 159.718 364.682 247.645C364.682 330.188 300.071 398.367 217.528 407.349V428.881C314.436 419.931 389.797 342.754 389.797 247.661C389.797 145.369 303.671 64.6252 197.796 64.6252C93.7044 64.6252 7.57751 145.369 7.57751 245.861C7.57751 333.788 73.9723 407.349 161.899 423.514C176.264 427.097 185.23 428.897 194.196 437.863C203.179 419.931 204.962 384.034 204.962 364.286V330.204Z" fill="#C478CD"/>
</g>
</svg>
