<svg width="514" height="462" viewBox="0 0 514 462" fill="none" xmlns="http://www.w3.org/2000/svg">
<path d="M70.3418 1.01953C97.2433 0.463456 123.012 11.8408 140.725 32.0957L485.295 426.123C497.17 439.702 487.527 460.947 469.487 460.947H124.962C115.246 460.947 106.798 454.282 104.538 444.832L7.68652 39.9092C3.08669 20.6775 17.4255 2.11387 37.1953 1.70508L70.3418 1.01953Z" fill="white" stroke="#1E1E1E" stroke-width="2"/>
<mask id="mask0_27_165" style="mask-type:alpha" maskUnits="userSpaceOnUse" x="5" y="0" width="487" height="462">
<path d="M70.3418 1.01953C97.2433 0.463456 123.012 11.8408 140.725 32.0957L485.295 426.123C497.17 439.702 487.527 460.947 469.487 460.947H124.962C115.246 460.947 106.798 454.282 104.538 444.832L7.68652 39.9092C3.08669 20.6775 17.4255 2.11387 37.1953 1.70508L70.3418 1.01953Z" fill="white" stroke="#1E1E1E" stroke-width="2"/>
</mask>
<g mask="url(#mask0_27_165)">
<rect x="-5.89453" y="2.7876" width="24.2656" height="491.825" transform="rotate(-13.404 -5.89453 2.7876)" fill="#FF0000"/>
<path d="M70.3418 1.01953C97.2433 0.463456 123.012 11.8408 140.725 32.0957L485.295 426.123C497.17 439.702 487.527 460.947 469.487 460.947H124.962C115.246 460.947 106.798 454.282 104.538 444.832L7.68652 39.9092C3.08669 20.6775 17.4255 2.11387 37.1953 1.70508L70.3418 1.01953Z" stroke="#1E1E1E" stroke-width="2"/>
<path d="M250.329 223.953C245.377 224.055 253.877 232.764 247.27 233.323C240.663 233.882 224.761 237.629 218.874 235.044C212.986 232.459 216.313 241.67 215.527 246.517C214.741 251.365 188.752 243.283 193.824 252.063C198.895 260.842 199.355 264.736 199.847 269.56C200.339 274.383 194.912 264.343 193.537 273.575C191.943 284.272 212.766 327.139 221.646 333.81C230.214 325.482 241.931 320.329 254.823 320.329C281.097 320.329 302.437 341.669 302.437 367.943C302.437 394.217 281.097 415.461 254.823 415.461L254.632 418.616C268.595 421.938 309.863 404.915 314.484 371.767C314.782 369.632 319.77 372.146 319.838 367.943C319.906 363.74 313.797 365.154 313.146 354.94C312.494 344.726 319.68 347.834 318.117 342.893C316.555 337.951 307.177 336.32 305.879 333.141C304.581 329.961 304.348 321.021 304.158 320.424C303.969 319.828 314.222 318.34 317.448 317.269C320.674 316.198 331.53 310.317 325.384 306.465L312.859 305.892C311.802 306.185 304.204 300.688 309.13 291.263C314.056 281.838 322.46 278.648 328.061 282.849C328.061 282.849 329.236 290.786 331.025 288.873C332.61 287.1 331.735 284.522 332.459 282.276C333.183 280.03 334.037 282.397 335.71 281.033C338.834 278.486 338.01 265.915 335.996 264.588C334.655 263.703 318.031 261.829 317.066 261.528C316.1 261.228 316.576 256.106 311.998 251.776C307.42 247.446 304.407 248.808 297.37 243.267C290.332 237.725 285.056 229.456 283.411 230.455C281.765 231.454 286.541 235.23 281.594 235.713C276.648 236.197 255.282 223.851 250.329 223.953ZM267.061 245.752C267.545 245.705 268.016 245.721 268.495 245.752C271.692 245.953 274.643 247.777 274.615 249.386C274.568 251.96 267.422 248.815 266.966 252.35C266.509 255.884 264.728 259.729 263.524 259.042C262.32 258.356 259.055 251.161 263.046 247.473C264.168 246.436 265.61 245.895 267.061 245.752ZM307.791 260.381C308.82 260.328 309.788 260.433 310.469 260.476C311.83 260.563 315.296 262.451 311.138 262.197C306.979 261.943 306.443 261.912 305.401 265.161C304.359 268.41 303.691 262.791 305.019 261.337C305.683 260.61 306.763 260.434 307.791 260.381ZM309.226 263.536C310.001 263.536 310.66 264.195 310.66 264.97C310.66 265.746 310.001 266.404 309.226 266.404C308.45 266.404 307.887 265.746 307.887 264.97C307.887 264.195 308.45 263.536 309.226 263.536Z" fill="#FF0000"/>
<path d="M293.977 367.758C293.977 388.949 276.518 406.128 254.982 406.128C233.447 406.128 215.988 388.949 215.988 367.758C215.988 346.567 233.447 329.388 254.982 329.388C276.518 329.388 293.977 346.567 293.977 367.758Z" fill="#FF0000"/>
<path d="M152.347 232.06C155.299 191.979 189.342 186.381 181.047 227.381C172.752 268.38 185.413 287.566 197.806 308.214C215.001 336.862 224.764 347.546 227.84 346.859L221.289 352.162C170.237 324.126 149.396 272.141 152.347 232.06Z" fill="#FF0000"/>
<path d="M127.356 289.144C117.203 257.287 141.747 242.407 148.06 276.63C154.373 310.854 170.097 321.738 186.069 333.834C208.228 350.617 219.078 355.836 221.24 354.352L217.827 360.477C169.721 354.668 137.508 321.001 127.356 289.144Z" fill="#FF0000"/>
<path d="M127.561 351.554C106.89 332.083 118.982 310.917 137.777 333.728C156.572 356.539 190.234 363.114 202.371 365.841C214.507 368.568 244.111 376.59 244.111 376.59C244.111 376.59 145.736 374.457 127.561 351.554Z" fill="#FF0000"/>
<path d="M143.797 396.859C117.915 387.296 120.69 363.773 146.163 377.036C171.636 390.299 204.239 383.395 216.129 381.224C228.02 379.054 257.542 374.985 257.542 374.985C257.542 374.985 168.75 410.439 143.797 396.859Z" fill="#FF0000"/>
<path d="M172.418 425.492C150.799 426.306 145.772 408.427 168.202 410.417C190.631 412.407 212.193 397.648 220.161 392.517C228.129 387.386 248.308 375.604 248.308 375.604C248.308 375.604 194.566 427.867 172.418 425.492Z" fill="#FF0000"/>
<path d="M202.571 440.821C185.562 447.808 176.31 435.019 194.787 430.031C213.264 425.043 226.139 406.947 230.991 400.518C235.844 394.089 248.487 378.773 248.487 378.773C248.487 378.773 220.936 436.223 202.571 440.821Z" fill="#FF0000"/>
<path d="M227.747 443.948C216.225 453.355 206.057 445.63 219.186 437.426C232.316 429.222 238.028 412.188 240.272 406.071C242.517 399.954 248.703 385.127 248.703 385.127C248.703 385.127 240.882 436.072 227.747 443.948Z" fill="#FF0000"/>
<path d="M251.333 438.743C245.233 447.448 236.741 444.108 244.179 435.918C251.618 427.728 252.242 414.904 252.599 410.261C252.956 405.618 254.334 394.22 254.334 394.22C254.334 394.22 258.839 430.777 251.333 438.743Z" fill="#FF0000"/>
</g>
</svg>
