<svg width="514" height="462" viewBox="0 0 514 462" fill="none" xmlns="http://www.w3.org/2000/svg">
<mask id="mask0_46_701" style="mask-type:alpha" maskUnits="userSpaceOnUse" x="5" y="0" width="487" height="462">
<path d="M70.3418 1.01978C97.2433 0.4637 123.012 11.841 140.725 32.0959L485.295 426.123C497.17 439.703 487.527 460.947 469.487 460.948H124.962C115.246 460.948 106.798 454.282 104.538 444.832L7.68652 39.9094C3.08669 20.6778 17.4255 2.11411 37.1953 1.70532L70.3418 1.01978Z" fill="white" stroke="#1E1E1E" stroke-width="2"/>
</mask>
<g mask="url(#mask0_46_701)">
<path d="M70.3418 1.01978C97.2433 0.4637 123.012 11.841 140.725 32.0959L485.295 426.123C497.17 439.703 487.527 460.947 469.487 460.948H124.962C115.246 460.948 106.798 454.282 104.538 444.832L7.68652 39.9094C3.08669 20.6778 17.4255 2.11411 37.1953 1.70532L70.3418 1.01978Z" fill="white"/>
<path d="M70.3418 1.01978C97.2433 0.4637 123.012 11.841 140.725 32.0959L485.295 426.123C497.17 439.703 487.527 460.947 469.487 460.948H124.962C115.246 460.948 106.798 454.282 104.538 444.832L7.68652 39.9094C3.08669 20.6778 17.4255 2.11411 37.1953 1.70532L70.3418 1.01978Z" stroke="#1E1E1E" stroke-width="2"/>
<path d="M70.3418 1.01978C97.2433 0.4637 123.012 11.841 140.725 32.0959L485.295 426.123C497.17 439.703 487.527 460.947 469.487 460.948H124.962C115.246 460.948 106.798 454.282 104.538 444.832L7.68652 39.9094C3.08669 20.6778 17.4255 2.11411 37.1953 1.70532L70.3418 1.01978Z" stroke="#1E1E1E" stroke-width="2"/>
<path d="M135.061 347.946C137.34 348.065 139.63 348.414 142.491 349.412C176.585 361.965 300.361 413.138 447.998 443.157C454.596 444.45 452.662 447.478 444.723 447.465C344.61 450.671 306.888 449.363 261.308 446.061C217.646 441.916 184.486 445.946 150.086 404.535C118.411 367.377 119.112 347.12 135.061 347.946Z" fill="#C52528"/>
<path d="M479.152 439.046C378.983 406.792 132.689 253.967 96.3703 227.256C78.455 214.488 57.409 220.095 86.9684 275.784C107.348 310.145 121.556 330.283 180.277 352.152C220.4 370.276 370.238 424.196 476.311 443.762C484.181 444.915 486.9 442.156 479.152 439.046Z" fill="#FFC92D"/>
<path d="M469.44 431.242C382.584 394.543 195.51 280.685 132.106 236.123C86.4597 204.299 51.0915 180.676 39.0826 143.608C13.6096 59.034 39.1394 26.8529 66.6176 54.4762C101.484 92.9083 264.972 287.24 480.699 430.139C483.975 432.288 484.115 436.789 469.44 431.242Z" fill="#5E8F4D"/>
<path d="M70.3418 1.01978C97.2433 0.4637 123.012 11.841 140.725 32.0959L485.295 426.123C497.17 439.703 487.527 460.947 469.487 460.948H124.962C115.246 460.948 106.798 454.282 104.538 444.832L7.68652 39.9094C3.08669 20.6778 17.4255 2.11411 37.1953 1.70532L70.3418 1.01978Z" stroke="#1E1E1E" stroke-width="2"/>
</g>
</svg>
