<svg width="514" height="459" viewBox="0 0 514 459" fill="none" xmlns="http://www.w3.org/2000/svg">
<path d="M70.3622 0.867752L37.2161 1.55301C18.0839 1.94855 4.20762 19.914 8.65915 38.5253L105.51 443.448C107.663 452.448 115.708 458.796 124.962 458.796H469.487C486.667 458.796 495.852 438.563 484.542 425.63L139.972 31.6029C122.454 11.5704 96.9682 0.317701 70.3622 0.867752Z" fill="#1C1C1C"/>
<mask id="mask0_17_1121" style="mask-type:alpha" maskUnits="userSpaceOnUse" x="7" y="0" width="483" height="459">
<path d="M70.3622 0.867752L37.2161 1.55301C18.0839 1.94855 4.20762 19.914 8.65915 38.5253L105.51 443.448C107.663 452.448 115.708 458.796 124.962 458.796H469.487C486.667 458.796 495.852 438.563 484.542 425.63L139.972 31.6029C122.454 11.5704 96.9682 0.317701 70.3622 0.867752Z" fill="#1C1C1C"/>
</mask>
<g mask="url(#mask0_17_1121)">
<path d="M38.7001 37.2847C-80.0042 129.908 109.495 282.168 505.474 389.403" stroke="#FFD31C" stroke-width="71"/>
<path d="M41.6097 35.8657C122.657 -4.69303 215.202 70.3842 242.728 272.167C256.255 411.752 102.522 505.647 62.9392 505.647" stroke="#FFD31C" stroke-width="71"/>
<ellipse cx="18.2944" cy="-5.7312" rx="60.022" ry="67.8782" fill="#FFD31C"/>
</g>
</svg>
