<svg width="514" height="462" viewBox="0 0 514 462" fill="none" xmlns="http://www.w3.org/2000/svg">
<path d="M70.3418 1.01953C97.2433 0.463456 123.012 11.8408 140.725 32.0957L485.295 426.123C497.17 439.702 487.527 460.947 469.487 460.947H124.962C115.246 460.947 106.798 454.282 104.538 444.832L7.68652 39.9092C3.08669 20.6775 17.4255 2.11387 37.1953 1.70508L70.3418 1.01953Z" fill="white" stroke="#1E1E1E" stroke-width="2"/>
<path d="M204.083 213.273H210.292V207.064H216.435V200.855H210.292V194.629H204.083V200.846H197.874V207.056H204.083V213.273ZM244.319 211.688C238.316 211.688 233.453 216.576 233.477 222.587C233.47 224.015 233.745 225.431 234.286 226.753C234.827 228.075 235.625 229.277 236.632 230.29C237.64 231.303 238.837 232.107 240.157 232.655C241.476 233.204 242.89 233.486 244.319 233.486C250.272 233.486 255.152 228.614 255.152 222.587C255.159 221.159 254.885 219.744 254.344 218.422C253.803 217.101 253.007 215.899 252 214.886C250.993 213.874 249.797 213.07 248.478 212.521C247.16 211.972 245.747 211.689 244.319 211.688ZM169.982 249.075H244.319V236.591H169.982V249.075ZM180.831 222.587C180.831 216.568 175.951 211.688 169.99 211.688C163.987 211.688 159.124 216.584 159.157 222.587C159.117 224.035 159.368 225.477 159.894 226.827C160.421 228.176 161.213 229.407 162.223 230.446C163.233 231.484 164.441 232.31 165.776 232.873C167.111 233.437 168.545 233.727 169.994 233.727C171.443 233.727 172.877 233.437 174.212 232.873C175.547 232.31 176.755 231.484 177.765 230.446C178.775 229.407 179.567 228.176 180.094 226.827C180.62 225.477 180.871 224.035 180.831 222.587ZM208.715 222.587C208.715 228.614 213.586 233.486 219.548 233.486C225.501 233.486 230.381 228.614 230.381 222.587C230.389 221.159 230.114 219.744 229.573 218.422C229.032 217.101 228.236 215.899 227.229 214.886C226.223 213.874 225.026 213.07 223.708 212.521C222.389 211.972 220.976 211.689 219.548 211.688C213.595 211.688 208.715 216.559 208.715 222.587ZM194.769 233.486C200.73 233.486 205.61 228.614 205.61 222.587C205.61 216.568 200.73 211.688 194.769 211.688C188.766 211.688 183.903 216.584 183.936 222.587C183.928 224.015 184.203 225.43 184.744 226.752C185.285 228.073 186.081 229.275 187.088 230.287C188.094 231.3 189.291 232.104 190.609 232.653C191.927 233.202 193.341 233.485 194.769 233.486ZM275.315 261.56L266.001 289.633L256.688 261.56H225.699V311.374H244.244V273.978L256.605 311.357H275.233L287.593 273.978V311.357H306.171V261.485H275.307L275.315 261.56ZM188.617 261.56H170.056V311.374H219.614V298.823H188.617V261.56ZM163.781 261.56H145.211L126.575 280.253V261.56H108.005V311.374H126.583V292.68L145.203 311.374H169.982L142.098 283.3L163.781 261.56Z" fill="#009FD9"/>
</svg>
