<svg width="514" height="459" viewBox="0 0 514 459" fill="none" xmlns="http://www.w3.org/2000/svg">
<path d="M70.3622 0.867752L37.2161 1.55301C18.0839 1.94855 4.20762 19.914 8.65915 38.5253L105.51 443.448C107.663 452.448 115.708 458.796 124.962 458.796H469.487C486.667 458.796 495.852 438.563 484.542 425.63L139.972 31.6029C122.454 11.5704 96.9682 0.317701 70.3622 0.867752Z" fill="#FC1919"/>
<mask id="mask0_16_825" style="mask-type:alpha" maskUnits="userSpaceOnUse" x="5" y="-2" width="487" height="463">
<path d="M70.3418 -0.131836C97.2433 -0.687911 123.012 10.6894 140.725 30.9443L485.295 424.972C497.17 438.551 487.527 459.796 469.487 459.796H124.962C115.246 459.796 106.798 453.13 104.538 443.681L7.68652 38.7578C3.08669 19.5262 17.4255 0.962498 37.1953 0.553711L70.3418 -0.131836Z" fill="white" stroke="#1E1E1E" stroke-width="2"/>
</mask>
<g mask="url(#mask0_16_825)">
<path d="M251.578 141.854C331.499 150.17 393.846 217.722 393.873 299.841C393.873 387.602 322.772 458.756 235.011 458.795C147.237 458.795 76.0699 387.694 76.0435 299.934C76.0435 212.16 147.144 140.993 234.905 140.966C240.533 140.966 246.082 141.258 251.578 141.854ZM259.762 447.685C341.404 433.978 396.428 356.706 382.735 275.05C371.32 207.114 315.938 157.599 250.624 150.766C220.999 147.686 191.127 153.475 164.797 167.399C236.746 191.819 275.441 228.899 278.13 266.893C279.454 290.359 268.542 307.323 254.2 321.162L355.945 314.064C358.832 313.865 359.719 317.216 356.236 318.209L113.547 387.8C125.901 404.818 141.691 419.051 159.896 429.577C178.101 440.103 198.314 446.687 219.225 448.903C232.415 450.28 246.016 449.923 259.749 447.618L259.762 447.685ZM193.005 303.337C206.314 253.372 191.124 200.93 154.799 173.147C105.337 204.439 76.7983 263.344 87.1277 324.685C90.3908 344.328 97.5645 363.115 108.224 379.934C146.919 369.154 180.901 348.774 193.005 303.35V303.337Z" fill="white"/>
</g>
</svg>
