<svg width="514" height="459" viewBox="0 0 514 459" fill="none" xmlns="http://www.w3.org/2000/svg">
<path d="M70.3622 0.867752L37.2161 1.55301C18.0839 1.94855 4.20762 19.914 8.65915 38.5253L105.51 443.448C107.663 452.448 115.708 458.796 124.962 458.796H469.487C486.667 458.796 495.852 438.563 484.542 425.63L139.972 31.6029C122.454 11.5704 96.9682 0.317701 70.3622 0.867752Z" fill="#B45EB6"/>
<mask id="mask0_48_1094" style="mask-type:alpha" maskUnits="userSpaceOnUse" x="7" y="0" width="483" height="459">
<path d="M70.3622 0.867752L37.2161 1.55301C18.0839 1.94855 4.20762 19.914 8.65915 38.5253L105.51 443.448C107.663 452.448 115.708 458.796 124.962 458.796H469.487C486.667 458.796 495.852 438.563 484.542 425.63L139.972 31.6029C122.454 11.5704 96.9682 0.317701 70.3622 0.867752Z" fill="#54B149"/>
</mask>
<g mask="url(#mask0_48_1094)">
<circle cx="152.693" cy="295.074" r="219.977" fill="#AC2D74" stroke="#D177AF" stroke-width="23.815"/>
<circle cx="110.473" cy="264.46" r="158.799" fill="#D177AF"/>
<circle cx="110.343" cy="293.472" r="166.874" fill="#CC3D86"/>
<path d="M431.135 342.357L357.588 404.003L314.748 439.912L331.879 460.35C359.122 438.187 386.475 414.473 411.039 393.998L448.266 362.795L431.135 342.357ZM436.888 411.544C431.79 405.462 425.696 400.735 419.066 397.341L395.157 417.382C403.362 417.699 411.419 421.343 417.105 428.127C427.283 440.27 426.239 458.084 415.093 468.983L370.467 506.388L387.598 526.826C401.869 514.864 416.193 502.858 430.438 490.918C454.11 471.076 457.007 435.546 436.888 411.544Z" fill="white"/>
<path d="M208.188 138.691C188.069 114.689 152.559 111.309 128.887 131.15C105.216 150.992 102.364 186.526 122.483 210.528C138.159 229.231 163.131 235.412 184.606 227.84L165.239 204.734C156.662 204.711 148.181 201.052 142.242 193.966C134.222 184.398 133.172 171.319 138.531 160.863L191.969 224.617C195.379 222.819 198.668 220.638 201.738 218.065C225.413 198.227 228.306 162.693 208.188 138.691ZM188.404 155.274C195.583 163.839 197.158 175.218 193.575 185.01L160.028 144.987C170.295 143.17 181.228 146.712 188.404 155.274Z" fill="white"/>
<path d="M284.502 229.738C264.384 205.736 228.873 202.356 205.202 222.198C181.53 242.039 178.679 277.573 198.797 301.575C203.896 307.658 209.97 312.413 216.594 315.8L240.479 295.779C232.277 295.466 224.245 291.8 218.556 285.014C207.874 272.269 209.543 253.272 222.291 242.586C235.039 231.901 254.036 233.576 264.719 246.321C274.864 258.425 273.854 276.186 262.81 287.091L218.081 324.582L235.212 345.02L278.479 308.754C301.758 288.842 304.499 253.595 284.502 229.738Z" fill="white"/>
<path d="M360.662 320.601C340.547 296.602 305.033 293.219 281.362 313.06C257.69 332.902 254.842 368.439 274.958 392.438C290.765 411.297 316.039 417.455 337.628 409.588L318.41 386.659C309.605 386.833 300.81 383.147 294.716 375.876C284.034 363.132 285.703 344.134 298.451 333.449C311.199 322.763 330.193 324.435 340.879 337.183C346.973 344.454 349.041 353.778 347.332 362.417L366.55 385.346C378.072 365.459 376.47 339.46 360.662 320.601Z" fill="white"/>
<path d="M132.196 48.0298C122.233 36.1424 108.481 29.3377 94.2675 27.8856C92.7764 37.3777 89.0694 46.5165 83.2103 54.4677C93.7158 52.3055 105.046 55.823 112.416 64.6158C123.101 77.3639 121.429 96.3579 108.681 107.043C95.9329 117.729 76.9389 116.057 66.2535 103.309C60.5322 96.4829 58.3457 87.8629 59.5173 79.6804L35.5326 99.7842C37.7143 106.924 41.3845 113.774 46.4946 119.87C66.6162 143.876 102.078 147.248 125.75 127.407C149.421 107.566 152.318 72.0357 132.196 48.0298ZM81.9683 -10.6163L61.6295 6.43151C64.474 13.6399 64.3869 21.628 61.5364 28.7107C70.4072 24.3093 80.0833 22.2488 89.7119 22.4506C90.1927 9.80245 87.5592 -0.962064 81.9683 -10.6163ZM89.0771 27.5671C76.7859 27.4471 64.4569 31.3498 54.1789 39.4621C54.1682 39.4711 54.161 39.4771 54.1539 39.483L51.01 42.0758C27.5199 61.765 4.02964 81.4544 -19.4676 101.15L-2.33642 121.588C21.5948 101.529 45.5225 81.4729 69.4501 61.417C70.0643 60.9143 70.6933 60.3568 71.2434 59.8715C81.0432 51.1669 87.0402 39.7027 89.0771 27.5671Z" fill="white"/>
</g>
</svg>
