<svg width="514" height="462" viewBox="0 0 514 462" fill="none" xmlns="http://www.w3.org/2000/svg">
<path d="M70.3418 1.01953C97.2433 0.463456 123.012 11.8408 140.725 32.0957L485.295 426.123C497.17 439.702 487.527 460.947 469.487 460.947H124.962C115.246 460.947 106.798 454.282 104.538 444.832L7.68652 39.9092C3.08669 20.6775 17.4255 2.11387 37.1953 1.70508L70.3418 1.01953Z" fill="white" stroke="#1E1E1E" stroke-width="2"/>
<mask id="mask0_16_457" style="mask-type:alpha" maskUnits="userSpaceOnUse" x="5" y="0" width="487" height="462">
<path d="M70.3418 1.01953C97.2433 0.463456 123.012 11.8408 140.725 32.0957L485.295 426.123C497.17 439.702 487.527 460.947 469.487 460.947H124.962C115.246 460.947 106.798 454.282 104.538 444.832L7.68652 39.9092C3.08669 20.6775 17.4255 2.11387 37.1953 1.70508L70.3418 1.01953Z" fill="white" stroke="#1E1E1E" stroke-width="2"/>
</mask>
<g mask="url(#mask0_16_457)">
<path d="M207.865 389.272L-84.8021 43.8325L-129.718 87.1537L128.017 387.267C135.87 396.493 161.57 414.356 191.535 414.356H244.733V410.316C240.895 410.316 221.242 406.333 207.865 389.272Z" fill="#F20102"/>
<path d="M257.695 395.13L-75.7197 6.31152L-71.9162 20.5066L252.695 400.113C257.058 405.295 271.172 413.164 278.87 413.164H292.316V410.508C285.069 410.508 272.012 409.659 257.695 395.13Z" fill="#002C56"/>
<path d="M301.759 382.68L-39.0284 -15.7364L-55.604 -35.7461V-4.71256L273.664 380.089C284.282 394.233 318.589 413.563 332.443 413.563H352.767V409.578C336.815 409.578 320.066 401.032 301.759 382.68Z" fill="#002C56"/>
<path d="M391.11 371.87L43.9071 -33.1069H-26.3647L320.839 371.87C339.043 390.075 358.862 412.934 398.738 412.934H456.694V410.543C428.838 409.831 409.042 391.957 391.11 371.87Z" fill="#002C56"/>
<path d="M70.3418 1.01953C97.2433 0.463456 123.012 11.8408 140.725 32.0957L485.295 426.123C497.17 439.702 487.527 460.947 469.487 460.947H124.962C115.246 460.947 106.798 454.282 104.538 444.832L7.68652 39.9092C3.08669 20.6775 17.4255 2.11387 37.1953 1.70508L70.3418 1.01953Z" stroke="#1E1E1E" stroke-width="2"/>
</g>
</svg>
