<svg width="514" height="459" viewBox="0 0 514 459" fill="none" xmlns="http://www.w3.org/2000/svg">
<path d="M70.3622 0.867752L37.2161 1.55301C18.0839 1.94855 4.20762 19.914 8.65915 38.5253L105.51 443.448C107.663 452.448 115.708 458.796 124.962 458.796H469.487C486.667 458.796 495.852 438.563 484.542 425.63L139.972 31.6029C122.454 11.5704 96.9682 0.317701 70.3622 0.867752Z" fill="#7D98CF"/>
<path d="M103.244 325.354L174.463 325.354L124.103 375.714C118.206 381.62 118.206 391.19 124.103 397.097C129.999 402.998 139.579 402.998 145.475 397.097L195.841 346.737L195.841 417.961C195.841 426.306 202.609 433.074 210.954 433.074C219.31 433.074 226.078 426.306 226.078 417.961L226.078 346.747L276.433 397.107C282.339 403.008 291.92 403.008 297.816 397.107C303.717 391.201 303.717 381.62 297.816 375.724L247.461 325.364L318.675 325.364C327.03 325.364 333.798 318.596 333.798 310.25C333.798 301.895 327.03 295.127 318.675 295.127L247.461 295.121L297.826 244.766C303.722 238.865 303.722 229.29 297.826 223.383C294.878 220.43 291.008 218.959 287.137 218.959C283.267 218.959 279.396 220.43 276.438 223.383L226.078 273.744L226.078 202.52C226.078 194.174 219.31 187.396 210.954 187.396C202.609 187.396 195.841 194.174 195.841 202.52L195.841 273.739L145.485 223.378C142.532 220.425 138.662 218.954 134.791 218.954C130.921 218.954 127.056 220.425 124.098 223.378C118.201 229.285 118.201 238.86 124.098 244.761L174.453 295.121L103.244 295.116C94.8883 295.116 88.1201 301.895 88.1201 310.24C88.1151 318.586 94.8883 325.354 103.244 325.354Z" fill="white"/>
<path d="M174.464 325.352L133.245 325.352C124.889 325.352 118.116 318.584 118.121 310.239C118.121 301.893 124.889 295.115 133.245 295.115L174.454 295.12L154.099 274.76C148.202 268.859 148.202 259.283 154.099 253.377C157.057 250.424 160.922 248.952 164.793 248.952C168.663 248.952 172.533 250.424 175.487 253.377L217.225 295.115L288.711 295.126C297.067 295.126 303.835 301.894 303.835 310.25C303.835 318.595 297.067 325.363 288.711 325.363L217.209 325.363L175.477 367.095C169.58 372.997 160 372.997 154.104 367.095C148.208 361.189 148.208 351.619 154.104 345.713L174.464 325.352Z" fill="#121586"/>
</svg>
