<svg width="514" height="459" viewBox="0 0 514 459" fill="none" xmlns="http://www.w3.org/2000/svg">
<mask id="mask0_48_1491" style="mask-type:alpha" maskUnits="userSpaceOnUse" x="7" y="0" width="483" height="459">
<path d="M70.3622 0.867752L37.2161 1.55301C18.0839 1.94855 4.20762 19.914 8.65915 38.5253L105.51 443.448C107.663 452.448 115.708 458.796 124.962 458.796H469.487C486.667 458.796 495.852 438.563 484.542 425.63L139.972 31.6029C122.454 11.5704 96.9682 0.317701 70.3622 0.867752Z" fill="white"/>
</mask>
<g mask="url(#mask0_48_1491)">
<path d="M70.3622 0.867752L37.2161 1.55301C18.0839 1.94855 4.20762 19.914 8.65915 38.5253L105.51 443.448C107.663 452.448 115.708 458.796 124.962 458.796H469.487C486.667 458.796 495.852 438.563 484.542 425.63L139.972 31.6029C122.454 11.5704 96.9682 0.317701 70.3622 0.867752Z" fill="#1C4E9D"/>
<path d="M323.654 276.173C303.909 330.604 236.14 374.789 172.303 374.851C108.459 374.894 72.7088 330.835 92.4612 276.405C112.206 221.982 179.967 177.804 243.819 177.743C307.648 177.677 343.399 221.75 323.654 276.173Z" fill="#1C4E9D"/>
<path d="M229.081 185.344L225.311 228.719L253.02 185.328L237.022 230.33L273.906 191.496L246.767 235.072L290.273 203.454L253.876 242.62L301.075 220.362L257.862 252.465L305.508 241.093L258.448 263.922L303.318 264.23L255.603 276.242L294.629 288.177L249.512 288.561L280.027 311.313L240.599 300.033L260.545 332.067L229.459 309.894L237.477 349.013L216.884 317.465L212.382 361.01L203.677 322.23L187.017 367.232L190.787 323.864L163.086 367.255L179.068 322.26L142.2 361.087L169.323 317.511L125.817 349.129L162.222 309.963L115.038 332.214L158.244 300.126L110.582 311.482L157.658 288.646L112.787 288.362L160.503 276.342L121.468 264.408L166.593 264.023L136.055 241.271L175.506 252.551L155.561 220.517L186.631 242.682L178.628 203.571L199.221 235.127L203.708 191.567L212.413 230.346L229.081 185.344Z" fill="#F9E20E"/>
<path d="M109.856 276.252C129.192 222.954 187.609 179.409 241.061 177.96C241.94 177.944 242.811 177.916 243.69 177.916C251.138 177.909 258.207 178.487 264.884 179.59C267.421 180.03 269.911 180.53 272.447 181.131C276.271 182.064 279.972 183.174 283.495 184.454C263.581 173.29 227.214 171.031 199.991 176.42C140.865 188.124 89.6874 231.422 71.8008 276.285L109.856 276.252Z" fill="#4BA3E0"/>
<path d="M306.26 276.339C286.932 329.637 228.499 373.182 175.048 374.623C174.177 374.645 173.298 374.667 172.419 374.667C164.971 374.675 157.901 374.088 151.225 373.002C148.68 372.562 146.19 372.047 143.669 371.452C139.822 370.519 136.137 369.409 132.605 368.129C152.527 379.293 188.894 381.552 216.11 376.171C275.228 364.467 326.421 321.161 344.292 276.298L306.26 276.339Z" fill="#87CF2E"/>
</g>
</svg>
