<svg width="514" height="460" viewBox="0 0 514 460" fill="none" xmlns="http://www.w3.org/2000/svg">
<path d="M70.3622 0.867752L37.2161 1.55301C18.0839 1.94855 4.20762 19.914 8.65915 38.5253L105.51 443.448C107.663 452.448 115.708 458.796 124.962 458.796H469.487C486.667 458.796 495.852 438.563 484.542 425.63L139.972 31.6029C122.454 11.5704 96.9682 0.317701 70.3622 0.867752Z" fill="white" stroke="#1E1E1E"/>
<mask id="mask0_45_851" style="mask-type:alpha" maskUnits="userSpaceOnUse" x="7" y="0" width="483" height="459">
<path d="M70.3622 0.867752L37.2161 1.55301C18.0839 1.94855 4.20762 19.914 8.65915 38.5253L105.51 443.448C107.663 452.448 115.708 458.796 124.962 458.796H469.487C486.667 458.796 495.852 438.563 484.542 425.63L139.972 31.6029C122.454 11.5704 96.9682 0.317701 70.3622 0.867752Z" fill="#1C1C1C"/>
</mask>
<g mask="url(#mask0_45_851)">
<path d="M486.893 486.619C351.177 372.526 256.399 345.88 73.6833 315.341L76.6386 383.704C291.024 410.165 339.225 435.302 429.28 479.916L486.893 486.619Z" fill="url(#paint0_linear_45_851)"/>
<path d="M82.7771 404.619C258.267 429.567 322.972 448.097 408.534 485.157L354.381 484.467C282.326 470.473 204.405 461.974 86.6872 457.811L82.7771 404.619Z" fill="#D62B31"/>
<path d="M123.691 208.63C123.691 208.63 135.493 212.171 132.569 220.558C129.645 228.946 129.741 227.135 128.926 227.438C128.926 227.438 129.569 229.583 129.119 230.934C128.668 232.285 126.225 238.694 125.102 241.365C123.979 244.036 120.994 247.977 115.672 247.977H91.314C87.267 247.977 82.8455 243.181 83.3717 239.205L96.6106 230.514L100.309 234.561H102.707L97.9815 230.064L100.455 222.248H111.251L113.047 217.548H107.74C107.471 217.548 107.208 217.628 106.985 217.778C106.762 217.929 106.59 218.143 106.49 218.393L105.094 221.894H89.6648L86.1237 217.174L90.019 211.609L123.691 208.63Z" fill="#DAB428"/>
<path d="M123.276 208.083C124.095 208.083 124.903 208.276 125.634 208.647C126.365 209.017 126.999 209.555 127.483 210.217C127.967 210.878 128.288 211.645 128.42 212.454C128.552 213.262 128.492 214.091 128.243 214.872C126.726 219.734 124.824 225.47 124.439 225.774C124.069 226.068 123.667 226.319 123.24 226.523C123.24 226.523 124.217 226.821 123.69 228.47C123.397 229.396 121.945 233.615 120.731 237.141C120.214 238.626 119.249 239.914 117.968 240.827C116.688 241.739 115.155 242.232 113.583 242.235H85.6936C81.3481 242.235 78.8743 238.214 80.22 234.617L81.5707 231.02H95.6595L95.447 231.764C95.3412 232.131 95.3223 232.518 95.3917 232.895C95.4611 233.271 95.617 233.626 95.8471 233.931C96.0772 234.237 96.3751 234.485 96.7174 234.656C97.0598 234.826 97.4371 234.915 97.8196 234.915H105.772C106.342 234.915 106.898 234.737 107.362 234.406C107.827 234.075 108.176 233.608 108.362 233.069L108.817 231.728C108.898 231.494 108.922 231.245 108.886 231C108.851 230.755 108.757 230.523 108.614 230.321C108.47 230.12 108.281 229.956 108.061 229.842C107.841 229.729 107.598 229.67 107.35 229.669H98.0574L100.455 222.248H109.419C110.168 222.247 110.896 222.009 111.5 221.568C112.105 221.127 112.554 220.506 112.784 219.794L113.725 216.855C113.806 216.59 113.824 216.309 113.777 216.036C113.731 215.762 113.621 215.503 113.456 215.28C113.291 215.057 113.076 214.875 112.829 214.75C112.581 214.625 112.307 214.559 112.03 214.559H103.86C103.335 214.558 102.822 214.708 102.379 214.989C101.936 215.27 101.583 215.672 101.361 216.147L100.981 216.956H86.6346L86.6649 216.805C86.6649 216.805 88.4658 208.109 94.1621 208.109H123.276M123.276 206.844H94.1621C87.5148 206.844 85.5115 216.152 85.4305 216.547L85.4002 216.683L85.0613 218.201H101.786L102.125 217.472L102.504 216.663C102.627 216.407 102.819 216.191 103.059 216.039C103.299 215.887 103.576 215.805 103.86 215.803H112.03C112.112 215.802 112.193 215.821 112.266 215.858C112.339 215.895 112.402 215.949 112.45 216.016C112.498 216.081 112.529 216.157 112.541 216.237C112.554 216.317 112.546 216.399 112.521 216.476L111.58 219.41C111.435 219.869 111.147 220.27 110.759 220.554C110.37 220.838 109.901 220.99 109.419 220.988H99.5295L99.2462 221.869L96.8534 229.28L96.7016 229.755H80.6955L80.3869 230.575L79.0362 234.172C78.6409 235.214 78.504 236.336 78.637 237.443C78.77 238.549 79.1691 239.607 79.8001 240.526C80.4625 241.466 81.3461 242.229 82.3729 242.748C83.3997 243.267 84.5384 243.525 85.6886 243.5H113.578C115.414 243.499 117.205 242.926 118.7 241.86C120.196 240.793 121.321 239.287 121.92 237.551C123.109 234.106 124.591 229.801 124.889 228.855C125.116 228.233 125.163 227.56 125.026 226.912L125.213 226.771C125.628 226.447 125.992 226.164 129.447 215.252C129.754 214.281 129.828 213.252 129.663 212.248C129.498 211.244 129.099 210.293 128.498 209.472C127.897 208.651 127.111 207.982 126.204 207.521C125.296 207.061 124.293 206.82 123.276 206.819V206.844ZM97.0001 230.934H107.35C107.396 230.933 107.442 230.943 107.483 230.964C107.523 230.986 107.558 231.017 107.583 231.055C107.611 231.092 107.63 231.136 107.637 231.182C107.644 231.228 107.639 231.275 107.624 231.318L107.163 232.659C107.067 232.952 106.88 233.208 106.631 233.389C106.381 233.571 106.081 233.669 105.772 233.671H97.8196C97.6351 233.67 97.4532 233.627 97.2879 233.545C97.1227 233.463 96.9785 233.344 96.8665 233.197C96.7546 233.051 96.6778 232.88 96.6422 232.699C96.6066 232.518 96.6131 232.331 96.6611 232.153L96.8736 231.41L97.0001 230.974V230.934Z" fill="white"/>
<path d="M86.665 216.779C86.665 216.779 88.4659 208.083 94.1622 208.083H123.276C124.095 208.083 124.903 208.276 125.634 208.647C126.365 209.017 126.999 209.555 127.483 210.217C127.967 210.878 128.288 211.645 128.42 212.453C128.552 213.262 128.492 214.091 128.243 214.872C126.726 219.734 124.824 225.47 124.439 225.774C124.069 226.068 123.667 226.319 123.24 226.523C123.24 226.523 124.217 226.821 123.691 228.47C123.397 229.396 121.945 233.615 120.731 237.141C120.214 238.626 119.249 239.914 117.968 240.827C116.688 241.739 115.155 242.232 113.583 242.235H85.6937C81.3482 242.235 78.8744 238.214 80.22 234.617L81.5707 231.02H95.6596L95.4471 231.764C95.3413 232.131 95.3223 232.518 95.3918 232.895C95.4612 233.271 95.6171 233.626 95.8472 233.931C96.0772 234.237 96.3752 234.485 96.7175 234.656C97.0598 234.826 97.4371 234.915 97.8197 234.915H105.772C106.342 234.915 106.898 234.737 107.362 234.406C107.827 234.075 108.176 233.608 108.362 233.069L108.818 231.728C108.898 231.494 108.922 231.245 108.886 231C108.851 230.755 108.758 230.522 108.614 230.321C108.471 230.12 108.281 229.955 108.061 229.842C107.841 229.729 107.598 229.669 107.351 229.669H98.0575L100.455 222.248H109.42C110.168 222.247 110.896 222.009 111.5 221.568C112.105 221.127 112.554 220.506 112.784 219.794L113.725 216.855C113.806 216.59 113.824 216.309 113.778 216.036C113.731 215.762 113.621 215.503 113.456 215.28C113.291 215.057 113.076 214.875 112.829 214.75C112.581 214.624 112.307 214.559 112.03 214.559H103.86C103.335 214.558 102.822 214.707 102.379 214.989C101.936 215.27 101.583 215.672 101.361 216.147L100.981 216.956H86.6346L86.665 216.779Z" fill="#D62B31"/>
<path d="M177.243 210.435H151.251C149.47 210.433 147.733 210.987 146.283 212.019C144.832 213.051 143.739 214.51 143.157 216.192L133.798 236.933C131.622 241.937 138.239 247.962 143.015 247.962H165.051C170.444 247.962 173.596 246.773 175.25 241.947L183.435 219.182C183.781 218.192 183.885 217.134 183.739 216.095C183.593 215.056 183.2 214.068 182.595 213.212C181.989 212.356 181.187 211.657 180.256 211.174C179.325 210.691 178.292 210.438 177.243 210.435ZM168.056 221.565L162.81 237.566C162.589 238.24 162.161 238.827 161.587 239.243C161.013 239.659 160.322 239.883 159.613 239.883H151.954C151.667 239.882 151.384 239.812 151.13 239.679C150.876 239.546 150.657 239.354 150.492 239.119C150.328 238.884 150.222 238.613 150.184 238.329C150.146 238.044 150.177 237.755 150.274 237.485L156.046 221.625C156.256 221.042 156.64 220.537 157.145 220.178C157.651 219.818 158.254 219.623 158.874 219.617H166.66C166.893 219.616 167.123 219.671 167.33 219.777C167.538 219.882 167.718 220.036 167.854 220.225C167.99 220.414 168.08 220.632 168.115 220.863C168.15 221.093 168.13 221.329 168.056 221.55V221.565Z" fill="#DAB428"/>
<path d="M172.979 208.083C174.029 208.085 175.064 208.337 175.997 208.821C176.929 209.304 177.733 210.003 178.339 210.861C178.946 211.718 179.339 212.709 179.484 213.749C179.63 214.789 179.524 215.849 179.176 216.84L171.365 238.957C171.028 239.916 170.401 240.746 169.572 241.333C168.743 241.92 167.752 242.235 166.736 242.235H136.267C135.451 242.236 134.648 242.041 133.923 241.668C133.199 241.295 132.573 240.754 132.1 240.09C131.627 239.426 131.319 238.659 131.203 237.852C131.086 237.045 131.164 236.222 131.43 235.452L138.902 213.845C139.482 212.161 140.575 210.7 142.026 209.667C143.477 208.634 145.215 208.08 146.996 208.083H172.994M148.6 235.3H156.259C156.969 235.301 157.66 235.078 158.235 234.662C158.809 234.245 159.237 233.658 159.456 232.983L164.702 216.987C164.775 216.764 164.794 216.526 164.756 216.294C164.718 216.062 164.625 215.843 164.485 215.655C164.344 215.466 164.161 215.314 163.95 215.212C163.738 215.109 163.506 215.059 163.271 215.064H155.48C154.857 215.07 154.251 215.268 153.745 215.63C153.238 215.992 152.855 216.501 152.647 217.088L146.895 232.922C146.8 233.193 146.772 233.483 146.812 233.767C146.853 234.051 146.962 234.321 147.129 234.555C147.296 234.788 147.517 234.978 147.773 235.107C148.029 235.237 148.313 235.303 148.6 235.3ZM172.979 206.819H146.981C144.939 206.82 142.949 207.457 141.286 208.642C139.623 209.827 138.371 211.501 137.703 213.43L130.237 235.037C129.904 235.998 129.807 237.024 129.952 238.031C130.097 239.037 130.48 239.994 131.07 240.823C131.66 241.651 132.44 242.326 133.344 242.792C134.248 243.257 135.25 243.5 136.267 243.5H166.756C168.034 243.5 169.28 243.103 170.323 242.364C171.366 241.626 172.154 240.582 172.579 239.377L180.37 217.26C180.786 216.078 180.913 214.814 180.74 213.573C180.567 212.332 180.099 211.15 179.375 210.127C178.651 209.105 177.692 208.27 176.579 207.695C175.467 207.119 174.232 206.819 172.979 206.819ZM148.6 234.05C148.514 234.057 148.427 234.041 148.349 234.005C148.271 233.969 148.203 233.913 148.152 233.843C148.101 233.773 148.069 233.691 148.059 233.605C148.049 233.519 148.061 233.432 148.094 233.352L153.856 217.493C153.981 217.158 154.204 216.868 154.497 216.663C154.79 216.458 155.138 216.347 155.495 216.344H163.271C163.303 216.345 163.334 216.352 163.362 216.367C163.39 216.382 163.415 216.404 163.433 216.43C163.448 216.457 163.456 216.488 163.456 216.519C163.456 216.55 163.448 216.58 163.433 216.607L158.212 232.603C158.074 233.025 157.807 233.391 157.448 233.651C157.089 233.911 156.657 234.051 156.214 234.05H148.6Z" fill="white"/>
<path d="M172.979 208.083H146.981C145.2 208.08 143.462 208.634 142.011 209.667C140.559 210.7 139.467 212.161 138.887 213.845L131.431 235.452C131.164 236.222 131.086 237.045 131.203 237.852C131.319 238.659 131.627 239.426 132.1 240.09C132.574 240.754 133.199 241.295 133.923 241.668C134.648 242.041 135.452 242.236 136.267 242.235H166.756C167.772 242.235 168.763 241.92 169.592 241.333C170.421 240.746 171.048 239.916 171.385 238.957L179.176 216.84C179.524 215.849 179.63 214.789 179.484 213.749C179.339 212.708 178.946 211.718 178.339 210.861C177.733 210.003 176.929 209.304 175.997 208.82C175.064 208.337 174.029 208.084 172.979 208.083ZM164.677 217.002L159.431 232.998C159.212 233.673 158.784 234.26 158.21 234.677C157.635 235.093 156.943 235.317 156.234 235.315H148.6C148.313 235.315 148.031 235.246 147.776 235.114C147.522 234.981 147.303 234.79 147.138 234.555C146.974 234.32 146.868 234.049 146.83 233.765C146.792 233.481 146.823 233.192 146.921 232.922L152.647 217.088C152.856 216.498 153.241 215.988 153.751 215.625C154.261 215.263 154.87 215.067 155.495 215.064H163.271C163.505 215.062 163.737 215.115 163.946 215.221C164.156 215.326 164.337 215.48 164.475 215.67C164.613 215.859 164.703 216.079 164.738 216.311C164.773 216.543 164.752 216.78 164.677 217.002Z" fill="#D62B31"/>
<path d="M229.541 210.435H203.549C201.768 210.432 200.031 210.986 198.58 212.018C197.129 213.05 196.036 214.509 195.455 216.192L186.096 236.933C183.921 241.937 190.532 247.962 195.313 247.962H217.344C222.742 247.962 225.889 246.773 227.548 241.947L235.728 219.182C236.074 218.192 236.178 217.134 236.032 216.096C235.886 215.058 235.494 214.07 234.889 213.214C234.284 212.358 233.482 211.659 232.552 211.176C231.622 210.693 230.589 210.439 229.541 210.435ZM220.349 221.565L215.108 237.566C214.887 238.239 214.459 238.826 213.885 239.242C213.311 239.658 212.62 239.882 211.911 239.883H204.247C203.96 239.883 203.676 239.814 203.421 239.681C203.166 239.549 202.947 239.357 202.782 239.121C202.617 238.886 202.512 238.614 202.474 238.329C202.437 238.045 202.469 237.755 202.567 237.485L208.34 221.625C208.551 221.045 208.935 220.544 209.441 220.19C209.947 219.836 210.55 219.647 211.167 219.647H218.953C219.184 219.645 219.413 219.697 219.62 219.8C219.827 219.902 220.007 220.053 220.144 220.238C220.282 220.424 220.374 220.639 220.412 220.867C220.45 221.095 220.434 221.329 220.364 221.55L220.349 221.565Z" fill="#DAB428"/>
<path d="M225.287 208.083C226.338 208.084 227.373 208.336 228.306 208.819C229.24 209.302 230.044 210.001 230.651 210.859C231.259 211.716 231.652 212.707 231.797 213.748C231.943 214.788 231.837 215.849 231.489 216.84L223.698 238.957C223.36 239.915 222.734 240.745 221.905 241.332C221.076 241.919 220.085 242.235 219.07 242.235H188.565C187.75 242.235 186.947 242.04 186.223 241.666C185.499 241.293 184.875 240.752 184.402 240.088C183.929 239.424 183.622 238.657 183.506 237.851C183.39 237.044 183.468 236.222 183.734 235.452L191.2 213.845C191.782 212.162 192.874 210.702 194.325 209.669C195.776 208.636 197.513 208.082 199.295 208.083H225.287ZM200.888 235.3H208.547C209.256 235.3 209.947 235.076 210.521 234.66C211.096 234.244 211.524 233.657 211.744 232.983L216.99 216.987C217.062 216.766 217.081 216.532 217.045 216.303C217.009 216.074 216.919 215.857 216.783 215.669C216.646 215.482 216.468 215.329 216.261 215.224C216.055 215.119 215.826 215.064 215.594 215.064H207.788C207.171 215.068 206.57 215.26 206.065 215.615C205.56 215.969 205.174 216.469 204.96 217.048L199.188 232.922C199.091 233.192 199.06 233.481 199.098 233.765C199.136 234.05 199.241 234.32 199.406 234.555C199.571 234.79 199.79 234.981 200.044 235.114C200.299 235.246 200.581 235.315 200.868 235.315M225.267 206.819H199.274C197.233 206.82 195.242 207.457 193.579 208.642C191.916 209.827 190.664 211.501 189.996 213.43L182.53 235.037C182.196 235.998 182.098 237.026 182.242 238.033C182.387 239.04 182.771 239.998 183.362 240.827C183.953 241.655 184.733 242.33 185.639 242.796C186.544 243.261 187.547 243.502 188.565 243.5H219.059C220.337 243.5 221.583 243.103 222.626 242.364C223.669 241.626 224.457 240.582 224.882 239.377L232.673 217.26C233.089 216.078 233.217 214.813 233.043 213.571C232.87 212.33 232.401 211.148 231.677 210.125C230.952 209.102 229.993 208.268 228.879 207.693C227.766 207.118 226.53 206.818 225.277 206.819H225.267ZM200.868 234.05C200.782 234.057 200.695 234.041 200.617 234.005C200.538 233.969 200.47 233.913 200.42 233.843C200.369 233.773 200.337 233.691 200.327 233.605C200.317 233.519 200.329 233.432 200.362 233.352L206.17 217.493C206.293 217.157 206.516 216.867 206.809 216.662C207.102 216.457 207.451 216.346 207.809 216.344H215.594C215.625 216.346 215.656 216.354 215.684 216.368C215.712 216.383 215.736 216.404 215.754 216.429C215.773 216.455 215.785 216.484 215.791 216.515C215.796 216.546 215.795 216.577 215.786 216.607L210.54 232.603C210.404 233.024 210.137 233.391 209.779 233.651C209.421 233.911 208.99 234.051 208.547 234.05H200.868Z" fill="white"/>
<path d="M225.287 208.083H199.294C197.513 208.082 195.776 208.636 194.325 209.669C192.874 210.702 191.782 212.162 191.2 213.845L183.734 235.452C183.468 236.222 183.389 237.044 183.506 237.851C183.622 238.657 183.929 239.424 184.402 240.088C184.874 240.751 185.499 241.293 186.223 241.666C186.947 242.04 187.75 242.235 188.565 242.235H219.059C220.075 242.235 221.066 241.919 221.895 241.332C222.724 240.745 223.35 239.915 223.688 238.957L231.479 216.84C231.827 215.849 231.933 214.79 231.787 213.75C231.642 212.71 231.25 211.72 230.644 210.863C230.038 210.005 229.235 209.306 228.303 208.822C227.371 208.339 226.337 208.085 225.287 208.083ZM216.99 217.002L211.744 232.998C211.523 233.672 211.095 234.259 210.521 234.675C209.947 235.091 209.256 235.315 208.547 235.315H200.888C200.601 235.315 200.319 235.246 200.064 235.114C199.81 234.981 199.591 234.79 199.426 234.555C199.261 234.32 199.156 234.049 199.118 233.765C199.08 233.481 199.111 233.192 199.208 232.922L204.981 217.088C205.187 216.505 205.566 215.998 206.068 215.637C206.569 215.275 207.17 215.075 207.788 215.064H215.574C215.809 215.06 216.042 215.112 216.253 215.217C216.464 215.322 216.646 215.475 216.785 215.665C216.924 215.855 217.015 216.076 217.051 216.309C217.087 216.541 217.066 216.779 216.99 217.002Z" fill="#D62B31"/>
<path d="M281.141 210.435H255.144C253.363 210.433 251.626 210.987 250.176 212.019C248.725 213.051 247.632 214.51 247.05 216.192L237.691 236.933C235.521 241.937 242.132 247.962 246.908 247.962H268.944C274.342 247.962 277.489 246.773 279.148 241.947L287.328 219.182C287.674 218.192 287.778 217.134 287.632 216.096C287.486 215.058 287.094 214.07 286.489 213.214C285.884 212.358 285.082 211.659 284.152 211.176C283.222 210.693 282.189 210.439 281.141 210.435ZM271.949 221.565L266.703 237.566C266.483 238.24 266.055 238.827 265.481 239.244C264.907 239.66 264.215 239.884 263.506 239.883H255.847C255.56 239.882 255.277 239.813 255.023 239.68C254.769 239.547 254.55 239.355 254.386 239.119C254.222 238.884 254.116 238.613 254.079 238.328C254.042 238.044 254.074 237.754 254.172 237.485L259.939 221.625C260.154 221.048 260.54 220.549 261.045 220.195C261.55 219.842 262.151 219.651 262.767 219.647H270.518C270.749 219.645 270.977 219.697 271.184 219.8C271.391 219.902 271.571 220.053 271.709 220.238C271.847 220.424 271.938 220.639 271.977 220.867C272.015 221.095 271.999 221.329 271.929 221.55L271.949 221.565Z" fill="#DAB428"/>
<path d="M276.852 208.083C277.902 208.085 278.937 208.337 279.869 208.821C280.802 209.304 281.605 210.003 282.212 210.861C282.819 211.718 283.212 212.709 283.357 213.749C283.503 214.789 283.397 215.849 283.049 216.84L275.258 238.957C274.922 239.915 274.296 240.745 273.468 241.332C272.64 241.92 271.649 242.235 270.634 242.235H240.165C239.35 242.235 238.547 242.039 237.823 241.666C237.099 241.292 236.474 240.751 236.001 240.088C235.528 239.424 235.221 238.657 235.104 237.851C234.987 237.045 235.064 236.222 235.329 235.452L242.801 213.845C243.381 212.161 244.474 210.701 245.925 209.668C247.376 208.635 249.113 208.081 250.895 208.083H276.887M252.448 235.3H260.112C260.821 235.3 261.512 235.076 262.086 234.66C262.66 234.244 263.088 233.657 263.309 232.983L268.55 216.987C268.622 216.767 268.641 216.533 268.605 216.304C268.569 216.076 268.479 215.859 268.344 215.671C268.208 215.484 268.03 215.331 267.824 215.226C267.618 215.12 267.39 215.065 267.159 215.064H259.388C258.77 215.064 258.167 215.254 257.661 215.609C257.155 215.964 256.771 216.466 256.561 217.048L250.788 232.922C250.69 233.191 250.658 233.48 250.695 233.765C250.732 234.049 250.837 234.32 251.002 234.555C251.166 234.79 251.385 234.982 251.639 235.114C251.894 235.246 252.176 235.315 252.463 235.315M276.867 206.819H250.874C248.833 206.82 246.842 207.457 245.179 208.642C243.516 209.827 242.264 211.501 241.597 213.43L234.094 235.037C233.761 236.001 233.664 237.031 233.811 238.041C233.958 239.05 234.345 240.01 234.94 240.839C235.534 241.668 236.319 242.343 237.228 242.806C238.138 243.269 239.145 243.507 240.165 243.5H270.66C271.937 243.499 273.182 243.102 274.224 242.364C275.266 241.625 276.053 240.582 276.477 239.377L284.268 217.26C284.684 216.078 284.811 214.814 284.638 213.573C284.465 212.332 283.997 211.15 283.273 210.127C282.549 209.105 281.591 208.27 280.478 207.695C279.365 207.119 278.13 206.819 276.877 206.819H276.867ZM252.463 234.05C252.377 234.057 252.29 234.041 252.212 234.005C252.133 233.969 252.065 233.913 252.015 233.843C251.964 233.773 251.932 233.691 251.922 233.605C251.912 233.519 251.924 233.432 251.957 233.352L257.724 217.493C257.849 217.157 258.073 216.867 258.367 216.662C258.66 216.456 259.01 216.346 259.368 216.344H267.154C267.186 216.345 267.217 216.352 267.245 216.367C267.273 216.382 267.298 216.404 267.316 216.43C267.336 216.455 267.349 216.484 267.354 216.515C267.359 216.546 267.357 216.578 267.346 216.607L262.1 232.603C261.962 233.024 261.696 233.39 261.338 233.65C260.98 233.91 260.549 234.05 260.107 234.05H252.463Z" fill="white"/>
<path d="M276.851 208.083H250.859C249.078 208.081 247.34 208.635 245.889 209.668C244.438 210.701 243.346 212.161 242.765 213.845L235.293 235.452C235.028 236.222 234.951 237.045 235.068 237.851C235.185 238.657 235.493 239.424 235.966 240.088C236.439 240.751 237.064 241.292 237.788 241.666C238.512 242.039 239.315 242.235 240.129 242.235H270.624C271.639 242.235 272.63 241.92 273.458 241.332C274.286 240.745 274.911 239.915 275.248 238.957L283.038 216.84C283.386 215.85 283.492 214.791 283.347 213.751C283.202 212.712 282.811 211.722 282.205 210.865C281.599 210.008 280.797 209.308 279.866 208.824C278.935 208.34 277.901 208.086 276.851 208.083ZM268.55 217.002L263.309 232.998C263.088 233.672 262.66 234.259 262.086 234.675C261.512 235.091 260.821 235.315 260.112 235.315H252.448C252.161 235.315 251.878 235.246 251.624 235.114C251.37 234.982 251.151 234.79 250.986 234.555C250.822 234.32 250.717 234.049 250.68 233.765C250.643 233.48 250.675 233.191 250.773 232.922L256.545 217.088C256.75 216.497 257.133 215.984 257.643 215.621C258.153 215.258 258.763 215.064 259.388 215.064H267.174C267.406 215.067 267.634 215.124 267.839 215.231C268.045 215.338 268.222 215.493 268.357 215.682C268.491 215.871 268.578 216.089 268.612 216.319C268.646 216.548 268.624 216.782 268.55 217.002Z" fill="#D62B31"/>
<path d="M190.312 187.025L192.046 190.782H199.51L203.474 185.67H209.37L209.389 187.025L211.184 190.782H219.073L218.557 171.825L216.048 168.304L207.081 172.507L190.312 187.025Z" fill="#DAB428"/>
<path d="M216.478 168.304L217.066 187.025H209.818L209.763 182.944H202.128L198.825 187.025H190.741L207.098 168.304H216.483M205.333 179.011H209.724L209.648 173.684L205.317 179.011M217.152 167.607H206.777L206.568 167.847L190.214 186.565L189.205 187.722H199.156L199.365 187.462L202.462 183.641H209.074L209.122 187.033V187.722H217.777L217.754 187.002L217.166 168.285L217.144 167.607H217.152ZM206.777 178.314L208.963 175.618L208.999 178.314H206.777Z" fill="white"/>
<path d="M209.799 187.025H217.046L216.455 168.304H207.073L190.719 187.025H198.802L202.108 182.944H209.74L209.799 187.025ZM205.294 179.011L209.607 173.684L209.682 179.011H205.294Z" fill="#D62B31"/>
<path d="M191.44 169.977H177.782L166.716 187.025L168.862 190.779H184.391C188.438 190.779 191.081 186.665 191.942 183.772C192.608 181.514 193.729 178.754 194.953 173.985C195.772 170.782 192.845 169.977 191.44 169.977ZM184.514 183.635L178.362 183.841L180.756 176.575H186.732L184.514 183.635Z" fill="#DAB428"/>
<path d="M189.205 168.304C192.02 168.304 192.433 169.731 192.143 171.465C191.853 173.199 189.469 180.137 188.683 182.657C187.897 185.177 186.702 187.025 182.986 187.025H166.715L173.157 168.304H189.205ZM174.78 182.799H178.908C180.859 182.799 182.378 182.593 182.833 181.23C183.159 180.251 184.77 176.159 185.492 173.946C185.545 173.781 185.559 173.606 185.532 173.434C185.505 173.263 185.438 173.1 185.336 172.96C185.234 172.82 185.1 172.706 184.946 172.627C184.791 172.548 184.62 172.507 184.446 172.508H178.289L174.78 182.799ZM189.205 167.607H172.661L172.499 168.078L166.058 186.799L165.74 187.722H182.986C187.248 187.722 188.561 185.386 189.35 182.863C189.378 182.771 192.474 173.715 192.831 171.579C193.043 170.311 192.867 169.349 192.293 168.689C191.677 167.961 190.668 167.607 189.205 167.607ZM178.788 173.216H184.446C184.51 173.215 184.573 173.229 184.63 173.258C184.687 173.287 184.736 173.329 184.774 173.38C184.811 173.432 184.836 173.492 184.845 173.555C184.855 173.618 184.849 173.682 184.828 173.742C184.079 176.042 182.495 180.05 182.169 181.02C181.89 181.818 181.021 182.113 178.908 182.113H175.752L178.788 173.216Z" fill="white"/>
<path d="M189.205 168.304H173.157L166.716 187.025H182.986C186.702 187.025 187.9 185.174 188.684 182.657C189.467 180.14 191.856 173.199 192.143 171.465C192.43 169.731 192.02 168.304 189.205 168.304ZM185.492 173.957C184.77 176.17 183.159 180.262 182.833 181.241C182.378 182.604 180.848 182.81 178.908 182.81H174.78L178.289 172.519H184.447C184.62 172.518 184.791 172.559 184.946 172.638C185.1 172.717 185.234 172.831 185.336 172.971C185.438 173.112 185.505 173.274 185.532 173.445C185.56 173.617 185.546 173.792 185.492 173.957Z" fill="#D62B31"/>
<path d="M137.127 187.025L138.861 190.782H146.325L150.289 185.67H156.187L156.207 187.025L158.002 190.782H165.891L165.375 171.825L162.866 168.304L153.899 172.507L137.127 187.025Z" fill="#DAB428"/>
<path d="M162.866 168.304L163.454 187.025H156.207L156.148 182.944H148.516L145.216 187.025H137.132L153.481 168.304H162.866ZM151.702 179.011H156.087L156.012 173.684L151.702 179.011ZM163.541 167.607H153.163L152.957 167.847L136.603 186.565L135.594 187.722H145.542L145.751 187.462L148.84 183.641H155.454L155.502 187.033V187.722H164.143L164.118 187.002L163.53 168.285L163.51 167.607H163.541ZM153.166 178.314L155.351 175.618L155.387 178.314H153.166Z" fill="white"/>
<path d="M156.199 187.025H163.446L162.858 168.304H153.472L137.132 187.025H145.216L148.522 182.944H156.154L156.199 187.025ZM151.697 179.011L156.012 173.684L156.087 179.011H151.697Z" fill="#D62B31"/>
<path d="M111.332 187.025L113.155 190.782H121.785L124.842 181.335L127 187.025L128.848 190.782H135.825L141.938 171.381L139.686 167.869L132.606 178.071L126.479 168.304H125.732L111.332 187.025Z" fill="#DAB428"/>
<path d="M139.265 168.304L132.965 187.025H127L122.54 177.801L119.432 187.025H111.332L117.634 168.304H125.732L129.573 178.113L132.876 168.304H139.265ZM140.235 167.607H132.374L132.215 168.084L129.525 176.076L126.381 168.05L126.206 167.607H117.132L116.973 168.084L110.671 186.802L110.362 187.722H119.931L120.09 187.248L122.652 179.641L126.373 187.329L126.562 187.722H133.464L133.626 187.248L139.92 168.527L140.229 167.607H140.235Z" fill="white"/>
<path d="M111.332 187.025H119.432L122.534 177.801L127 187.025H132.965L139.265 168.304H132.876L129.573 178.113L125.732 168.304H117.634L111.332 187.025Z" fill="#D62B31"/>
<path d="M81.9958 187.025L83.7324 190.782H91.1945L95.1611 185.67H101.057L101.076 187.025L102.871 190.782H110.76L110.244 171.825L107.735 168.304L98.7681 172.507L81.9958 187.025Z" fill="#DAB428"/>
<path d="M107.736 168.304L108.324 187.025H101.076L101.018 182.944H93.3856L90.0797 187.025H81.996L98.3501 168.304H107.736ZM96.5856 179.011H100.976L100.895 173.684L96.5745 179.011M108.421 167.607H98.0323L97.826 167.847L81.472 186.565L80.4629 187.722H90.4142L90.6232 187.462L93.7173 183.641H100.338L100.385 187.033V187.722H109.04L109.018 187.002L108.421 168.285V167.607ZM98.0351 178.314L100.22 175.618L100.257 178.314H98.0351Z" fill="white"/>
<path d="M101.076 187.025H108.324L107.735 168.304H98.3499L81.9958 187.025H90.0795L93.3855 182.944H101.018L101.076 187.025ZM96.5743 179.011L100.895 173.684L100.97 179.011H96.5743Z" fill="#D62B31"/>
<path d="M80.499 169.11H81.0704C81.8302 169.11 82.5784 169.295 83.2506 169.65C83.9227 170.004 84.4985 170.516 84.9282 171.143C85.358 171.769 85.6288 172.491 85.7172 173.245C85.8055 174 85.7089 174.765 85.4356 175.474L84.5994 177.665H77.5276L74.637 174.32H73.1429C72.7704 174.319 72.4069 174.434 72.1024 174.649C71.798 174.864 71.5674 175.167 71.4425 175.518L68.3178 184.271L74.676 183.942L80.7889 181.433L82.5227 183.747L81.6614 187.535C81.4498 188.456 80.9325 189.278 80.194 189.867C79.4555 190.456 78.5392 190.778 77.5945 190.78H62.9073C62.9073 190.78 57.9288 189.001 57.4243 186.448L68.1115 171.34L80.499 169.11Z" fill="#DAB428"/>
<path d="M79.7744 168.304C80.2578 168.304 80.7344 168.418 81.1657 168.637C81.5969 168.855 81.9707 169.172 82.2567 169.562C82.5428 169.951 82.7331 170.403 82.8122 170.88C82.8914 171.357 82.8572 171.846 82.7124 172.307L82.0684 174.356H75.0496C75.1246 174.129 75.1447 173.888 75.1084 173.652C75.0722 173.417 74.9805 173.193 74.8409 172.999C74.7013 172.806 74.5178 172.648 74.3055 172.54C74.0932 172.431 73.8582 172.374 73.6196 172.374H70.4726C69.9081 172.374 69.3583 172.554 68.9031 172.888C68.448 173.222 68.1111 173.692 67.9415 174.23L65.338 182.554C65.2913 182.703 65.2804 182.862 65.3062 183.016C65.332 183.171 65.3938 183.318 65.4865 183.444C65.5793 183.57 65.7004 183.673 65.8402 183.744C65.9801 183.815 66.1346 183.852 66.2914 183.853H70.414C70.9574 183.853 71.487 183.681 71.927 183.362C72.367 183.043 72.695 182.593 72.8642 182.077L73.1095 181.335H79.8803L78.7402 185.079C78.5698 185.643 78.2225 186.137 77.7496 186.488C77.2768 186.84 76.7035 187.03 76.1144 187.03H58.8042C58.4988 187.03 58.1976 186.958 57.9255 186.819C57.6533 186.681 57.4179 186.48 57.2384 186.232C57.059 185.985 56.9406 185.699 56.893 185.397C56.8453 185.096 56.8699 184.787 56.9645 184.496L61.2851 171.27C61.5645 170.409 62.1092 169.658 62.8412 169.125C63.5732 168.593 64.455 168.305 65.3603 168.304H79.7744ZM79.7744 167.607H65.3603C64.3083 167.606 63.2829 167.938 62.4314 168.556C61.58 169.174 60.9464 170.046 60.6216 171.047L56.2955 184.273C56.1663 184.669 56.1328 185.09 56.1978 185.501C56.2627 185.912 56.4243 186.302 56.6691 186.638C56.914 186.975 57.2352 187.249 57.6063 187.437C57.9775 187.625 58.388 187.723 58.8042 187.722H76.1144C76.8527 187.724 77.572 187.488 78.1652 187.048C78.7584 186.609 79.1938 185.99 79.4064 185.283L80.5465 181.536L80.8252 180.639H72.6022L72.4461 181.118L72.2036 181.86C72.0797 182.236 71.8401 182.565 71.5187 182.797C71.1974 183.03 70.8108 183.156 70.414 183.156H66.2914C66.2437 183.154 66.197 183.141 66.1554 183.118C66.1137 183.094 66.0781 183.062 66.0516 183.022C66.0213 182.983 66.0013 182.937 65.9935 182.888C65.9857 182.84 65.9904 182.79 66.007 182.743L68.6105 174.42C68.7348 174.023 68.9828 173.676 69.3183 173.429C69.6538 173.183 70.0592 173.051 70.4754 173.051H73.6224C73.7508 173.05 73.8776 173.08 73.9921 173.138C74.1065 173.196 74.2054 173.281 74.2803 173.386C74.3553 173.49 74.4046 173.61 74.424 173.737C74.4434 173.864 74.4323 173.994 74.3918 174.116L74.0851 175.033H82.5813L82.7347 174.545L83.3758 172.496C83.5497 171.932 83.5888 171.335 83.4901 170.753C83.3913 170.171 83.1575 169.62 82.8073 169.144C82.4571 168.669 82.0003 168.282 81.4736 168.015C80.9468 167.748 80.3649 167.608 79.7744 167.607Z" fill="white"/>
<path d="M65.3604 168.304H79.7744C80.2579 168.304 80.7345 168.418 81.1657 168.636C81.597 168.855 81.9707 169.172 82.2568 169.562C82.5428 169.951 82.7331 170.403 82.8123 170.88C82.8915 171.357 82.8572 171.846 82.7124 172.307L82.0685 174.356H75.0497C75.1246 174.129 75.1448 173.888 75.1085 173.652C75.0722 173.417 74.9805 173.193 74.841 172.999C74.7014 172.806 74.5179 172.648 74.3056 172.54C74.0933 172.431 73.8582 172.374 73.6197 172.374H70.4726C69.9082 172.374 69.3584 172.554 68.9032 172.888C68.4481 173.221 68.1112 173.692 67.9416 174.23L65.3381 182.554C65.2914 182.703 65.2805 182.862 65.3063 183.016C65.3321 183.171 65.3938 183.317 65.4866 183.444C65.5794 183.57 65.7005 183.673 65.8403 183.744C65.9801 183.815 66.1347 183.852 66.2914 183.852H70.4141C70.9575 183.852 71.487 183.681 71.9271 183.362C72.3671 183.043 72.6951 182.593 72.8643 182.077L73.1096 181.335H79.8804L78.7403 185.079C78.5698 185.643 78.2225 186.137 77.7497 186.488C77.2769 186.84 76.7036 187.03 76.1145 187.03H58.8043C58.4988 187.03 58.1977 186.958 57.9256 186.819C57.6534 186.681 57.418 186.479 57.2385 186.232C57.059 185.985 56.9406 185.699 56.893 185.397C56.8454 185.096 56.8699 184.787 56.9646 184.496L61.2851 171.27C61.5646 170.409 62.1093 169.658 62.8413 169.125C63.5733 168.593 64.4551 168.305 65.3604 168.304Z" fill="#D62B31"/>
</g>
<defs>
<linearGradient id="paint0_linear_45_851" x1="414.349" y1="449.857" x2="125.804" y2="357.421" gradientUnits="userSpaceOnUse">
<stop stop-color="#FFDD48"/>
<stop offset="1" stop-color="#DAB428"/>
</linearGradient>
</defs>
</svg>
