<svg width="514" height="460" viewBox="0 0 514 460" fill="none" xmlns="http://www.w3.org/2000/svg">
<path d="M70.3622 1.01936L37.2161 1.70462C18.0839 2.10016 4.20762 20.0656 8.65915 38.6769L105.51 443.6C107.663 452.599 115.708 458.947 124.962 458.947H469.487C486.667 458.947 495.852 438.714 484.542 425.781L139.972 31.7545C122.454 11.722 96.9682 0.469313 70.3622 1.01936Z" fill="white" stroke="#1E1E1E" stroke-width="2"/>
<mask id="mask0_45_1396" style="mask-type:alpha" maskUnits="userSpaceOnUse" x="7" y="1" width="483" height="458">
<path d="M70.3622 1.01936L37.2161 1.70462C18.0839 2.10016 4.20762 20.0656 8.65915 38.6769L105.51 443.6C107.663 452.599 115.708 458.947 124.962 458.947H469.487C486.667 458.947 495.852 438.714 484.542 425.781L139.972 31.7545C122.454 11.722 96.9682 0.469313 70.3622 1.01936Z" fill="#9BAFC8"/>
</mask>
<g mask="url(#mask0_45_1396)">
<path d="M125.868 499.654C89.676 485.138 59.8217 458.231 41.6346 423.738L187.077 347.051L312.241 340.43L349.396 320.839C355.612 359.335 347.945 398.787 327.762 432.152C307.58 465.517 276.196 490.623 239.214 502.988C202.232 515.352 162.059 514.171 125.868 499.654Z" fill="black"/>
<circle cx="155.971" cy="155.971" r="155.971" transform="matrix(-0.884572 0.466404 0.466404 0.884572 222.57 118.266)" fill="#6DB538"/>
<ellipse cx="9.46854" cy="19.9891" rx="9.46854" ry="19.9891" transform="matrix(-0.884572 0.466404 0.466404 0.884572 183.998 245.12)" fill="black"/>
<ellipse cx="9.46854" cy="19.9891" rx="9.46854" ry="19.9891" transform="matrix(-0.884572 0.466404 0.466404 0.884572 95.6631 284.653)" fill="black"/>
<path d="M266.883 300.951C275.937 301.233 276.337 312.919 259.067 318.811C255.535 320.016 253.823 319.282 250.288 318.619C240.033 316.313 232.954 307.889 256.795 301.932C260.835 300.922 263.144 300.834 266.883 300.951Z" fill="black"/>
<path d="M190.517 424.999C251.739 405.941 258.86 344.668 259.014 317.977L253.014 318.864C237.545 439.099 121.976 423.871 72.5452 373.692C87.391 395.875 120.834 442.456 190.517 424.999Z" fill="black"/>
</g>
</svg>
