<svg width="514" height="459" viewBox="0 0 514 459" fill="none" xmlns="http://www.w3.org/2000/svg">
<path d="M70.3622 0.867752L37.2161 1.55301C18.0839 1.94855 4.20762 19.914 8.65915 38.5253L105.51 443.448C107.663 452.448 115.708 458.796 124.962 458.796H469.487C486.667 458.796 495.852 438.563 484.542 425.63L139.972 31.6029C122.454 11.5704 96.9682 0.317701 70.3622 0.867752Z" fill="#E01296"/>
<mask id="mask0_7_1818" style="mask-type:alpha" maskUnits="userSpaceOnUse" x="7" y="0" width="483" height="459">
<path d="M70.3622 0.867752L37.2161 1.55301C18.0839 1.94855 4.20762 19.914 8.65915 38.5253L105.51 443.448C107.663 452.448 115.708 458.796 124.962 458.796H469.487C486.667 458.796 495.852 438.563 484.542 425.63L139.972 31.6029C122.454 11.5704 96.9682 0.317701 70.3622 0.867752Z" fill="#1C1C1C"/>
</mask>
<g mask="url(#mask0_7_1818)">
<path d="M208.263 334.312C298.833 379.686 326.33 407.488 358.283 458.796H408.659C372.493 350.319 328.318 319.722 252.516 261.367C140.22 190.947 111.744 155.457 79.3096 94.2812C74.5657 223.086 110.624 270.555 208.263 334.312Z" fill="white"/>
<path d="M105.828 55.7349L81.7119 40.9146L81.7657 57.4354L103.552 65.9459C105.25 66.6095 107.083 65.3531 107.077 63.5294L107.059 57.929C107.056 57.0337 106.59 56.2036 105.828 55.7349Z" fill="white"/>
<path d="M48.1926 55.9232L72.2112 40.9461L72.265 57.4669L50.5351 66.1192C48.8408 66.7938 46.9994 65.5494 46.9935 63.7257L46.9752 58.1253C46.9723 57.23 47.4329 56.3969 48.1926 55.9232Z" fill="white"/>
<path d="M82.5068 75.3271L82.3447 25.5515C82.3349 22.551 79.8947 20.1267 76.8943 20.1364C73.8938 20.1462 71.4694 22.5864 71.4792 25.5869L71.6413 75.3625L82.5068 75.3271Z" fill="white"/>
<path d="M87.878 77.7963L83.0215 74.5816C82.5959 74.2999 82.0965 74.1505 81.5861 74.1522L77.2576 74.1663L72.9604 74.1803C72.45 74.1819 71.9516 74.3346 71.5278 74.6191L66.6924 77.8654C65.9747 78.3472 65.5453 79.1558 65.5481 80.0202L65.5572 82.7861C65.5631 84.6067 67.3989 85.851 69.0922 85.1821L76.3723 82.3065C76.9779 82.0673 77.6514 82.0654 78.2583 82.3012L85.5238 85.1241C87.2217 85.7838 89.0512 84.5275 89.0453 82.7059L89.0363 79.9437C89.0335 79.0793 88.5988 78.2735 87.878 77.7963Z" fill="white"/>
</g>
</svg>
