<svg width="514" height="462" viewBox="0 0 514 462" fill="none" xmlns="http://www.w3.org/2000/svg">
<path d="M70.3418 1.01953C97.2433 0.463456 123.012 11.8408 140.725 32.0957L485.295 426.123C497.17 439.702 487.527 460.947 469.487 460.947H124.962C115.246 460.947 106.798 454.282 104.538 444.832L7.68652 39.9092C3.08669 20.6775 17.4255 2.11387 37.1953 1.70508L70.3418 1.01953Z" fill="white" stroke="#1E1E1E" stroke-width="2"/>
<mask id="mask0_27_207" style="mask-type:alpha" maskUnits="userSpaceOnUse" x="5" y="0" width="487" height="462">
<path d="M70.3418 1.01953C97.2433 0.463456 123.012 11.8408 140.725 32.0957L485.295 426.123C497.17 439.702 487.527 460.947 469.487 460.947H124.962C115.246 460.947 106.798 454.282 104.538 444.832L7.68652 39.9092C3.08669 20.6775 17.4255 2.11387 37.1953 1.70508L70.3418 1.01953Z" fill="white" stroke="#1E1E1E" stroke-width="2"/>
</mask>
<g mask="url(#mask0_27_207)">
<path fill-rule="evenodd" clip-rule="evenodd" d="M532.024 445.555L533.381 438.815L367.687 405.447L377.802 320.671L338.578 312.772L300.12 391.84L207.027 373.092C201.045 371.712 194.863 371.422 188.778 372.234C184.835 372.851 181.12 374.48 177.995 376.963C174.401 379.986 171.983 384.174 171.161 388.798C170.117 393.355 170.634 398.131 172.627 402.36C174.46 405.938 177.249 408.937 180.685 411.025C186.262 414.178 192.356 416.312 198.682 417.325L303.849 438.504L359.689 530.76L400.808 539.04L373.76 452.639L559.486 490.042C579.505 492.587 598.683 499.654 615.567 510.706C632.452 521.758 646.601 536.507 656.944 553.835C675.077 590.787 686.342 630.727 690.189 671.708L110.384 555.48C92.0599 552.625 74.618 545.665 59.3624 535.12C44.1068 524.575 31.432 510.718 22.2858 494.585C4.08827 457.96 -6.08474 417.874 -7.55376 377.004L-15.0365 294.571C-16.4135 278.744 -12.9344 262.874 -5.06271 249.075C2.80895 235.277 14.6992 224.205 29.0233 217.335C60.2904 201.738 95.7052 196.481 130.155 202.323L414.037 259.492C421.173 261.281 428.566 261.817 435.886 261.075C439.773 260.513 443.416 258.841 446.376 256.259C449.573 253.269 451.704 249.316 452.446 245.003C453.4 240.736 453.009 236.278 451.326 232.243C449.693 228.63 447.117 225.523 443.87 223.248C437.522 219.167 430.397 216.447 422.944 215.26L98.8366 149.99C78.8814 147.466 59.7665 140.418 42.9504 129.382C26.1344 118.346 12.0617 103.614 1.80648 86.3104C-16.1302 49.3687 -27.1851 9.46776 -30.8164 -31.4373L439.252 63.2272C488.499 73.0212 533.494 97.8557 568.029 134.305C602.564 170.754 624.937 217.021 632.063 266.725L636.704 299.63C643.58 336.32 637.049 374.259 618.3 406.538C610.064 419.364 598.157 429.412 584.129 435.373C567.922 441.585 550.222 442.781 533.327 438.804C533.327 438.804 533.327 438.804 533.235 439.264C533.142 439.724 532.82 441.603 532.024 445.555Z" fill="#D0A175"/>
<path d="M70.3418 1.01953C97.2433 0.463456 123.012 11.8408 140.725 32.0957L485.295 426.123C497.17 439.702 487.527 460.947 469.487 460.947H124.962C115.246 460.947 106.798 454.282 104.538 444.832L7.68652 39.9092C3.08669 20.6775 17.4255 2.11387 37.1953 1.70508L70.3418 1.01953Z" stroke="#1E1E1E" stroke-width="2"/>
</g>
</svg>
