<svg width="514" height="460" viewBox="0 0 514 460" fill="none" xmlns="http://www.w3.org/2000/svg">
<path d="M70.3622 1.01924L37.2161 1.7045C18.0839 2.10004 4.20762 20.0655 8.65915 38.6768L105.51 443.6C107.663 452.599 115.708 458.947 124.962 458.947H469.487C486.667 458.947 495.852 438.714 484.542 425.781L139.972 31.7544C122.454 11.7219 96.9682 0.46919 70.3622 1.01924Z" fill="#F1471D" stroke="#1E1E1E" stroke-width="2"/>
<mask id="mask0_100_209" style="mask-type:alpha" maskUnits="userSpaceOnUse" x="7" y="1" width="483" height="458">
<path d="M70.3622 1.01924L37.2161 1.7045C18.0839 2.10004 4.20762 20.0655 8.65915 38.6768L105.51 443.6C107.663 452.599 115.708 458.947 124.962 458.947H469.487C486.667 458.947 495.852 438.714 484.542 425.781L139.972 31.7544C122.454 11.7219 96.9682 0.46919 70.3622 1.01924Z" fill="#1C1C1C"/>
</mask>
<g mask="url(#mask0_100_209)">
<path d="M182.901 289.964C95.2233 262.178 120.004 198.786 158.147 174.968C201.565 147.855 199.534 111.474 147.278 77.967C111.996 55.3438 86.4635 47.2348 46.2501 40.8639C25.1151 37.5155 16.5975 69.4858 49.9462 69.2044C79.8152 69.5308 84.8365 75.8356 84.9805 82.149C85.2408 93.5551 73.8518 98.7976 54.7208 90.5657C41.9159 85.0559 35.1797 107.402 59.0209 107.214C80.3727 107.046 82.743 111.263 81.1212 119.912C79.2941 129.657 66.2267 123.988 60.3558 122.775C40.6554 118.706 47.7845 141.704 62.7243 137.458C76.1945 133.63 78.0444 147.067 75.6313 151.068C70.5253 159.533 63.3998 151.12 54.1817 151.448C44.9637 151.776 49.5199 159.82 61.423 162.08C80.633 165.726 62.4492 193.346 42.5354 186.704L9.66112 190.865L33.7607 375.448L78.5336 367.227C93.2434 318.439 131.33 312.652 168.487 314.616C213.201 316.979 255.355 349.883 310.416 377.056C314.824 379.231 317.428 376.027 314.695 373.599C291.696 353.173 297.755 310.898 264.921 303.86C229.029 295.542 213.361 299.616 182.901 289.964Z" fill="white"/>
<circle cx="271.326" cy="332.155" r="5.32407" transform="rotate(3.02536 271.326 332.155)" fill="#F1471D"/>
<path d="M157.266 293.318C157.266 293.326 157.265 293.333 157.241 293.433C157.218 293.532 157.17 293.725 157.129 293.696C157.088 293.668 157.054 293.412 157.292 293.41" stroke="#F1471D" stroke-width="4.76299" stroke-linecap="round"/>
<path d="M174.363 301.088C174.348 301.088 174.385 300.859 174.559 300.502C174.64 300.338 174.904 300.353 175.096 300.436C175.288 300.519 175.452 300.706 175.484 300.891C175.516 301.075 175.412 301.251 174.902 301.062" stroke="#F1471D" stroke-width="4.76299" stroke-linecap="round"/>
<path d="M189.978 300.917L189.993 300.624" stroke="#F1471D" stroke-width="4.76299" stroke-linecap="round"/>
<path d="M141.206 297.284L141.05 296.805" stroke="#F1471D" stroke-width="4.76299" stroke-linecap="round"/>
<path d="M134.216 285.527C134.216 285.534 134.216 285.542 134.161 285.459C134.107 285.377 133.998 285.204 133.692 285.061" stroke="#F1471D" stroke-width="4.76299" stroke-linecap="round"/>
<path d="M121.241 271.943L121.446 271.999" stroke="#F1471D" stroke-width="4.76299" stroke-linecap="round"/>
<path d="M112.811 247.783C112.819 247.784 112.827 247.784 112.691 247.753C112.556 247.723 112.277 247.661 112.218 247.58C112.158 247.499 112.327 247.401 112.615 247.306" stroke="#F1471D" stroke-width="4.76299" stroke-linecap="round"/>
<path d="M94.7684 226.158C94.768 226.165 94.7676 226.173 94.6662 226.132C94.5647 226.091 94.3623 226.002 94.1069 225.774" stroke="#F1471D" stroke-width="4.76299" stroke-linecap="round"/>
<path d="M69.2742 227.582L69.0659 227.457" stroke="#F1471D" stroke-width="4.76299" stroke-linecap="round"/>
<path d="M81.7558 246.372C81.7551 246.386 81.7543 246.4 81.6731 246.486C81.5919 246.573 81.4303 246.731 81.2521 246.841C81.0739 246.951 80.884 247.008 80.7777 246.878" stroke="#F1471D" stroke-width="4.76299" stroke-linecap="round"/>
<path d="M96.7557 264.208C96.7554 264.215 96.755 264.222 96.6867 264.298C96.6184 264.373 96.4822 264.516 96.4155 264.469C96.3489 264.421 96.3559 264.178 96.3474 264.311" stroke="#F1471D" stroke-width="4.76299" stroke-linecap="round"/>
<path d="M76.8899 273.198L77.1421 273.11" stroke="#F1471D" stroke-width="4.76299" stroke-linecap="round"/>
<path d="M86.3045 288.3C86.2842 288.299 86.2639 288.298 86.3023 288.402C86.3406 288.505 86.4382 288.713 86.4501 288.722C86.4621 288.731 86.3855 288.534 86.1987 288.042" stroke="#F1471D" stroke-width="4.76299" stroke-linecap="round"/>
<path d="M81.3837 317.327C81.3761 317.327 81.3685 317.326 81.3331 317.218C81.2976 317.109 81.2346 316.893 81.3146 316.595" stroke="#F1471D" stroke-width="4.76299" stroke-linecap="round"/>
<path d="M101.24 303.405C101.24 303.412 101.24 303.419 101.233 303.547C101.225 303.675 101.212 303.922 100.725 304.04" stroke="#F1471D" stroke-width="4.76299" stroke-linecap="round"/>
<path d="M108.821 283.907L108.669 283.352" stroke="#F1471D" stroke-width="4.76299" stroke-linecap="round"/>
<path d="M121.933 295.955C121.933 295.962 121.932 295.969 121.953 296.07C121.974 296.171 122.016 296.366 121.634 296.698" stroke="#F1471D" stroke-width="4.76299" stroke-linecap="round"/>
<path d="M372.254 554.168C282.56 574.526 271.889 507.304 292.755 467.47C316.507 422.126 296.359 391.764 234.334 389.276C192.456 387.596 166.327 393.509 128.411 408.345C108.484 416.142 117.299 448.031 145.929 430.927C171.864 416.107 179.384 419.008 182.7 424.382C188.692 434.091 181.516 444.372 160.849 446.943C147.015 448.663 152.502 471.349 172.976 459.133C191.313 448.192 195.49 450.632 198.464 458.914C201.814 468.245 187.674 469.961 181.995 471.883C162.941 478.332 180.72 494.57 191.463 483.353C201.149 473.24 209.539 483.898 209.48 488.57C209.354 498.455 198.953 494.799 191.166 499.743C183.379 504.686 191.377 509.323 202.789 505.254C221.206 498.687 219.483 531.711 198.943 536.048L172.684 556.26L286.802 703.328L321.274 673.597C309.298 624.067 339.232 599.818 372.282 582.725C412.055 562.157 465.06 569.232 526.304 564.836C531.206 564.485 531.834 560.404 528.248 559.691C498.078 553.696 481.931 514.16 450.044 524.689C414.873 535.659 403.415 547.096 372.254 554.168Z" fill="white"/>
</g>
</svg>
