<svg width="514" height="459" viewBox="0 0 514 459" fill="none" xmlns="http://www.w3.org/2000/svg">
<path d="M70.3622 0.0191191L37.2161 0.704379C18.0839 1.09992 4.20762 19.0653 8.65915 37.6767L105.51 442.599C107.663 451.599 115.708 457.947 124.962 457.947H469.487C486.667 457.947 495.852 437.714 484.542 424.781L139.972 30.7543C122.454 10.7218 96.9682 -0.530932 70.3622 0.0191191Z" fill="#436FFC"/>
<mask id="mask0_46_508" style="mask-type:alpha" maskUnits="userSpaceOnUse" x="7" y="0" width="483" height="458">
<path d="M70.3622 0.0191191L37.2161 0.704379C18.0839 1.09992 4.20762 19.0653 8.65915 37.6767L105.51 442.599C107.663 451.599 115.708 457.947 124.962 457.947H469.487C486.667 457.947 495.852 437.714 484.542 424.781L139.972 30.7543C122.454 10.7218 96.9682 -0.530932 70.3622 0.0191191Z" fill="#9BAFC8"/>
</mask>
<g mask="url(#mask0_46_508)">
<path d="M71.6807 112.929C75.9534 140.26 89.7946 181.64 116.13 210.852C121.577 216.894 127.399 222.21 133.458 226.926C132.487 224.707 131.93 222.373 131.993 219.871C132.215 209.105 142.558 200.554 155.221 200.732C167.885 200.91 178.068 209.771 177.911 220.608C177.689 231.374 167.349 239.922 154.68 239.744L152.652 239.639C179.26 254.566 209.248 261.802 238.31 271.163C231.648 267.633 227.161 261.369 227.328 254.264C227.55 243.499 237.893 234.948 250.556 235.126C263.22 235.304 273.403 244.165 273.243 254.999C273.021 265.764 262.681 274.313 250.015 274.137C248.729 274.137 247.385 273.933 246.103 273.798C274.477 283.392 301.758 295.78 323.671 320.086C326.426 323.142 329.038 326.329 331.452 329.436L346.208 314.2L318.591 283.567L304.864 289.5C309.056 284.43 312.212 278.491 313.981 271.875C322.004 242.739 300.727 211.412 266.447 201.99C248.471 197.066 230.472 199.118 216.257 206.52C209.248 188.877 192.611 173.853 170.693 167.844C153.05 163.006 135.463 164.947 121.344 171.877L99.9426 148.138L212.816 145.073L135.539 59.356L103.845 78.3939L133 110.733L71.6807 112.929Z" fill="white"/>
<path d="M367.361 337.52L342.355 345.245C357.197 370.002 361.256 390.952 361.256 390.952C361.256 390.952 355.902 370.141 340.427 345.824L304.951 356.808L329.955 330.917C327.668 327.952 325.11 324.975 322.418 321.989C268.723 262.429 166.15 275.916 115.594 219.838C72.6612 172.216 63.9486 126.087 62.3128 113.261L20.8237 114.717L96.1152 198.232C95.3474 199.953 94.7787 201.757 94.2752 203.627C86.2519 232.763 107.527 264.087 141.809 273.512C159.785 278.436 177.785 276.379 191.997 268.979C199.008 286.625 215.643 301.646 237.563 307.653C244.045 309.412 250.506 310.285 256.738 310.336L212.566 329.546L238.005 357.764L295.399 329.341L253.833 375.32L269.658 392.874L334.721 374.674L286.704 411.782L312.398 440.282L394.594 367.727L367.361 337.52Z" fill="white"/>
</g>
</svg>
