<svg width="514" height="459" viewBox="0 0 514 459" fill="none" xmlns="http://www.w3.org/2000/svg">
<path d="M70.3622 0.867752L37.2161 1.55301C18.0839 1.94855 4.20762 19.914 8.65915 38.5253L105.51 443.448C107.663 452.448 115.708 458.796 124.962 458.796H469.487C486.667 458.796 495.852 438.563 484.542 425.63L139.972 31.6029C122.454 11.5704 96.9682 0.317701 70.3622 0.867752Z" fill="#01579B"/>
<mask id="mask0_21_998" style="mask-type:alpha" maskUnits="userSpaceOnUse" x="7" y="0" width="483" height="459">
<path d="M70.3622 0.867752L37.2161 1.55301C18.0839 1.94855 4.20762 19.914 8.65915 38.5253L105.51 443.448C107.663 452.448 115.708 458.796 124.962 458.796H469.487C486.667 458.796 495.852 438.563 484.542 425.63L139.972 31.6029C122.454 11.5704 96.9682 0.317701 70.3622 0.867752Z" fill="white"/>
</mask>
<g mask="url(#mask0_21_998)">
<path fill-rule="evenodd" clip-rule="evenodd" d="M425.298 457.977L289.763 437.125L413.746 374.43C415.577 373.443 416.422 371.471 415.859 369.498C415.295 367.667 413.323 366.399 411.35 366.681L273.702 388.096L372.606 290.178C374.015 288.769 374.156 286.515 373.028 284.965C371.901 283.274 369.647 282.851 367.816 283.697L244.397 346.956L306.529 224.101C307.374 222.269 306.951 220.156 305.261 218.888C303.57 217.761 301.316 217.902 300.048 219.31L202.412 318.074L225.377 180.566C225.658 178.593 224.531 176.621 222.7 176.057C220.868 175.494 218.755 176.339 217.769 178.03L153.946 302.858L132.953 167.181C132.671 165.209 130.981 163.659 128.867 163.659C126.754 163.659 125.204 165.068 124.782 167.181L103.507 302.858L40.2481 177.607C39.4028 175.776 37.2894 174.93 35.317 175.635C33.4854 176.198 32.2174 178.171 32.4991 180.143L55.3232 319.342L-43.581 218.183C-44.9899 216.774 -47.2442 216.493 -48.9348 217.761C-50.6255 218.888 -51.0482 221.142 -50.2028 222.974L14.1836 348.647L-111.912 283.415C-113.744 282.429 -115.857 282.992 -117.125 284.683C-118.252 286.233 -118.111 288.628 -116.703 290.037L-15.4032 388.941L-155.447 366.258C-157.42 365.976 -159.392 367.103 -159.956 369.076C-160.519 371.048 -159.674 373.021 -157.983 374.007L-32.0281 437.125L-170.945 458.259C-173.058 458.54 -174.608 460.513 -174.326 462.626C-174.326 464.74 -172.354 466.43 -170.241 466.43H424.594C426.707 466.43 428.539 464.74 428.68 462.626C428.821 460.513 427.412 458.681 425.298 458.259" fill="url(#paint0_radial_21_998)"/>
</g>
<defs>
<radialGradient id="paint0_radial_21_998" cx="0" cy="0" r="1" gradientUnits="userSpaceOnUse" gradientTransform="translate(127.165 455.664) rotate(-44.8238) scale(95.2237 189.663)">
<stop stop-color="#FBCE20"/>
<stop offset="1" stop-color="#F48120"/>
</radialGradient>
</defs>
</svg>
