<svg width="514" height="462" viewBox="0 0 514 462" fill="none" xmlns="http://www.w3.org/2000/svg">
<path d="M70.3622 2.01936L37.2161 2.70462C18.0839 3.10016 4.20762 21.0656 8.65915 39.6769L105.51 444.6C107.663 453.599 115.708 459.947 124.962 459.947H469.487C486.667 459.947 495.852 439.714 484.542 426.781L139.972 32.7545C122.454 12.722 96.9682 1.46931 70.3622 2.01936Z" fill="white"/>
<mask id="mask0_46_653" style="mask-type:alpha" maskUnits="userSpaceOnUse" x="5" y="0" width="487" height="462">
<path d="M70.3418 1.01978C97.2433 0.4637 123.012 11.841 140.725 32.0959L485.295 426.123C497.17 439.703 487.527 460.947 469.487 460.948H124.962C115.246 460.948 106.798 454.282 104.538 444.832L7.68652 39.9094C3.08669 20.6778 17.4255 2.11411 37.1953 1.70532L70.3418 1.01978Z" fill="white" stroke="#1E1E1E" stroke-width="2"/>
</mask>
<g mask="url(#mask0_46_653)">
<path fill-rule="evenodd" clip-rule="evenodd" d="M126.792 1.15161H354.782C444.722 1.15161 517.656 75.5304 517.656 167.339C517.656 259.108 444.722 333.506 354.782 333.506H257.061V466.452H126.792V1.15161ZM257.061 134.078H354.782C372.75 134.078 387.368 148.965 387.368 167.339C387.368 185.673 372.75 200.561 354.782 200.561H257.061V134.078Z" fill="#ED1C24"/>
<path fill-rule="evenodd" clip-rule="evenodd" d="M-198.932 466.452V134.078H-296.307V1.15161H126.816V466.452L81.9388 448.219L69.4792 410.862L59.4748 397.656L-44.2046 383.368L-68.6637 466.452H-198.932ZM-5.12784 250.423L24.013 250.423L27.8575 200.597L-5.12784 250.423Z" fill="#BFD730"/>
<path fill-rule="evenodd" clip-rule="evenodd" d="M-198.938 466.452H-68.6697V134.078H29.0318V1.15161H-68.6505L-198.938 466.452Z" fill="#46A41A"/>
<path fill-rule="evenodd" clip-rule="evenodd" d="M126.792 466.452H257.061L126.792 1.15161V466.452Z" fill="#BA141A"/>
<path d="M70.3418 1.01978C97.2433 0.4637 123.012 11.841 140.725 32.0959L485.295 426.123C497.17 439.703 487.527 460.947 469.487 460.948H124.962C115.246 460.948 106.798 454.282 104.538 444.832L7.68652 39.9094C3.08669 20.6778 17.4255 2.11411 37.1953 1.70532L70.3418 1.01978Z" stroke="#1E1E1E" stroke-width="2"/>
<path fill-rule="evenodd" clip-rule="evenodd" d="M207.377 358.521L207.377 354.158L194.197 354.158C194.518 353.031 194.585 351.671 194.585 350.182C194.585 345.675 193.371 341.907 190.967 339.51C189.245 337.723 186.761 336.798 183.781 336.798C180.804 336.798 178.406 337.976 176.812 339.791C175.003 341.84 173.96 345.054 173.96 349.542C173.96 353.364 174.257 356.309 174.625 358.521L207.377 358.521ZM177.804 354.158C177.534 352.637 177.406 351.094 177.423 349.548C177.423 344.792 179.286 341.165 183.992 341.165C188.464 341.165 191.054 344.439 191.054 350.013C191.054 351.642 190.929 353.05 190.599 354.158L177.804 354.158ZM207.969 317.271C207.969 308.03 201.471 300.363 190.452 300.363C180.855 300.363 173.659 306.938 173.659 316.897C173.659 326.577 180.887 333.776 191.221 333.776C200.847 333.776 207.969 327 207.969 317.322L207.969 317.271ZM204.441 317.207C204.441 324.599 198.247 329.199 191.073 329.199C183.647 329.199 177.187 324.999 177.187 317.076C177.187 309.169 183.925 305.033 190.664 305.033C198.529 305.033 204.441 309.665 204.441 317.156L204.441 317.207ZM207.377 297.04L207.377 292.696L193.045 292.696L193.045 287.875C193.224 283.867 195.004 281.995 199.534 280.945C203.705 279.981 206.435 279.206 207.377 278.678L207.377 274.145C206 274.862 202.713 275.679 198.045 276.86C194.924 277.663 192.514 279.242 191.579 281.745L191.458 281.745C190.37 278.297 187.437 275.32 183.039 275.32C180.453 275.32 178.189 276.361 176.8 277.964C174.876 280.09 173.951 283.201 173.951 288.074C173.951 291.294 174.252 294.722 174.68 297.04L207.377 297.04ZM177.804 292.696C177.6 291.899 177.372 290.263 177.372 287.798C177.372 283.237 179.056 279.693 183.512 279.693C187.27 279.693 189.713 282.686 189.713 287.504L189.713 292.696L177.804 292.696ZM207.377 261.933L207.377 257.541L177.929 257.541L177.929 246.279L174.238 246.279L174.238 273.143L177.929 273.143L177.929 261.933L207.377 261.933ZM174.238 243.709L192.917 243.709C203.907 243.709 207.969 238.084 207.969 230.872C207.969 223.084 203.535 217.258 192.815 217.258L174.238 217.258L174.238 221.643L193.029 221.643C200.782 221.643 204.409 225.203 204.409 230.655C204.409 235.68 200.888 239.31 193.033 239.31L174.238 239.31L174.238 243.709ZM189.962 183.239L189.962 194.946L193.477 194.946L193.477 187.583L203.039 187.583C203.648 188.777 204.095 191.005 204.095 194.254C204.095 203.064 198.564 208.387 190.766 208.387C183.128 208.387 177.567 202.965 177.567 193.816C177.567 190.016 178.258 187.516 179.181 185.499L175.618 184.369C174.888 185.906 173.912 189.34 173.912 193.659C173.912 206.265 182.084 212.994 190.958 212.994C195.811 212.994 200.155 211.214 202.962 208.269C206.301 204.78 207.726 200.26 207.726 194.632C207.726 189.478 206.445 185.294 205.677 183.239L189.962 183.239ZM196.806 159.199L207.377 155.271L207.377 150.517L174.238 162.899L174.238 168.255L207.377 180.509L207.377 175.905L196.806 172.147L196.806 159.199ZM193.362 171.2L183.365 167.48C181.412 166.795 179.658 166.28 177.916 165.774L177.916 165.681C179.623 165.168 181.348 164.666 183.451 163.888L193.362 160.175L193.362 171.2Z" fill="white"/>
<path fill-rule="evenodd" clip-rule="evenodd" d="M207.378 147.965L207.378 128.099L203.642 128.099L203.642 143.582L174.239 143.582L174.239 147.968L207.378 147.965Z" fill="white"/>
<path d="M174.004 417.102L179.023 417.102L179.023 427.269L207.897 427.269L207.897 432.635L179.023 432.635L179.023 442.755L174.004 442.755L174.004 417.102Z" fill="white" stroke="white" stroke-width="1.4005"/>
<path d="M173.73 379.569C173.731 375.409 174.781 372.306 176.722 370.281L176.722 370.282C178.428 368.495 180.966 367.365 184.061 367.365C187.106 367.365 189.729 368.236 191.58 369.997C194.127 372.336 195.354 375.954 195.354 380.147C195.354 381.148 195.318 382.134 195.158 383.036L207.897 383.036L207.897 388.375L174.498 388.375L174.394 387.799C174.025 385.759 173.73 383.059 173.73 379.569ZM178.527 380.088C178.54 381.075 178.627 382.06 178.787 383.036L190.211 383.036C190.405 382.212 190.492 381.192 190.492 379.993C190.492 377.588 189.885 375.774 188.845 374.572C187.817 373.383 186.293 372.706 184.268 372.706C182.145 372.706 180.756 373.449 179.874 374.605C178.969 375.792 178.527 377.511 178.527 379.574L178.527 380.088Z" fill="white" stroke="white" stroke-width="1.4005"/>
<path d="M174.004 402.817L174.477 402.654L206.97 391.476L207.897 391.157L207.897 396.93L207.424 397.093L197.533 400.476L197.533 411.158L207.415 414.392L207.897 414.551L207.897 420.192L206.972 419.877L174.479 408.814L174.004 408.653L174.004 402.817ZM180.785 405.862C181.771 406.139 182.789 406.437 183.868 406.786L183.88 406.79L192.756 409.83L192.756 401.84L183.966 404.871L183.964 404.872C182.808 405.265 181.767 405.58 180.785 405.862Z" fill="white" stroke="white" stroke-width="1.4005"/>
</g>
</svg>
