<svg width="514" height="459" viewBox="0 0 514 459" fill="none" xmlns="http://www.w3.org/2000/svg">
<path d="M70.3622 0.867752L37.2161 1.55301C18.0839 1.94855 4.20762 19.914 8.65915 38.5253L105.51 443.448C107.663 452.448 115.708 458.796 124.962 458.796H469.487C486.667 458.796 495.852 438.563 484.542 425.63L139.972 31.6029C122.454 11.5704 96.9682 0.317701 70.3622 0.867752Z" fill="#ED1D24"/>
<mask id="mask0_27_434" style="mask-type:alpha" maskUnits="userSpaceOnUse" x="7" y="0" width="483" height="459">
<path d="M70.3622 0.867752L37.2161 1.55301C18.0839 1.94855 4.20762 19.914 8.65915 38.5253L105.51 443.448C107.663 452.448 115.708 458.796 124.962 458.796H469.487C486.667 458.796 495.852 438.563 484.542 425.63L139.972 31.6029C122.454 11.5704 96.9682 0.317701 70.3622 0.867752Z" fill="#F3CD02"/>
</mask>
<g mask="url(#mask0_27_434)">
<path d="M153.883 148.644L133.53 125.671C128.054 130.132 126.054 135.535 131.168 141.307C134.817 145.426 139.744 148.395 142.717 149.606L136.342 157.199C131.88 155.482 126.022 151.64 120.916 145.877C112.211 136.051 112.921 125.131 122.752 116.423C128.723 111.133 137.246 107.04 145.019 106.102C153.863 104.952 162.382 107.575 168.643 114.642C176.264 123.244 175.262 132.744 166.202 140.77C163.924 142.788 158.354 146.636 153.883 148.644ZM160.554 119.373C157.686 116.136 152.913 115.469 147.256 117.108C144.821 117.883 144.223 118.169 141.606 119.554L153.609 133.103C155.081 132.353 157.299 130.902 158.588 129.76C162.67 126.144 163.303 122.476 160.554 119.373Z" fill="white"/>
<path d="M62.2351 102.36L53.2325 92.1984L101.385 40.9878L111.226 52.0966L77.4129 85.6949L126.879 69.7646L137.051 81.2471L62.2351 102.36Z" fill="white"/>
<path d="M192.085 158.609L186.749 152.586L161.688 167.236C160.952 167.653 156.636 170.243 159.605 173.98C160.42 175.056 162.02 176.303 162.909 176.689C162.909 176.689 153.128 182.243 146.131 174.345C140.718 168.235 143.064 161.18 151.538 156.228L193.213 131.981C193.213 131.981 201.521 131.786 207.047 140.812C199.166 145.385 195.653 147.399 195.653 147.399L200.994 153.4L192.085 158.609Z" fill="white"/>
<path d="M258.29 233.339L252.948 227.309L227.88 241.951C227.141 242.366 222.835 244.967 225.808 248.707C226.616 249.775 228.215 251.023 229.102 251.406C229.102 251.406 219.325 256.965 212.328 249.066C206.923 242.965 209.269 235.91 217.754 230.97L259.409 206.701C259.409 206.701 267.731 206.523 273.26 215.55C265.369 220.112 261.85 222.121 261.85 222.121L267.216 228.148L258.29 233.339Z" fill="white"/>
<path d="M220.092 223.384L199.737 200.408C194.254 204.861 192.254 210.264 197.365 216.034C201.002 220.138 205.936 223.116 208.911 224.329L202.548 231.934C198.081 230.213 192.227 226.376 187.099 220.587C178.422 210.793 179.128 199.869 188.959 191.16C194.93 185.87 203.44 181.763 211.211 180.822C220.069 179.687 228.593 182.317 234.854 189.384C242.471 197.982 241.476 207.489 232.417 215.515C230.139 217.533 224.565 221.377 220.092 223.384ZM226.757 194.106C223.885 190.864 219.102 190.186 213.463 191.846C211.006 192.595 210.417 192.891 207.809 194.287L219.797 207.819C221.279 207.08 223.497 205.629 224.786 204.487C228.867 200.871 229.508 197.211 226.757 194.106Z" fill="white"/>
<path d="M329.791 314.356C328.502 310.743 326.005 307.769 323.519 306.651L284.375 329.604L274.572 318.539L319.795 292.135C326.584 294.425 335.811 301.693 340.564 309.575L329.791 314.356Z" fill="white"/>
<path d="M237.22 299.88L248.994 289.648L235.414 274.319L218.257 278.475L208.529 267.495L287.562 251.141L297.716 262.603L247.056 310.983L237.22 299.88ZM278.293 264.142L246.548 271.654L256.562 282.958L278.293 264.142Z" fill="white"/>
<path d="M132.228 192.888C123.428 182.955 125.392 171.509 133.186 166.036C131.586 176.234 139.675 185.399 149.511 186.425C153.109 186.831 157.498 185.885 165.731 181.012C179.805 172.736 205.127 158.094 205.127 158.094L214.984 169.219L169.8 195.499C155.582 203.557 141.035 202.83 132.228 192.888Z" fill="white"/>
<path d="M100.708 122.268L90.8707 111.163L138.807 83.2357L148.661 94.3593L100.708 122.268Z" fill="white"/>
<path d="M269.944 313.295L260.089 302.172L308.048 274.27L317.912 285.404L269.944 313.295Z" fill="white"/>
<path d="M292.078 339.085C290.445 337.241 290.69 334.735 292.456 333.17C294.843 331.055 299.073 331.202 301.212 333.616C302.841 335.456 302.673 337.977 300.867 339.577C298.488 341.684 294.199 341.478 292.078 339.085Z" fill="white"/>
<path d="M341.309 345.095C341.264 344.152 340.845 342.516 339.658 341.176C337.703 338.969 334.649 338.141 330.557 339.105C326.77 339.927 322.034 342.5 319.116 345.086C315.397 348.38 314.725 351.58 316.773 353.892C318.108 355.399 320.08 356.5 321.409 356.773L316.642 362.237C314.175 361.945 310.968 360.368 308.005 357.024C303.018 351.395 303.934 343.385 311.081 337.053C315.526 333.115 322.305 330.002 328.041 329.227C334.878 328.349 340.643 330.537 344.349 334.72C347.252 337.997 348.456 341.851 348.295 343.688L341.309 345.095Z" fill="white"/>
<path d="M342.862 382.799C336.329 383.804 330.124 381.99 325.277 376.519C319.198 369.657 320.649 362.031 327.237 356.195C331.678 352.261 338.576 348.93 344.263 348.096C350.911 347.089 357.039 349.044 361.743 354.354C367.842 361.238 366.491 368.876 359.901 374.715C355.452 378.656 348.511 381.904 342.862 382.799ZM355.682 358.494C353.688 356.243 350.448 356.228 346.759 357.487C342.789 358.801 336.675 362.292 333.571 365.041C330.985 367.332 329.84 369.669 331.942 372.042C334.005 374.37 336.999 374.371 340.705 373.093C344.643 371.751 350.897 368.282 353.984 365.548C356.577 363.251 357.724 360.799 355.682 358.494Z" fill="white"/>
<path d="M400.427 418.015L375.484 432.647L367.998 424.196L393.315 409.416C393.75 409.112 394.138 408.881 394.531 408.533C396.296 406.969 396.631 404.813 394.423 402.321C393.08 400.805 391.068 399.905 389.226 399.678L360.941 416.23L353.45 407.775L378.834 392.939C379.267 392.645 379.649 392.416 379.987 392.117C381.87 390.448 381.853 388.132 379.601 385.59C378.382 384.214 377.143 383.285 375.796 382.552L346.388 399.803L338.912 391.365L372.889 371.513C377.429 373.655 381.74 376.93 386.044 381.789C389.463 385.648 390.874 389.981 390.384 392.859C393.696 393.391 398.434 395.774 402.705 400.595C407.948 406.513 407.367 412.245 402.828 416.266C402.101 416.91 401.301 417.517 400.427 418.015Z" fill="white"/>
<path d="M341.428 509.161L6.33203 105.64L61.9686 488.697L341.428 509.161Z" fill="#FFD500"/>
</g>
</svg>
