<svg width="514" height="459" viewBox="0 0 514 459" fill="none" xmlns="http://www.w3.org/2000/svg">
<path d="M70.3622 0.867752L37.2161 1.55301C18.0839 1.94855 4.20762 19.914 8.65915 38.5253L105.51 443.448C107.663 452.448 115.708 458.796 124.962 458.796H469.487C486.667 458.796 495.852 438.563 484.542 425.63L139.972 31.6029C122.454 11.5704 96.9682 0.317701 70.3622 0.867752Z" fill="#F7B443"/>
<mask id="mask0_35_111" style="mask-type:alpha" maskUnits="userSpaceOnUse" x="7" y="0" width="483" height="459">
<path d="M70.3622 0.867752L37.2161 1.55301C18.0839 1.94855 4.20762 19.914 8.65915 38.5253L105.51 443.448C107.663 452.448 115.708 458.796 124.962 458.796H469.487C486.667 458.796 495.852 438.563 484.542 425.63L139.972 31.6029C122.454 11.5704 96.9682 0.317701 70.3622 0.867752Z" fill="#1F4FA2"/>
</mask>
<g mask="url(#mask0_35_111)">
<path d="M227.571 57.7234C329.161 47.6494 419.69 121.841 429.764 223.431C439.838 325.034 365.646 415.563 264.057 425.637C162.453 435.711 71.9375 361.52 61.8635 259.916C51.7758 158.327 125.967 67.7974 227.571 57.7234ZM231.107 93.4691C193.347 97.2109 160.274 114.768 136.411 140.632C152.324 132.737 201.721 173.732 209.314 180.572L379.188 175.35C352.42 121.553 294.443 87.1917 231.107 93.4691ZM394.018 226.981C392.579 212.479 389.098 198.664 383.903 185.807L265.893 227.172C265.893 227.172 314.783 287.123 335.109 311.218L384.643 295.676C392.894 274.514 396.417 251.131 394.018 226.981ZM381.559 303.022L337.028 323.924L320.992 370.278C347.691 354.653 368.868 331.038 381.559 303.022ZM260.507 389.892C279.764 387.987 297.801 382.477 314.016 374.13L324.309 323.225C298.212 305.53 233.478 263.178 233.478 263.178L204.668 384.862C222.294 389.933 241.154 391.811 260.507 389.892ZM97.5955 256.38C103.393 314.823 142.236 362 193.771 381.257L181.217 211.78C173.623 204.941 127.667 160.081 133.889 143.442C107.642 173.348 93.3603 213.644 97.5955 256.38Z" fill="white"/>
</g>
</svg>
