<svg width="514" height="461" viewBox="0 0 514 461" fill="none" xmlns="http://www.w3.org/2000/svg">
<path d="M70.3622 0.867752L37.2161 1.55301C18.0839 1.94855 4.20762 19.914 8.65915 38.5253L105.51 443.448C107.663 452.448 115.708 458.796 124.962 458.796H469.487C486.667 458.796 495.852 438.563 484.542 425.63L139.972 31.6029C122.454 11.5704 96.9682 0.317701 70.3622 0.867752Z" fill="#EB0028"/>
<mask id="mask0_18_64" style="mask-type:alpha" maskUnits="userSpaceOnUse" x="5" y="-2" width="487" height="463">
<path d="M70.3418 -0.131836C97.2433 -0.687911 123.012 10.6894 140.725 30.9443L485.295 424.972C497.17 438.551 487.527 459.796 469.487 459.796H124.962C115.246 459.796 106.798 453.13 104.538 443.681L7.68652 38.7578C3.08669 19.5262 17.4255 0.962498 37.1953 0.553711L70.3418 -0.131836Z" fill="white" stroke="#1E1E1E" stroke-width="2"/>
</mask>
<g mask="url(#mask0_18_64)">
<path d="M178.211 401.131L68.4691 489.769H52.6403V474.292L72.3376 439.822L96.6075 376.861L107.16 355.757L57.9168 357.516L44.5504 348.37V336.763L55.1025 321.99L91.3318 301.589L75.1515 292.092L15.3562 277.319L-14.1898 269.229L-36.701 261.139L-39.5137 244.608L-24.3894 234.759L57.9168 216.117L91.3318 213.655L115.25 224.207L83.5936 170.391L72.338 151.046L81.8349 139.79L107.16 144.011L161.679 187.978L169.769 180.943L176.452 134.163L181.377 68.0356L184.191 49.7452L201.777 43.4141L219.013 61.0011L234.489 91.6024L238.71 134.163V199.586L269.311 176.019L301.319 159.488H315.74L319.961 170.391L310.113 199.586L296.747 221.393L329.106 217.876L376.943 221.393H436.035L446.587 229.483L436.035 248.829L413.172 271.692L338.603 296.665L312.575 303.348L342.472 325.859L354.08 344.501L345.286 363.847L323.127 366.661L289.712 357.516L325.589 419.421L354.08 452.837L364.632 471.127L354.08 483.789L338.603 486.252L284.436 465.147L223.233 403.242L211.978 430.677L194.039 437.712L178.211 401.131Z" fill="white" stroke="black"/>
<path d="M189.815 218.63C194.984 227.583 189.498 240.428 177.56 247.32C165.623 254.212 151.756 252.541 146.587 243.588C141.417 234.635 146.904 221.79 158.841 214.898C170.779 208.006 184.646 209.677 189.815 218.63Z" fill="#FFC500"/>
<path d="M254.952 221.768C261.883 233.773 257.825 249.092 245.888 255.984C233.95 262.876 218.655 258.731 211.724 246.726C204.793 234.722 208.851 219.403 220.789 212.511C232.726 205.619 248.021 209.764 254.952 221.768Z" fill="#FFC500"/>
<path d="M138.988 316.385C126.613 316.385 116.582 304.237 116.582 289.252C116.582 274.267 126.613 262.119 138.988 262.119C151.362 262.119 161.393 274.267 161.393 289.252C161.393 304.237 151.362 316.385 138.988 316.385Z" fill="#FFC500"/>
<path d="M155.883 283.305C174.478 251.099 204.756 233.768 223.511 244.596C242.266 255.425 242.397 290.312 223.802 322.518C205.207 354.725 174.929 372.056 156.174 361.228C137.419 350.399 137.288 315.512 155.883 283.305Z" fill="#FFC500"/>
<path d="M245.262 283.306C263.856 315.512 263.726 350.399 244.971 361.228C226.216 372.056 195.938 354.725 177.343 322.519C158.748 290.312 158.878 255.425 177.634 244.596C196.389 233.768 226.667 251.099 245.262 283.306Z" fill="#FFC500"/>
<path d="M218.323 321.839C181.134 321.839 150.986 304.282 150.986 282.626C150.986 260.969 181.134 243.413 218.323 243.413C255.513 243.413 285.661 260.969 285.661 282.626C285.661 304.282 255.513 321.839 218.323 321.839Z" fill="#FFC500"/>
<path d="M452.204 232.175C451.404 223.275 442.304 216.675 433.904 215.875C428.604 215.275 422.704 216.075 416.704 216.075C405.604 216.075 394.804 215.275 388.204 214.775C361.504 212.575 334.304 208.275 307.904 214.775C317.304 202.775 340.104 163.875 316.804 152.875C301.204 145.475 268.304 164.075 247.304 184.075C248.504 157.275 247.604 103.975 229.704 69.6752C222.304 55.4752 208.104 38.5752 195.704 38.7752C168.304 39.0752 172.204 72.9752 172.304 89.0752C172.304 104.575 172.704 120.375 171.304 135.175C169.804 150.775 166.904 165.275 162.504 180.975C146.004 164.475 100.204 122.375 76.6039 132.675C65.5039 137.475 63.4039 147.675 68.8039 158.275C72.7039 165.875 79.4039 175.675 85.2039 184.175C92.2039 194.375 97.4039 203.475 100.404 208.975C82.8039 202.975 68.8039 205.975 53.0039 209.075C42.5039 211.175 32.9039 213.375 23.1039 215.375C12.8039 217.575 -2.19612 220.875 -15.9961 224.775C-25.6961 227.375 -35.3961 229.675 -40.6961 235.075C-49.8961 244.375 -50.3961 258.075 -39.7961 265.975C-33.0961 270.975 -20.1961 274.875 -11.7961 276.175C22.0039 281.475 48.4039 294.975 79.5039 300.575C62.9039 307.275 26.2039 325.375 35.5039 348.175C39.5039 357.875 49.9039 360.975 61.5039 362.475C74.6039 364.075 89.2039 363.275 98.4039 361.975C93.5039 369.575 88.9039 377.875 85.4039 386.075C77.9039 403.775 74.2039 421.775 64.8039 439.375C62.7039 443.475 59.5039 450.175 55.1039 456.875C51.7039 461.975 47.4039 467.375 44.6039 472.575C40.4039 480.375 44.7039 491.375 52.5039 494.475C62.8039 498.575 74.0039 494.475 85.5039 488.175C95.0039 483.075 105.104 476.975 111.504 472.575C136.604 455.375 156.904 433.675 175.604 409.975C178.604 425.975 185.104 450.975 206.604 443.975C209.804 442.975 213.104 439.875 215.204 437.475C219.704 432.375 223.904 421.375 225.704 412.375C241.104 436.975 292.004 487.675 340.904 491.875C346.304 492.375 358.304 490.075 362.504 486.075C373.304 475.775 370.004 462.275 364.904 454.275C359.804 446.175 352.204 439.175 347.004 433.075C329.004 412.175 312.604 391.775 300.004 366.175C318.904 373.875 345.604 374.775 356.404 360.375C359.604 356.075 361.404 349.075 358.904 340.875C354.904 327.575 337.604 312.775 324.504 306.075C343.104 303.775 376.404 297.875 416.404 275.675C437.804 263.775 453.704 247.975 452.104 232.275L452.204 232.175ZM151.404 286.875C152.604 298.575 147.904 310.875 138.104 311.875C131.804 312.375 122.004 302.975 121.204 289.775C120.404 276.675 125.904 264.975 134.504 264.475C141.704 264.075 150.104 273.475 151.404 286.975V286.875ZM158.204 221.875C167.404 213.675 181.804 211.675 187.104 218.775C191.004 223.975 187.104 236.275 177.004 243.875C167.604 250.975 155.304 253.075 149.704 246.075C146.204 241.675 147.704 231.375 158.204 221.875ZM146.504 332.575C151.104 322.175 165.904 321.375 177.604 326.575C189.204 331.775 197.704 343.675 191.104 354.475C186.704 361.475 173.904 364.875 160.904 358.975C150.104 354.075 142.004 343.075 146.604 332.575H146.504ZM165.404 284.975C165.204 266.875 179.204 252.075 196.704 251.875C214.204 251.675 228.504 266.275 228.704 284.275C228.904 302.375 213.704 316.675 197.504 317.275C178.304 318.075 165.704 302.975 165.504 284.975H165.404ZM222.204 324.175C233.304 316.875 245.704 317.575 251.004 326.275C256.004 334.375 252.504 346.275 242.704 353.575C232.704 360.975 221.004 360.575 214.704 352.975C208.304 345.275 211.804 330.975 222.204 324.175ZM240.004 282.575C241.104 268.175 251.104 257.475 259.204 258.075C268.904 258.675 276.004 269.975 274.104 286.075C272.404 300.475 262.304 310.875 254.204 309.775C243.104 308.275 238.704 296.975 239.904 282.575H240.004ZM252.104 240.575C248.704 247.975 238.004 252.575 225.804 247.475C215.004 242.975 209.504 232.875 212.704 223.975C216.304 214.075 228.204 211.075 239.104 215.375C249.904 219.675 256.604 230.875 252.104 240.575ZM64.6039 283.875C51.9039 280.575 39.5039 276.075 26.9039 272.075C21.6039 270.375 7.50388 266.875 -6.09612 263.875C-20.3961 260.575 -34.2961 257.675 -34.3961 250.675C-34.3961 243.675 -25.5961 241.275 -12.6961 237.875C8.20388 232.375 36.4039 226.275 43.0039 224.875C56.6039 221.975 71.4039 217.875 85.0039 219.375C94.2039 220.275 102.404 223.675 110.004 231.075C113.104 234.175 117.904 238.175 121.804 235.175C123.504 233.775 124.104 232.675 124.404 231.475C125.004 229.275 124.004 226.975 122.404 223.375C120.904 219.975 119.204 215.975 117.304 212.375C115.504 208.875 113.204 204.775 112.404 203.175C105.104 189.575 96.4039 176.775 87.8039 163.975C83.0039 156.675 78.5039 150.175 79.2039 147.175C79.8039 144.575 84.8039 143.975 89.4039 144.975C92.9039 145.775 96.1039 147.075 100.904 149.475C109.004 153.475 116.404 158.975 123.804 164.475C133.304 171.575 142.404 179.275 150.204 187.675C158.404 196.475 160.904 196.675 166.404 195.575C172.704 194.275 173.804 187.875 175.404 182.575C176.604 178.275 178.304 172.775 179.504 166.975C181.504 156.975 183.104 151.075 184.404 139.875C185.004 133.975 185.704 122.375 185.804 115.875C186.004 105.075 185.804 93.4752 185.804 83.2752C185.704 67.4752 184.504 57.8752 191.304 53.0752C194.004 51.0752 198.304 53.0752 199.504 53.7752C216.404 64.6752 225.204 91.0752 228.204 104.975C233.304 128.375 235.004 152.275 234.304 176.275C234.004 185.775 233.004 194.275 232.904 200.075C215.204 199.475 205.604 207.875 200.904 217.175C194.904 199.175 174.304 197.275 157.904 206.175C141.904 214.775 129.504 234.775 137.504 250.975C116.304 249.575 106.104 272.475 108.104 290.875C93.2039 289.375 79.0039 287.375 64.9039 283.775L64.6039 283.875ZM432.104 247.175C428.404 252.075 421.504 256.575 415.004 260.775C404.804 267.175 394.804 271.275 391.404 272.975C374.104 280.975 356.704 286.775 338.104 290.375C331.904 291.575 322.204 292.675 314.004 293.875C309.004 294.675 303.804 296.175 300.504 297.075C297.604 297.875 296.404 300.475 296.004 302.075C295.204 304.875 296.904 308.175 299.704 309.475C304.004 311.375 312.204 313.175 329.004 324.475C340.104 331.975 347.804 342.475 346.804 349.575C346.304 353.075 344.204 355.275 337.704 357.075C328.304 359.775 319.004 358.175 309.904 355.575C308.404 355.175 302.704 352.875 297.104 350.375C293.504 348.675 290.404 346.075 287.204 345.775C282.204 345.275 277.704 349.575 280.804 356.275C292.904 383.775 308.604 408.075 328.004 430.875C331.404 434.775 338.004 442.575 344.504 450.175C347.804 454.075 349.804 456.075 352.904 459.975C358.404 466.975 357.804 474.975 351.104 477.175C330.104 483.975 294.604 461.475 281.204 450.775C268.804 440.775 256.904 430.375 246.804 417.875C245.104 415.775 240.704 409.975 234.804 401.175C232.004 397.075 228.904 386.275 223.504 385.475C219.104 384.775 216.004 388.675 215.404 394.575C214.604 399.875 213.404 410.475 210.104 419.575C207.404 426.875 203.904 432.875 199.304 432.075C195.704 431.375 192.904 424.275 191.504 418.075C191.104 416.475 189.204 408.575 188.204 402.275C187.504 397.275 187.004 392.475 185.804 389.375C184.904 386.975 181.204 385.075 178.204 386.275C174.904 387.475 171.104 393.775 168.304 397.675C155.504 415.675 138.404 435.875 115.004 453.575C100.404 464.675 84.3039 474.375 72.5039 479.975C65.5039 483.275 60.0039 483.975 57.5039 481.775C55.3039 479.775 57.8039 477.175 60.4039 473.075C64.0039 467.375 69.7039 459.975 72.1039 455.575C78.7039 443.275 84.3039 430.675 88.8039 417.375C91.1039 410.775 93.0039 403.775 95.5039 397.375C98.1039 390.375 101.504 383.775 105.004 377.075C106.204 374.875 112.604 364.875 120.904 355.875C125.304 351.075 121.404 341.975 113.404 344.775C101.704 348.875 80.4039 351.475 62.9039 349.575C55.8039 348.775 50.0039 348.275 47.9039 342.175C45.8039 336.075 56.7039 327.175 66.3039 321.675C81.2039 313.175 97.7039 307.875 111.504 304.375C120.204 321.675 130.904 324.375 135.404 325.075C127.004 339.775 135.404 357.175 148.604 366.875C165.004 378.875 191.204 379.275 203.604 360.375C212.804 372.675 226.404 374.575 238.504 370.775C257.604 364.775 273.304 343.775 264.204 321.775C281.004 315.075 290.304 294.375 287.904 275.475C286.204 262.375 279.204 249.075 265.204 245.175C270.004 232.775 265.804 219.975 257.104 211.175C254.104 208.075 250.404 205.675 246.604 203.775C249.804 200.475 259.504 189.775 274.004 179.875C280.104 175.675 287.704 171.075 295.004 168.075C303.304 164.775 310.504 163.375 312.804 166.075C314.704 168.375 313.604 175.275 311.304 181.775C309.104 188.075 305.804 193.775 304.504 195.875C299.204 205.075 293.104 212.375 285.904 219.175C284.904 220.275 281.504 223.175 280.104 224.175C276.504 226.875 274.904 229.375 276.904 233.775C277.604 235.475 280.904 238.475 284.904 236.975C294.704 233.375 302.904 229.375 311.904 227.275C325.204 224.275 339.704 224.275 355.104 225.175C361.104 225.475 380.904 227.875 400.204 228.575C409.504 228.975 417.604 229.175 423.904 228.875C433.304 228.475 437.204 228.875 438.904 232.775C440.304 235.475 437.004 240.875 432.404 247.075L432.104 247.175Z" fill="#0E4194"/>
</g>
</svg>
