<svg width="514" height="459" viewBox="0 0 514 459" fill="none" xmlns="http://www.w3.org/2000/svg">
<path d="M70.3622 0.0193633L37.2161 0.704623C18.0839 1.10016 4.20762 19.0656 8.65915 37.6769L105.51 442.6C107.663 451.599 115.708 457.947 124.962 457.947H469.487C486.667 457.947 495.852 437.714 484.542 424.781L139.972 30.7545C122.454 10.722 96.9682 -0.530687 70.3622 0.0193633Z" fill="#A4B0BF"/>
<mask id="mask0_45_1282" style="mask-type:alpha" maskUnits="userSpaceOnUse" x="7" y="0" width="483" height="458">
<path d="M70.3622 0.0193633L37.2161 0.704623C18.0839 1.10016 4.20762 19.0656 8.65915 37.6769L105.51 442.6C107.663 451.599 115.708 457.947 124.962 457.947H469.487C486.667 457.947 495.852 437.714 484.542 424.781L139.972 30.7545C122.454 10.722 96.9682 -0.530687 70.3622 0.0193633Z" fill="#9BAFC8"/>
</mask>
<g mask="url(#mask0_45_1282)">
<path d="M275.471 180.101C173.5 171.387 111.311 172.617 39.4598 184.591L48.1934 209.79C147.735 200.06 238.546 204.801 315.636 219.769L275.471 180.101Z" fill="#F5D33F"/>
<path d="M347.743 260.032C259.39 239.423 167.115 236.797 52.8445 248.411L61.6237 274.091C262.13 271.945 315.092 284.401 391.539 310.748L347.743 260.032Z" fill="#F5D33F"/>
<path d="M431.98 352.371C309.953 313.596 228.145 307.938 68.3105 314.566L81.0895 341.189C272.897 341.189 388.095 367.793 517.901 457.947L431.98 352.371Z" fill="#F5D33F"/>
<rect width="64.6267" height="91.4127" transform="matrix(-1 0 0 1 147.017 61.2539)" fill="#215B67"/>
<path d="M129.225 144.562V79.1409" stroke="white" stroke-width="3.98924"/>
<path d="M135.581 144.785L122.87 144.341" stroke="white" stroke-width="3.98924"/>
<path d="M135.581 78.6101L122.87 78.1662" stroke="white" stroke-width="3.98924"/>
<path d="M106.538 69.5815L93.8274 69.1377" stroke="white" stroke-width="3.98924"/>
<path d="M106.538 133.986L93.8274 133.542" stroke="white" stroke-width="3.98924"/>
<path d="M129.372 106.745L100.183 105.725M100.183 105.725V133.762M100.183 105.725V70.2395" stroke="white" stroke-width="3.98924"/>
</g>
</svg>
