<svg width="514" height="459" viewBox="0 0 514 459" fill="none" xmlns="http://www.w3.org/2000/svg">
<path d="M70.3622 0.867752L37.2161 1.55301C18.0839 1.94855 4.20762 19.914 8.65915 38.5253L105.51 443.448C107.663 452.448 115.708 458.796 124.962 458.796H469.487C486.667 458.796 495.852 438.563 484.542 425.63L139.972 31.6029C122.454 11.5704 96.9682 0.317701 70.3622 0.867752Z" fill="#5DD8F8"/>
<mask id="mask0_45_947" style="mask-type:alpha" maskUnits="userSpaceOnUse" x="7" y="0" width="483" height="459">
<path d="M70.3622 0.867752L37.2161 1.55301C18.0839 1.94855 4.20762 19.914 8.65915 38.5253L105.51 443.448C107.663 452.448 115.708 458.796 124.962 458.796H469.487C486.667 458.796 495.852 438.563 484.542 425.63L139.972 31.6029C122.454 11.5704 96.9682 0.317701 70.3622 0.867752Z" fill="#1C1C1C"/>
</mask>
<g mask="url(#mask0_45_947)">
<path d="M258.697 159.889C213.877 164.927 199.518 172.294 164.666 176.335C161.792 176.585 158.119 174.757 156.219 172.742C136.486 151.619 116.692 130.924 97.2034 109.616C90.7684 102.595 78.4677 98.4595 69.9176 104.897C61.3676 111.335 61.9426 124.3 66.9118 132.425C82.0035 157.043 96.4227 181.785 111.27 206.587C112.681 208.97 113.423 213.005 112.388 215.698C98.8723 248.076 87.8248 259.84 70.5958 301.522C64.5693 316.395 68.3861 329.598 80.5145 339.605L118.247 305.835L124.317 313.896C128.547 319.515 136.195 321.029 141.998 317.043C147.8 313.057 148.947 304.92 144.716 299.302L136.991 289.042L154.513 273.168C158.542 269.369 165.026 269.846 168.826 273.875C179 285.354 197.204 306.48 204.498 315.151C205.97 317.105 206.832 320.284 206.714 322.669C206.427 332.455 206.019 343.098 205.303 352.823C204.947 358.451 206.789 362.422 211.078 366.084C219.067 354.326 227.304 343.914 235.417 332.829C236.27 331.42 237.736 330.317 239.202 329.213C240.668 328.109 242.317 327.25 243.723 326.575C256.618 321.841 269.146 316.619 282.409 312.374C279.892 306.996 276.768 304.373 271.261 303.16C261.716 301.16 251.376 298.611 241.891 296.182C239.566 295.636 236.506 294.113 235.278 291.975C229.145 282.813 213.688 259.235 205.469 246.284C202.402 241.703 203.735 235.34 208.745 232.334L228.842 219.881L236.568 230.141C240.798 235.759 248.935 236.906 254.369 232.431C259.804 227.956 260.462 220.188 256.232 214.569L250.162 206.508L293.044 179.578C286.106 165.28 274.472 157.963 258.697 159.889Z" fill="white"/>
<path d="M317.259 326.933C335.535 351.204 325.86 388.835 296.626 410.847C267.392 432.859 228.554 431.757 210.278 407.486L209.376 406.287L210.575 405.385L223.17 395.901L224.382 394.989L225.281 396.21C237.717 413.103 265.584 414.447 287.125 398.227C308.666 382.008 315.075 354.855 302.277 338.235L301.352 337.033L302.563 336.121L315.16 326.637L316.357 325.735L317.259 326.933Z" fill="white" stroke="white" stroke-width="3"/>
</g>
</svg>
