<svg width="514" height="459" viewBox="0 0 514 459" fill="none" xmlns="http://www.w3.org/2000/svg">
<path d="M70.3622 0.867752L37.2161 1.55301C18.0839 1.94855 4.20762 19.914 8.65915 38.5253L105.51 443.448C107.663 452.448 115.708 458.796 124.962 458.796H469.487C486.667 458.796 495.852 438.563 484.542 425.63L139.972 31.6029C122.454 11.5704 96.9682 0.317701 70.3622 0.867752Z" fill="#FED100"/>
<mask id="mask0_48_1071" style="mask-type:alpha" maskUnits="userSpaceOnUse" x="7" y="0" width="483" height="459">
<path d="M70.3622 0.867752L37.2161 1.55301C18.0839 1.94855 4.20762 19.914 8.65915 38.5253L105.51 443.448C107.663 452.448 115.708 458.796 124.962 458.796H469.487C486.667 458.796 495.852 438.563 484.542 425.63L139.972 31.6029C122.454 11.5704 96.9682 0.317701 70.3622 0.867752Z" fill="#54B149"/>
</mask>
<g mask="url(#mask0_48_1071)">
<path d="M58.0539 307.292C18.9029 304.935 12.9252 310.275 12.4447 317.024C11.9755 323.929 17.3274 329.896 56.3108 332.41C97.3612 334.923 160.568 333.046 160.881 326.287C161.373 319.381 98.9479 309.806 58.0539 307.292Z" fill="white"/>
<path d="M178.106 334.391C171.13 334.558 165.848 371.719 165.85 397.579C165.85 432.951 170.227 441.656 178.601 441.555C185.779 441.458 191.33 435.751 191.139 397.214C191.032 375.632 185.146 334.367 178.106 334.391Z" fill="white"/>
<path d="M328.467 353.723C289.661 340.556 199.342 319.852 197.118 326.335C194.738 332.821 281.335 364.276 320.305 377.294C357.21 389.874 364.523 386.269 366.758 379.785C368.982 373.302 365.526 366.143 328.467 353.723Z" fill="white"/>
<path d="M99.0466 149.24C111.302 167.984 156.186 243.198 175.02 286.992C177.174 246.572 183.18 229.579 189.011 206.694C200.836 160.895 209.781 142.565 225.21 146.392C238.768 149.891 241.46 169.304 229.49 216.432C220.586 250.794 200.959 295.743 186.033 315.441C183.339 318.886 180.068 319.4 176.858 317.626C155.059 306.028 94.139 217.582 64.052 171.637C35.0778 127.518 24.2089 104.049 37.7391 95.3993C52.5061 85.9486 71.6821 107.628 99.0466 149.24Z" fill="#0092D2"/>
</g>
</svg>
