<svg width="514" height="459" viewBox="0 0 514 459" fill="none" xmlns="http://www.w3.org/2000/svg">
<path d="M70.3622 0.867752L37.2161 1.55301C18.0839 1.94855 4.20762 19.914 8.65915 38.5253L105.51 443.448C107.663 452.448 115.708 458.796 124.962 458.796H469.487C486.667 458.796 495.852 438.563 484.542 425.63L139.972 31.6029C122.454 11.5704 96.9682 0.317701 70.3622 0.867752Z" fill="#007A9C"/>
<mask id="mask0_47_857" style="mask-type:alpha" maskUnits="userSpaceOnUse" x="5" y="-2" width="487" height="463">
<path d="M70.3418 -0.131836C97.2433 -0.687911 123.012 10.6894 140.725 30.9443L485.295 424.972C497.17 438.551 487.527 459.796 469.487 459.796H124.962C115.246 459.796 106.798 453.13 104.538 443.681L7.68652 38.7578C3.08669 19.5262 17.4255 0.962498 37.1953 0.553711L70.3418 -0.131836Z" fill="white" stroke="#1E1E1E" stroke-width="2"/>
</mask>
<g mask="url(#mask0_47_857)">
<path d="M323.874 171.114C326.19 170.916 330.568 170.523 334.409 171.154C336.327 171.469 338.499 172.095 340.259 173.444C342.188 174.923 343.415 177.126 343.415 179.927C343.415 181.784 342.783 184.347 342.229 186.323C341.649 188.397 340.991 190.374 340.658 191.374L286.021 370.894C285.89 371.354 285.746 371.852 285.596 372.372C284.908 374.748 284.066 377.66 283.394 380.474C282.704 383.365 282.271 385.844 282.271 387.439C282.271 389.485 282.581 390.933 283.007 391.743C283.197 392.104 283.355 392.233 283.425 392.279C283.474 392.311 283.611 392.392 283.974 392.392C285.959 392.392 289.164 390.968 293.406 387.679C297.469 384.53 301.882 380.151 306.161 375.351C314.737 365.733 322.379 354.877 325.152 349.94L325.267 349.737L325.407 349.55C325.722 349.131 326.105 348.548 326.63 347.746C327.575 346.301 328.899 344.262 330.444 342.6C331.892 341.044 334.226 339.052 337.314 339.052L337.708 339.063C339.658 339.181 341.333 340.156 342.479 341.308C343.7 342.537 344.713 344.361 344.709 346.474L344.703 346.811C344.648 348.504 344.191 350.312 343.576 352.066C342.905 353.981 341.965 356.055 340.862 358.191C338.656 362.464 335.681 367.21 332.548 371.786C326.311 380.894 319.178 389.711 315.709 393.179C308.758 400.454 298.036 410.348 286.363 418.46C274.817 426.484 261.689 433.233 250.133 433.233C244.54 433.233 239.912 431.532 236.727 428.02C233.594 424.567 232.32 419.868 232.32 414.778C232.32 404.575 235.26 394.473 237.716 385.967C237.919 385.264 238.119 384.572 238.314 383.888L238.324 383.854L238.335 383.82L263.158 303.395C248.354 325.707 228.794 352.285 206.99 375.534C192.158 391.349 176.202 405.717 159.915 416.153C143.655 426.572 126.811 433.233 110.274 433.233C94.0181 433.233 82.5557 425.544 75.3066 414.406C68.1606 403.426 65.1445 389.2 65.1445 375.742C65.1445 352.245 73.0133 326.819 84.5342 303.37C96.0699 279.89 111.392 258.137 126.593 241.941L126.607 241.926L126.622 241.911C159.458 207.762 208.45 176.434 257.949 176.434C267.331 176.434 275.35 177.603 282.546 180.801C288.011 183.229 292.845 186.759 297.385 191.578C297.587 190.911 297.784 190.269 297.972 189.645C298.982 186.285 299.853 183.373 300.836 181.029C301.837 178.643 303.086 176.507 305.047 174.866C307.029 173.208 309.411 172.327 312.19 171.84C314.919 171.361 318.263 171.225 322.352 171.225C322.537 171.225 322.977 171.191 323.874 171.114ZM256.656 193.831C238.563 193.831 220.277 202.599 203.475 215.32C186.722 228.004 171.809 244.342 160.54 258.833L160.517 258.862C150.645 271.28 138.751 290.865 129.331 311.556C119.873 332.332 113.138 353.728 113.138 369.869C113.138 376.529 114.816 383.798 118.352 389.284C121.804 394.641 126.957 398.252 134.354 398.252C141.369 398.252 149.647 395.102 158.665 389.56C167.616 384.059 176.938 376.425 185.954 367.971C203.982 351.069 220.445 331.224 229.857 319.541C237.275 310.187 251.818 290.472 264.492 270.047C270.835 259.825 276.668 249.494 280.903 240.236C285.196 230.852 287.631 223.024 287.633 217.648C287.633 209.025 284.119 203.278 278.732 199.55C273.174 195.703 265.34 193.831 256.656 193.831Z" fill="white" stroke="white" stroke-width="7"/>
</g>
</svg>
