<svg width="514" height="459" viewBox="0 0 514 459" fill="none" xmlns="http://www.w3.org/2000/svg">
<path d="M70.3622 0.867752L37.2161 1.55301C18.0839 1.94855 4.20762 19.914 8.65915 38.5253L105.51 443.448C107.663 452.448 115.708 458.796 124.962 458.796H469.487C486.667 458.796 495.852 438.563 484.542 425.63L139.972 31.6029C122.454 11.5704 96.9682 0.317701 70.3622 0.867752Z" fill="#EB1C23"/>
<mask id="mask0_48_1179" style="mask-type:alpha" maskUnits="userSpaceOnUse" x="7" y="0" width="483" height="459">
<path d="M70.3622 0.867752L37.2161 1.55301C18.0839 1.94855 4.20762 19.914 8.65915 38.5253L105.51 443.448C107.663 452.448 115.708 458.796 124.962 458.796H469.487C486.667 458.796 495.852 438.563 484.542 425.63L139.972 31.6029C122.454 11.5704 96.9682 0.317701 70.3622 0.867752Z" fill="#54B149"/>
</mask>
<g mask="url(#mask0_48_1179)">
<ellipse cx="47.7927" cy="37.6274" rx="47.7927" ry="37.6274" transform="matrix(-0.866025 0.5 0.5 0.866025 244.07 122.631)" fill="#F8640F"/>
<ellipse cx="34.9715" cy="25.9252" rx="34.9715" ry="25.9252" transform="matrix(-0.88405 0.467391 0.467391 0.88405 204.732 273.427)" fill="#F37B0A"/>
<ellipse cx="34.9715" cy="24.9066" rx="34.9715" ry="24.9066" transform="matrix(-0.962514 0.271233 0.271233 0.962514 151.703 372.288)" fill="#F37B0A"/>
<ellipse cx="39.6317" cy="26.9302" rx="39.6317" ry="26.9302" transform="matrix(-0.866025 0.5 0.5 0.866025 287.141 195.659)" fill="#F37B0A"/>
<ellipse cx="30.9029" cy="20.3467" rx="30.9029" ry="20.3467" transform="matrix(-0.866025 0.5 0.5 0.866025 314.871 251.071)" fill="#F5A11C"/>
<ellipse cx="21.5046" cy="14.5157" rx="21.5046" ry="14.5157" transform="matrix(-0.866025 0.5 0.5 0.866025 336.174 296.538)" fill="#F5A819"/>
<ellipse cx="16.3949" cy="11.0666" rx="16.3949" ry="11.0666" transform="matrix(-0.866025 0.5 0.5 0.866025 350.689 328.515)" fill="#F8BA14"/>
<ellipse cx="28.988" cy="17.6109" rx="28.988" ry="17.6109" transform="matrix(-0.81807 0.575119 0.575119 0.81807 248.293 311.094)" fill="#F5A11C"/>
<ellipse cx="22.0547" cy="14.0459" rx="22.0547" ry="14.0459" transform="matrix(-0.81807 0.575119 0.575119 0.81807 284.697 341.553)" fill="#F5A819"/>
<ellipse cx="16.6862" cy="10.6269" rx="16.6862" ry="10.6269" transform="matrix(-0.81807 0.575119 0.575119 0.81807 311.156 365.424)" fill="#F8BA14"/>
<ellipse cx="24.6142" cy="17.8319" rx="24.6142" ry="17.8319" transform="matrix(-0.773887 0.633323 0.633323 0.773887 196.582 386.085)" fill="#F5A11C"/>
<ellipse cx="20.5783" cy="14.7837" rx="20.5783" ry="14.7837" transform="matrix(-0.750704 0.660638 0.660638 0.750704 245.182 396.026)" fill="#F5A819"/>
<ellipse cx="15.2867" cy="10.9821" rx="15.2867" ry="10.9821" transform="matrix(-0.750704 0.660638 0.660638 0.750704 281.607 408.177)" fill="#F8BA14"/>
<ellipse cx="47.7927" cy="37.6274" rx="47.7927" ry="37.6274" transform="matrix(-0.963249 0.268609 0.268609 0.963249 155.029 224.102)" fill="#F8640F"/>
</g>
</svg>
