<svg width="514" height="459" viewBox="0 0 514 459" fill="none" xmlns="http://www.w3.org/2000/svg">
<path d="M70.3622 0.867752L37.2161 1.55301C18.0839 1.94855 4.20762 19.914 8.65915 38.5253L105.51 443.448C107.663 452.448 115.708 458.796 124.962 458.796H469.487C486.667 458.796 495.852 438.563 484.542 425.63L139.972 31.6029C122.454 11.5704 96.9682 0.317701 70.3622 0.867752Z" fill="#1F2225"/>
<mask id="mask0_107_40" style="mask-type:alpha" maskUnits="userSpaceOnUse" x="7" y="0" width="483" height="459">
<path d="M70.3622 0.867752L37.2161 1.55301C18.0839 1.94855 4.20762 19.914 8.65915 38.5253L105.51 443.448C107.663 452.448 115.708 458.796 124.962 458.796H469.487C486.667 458.796 495.852 438.563 484.542 425.63L139.972 31.6029C122.454 11.5704 96.9682 0.317701 70.3622 0.867752Z" fill="#1C1C1C"/>
</mask>
<g mask="url(#mask0_107_40)">
<path d="M166.27 99.3845C227.944 148.084 257.302 245.172 244.64 317.039C232.687 256.275 160.598 129.734 2.00299 132.58C52.1695 101.991 98.5753 91.1299 166.27 99.3845Z" fill="#D8D8D8"/>
<path d="M72.0848 144.431C160.642 170.529 220.289 236.376 239.475 315.136C183.731 238.941 88.1676 177.156 -49.5627 226.966C-27.9199 197.894 12.9138 160.694 72.0848 144.431Z" fill="#45CFF6"/>
<path d="M-11.056 219.682C50.9332 204.755 134.276 218.023 193.57 270.476C118.25 236.234 16.6521 239.216 -65.3741 311.525C-55.2494 275.42 -40.7759 255.366 -11.056 219.682Z" fill="#45CFF6"/>
<path d="M-31.7699 291.254C40.1702 246.567 113.972 245.551 178.407 268.852C117.424 264.62 7.83928 284.145 -51.4052 397.218C-51.2021 355.751 -48.7061 332.53 -31.7699 291.254Z" fill="#45CFF6"/>
<path d="M-26.6391 365.814C9.75327 314.353 91.9204 268.294 163.852 273.411C91.2095 292.162 9.98514 353.735 -8.867 471.567C-24.22 432.616 -27.9916 407.104 -26.6391 365.814Z" fill="#45CFF6"/>
<path d="M3.97736 432.209C14.5939 405.926 45.7967 317.237 150.41 281.633C81.153 329.797 33.9004 424.892 56.2839 526.594C36.5584 501.382 16.5132 478.533 3.97736 432.209Z" fill="#45CFF6"/>
<path d="M137.149 556.243C88.1184 476.108 85.4338 380.424 141.283 294.265C64.0857 357.721 55.8185 436.482 55.8185 486.531C83.4345 521.774 101.497 536.544 137.149 556.243Z" fill="#45CFF6"/>
<path d="M122.426 518.931C153.619 536.839 168.856 547.715 223.593 556.89C161.91 516.05 110.733 417.933 137.169 308.801C101.243 373.535 91.2454 431.829 122.426 518.931Z" fill="#45CFF6"/>
<path d="M138.525 324.222C150.217 421.153 211.785 497.958 304.427 528.421C263.194 535.398 239.712 536.045 196.65 526.557C137.677 455.384 128.866 396.581 138.525 324.222Z" fill="#45CFF6"/>
<path d="M145.277 338.708C172.345 389.151 229.822 473.619 370.621 473.619C337.749 491.231 319.228 501.053 268.701 508.673C231.88 492.471 160.006 430.318 145.277 338.708Z" fill="#45CFF6"/>
<path d="M156.716 348.798C189.084 390.23 295.799 445.556 414.043 399.106C384.387 428.693 368.818 448.508 330.439 466.423C271.581 461.11 196.484 422.016 156.716 348.798Z" fill="#45CFF6"/>
</g>
</svg>
