<svg width="514" height="459" viewBox="0 0 514 459" fill="none" xmlns="http://www.w3.org/2000/svg">
<path d="M70.3622 0.867752L37.2161 1.55301C18.0839 1.94855 4.20762 19.914 8.65915 38.5253L105.51 443.448C107.663 452.448 115.708 458.796 124.962 458.796H469.487C486.667 458.796 495.852 438.563 484.542 425.63L139.972 31.6029C122.454 11.5704 96.9682 0.317701 70.3622 0.867752Z" fill="#1C1C1C"/>
<path d="M219.49 355.466C219.49 349.154 222.194 348.25 228.506 351.858C235.605 355.967 242.818 359.876 250.138 363.578C250.138 359.978 253.746 357.266 260.058 359.066C266.37 360.874 272.674 361.77 272.674 361.77C272.674 361.77 269.074 353.658 267.266 350.058C264.562 343.746 267.266 340.138 269.97 339.242C269.97 339.242 266.37 336.538 263.658 334.73C258.25 331.13 259.154 326.618 264.562 324.81C271.778 321.21 281.69 317.61 281.69 317.61C278.986 315.802 275.378 311.29 278.986 304.986C282.586 299.578 288.906 291.466 288.906 291.466H271.778C265.458 291.466 263.658 286.058 263.658 282.45C263.658 282.45 253.746 289.658 246.538 294.17C240.218 298.674 234.818 294.17 235.722 286.954C237.522 276.138 238.426 263.514 238.426 263.514C234.818 267.122 228.506 266.226 224.906 260.818C220.394 251.802 215.89 240.978 215.89 240.978C215.89 240.978 211.378 251.802 206.874 260.826C204.17 266.234 197.858 267.13 194.25 264.426C194.839 272.272 195.741 280.091 196.954 287.866C197.858 294.178 192.45 298.682 186.138 294.178C180.085 290.335 174.077 286.423 168.114 282.442C168.114 286.042 166.306 290.554 160.002 291.458H142.874C142.874 291.458 149.186 299.57 152.794 304.978C156.394 310.386 152.794 315.794 150.082 317.594C150.082 317.594 159.098 322.106 167.21 324.81C172.618 327.514 174.426 331.114 168.114 334.73C166.306 336.53 161.802 339.234 161.802 339.234C165.402 340.13 168.114 343.738 165.402 350.05C163.602 353.65 160.002 361.762 160.002 361.762C160.002 361.762 166.306 359.962 172.618 359.058C178.93 357.258 181.634 360.866 182.538 363.57C182.538 363.57 193.354 357.258 204.17 351.85C209.578 348.25 213.186 350.05 213.186 355.45V370.778C213.186 379.794 211.378 388.81 208.674 394.218C168.114 389.706 133.858 357.258 133.858 313.994C133.858 269.826 170.818 233.762 216.786 233.762C262.762 233.762 299.722 269.826 299.722 313.994C299.722 355.458 267.266 389.706 225.802 394.218V405.034C274.482 400.538 312.338 361.77 312.338 314.002C312.338 262.618 269.074 222.058 215.89 222.058C163.602 222.058 120.338 262.618 120.338 313.098C120.338 357.266 153.69 394.218 197.858 402.338C205.074 404.138 209.578 405.042 214.082 409.546C218.594 400.538 219.49 382.506 219.49 372.586V355.466Z" fill="#E32E2E"/>
</svg>
