<svg width="514" height="459" viewBox="0 0 514 459" fill="none" xmlns="http://www.w3.org/2000/svg">
<path d="M70.3622 0.867752L37.2161 1.55301C18.0839 1.94855 4.20762 19.914 8.65915 38.5253L105.51 443.448C107.663 452.448 115.708 458.796 124.962 458.796H469.487C486.667 458.796 495.852 438.563 484.542 425.63L139.972 31.6029C122.454 11.5704 96.9682 0.317701 70.3622 0.867752Z" fill="#007E7E"/>
<mask id="mask0_6_91" style="mask-type:alpha" maskUnits="userSpaceOnUse" x="7" y="0" width="483" height="459">
<path d="M70.3622 0.867752L37.2161 1.55301C18.0839 1.94855 4.20762 19.914 8.65915 38.5253L105.51 443.448C107.663 452.448 115.708 458.796 124.962 458.796H469.487C486.667 458.796 495.852 438.563 484.542 425.63L139.972 31.6029C122.454 11.5704 96.9682 0.317701 70.3622 0.867752Z" fill="#00B3F0"/>
</mask>
<g mask="url(#mask0_6_91)">
<path d="M119.619 344.778C123.837 358.358 137.909 371.102 154.793 373.747C152.068 377.966 150.82 383.187 151.479 388.979C153.308 404.703 168.372 417.368 184.509 417.535C195.434 417.614 210.244 412.894 220.676 396.423C230.028 381.781 231.355 358.516 230.696 351.484C242.113 363.156 249.232 374.495 252.625 382.352C260.237 400.15 263.137 421.833 262.97 432.011C262.97 432.011 264.376 433.338 265.695 433.593C269.913 432.846 273.561 431.273 276.294 428.873C279.608 425.885 280.346 423.072 280.346 423.072C275.301 397.83 267.268 382.115 255.271 364.15C239.134 339.892 214.225 324.915 184.676 315.897C163.318 309.358 141.135 307.952 125.912 320.863C117.711 327.648 117.219 337.413 119.619 344.778ZM245.418 331.375C250.472 339.812 264.288 353.392 275.213 360.423C297.977 374.987 314.369 375.98 322.561 370.768C323.502 370.193 324.364 369.499 325.127 368.702C331.499 361.996 330.418 350.078 322.974 340.313C319.335 335.515 314.615 332.122 310.054 330.549C313.622 328.888 316.021 325.416 316.514 320.529C317.507 310.773 310.141 297.941 299.964 292.72C291.025 288.167 271.742 283.615 257.591 304.726C252.045 312.918 247.079 324.59 245.418 331.375ZM151.901 242.639C153.132 230.475 166.14 226.002 180.448 232.128C187.144 235.055 192.982 239.641 197.412 245.452C196.752 239.915 198.326 235.028 202.298 232.128C210.165 226.415 224.482 230.633 234.247 241.233C237.64 244.96 248.732 258.372 249.312 278.06C249.558 287.578 245.339 308.69 231.434 323.254C194.353 309.27 174.41 287.833 166.799 278.974C158.019 268.708 154.301 259.69 152.727 253.072C151.567 247.851 151.734 244.134 151.901 242.639Z" fill="#82C341"/>
<path d="M152.473 251.997C154.301 259.362 169.858 278.4 191.373 294.625C213.724 311.421 226.469 319.867 231.355 323.181C194.353 309.276 174.402 287.839 166.799 278.98C158.019 268.714 154.301 259.696 152.727 253.078C152.64 252.744 152.552 252.41 152.473 251.997ZM245.418 331.284C255.192 340.557 269.588 354.382 294.339 365.298C306.582 370.519 318.588 372.505 322.552 370.598C314.369 375.898 297.977 374.905 275.213 360.341C264.288 353.31 250.472 339.731 245.418 331.284ZM228.288 336.505C228.377 336.5 228.465 336.528 228.534 336.584C255.104 355.621 264.13 389.882 265.624 433.502C264.288 433.256 262.882 431.929 262.882 431.929C263.058 421.751 260.157 400.147 252.537 382.27C249.145 374.404 242.025 363.066 230.608 351.403C229.782 343.615 228.868 339.071 228.288 336.505ZM118.459 339.071C119.619 346.929 124.919 356.448 133.356 361.66C140.809 366.3 149.414 369.359 159.179 368.533C157.605 370.027 156.366 371.257 154.793 373.666C137.918 371.099 123.837 358.355 119.619 344.776C119.039 342.956 118.626 341.058 118.459 339.063V339.071Z" fill="#3CB14A"/>
</g>
</svg>
