<svg width="514" height="533" viewBox="0 0 514 533" fill="none" xmlns="http://www.w3.org/2000/svg">
<path d="M70.3622 0.867752L37.2161 1.55301C18.0839 1.94855 4.20762 19.914 8.65915 38.5253L105.51 443.448C107.663 452.448 115.708 458.796 124.962 458.796H469.487C486.667 458.796 495.852 438.563 484.542 425.63L139.972 31.6029C122.454 11.5704 96.9682 0.317701 70.3622 0.867752Z" fill="#1D3599"/>
<mask id="mask0_7_1911" style="mask-type:alpha" maskUnits="userSpaceOnUse" x="7" y="0" width="483" height="459">
<path d="M70.3622 0.867752L37.2161 1.55301C18.0839 1.94855 4.20762 19.914 8.65915 38.5253L105.51 443.448C107.663 452.448 115.708 458.796 124.962 458.796H469.487C486.667 458.796 495.852 438.563 484.542 425.63L139.972 31.6029C122.454 11.5704 96.9682 0.317701 70.3622 0.867752Z" fill="#1C1C1C"/>
</mask>
<g mask="url(#mask0_7_1911)">
</g>
<g clip-path="url(#clip0_7_1911)">
<path d="M300.199 344.762H271.989C270.545 344.762 269.819 345.462 269.819 345.462L192.075 439.157C191.712 439.857 191.712 440.207 192.438 440.207H204.01C205.091 440.207 205.454 439.857 205.454 439.503L222.092 418.875C222.092 418.875 222.451 418.525 222.81 418.525H250.652C250.652 418.525 251.015 418.525 251.015 418.875C251.015 419.225 247.038 439.157 247.038 439.157C247.038 439.507 247.038 440.207 248.123 440.207H281.754C282.117 440.207 282.48 440.207 282.48 439.503L301.28 345.808C300.921 345.808 301.28 344.758 300.195 344.758L300.199 344.762ZM252.459 409.088H230.405V408.738L259.332 372.732L259.695 372.382C260.054 372.382 259.695 372.732 259.695 372.732L252.459 409.088C252.822 408.738 252.822 408.738 252.459 409.088ZM116.86 428.321C116.86 428.321 119.398 419.929 119.756 420.279C119.756 418.879 120.478 418.529 121.2 419.229C124.46 422.379 134.579 431.816 148.684 431.816C164.233 431.816 163.148 419.579 163.148 417.834C163.148 412.938 156.638 388.814 154.835 382.523C149.769 362.245 162.426 343.717 192.438 343.717C208.35 343.717 216.304 347.912 219.196 349.308C221.007 350.358 220.64 351.758 220.64 351.758C220.64 351.758 218.833 359.099 218.833 359.795C218.47 360.495 217.752 360.495 217.03 359.795C212.323 357.004 206.898 353.854 198.585 353.854C188.825 353.854 183.754 360.845 186.291 370.982C187.376 374.482 193.523 398.606 194.604 403.497C198.948 420.979 186.65 441.953 153.391 441.953C134.942 441.953 123.375 435.316 119.398 432.166C117.223 430.416 116.501 429.371 116.86 428.321ZM293.685 428.671C293.685 428.671 295.496 419.584 295.496 420.279C295.859 419.229 296.94 418.879 297.661 419.579C301.28 422.729 310.681 431.816 324.786 431.816C340.331 431.816 339.25 419.579 339.25 417.834C339.25 412.938 332.74 388.814 330.929 382.523C325.867 362.245 338.528 343.717 368.536 343.717C384.448 343.717 392.402 347.912 395.294 349.308C397.105 350.358 396.742 351.758 396.742 351.758C396.742 351.758 394.931 359.099 394.931 359.795C394.572 360.495 393.85 360.495 393.128 359.795C388.425 356.999 383 353.854 374.683 353.854C364.923 353.854 359.861 360.845 362.39 370.982C363.475 374.482 369.621 398.606 370.711 403.497C375.042 420.979 362.753 441.953 329.481 441.953C311.04 441.953 300.199 435.662 296.222 432.521C294.048 430.771 293.321 429.721 293.685 428.671Z" fill="white"/>
</g>
<defs>
<clipPath id="clip0_7_1911">
<rect width="280" height="280" fill="white" transform="translate(116.772 252.833)"/>
</clipPath>
</defs>
</svg>
