<svg width="514" height="462" viewBox="0 0 514 462" fill="none" xmlns="http://www.w3.org/2000/svg">
<path d="M70.3418 1.01953C97.2433 0.463456 123.012 11.8408 140.725 32.0957L485.295 426.123C497.17 439.702 487.527 460.947 469.487 460.947H124.962C115.246 460.947 106.798 454.282 104.538 444.832L7.68652 39.9092C3.08669 20.6775 17.4255 2.11387 37.1953 1.70508L70.3418 1.01953Z" fill="white" stroke="#1E1E1E" stroke-width="2"/>
<path d="M196.567 179.193C164.004 179.193 135.152 194.965 117.166 219.26C114.182 230.144 113.631 241.552 115.553 252.673C117.475 263.793 121.822 274.355 128.286 283.606C128.366 283.725 128.206 283.877 128.119 283.757C112.45 266.456 108.627 245.132 111.017 228.986C111.032 228.866 110.921 228.827 110.865 228.938C106.532 236.442 103.059 244.949 100.852 253.767C101.944 269.738 108.977 285.255 120.774 297.848C120.894 297.968 120.743 298.135 120.615 298.032C107.177 287.398 100.94 274.374 98.9247 264.775C98.9008 264.656 98.7495 264.656 98.7495 264.775C97.7825 272.016 97.6168 279.34 98.2556 286.617C101.657 297.251 108.898 306.157 116.306 312.585C116.441 312.696 116.306 312.872 116.17 312.784C107.878 307.638 103.234 302.588 100.096 298.135C100.024 298.032 99.9204 298.087 99.9364 298.183C109.033 342.504 148.781 376.636 196.559 376.636C244.321 376.636 284.069 342.504 293.182 298.183C293.214 298.087 293.102 298.032 293.046 298.135C289.884 302.596 285.24 307.638 276.956 312.784C276.82 312.864 276.701 312.704 276.836 312.585C284.26 306.157 291.493 297.235 294.894 286.617L294.878 286.593C295.524 280.34 295.356 271.379 294.401 264.759C294.385 264.64 294.249 264.64 294.241 264.759C292.21 274.374 285.989 287.398 272.535 298.016C272.415 298.119 272.28 297.952 272.376 297.833C284.157 285.239 291.19 269.714 292.282 253.743C290.102 245.045 286.733 236.69 282.269 228.914C282.221 228.819 282.102 228.85 282.118 228.97C284.507 245.108 280.684 266.44 265.023 283.741C264.92 283.861 264.753 283.725 264.832 283.582C271.293 274.332 275.639 263.774 277.564 252.657C279.488 241.54 278.943 230.135 275.968 219.252C266.798 206.82 254.835 196.717 241.042 189.758C227.25 182.8 212.015 179.181 196.567 179.193ZM196.583 181.622C231.711 181.622 260.148 210.307 260.148 245.188C260.148 253.6 258.477 261.929 255.232 269.69C251.988 277.452 247.234 284.491 241.246 290.401L241.214 290.417C221.037 310.068 190.856 297.522 193.93 273.41C196.296 254.802 219.102 236.29 236.371 226.23C236.451 226.182 236.451 226.078 236.371 226.031C232.875 222.638 229.546 219.075 226.398 215.357C218.034 205.28 203.402 204.874 194.663 215.898L145.022 220.518C144.838 220.542 144.823 220.829 145.022 220.829L198.248 223.904C207.687 224.453 210.754 233.001 201.673 239.899C167.867 265.492 161.829 292.591 169.396 314.074C169.444 314.21 169.221 314.329 169.141 314.194C165.93 309.54 163.658 304.304 162.45 298.78C153.433 293.044 146.01 285.123 140.869 275.753C135.728 266.384 133.035 255.867 133.041 245.18C133.041 210.307 161.455 181.622 196.583 181.622ZM172.909 321.777H186.371L179.162 340.552C175.474 350.151 166.385 350.955 159.925 350.955V350.971C156.78 351.001 153.64 350.68 150.566 350.015L152.86 344.025C159.025 344.742 164.298 344.208 166.369 338.824L172.909 321.777ZM204.708 321.809H216.736L219.444 350.039H205.998L205.775 344.479H193.628L189.143 350.039H178.031L200.574 323.904C201.649 322.661 203.242 321.809 204.708 321.809ZM233.926 321.809H247.388L238.817 344.057H255.927L253.633 350.031H223.077L233.926 321.809ZM205.25 330.037L198.001 339.062H205.592L205.25 330.037Z" fill="#FF012B"/>
</svg>
