<svg width="514" height="462" viewBox="0 0 514 462" fill="none" xmlns="http://www.w3.org/2000/svg">
<path d="M70.3418 1.01953C97.2433 0.463456 123.012 11.8408 140.725 32.0957L485.295 426.123C497.17 439.702 487.527 460.947 469.487 460.947H124.962C115.246 460.947 106.798 454.282 104.538 444.832L7.68652 39.9092C3.08669 20.6775 17.4255 2.11387 37.1953 1.70508L70.3418 1.01953Z" fill="#DF1D25" stroke="#1E1E1E" stroke-width="2"/>
<mask id="mask0_25_22" style="mask-type:alpha" maskUnits="userSpaceOnUse" x="7" y="2" width="483" height="458">
<path d="M70.3622 2.01912L37.2161 2.70438C18.0839 3.09992 4.20762 21.0653 8.65915 39.6767L105.51 444.599C107.663 453.599 115.708 459.947 124.962 459.947H469.487C486.667 459.947 495.852 439.714 484.542 426.781L139.972 32.7543C122.454 12.7218 96.9682 1.46907 70.3622 2.01912Z" fill="white"/>
</mask>
<g mask="url(#mask0_25_22)">
<path d="M234.799 130.554C235.08 130.522 235.355 130.452 235.617 130.345C235.333 130.412 235.056 130.466 234.799 130.548V130.554ZM237.064 129.364L237.051 129.418C237.064 129.418 237.064 129.418 237.064 129.405V129.364ZM64.0894 456.863C63.7987 457.045 63.4876 457.187 63.224 457.404C63.5147 457.201 63.8122 457.025 64.0894 456.863ZM57.5988 290.156L59.2418 291.028L57.5988 292.191C60.4384 292.515 61.0604 290.926 62.4667 289.993C60.3708 290.284 59.9719 287.269 57.5988 290.156ZM192.279 145.686C192.252 145.733 192.232 145.767 192.232 145.807L192.38 145.719L192.279 145.686ZM192.232 145.807C191.673 146.126 191.097 146.415 190.507 146.673C191.184 146.47 191.975 146.395 192.232 145.807ZM237.044 129.418C236.57 129.729 236.219 130.108 235.624 130.345C236.253 130.189 236.861 130.007 237.044 129.418ZM238.937 126.7L235.705 126.362L235.962 128.33L238.937 126.7ZM240.742 135.057L240.58 134.706L238.044 135.99L238.552 136.423L240.742 135.057ZM237.348 137.849L237.098 137.322L234.677 138.154L234.914 138.688L237.348 137.849ZM215.963 149.614L214.313 150.79L215.665 150.324L215.963 149.614ZM238.592 134.144L236.32 135.943L238.193 135.314C238.653 134.956 239.113 134.591 238.592 134.144ZM241.797 128.168C240.005 128.371 240.113 129.966 238.403 128.911C237.918 128.954 237.461 129.124 237.064 129.405C237.186 130.169 241.256 130.372 241.797 128.168ZM273.479 99.4129C273.369 99.4673 273.272 99.5451 273.195 99.6408C273.118 99.7366 273.062 99.848 273.033 99.9673C273.263 99.8186 273.432 99.6293 273.479 99.4129ZM240.127 125.882C241.236 125.382 240.167 125.24 239.809 124.99C239.309 125.429 240.323 124.706 240.127 125.882ZM260.004 112.157L259.849 111.819L257.307 113.09L257.827 113.523L260.004 112.157ZM272.147 101.286C273.175 101.083 272.911 100.474 273.033 99.9673C272.249 100.427 270.822 100.474 272.147 101.286ZM401.249 331.364L399.83 329.958L398.856 331.932C399.633 331.601 400.654 330.715 401.249 331.357V331.364ZM79.126 265.681C79.1698 265.649 79.215 265.62 79.2612 265.593L79.7751 265.052L79.126 265.681ZM256.61 114.943L256.367 114.422L253.94 115.247L254.183 115.788L256.61 114.943ZM264.433 111.664L264.007 111.4L262.276 112.401L262.729 112.665L264.433 111.664ZM252.628 122.637C250.235 122.826 248.369 124.902 249.024 126.308C253.047 124.936 248.172 123.753 252.628 122.637ZM239.809 124.99L240.647 124.28C239.593 124.632 239.566 124.828 239.809 124.99ZM241.952 134.023L243.426 132.495L243.007 132.245L241.263 133.86L241.952 134.023ZM248.105 127.032L244.325 128.938L246.989 128.019L248.105 127.032ZM243.467 135.551L245.171 134.564L244.745 134.293L243.007 135.294L243.467 135.551ZM77.0436 436.411L80.965 434.213C79.41 434.085 78.1659 435.599 77.0436 436.411ZM397.991 364.926C398.281 364.351 402.216 357.198 405.096 352.087C405.042 352.134 404.961 352.154 404.907 352.188C405.631 349.436 400.255 350.626 403.9 346.847C399.978 340.099 399.884 334.143 394.725 329.917L396.895 328.538C396.76 326.395 395.435 325.394 394.644 323.968L393.684 325.928C392.237 325.218 393.312 322.98 393.129 321.486C388.863 319.762 383.819 313.488 381.494 312.704C380.04 309.553 377.606 308.37 377.505 304.874L377.802 304.672C366.991 294.598 358.918 286.342 346.066 278.784C346.187 276.059 341.509 275.16 344.727 272.922L345.2 273.152L338.629 267.526C338.209 268.372 338.061 269.325 337.188 269.25C332.557 262.104 325.397 255.275 318.758 249.069L318.974 248.771C324.065 241.902 330.488 234.701 337.229 227.285C337.229 227.271 337.276 227.237 337.29 227.21L338.392 225.966C346.64 216.859 355.247 207.461 362.285 197.976C384.624 173.23 406.895 146.571 392.555 122.319C374.137 110.467 344.098 92.8142 312.883 105.525C312.686 105.052 312.26 104.693 312.22 104.294C308.217 111.326 310.273 100.265 303.715 101.712C300.983 99.7915 296.92 99.751 295.601 97.5537C290.409 103.186 291.2 93.9703 285.351 96.1676L284.439 98.9126C284.195 96.3501 282.41 98.5881 279.544 97.7565C279.605 98.5408 280.801 99.1492 279.693 100.136C276.941 100.873 279.841 99.0748 277.549 98.8382C276.4 99.0275 276.197 99.9065 275.534 100.549C275.778 101.069 275.751 101.691 276.643 101.583C275.014 104.166 273.08 104.017 270.437 105.734C270.978 105.559 271.965 105.018 272.485 105.444L272.181 106.167C273.547 105.085 276.156 108.074 276.359 105.762C276.839 105.592 277.306 105.356 277.705 105.309C279.111 100.515 282.911 105.444 284.162 105.511C283.046 105.586 282.816 106.404 282.052 106.681L280.68 105.714C278.462 107.675 282.072 106.066 280.862 107.486C277.664 107.959 278.929 110.785 274.953 109.5L276.528 107.54C275.697 108.439 274.351 108.892 273.134 108.283C273.222 108.175 273.283 108.047 273.371 107.905L271.965 109.095C269.828 109.21 270.7 107.688 269.652 107.432C267.604 107.729 266.4 109.162 265.481 109.886L268.753 110.204C269.99 113.652 264.325 112.11 263.635 115.41C261.215 116.234 260.829 113.3 258.273 115.207C257.435 115.342 257.868 115.795 257.773 116.16C258.727 115.437 259.714 115.159 260.951 116.322L260.004 117.675C253.426 118.932 259.308 123.083 253.453 123.956C253.777 123.672 253.656 123.246 253.764 122.867C253.034 123.306 251.763 123.381 252.682 124.043L252.669 124.05C252.689 124.077 252.729 124.077 252.763 124.111C252.797 124.125 252.817 124.158 252.878 124.192L252.926 124.185C254.048 124.686 255.231 124.091 256.333 123.617C256.495 124.091 256.583 124.584 257.361 124.49C257.204 124.754 257.023 125.003 256.82 125.233C253.453 126.477 248.03 127.877 246.881 130.71L249.951 130.439C248.173 130.852 247.057 132.109 246.212 132.779L249.471 133.096C249.775 133.908 249.673 134.422 249.349 134.827C249.074 134.908 248.783 134.919 248.502 134.86C248.221 134.801 247.959 134.674 247.74 134.489C246.834 135.199 244.251 135.679 244.528 137.633C244.562 137.617 244.599 137.607 244.636 137.606C244.516 137.825 244.425 138.059 244.366 138.302C241.952 139.127 241.56 136.207 239.005 138.093C238.159 138.242 238.585 138.688 238.497 139.06C239.437 138.363 240.391 138.086 241.594 139.154L236.591 141.365L236.347 140.831C236.936 140.398 237.497 139.885 238.024 139.438L236.314 139.026L235.847 139.749L235.786 139.601C234.366 139.871 233.454 140.608 232.96 141.575L230.526 140.993C229.958 139.749 232.811 139.188 231.432 138.221C228.16 138.539 232.108 139.026 230.661 139.925C227.497 141.203 227.545 138.546 226.875 137.748C225.151 137.829 227.862 145.929 229.404 151.541L229.005 151.676C228.87 150.702 225.651 151.175 227.227 149.823C226.348 149.931 225.509 150.824 224.576 150.121C224.766 149.871 224.874 149.411 225.753 149.316L225.361 148.431C221.054 149.904 223.914 145.253 222.886 146.429L221.331 147.768L219.965 146.815C219.925 147.437 218.674 148.065 219.181 148.505C220.06 148.417 220.168 147.964 220.371 147.694L222.798 148.302L221.48 150.175C221.149 150.087 220.513 150.087 220.635 149.647L217.937 150.56L220.371 151.169L219.695 152.406C218.525 153.86 216.558 153.582 215.05 153.184C215.179 152.967 214.624 152.237 214.117 151.676C205.057 148.505 208.221 149.107 202.407 152.514L205.321 157.517C203.928 158.241 202.211 158.518 200.318 158.565C186.476 145.747 173.118 132.416 160.272 118.601C152.314 115.761 149.59 107.837 141.517 105.281C141.226 89.8866 124.621 89.4066 113.959 83.5177C96.9684 72.7947 76.0835 79.2447 57.1052 84.8834C37.7686 89.9812 15.4707 100.569 7.99972 123.259C1.17107 170.526 41.6833 190.991 64.0759 219.604C73.0478 230.266 83.5004 239.279 94.717 247.392C93.4391 248.372 92.4859 249.454 91.972 249.86C93.473 253.206 81.9521 256.54 84.2306 258.825C82.804 259.109 82.8513 259.9 81.7898 260.272C83.1285 260.157 85.1975 259.197 87.3813 258.44C86.4415 259.413 85.7045 260.238 84.9675 261.009C82.4254 261.671 78.2741 264.863 79.5316 264.896C79.9282 264.688 80.3684 264.577 80.8162 264.572C80.3099 264.928 79.7913 265.273 79.2612 265.593L78.8556 266.012C78.335 265.938 77.74 266.188 76.8611 267.249L77.4222 267.547L77.2599 267.736L78.2741 268.27L76.8611 269.284C76.9055 269.294 76.9508 269.299 76.9962 269.298C74.8936 270.38 73.4129 272.185 72.6962 272.766C73.0816 273.591 72.6557 274.409 71.8444 275.227L71.5468 275.383L71.743 275.315C69.2008 277.749 63.2714 280.028 64.9549 281.711C63.5215 282.009 63.5891 282.793 62.5074 283.158C64.9008 282.955 69.5388 280.156 73.0478 280.366C72.9396 280.825 72.8315 281.285 72.223 281.285C71.7024 281.779 70.2555 282.076 70.2961 282.712L70.2285 282.759C70.1483 282.987 70.0367 283.204 69.8971 283.401L67.2266 283.996C65.6986 282.678 58.6739 287.735 60.2627 287.81C62.2572 286.721 63.846 288.824 64.5694 286.336L66.3273 286.653C64.9886 287.681 63.7514 288.648 63.4269 289.547C63.0873 289.646 62.7638 289.794 62.4667 289.987C62.7982 289.944 63.1191 289.841 63.4133 289.682C63.3722 289.795 63.3546 289.915 63.3616 290.035C63.3686 290.155 63.4 290.272 63.4539 290.379C62.2047 290.941 61.1908 291.921 60.5872 293.151C60.1118 293.311 59.6231 293.429 59.1269 293.502L59.4987 292.961C58.7752 293.421 57.1864 293.34 56.9633 294.226C58.1132 293.923 59.2696 293.646 60.4317 293.394C59.7623 294.577 59.1133 295.727 57.1661 296.383L57.9436 296.734C54.8606 302.278 47.0583 304.935 44.1646 310.216C40.0403 312.028 39.202 316.382 36.004 318.904L38.073 319.201C38.0215 319.241 37.9645 319.273 37.9039 319.296L38.6881 319.634C35.5983 325.164 27.8029 327.835 24.8956 333.109C20.7714 334.934 19.933 339.288 16.735 341.803L21.7246 342.554C20.7781 343.892 19.764 345.055 17.8709 345.698C20.2643 345.495 22.7929 344.217 25.2674 344.19L21.5218 348.929L29.8582 346.083L27.0524 349.491L32.0083 347.401C36.5449 346.455 33.3604 350.396 35.2671 351.167C39.9998 349.977 35.9567 355.42 41.1221 354.48L38.1472 357.523L39.486 357.076C41.8389 359.524 36.4435 364.027 36.2271 366.339L35.2671 366.258C33.1373 368.408 35.9567 368.469 36.6328 369.26C37.1872 370.497 34.9425 371.038 34.1312 371.964L37.052 371.559C35.355 373.966 34.165 374.79 31.9474 376.765L33.2996 376.305C33.6512 376.393 34.2665 376.386 34.1651 376.826C34.1245 377.454 33.0562 377.813 32.5085 378.002L32.921 378.881C32.3801 379.063 28.3235 379.036 28.4993 380.787C31.1834 381.923 29.3105 378.489 31.5755 379.347C31.6161 382.167 25.4027 384.912 23.8409 388.299C21.8464 391.436 23.8747 393.18 19.0541 396.257C18.2901 397.338 16.3226 399.84 18.831 399.184L13.6249 406.865C18.5875 406.189 14.4904 410.861 16.3159 411.462C22.3873 411.827 17.4179 418.007 23.2798 417.236C22.6915 418.656 20.7781 419.914 22.0627 420.705C24.6657 417.561 26.1735 421.55 29.6148 419.555C30.4667 420.083 29.6419 420.975 29.0739 421.786L33.0968 420.4C34.9831 419.751 35.355 421.273 36.4908 421.685L34.76 422.686L37.843 422.652C37.3562 423.626 36.288 423.997 35.7269 424.802C37.4847 424.599 38.1608 423.362 39.3575 422.55C42.1768 420.563 46.8623 420.59 49.4315 420.117L46.7676 422.456L54.1372 419.535C54.2656 420.522 53.238 421.665 51.4733 421.868L52.0344 423.112C54.6307 421.996 56.3142 420.204 59.2823 420.624C58.4237 422.145 57.0511 423.233 55.6786 424.302C57.1526 426.857 55.7125 431.232 53.4543 432.395L57.2405 432.536L56.3278 435.295C59.83 435.525 60.6143 433.828 63.3052 432.915C61.6419 436.755 66.9629 436.16 68.3084 435.687C72.2298 434.768 75.8807 431.867 80.4241 432.983C84.5281 431.766 84.0007 431.955 86.9553 428.913L88.3549 429.244C88.7943 427.472 92.9524 427.067 93.4256 426.702L92.3777 426.438C95.028 426.154 93.385 423.876 96.752 424.525L96.7723 424.538L96.414 425.079L99.8621 424.491C100.511 424.316 101.191 424.293 101.85 424.423C97.746 426.086 91.6001 426.019 89.5853 430.245L92.4047 430.312C91.0863 432.368 87.9154 432.51 85.2177 433.246C88.8687 432.32 92.1005 433.956 94.3113 431.083C92.4182 433.754 91.7083 435.633 87.3271 436.924L91.2485 435.978C88.943 437.567 88.4427 439.899 88.0776 441.833C86.4888 441.562 84.7783 441.326 83.7236 443.672L86.4076 442.752C85.6977 450.122 73.3318 446.796 70.3029 453.131L73.1357 453.192C71.824 455.274 68.6396 455.409 65.9487 456.153C69.5996 455.22 72.8382 456.849 75.0356 453.976C73.1425 456.653 72.4394 458.533 68.0582 459.817L71.9931 458.878C69.6065 460.5 69.1399 462.914 68.7816 464.881C75.5967 462.758 80.7081 458.965 83.8182 454.848C88.2602 452.306 93.1957 450.217 95.3458 446.005C94.0071 440.339 106.907 442.07 108.848 436.106C105.575 434.362 111.099 431.462 107.779 430.968C108.773 430.42 109.355 431.036 110.315 431.103C109.659 430.319 115.791 429.46 113.29 428.061C124.513 421.989 130.368 413.687 141.01 406.973C149.826 397.656 162.801 387.914 174.504 378.82C182.84 374.75 202.089 357.982 224.32 337.456C227.903 340.323 231.094 343.757 235.523 345.556C234.103 357.685 248.132 354.832 250.931 361.39L251.878 359.429C252.587 363.581 255.934 363.493 258.456 365.061L257.78 366.468C267.164 369.997 268.429 383.438 280.227 385.737C288.827 406.926 313.383 409.562 328.467 424.207C335.681 421.131 340.643 427.006 346.647 428.216C347.175 422.233 354.443 428.899 354.531 426.864L354.314 426.066L359.926 428.115C358.574 425.363 353.834 425.836 353.253 422.077C350.569 418.291 343.706 418.785 342.124 415.019C342.469 415.134 343.05 415.255 343.131 414.748L342.361 415.079C342.253 415.032 342.158 414.998 342.09 414.958C341.828 414.245 341.729 413.483 341.799 412.727C342.165 413.396 343.016 413.91 343.131 414.755L344.26 414.282C344.984 418.825 347.573 417.148 349.379 418C347.465 415.783 345.085 414.025 342.956 411.658L342.766 409.698L346.363 409.718L344.801 405.486C348.527 405.912 353.584 409.076 355.369 413.416C363.874 412.023 372.224 419.555 379.371 423.389C379.77 422.557 380.182 421.699 381.061 421.793L382.278 424.815C384.171 424.004 385.875 427.276 387.606 427.418L387.835 425.099L389.053 425.688C390.52 423.301 389.052 422.584 388.931 420.434L394.204 421.279C394.002 420.495 393.163 419.738 393.954 418.73C394.603 418 395.442 418.771 395.935 419.008C395.881 417.263 395.286 411.077 394.069 408.048C395.516 408.751 396.199 401.814 399.086 403.897L398.761 402.72L401.669 401.693C401.648 402.382 401.973 402.896 401.466 403.336L401.953 403.579L402.629 402.179L402.135 401.936C407.814 400.198 402.284 396.108 402.784 393.234L406.111 393.816C403.67 390.199 400.898 388.509 400.242 383.688L401.134 383.073C398.403 383.134 398.214 379.226 396.05 377.475L399.12 375.514L398.586 373.513L397.707 374.121C399.985 370.051 395.273 369.821 396.361 365.163C396.74 365 397.274 364.554 397.984 364.912L397.991 364.926ZM88.3345 441.887C89.4732 441.532 90.5906 441.112 91.6812 440.63C91.0254 442.286 89.7476 442.124 88.3413 441.887H88.3345ZM229.742 156.726L230.357 156.003C230.377 156.679 230.208 156.977 229.742 156.726ZM248.869 135.24C248.335 135.551 247.605 135.754 246.881 136.024C246.922 135.334 246.766 134.807 248.869 135.24ZM248.511 139.107C248.063 139.177 247.61 139.202 247.158 139.181L248.713 138.647C248.66 138.806 248.592 138.96 248.511 139.107ZM249.511 138.363C249.214 138.124 248.845 137.993 248.463 137.991C248.447 137.775 248.394 137.562 248.308 137.363C248.227 136.822 249.876 137.092 251.445 136.889L249.511 138.363ZM255.238 131.447C254.768 131.482 254.297 131.393 253.872 131.19C253.965 131.073 254.04 130.943 254.095 130.805L252.702 131.994C250.674 132.103 251.35 130.723 250.519 130.372L251.763 130.277C251.323 130.02 250.708 130.027 250.546 129.669C251.127 129.195 251.736 128.709 252.344 128.235C252.682 128.168 252.993 128.168 253.209 128.357L252.932 129.067C253.744 128.431 254.974 129.216 255.894 129.473C255.035 130.027 254.629 130.419 256.225 130.575C255.936 130.91 255.604 131.199 255.238 131.447ZM253.291 127.505C254.379 126.701 255.515 125.937 256.732 125.369C255.725 126.511 254.609 126.924 253.291 127.505ZM260.674 126.139C260.24 126.342 259.78 126.485 259.308 126.565C259.483 126.387 259.699 126.254 259.937 126.18C260.175 126.106 260.429 126.092 260.674 126.139ZM259.058 128.465L258.476 129.297L257.415 129.763L259.058 128.465ZM257.097 128.661C257.189 128.634 257.279 128.602 257.368 128.567C257.271 128.641 257.169 128.708 257.063 128.769C257.063 128.729 257.063 128.702 257.097 128.661ZM258.213 132.576C257.941 132.696 257.644 132.751 257.347 132.738C257.949 131.778 258.294 130.548 259.565 131.068C259.239 131.67 258.775 132.186 258.213 132.576ZM259.578 128.824L259.829 128.54L259.166 128.377L260.626 127.235L261.83 127.843L259.578 128.824ZM265.542 116.18C265.17 114.679 268.523 116.572 267.57 114.47C267.475 113.665 271.12 114.632 272.681 113.287C272.957 112.924 273.174 112.52 273.324 112.09C273.264 112.554 273.035 112.98 272.681 113.287C271.282 115.159 268.375 116.735 265.542 116.18ZM270.896 120.426C270.815 120.343 270.738 120.255 270.667 120.163L271.099 120.203L270.896 120.426ZM273.209 115.538C273.06 116.065 272.776 116.572 271.627 116.552L273.209 115.538C273.405 114.747 273.283 113.882 274.967 114.389L273.209 115.538ZM279.591 114.118L278.847 114.693C279.067 114.466 279.318 114.27 279.591 114.111L281.146 112.888L280.105 112.644L281.924 111.191C283.479 112.36 281.045 113.199 279.591 114.111V114.118ZM314.519 392.511C314.31 392.662 314.14 392.86 314.023 393.089C313.905 393.319 313.844 393.572 313.843 393.83C308.211 389.367 301.389 384.296 297.055 380.794C298.853 379.597 295.398 379.287 295.25 377.143C297.954 380.193 301.24 384.567 306 383.431C303.498 386.71 308.718 386.487 308.934 387.285L309.617 385.865C312.626 386.615 313.079 391.402 314.519 392.511C315.283 391.943 316.493 391.903 317.176 391.321C315.932 392.775 315.134 392.964 314.519 392.511ZM337.472 408.846C335.593 406.54 332.314 405.276 331.807 402.612C329.562 405.337 328.913 400.516 326.432 400.672L325.972 399.766C326.783 401.199 331.442 399.664 329.826 402.335C331.36 404.133 338.345 397.825 335.654 405.188L336.188 407.176C336.85 406.452 337.425 407.081 338.155 407.446L337.472 408.846ZM342.07 411.178C342.07 411.138 342.07 411.111 342.09 411.09L342.131 411.097C342.105 411.118 342.079 411.146 342.07 411.178ZM67.3753 453.536L65.1914 454.889L67.0845 454.24L67.3753 453.536ZM254.095 130.805L254.717 130.291C254.454 130.38 254.233 130.563 254.095 130.805ZM238.504 139.053C238.349 139.175 238.173 139.303 238.031 139.438H238.044C238.369 139.344 238.477 139.202 238.504 139.053ZM72.2703 443.091L75.759 443.956C74.3392 444.24 74.0416 444.943 73.0883 446.282C74.7921 445.91 76.4351 444.747 77.8347 445.078C76.7259 446.065 79.7007 446.471 77.2803 447.303C79.241 448.878 78.9029 444.72 81.587 443.787L78.3688 444.896L79.3965 443.719C77.8752 443.834 76.1512 441.366 72.2703 443.091ZM406.76 346.522C406.124 347.503 406.388 348.74 406.388 349.849C407.152 348.51 407.733 347.503 407.977 347.124L406.76 346.522ZM406.388 349.849C405.989 350.525 405.556 351.275 405.103 352.087C406.165 351.559 406.368 350.741 406.388 349.849ZM81.2624 443.077C81.9926 442.638 84.1292 442.523 83.7236 441.65L81.0191 442.556L81.2624 443.077ZM86.6578 430.637L84.4673 431.989L86.3604 431.36L86.6578 430.637ZM213.617 151.121C213.454 150.966 213.427 150.939 213.617 151.121ZM85.4205 439.23L89.7476 437.127L82.1955 438.29L85.4205 439.23ZM77.0436 436.411L76.2728 436.843C76.5533 436.746 76.8142 436.599 77.0436 436.411ZM52.2779 298.289L54.1777 297.654L57.5245 295.477L52.2779 298.289ZM257.341 116.552C257.624 116.444 257.746 116.309 257.773 116.16C257.611 116.275 257.449 116.403 257.293 116.532L257.341 116.552ZM254.21 122.319C254.102 122.372 254.007 122.448 253.931 122.542C253.855 122.635 253.8 122.744 253.771 122.86C254.014 122.725 254.183 122.542 254.21 122.319ZM213.617 151.121L214.117 151.676L214.212 151.723C214.007 151.526 213.809 151.33 213.617 151.121ZM380.162 306.849C379.665 306.394 379.172 305.937 378.681 305.476C378.877 306.233 379.181 306.828 380.169 306.842L380.162 306.849ZM253.974 118.695C255.305 118.432 256.306 117.364 257.286 116.525L255.583 116.106L253.974 118.695ZM246.773 130.946L246.881 130.71L246.09 130.771L246.773 130.946ZM378.411 304.273L377.802 304.672C378.1 304.928 378.39 305.219 378.681 305.476C378.586 305.084 378.512 304.672 378.411 304.266V304.273ZM312.227 104.288C312.355 104.071 312.484 103.828 312.632 103.544C312.294 103.828 312.206 104.044 312.227 104.288ZM278.07 106.803L279.097 105.64L278.394 105.464L277.468 106.809L278.07 106.803ZM273.378 107.891L274 107.384C273.741 107.478 273.522 107.657 273.378 107.891ZM277.705 105.309L278.394 105.464C278.301 105.386 278.191 105.33 278.072 105.302C277.954 105.274 277.83 105.274 277.711 105.302L277.705 105.309ZM349.385 418C349.906 418.609 350.406 419.231 350.826 419.9C350.487 418.818 349.987 418.277 349.385 418Z" fill="white"/>
<mask id="mask1_25_22" style="mask-type:alpha" maskUnits="userSpaceOnUse" x="73" y="138" width="165" height="161">
<path d="M213.597 222.036L204.842 256.603L79.4766 298.084L73.9453 179.171L170.273 138.612L232.495 186.085L237.104 208.209L213.597 222.036Z" fill="#D9D9D9" stroke="black"/>
</mask>
<g mask="url(#mask1_25_22)">
<path d="M191.631 184.297C195.57 183.584 198.497 185.978 198.203 189.619C197.909 193.255 194.466 196.808 190.535 197.511C186.621 198.209 183.669 195.815 183.981 192.172C184.28 188.53 187.7 185.017 191.631 184.297ZM149.279 210.405C152.688 197.714 156.814 184.754 160.897 175.078C152.67 185.862 143.855 199.583 135.911 213.282C140.535 212.2 145.032 211.24 149.279 210.405ZM219.345 200.515C222.415 199.956 229.311 204.13 226.013 207.998C222.585 211.978 218.717 211.184 212.645 213.718C209.203 215.145 206.563 218.226 202.794 223.65C198.001 230.681 195.806 237.569 195.412 242.745C195.379 244.281 195.257 245.048 194.445 245.578C186.421 250.819 183.952 246.88 184.155 242.066C184.207 240.93 184.605 239.133 185.313 236.92C179.139 246.178 173.674 250.86 170.099 251.502C165.308 252.368 162.604 249.042 163.119 242.889C163.355 240.09 164.197 236.8 165.764 232.654C167.407 228.443 169.997 222.687 172.395 217.972C173.006 216.743 173.597 215.563 174.094 214.507C169.12 215.478 164.162 216.53 159.223 217.662C159.141 217.861 159.072 217.97 158.998 217.982C156.417 230.04 156.214 234.585 154.823 245.098C154.234 249.696 155.121 254.642 149.644 255.398C144.169 256.192 142.352 250.553 142.32 245.739C142.249 240.837 143.154 234.947 146.619 220.687C140.696 222.193 134.81 223.841 128.966 225.629C128.882 225.762 128.823 225.832 128.823 225.832C118.941 243.922 109.188 266.304 107.574 273.543C106.288 279.346 103.666 281.123 99.8076 279.442C95.9567 277.754 93.7141 273.874 95.1146 269.549C97.6527 261.784 105.382 244.357 112.267 231.849C112.216 231.872 112.267 231.699 112.43 231.382C107.383 233.342 102.692 235.444 98.5908 237.705C95.887 239.16 92.4925 237.815 91.8414 234.795C91.3754 232.654 90.352 228.424 95.5903 226.125C103.504 222.666 112.064 219.736 120.616 217.262C138.776 186.707 161.349 155.271 167.84 155.846C170.649 156.088 170.205 159.125 172.683 161.877C175.129 164.617 175.485 166.295 172.558 173.558C166.556 188.467 167.034 184.995 161.274 208.253C171.836 206.502 181.03 205.491 181.891 205.358C184.806 204.944 189.824 206.929 187.171 212.623C187.171 212.623 184.392 217.518 183.295 219.614C181.313 223.081 178.742 228.293 177.19 231.815C176.204 233.892 175.756 235.48 175.675 236.643C175.595 237.398 175.878 237.826 176.488 237.717C177.297 237.57 178.482 236.697 179.912 235.217C181.301 233.592 185.994 229.742 194.382 215.61L196.596 211.031C197.309 209.667 198.332 207.262 198.526 206.158C198.758 204.517 198.82 204.091 200.192 203.227C202.406 201.815 206.407 200.646 208.717 202.153C210.891 203.591 210.328 206.195 208.522 209.354C215.833 201.123 217.713 200.784 219.345 200.515ZM362.384 224.311C366.495 219.257 372.854 207.661 373.252 204.494C373.434 203.041 373.016 202.467 371.874 202.615C370.461 202.802 367.291 205.392 364.274 209.085C359.855 214.388 353.904 225.085 353.438 228.609C353.242 230.051 353.831 230.997 354.847 230.876C356.482 230.651 359.307 228.198 362.384 224.311ZM387.013 215.944C388.8 213.108 392.581 214.035 391.569 216.643C390.696 218.9 389.046 222.564 384.838 227.534C379.667 233.892 374.904 236.977 370.599 237.548C367.128 238.037 364.668 236.55 364.067 233.44L363.866 232.807C363.855 232.26 363.58 231.987 363.278 232.037C362.961 232.071 362.729 232.308 362.149 232.855C357.783 237.482 354.443 240.328 350.408 240.88C344.379 241.668 340.87 236.962 341.724 230.134C340.111 232.521 338.445 234.816 336.911 236.508C332.2 241.742 328.338 245.066 324.755 245.535C319.921 246.181 317.39 242.735 318.204 236.629C318.568 233.848 319.605 230.608 321.374 226.498C323.212 222.398 326.062 216.762 328.696 212.165C330.8 208.398 332.83 204.139 333.145 202.687C333.388 201.543 333.513 201.322 334.407 200.741C335.53 199.943 337.746 198.998 339.097 198.891C342.51 198.634 347.038 201.101 344.043 206.217L342.913 208.163C342.751 208.563 340.702 212.266 339.524 214.286C337.35 217.691 334.566 222.764 332.819 226.198C331.734 228.243 331.208 229.807 331.065 230.945C330.946 231.707 331.208 232.161 331.804 232.072C332.639 231.969 333.867 231.148 335.36 229.707C336.892 228.105 337.828 227.042 341.241 222.525L342.48 220.963C343.465 219.677 351.244 209.505 353.582 206.986C359.857 199.499 366.944 194.192 371.495 193.603C374.485 193.191 376.897 194.556 378.06 197.317C378.88 199.572 379.042 199.727 381.042 200.591C384.241 201.859 385.29 202.933 385.043 204.563C384.925 205.726 384.488 206.627 382.455 209.823C381.014 212.287 379.636 214.787 378.322 217.321C375.945 222.026 374.644 225.228 376.949 226.045C377.822 226.346 379.436 225.516 381.452 223.382C383.681 221.019 385.26 218.679 387.013 215.944ZM345.795 192.336C349.72 191.637 353.15 188.1 353.46 184.448C353.742 180.804 350.804 178.431 346.898 179.134C342.964 179.84 339.521 183.374 339.234 187.031C338.921 190.667 341.878 193.042 345.795 192.336ZM286.107 175.07C277.939 185.798 269.165 199.46 261.213 213.104C265.627 212.097 270.059 211.173 274.508 210.332C277.941 197.684 282.033 184.734 286.107 175.07ZM288.159 208.044C290.505 207.698 298.134 206.793 297.841 209.993C297.391 215.15 295.449 215.073 288.626 216.536C287.26 216.842 285.893 217.138 284.523 217.426C284.419 217.772 284.308 217.974 284.229 217.986C281.658 230.043 281.455 234.603 280.044 245.101C279.437 249.699 280.337 254.646 274.863 255.401C269.391 256.195 267.5 250.553 267.532 245.743C267.552 237.229 271.847 220.536 271.869 220.438C266.3 221.856 260.329 223.471 254.388 225.324C247.31 237.345 234.409 266.308 232.813 273.546C231.514 279.349 228.895 281.127 225.027 279.427C221.177 277.758 219.025 273.912 220.346 269.552C223.938 257.57 237.52 231.618 237.734 231.15C232.696 233.174 227.999 235.345 223.95 237.655C221.442 239.082 218.242 237.721 217.562 234.714C217.113 232.55 216.116 228.337 221.016 226.098C228.874 222.516 237.418 219.52 245.95 217.06C264.082 186.563 286.567 155.274 293.047 155.852C295.871 156.091 295.431 159.128 297.899 161.879C300.356 164.612 300.702 166.297 297.758 173.561C291.783 188.48 292.274 184.997 286.494 208.296C287.064 208.217 287.603 208.126 288.159 208.044ZM296.821 250.308C301.3 249.85 314.393 246.98 314.524 232.606C314.554 227.042 309.236 224.108 307.944 220.23C307.11 217.833 307.311 212.888 311.092 211.402C315.763 209.563 316.73 212.634 318.343 214.929C319.014 215.871 321.153 215.646 321.884 214.881C322.904 213.822 324.394 212.236 325.036 209.544C325.603 207.077 322.985 202.932 315.376 203.189C312.717 203.248 308.955 203.7 303.627 208.783C301.169 211.121 293.346 221.82 299.137 231.007C300.699 233.5 304.458 236.549 302.041 238.891C298.271 242.525 291.794 236.896 290.563 235.196C290.008 234.414 288.4 233.5 287.345 235.05C286.734 235.939 283.829 241.118 284.278 243.033C285.586 249.009 293.298 250.662 296.821 250.308Z" fill="#E32526"/>
</g>
<mask id="mask2_25_22" style="mask-type:alpha" maskUnits="userSpaceOnUse" x="165" y="217" width="189" height="130">
<path d="M191.448 272.582L225.07 217.995H325.145L353.23 260.319L313.674 332.706L176.417 345.759L166.133 326.377L171.274 284.448L191.448 272.582Z" fill="#D9D9D9" stroke="black"/>
</mask>
<g mask="url(#mask2_25_22)">
<path d="M152.424 249.291C155.804 248.68 158.316 250.735 158.064 253.859C157.811 256.98 154.857 260.029 151.483 260.632C148.124 261.231 145.59 259.176 145.858 256.05C146.115 252.924 149.05 249.91 152.424 249.291ZM116.077 271.698C119.002 260.806 122.543 249.684 126.047 241.38C118.987 250.635 111.421 262.41 104.604 274.167C108.572 273.239 112.431 272.415 116.077 271.698ZM176.208 263.21C178.843 262.731 184.761 266.313 181.93 269.633C178.988 273.048 175.669 272.366 170.458 274.542C167.504 275.766 165.239 278.41 162.004 283.065C157.891 289.099 156.006 295.01 155.668 299.452C155.64 300.771 155.535 301.43 154.838 301.884C147.952 306.382 145.834 303.002 146.008 298.87C146.052 297.895 146.393 296.353 147.002 294.454C141.703 302.399 137.012 306.417 133.945 306.968C129.832 307.712 127.512 304.857 127.954 299.576C128.156 297.174 128.879 294.351 130.224 290.792C131.634 287.179 133.857 282.239 135.915 278.192C136.439 277.137 136.946 276.125 137.373 275.219C133.104 276.052 128.85 276.955 124.61 277.926C124.54 278.097 124.481 278.191 124.417 278.201C122.202 288.549 122.028 292.45 120.834 301.472C120.329 305.418 121.09 309.663 116.39 310.312C111.691 310.993 110.132 306.154 110.104 302.022C110.043 297.815 110.82 292.76 113.793 280.523C108.71 281.815 103.659 283.229 98.6435 284.764C98.5714 284.878 98.5208 284.938 98.5208 284.938C90.0399 300.463 81.6693 319.672 80.2848 325.884C79.1807 330.864 76.9304 332.39 73.6192 330.946C70.3142 329.498 68.3896 326.168 69.5916 322.456C71.7698 315.793 78.4035 300.836 84.3124 290.101C84.2681 290.121 84.3124 289.973 84.4516 289.7C80.1209 291.383 76.0943 293.187 72.5749 295.127C70.2545 296.376 67.3412 295.222 66.7825 292.63C66.3825 290.792 65.5042 287.162 69.9998 285.189C76.7912 282.22 84.1382 279.706 91.4769 277.583C107.063 251.36 126.435 224.382 132.005 224.874C134.417 225.083 134.035 227.689 136.162 230.05C138.261 232.402 138.567 233.842 136.055 240.076C130.903 252.871 131.314 249.89 126.371 269.851C135.435 268.348 143.325 267.481 144.065 267.367C146.566 267.011 150.872 268.715 148.596 273.601C148.596 273.601 146.211 277.802 145.27 279.601C143.569 282.577 141.362 287.05 140.03 290.073C139.183 291.855 138.799 293.218 138.73 294.216C138.661 294.864 138.904 295.231 139.428 295.137C140.122 295.011 141.139 294.262 142.366 292.992C143.558 291.597 147.586 288.293 154.785 276.165L156.684 272.235C157.297 271.064 158.174 269.001 158.341 268.053C158.54 266.645 158.594 266.279 159.771 265.538C161.671 264.326 165.105 263.323 167.087 264.616C168.953 265.85 168.469 268.085 166.92 270.796C173.194 263.732 174.807 263.441 176.208 263.21ZM298.967 283.633C302.494 279.295 307.952 269.343 308.293 266.626C308.45 265.378 308.091 264.885 307.111 265.012C305.898 265.173 303.178 267.396 300.588 270.565C296.796 275.117 291.689 284.297 291.289 287.321C291.121 288.558 291.626 289.371 292.498 289.266C293.901 289.074 296.326 286.969 298.967 283.633ZM320.104 276.452C321.637 274.018 324.882 274.814 324.014 277.052C323.264 278.989 321.848 282.133 318.237 286.399C313.799 291.855 309.712 294.502 306.017 294.993C303.038 295.412 300.927 294.136 300.411 291.467L300.238 290.924C300.229 290.454 299.993 290.22 299.734 290.263C299.462 290.292 299.263 290.495 298.765 290.965C295.018 294.936 292.152 297.378 288.688 297.853C283.514 298.529 280.503 294.49 281.236 288.629C279.851 290.679 278.422 292.648 277.105 294.1C273.062 298.592 269.748 301.445 266.673 301.847C262.524 302.402 260.352 299.444 261.051 294.204C261.363 291.817 262.253 289.037 263.771 285.509C265.348 281.991 267.794 277.154 270.055 273.209C271.86 269.976 273.602 266.32 273.873 265.074C274.082 264.093 274.189 263.903 274.956 263.404C275.92 262.72 277.822 261.908 278.981 261.816C281.91 261.596 285.796 263.713 283.226 268.104L282.256 269.774C282.117 270.117 280.359 273.295 279.347 275.029C277.482 277.951 275.093 282.305 273.593 285.252C272.662 287.007 272.211 288.349 272.088 289.326C271.986 289.98 272.211 290.369 272.722 290.293C273.438 290.205 274.493 289.5 275.774 288.263C277.089 286.888 277.892 285.976 280.822 282.1L281.884 280.759C282.73 279.656 289.406 270.925 291.413 268.764C296.798 262.338 302.88 257.784 306.786 257.279C309.352 256.925 311.422 258.096 312.42 260.466C313.124 262.401 313.263 262.534 314.979 263.275C317.725 264.364 318.624 265.285 318.413 266.684C318.311 267.682 317.937 268.455 316.192 271.198C314.955 273.313 313.772 275.459 312.644 277.633C310.604 281.671 309.488 284.419 311.466 285.12C312.216 285.379 313.601 284.667 315.331 282.835C317.244 280.807 318.599 278.799 320.104 276.452ZM284.73 256.191C288.098 255.591 291.042 252.555 291.308 249.421C291.55 246.294 289.028 244.258 285.676 244.861C282.3 245.467 279.345 248.5 279.099 251.638C278.83 254.758 281.368 256.797 284.73 256.191ZM233.505 241.373C226.495 250.58 218.964 262.305 212.14 274.015C215.928 273.15 219.732 272.357 223.55 271.636C226.496 260.78 230.008 249.667 233.505 241.373ZM235.265 269.672C237.279 269.375 243.826 268.599 243.574 271.345C243.189 275.77 241.522 275.704 235.666 276.96C234.494 277.222 233.32 277.477 232.145 277.724C232.055 278.021 231.96 278.194 231.892 278.204C229.686 288.552 229.512 292.465 228.301 301.475C227.78 305.421 228.552 309.666 223.855 310.315C219.158 310.996 217.536 306.154 217.563 302.025C217.58 294.719 221.266 280.393 221.285 280.308C216.506 281.526 211.381 282.911 206.283 284.502C200.208 294.819 189.136 319.675 187.766 325.887C186.652 330.867 184.404 332.393 181.084 330.934C177.78 329.501 175.934 326.2 177.067 322.459C180.15 312.175 191.806 289.904 191.99 289.501C187.666 291.238 183.635 293.102 180.16 295.085C178.008 296.309 175.262 295.141 174.678 292.56C174.293 290.703 173.437 287.087 177.642 285.166C184.386 282.092 191.718 279.521 199.041 277.409C214.602 251.237 233.9 224.384 239.46 224.879C241.884 225.085 241.506 227.692 243.625 230.052C245.733 232.398 246.03 233.844 243.503 240.078C238.376 252.882 238.797 249.892 233.837 269.888C234.325 269.82 234.788 269.742 235.265 269.672ZM242.699 305.944C246.543 305.55 257.78 303.087 257.892 290.751C257.918 285.976 253.354 283.459 252.245 280.13C251.529 278.073 251.702 273.829 254.947 272.554C258.956 270.976 259.786 273.611 261.17 275.581C261.745 276.389 263.581 276.196 264.209 275.539C265.084 274.63 266.363 273.269 266.914 270.959C267.401 268.842 265.153 265.284 258.624 265.505C256.342 265.555 253.113 265.944 248.54 270.306C246.431 272.313 239.717 281.495 244.687 289.379C246.028 291.519 249.253 294.135 247.179 296.145C243.943 299.264 238.385 294.433 237.328 292.974C236.852 292.303 235.473 291.519 234.567 292.849C234.043 293.612 231.549 298.057 231.935 299.7C233.057 304.828 239.675 306.247 242.699 305.944Z" fill="#E32526"/>
</g>
</g>
</svg>
