<svg width="514" height="459" viewBox="0 0 514 459" fill="none" xmlns="http://www.w3.org/2000/svg">
<path d="M70.3622 0.867752L37.2161 1.55301C18.0839 1.94855 4.20762 19.914 8.65915 38.5253L105.51 443.448C107.663 452.448 115.708 458.796 124.962 458.796H469.487C486.667 458.796 495.852 438.563 484.542 425.63L139.972 31.6029C122.454 11.5704 96.9682 0.317701 70.3622 0.867752Z" fill="url(#paint0_linear_7_1960)"/>
<mask id="mask0_7_1960" style="mask-type:alpha" maskUnits="userSpaceOnUse" x="7" y="0" width="483" height="459">
<path d="M70.3622 0.867752L37.2161 1.55301C18.0839 1.94855 4.20762 19.914 8.65915 38.5253L105.51 443.448C107.663 452.448 115.708 458.796 124.962 458.796H469.487C486.667 458.796 495.852 438.563 484.542 425.63L139.972 31.6029C122.454 11.5704 96.9682 0.317701 70.3622 0.867752Z" fill="#1C1C1C"/>
</mask>
<g mask="url(#mask0_7_1960)">
<rect x="86.6816" y="403.604" width="83.7002" height="69.5352" fill="#413691"/>
<mask id="mask1_7_1960" style="mask-type:luminance" maskUnits="userSpaceOnUse" x="-94" y="183" width="660" height="570">
<path d="M565.467 752.887H-93.2753V183.192H565.467V752.887Z" fill="white"/>
</mask>
<g mask="url(#mask1_7_1960)">
<path d="M198.115 319.564C204.176 338.556 206.305 356.48 204.313 377.49C204.313 377.516 204.313 377.549 204.307 377.581C204.3 377.627 204.294 377.686 204.294 377.738C203.083 390.323 200.407 404.008 196.214 419.699C192.822 432.428 191.721 445.098 192.171 457.24C195.1 488.433 214.053 511.891 236.815 525.03C236.828 525.023 236.834 525.017 236.847 525.01C236.834 525.017 236.828 525.023 236.815 525.023C235.174 510.999 235.682 494.26 239.38 473.81C244.204 447.129 254.263 438.307 255.689 436.523C255.78 436.412 255.878 436.315 255.832 436.191C255.806 436.1 255.539 435.983 255.455 435.924C247.056 430.67 239.712 424.315 236.268 421.386C233.624 419.139 234.666 418.13 237.303 419.341C244.347 422.57 256.112 426.692 271.015 428.541C284.115 430.156 299.643 429.96 316.538 426.692C316.538 426.692 328.375 424.94 326.63 412.896C326.148 409.523 324.449 406.066 323.095 402.713C322.665 401.652 321.532 398.39 322.144 395.746C322.3 395.082 323.14 393.865 323.629 393.109C324.501 391.775 324.82 389.932 323.915 387.784C323.14 385.961 320.028 383.291 315.646 382.868C310.659 382.399 304.5 383.122 299.786 382.289C292.917 381.065 288.816 376.416 289.63 374.892C290.17 373.877 296.29 375.107 298.373 375.524C301.44 376.136 307.013 373.662 309.93 372.711C314.461 371.233 316.818 370.055 320.738 371.728C323.186 372.776 325.113 377.705 325.797 375.413C326.116 374.352 325.51 373.193 324.664 371.943C323.869 370.765 322.274 368.545 322.053 367.288C321.806 365.862 321.467 363.844 325.413 361.044C328.212 359.071 330.133 357.463 331.318 356.259C335.1 352.437 335.758 348.485 328.505 342.319C323.323 337.905 311.883 326.095 308.407 318.881C307.853 317.748 305.093 313.236 308.127 308.717C310.464 305.241 310.887 304.57 311.499 303.385C313.179 300.143 311.974 297.265 309.214 292.942C307.866 290.833 306.811 288.274 303.927 279.25C300.724 269.217 295.548 260.33 288.484 252.758L288.503 252.771L288.477 252.751C287.943 252.296 279.896 243.382 270.794 240.706C268.554 244.359 263.912 249.346 254.589 254.112C245.07 258.982 234.588 261.69 234.588 261.69C234.588 261.69 221.514 265.441 208.272 270.187C197.705 273.963 186.695 287.668 186.695 290.5C186.695 296.347 192.437 301.803 198.115 319.564Z" fill="white"/>
</g>
<path d="M387.627 335.621C387.627 410.826 333.77 473.309 262.927 485.784C263.5 491.246 264.184 496.338 265.011 500.414C269.874 524.484 286.359 546.614 295.279 551.861C271.437 549.797 252.484 542.668 241.194 531.489H241.22C242.015 531.496 249.476 531.405 250.133 531.392C245.628 529.66 241.175 527.537 236.858 525.05C236.852 525.05 236.852 525.044 236.852 525.044C236.852 525.031 236.845 525.018 236.845 525.005C236.839 525.011 236.826 525.018 236.819 525.024C235.178 511 235.686 494.254 239.384 473.804C244.202 447.13 254.261 438.301 255.694 436.524C255.785 436.407 255.882 436.309 255.837 436.192C255.804 436.094 255.544 435.983 255.453 435.925C247.054 430.664 239.71 424.316 236.266 421.386C233.629 419.14 234.671 418.131 237.307 419.342C244.352 422.571 256.11 426.693 271.02 428.542C284.119 430.156 299.648 429.961 316.543 426.686C316.543 426.686 328.373 424.941 326.628 412.896C326.153 409.524 324.453 406.067 323.099 402.714C322.669 401.659 321.537 398.391 322.149 395.747C322.298 395.083 323.138 393.866 323.633 393.11C324.506 391.776 324.818 389.933 323.913 387.778C323.145 385.962 320.033 383.292 315.644 382.869C313.483 382.667 311.093 382.68 308.697 382.706C305.585 382.732 302.454 382.758 299.784 382.283C292.922 381.072 288.82 376.417 289.628 374.893C290.174 373.878 296.295 375.108 298.378 375.525C301.438 376.137 307.011 373.656 309.928 372.712C314.459 371.234 316.816 370.056 320.742 371.729C323.184 372.777 325.111 377.706 325.801 375.414C326.114 374.353 325.515 373.194 324.668 371.944C323.874 370.766 322.279 368.545 322.051 367.282C321.81 365.863 321.465 363.845 325.41 361.052C328.21 359.066 330.137 357.464 331.322 356.253C335.105 352.444 335.763 348.492 328.503 342.314C323.327 337.906 311.888 326.095 308.404 318.882C307.858 317.749 305.091 313.237 308.125 308.718C310.462 305.242 310.885 304.571 311.497 303.386C313.177 300.144 311.979 297.259 309.218 292.943C307.871 290.833 306.816 288.275 303.932 279.257C300.728 269.218 295.552 260.331 288.482 252.765H288.501C288.013 251.294 287.173 239.685 280.408 228.864C278.208 224.652 275.258 220.192 271.235 215.849C268.526 212.939 264.268 209.56 258.656 206.305C253.044 203.049 246.097 199.918 238.011 197.509C228.303 194.611 216.974 192.743 204.389 192.932C194.988 193.068 186.035 193.811 175.39 196.662C175.39 196.662 175.377 196.669 175.371 196.669C175.325 196.682 174.876 196.799 174.101 197.027C193.217 188.153 214.474 183.192 236.884 183.192C320.137 183.192 387.627 251.43 387.627 335.621ZM327.455 354.398C327.65 354.899 327.181 355.153 326.602 355.433C323.815 356.728 322.526 357.393 317.52 360.394C311.666 363.903 309.121 360.999 307.871 358.76C307.519 358.154 306.998 355.667 307.571 354.788C308.144 353.909 309.218 354.476 310.351 355.583C311.627 356.826 314.739 356.156 315.781 356.045C316.81 355.928 321.589 354.723 324.701 354.072C325.28 353.948 325.756 353.903 326.146 353.903C326.941 353.903 327.351 354.118 327.455 354.398Z" fill="url(#paint1_linear_7_1960)"/>
<path d="M258.944 283.952C259.699 283.725 279.668 279.343 286.289 279.779C292.904 280.202 298.608 284.063 302.091 288.041C303.979 290.196 304.832 292.377 305.157 294.22C305.45 297.417 303.159 298.927 300.457 298.068C298.484 297.436 297.038 296.03 295.001 293.002C293.751 291.14 292.995 288.777 291.068 287.553C287.884 285.541 282.415 285.033 273.483 285.268C266.653 285.45 261.138 285.788 259.791 285.847C257.303 285.958 257.87 284.284 258.944 283.952Z" fill="#413691"/>
<path d="M270.489 302.499C274.22 300.291 279.239 300.415 280.223 300.233C281.206 300.051 281.394 299.054 279.917 298.338C277.898 297.355 274.116 298.176 273.979 297.537C273.855 296.984 274.714 295.571 277.592 294.477C279.142 293.878 282.091 293.481 284.227 293.703C290.36 294.347 293.628 298.162 294.318 298.866C295.008 299.562 296.05 300.617 296.317 302.232C296.675 304.367 295.308 306.014 294.006 308.13C293.342 309.198 292.756 309.979 292.541 310.787C292.235 311.939 292.437 312.408 293.394 313.157C294.468 313.997 293.836 315.475 291.675 314.876C289.233 314.185 287.899 313.495 286.056 311.939C283.426 309.732 283.471 308.313 281.635 306.477C279.799 304.641 274.018 304.654 271.042 305.07C267.546 305.559 266.752 304.699 270.489 302.499Z" fill="#413691"/>
<path d="M84.5737 330.959C84.6388 324.175 86.5464 310.633 86.8524 307.664C87.6793 299.46 89.6456 288.047 95.9479 272.278C102.823 255.096 108.383 242.973 125.207 226.377C145.026 206.832 168.38 198.733 174.018 197.053C174.851 196.799 175.32 196.682 175.372 196.669L175.385 196.663C186.037 193.811 194.989 193.069 204.384 192.932C237.953 192.431 262.583 206.533 271.23 215.85C275.26 220.192 278.203 224.652 280.403 228.865C287.168 239.685 288.008 251.294 288.496 252.772L288.477 252.752C287.949 252.297 279.895 243.383 270.793 240.708C268.554 244.36 263.912 249.347 254.588 254.113C245.07 258.983 234.594 261.685 234.594 261.685C234.594 261.685 221.514 265.442 208.271 270.182C197.704 273.964 186.694 287.669 186.694 290.495C186.694 296.342 192.437 301.798 198.114 319.565C204.182 338.557 206.305 356.481 204.319 377.491C204.312 377.517 204.312 377.55 204.306 377.576C204.299 377.628 204.299 377.687 204.293 377.739C203.082 390.318 200.406 404.01 196.22 419.7H196.213C192.821 432.429 191.721 445.099 192.17 457.241C195.106 488.434 214.052 511.892 236.814 525.031C236.827 525.024 236.834 525.011 236.847 525.005C236.847 525.018 236.847 525.031 236.847 525.044C241.17 527.531 245.623 529.66 250.135 531.392C249.477 531.411 242.01 531.496 241.222 531.483C222.106 531.262 195.054 527.57 171.883 503.272C163.881 494.886 157.611 486.116 153.652 477.848C152.031 474.39 145.136 462.118 141.237 437.755C140.722 434.499 139.003 424.03 139.003 424.03C139.003 424.03 137.923 431.485 137.786 438.139C137.61 447.267 137.271 458.739 142.695 476.135C140.852 475.732 131.822 469.006 121.125 454.526C117.212 449.24 113.612 443.718 110.317 438.022C94.9518 413.964 84.0398 385.298 84.5737 330.959Z" fill="#413691"/>
<path d="M167.514 277.704C167.619 278.739 167.26 279.123 166.31 278.362C162.15 275.009 155.242 269.878 145.834 268.192C134.583 266.18 128.209 260.685 125.273 254.467C123.521 250.73 122.096 244.011 116.62 239.987C114.875 238.705 116.653 238.249 118.105 238.516C119.472 238.763 126.907 240.769 131.744 246.068C134.967 242.618 134.733 237.884 134.277 235.143C134.069 234.33 134.707 233.744 135.788 234.629C139.473 237.598 141.934 241.53 142.735 244.369C142.735 244.369 145.671 242.26 144.16 236.953C143.907 236.068 144.519 236.4 144.838 236.621C150.131 240.489 149.675 246.264 149.721 247.045C149.721 247.045 155.066 244.083 163.25 242.956C164.669 237.507 173.4 236.074 174.832 241.661C176.128 246.726 167.703 250.58 164.122 246.374C164.122 246.374 152.585 247.585 142.337 257.84C141.296 258.881 140.957 259.715 141.602 260.314C142.077 260.757 143.555 259.852 145.358 258.608C147.39 257.195 161.349 248.204 173.42 254.383C174.032 254.695 174.077 255.222 173.504 255.353C171.226 256.017 166.154 257.768 164.871 261.089C168.094 261.928 173.257 263.895 176.961 271.525C177.925 273.505 176.675 273.778 175.627 272.971C174.37 272.02 166.837 267.899 164.018 268.192C164.018 268.192 166.57 271.929 167.514 277.704ZM71.2599 220.195C71.7351 224.056 70.5372 234.922 67.5683 245.04C64.4496 255.724 69.9903 265.158 79.5936 270.698C82.6015 266.037 88.663 263.706 94.0539 263.511C97.2116 263.393 96.3457 264.676 94.7896 265.327C72.4383 274.69 80.3228 300.745 83.207 306.28C86.1564 311.931 85.4532 319.392 85.4532 319.392C92.4002 317.361 98.7742 318.702 104.38 319.587C115.481 321.352 122.877 319.379 128.652 316.736C133.242 314.633 140.462 309.854 141.563 300.726C141.771 299.059 142.845 297.907 143.503 300.999C144.623 306.28 143.841 312.725 140.059 316.781C144.193 337.127 184.11 335.643 184.11 335.643C186.76 326.86 204.905 324.191 209.007 311.423C210.954 305.368 209.359 299.046 209.359 299.046C198.922 301.559 192.88 296.533 189.495 292.321C187.522 289.86 189.097 289.749 190.504 290.647C203.727 299.001 216.026 290.654 218.598 278.876C222.029 265.991 234.588 261.688 234.588 261.688C225.44 255.926 228.019 245.971 223.253 237.546C210.707 215.344 192.861 221.992 192.861 221.992C191.135 227.259 185.875 231.068 180.705 232.63C177.691 233.542 178.166 232.044 179.533 231.061C192.21 221.933 189.078 207.395 179.097 200.611C161.687 188.754 158.705 183.624 158.705 183.624C155.509 186.046 147.032 188.149 138.105 188.937C118.118 190.714 113.41 201.125 113.007 205.096C115.364 206.34 119.387 210.084 121.262 216.06C122.2 219.068 120.689 218.6 119.693 217.245C111.913 206.587 102.329 208.593 93.3377 212.714C87.6604 215.325 79.4308 221.966 71.2599 220.195Z" fill="#EF3138"/>
</g>
<defs>
<linearGradient id="paint0_linear_7_1960" x1="261.573" y1="181.277" x2="404.575" y2="384.243" gradientUnits="userSpaceOnUse">
<stop stop-color="#D1078A"/>
<stop offset="1" stop-color="#413691"/>
</linearGradient>
<linearGradient id="paint1_linear_7_1960" x1="274.889" y1="219.152" x2="283.238" y2="427.007" gradientUnits="userSpaceOnUse">
<stop stop-color="#D2068A"/>
<stop offset="0.736963" stop-color="#413691"/>
<stop offset="1" stop-color="#413691"/>
</linearGradient>
</defs>
</svg>
