<svg width="514" height="459" viewBox="0 0 514 459" fill="none" xmlns="http://www.w3.org/2000/svg">
<path d="M70.3622 0.867752L37.2161 1.55301C18.0839 1.94855 4.20762 19.914 8.65915 38.5253L105.51 443.448C107.663 452.448 115.708 458.796 124.962 458.796H469.487C486.667 458.796 495.852 438.563 484.542 425.63L139.972 31.6029C122.454 11.5704 96.9682 0.317701 70.3622 0.867752Z" fill="#2E35BD"/>
<mask id="mask0_1_45" style="mask-type:alpha" maskUnits="userSpaceOnUse" x="7" y="0" width="483" height="459">
<path d="M70.3622 0.867752L37.2161 1.55301C18.0839 1.94855 4.20762 19.914 8.65915 38.5253L105.51 443.448C107.663 452.448 115.708 458.796 124.962 458.796H469.487C486.667 458.796 495.852 438.563 484.542 425.63L139.972 31.6029C122.454 11.5704 96.9682 0.317701 70.3622 0.867752Z" fill="#2E35BD"/>
</mask>
<g mask="url(#mask0_1_45)">
<mask id="mask1_1_45" style="mask-type:alpha" maskUnits="userSpaceOnUse" x="91" y="65" width="473" height="544">
<path d="M256.098 593.156C237.107 585.197 214.597 574.638 197.119 564.722L197.143 564.75C197.299 565.297 199.917 573.68 203.525 581.875C186.888 570.659 171.441 558.289 157.355 544.902C156.317 542.656 154.927 538.85 154.034 536.563C154.034 536.563 140.428 525.835 127.155 512.303C145.566 541.748 170.44 568.135 200.507 590.113C209.71 596.679 219.298 602.866 229.239 608.654L256.098 593.156Z" fill="#56DAFF"/>
<path d="M285.572 576.152L270.062 585.101C179.997 556.552 137.077 509.955 129.278 500.781C114.552 483.459 104.521 465.51 99.6676 449.521C99.6676 449.521 92.1816 424.646 91.6316 398.976C93.4021 403.772 97.102 413.399 101.462 421.394L102.248 422.829C102.734 428.346 105.809 454.152 121.412 475.49L121.46 475.547C121.46 475.547 121.574 460.002 122.646 449.597C132.432 460.596 143.495 470.782 155.677 480.009C155.677 480.009 153.246 500.393 154.271 512.031C154.271 512.031 173.546 527.619 196.794 539.77C196.577 524.078 199.068 507.291 199.068 507.291C217.473 517.105 236.804 525.678 256.869 532.923C256.869 532.923 253.906 558.922 254.156 565.699C264.452 569.531 274.943 573.012 285.572 576.152Z" fill="#56DAFF"/>
<path d="M340.823 544.274C288.452 534.043 236.349 516.502 192.302 490.981C154.06 468.818 116.179 436.681 100.307 397.813C99.2765 395.243 98.3074 392.597 97.5055 389.875C94.6511 380.72 93.4773 371.27 94.0234 361.842C97.0077 340.755 103.069 320.056 112.074 300.194C111.837 304.408 111.883 308.565 112.277 312.583C112.277 312.583 102.182 337.792 101.125 358.105C108.969 339.714 114.713 330.795 115.454 329.647L115.543 329.51C119.961 345.199 126.766 356.369 126.749 356.379C126.749 356.379 114.936 375.254 108.37 397.046C113.694 407.323 120.41 417.074 128.389 426.113C132.927 411.341 138.912 396.904 146.283 382.943C155.684 393.273 166.251 402.846 177.84 411.531C177.84 411.531 167.574 431.956 161.09 456.015C161.09 456.015 182.729 472.364 204.025 482.73C207.98 467.489 212.876 452.427 218.689 437.604C218.689 437.604 243.09 451.232 272.918 461.837C266.196 484.379 260.909 506.77 260.909 506.77C281.874 513.871 303.446 519.664 325.443 524.102L334.754 480.578C358.367 486.212 382.435 490.422 406.768 493.17L404.707 507.417L340.823 544.274Z" fill="#56DAFF"/>
<path d="M120.784 299.438C120.809 295.868 121.214 292.31 121.995 288.803C122.688 285.806 123.594 282.844 124.708 279.934C136.833 248.884 177.513 213.375 177.513 213.375C174.681 218.003 172.671 222.241 172.649 222.275C172.449 222.433 156.65 237.493 145.504 254.2C145.504 254.2 158.498 242.35 167.481 235.49C165.914 240.853 164.934 246.514 164.563 252.079C164.563 252.079 137.066 275.055 128.558 289.348C128.558 289.348 126.728 298.832 129.74 311.872C145.197 292.126 166.463 274.21 166.463 274.21C168.335 282.11 171.482 289.912 175.788 297.449C175.788 297.449 153.509 318.456 140.112 338.182C145.115 347.143 151.479 355.743 158.942 363.857C168.986 348.674 180.304 334.092 192.813 320.218C200.993 328.869 210.214 336.818 220.334 343.937C220.334 343.937 197.97 374.823 189.526 390.608C201.97 399.459 215.324 407.399 229.433 414.335C241.55 389.425 256.113 365.1 256.113 365.1C272.067 373.496 303.13 384.407 303.13 384.407L303.111 384.418C302.931 384.84 290.364 412.686 282.163 435.718C301.528 442.024 321.401 447.197 341.633 451.195C342.914 445.828 356.348 398.8 356.348 398.8C376.653 403.056 397.27 406.198 418.063 408.205L411.038 466.772C446.457 469.12 501.849 453.53 501.849 453.53L478.637 411.049C478.637 411.049 509.776 412.129 555.433 405.809L563.789 415.638L451.378 480.493C259.021 474.251 118.92 387.479 120.784 299.438Z" fill="#56DAFF"/>
<path d="M174.399 250.926C176.01 198.191 229.022 175.016 244.999 168.304C262.548 160.939 277.079 156.866 277.079 156.866C273.761 159.205 269.342 162.539 266.348 165.137C263.328 166.137 237.278 174.839 222.495 186.001L222.443 186.03C235.349 180.198 255.174 174.876 257.244 174.296L257.304 174.305L257.245 174.359C256.782 174.839 253.075 178.739 249.547 185.17C247.455 185.784 221.112 193.72 199.653 205.591C199.653 205.591 194.275 212.983 190.393 221.592C217.663 205.731 243.998 197.034 244.685 196.787C243.497 200.997 242.726 205.667 242.765 210.718C209.614 224.303 185.12 240.833 185.12 240.833C185.12 240.833 184.627 246.404 184.668 249.226C184.77 252.997 185.169 256.759 185.863 260.491C213.936 239.878 245.007 225.114 245.026 225.104C246.683 230.581 249.23 235.99 252.621 241.274C249.208 243.201 223.332 258.194 194.51 282.147C198.789 289.02 204.402 295.803 211.246 302.407C228.047 286.292 246.228 271.197 265.654 257.237C271.463 263.015 278.286 268.569 285.995 273.867C283.22 276.423 252.823 304.703 238.226 323.38C248.766 330.146 259.962 336.186 271.699 341.436C282.456 325.208 311.75 288.817 311.75 288.817C322.65 294.191 334.001 298.909 345.717 302.935C345.717 302.935 324.994 339.308 316.015 357.991C331.927 362.775 348.199 366.685 364.723 369.7C369.2 353.741 382.946 316.851 383.986 314.063C398.866 317.232 413.901 319.87 429.052 321.971L422.051 377.41L423.726 377.569C435.657 378.331 447.619 378.662 459.579 378.561C468.766 378.485 476.209 378.225 478.762 378.153C477.655 360.481 476.434 342.813 475.096 325.151C479.078 325.232 483.024 325.261 486.936 325.241L541.892 389.883C536.158 390.645 530.403 391.352 524.522 391.943C496.292 395.392 467.676 396.313 439.174 394.687C419.053 393.657 399.032 391.519 379.242 388.287C355.164 384.512 331.545 378.922 308.684 371.585C226.981 345.729 172.853 300.841 174.399 250.926Z" fill="#56DAFF"/>
<path d="M253.015 201.641C255.866 178.977 276.459 159.877 308.048 146.747C308.912 146.377 309.793 145.996 310.612 145.693C313.081 144.737 315.606 143.818 318.187 142.936C323.334 141.241 327.08 140.311 329.335 139.859L335.39 146.982C330.997 146.757 326.611 146.675 322.238 146.735C315.922 148.911 309.811 151.465 303.951 154.378C316.368 153.499 328.848 153.35 341.301 153.933L345.95 159.403L345.801 159.68C345.801 159.68 313.02 158.02 291.273 161.714C287.434 164.295 283.982 166.988 280.914 169.791C301.312 166.277 322.098 164.485 342.956 164.443C341.46 167.175 340.464 170.105 340.324 170.483C339.865 170.515 304.984 171.934 271.954 179.781C269.504 183.231 267.468 186.955 266.059 190.634C300.826 180.639 338.974 176.612 338.974 176.612C338.684 179.045 338.686 181.478 338.98 183.914L338.365 184.035C299.7 190.651 263.556 203.458 263.556 203.458C263.472 207.682 264.117 211.967 265.489 216.313C265.489 216.313 296.1 202.666 340.744 191.325C342.693 196.421 344.909 199.813 344.917 199.852C344.917 199.852 305.169 213.272 272.899 230.849C276.386 235.696 280.468 240.235 285.082 244.394C303.123 232.754 349.497 208.949 351.319 208.047C351.319 208.047 356.034 213.29 361.981 217.331C361.981 217.331 330.065 237.041 304.266 258.761C311.695 263.376 319.544 267.508 327.742 271.119C343.344 254.772 368.3 231.457 374.922 225.407C380.776 228.527 386.949 231.217 393.368 233.448C393.368 233.448 367.934 267.868 359.372 282.489L359.339 282.509L359.35 282.522C371.914 286.57 393.061 290.187 393.061 290.187C394.731 285.981 396.323 282.026 397.839 278.322L414.604 240.157L435.978 265.299L432.587 294.686C442.165 295.244 451.769 295.401 461.361 295.156L474.1 310.142L473.097 310.168C459.877 310.279 446.656 309.746 433.502 308.574C327.588 299.128 246.786 251.266 253.026 201.655" fill="#56DAFF"/>
<path d="M400.714 223.817C367.109 213.714 345.38 192.407 350.695 172.822C351.186 171 351.914 169.228 352.865 167.536L400.714 223.817Z" fill="#56DAFF"/>
<path d="M321.622 130.785C64.3176 43.4454 64.3176 43.4454 321.622 130.785V130.785Z" fill="#56DAFF"/>
</mask>
<g mask="url(#mask1_1_45)">
<path d="M69.5412 1.53943L36.3978 2.34392C17.2672 2.80829 3.45562 20.8235 7.97408 39.4187L106.281 443.99C108.466 452.982 116.534 459.301 125.788 459.268L470.311 458.029C487.491 457.967 496.603 437.701 485.247 424.809L139.261 32.0239C121.671 12.0546 96.1451 0.893664 69.5412 1.53943Z" fill="#56DAFF"/>
</g>
</g>
</svg>
