<svg width="514" height="462" viewBox="0 0 514 462" fill="none" xmlns="http://www.w3.org/2000/svg">
<path d="M70.3418 1.01953C97.2433 0.463456 123.012 11.8408 140.725 32.0957L485.295 426.123C497.17 439.702 487.527 460.947 469.487 460.947H124.962C115.246 460.947 106.798 454.282 104.538 444.832L7.68652 39.9092C3.08669 20.6775 17.4255 2.11387 37.1953 1.70508L70.3418 1.01953Z" fill="white" stroke="#1E1E1E" stroke-width="2"/>
<mask id="mask0_27_258" style="mask-type:alpha" maskUnits="userSpaceOnUse" x="5" y="0" width="487" height="462">
<path d="M70.3418 1.01953C97.2433 0.463456 123.012 11.8408 140.725 32.0957L485.295 426.123C497.17 439.702 487.527 460.947 469.487 460.947H124.962C115.246 460.947 106.798 454.282 104.538 444.832L7.68652 39.9092C3.08669 20.6775 17.4255 2.11387 37.1953 1.70508L70.3418 1.01953Z" fill="white" stroke="#1E1E1E" stroke-width="2"/>
</mask>
<g mask="url(#mask0_27_258)">
<path d="M70.3418 1.01953C97.2433 0.463456 123.012 11.8408 140.725 32.0957L485.295 426.123C497.17 439.702 487.527 460.947 469.487 460.947H124.962C115.246 460.947 106.798 454.282 104.538 444.832L7.68652 39.9092C3.08669 20.6775 17.4255 2.11387 37.1953 1.70508L70.3418 1.01953Z" stroke="#1E1E1E" stroke-width="2"/>
<path fill-rule="evenodd" clip-rule="evenodd" d="M162.109 301.613C158.241 303.11 153.873 288.385 152.875 284.392C151.627 279.4 151.253 276.031 151.253 272.911C151.253 268.918 151.502 264.55 152.126 259.683C142.642 259.059 138.025 264.051 134.655 269.791C126.918 282.52 134.655 300.24 141.269 311.721C143.016 314.716 144.639 317.336 146.635 320.082C147.259 321.08 154.996 331.437 148.881 328.942C146.76 328.068 145.013 326.446 143.266 325.073C140.146 322.702 137.151 320.082 134.531 317.087C131.91 313.967 128.79 308.85 126.918 303.734C121.677 304.982 118.557 313.343 117.809 318.085C115.438 332.685 132.534 344.416 143.391 350.655C144.514 351.279 145.887 352.153 146.885 352.901C147.509 353.276 148.008 353.775 148.507 354.274C148.757 354.524 149.006 354.773 149.131 355.023C149.256 355.522 149.256 355.772 149.006 356.146C147.134 357.643 139.647 355.272 137.276 354.399C135.654 353.775 134.156 353.151 133.407 352.901C128.915 351.154 124.173 348.035 121.428 345.414C117.933 349.033 118.308 356.77 120.055 361.637C123.424 371.121 136.153 374.615 145.387 376.986C149.256 377.984 161.485 379.232 161.485 381.354C161.361 384.848 142.018 383.225 137.401 382.102C135.03 381.478 131.66 380.106 130.038 379.482C129.165 390.962 134.406 395.205 144.264 397.077C148.757 397.826 154.497 398.325 159.114 397.826C162.733 397.452 172.342 395.33 173.091 396.703C174.339 399.074 163.482 401.819 160.612 402.318C153.748 403.566 148.382 402.817 143.391 402.194C144.264 405.812 147.883 409.931 150.005 411.553C155.121 415.297 161.111 415.297 167.101 413.924C175.836 411.927 186.693 405.937 187.816 407.31C189.189 409.182 180.329 414.548 177.334 415.92C171.968 418.541 168.349 419.165 161.61 419.29C162.858 426.902 176.46 430.895 185.195 427.401C190.062 425.529 196.302 420.288 199.921 416.669C202.666 414.049 204.288 412.177 204.663 412.676C205.786 414.922 200.42 422.534 198.174 424.905C195.927 427.152 194.68 428.399 193.057 429.523C191.56 430.521 189.438 431.644 186.568 432.518C188.814 435.388 194.929 436.386 200.42 436.136C203.415 436.012 205.786 435.013 207.907 433.765C213.772 430.521 216.518 423.782 219.014 417.044C219.138 416.919 219.388 416.544 219.638 416.544C220.012 416.544 220.262 416.919 220.262 417.044C222.882 423.782 225.503 430.521 231.368 433.765C233.489 435.013 235.86 436.012 238.855 436.136C244.346 436.386 250.586 435.388 252.707 432.518C249.962 431.644 247.715 430.521 246.218 429.523C244.596 428.399 243.348 427.152 241.102 424.905C238.73 422.534 233.489 414.922 234.612 412.676C234.862 412.177 236.609 414.049 239.354 416.669C242.973 420.288 249.213 425.529 254.08 427.401C262.815 430.771 276.292 426.902 277.665 419.29C270.926 419.29 267.183 418.541 261.941 415.92C258.947 414.423 250.086 409.057 251.459 407.31C252.582 405.937 263.439 411.927 272.174 413.924C278.039 415.297 284.154 415.297 289.271 411.553C291.267 410.055 295.011 405.937 295.884 402.194C290.893 402.817 285.527 403.566 278.663 402.318C275.793 401.819 264.936 399.074 266.184 396.703C266.933 395.205 276.417 397.327 280.161 397.826C284.903 398.325 290.518 397.951 295.011 397.077C304.869 395.33 310.111 390.962 309.237 379.482C307.615 380.106 304.245 381.478 301.874 382.102C297.257 383.35 277.915 384.972 277.79 381.354C277.79 379.357 290.019 377.984 293.888 376.986C303.122 374.615 315.726 371.121 319.095 361.637C320.843 356.77 321.217 348.908 317.723 345.414C314.977 348.159 310.111 351.154 305.743 352.901C304.994 353.151 303.497 353.775 301.874 354.399C299.628 355.272 292.141 357.519 290.144 356.146C289.895 355.896 289.895 355.522 290.019 355.023C290.144 354.773 290.394 354.524 290.643 354.274C291.142 353.775 291.642 353.401 292.266 352.901C293.264 352.153 294.637 351.404 295.76 350.655C306.741 344.416 323.713 332.685 321.342 318.085C320.593 313.343 317.473 304.982 312.232 303.734C310.235 308.85 307.24 313.967 304.62 317.087C301.999 320.082 299.004 322.577 295.884 325.073C294.137 326.446 292.39 328.068 290.269 328.942C284.154 331.437 291.766 320.955 292.515 320.082C294.387 317.211 296.134 314.591 297.881 311.721C304.62 300.24 312.232 282.395 304.495 269.791C301.126 264.175 296.508 259.184 287.024 259.683C287.648 264.55 287.898 268.918 287.898 272.911C287.898 276.031 287.524 279.4 286.276 284.392C285.277 288.385 280.91 303.11 277.041 301.613C275.169 300.864 276.916 293.002 277.415 289.258C279.163 276.28 279.787 261.555 276.417 249.201C273.297 237.72 266.808 226.614 254.204 227.612C250.96 227.861 245.469 229.484 243.348 231.231L246.343 236.722C255.328 254.442 259.695 279.15 250.96 297.494C249.088 301.488 246.592 303.859 244.221 307.602C238.356 317.211 244.346 325.697 249.837 330.314C256.576 336.055 259.82 339.923 263.189 350.655C270.926 375.738 248.09 404.689 220.262 404.565H219.638H219.014C191.185 404.689 168.349 375.613 176.086 350.655C179.455 339.923 182.7 336.179 189.438 330.314C194.804 325.697 200.919 317.211 195.054 307.602C192.808 303.859 190.187 301.488 188.315 297.494C179.58 279.15 183.948 254.442 192.932 236.722L195.927 231.231C193.806 229.484 188.315 227.861 185.071 227.612C172.467 226.614 165.978 237.72 162.858 249.201C159.489 261.68 160.113 276.28 161.86 289.258C162.359 292.877 164.106 300.739 162.234 301.613H162.109ZM219.513 409.182H218.889H218.639C207.533 409.057 196.801 405.438 186.943 398.575C180.079 393.833 173.091 386.595 168.723 378.234C158.74 359.266 160.986 334.432 173.34 317.461C178.082 310.847 178.831 314.216 176.211 303.609C175.212 299.865 173.216 290.881 174.838 287.137C176.335 293.751 178.956 299.616 181.701 305.356C184.572 311.221 185.32 312.968 184.447 314.466C182.7 316.213 181.951 316.463 178.332 320.83C171.593 329.69 167.725 340.173 166.976 350.78C166.352 360.014 167.85 369.374 172.092 377.859C174.838 383.475 178.956 388.841 183.948 393.458C191.185 400.197 204.039 407.934 218.514 408.059H218.639H218.889H219.513H220.137H220.386H220.511C234.987 407.934 247.84 400.197 255.078 393.458C260.07 388.716 264.063 383.475 266.933 377.859C271.176 369.374 272.673 359.89 272.05 350.78C271.301 340.173 267.557 329.815 260.694 320.83C257.075 316.463 256.326 316.213 254.579 314.466C253.705 312.968 254.454 311.221 257.324 305.356C260.07 299.616 262.69 293.751 264.188 287.137C265.81 290.881 263.813 299.865 262.815 303.609C260.194 314.092 260.818 310.847 265.685 317.461C277.915 334.432 280.286 359.266 270.302 378.234C265.935 386.595 258.947 393.833 252.083 398.575C242.349 405.438 231.493 409.057 220.386 409.182H220.137H219.513Z" fill="#EC2028"/>
</g>
</svg>
