<svg width="514" height="459" viewBox="0 0 514 459" fill="none" xmlns="http://www.w3.org/2000/svg">
<path d="M70.3622 0.867752L37.2161 1.55301C18.0839 1.94855 4.20762 19.914 8.65915 38.5253L105.51 443.448C107.663 452.448 115.708 458.796 124.962 458.796H469.487C486.667 458.796 495.852 438.563 484.542 425.63L139.972 31.6029C122.454 11.5704 96.9682 0.317701 70.3622 0.867752Z" fill="#FD7902"/>
<mask id="mask0_27_415" style="mask-type:alpha" maskUnits="userSpaceOnUse" x="7" y="0" width="483" height="459">
<path d="M70.3622 0.867752L37.2161 1.55301C18.0839 1.94855 4.20762 19.914 8.65915 38.5253L105.51 443.448C107.663 452.448 115.708 458.796 124.962 458.796H469.487C486.667 458.796 495.852 438.563 484.542 425.63L139.972 31.6029C122.454 11.5704 96.9682 0.317701 70.3622 0.867752Z" fill="#F3CD02"/>
</mask>
<g mask="url(#mask0_27_415)">
<path d="M136.274 183.459H43.1819H20.543L25.4117 487.169L498.598 504.695L587.198 487.169L200.202 77.4702L136.274 183.459Z" fill="#0138B2"/>
<path d="M12.4238 181.469H136.016M136.016 181.469L207.335 54.8877M136.016 181.469L314.926 476.242" stroke="white" stroke-width="26"/>
</g>
</svg>
