<svg width="514" height="460" viewBox="0 0 514 460" fill="none" xmlns="http://www.w3.org/2000/svg">
<path d="M70.3622 1.01912L37.2161 1.70438C18.0839 2.09992 4.20762 20.0653 8.65915 38.6767L105.51 443.599C107.663 452.599 115.708 458.947 124.962 458.947H469.487C486.667 458.947 495.852 438.714 484.542 425.781L139.972 31.7543C122.454 11.7218 96.9682 0.469068 70.3622 1.01912Z" fill="white" stroke="#1E1E1E" stroke-width="2"/>
<mask id="mask0_6_110" style="mask-type:alpha" maskUnits="userSpaceOnUse" x="7" y="1" width="483" height="458">
<path d="M70.3622 1.01912L37.2161 1.70438C18.0839 2.09992 4.20762 20.0653 8.65915 38.6767L105.51 443.599C107.663 452.599 115.708 458.947 124.962 458.947H469.487C486.667 458.947 495.852 438.714 484.542 425.781L139.972 31.7543C122.454 11.7218 96.9682 0.469068 70.3622 1.01912Z" fill="#00B3F0"/>
</mask>
<g mask="url(#mask0_6_110)">
<path d="M60.3739 121.031C60.3739 470.683 294.152 754.132 582.534 754.132L567.464 636.194C451.032 520.081 376.779 344.052 376.779 146.997V-6.16163L60.3739 -15.6055V121.031Z" fill="#FB0002" fill-opacity="0.5"/>
<path d="M627.234 493.988C257.426 332.153 170.02 234.437 -4.20557 63.4842L106.778 518.517L640.668 500.994L627.234 493.988Z" fill="#FB0002" fill-opacity="0.5"/>
<path d="M51.9766 33.5693C51.9766 35.7783 50.1856 37.5693 47.9766 37.5693H19.9766C17.7676 37.5693 15.9766 35.7783 15.9766 33.5693V15.5693C15.9766 13.3603 17.7676 11.5693 19.9766 11.5693H47.9766C50.1856 11.5693 51.9766 13.3603 51.9766 15.5693V33.5693Z" fill="#ED1C23"/>
<path d="M15.9766 23.5693H51.9766V30.5693H15.9766V23.5693Z" fill="#034EA2"/>
<path d="M51.9766 23.5693V15.5693C51.9766 13.3603 50.1856 11.5693 47.9766 11.5693H19.9766C17.7676 11.5693 15.9766 13.3603 15.9766 15.5693V23.5693H51.9766Z" fill="#FFDD00"/>
<path d="M38.9766 25.5693C38.9766 26.6733 38.0806 27.5693 36.9766 27.5693H30.9766C29.8726 27.5693 28.9766 26.6733 28.9766 25.5693V22.5693C28.9766 21.4653 29.8726 20.5693 30.9766 20.5693H36.9766C38.0806 20.5693 38.9766 21.4653 38.9766 22.5693V25.5693Z" fill="#FFDD00"/>
<path d="M37.9766 24.5693C37.9766 25.6733 37.0806 27.5693 35.9766 27.5693H31.9766C30.8726 27.5693 29.9766 25.6733 29.9766 24.5693V23.5693C29.9766 22.4653 30.8726 21.5693 31.9766 21.5693H35.9766C37.0806 21.5693 37.9766 22.4653 37.9766 23.5693V24.5693Z" fill="#034EA2"/>
<path d="M36.9766 24.5693C36.9766 25.6733 36.0806 27.5693 34.9766 27.5693H32.9766C31.8726 27.5693 30.9766 25.6733 30.9766 24.5693V23.5693C30.9766 22.4653 31.8726 21.5693 32.9766 21.5693H34.9766C36.0806 21.5693 36.9766 22.4653 36.9766 23.5693V24.5693Z" fill="#ED1C23"/>
<path d="M35.9495 20.7041C35.8165 21.1921 34.9885 21.5691 33.9765 21.5691C32.9645 21.5691 32.1365 21.1921 32.0035 20.7041C30.7985 20.8761 30.9765 21.1971 30.9765 21.5691C30.9765 22.1211 31.7675 22.5691 33.9765 22.5691C36.1855 22.5691 36.9765 22.1211 36.9765 21.5691C36.9765 21.1971 37.1545 20.8761 35.9495 20.7041Z" fill="#6DBE46"/>
<path d="M34.9766 25.5693C34.9766 26.1223 34.5286 26.5693 33.9766 26.5693C33.4246 26.5693 32.9766 26.1223 32.9766 25.5693V22.5693C32.9766 22.0173 33.4246 21.5693 33.9766 21.5693C34.5286 21.5693 34.9766 22.0173 34.9766 22.5693V25.5693Z" fill="#A6D388"/>
<path d="M37.4765 18.5691C37.9165 18.5691 38.3345 18.6211 38.7225 18.7061C38.0995 17.6301 35.9765 16.5691 33.9765 18.5691C31.9765 16.5691 29.8535 17.6301 29.2305 18.7061C29.6185 18.6211 30.0365 18.5691 30.4765 18.5691C32.4095 18.5691 33.9765 19.4651 33.9765 20.5691C33.9765 19.4651 35.5425 18.5691 37.4765 18.5691Z" fill="#662113"/>
<path d="M33.9766 27.5693C35.0811 27.5693 35.9766 26.0023 35.9766 24.0693C35.9766 22.1363 35.0811 20.5693 33.9766 20.5693C32.872 20.5693 31.9766 22.1363 31.9766 24.0693C31.9766 26.0023 32.872 27.5693 33.9766 27.5693Z" fill="#8ED2E7"/>
<path d="M33.4766 23.5693C32.9406 23.5693 32.4396 23.6993 31.9856 23.9143C31.9846 23.9663 31.9766 24.0163 31.9766 24.0693C31.9766 26.0023 32.8726 27.5693 33.9766 27.5693C34.9796 27.5693 35.8016 26.2743 35.9466 24.5903C35.3136 23.9603 34.4406 23.5693 33.4766 23.5693Z" fill="#6DBE46"/>
<path d="M33.9766 29.5693C35.6334 29.5693 36.9766 29.1216 36.9766 28.5693C36.9766 28.0171 35.6334 27.5693 33.9766 27.5693C32.3197 27.5693 30.9766 28.0171 30.9766 28.5693C30.9766 29.1216 32.3197 29.5693 33.9766 29.5693Z" fill="#FFCC4D"/>
<path d="M35.9766 29.5693C35.9766 30.3973 35.0806 30.5693 33.9766 30.5693C32.8726 30.5693 31.9766 30.3973 31.9766 29.5693C31.9766 28.7413 32.8726 27.5693 33.9766 27.5693C35.0806 27.5693 35.9766 28.7413 35.9766 29.5693Z" fill="#034EA2"/>
<path d="M32.9766 29.5693C32.9766 28.7413 33.4246 27.5693 33.9766 27.5693C34.5286 27.5693 34.9766 28.7413 34.9766 29.5693C34.9766 30.3973 34.5286 30.5693 33.9766 30.5693C33.4246 30.5693 32.9766 30.3973 32.9766 29.5693Z" fill="#ED1C23"/>
<path d="M32.9766 17.5696C32.9766 17.0176 33.4246 17.5696 33.9766 17.5696C34.5286 17.5696 34.9766 17.0176 34.9766 17.5696C34.9766 18.1216 34.5286 18.5696 33.9766 18.5696C33.4246 18.5696 32.9766 18.1216 32.9766 17.5696Z" fill="#CCD6DD"/>
<path d="M33.9766 24.5693C34.5288 24.5693 34.9766 24.3455 34.9766 24.0693C34.9766 23.7932 34.5288 23.5693 33.9766 23.5693C33.4243 23.5693 32.9766 23.7932 32.9766 24.0693C32.9766 24.3455 33.4243 24.5693 33.9766 24.5693Z" fill="white"/>
<path d="M28.9766 22.5693C29.5288 22.5693 29.9766 22.3455 29.9766 22.0693C29.9766 21.7932 29.5288 21.5693 28.9766 21.5693C28.4243 21.5693 27.9766 21.7932 27.9766 22.0693C27.9766 22.3455 28.4243 22.5693 28.9766 22.5693Z" fill="#C1694F"/>
<path d="M29.9766 20.5693C30.5288 20.5693 30.9766 20.3455 30.9766 20.0693C30.9766 19.7932 30.5288 19.5693 29.9766 19.5693C29.4243 19.5693 28.9766 19.7932 28.9766 20.0693C28.9766 20.3455 29.4243 20.5693 29.9766 20.5693Z" fill="#C1694F"/>
<path d="M38.9766 22.5693C39.5288 22.5693 39.9766 22.3455 39.9766 22.0693C39.9766 21.7932 39.5288 21.5693 38.9766 21.5693C38.4243 21.5693 37.9766 21.7932 37.9766 22.0693C37.9766 22.3455 38.4243 22.5693 38.9766 22.5693Z" fill="#C1694F"/>
<path d="M37.9766 20.5693C38.5288 20.5693 38.9766 20.3455 38.9766 20.0693C38.9766 19.7932 38.5288 19.5693 37.9766 19.5693C37.4243 19.5693 36.9766 19.7932 36.9766 20.0693C36.9766 20.3455 37.4243 20.5693 37.9766 20.5693Z" fill="#C1694F"/>
</g>
</svg>
