<svg width="514" height="459" viewBox="0 0 514 459" fill="none" xmlns="http://www.w3.org/2000/svg">
<path d="M70.3622 0.867752L37.2161 1.55301C18.0839 1.94855 4.20762 19.914 8.65915 38.5253L105.51 443.448C107.663 452.448 115.708 458.796 124.962 458.796H469.487C486.667 458.796 495.852 438.563 484.542 425.63L139.972 31.6029C122.454 11.5704 96.9682 0.317701 70.3622 0.867752Z" fill="#F06519"/>
<mask id="mask0_27_287" style="mask-type:alpha" maskUnits="userSpaceOnUse" x="7" y="0" width="483" height="459">
<path d="M70.3622 0.867752L37.2161 1.55301C18.0839 1.94855 4.20762 19.914 8.65915 38.5253L105.51 443.448C107.663 452.448 115.708 458.796 124.962 458.796H469.487C486.667 458.796 495.852 438.563 484.542 425.63L139.972 31.6029C122.454 11.5704 96.9682 0.317701 70.3622 0.867752Z" fill="white"/>
</mask>
<g mask="url(#mask0_27_287)">
<path d="M151.784 -16.5734L163.673 -20.4055C173.06 -22.5387 182.802 -23.1991 192.359 -21.8908C216.964 -18.6061 238.675 -4.76054 256.988 11.3215C286.208 37.4223 309.042 69.752 329.556 102.897C357.277 148.327 380.305 196.468 401.168 245.391C422.878 296.96 442.437 349.466 459.088 402.879C443.61 395.418 428.474 387.276 413.369 379.103C357.007 348.253 301.961 314.836 249.657 277.47C213.629 251.556 178.741 223.754 147.71 191.939C127.91 171.341 109.428 148.99 96.5694 123.306C86.8912 103.741 80.7304 81.3919 84.5845 59.519C87.9281 39.3616 99.865 21.6271 114.817 8.11341C125.785 -1.94231 137.973 -10.8664 151.784 -16.5734ZM133.155 28.1351C124.11 36.622 116.387 46.9754 112.912 59.0153C108.455 73.094 109.992 88.3736 114.49 102.217C121.261 121.92 132.901 139.557 146.088 155.538C161.4 174.283 178.895 191.111 197.061 207.044C227.471 233.358 259.983 257.137 293.457 279.376C324.909 300.41 357.338 319.988 390.263 338.639C399.021 342.99 407.047 348.771 416.175 352.355C414.726 346.135 412.258 340.233 410.312 334.164C390.755 279.877 368.826 226.376 343.002 174.742C323.257 135.824 301.638 97.5106 274.247 63.4023C261.036 47.154 246.379 31.7767 228.941 20.0191C214.177 10.2633 196.625 3.17481 178.624 5.00844C161.131 6.47082 145.628 16.3128 133.155 28.1351Z" fill="#F79515"/>
<path d="M127.847 364.365C144.271 353.116 164.755 350.087 184.264 349.921C209.482 349.895 234.472 354.488 258.904 360.422C312.171 373.88 363.341 394.483 413.224 417.29C433.728 426.924 454.231 436.568 474.064 447.517C446.207 456.657 417.893 464.429 389.428 471.492C339.062 483.706 287.878 493.657 236.026 496.192C207.197 497.278 177.634 496.572 150.024 487.345C131.746 481.222 114.197 469.329 106.573 450.969L103.36 441.002C100.593 428.137 101.393 414.734 103.929 401.902C106.957 387.044 115.162 372.972 127.847 364.365ZM136.756 381.818C128.902 388.738 124.081 398.551 122.282 408.774C120.545 418.9 120.088 429.552 123.257 439.465C126.757 450.984 135.426 460.448 145.87 466.202C156.963 472.565 169.556 475.743 182.089 477.788C213.609 482.361 245.632 480.044 277.105 476.213C309.175 472.065 340.945 465.778 372.398 458.265C390.68 453.778 408.984 449.248 426.913 443.438C419.366 438.79 411.205 435.215 403.177 431.505C378.616 419.938 353.603 409.335 328.226 399.696C296.95 387.994 265.062 377.532 232.204 371.285C213.279 367.902 193.953 365.385 174.724 367.318C161.161 368.743 147.135 372.543 136.756 381.818Z" fill="#F79515"/>
<path d="M133.15 28.133C145.625 16.3154 161.117 6.47177 178.619 5.00636C196.62 3.17273 214.167 10.2627 228.936 20.017C246.37 31.7761 261.031 47.1519 274.242 63.4002C301.633 97.5085 323.252 135.822 342.997 174.74C368.826 226.372 390.75 279.875 410.312 334.16C412.253 340.231 414.721 346.133 416.175 352.351C407.047 348.767 399.016 342.988 390.258 338.637C357.333 319.986 324.899 300.41 293.452 279.374C259.975 257.141 227.466 233.356 197.056 207.042C178.892 191.114 161.396 174.286 146.087 155.534C132.902 139.558 121.258 121.923 114.485 102.215C109.992 88.37 108.45 73.0919 112.907 59.0132C116.387 46.9719 124.102 36.6105 133.15 28.133ZM156.046 46.0891C146.07 54.0873 138.704 66.0276 138.326 79.0351C137.757 94.6202 144.642 109.318 152.788 122.229C167.218 144.579 186.392 163.366 206.159 180.981C235.396 206.538 266.95 229.292 299.317 250.67C322.136 265.491 345.117 280.136 369.004 293.187C361.738 272.943 352.892 253.306 344.188 233.655C325.065 191.564 304.101 150.15 278.577 111.549C264.694 90.833 249.513 70.66 230.629 54.207C219.038 44.414 205.497 35.6073 190.047 34.0405C177.595 32.7316 165.254 37.8973 156.046 46.0891Z" fill="#F06519"/>
<path d="M136.751 381.815C147.13 372.54 161.157 368.74 174.711 367.308C193.942 365.363 213.266 367.891 232.188 371.264C265.047 377.512 296.935 387.974 328.211 399.675C353.592 409.329 378.605 419.916 403.165 431.494C411.192 435.2 419.35 438.769 426.9 443.427C408.974 449.226 390.673 453.766 372.386 458.254C340.933 465.767 309.163 472.054 277.092 476.202C245.617 480.024 213.597 482.35 182.074 477.768C169.539 475.718 156.951 472.554 145.855 466.181C135.415 460.427 126.747 450.963 123.242 439.445C120.072 429.547 120.528 418.89 122.27 408.763C124.075 398.543 128.896 388.73 136.751 381.815ZM152.666 395.365C147.32 399.765 143.769 406.098 142.412 412.832C140.502 422.454 141.278 433.149 147.108 441.339C152.984 449.415 162.376 454.009 171.67 456.916C188.978 461.977 207.215 462.501 225.132 462.048C247.961 461.335 270.657 458.408 293.16 454.672C320.025 449.956 346.842 444.523 373.058 436.955C369.356 434.642 365.255 433.136 361.27 431.412C344.867 424.441 328.275 417.884 311.474 411.917C280.831 401.086 249.548 391.42 217.313 386.755C204.435 384.961 191.321 384.058 178.375 385.627C169.249 386.83 159.902 389.407 152.666 395.365Z" fill="#F06519"/>
<path d="M156.049 46.0938C165.254 37.8926 177.593 32.7378 190.051 34.0343C205.502 35.601 219.042 44.4078 230.633 54.2007C249.513 70.6553 264.698 90.8268 278.581 111.543C304.101 150.145 325.065 191.559 344.192 233.648C352.897 253.299 361.746 272.95 369.013 293.179C345.121 280.13 322.142 265.49 299.321 250.663C266.95 229.287 235.395 206.533 206.164 180.975C186.397 163.36 167.222 144.572 152.792 122.222C144.638 109.319 137.752 94.617 138.33 79.0289C138.706 66.0323 146.068 54.0936 156.049 46.0938Z" fill="#F79515"/>
<path d="M152.668 395.371C159.908 389.411 169.255 386.834 178.386 385.645C191.331 384.076 204.44 384.976 217.324 386.774C249.558 391.438 280.842 401.104 311.482 411.926C328.281 417.888 344.868 424.447 361.278 431.421C365.263 433.145 369.362 434.661 373.066 436.964C346.854 444.531 320.033 449.965 293.17 454.691C270.667 458.427 247.973 461.358 225.14 462.057C207.232 462.522 188.99 461.985 171.681 456.935C162.387 454.011 152.995 449.434 147.119 441.357C141.289 433.168 140.5 422.466 142.423 412.851C143.767 406.094 147.318 399.762 152.668 395.371Z" fill="#F79515"/>
</g>
</svg>
