<svg width="514" height="462" viewBox="0 0 514 462" fill="none" xmlns="http://www.w3.org/2000/svg">
<path d="M70.3622 2.01912L37.2161 2.70438C18.0839 3.09992 4.20762 21.0653 8.65915 39.6767L105.51 444.599C107.663 453.599 115.708 459.947 124.962 459.947H469.487C486.667 459.947 495.852 439.714 484.542 426.781L139.972 32.7543C122.454 12.7218 96.9682 1.46907 70.3622 2.01912Z" fill="white"/>
<mask id="mask0_16_493" style="mask-type:alpha" maskUnits="userSpaceOnUse" x="5" y="0" width="487" height="462">
<path d="M70.3418 1.01953C97.2433 0.463456 123.012 11.8408 140.725 32.0957L485.295 426.123C497.17 439.702 487.527 460.947 469.487 460.947H124.962C115.246 460.947 106.798 454.282 104.538 444.832L7.68652 39.9092C3.08669 20.6775 17.4255 2.11387 37.1953 1.70508L70.3418 1.01953Z" fill="white" stroke="#1E1E1E" stroke-width="2"/>
</mask>
<g mask="url(#mask0_16_493)">
<path d="M555.311 -45.4229H-41.7661V490.375H555.311V-45.4229Z" fill="#FFC400"/>
<path d="M555.311 490.376H-41.7661V92.3247L555.311 490.376Z" fill="#F4621D"/>
<path d="M212.059 218.497C214.383 217.672 215.883 218.872 215.808 221.872C215.732 224.872 214.158 226.597 211.834 225.472L212.059 218.498V218.497Z" fill="white" stroke="black" stroke-width="0.242733"/>
<path d="M210.019 212.879C211.954 211.351 213.76 212.006 214.653 214.871C215.545 217.737 214.608 219.876 212.046 219.557L210.019 212.88V212.879Z" fill="white" stroke="black" stroke-width="0.242733"/>
<path d="M206.795 207.442C208.462 205.623 210.349 205.98 211.69 208.665C213.031 211.35 212.447 213.612 209.865 213.709L206.795 207.442ZM208.91 233.873C211.76 234.923 212.061 238.823 210.259 241.223C208.457 243.622 205.159 244.072 203.36 241.223L208.909 233.871L208.91 233.873Z" fill="white" stroke="black" stroke-width="0.242733"/>
<path d="M212.208 225.621C214.908 224.721 217.341 228.348 217.758 231.621C218.282 235.746 224.133 237.095 220.907 243.321C220.233 239.346 217.607 237.171 215.508 237.021C213.409 236.871 210.257 236.421 208.907 233.871L212.208 225.621ZM203.659 241.671C206.81 242.421 207.26 246.621 205.01 249.621C203.084 252.19 197.06 251.571 197.21 249.021L203.659 241.671ZM194.732 266.946C194.583 264.246 198.931 263.196 201.031 263.721C203.132 264.246 207.145 263.647 208.082 261.396C208.831 263.196 207.744 265.146 204.706 266.121C202.408 266.859 202.456 268.521 203.132 269.271C201.406 269.571 196.306 269.571 194.732 266.946V266.946Z" fill="white" stroke="black" stroke-width="0.242733"/>
<path d="M197.207 249.699C200.282 248.349 202.105 250.405 203.281 252.399C205.007 255.324 210.332 251.574 212.131 255.474C209.693 254.424 207.212 256.663 206.057 257.424C202.757 259.599 196.382 258.924 195.481 253.824L197.207 249.699Z" fill="white" stroke="black" stroke-width="0.242733"/>
<path d="M195.409 253.295C198.484 255.62 199.683 258.395 199.607 260.27C199.531 262.145 196.908 266.27 194.057 266.495C192.407 263.12 191.582 255.995 195.408 253.295H195.409ZM208.156 267.77C208.156 266.645 206.505 266.196 205.382 266.57C204.258 266.945 202.532 268.07 203.131 269.271L208.156 267.77ZM225.11 261.621C225.409 260.271 223.234 257.946 220.309 259.221C217.384 260.496 217.009 262.971 218.211 263.946L225.11 261.621V261.621Z" fill="white" stroke="black" stroke-width="0.242733"/>
<path d="M217.986 264.095C218.211 263.345 216.105 261.847 212.51 262.745C208.911 263.645 208.028 265.963 208.159 267.77L217.986 264.095ZM225.482 261.621C223.607 260.197 224.317 257.496 226.009 256.671C229.083 255.171 227.957 251.271 229.908 250.521C231.859 249.771 233.732 248.421 233.808 247.071C234.782 248.946 234.183 250.671 232.832 251.871C231.481 253.072 233.882 257.946 232.158 259.221L225.482 261.621ZM265.684 260.573C267.259 258.098 271.01 258.548 272.584 260.273C274.159 261.998 273.934 264.548 272.434 265.673L265.684 260.573ZM256.683 256.897C257.283 253.597 261.258 253.222 263.433 254.047C265.608 254.872 267.108 258.172 265.683 260.572L256.683 256.897H256.683Z" fill="white" stroke="black" stroke-width="0.242733"/>
<path d="M250.682 256.445C249.258 253.67 252.032 249.545 255.183 248.945C257.812 248.445 260.92 248.458 261.932 245.87C262.57 248.12 260.882 249.545 258.932 250.82C256.982 252.095 259.308 255.395 256.157 257.27L250.682 256.446L250.682 256.445Z" fill="white" stroke="black" stroke-width="0.242733"/>
<path d="M250.98 256.543C251.637 254.555 250.305 251.91 247.611 252.096C244.917 252.281 243.381 254.239 244.569 256.687L250.981 256.543H250.98Z" fill="white" stroke="black" stroke-width="0.242733"/>
<path d="M244.984 256.692C245.355 254.632 243.666 252.201 241.024 252.762C238.382 253.324 237.137 255.478 238.656 257.736L244.984 256.692Z" fill="white" stroke="black" stroke-width="0.242733"/>
<path d="M239.025 257.638C239.293 255.561 237.484 253.217 234.873 253.91C232.262 254.603 231.126 256.817 232.757 258.995L239.025 257.638ZM284.282 291.998C289.308 291.998 290.535 293.194 291.257 298.373C292.157 304.822 283.382 305.573 284.282 291.998Z" fill="white" stroke="black" stroke-width="0.242733"/>
<path d="M282.033 285.246C289.758 282.321 293.957 294.546 301.607 292.371C298.87 296.721 292.234 292.379 289.758 292.821C285.558 293.571 276.483 291.997 282.033 285.246ZM287.06 301.972C290.885 300.247 295.01 306.097 294.26 308.647C293.307 311.886 284.585 309.247 287.06 301.972ZM304.908 327.172C302.808 327.77 300.258 328.972 300.708 333.021C301.158 337.071 308.808 345.321 315.708 345.771C322.608 346.222 325.083 354.546 331.008 352.22C325.458 351.172 325.458 344.871 321.108 342.922C324.258 341.796 325.908 348.922 329.958 348.922C334.007 348.922 335.957 355.371 340.908 354.921C345.858 354.47 346.379 362.773 356.282 362.872C363.858 362.946 373.232 371.796 376.607 367.972C369.257 366.922 366.291 362.849 361.907 358.371C354.857 351.173 346.907 354.397 344.208 348.022C347.432 350.196 351.182 351.246 354.857 351.173C359.47 351.077 364.532 358.522 369.707 355.222C366.707 354.847 364.757 353.572 361.607 350.272C358.381 346.892 353.648 349.076 349.907 345.622C344.057 340.222 339.032 344.722 333.407 337.972C334.982 337.223 338.357 337.747 341.507 339.397C344.657 341.046 348.707 338.271 352.307 340.222C351.858 335.798 343.457 338.329 338.207 335.272C332.282 331.822 327.37 332.834 322.682 333.247C329.207 333.21 331.757 327.021 340.757 328.821C344.682 329.607 347.807 323.422 351.707 326.571C351.595 324.247 347.507 322.372 343.306 324.622C339.106 326.872 337.414 322.653 329.057 327.922C325.607 330.096 319.682 326.571 315.932 328.897C316.42 327.472 318.557 326.571 321.069 326.759C319.494 323.535 309.332 323.947 304.907 327.173L304.908 327.172Z" fill="white" stroke="black" stroke-width="0.242733"/>
<path d="M298.231 322.295C301.531 319.745 306.106 322.82 309.256 321.62C309.256 323.719 308.206 326.87 304.756 328.069C303.706 327.32 298.981 323.195 298.231 322.295Z" fill="white" stroke="black" stroke-width="0.242733"/>
<path d="M293.055 315.022C298.23 312.397 299.13 318.922 303.18 317.572C303.03 319.447 301.53 321.772 298.23 322.297L293.055 315.022Z" fill="white" stroke="black" stroke-width="0.242733"/>
<path d="M289.981 309.096C297.631 306.096 298.606 313.446 303.105 312.021C302.055 314.571 295.605 315.921 292.306 315.021L289.981 309.096ZM279.484 276.921C281.509 274.071 285.784 276.396 286.459 279.771C287.134 283.146 285.484 287.871 282.634 286.821L279.484 276.921Z" fill="white" stroke="black" stroke-width="0.242733"/>
<path d="M274.307 267.92C277.832 267.095 281.882 267.47 281.432 270.92C282.782 271.52 283.157 275.945 279.482 276.919L274.307 267.919V267.92Z" fill="white" stroke="black" stroke-width="0.242733"/>
<path d="M271.983 265.595C275.433 261.545 279.28 261.64 281.433 263.345C285.408 266.495 289.271 264.695 289.383 267.845C286.983 266.007 284.883 268.22 282.933 267.545C280.983 266.87 279.558 270.62 274.158 269.045L271.983 265.595ZM280.309 326.125C279.783 327.099 276.559 327.549 274.983 325.9C272.896 323.712 275.208 317.648 278.508 317.199C281.808 316.749 282.108 324.024 280.309 326.125Z" fill="white" stroke="black" stroke-width="0.242733"/>
<path d="M284.059 326.274C279.334 327.997 277.309 324.098 279.859 321.624C280.535 322.448 283.009 325.449 284.059 326.274Z" fill="white" stroke="black" stroke-width="0.242733"/>
<path d="M301.759 332.721C302.659 335.422 307.309 335.872 312.559 344.272C317.809 352.671 322.834 349.146 324.109 354.921C317.809 349.822 312.861 353.209 309.109 348.171C303.409 340.521 298.716 341.619 296.509 336.471C293.36 329.122 279.559 329.271 278.809 317.722C283.459 316.822 298.159 329.271 301.759 332.721V332.721ZM183.407 219.322C177.407 221.272 177.257 229.072 170.358 231.621C163.459 234.171 162.781 240.321 157.158 238.821C162.407 237.396 162.033 231.321 167.507 229.821C173.928 228.062 176.357 218.271 181.459 216.771M155.882 260.046C154.832 262.446 154.981 266.721 158.732 267.846C156.707 269.121 153.708 267.92 152.058 265.146C154.533 270.621 152.882 275.571 148.983 276.546C150.858 272.721 146.657 270.921 148.006 268.446C145.531 269.496 143.357 272.871 143.432 274.971C140.206 271.371 145.832 266.571 144.782 263.196L155.882 260.046V260.046ZM194.733 298.594C198.408 295.369 199.976 299.438 201.783 298.031C203.47 296.719 205.72 296.531 206.582 297.844C203.432 297.957 204.971 300.394 198.858 300.994C204.971 301.407 203.845 308.232 207.933 307.894C203.583 312.019 201.333 304.219 197.808 305.495C198.858 305.794 196.158 308.269 198.033 311.569C194.995 311.494 193.758 307.294 193.382 305.119L194.733 298.594ZM275.659 333.62C277.009 332.496 280.909 331.97 282.409 332.871C283.909 333.772 283.384 333.995 281.585 334.146C279.785 334.298 277.46 337.208 281.359 337.371C283.159 337.444 282.559 341.795 286.309 342.096C284.772 343.971 280.384 342.733 278.809 340.671C279.109 342.358 276.859 343.895 277.759 345.921C274.984 346.222 276.597 340.297 272.209 340.595C274.009 340.821 273.259 344.87 270.109 343.82C271.984 344.721 271.009 346.895 268.909 346.371C270.259 346.821 270.709 348.545 268.834 349.521C267.034 347.047 269.059 338.196 275.659 333.621V333.62ZM112.306 250.868C106.566 250.868 101.913 246.213 101.913 240.473C101.913 234.732 106.567 230.078 112.306 230.078C118.046 230.078 122.702 234.733 122.702 240.473C122.702 246.212 118.049 250.868 112.306 250.868Z" fill="white"/>
<path d="M183.407 219.322C177.407 221.272 177.257 229.072 170.358 231.621C163.459 234.171 162.781 240.321 157.158 238.821C162.407 237.396 162.033 231.321 167.507 229.821C173.928 228.062 176.357 218.271 181.459 216.771M301.759 332.721C302.659 335.422 307.309 335.872 312.559 344.272C317.809 352.671 322.834 349.146 324.109 354.921C317.809 349.822 312.861 353.209 309.109 348.171C303.409 340.521 298.716 341.619 296.509 336.471C293.36 329.122 279.559 329.271 278.809 317.722C283.459 316.822 298.159 329.271 301.759 332.721V332.721ZM155.882 260.046C154.832 262.446 154.981 266.721 158.732 267.846C156.707 269.121 153.708 267.92 152.058 265.146C154.532 270.621 152.882 275.571 148.983 276.546C150.858 272.721 146.657 270.921 148.006 268.446C145.531 269.496 143.357 272.871 143.432 274.971C140.206 271.371 145.832 266.571 144.782 263.196L155.882 260.046V260.046ZM194.733 298.594C198.408 295.369 199.976 299.438 201.783 298.031C203.47 296.719 205.72 296.531 206.582 297.844C203.432 297.957 204.971 300.394 198.858 300.994C204.971 301.407 203.845 308.232 207.933 307.894C203.583 312.019 201.333 304.219 197.808 305.495C198.858 305.794 196.158 308.269 198.033 311.569C194.995 311.494 193.758 307.294 193.382 305.119L194.733 298.594ZM275.659 333.62C277.009 332.496 280.909 331.97 282.409 332.871C283.909 333.772 283.384 333.995 281.585 334.146C279.785 334.298 277.46 337.208 281.359 337.371C283.159 337.444 282.559 341.795 286.309 342.096C284.772 343.971 280.384 342.733 278.809 340.671C279.109 342.358 276.859 343.895 277.759 345.921C274.984 346.222 276.597 340.297 272.209 340.595C274.009 340.821 273.259 344.87 270.109 343.82C271.984 344.721 271.009 346.895 268.909 346.371C270.259 346.821 270.709 348.545 268.834 349.521C267.034 347.047 269.059 338.196 275.659 333.621V333.62ZM112.306 250.868C106.566 250.868 101.913 246.213 101.913 240.473C101.913 234.732 106.567 230.078 112.306 230.078C118.046 230.078 122.702 234.733 122.702 240.473C122.702 246.212 118.049 250.868 112.306 250.868Z" stroke="black" stroke-width="0.242733"/>
<path d="M166.606 263.424C163.456 260.423 158.655 258.924 155.357 261.174C152.059 263.423 141.106 266.124 135.706 262.374C130.306 258.624 127.756 256.673 125.357 257.124C123.555 259.824 121.381 261.099 118.681 261.324C117.856 262.224 114.93 262.974 113.28 262.748C110.881 263.348 107.956 262.599 105.632 260.048C102.03 260.573 98.6567 257.874 97.3815 253.824C93.5574 253.374 93.3319 249.098 95.7313 246.249C97.9816 245.799 96.2554 238.223 104.432 239.724C100.981 241.824 103.607 246.024 100.756 247.974C102.706 247.974 105.218 248.799 105.818 251.724C105.069 249.699 105.931 248.349 106.457 247.899C106.381 246.174 110.205 241.937 113.806 243.474C111.219 244.036 112.681 248.199 110.805 249.774C112.157 249.849 113.581 250.524 114.406 251.724C115.381 249.999 118.83 248.199 120.931 248.049C120.931 247.449 121.044 246.249 121.305 245.649C122.243 243.849 123.031 241.712 122.656 238.974C124.456 240.924 125.956 243.624 126.856 245.574C129.705 243.624 136.756 246.474 140.056 247.224C143.356 247.973 154.456 246.174 157.007 243.474C159.557 240.773 164.506 239.124 169.155 237.774C175.549 235.918 175.606 228.924 182.656 224.124C182.805 232.824 169.605 260.424 166.606 263.424H166.606ZM240.106 329.721C234.556 329.721 230.057 325.221 230.057 319.671C230.057 314.121 234.556 309.622 240.106 309.622C245.657 309.622 250.156 314.121 250.156 319.671C250.156 325.221 245.657 329.721 240.106 329.721Z" fill="white" stroke="black" stroke-width="0.242733"/>
<path d="M264.11 321.996C262.085 324.622 258.635 324.472 257.21 324.247C256.01 327.396 252.185 327.322 250.535 329.045C248.885 330.769 243.261 330.622 241.61 329.645C243.109 329.496 245.06 328.597 246.935 327.021C249.198 325.12 248.135 321.321 249.935 319.972C248.585 318.471 248.36 315.997 248.66 315.021C247.234 314.196 246.185 312.846 246.035 312.171C243.559 312.021 241.385 310.746 240.484 309.772C239.209 310.971 235.985 309.396 234.259 311.421C233.884 306.471 238.609 303.846 241.76 305.496C243.035 304.822 246.409 305.272 247.009 306.172C248.059 305.721 250.984 307.221 252.335 308.196C250.834 307.372 250.61 304.897 251.21 303.996C249.935 303.471 248.51 301.746 248.36 300.471C246.56 300.771 243.86 299.571 242.661 299.871C244.609 297.322 247.834 296.421 251.135 296.646C254.548 296.834 256.01 299.234 256.46 301.822C258.484 303.022 259.159 307.071 258.409 308.497C259.572 308.459 260.66 309.584 261.109 310.222C262.684 309.546 264.934 309.059 266.547 309.059M265.833 304.972C266.509 303.023 265.614 301.267 265.158 299.723C263.996 295.786 264.708 294.773 268.233 295.298C268.533 297.173 266.733 303.323 265.833 304.972Z" fill="white"/>
<path d="M264.11 321.996C262.085 324.622 258.635 324.472 257.21 324.247C256.01 327.396 252.185 327.322 250.535 329.045C248.885 330.769 243.261 330.622 241.61 329.645C243.109 329.496 245.06 328.597 246.935 327.021C249.198 325.12 248.135 321.321 249.935 319.972C248.585 318.471 248.36 315.997 248.66 315.021C247.234 314.196 246.185 312.846 246.035 312.171C243.559 312.021 241.385 310.746 240.484 309.772C239.209 310.971 235.985 309.396 234.259 311.421C233.884 306.471 238.609 303.846 241.76 305.496C243.035 304.822 246.409 305.272 247.009 306.172C248.059 305.721 250.984 307.221 252.335 308.196C250.834 307.372 250.61 304.897 251.21 303.996C249.935 303.471 248.51 301.746 248.36 300.471C246.56 300.771 243.86 299.571 242.661 299.871C244.609 297.322 247.834 296.421 251.135 296.646C254.548 296.834 256.01 299.234 256.46 301.822C258.484 303.022 259.159 307.071 258.409 308.497C259.572 308.459 260.66 309.584 261.109 310.222C262.684 309.546 264.934 309.059 266.547 309.059M265.833 304.972C266.509 303.023 265.614 301.267 265.158 299.723C263.996 295.786 264.708 294.773 268.233 295.298C268.533 297.173 266.733 303.323 265.833 304.972Z" stroke="black" stroke-width="0.242733"/>
<path d="M268.419 295.52C267.519 296.42 264.331 296.832 263.994 293.982C263.606 290.711 264.931 289.444 267.782 290.72C268.006 291.47 268.269 294.545 268.419 295.52Z" fill="white" stroke="black" stroke-width="0.242733"/>
<path d="M267.744 290.609C266.544 291.096 263.956 292.072 262.531 289.297C261.336 286.969 262.906 285.172 265.381 285.321C265.981 285.997 267.181 288.396 267.744 290.609Z" fill="white" stroke="black" stroke-width="0.242733"/>
<path d="M265.531 285.098C265.231 285.998 262.156 288.997 259.906 286.823C257.656 284.649 257.656 281.423 261.031 280.223C261.931 280.373 264.631 283.523 265.531 285.098Z" fill="white" stroke="black" stroke-width="0.242733"/>
<path d="M261.034 280.224C260.359 282.099 258.259 285.324 254.359 283.824C250.459 282.324 252.109 277.449 253.909 276.474C254.959 276.549 259.234 278.499 261.034 280.224Z" fill="white" stroke="black" stroke-width="0.242733"/>
<path d="M253.907 276.474C254.207 278.124 253.907 282.624 248.582 282.549C243.257 282.474 244.756 276.249 246.106 275.349C248.282 275.349 251.956 275.423 253.907 276.474Z" fill="white" stroke="black" stroke-width="0.242733"/>
<path d="M245.883 275.569C246.483 276.844 247.835 285.236 237.408 282.919C236.059 282.619 232.533 274.894 245.883 275.569Z" fill="white" stroke="black" stroke-width="0.242733"/>
<path d="M240.185 276.32C241.234 277.37 238.535 285.845 231.485 284.42C224.434 282.994 230.359 274.97 240.185 276.32Z" fill="white" stroke="black" stroke-width="0.242733"/>
<path d="M234.185 277.597C235.309 279.922 233.62 286.821 224.921 286.821C217.038 286.821 225.335 277.747 234.185 277.597Z" fill="white" stroke="black" stroke-width="0.242733"/>
<path d="M227.359 279.623C227.924 280.912 228.615 288.227 218.36 288.848C210.934 289.298 212.734 278.798 227.359 279.623Z" fill="white" stroke="black" stroke-width="0.242733"/>
<path d="M216.332 282.698C217.605 284.948 218.956 290.573 207.707 291.023C200.499 291.312 204.931 282.848 216.332 282.698Z" fill="white" stroke="black" stroke-width="0.242733"/>
<path d="M206.958 284.422C208.608 286.672 207.392 291.086 203.209 291.922C197.958 292.972 197.209 288.023 200.808 285.622C204.407 283.222 206.958 284.422 206.958 284.422Z" fill="white" stroke="black" stroke-width="0.242733"/>
<path d="M201.856 285.47C203.055 287.57 202.312 292.67 194.357 292.67C192.706 292.67 186.405 286.22 201.856 285.47ZM263.429 383.276C256.985 383.276 251.762 378.051 251.762 371.609C251.762 365.166 256.985 359.94 263.429 359.94C269.872 359.94 275.096 365.164 275.096 371.609C275.096 378.053 269.873 383.276 263.429 383.276Z" fill="white" stroke="black" stroke-width="0.242733"/>
<path d="M177.858 213.624C178.758 214.524 180.632 217.224 181.009 218.274C184.908 229.974 174.498 238.713 168.408 251.274C163.607 261.174 164.207 276.773 171.708 286.673C174.274 290.06 173.507 291.023 176.808 294.473C178.074 295.797 179.508 297.474 179.058 302.273C176.957 301.523 173.958 303.474 173.358 305.124C171.858 304.374 169.757 304.674 169.008 305.573C166.459 304.374 164.358 304.973 162.109 307.374C160.158 307.074 158.058 307.374 156.108 309.473C155.058 307.374 152.958 306.624 151.459 307.074C151.609 304.374 148.908 302.424 146.509 303.474C147.259 299.874 143.958 297.173 140.807 298.223C138.109 296.124 132.709 295.974 130.008 299.124C134.809 297.774 134.658 302.874 138.709 302.423C137.659 305.424 140.359 307.149 143.058 308.123C141.334 307.299 139.459 306.323 138.859 307.373C137.358 306.061 134.359 306.549 133.608 307.224C131.622 306.586 129.707 307.074 128.809 309.473C126.108 311.124 124.309 315.323 126.258 318.474C126.858 315.174 129.108 315.324 130.008 313.974C132.109 314.724 134.209 314.724 134.809 313.373C136.009 314.574 140.058 315.624 141.858 313.824C142.534 316.523 144.858 318.774 147.559 318.774C146.808 320.873 148.908 324.474 150.559 326.274C148.008 327.623 148.759 330.624 149.359 332.424C145.459 333.023 148.759 336.473 142.009 338.723C145.307 339.773 151.758 338.723 152.659 334.673C155.959 334.524 158.209 331.224 158.058 327.772C160.608 325.373 160.983 321.923 157.458 319.523C160.459 320.423 162.109 315.624 166.459 317.574C168.622 318.544 174.333 316.898 174.257 314.873C175.158 316.373 180.632 315.774 181.384 313.224C183.184 314.199 187.385 312.548 187.309 310.074C189.634 311.124 192.783 309.249 192.634 306.849C194.808 306.549 195.033 304.598 194.883 302.949C196.834 302.048 196.308 300.174 195.559 297.924C196.908 296.424 196.308 294.324 195.258 292.374C196.758 290.873 196.458 289.074 196.009 286.974C203.209 286.374 212.228 284.637 232.908 278.274C264.108 268.674 272.508 291.174 265.608 305.274C257.647 321.543 266.508 325.074 263.808 337.225C260.958 337.825 259.458 340.224 259.608 342.775C257.921 342.848 256.721 344.423 257.321 347.424C255.896 347.162 254.058 347.574 252.858 348.773C251.808 346.824 248.358 346.374 246.558 348.624C242.659 348.323 240.708 351.474 240.858 355.374C238.759 359.124 239.509 363.7 241.758 366.623C241.533 365.049 241.758 362.799 241.832 361.45C241.972 358.967 245.433 358.449 245.058 356.424C246.858 356.573 248.583 355.599 249.183 354.25C250.233 355.149 251.733 355.45 253.008 354.999C250.983 355.9 249.408 359.499 250.008 361.898C248.958 363.7 249.183 367 250.458 368.424C251.058 371.348 253.308 372.398 256.233 371.123C254.583 370.075 253.983 368.199 254.058 366.623C255.108 365.724 255.633 363.998 255.708 362.948C258.633 363.398 262.683 360.923 263.43 359.945C269.873 359.945 275.097 365.169 275.097 371.614C275.397 369.213 278.433 366.848 278.058 364.823C279.858 359.273 277.308 354.098 269.958 353.05C270.857 350.949 267.708 348.773 268.908 346.374C270.44 343.308 273.257 339.323 277.457 334.674C274.907 330.323 275.657 324.474 277.157 320.874C279.311 315.704 281.357 316.974 289.007 325.374C301.475 339.063 318.107 335.274 332.807 344.274C336.713 346.665 340.607 347.574 336.407 343.374C332.208 339.175 321.107 334.975 313.908 331.374C300.425 324.632 289.008 313.374 284.508 291.475C273.933 240.012 235.011 256.975 210.411 266.575C187.316 275.588 191.511 255.174 203.212 242.875C217.274 228.091 214.461 216.476 207.861 207.175C196.012 205.525 173.285 209.65 177.861 213.626L177.858 213.624Z" fill="white" stroke="black" stroke-width="0.242733"/>
<path d="M136.081 340.046C128.991 340.046 123.243 334.3 123.243 327.21C123.243 320.121 128.992 314.373 136.081 314.373C143.17 314.373 148.918 320.12 148.918 327.21C148.918 334.3 143.17 340.046 136.081 340.046Z" fill="white" stroke="black" stroke-width="0.242733"/>
<path d="M185.056 214.221C187.906 226.821 185.506 232.521 181.305 238.07C172.626 249.541 165.706 275.72 175.606 292.818" stroke="black" stroke-width="0.242733"/>
<path d="M170.058 278.048C168.859 277.598 166.609 276.174 166.083 273.698M169.159 272.574C168.785 270.399 165.41 269.462 165.335 267.137M169.085 264.095C169.31 261.844 165.709 259.82 166.235 257.57M171.032 255.997C171.333 254.722 168.033 252.322 168.932 250.298M173.506 248.124C174.181 246.699 171.931 245.049 172.906 243.549M177.107 241.82C177.332 240.845 175.944 238.708 176.694 237.433M180.709 234.398C180.41 234.023 179.208 233.123 179.698 231.999M183.183 228.961C182.695 228.699 181.234 228.249 181.42 227.162" stroke="black" stroke-width="0.242733" stroke-linecap="round"/>
<path d="M258.258 370.37C261.258 369.32 265.008 370.821 265.758 373.372M263.508 375.696C263.133 373.147 259.233 372.021 258.034 373.22C260.509 371.871 261.709 376.67 259.534 376.822M239.356 316.373C241.156 317.273 241.68 320.573 239.356 323.049M236.659 317.123C237.932 318.173 237.858 321.323 235.983 322.073C237.558 320.948 235.983 318.998 234.857 318.923C233.731 318.848 232.984 320.198 234.333 321.548M131.282 324.545C135.481 323.42 138.857 328.295 135.033 332.646C135.106 328.445 132.107 325.671 128.432 326.42M130.122 329.325C131.155 329.325 131.735 330.132 131.735 330.918C131.735 331.744 131.023 332.532 129.86 332.532C129.109 332.532 128.509 331.67 128.509 330.994M115.311 237.245C114.636 239.795 111.11 240.845 108.336 240.245M108.337 238.596C110.511 238.671 112.311 236.646 112.161 234.921C112.161 236.196 109.235 236.796 108.337 235.971" stroke="black" stroke-width="0.242733" stroke-linecap="round" stroke-linejoin="round"/>
<path d="M257.209 324.247C257.809 322.747 255.409 321.247 255.334 319.821C255.259 318.395 252.634 317.271 249.934 319.971M251.208 303.999C251.734 304.224 252.184 304.524 252.634 304.674M246.032 312.171C246.67 312.209 247.982 312.134 248.695 311.646M248.655 315.022C249.18 315.285 250.343 315.735 251.018 315.885M274.382 360.321C274.457 361.672 273.107 363.621 272.357 364.221M268.53 357.097C269.281 358.222 269.73 360.172 269.281 361.521M257.358 361.598C258.708 360.697 257.808 358.372 257.958 356.873C258.108 355.374 256.384 352.973 253.008 354.998M269.956 353.049C268.606 352.824 267.181 352.897 266.281 353.272M252.858 348.772C253.458 349.596 253.608 350.497 253.682 351.097M246.559 348.623C247.609 348.623 248.509 349.372 248.959 350.123M261.109 310.223C259.909 310.636 256.796 312.548 256.684 314.536M248.357 300.472C252.032 300.397 253.457 296.647 250.682 296.647M241.755 305.495C243.18 306.095 242.505 308.569 240.48 309.77M250.533 329.046C251.246 328.146 250.308 325.522 247.983 326.308M245.059 356.422C244.91 354.135 242.021 352.784 240.858 355.372M255.709 362.944C255.897 360.432 254.622 359.608 253.497 359.458C252.372 359.308 250.759 360.244 250.009 361.894M278.058 364.822C277.908 363.322 276.633 361.747 275.283 361.972M140.809 298.222C141.786 298.935 142.422 302.121 138.711 302.422M146.507 303.473C146.507 303.848 146.02 304.373 145.719 304.598M128.808 309.473C129.783 308.723 132.296 311.761 130.008 313.973M152.657 334.674C153.22 332.536 151.232 331.973 149.357 332.423M157.456 319.523C156.332 318.773 155.206 317.948 153.781 317.573M158.057 327.769C158.057 325.97 157.158 324.471 156.333 324.02M151.46 307.074C151.609 309.249 150.708 311.349 150.033 312.474M133.607 307.223C134.695 307.561 135.671 307.973 136.082 308.873M134.809 313.373C134.282 312.923 133.683 312.398 133.42 312.023M106.459 247.896C106.459 249.995 109.083 251.121 110.807 249.77M100.756 247.97C99.5952 248.87 95.5829 248.008 96.5203 245.683M105.634 260.046C106.459 259.896 107.884 258.996 108.484 258.246M97.3831 253.822C98.7323 254.122 99.6334 253.822 100.309 253.522M118.684 261.323C117.935 261.323 116.135 261.023 114.896 260.385M120.934 248.049C121.909 247.938 122.623 248.124 123.185 248.499M105.82 251.721C106.083 252.658 106.758 254.12 107.583 254.758" stroke="black" stroke-width="0.242733" stroke-linecap="round"/>
<path d="M123.483 255.023C121.608 254.199 119.282 260.573 114.782 258.323M114.407 251.72C115.007 252.545 115.382 253.82 115.457 254.945" stroke="black" stroke-width="0.242733" stroke-linecap="round" stroke-linejoin="round"/>
<path d="M204.107 241.974C203.507 241.899 202.457 241.674 202.232 240.923M281.283 311.798C279.032 313.073 277.458 315.248 278.433 318.473M178.161 235.074C177.485 235.524 174.935 235.524 173.51 234.999M171.708 236.574C171.784 237.624 171.483 241.599 173.508 242.424M172.757 241.899C170.881 242.499 167.131 242.274 165.931 238.824M168.559 241.745C167.584 243.246 167.286 246.17 170.209 247.745M167.809 244.224C165.634 244.974 160.609 245.049 161.135 240.774M162.856 244.224C161.356 246.324 154.755 248.799 155.806 244.449M168.932 250.295C166.383 250.895 162.782 249.169 164.282 244.67M157.084 246.921C156.709 248.647 148.31 250.446 149.433 246.546M151.009 248.799C149.432 252.399 141.108 252.099 143.733 247.299M145.082 251.045C143.432 253.07 136.081 251.869 139.006 246.995M139.086 250.97C134.511 254.42 129.186 249.47 134.961 245.87M132.335 249.847C128.284 253.072 123.334 247.222 126.859 245.572M164.361 248.496C163.086 248.871 160.386 248.721 159.786 246.396M160.797 247.97C160.946 251.382 155.208 252.695 153.747 248.757M155.658 250.896C154.608 253.146 149.584 254.045 148.759 250.821M149.583 252.321C148.758 254.571 144.408 254.346 143.208 252.021M144.784 253.523C143.435 256.448 137.885 256.448 136.61 252.173M137.581 254.045C135.407 255.395 130.756 254.87 131.132 250.67M132.033 253.672C128.809 256.298 124.232 253.747 126.482 249.322M126.707 257.12C124.982 256.82 124.083 253.37 125.883 252.47M166.681 257.721C163.082 255.771 162.407 252.471 164.882 249.246M163.606 254.422C161.356 255.772 157.082 254.348 156.332 251.047M160.531 254.795C159.258 256.445 159.033 258.47 160.683 260.345M159.483 256.896C155.509 254.421 150.559 258.997 154.234 261.771M154.908 256.673C154.008 256.448 152.433 254.798 152.284 252.923M153.11 258.396C151.459 256.671 140.208 260.197 147.334 263.796M147.859 253.672C145.685 254.497 144.559 257.572 147.859 258.622M145.008 261.173C142.608 258.698 135.107 260.273 137.808 263.424M139.608 260.195C138.259 255.62 130.234 258.47 132.858 260.345M141.257 255.62C141.032 256.52 140.958 258.77 142.457 259.97M134.506 254.721C134.207 255.471 134.281 256.895 134.957 257.795M129.41 254.795C128.959 255.62 128.21 257.195 129.86 258.47M193.606 220.295C193.532 224.57 192.031 227.42 186.256 224.721M191.807 225.397C194.657 229.222 191.433 233.347 185.807 229.222M200.585 227.27C196.685 231.47 189.71 228.395 194.21 222.02M189.482 230.871C190.234 234.996 186.858 235.821 184.083 233.946M204.032 227.945C203.322 232.092 199.082 235.37 194.957 232.821M198.931 233.648C198.931 239.573 190.756 240.248 188.881 234.098M191.807 237.846C189.183 243.246 183.483 241.071 181.608 237.771M197.584 229.222C196.534 231.847 194.433 234.772 189.559 232.597M212.582 227.945C211.906 230.12 208.006 232.746 203.506 229.745M209.809 230.722C212.211 234.247 207.41 237.547 201.635 232.297M206.958 235.074C205.983 240.024 204.035 243.999 196.984 237.624M200.51 240.171C197.959 243.32 194.059 245.27 190.385 239.946" stroke="black" stroke-width="0.242733"/>
<path d="M187.684 241.07C187.909 244.82 187.16 246.695 184.234 246.545C181.928 246.427 179.734 244.595 178.459 242.645M184.758 246.549C184.834 250.824 181.459 254.199 175.159 249.849M182.135 251.571C183.335 254.796 179.736 260.046 172.685 257.346M197.058 243.022C197.506 247.147 193.682 249.922 187.532 244.597M194.057 247.597C193.832 250.972 190.008 255.022 184.382 249.172M191.36 251.874C191.81 257.649 186.485 259.299 181.985 254.874M199.382 247.597C198.183 247.672 197.208 246.622 196.608 245.872M196.834 251.795C195.784 252.02 193.983 251.045 193.383 249.845M194.206 258.62C193.007 259.895 188.957 258.995 188.433 257.27M189.706 258.546C187.455 263.795 181.457 263.57 178.982 257.646M180.108 259.748C178.984 262.823 176.133 264.772 171.483 263.723M177.858 262.897C180.482 267.172 177.033 272.197 171.184 267.247M176.432 269.271C176.731 271.97 174.257 275.045 170.882 275.42M187.535 261.397C188.435 267.472 184.085 270.397 178.609 267.172M193.908 264.323C192.483 265.448 189.933 265.598 187.533 264.698M184.609 268.222C185.96 273.323 180.709 276.998 176.209 271.297M191.881 265.147C191.806 267.772 189.255 270.622 184.831 269.797M172.458 275.048C175.46 277.073 176.06 280.672 171.858 282.997M179.81 273.995C179.659 277.07 178.234 278.795 174.86 279.095M184.231 272.42C188.731 276.545 184.307 281.345 178.982 277.295M181.082 278.57C182.582 283.295 176.957 286.145 173.957 281.345M190.381 268.52C192.031 273.17 189.931 276.246 186.107 275.946M196.307 267.621C196.082 270.396 193.683 271.371 190.983 270.771M194.584 270.547C196.608 274.447 193.534 276.547 189.482 275.047M177.182 283.746C177.858 286.221 177.483 288.021 173.808 288.846M176.959 287.273C181.385 289.298 181.759 293.573 178.31 296.348M180.523 282.511C182.846 284.612 182.398 288.248 179.847 289.674M200.207 268.823C202.758 271.336 200.32 278.273 194.696 274.486M185.583 277.596C189.034 280.446 187.458 285.621 181.758 284.196M191.285 275.42C193.084 280.521 191.359 282.32 187.31 282.395M203.958 268.595C207.032 270.92 206.208 274.22 204.857 275.72C203.506 277.22 200.958 276.545 200.133 274.595M210.41 266.573C213.86 270.998 210.41 276.248 205.534 274.673M191.956 279.697C195.481 280.973 198.17 284.173 196.007 286.972C194.732 288.623 189.182 288.848 187.607 282.472M198.334 275.57C200.359 278.494 199.685 281.27 195.935 282.694M198.558 281.048C200.734 282.249 202.159 283.674 201.633 286.299M203.431 276.473C204.256 279.998 203.282 282.174 201.108 283.223M203.506 280.671C206.881 280.446 208.605 281.871 207.481 285.171M207.182 281.496C210.481 280.296 211.008 277.446 209.583 274.446M210.033 278.873C213.634 279.023 215.208 280.823 215.208 283.298M214.911 264.845C217.535 265.97 218.36 269.494 217.386 271.444C216.412 273.395 213.335 273.545 211.459 272.269M222.258 262.072C224.657 264.772 221.883 270.023 217.607 268.747M228.408 259.971C230.658 263.121 228.183 268.371 222.408 266.871M222.109 281.496C222.709 277.745 218.809 275.271 214.008 280.146M216.332 272.574C217.756 273.849 218.43 275.874 218.207 277.524M234.558 258.173C237.033 262.373 234.031 266.198 228.707 264.698M220.683 268.595C224.209 272.12 223.009 275.645 220.384 277.67M222.934 272.723C228.258 272.797 228.557 278.948 224.207 280.898M226.982 266.573C229.157 268.073 229.832 272.198 226.082 273.848M227.131 275.798C229.382 274.748 232.081 276.023 231.856 278.648M230.509 275.872C232.534 271.072 238.459 271.897 237.932 276.847M228.86 269.946C230.133 270.171 232.684 270.921 233.658 272.871M233.281 264.546C235.68 267.246 233.808 270.471 231.856 271.146M240.405 256.971C240.855 260.196 239.58 261.771 235.53 261.471M238.984 261.099C240.56 264.998 238.46 266.724 234.41 266.499M238.084 265.897C240.484 268.747 238.834 271.823 236.51 273.097M239.207 269.499C243.482 268.974 244.157 273.924 242.733 276.249" stroke="black" stroke-width="0.242733"/>
<path d="M242.66 256.598C245.283 257.723 246.784 261.023 245.358 263.048C243.933 265.073 241.083 264.398 239.509 263.348M244.458 263.945C246.633 267.245 244.683 269.72 242.358 270.695" stroke="black" stroke-width="0.242733"/>
<path d="M252.857 256.221C254.582 258.02 253.533 261.696 249.333 261.771C245.951 261.832 244.233 258.621 245.282 256.371M249.932 261.77C251.281 264.77 250.457 267.994 245.357 267.469M243.181 272.196C246.33 270.772 250.531 272.196 248.731 275.947M249.182 266.871C250.457 268.671 250.006 271.221 248.582 272.796M249.405 271.67C251.505 272.045 253.53 273.17 252.255 276.47M252.559 273.771C255.259 272.946 258.709 274.896 256.609 277.671M257.055 275.048C259.38 274.673 262.155 277.147 259.905 279.623M260.806 277.596C262.906 278.121 265.381 280.521 263.206 282.396M250.23 265.823C253.23 267.173 253.53 270.548 252.105 273.023M253.384 259.598C257.884 261.324 257.809 267.324 252.859 269.198M254.959 267.845C257.659 269.42 258.184 272.42 256.383 274.37M259.683 257.348C261.483 257.948 261.333 263.498 256.533 263.348M264.631 259.221C268.231 261.621 263.881 267.696 258.031 263.346M261.258 264.844C261.783 267.32 261.108 270.02 257.133 270.32M261.034 268.148C263.884 269.197 264.409 275.048 259.234 275.498M270.105 262.822C273.78 266.197 267.105 269.122 264.63 264.248M275.207 268.446C277.007 270.621 270.707 276.321 267.932 266.796M267.258 266.647C267.108 268.898 265.758 270.247 262.984 270.398M263.056 272.574C267.481 273.249 268.906 278.799 263.956 279.999M271.232 271.824C271.383 273.923 269.208 275.649 266.732 275.274M264.482 279.846C268.532 280.746 269.057 285.996 265.456 285.696M267.333 290.571C270.708 289.559 270.783 285.546 267.783 284.046" stroke="black" stroke-width="0.242733"/>
<path d="M270.106 287.045C272.956 288.77 271.831 292.895 270.331 293.495C268.831 294.095 267.631 293.345 267.48 292.07M267.706 297.845C267.406 299.794 274.644 299.045 270.931 292.97M270.972 298.185C273.409 302.01 269.435 305.122 266.922 301.86M270.632 302.797C271.607 305.872 267.895 308.085 265.495 305.685M278.734 273.995C280.084 276.77 273.334 277.82 272.884 272.12M280.607 278.123C281.957 283.523 271.757 282.398 274.382 275.423M274.159 279.022C272.734 279.847 268.459 279.923 267.409 275.347M270.483 279.171C270.183 280.596 268.908 282.321 267.708 282.846M275.356 280.597C275.807 283.522 272.882 285.922 269.507 285.697M274.835 283.448C276.484 285.699 277.009 290.048 271.834 290.348M282.708 284.198C283.533 286.523 278.658 288.924 275.808 285.099M284.209 290.12C284.621 291.883 280.233 294.245 277.759 286.745M279.708 290.572C278.658 292.447 275.133 293.947 272.958 290.272M276.484 292.524C277.384 295.149 274.909 297.624 271.909 296.874M282.107 291.923C282.707 295.673 278.357 297.848 275.657 295.898M284.959 293.572C286.233 298.373 280.083 300.172 277.759 296.572M279.331 297.998C279.106 300.698 274.905 303.023 271.606 300.773M286.832 300.249C287.132 301.448 282.106 302.649 281.357 298.448M283.906 301.297C282.706 304.372 278.656 305.122 276.331 301.372M277.681 302.872C277.156 305.722 273.481 307.297 270.256 305.347M268.908 306.473C269.733 310.298 265.759 313.373 263.284 311.273M275.282 305.798C276.482 309.998 271.232 312.397 268.307 310.073M281.581 303.696C281.881 307.596 278.806 309.921 275.281 308.196M288.257 304.074C289.307 306.624 283.757 308.723 281.132 306.549M291.709 311.048C290.284 312.698 285.335 311.048 284.885 307.373M286.231 310.07C284.431 312.17 280.156 313.295 278.43 308.795M279.932 311.123C280.007 314.348 274.231 316.673 272.357 310.748M265.573 311.91C266.098 313.485 264.86 315.997 262.273 316.297M270.334 310.936C270.709 312.736 268.084 315.248 265.309 314.236M264.781 314.985C265.531 316.935 264.893 319.747 262.268 319.71M264.52 318.624C266.469 320.273 265.645 323.199 262.832 323.312M265.531 321.396C268.306 323.27 267.33 327.395 263.656 327.172M273.931 313.448C273.931 317.498 268.906 318.097 267.931 314.348M269.882 316.746C270.632 319.146 268.683 321.471 265.608 320.796M269.281 345.697C268.606 346.673 265.831 345.023 266.581 343.374C267.331 341.724 270.271 342.62 269.956 344.348M267.259 342.697C266.884 339.397 270.784 338.872 271.759 341.722M270.334 340.074C269.359 338.423 272.659 336.174 274.009 338.573M272.808 337.595C271.908 335.194 275.658 334.145 275.958 336.32M276.782 333.169C276.332 331.969 272.132 332.718 273.932 335.194M270.707 338.196C269.057 336.696 271.831 333.621 273.557 334.746M259.609 342.771C260.922 342.92 262.272 343.782 261.297 346.559C260.621 348.484 257.734 348.583 257.322 347.421" stroke="black" stroke-width="0.242733"/>
<path d="M261.519 344.159C262.794 343.334 265.569 344.722 264.294 347.422C263.334 349.455 260.919 348.622 260.544 347.571M268.684 348.021C268.047 349.145 264.86 348.659 264.297 347.421M266.508 344.308C265.833 343.857 264.596 344.418 264.334 344.982M266.732 325.821C268.907 327.246 267.557 331.596 264.182 330.471M267.408 329.348C269.133 330.697 267.558 334.898 264.333 333.323M266.881 333.322C268.081 334.522 266.918 337.859 263.806 337.222M267.333 334.971C268.009 334.67 269.771 334.895 270.521 336.02M269.281 319.783C270.93 321.358 270.143 324.584 267.068 324.845M269.882 323.082C272.245 324.244 272.245 328.93 267.519 329.119M270.068 328.369C271.38 329.42 270.743 333.469 267.368 332.943M268.982 332.796C269.47 333.283 269.545 334.521 269.132 335.046M270.483 331.258C271.682 331.295 273.257 332.159 273.671 333.396M275.845 329.045C275.395 327.845 271.682 327.921 271.42 331.446M271.046 327.247C271.571 327.359 272.584 327.847 272.846 328.86M272.658 316.261C274.271 317.723 275.058 322.336 270.146 323.235M275.92 325.784C275.92 324.545 272.582 323.495 271.419 325.333M278.058 319.07C277.571 320.008 275.246 321.283 273.821 320.233M290.134 311.723C290.209 313.898 288.409 315.848 285.934 315.548C283.459 315.248 282.934 313.073 283.684 311.648M285.559 315.623C287.209 317.647 285.184 320.498 283.309 319.673M283.681 314.197C282.706 313.822 279.481 313.372 278.506 314.872M294.108 314.798C294.858 315.923 290.208 317.048 288.633 314.872M290.209 315.995C290.359 317.495 289.609 320.045 285.784 318.996" stroke="black" stroke-width="0.242733"/>
<path d="M285.182 321.321C284.582 320.046 287.432 317.946 289.607 320.271C291.782 322.596 289.307 325.221 287.957 324.321M295.157 316.299C296.282 318.249 291.932 321.812 289.457 318.512M298.045 319.672C299.62 321.285 297.67 324.247 295.308 323.347C292.945 322.447 293.17 319.972 293.733 319.335" stroke="black" stroke-width="0.242733"/>
<path d="M301.083 322.672C302.358 323.834 301.12 326.571 299.357 326.571C297.594 326.571 296.507 325.185 296.845 323.422M293.922 322.448C294.147 324.173 291.597 325.373 289.947 323.762M289.868 320.608C289.643 320.233 289.831 319.595 290.205 319.295M303.817 324.997C305.279 326.16 302.129 329.384 300.142 326.421M292.533 324.358C293.471 325.258 291.971 327.62 290.471 326.907M297.668 326.008C297.443 327.619 294.293 328.818 292.305 326.345M295.944 327.62C296.431 328.633 295.456 330.246 294.256 330.021M266.094 336.886C267.256 339.173 263.544 341.837 260.844 339.061M263.396 340.297C263.959 341.533 263.283 343.259 262.271 343.896M266.918 342.883C266.656 341.756 265.044 340.707 263.581 341.232M268.87 339.919C268.645 338.908 267.296 337.895 266.283 338.158M180.56 293.12C185.884 293.195 183.635 301.745 179.059 300.02M182.283 299.424C183.334 301.149 181.309 303.886 179.059 302.274M179.656 302.61C181.232 305.235 175.606 309.248 173.356 305.122M175.155 306.696C175.082 309.172 167.881 310.746 168.929 305.796M169.606 308.495C167.883 311.42 161.432 311.72 162.107 307.369M163.531 310.372C162.18 312.322 155.881 313.522 156.106 309.472M189.109 285.698C188.21 288.023 185.135 288.848 181.759 287.498M191.056 287.348C188.956 288.697 192.031 294.848 195.255 292.372M191.056 291.173C188.731 292.298 185.881 291.473 185.056 288.172M186.481 290.721C186.256 292.446 183.781 293.796 180.556 293.12M192.258 292.524C189.257 295.074 193.608 300.324 195.558 297.923M191.131 294.471C189.706 295.521 186.031 294.921 185.657 292.146M187.306 294.471C187.005 296.271 185.58 296.946 183.555 297.021M191.955 296.945C190.457 299.045 186.706 299.645 185.056 296.87M182.283 301.67C184.609 302.12 186.859 300.47 186.709 298.445C186.408 301.295 189.933 302.795 192.184 301.52M194.881 302.946C192.932 303.92 190.832 300.246 192.482 297.696M192.631 306.845C190.305 306.995 190.007 303.47 192.181 301.52M187.306 310.069C185.355 309.619 185.957 305.344 190.682 304.969M181.384 313.223C179.509 312.698 181.01 307.973 186.183 308.273M174.256 314.873C172.983 312.923 177.182 309.623 180.631 311.348M170.734 317.57C168.408 318.245 166.834 312.096 174.183 313.07M166.457 317.57C164.43 317.045 163.006 313.37 168.93 314.57M161.956 317.873C160.157 318.773 159.332 313.523 164.808 314.948M187.609 300.924C186.857 302.273 187.158 304.899 188.583 305.573M187.385 304.073C185.885 304.673 183.86 304.148 182.66 301.748M184.757 304.073C184.309 305.123 184.157 307.223 185.134 308.273M184.38 305.872C182.73 306.772 180.781 305.572 179.956 303.846M181.007 305.345C179.807 306.095 178.757 309.62 180.782 311.045M179.656 309.398C178.231 309.473 176.13 309.473 174.781 307.673M175.756 308.648C174.481 309.023 172.982 311.124 173.506 312.998M173.431 312.32C172.004 312.17 169.532 311.194 168.856 309.47M169.532 310.596C168.33 311.271 167.505 312.696 167.657 314.346M167.659 313.144C166.234 313.07 164.959 312.32 164.584 310.744M164.957 311.798C163.907 312.173 162.631 313.373 162.555 314.798M162.706 313.894C161.656 313.744 160.907 313.07 160.231 312.019M157.381 311.872C156.03 313.223 157.83 317.723 160.605 316.898M186.183 220.971C188.959 222.621 196.835 222.096 192.935 215.571M185.433 216.545C190.907 218.72 197.659 214.52 190.608 209.945M192.482 208.448C197.057 208.448 200.132 215.798 193.981 218.348M210.256 211.523C211.456 213.848 207.181 216.397 204.256 214.073C201.99 212.271 202.157 207.398 203.506 205.522M212.581 217.072C214.081 222.021 203.055 222.321 204.781 214.446M213.182 224.423C212.807 228.173 202.606 226.973 205.908 219.398M204.707 217.295C203.882 218.42 201.632 220.37 197.808 219.995M202.909 211.97C202.571 213.32 200.284 214.37 197.358 213.358M305.243 326.082C307.83 327.921 303.855 330.807 302.393 327.62M307.27 327.508C309.857 329.344 305.882 332.231 304.42 329.043M309.408 328.896C311.996 330.735 308.021 333.621 306.558 330.434M311.658 330.173C314.134 331.485 311.246 334.71 308.734 331.859M314.095 331.412C316.57 332.723 313.682 335.949 311.17 333.099M301.53 327.545C301.568 329.457 297.93 330.246 296.618 327.394M299.242 329.311C300.367 330.736 298.304 332.499 297.179 331.859M304.083 329.045C304.196 330.658 301.046 331.596 299.508 329.834M302.354 330.737C303.367 332.049 301.38 333.811 300.104 333.285M306.18 330.508C306.068 331.783 304.267 333.245 302.317 332.42M305.019 332.232C305.77 332.908 305.394 334.484 304.344 334.972M308.919 332.12C309.219 333.283 307.231 335.347 305.206 333.996M308.509 333.471C309.709 334.409 309.559 335.833 308.022 336.02M311.393 333.322C311.543 334.109 310.53 335.384 309.255 335.234M317.808 333.248C319.008 333.885 315.933 337.147 314.021 334.11M320.771 334.594C322.272 335.308 318.558 338.907 316.909 335.232M311.057 334.445C312.22 334.707 312.97 336.396 311.995 337.069M314.845 335.046C314.995 335.722 313.57 336.845 312.407 336.434M315.819 335.349C316.944 336.062 316.344 338.047 315.032 337.748M319.83 336.658C320.88 337.445 320.168 339.02 318.705 338.646M317.92 336.546C317.882 336.958 316.945 337.596 316.157 337.335M323.469 335.871C324.781 336.434 324.706 339.734 320.281 337.935M326.432 337.185C328.27 338.085 327.67 340.56 323.657 338.198M323.32 338.387C323.807 338.761 324.332 340.411 322.495 339.773M326.693 339.169C327.443 339.845 326.955 341.233 325.305 340.707M330.555 339.398C331.905 340.186 328.943 341.236 326.955 339.135M329.656 340.371C330.256 340.971 330.256 342.733 328.681 342.097M333.481 341.084C334.381 341.76 332.844 342.66 330.031 341.422M332.358 342.058C333.408 342.92 333.296 344.007 331.758 343.669M335.47 342.547C336.633 343.597 334.945 344.31 332.921 343.446M335.433 343.712C337.421 344.611 336.558 346.26 335.321 345.624M269.057 349.447C269.518 350.439 268.007 351.246 266.581 351.022C265.213 350.806 263.904 349.678 264.932 348.098M264.859 350.048C263.509 351.098 261.109 349.899 261.109 348.322" stroke="black" stroke-width="0.242733"/>
<path d="M182.135 191.121C188.135 188.12 200.584 182.571 204.11 187.071C200.886 185.721 191.436 187.146 183.636 194.346L182.135 191.121Z" fill="white" stroke="black" stroke-width="0.242733"/>
<path d="M178.496 190.804C185.434 182.722 189.521 184.531 194.509 181.748C199.195 179.132 206.659 178.598 208.106 182.757C201.259 179.423 194.973 184.55 191.112 185.171C185.809 186.022 182.815 190.123 181.264 192.008L178.496 190.804ZM152.359 189.77C155.961 181.52 163.659 183.675 167.06 180.17C172.008 175.07 184.533 170.345 189.709 173.87C178.31 173.27 173.455 181.728 167.359 184.67C163.009 186.77 158.359 191.27 152.359 189.77ZM165.856 188.871C172.006 181.221 181.458 174.471 185.806 177.021C180.107 177.321 178.307 181.296 174.256 183.846C170.204 186.395 172.006 190.07 165.856 188.871ZM195.11 202.372C201.561 199.973 214.16 198.772 220.01 206.123C210.259 207.772 195.56 206.873 195.11 202.372Z" fill="white" stroke="black" stroke-width="0.242733"/>
<path d="M196.307 205.224C202.758 202.224 207.795 206.415 213.858 205.824C225.406 204.699 233.656 205.374 234.707 210.924C228.106 204.999 217.006 209.874 212.507 208.674C208.007 207.474 191.357 208.524 186.107 210.774C188.808 207.474 193.006 206.574 196.307 205.224ZM176.059 188.047C177.558 183.096 177.484 177.847 170.059 178.222C171.934 175.897 178.833 174.697 179.959 183.397C188.134 177.397 197.059 176.347 198.708 181.522C194.509 177.922 187.984 180.547 180.184 189.397C179.509 189.022 177.709 188.272 176.059 188.047L176.059 188.047ZM187.306 194.872C191.955 191.872 198.256 186.997 187.23 185.047C191.955 182.497 198.856 183.622 198.105 192.322C210.705 187.222 219.754 188.943 221.656 193.972C223.757 199.522 215.954 202.597 214.605 199.072C216.031 199.672 220.905 198.022 218.356 194.872C215.807 191.722 202.737 194.087 190.305 200.572C186.856 202.372 175.006 202.072 187.306 194.872ZM190.609 203.123C194.196 195.798 205.834 202.448 208.179 195.353C211.385 205.748 191.63 199.996 190.609 203.123ZM116.582 211.071C114.143 212.284 112.032 210.378 115.765 208.882C113.323 210.094 111.193 208.234 114.927 206.738C112.484 207.95 110.355 206.089 114.088 204.594C115.084 205.596 116.509 209.271 116.582 211.071ZM115.311 196.973C109.91 191.273 115.759 189.323 109.161 183.473C103.76 178.687 108.13 175.497 103.009 171.773C101.359 170.574 97.7598 168.173 97.4588 165.773C95.2845 171.173 104.211 171.923 103.61 180.623C103.228 186.163 106.973 185.679 108.409 195.023C108.71 196.973 110.059 201.323 115.311 196.973Z" fill="white" stroke="black" stroke-width="0.242733"/>
<path d="M112.907 199.521C109.908 193.071 106.464 193.195 104.809 190.672C101.658 185.872 94.9837 191.496 89.358 187.222C90.3326 193.297 97.9072 191.121 101.207 195.022C104.507 198.922 107.207 200.722 112.907 199.521Z" fill="white" stroke="black" stroke-width="0.242733"/>
<path d="M112.157 201.622C106.906 197.422 103.037 200.225 99.4069 198.022C90.2576 192.472 86.5812 199.147 78.4066 196.522C80.5823 201.772 92.6575 197.272 97.9063 201.172C103.155 205.072 121.607 208.822 112.157 201.622ZM127.457 231.547C127.533 229.147 129.783 226.072 132.933 225.697C136.084 225.323 137.433 222.022 139.832 221.872C142.232 221.722 143.808 216.922 147.108 216.997C150.409 217.072 151.758 221.347 144.033 225.247C136.309 229.147 127.758 233.647 127.457 231.547ZM137.208 233.574C140.508 233.724 140.959 238.524 144.107 238.674C139.759 240.999 136.608 237.624 134.359 234.624L137.208 233.574Z" fill="white" stroke="black" stroke-width="0.242733"/>
<path d="M134.506 234.171C137.355 236.571 138.181 241.596 134.055 243.021C136.53 239.608 129.705 238.07 131.805 234.921L134.506 234.171Z" fill="white" stroke="black" stroke-width="0.242733"/>
<path d="M131.66 234.324C133.91 238.674 128.134 239.199 129.635 242.499C126.335 241.749 125.809 235.524 128.81 233.874L131.66 234.324Z" fill="white" stroke="black" stroke-width="0.242733"/>
<path d="M153.71 225.02C148.31 224.72 143.371 227.642 140.06 232.37C137.959 235.37 130.91 236.57 128.509 234.17C126.108 231.77 127.459 226.67 133.459 228.32C134.959 225.77 139.31 226.67 141.409 224.57C143.508 222.47 151.61 216.471 153.71 225.02Z" fill="white" stroke="black" stroke-width="0.242733"/>
<path d="M133.458 228.323C134.883 228.623 135.333 231.098 134.435 232.373L133.458 228.323ZM130.383 229.823C129.933 230.573 130.234 231.623 130.459 232.148L130.383 229.823ZM145.157 225.248C142.383 225.398 141.857 227.423 138.857 228.173L145.157 225.248Z" fill="white"/>
<path d="M133.458 228.323C134.883 228.623 135.333 231.098 134.435 232.373M130.383 229.823C129.933 230.573 130.234 231.623 130.459 232.148M145.157 225.248C142.383 225.398 141.857 227.423 138.857 228.173" stroke="black" stroke-width="0.242733" stroke-linecap="round"/>
<path d="M146.992 218.423C137.408 220.823 129.804 222.923 125.088 225.623C120.373 228.323 113.072 229.073 106.684 227.273C100.295 225.473 87.976 223.823 88.5835 231.773C85.2346 227.798 89.4957 223.523 98.0142 222.773C97.8604 218.873 102.035 215.348 105.036 217.672C102.26 217.298 99.8643 222.473 105.339 224.572C104.275 220.673 108.154 217.147 112.184 218.873C109.598 219.623 106.983 223.959 112.768 225.622C116.419 226.673 121.742 225.323 125.696 222.923C129.651 220.522 151.858 211.823 146.992 218.423Z" fill="white" stroke="black" stroke-width="0.242733"/>
<path d="M122.807 214.523C125.807 215.873 123.858 219.023 128.507 220.823C133.156 222.623 136.382 226.748 135.332 230.273C132.181 223.373 126.632 223.673 124.683 220.973C122.734 218.273 119.882 214.298 122.807 214.523Z" fill="white" stroke="black" stroke-width="0.242733"/>
<path d="M121.983 214.971C122.132 220.446 126.441 218.451 124.758 226.146C124.232 228.546 123.258 232.446 124.908 236.346C120.071 232.821 123.182 225.416 121.008 222.621C119.958 221.272 118.609 219.171 118.083 217.371C119.209 220.521 119.133 226.372 116.058 227.871C118.533 222.021 109.382 217.221 115.683 210.472C116.582 212.122 119.434 215.046 121.983 214.971ZM137.283 209.497C136.531 210.622 135.783 213.472 136.458 215.047C134.957 214.147 132.781 211.822 132.108 210.247C129.033 210.697 127.833 214.522 130.756 216.172C128.957 216.172 125.882 216.172 124.158 214.147C126.256 211.822 132.781 208.222 137.282 209.497H137.283Z" fill="white" stroke="black" stroke-width="0.242733"/>
<path d="M183.933 198.739C184.419 198.296 185.238 197.876 186.707 197.574C191.248 196.643 188.903 192.55 185.038 192.586C176.79 183.587 172.158 190.524 162.108 187.674C158.59 186.677 156.176 186.972 154.259 187.801C149.76 184.801 144.481 185.639 140.655 189.164C140.23 188.488 139.659 187.972 138.858 187.749C135.334 186.771 132.484 189.775 131.51 193.676C128.763 193.166 125.626 194.526 123.563 196.401C120.705 194.934 118.737 194.868 118.013 196.377C115.462 195.177 112.158 194.425 110.508 198.474C108.858 202.524 114.407 201.325 115.308 209.875C115.863 215.149 121.757 217.224 126.408 214.075C133.847 209.035 141.108 208.224 144.708 215.875C148.309 223.525 151.128 227.969 159.858 225.475C163.007 224.574 167.058 225.775 169.607 229.225C172.156 232.675 176.058 229.449 180.707 229.824C174.858 228.925 177.098 227.453 172.006 227.124C167.357 226.824 168.556 222.475 165.557 221.875C177.257 224.875 176.807 220.524 186.406 223.524C182.207 218.125 175.607 221.124 172.307 217.975C181.007 217.825 184.898 212.141 188.807 214.525C194.957 218.275 192.259 228.951 208.307 228.024C216.107 227.574 221.057 228.624 225.707 233.275C217.606 216.475 206.587 225.704 201.256 220.375C198.106 217.225 195.706 214.825 194.057 211.825C193.476 210.769 192.69 210.165 191.708 209.932C205.058 205.732 196.984 199.189 183.933 198.74L183.933 198.739Z" fill="white" stroke="black" stroke-width="0.242733"/>
<path d="M118.018 196.376C117.814 196.798 117.709 197.345 117.709 198.022C117.709 201.321 122.659 201.472 122.958 206.347C123.116 208.897 123.409 210.322 125.134 210.022C126.86 209.722 128.359 207.022 126.709 203.872" fill="white"/>
<path d="M118.018 196.376C117.814 196.798 117.709 197.345 117.709 198.022C117.709 201.321 122.659 201.472 122.958 206.347C123.116 208.897 123.409 210.322 125.134 210.022C126.86 209.722 128.359 207.022 126.709 203.872" stroke="black" stroke-width="0.242733" stroke-linecap="round"/>
<path d="M181.46 193.823C182.702 192.95 183.944 192.596 185.059 192.585L181.46 193.823ZM154.288 187.776C150.317 189.495 148.379 193.621 142.61 193.823C137.056 194.018 133.608 202.073 124.31 196.823C124.057 196.681 123.811 196.548 123.572 196.425M140.656 189.164C141.486 190.483 141.673 192.322 141.446 193.937L140.656 189.164ZM158.808 206.123C165.856 206.123 167.658 209.723 167.658 213.173C167.658 216.623 164.358 221.123 158.507 221.123C152.658 221.123 149.507 217.523 149.507 213.623C149.507 209.723 153.108 206.123 158.808 206.123Z" fill="white"/>
<path d="M181.46 193.823C182.702 192.95 183.944 192.596 185.059 192.585M154.288 187.776C150.317 189.495 148.379 193.621 142.61 193.823C137.056 194.018 133.608 202.073 124.31 196.823C124.057 196.681 123.811 196.548 123.572 196.425M140.656 189.164C141.486 190.483 141.673 192.322 141.446 193.937M158.808 206.123C165.856 206.123 167.658 209.723 167.658 213.173C167.658 216.623 164.358 221.123 158.507 221.123C152.658 221.123 149.507 217.523 149.507 213.623C149.507 209.723 153.108 206.123 158.808 206.123Z" stroke="black" stroke-width="0.242733"/>
<path d="M157.535 220.971C157.684 219.021 161.21 219.321 161.061 217.821C160.911 216.321 159.11 215.721 159.11 213.621C159.11 211.521 155.961 211.371 154.911 213.021C153.861 214.671 150.71 217.895 150.034 216.246M154.908 213.023C156.558 214.672 157.307 218.047 155.133 220.673L154.908 213.023ZM152.657 215.571C153.182 216.696 153.331 218.421 152.731 219.471L152.657 215.571Z" fill="white"/>
<path d="M157.535 220.971C157.684 219.021 161.21 219.321 161.061 217.821C160.911 216.321 159.11 215.721 159.11 213.621C159.11 211.521 155.961 211.371 154.911 213.021C153.861 214.671 150.71 217.895 150.034 216.246M154.908 213.023C156.558 214.672 157.307 218.047 155.133 220.673M152.657 215.571C153.182 216.696 153.331 218.421 152.731 219.471" stroke="black" stroke-width="0.242733"/>
<path d="M124.647 210.06C119.134 210.51 118.197 204.435 122.322 204.06M131.431 193.675C133.343 191.238 137.73 190.412 137.806 195.587" stroke="black" stroke-width="0.242733"/>
<path d="M138.331 201.473C140.206 196.824 145.007 196.148 147.558 198.473C149.679 200.408 149.732 205.448 145.156 206.499C143.582 204.624 140.507 202.148 138.331 201.473ZM140.395 198.548C143.095 196.147 147.071 200.685 143.47 204.847L140.395 198.548ZM191.76 209.911C189.953 209.482 187.311 210.366 183.259 212.271C180.709 213.472 173.058 216.022 168.259 213.472C173.21 215.272 176.958 207.771 180.709 208.671C184.459 209.572 191.321 210.959 194.208 208.221C187.159 208.671 183.368 203.087 175.31 207.921C173.058 209.272 170.208 210.172 167.659 210.022C174.258 202.072 182.958 207.171 183.859 200.722C179.884 204.997 170.171 199.747 165.221 207.772M182.433 201.921C183.361 200.765 182.942 199.614 183.938 198.704L182.433 201.921Z" fill="white"/>
<path d="M140.395 198.548C143.095 196.147 147.071 200.685 143.47 204.847M191.76 209.911C189.953 209.482 187.311 210.366 183.259 212.271C180.709 213.472 173.058 216.022 168.259 213.472C173.21 215.272 176.958 207.771 180.709 208.671C184.459 209.572 191.321 210.959 194.208 208.221C187.159 208.671 183.368 203.087 175.31 207.921C173.058 209.272 170.208 210.172 167.659 210.022C174.258 202.072 182.958 207.171 183.859 200.722C179.884 204.997 170.171 199.747 165.221 207.772M182.433 201.921C183.361 200.765 182.942 199.614 183.938 198.704M138.331 201.473C140.206 196.824 145.007 196.148 147.558 198.473C149.679 200.408 149.732 205.448 145.156 206.499C143.582 204.624 140.507 202.148 138.331 201.473Z" stroke="black" stroke-width="0.242733"/>
<path d="M131.432 193.675C133.082 191.912 136.681 193.3 135.669 196.862C134.881 195.213 133.194 193.825 131.432 193.675ZM141.63 203.281C140.494 202.457 139.322 201.78 138.334 201.473C138.873 200.138 139.652 199.131 140.551 198.429C141.409 197.836 143.874 201.151 141.63 203.281Z" fill="black"/>
<path d="M146.061 197.197C148.762 195.397 151.237 195.547 152.062 197.047C154.01 196.972 155.624 198.397 155.699 201.247M151.536 202.448C154.76 200.236 159.186 201.06 158.885 206.01M160.835 208.821C159.26 207.546 157.011 206.646 155.285 208.896M136.757 203.948C137.357 204.772 137.808 206.048 136.833 207.998C138.033 206.423 141.032 206.423 144.259 210.623M129.634 203.724C133.533 204.174 133.458 206.724 130.309 207.849M157.383 194.197C160.683 193.521 163.082 195.472 158.507 197.121M151.084 191.946C155.735 190.821 157.61 192.021 155.51 193.071M164.511 210.624C164.66 212.274 163.762 214.449 161.061 211.974M163.607 215.572C163.607 216.022 163.683 216.547 163.983 216.922M174.411 193.596C177.261 192.771 177.785 190.146 174.485 190.371M175.385 199.671C178.536 198.621 178.536 195.546 175.911 195.846M169.533 198.096C173.208 197.196 173.357 194.646 170.581 195.021M169.086 190.297C171.035 190.147 174.036 192.322 169.01 193.597M163.607 194.648C168.182 193.973 168.107 195.849 165.409 197.049M160.159 190.297C163.685 189.622 164.885 191.722 162.485 192.622M171.257 203.272C172.121 202.56 172.832 199.147 168.709 200.16M162.708 202.224C165.482 201.474 168.107 204.174 165.558 205.749M159.037 199C161.96 198.475 164.435 199.3 162.861 200.35" stroke="black" stroke-width="0.242733" stroke-linecap="round"/>
<path d="M131.59 193.674C133.239 193.979 134.715 194.948 135.672 196.861L131.59 193.674Z" fill="white"/>
<path d="M131.59 193.674C133.239 193.979 134.715 194.948 135.672 196.861" stroke="black" stroke-width="0.242733"/>
</g>
</svg>
