<svg width="514" height="459" viewBox="0 0 514 459" fill="none" xmlns="http://www.w3.org/2000/svg">
<path d="M70.3622 0.867752L37.2161 1.55301C18.0839 1.94855 4.20762 19.914 8.65915 38.5253L105.51 443.448C107.663 452.448 115.708 458.796 124.962 458.796H469.487C486.667 458.796 495.852 438.563 484.542 425.63L139.972 31.6029C122.454 11.5704 96.9682 0.317701 70.3622 0.867752Z" fill="#042552"/>
<mask id="mask0_6_34" style="mask-type:alpha" maskUnits="userSpaceOnUse" x="7" y="0" width="483" height="459">
<path d="M70.3622 0.867752L37.2161 1.55301C18.0839 1.94855 4.20762 19.914 8.65915 38.5253L105.51 443.448C107.663 452.448 115.708 458.796 124.962 458.796H469.487C486.667 458.796 495.852 438.563 484.542 425.63L139.972 31.6029C122.454 11.5704 96.9682 0.317701 70.3622 0.867752Z" fill="#3A416C"/>
</mask>
<g mask="url(#mask0_6_34)">
<path d="M94.7231 291.439C94.7231 232.301 142.332 184.692 201.47 184.692C260.394 184.692 308.216 232.301 308.216 291.439C308.216 350.363 260.394 398.186 201.47 398.186C142.332 398.186 94.7231 350.363 94.7231 291.439ZM102.409 291.439C102.409 345.88 146.815 390.5 201.47 390.5C255.91 390.5 300.531 345.889 300.531 291.439C300.531 236.785 255.91 192.378 201.47 192.378C146.815 192.378 102.409 236.785 102.409 291.439ZM163.681 285.034C166.03 285.034 169.019 285.034 172.862 285.248L170.086 280.551H165.603C149.591 280.551 137.635 281.405 126.747 283.326L121.837 278.629C134.006 276.494 148.737 275.213 163.681 275.213H167.311L164.962 270.73H160.906C146.371 270.652 131.861 271.938 117.567 274.573L112.443 269.663C127.815 266.674 144.254 265.188 161.973 265.188C169.535 265.206 177.078 265.562 184.604 266.256C193.143 284.607 206.807 295.291 222.179 295.077C228.156 294.855 235.638 292.302 245.236 287.169L254.203 282.045L251.427 279.483L230.718 288.45L226.235 285.034L268.08 266.033L274.484 270.944L289.429 264.752L289.215 270.944C269.147 280.124 260.821 285.248 239.685 300.406C212.144 320.047 187.593 330.722 153.434 337.553L144.467 329.014H146.602C169.232 329.014 189.514 321.542 201.256 308.945C191.436 302.968 179.275 300.201 162.4 300.201C157.917 300.201 151.512 300.619 145.535 301.26L140.411 296.349C153.797 294.691 167.317 294.405 180.761 295.495L176.918 290.798C172.368 290.529 167.812 290.386 163.254 290.372C151.939 290.372 144.467 290.798 135.927 292.079L131.017 287.383C139.984 285.897 152.366 285.034 163.681 285.034Z" fill="white"/>
</g>
</svg>
