<svg width="514" height="459" viewBox="0 0 514 459" fill="none" xmlns="http://www.w3.org/2000/svg">
<path d="M70.3622 0.867752L37.2161 1.55301C18.0839 1.94855 4.20762 19.914 8.65915 38.5253L105.51 443.448C107.663 452.448 115.708 458.796 124.962 458.796H469.487C486.667 458.796 495.852 438.563 484.542 425.63L139.972 31.6029C122.454 11.5704 96.9682 0.317701 70.3622 0.867752Z" fill="#1F4FA2"/>
<path d="M377.971 359.51C377.464 359.51 374.853 360.029 374.853 360.62C374.853 361.465 375.699 361.382 375.699 363.156C375.699 364.592 373.839 365.428 370.291 365.428H355.849C331.856 365.428 321.115 379.364 321.115 388.572C321.115 391.613 322.227 393.733 324.339 393.733C326.282 393.733 328.214 392.464 328.214 391.619C328.214 390.267 326.03 388.241 326.03 384.186C326.03 376.668 335.821 367.119 357.786 367.119C362.01 367.119 362.348 367.458 362.348 367.965C362.348 368.64 353.059 386.552 343.766 398.717C339.035 404.884 329.234 415.45 323.405 415.45C320.11 415.45 318.085 414.672 317.241 411.716C316.649 409.519 316.398 408.933 315.638 408.933C315.046 408.933 311.323 410.371 311.323 411.892C311.323 415.862 313.943 418.814 317.998 418.814C328.727 418.814 337.682 408.513 346.637 398.206C348.411 398.122 349.933 398.03 353.312 398.03C358.381 398.03 358.808 398.119 358.808 398.541C358.808 399.47 356.43 414.842 356.43 416.7C356.43 416.954 358.125 418.814 358.631 418.814C360.152 418.814 366.887 416.683 371.014 415.485C371.035 417.825 371.643 418.479 373.55 418.479C375.155 418.479 377.008 417.724 380.894 416.119C385.71 414.176 386.39 414.09 386.39 413.583C386.39 413.329 386.309 413.072 386.055 413.072C385.717 413.072 382.587 414.604 380.56 414.604C378.279 414.604 377.601 413.668 377.601 409.866C377.601 405.304 382.515 383.685 382.515 382.672C382.515 382.08 382.257 381.826 382.004 381.826C381.328 381.826 379.557 382.33 375.84 383.006C369.841 384.104 369.587 384.098 369.587 384.521C369.587 384.943 369.839 385.032 372.458 385.032C375.584 385.032 375.91 385.53 375.91 387.727C375.91 390.509 371.817 409.659 371.119 414.393C369.958 414.518 368.756 414.604 367.42 414.604C364.041 414.604 363.704 413.997 363.704 407.999C363.704 397.693 366.482 380.805 368.847 367.119C374.338 367.119 379.239 364.503 379.239 361.8C379.239 360.111 378.731 359.51 377.971 359.51ZM203.548 364.583C198.563 364.583 194.081 364.998 187.238 368.969C176.256 375.389 170.682 388.072 170.682 402.433C170.682 412.74 174.9 418.814 187.15 418.814C195.513 418.814 201.513 415.698 207.933 412.825L207.863 411.293C203.386 413.236 197.037 415.943 191.8 415.943C182.929 415.943 177.604 408.844 177.604 398.453C177.604 375.39 191.13 366.608 200.254 366.608C204.394 366.608 212.425 369.566 212.425 372.016C212.425 372.353 212.33 373.535 212.161 375.732H213.094C214.277 368.889 215.366 369.908 215.366 368.387C215.366 367.205 210.897 364.583 203.548 364.583ZM383.184 366.45C380.312 366.45 379.714 368.636 379.714 371.17C379.714 372.353 380.307 373.037 381.405 373.037C384.024 373.037 385.456 370.841 385.456 368.475C385.456 366.701 385.127 366.45 383.184 366.45ZM362.683 370.659L362.859 370.836C361.76 378.861 359.47 394.322 359.301 395.335C359.216 395.842 358.885 396.005 353.647 396.005C349.676 396.005 348.486 396.008 348.486 395.67C348.486 395.248 358.374 380.121 362.683 370.659ZM239.76 380.294C239.338 380.294 236.462 381.14 235.533 382.83C232.914 382.83 233.666 381.826 229.104 381.826C225.556 381.826 217.789 386.795 216.353 389.752C210.101 402.593 209.853 408.087 209.853 413.072C209.853 417.634 210.77 418.479 212.46 418.479C216.684 418.479 223.366 415.103 228.012 413.583C228.012 414.512 227.766 415.433 227.766 416.277C227.766 417.967 228.352 418.479 229.281 418.479C230.21 418.479 231.312 418.491 239.338 415.45C241.365 414.689 242.297 414.512 242.297 414.005C242.297 413.752 242.127 413.583 241.874 413.583C241.62 413.583 238.065 414.763 236.713 414.763C235.362 414.763 234.776 413.837 234.776 410.712C234.776 404.882 240.606 381.653 240.606 381.315C240.606 380.893 240.352 380.294 239.76 380.294ZM294.414 381.315C287.825 381.315 280.566 388.236 279.214 391.531C275.919 399.641 274.899 405.98 274.899 410.289C274.899 415.865 277.938 418.479 282.331 418.479C288.245 418.479 288.415 416.882 298.13 410.8C298.13 410.124 298.137 409.778 297.884 409.778C297.208 409.778 292.05 414.252 287.404 414.252C282.927 414.252 281.486 410.043 281.486 405.903C281.486 404.467 281.585 402.933 281.838 401.412C286.147 399.469 290.361 397.439 296.95 393.891C298.049 393.3 299.821 388.489 299.821 385.701C299.821 382.829 298.469 381.315 294.414 381.315ZM255.26 381.826C254.668 381.826 252.052 382.834 248.673 383.341C243.604 384.101 242.843 383.673 242.843 384.433C242.843 385.447 248.497 384.438 248.497 386.212C248.497 396.518 240.553 439.257 240.553 441.623C240.553 442.214 240.726 442.807 241.064 443.314C243.514 442.638 245.888 441.63 248.338 441.376V440.707C247.747 440.622 247.14 439.595 247.14 436.638C247.14 434.357 249.177 421.526 249.853 416.964C251.035 417.809 252.393 418.479 253.323 418.479C254.59 418.479 259.647 416.969 265.476 414.181C268.263 412.83 273.331 401.244 273.331 388.995C273.331 383.504 271.817 381.826 268.1 381.826C265.312 381.826 264.726 382.91 255.348 386.036C255.348 384.684 255.771 382.911 255.771 382.319C255.771 382.066 255.682 381.826 255.26 381.826ZM398.103 381.826C397.68 381.826 396.246 382.404 391.515 383.165C386.531 383.925 385.861 383.429 385.861 384.274C385.861 384.95 386.275 384.944 388.556 384.944C391.766 384.944 392.096 385.118 392.096 387.568C392.096 394.918 385.773 416.955 385.773 417.968C385.773 418.391 386.098 418.479 386.689 418.479C387.112 418.479 387.635 417.898 390 417.475C391.859 417.137 392.192 417.291 392.361 415.855C392.53 414.334 395.141 400.066 397.169 390.774C397.338 390.013 400.63 386.388 403.334 386.388C406.206 386.388 407.396 387.556 408.072 390.175L409.428 389.928C410.104 388.661 411.365 385.616 411.365 384.433C411.365 384.18 410.857 383.682 410.097 383.006C409.59 382.584 408.923 382.319 406.98 382.319C403.854 382.319 404.952 382.922 397.856 387.991C397.856 387.061 398.772 382.914 398.772 382.407C398.772 382.069 398.441 381.826 398.103 381.826ZM291.296 383.341C293.831 383.341 294.255 385.368 294.255 387.48C294.255 393.985 291.378 395.676 282.085 399.563C282.338 394.832 285.383 383.341 291.296 383.341ZM227.237 383.852C227.353 383.847 227.472 383.847 227.59 383.852C228.941 383.852 234.001 385.29 234.001 386.388C234.001 387.064 228.611 408.773 228.189 411.645C228.02 412.743 223.117 414.252 219.4 414.252C217.372 414.252 216.441 413.238 216.441 409.267C216.441 403.779 219.956 384.142 227.237 383.852ZM262.094 385.19C265.22 385.19 266.744 386.72 266.744 392.887C266.744 410.037 261.337 415.784 256.775 415.784C253.902 415.784 252.378 413.493 251.702 411.381L250.874 411.804C251.043 409.438 254.25 391.282 254.925 387.48C256.192 386.72 261.165 385.19 262.094 385.19Z" fill="white" stroke="white" stroke-width="0.704526" stroke-miterlimit="3.8637"/>
<path d="M172.586 102.781C172.932 103.966 173.132 105.475 173.622 106.716C174.067 108.239 174.156 109.654 174.424 111.538C175.504 115.574 176.633 120.16 177.254 124.512C178.44 128.573 178.458 132.354 179.857 136.465C182.356 145.65 183.135 154.986 183.48 164.532C183.436 168.006 184.713 171.504 184.697 175.322C185.171 175.974 184.535 177.036 184.65 177.963C184.531 181.374 183.905 184.551 182.442 187.663C182.031 188.531 181.734 189.494 181.43 190.388C180.232 192.574 179.816 194.97 178.794 197.175C177.164 202.765 174.678 208.082 174.473 214.103C173.308 219.444 174.074 225.449 174.553 230.959C174.426 231.491 174.206 231.753 173.655 231.801C173.041 231.924 172.544 230.995 171.978 231.669C171.315 231.623 169.86 232.444 169.526 231.397C168.566 231.932 167.513 230.601 166.771 231.637C166.182 231.653 165.294 231.419 164.86 232.012C164.659 232.481 165.308 232.771 165.451 233.21C166.083 232.911 166.894 232.251 167.567 232.817C167.472 233.311 167.952 233.651 168.24 233.765C168.912 233.116 169.629 233.782 170.159 234.291C170.708 235.007 171.683 233.465 172.061 234.611C172.009 235.206 171.88 236.12 172.404 236.559C172.867 236.692 173.1 236.186 173.108 235.874C173.117 235.179 172.856 234.577 173.164 234.134C173.545 234.517 174.094 234.851 174.46 234.264C174.63 233.833 175.097 234.417 175.084 234.66C175.101 235.249 173.788 236.508 175.14 236.495C175.428 236.227 175.842 236.19 176.122 236.618C176.199 237.895 177.584 237.08 178.278 237.47C178.718 236.946 179.296 238.006 179.606 237.181C179.115 236.322 176.667 236.5 177.743 234.915C178.444 234.992 178.522 235.888 179.282 235.44C179.491 234.659 180.524 234.569 180.814 235.515C181 236.054 181.479 235.179 181.461 234.973C181.474 234.729 181.582 234.372 181.82 234.317C182.001 234.405 182.521 234.395 182.726 234.759C182.594 234.839 182.581 235.083 182.794 235.134C182.993 235.429 183.306 235.436 183.569 235.275C183.232 234.992 183.659 234.712 183.897 234.656C184.072 234.676 184.166 234.563 184.292 234.413C185.281 234.605 184.055 236.065 185.17 235.725C186.207 236.468 184.694 237.432 185.563 237.842C185.467 238.337 185.988 237.944 185.992 238.395C186.305 238.402 186.413 238.046 186.639 237.853C186.366 237.113 186.882 236.652 186.389 236.174C186.591 235.706 186.861 237.209 187.259 236.203C187.293 235.401 186.027 235.998 185.911 235.071C185.956 234.789 185.682 234.431 186.014 234.264C186.461 235.405 187.845 233.376 187.538 235.033C187.825 235.529 187.534 236.178 188.196 236.607C188.452 236.758 188.759 236.697 189.066 236.635C189.079 236.391 189.187 236.034 189.394 236.017C189.039 235.527 188.426 235.268 188.297 234.586C188.745 233.748 189.702 233.977 190.32 234.305C192.555 234.458 194.465 235.679 196.35 237.007C196.772 237.872 197.144 238.951 198.213 239.274C201.59 240.194 204.82 240.225 208.196 241.145C208.682 241.554 209.244 242.026 209.091 242.663C208.458 242.961 207.563 243.039 206.987 243.194C204.777 243.317 202.449 242.895 200.318 242.318C199.133 242.663 197.386 242.919 196.038 243.384C193.28 244.388 190.596 245.836 188.114 246.815C186.122 248.654 183.454 249.095 181.619 251.129C181.28 251.227 181.035 251.595 180.541 251.5C180.207 252.049 179.498 252.666 178.827 252.933C172.935 258.199 173.914 265.852 172.8 272.577C172.798 279.725 173.161 287.882 175.08 295.175C174.749 294.961 175.247 297.485 176.255 299.097C176.989 306.737 177.664 313.687 176.81 321.013C176.214 322.939 175.219 324.656 175.336 326.798C175.31 326.903 175.173 326.916 175.104 326.922C174.934 332.142 173.082 336.779 172.05 341.657C170.424 344.505 170.079 348.109 168.784 351.171C168.503 352.722 167.765 354.209 167.684 355.674C167.082 357.53 166.85 359.633 165.911 361.206C166.022 363.278 164.263 364.993 164.061 367.058C163 369.614 161.364 371.943 160.908 374.688C160.22 376.345 158.462 377.678 158.199 379.435C157.998 379.522 157.766 379.647 157.647 379.865C157.751 380.272 156.884 381.077 156.821 381.534C154.961 383.292 153.013 386.827 151.272 388.748C150.962 389.573 150.327 388.657 150.166 388.393C151.248 386.876 150.98 384.992 152.1 383.506C152.114 382.88 151.753 382.322 152.344 381.924C152.594 382.006 152.9 381.944 153.245 381.914C153.704 381.215 153.457 380.369 153.686 379.412C152.807 378.482 155.213 377.822 154.466 376.811C154.035 375.045 154.935 373.821 155.422 372.252C154.789 370.953 156.961 370.799 156.672 369.471C156.349 370.54 154.389 370.746 154.804 371.924C153.372 373.02 153.785 374.962 151.91 375.75C151.726 376.425 151.859 377.559 150.895 377.643C150.931 378.056 150.873 378.581 150.39 378.623C149.657 378.965 149.046 378.324 148.396 378.034C148.728 377.866 148.092 377.332 148.706 377.209C149.19 376.785 148.459 376.363 148.761 375.85C148.998 374.581 150.891 373.618 150.152 372.295C150.316 371.794 150.731 371.377 151.108 370.928C150.441 370.43 150.455 369.804 150.527 369.035C150.948 368.685 150.404 368.421 150.931 368.097C151.562 368.564 152.471 368.241 153.121 368.531C153.853 366.594 154.518 364.662 155.683 362.895C155.849 362.014 156.627 361.39 156.65 360.451C154.352 360.756 154.215 363.578 152.515 364.767C151.403 365.94 150.994 368.023 149.003 368.265C148.865 368.277 148.727 368.29 148.627 368.333C147.29 369.317 147.164 372.659 144.972 371.392C145.39 370.211 145.908 368.986 146.231 367.917C146.824 366.755 147.086 365.379 147.047 364.133C145.957 364.367 145.975 362.977 145.533 362.287C146.218 361.395 145.484 360.14 146.058 359.153C146.157 357.896 145.592 356.592 146.921 355.92C147.41 355.947 148.019 356.97 148.317 356.007C148.689 355.107 149.847 356.846 149.928 355.381C149.679 354.917 150.212 354.663 150.145 354.287C151.52 352.952 152.166 351.196 153.697 350.056C153.506 349.448 153.745 349.011 154.128 348.631C154.79 349.059 154.95 348.108 155.345 347.866C155.147 347.571 154.854 347.006 155.356 346.789C155.509 346.151 156.245 346.642 156.079 345.928C156.07 345.026 157.371 345.226 157.193 344.373C157.559 343.405 159.103 343.999 158.889 342.734C157.856 342.824 156.451 343.432 156.166 344.533C156.82 345.273 155.299 345.337 155.003 345.918C154.615 345.847 154.581 346.648 154.131 346.271C153.146 346.912 152.483 348.462 151.505 348.79C150.686 348.549 152.724 349.239 150.185 350.362C149.024 350.984 148.137 352.345 147.4 353.45C146.882 353.079 148.457 353.635 146.502 354.291C146.252 354.209 145.125 354.412 145.08 354.693C144.465 354.816 144.298 354.484 144.049 354.02C144.855 352.908 144.341 351.392 145.183 350.312C145.941 350.246 147.3 351.897 147.525 350.108C147.016 349.041 148.919 348.981 148.473 347.84C148.705 347.715 148.889 347.04 149.138 347.504C149.313 347.523 149.376 347.449 149.326 347.279C149.252 347.217 149.177 347.153 149.102 347.091C149.805 346.405 150.712 344.869 151.527 344.659C151.373 344.082 151.626 343.401 151.959 342.852C153.229 343.088 152.901 340.515 154.105 341.589C154.404 340.244 156.009 341.146 156.309 339.801C156.011 339.168 156.226 338.455 156.666 337.931C157.502 338.76 157.977 337.435 158.529 337.005C158.113 336.209 159.472 335.882 158.961 335.198C156.883 335.24 156.94 338.289 154.875 338.087C154.322 338.899 153.19 338.65 152.798 339.725C152.184 339.848 151.389 339.882 151.317 340.652C151.047 340.745 151.164 341.29 150.763 341.464C149.599 341.253 149.387 342.798 148.224 342.587C147.427 343.003 145.819 344.462 145.975 344.657C145.652 345.726 144.601 345.609 143.699 345.618C143.443 345.467 143.079 345.672 142.875 345.308C142.807 344.933 143.027 344.671 143.203 344.308C144.035 344.687 145.309 343.778 145.078 343.521C145.5 342.79 146.266 342.411 147.035 342.482C148.66 341.231 148.464 338.576 150.587 338.252C152.056 337.187 151.905 334.251 154.318 334.874C155.226 334.934 155.824 333.84 156.751 333.725C156.11 332.74 158.592 331.76 156.979 331.554C156.556 332.285 155.785 332.595 155.097 332.655C154.606 333.391 153.991 333.896 153.288 334.2C153.089 333.905 152.744 333.935 152.481 334.097C151.18 335.494 149.273 334.723 148.208 336.829C148.049 337.397 147.651 336.808 147.368 337.145C145.82 337.695 147.127 339.559 145.325 339.578C145.054 340.052 144.497 340.032 144.114 340.412C143.15 340.114 144.05 338.891 144.022 338.165C144.443 337.816 144.463 337.259 144.932 337.461C145.922 337.271 146.284 335.851 147.236 335.629C147.245 334.935 147.222 334.277 147.875 333.804C148.239 333.599 148.989 333.846 148.754 333.138C148.693 332.831 148.812 332.612 149.038 332.419C149.125 332.619 149.32 332.464 149.495 332.483C150.324 331.647 150.694 331.511 151.771 331.522C152.719 332.445 153.109 330.156 154.095 331.111C154.988 331.415 154.829 330.388 155.181 330.044C154.785 329.073 157.563 329.109 156.335 327.758C155.385 327.599 154.654 328.772 153.956 329.527C153.436 329.919 153.352 328.955 152.83 329.347C152.407 330.46 151.387 330.306 150.48 330.246C149.213 329.246 149.353 332.045 147.953 331.507C147.596 331.399 147.089 331.548 146.707 331.546C145.779 332.044 145.526 334.321 144.56 333.19C144.476 332.226 145.186 331.609 145.039 330.72C145.247 330.32 145.585 330.221 145.967 330.223C146.295 329.604 146.962 328.506 147.849 329.122C148.42 328.899 147.739 328.264 148.347 328.072C148.242 327.665 147.692 327.713 147.316 327.78C146.832 328.204 146.392 328.728 145.66 328.688C145.022 328.536 145.494 327.974 145.464 327.63C145.77 326.354 147.717 326.011 146.853 324.455C147.562 324.22 148.374 324.392 148.81 323.417C148.855 323.136 148.536 323.06 148.379 322.865C147.604 322.724 146.836 323.867 146.056 323.275C145.57 322.485 145.861 321.835 145.965 321.028C146.523 320.667 147.152 321.515 147.686 320.878C148.356 320.993 149.136 321.585 149.776 320.973C151.042 319.163 153.463 321.069 154.591 318.889C154.936 318.859 155.466 319.368 155.65 318.693C154.981 318.577 153.941 317.002 153.148 318.251C152.327 318.392 151.281 318.726 150.496 319.28C149.396 318.994 148.763 319.293 147.474 319.231C147.228 319.599 146.908 319.905 146.451 319.841C145.964 319.432 145.71 318.899 145.16 318.565C145.139 317.526 144.951 315.772 146.538 316.467C147.842 317.88 148.535 315.079 149.921 315.86C150.376 316.306 150.722 315.895 151.316 315.947C151.611 315.747 151.582 315.404 151.419 315.14C150.779 314.154 150.092 315.429 149.47 314.269C148.297 315.134 147.096 314.892 145.979 315.614C144.758 315.547 144.894 314.32 144.228 313.441C143.759 313.239 143.462 312.606 143.508 311.943C143.659 311.687 143.853 311.531 144.172 311.607C144.428 311.759 144.634 312.123 144.978 312.092C145.556 311.556 144.062 311.131 144.051 310.612C143.726 310.467 143.224 310.683 142.976 310.219C142.967 309.318 144.961 309.908 144.09 308.665C144.966 308.762 144.887 307.867 145.588 307.945C145.627 307.594 145.239 307.524 145.046 307.298C144.283 307.295 143.203 308.049 142.687 307.295C143.314 306.928 142.615 306.469 142.716 306.044C141.441 305.738 142.322 304.308 141.135 303.822C141.996 302.949 139.714 300.649 141.596 301.145C142.34 301.322 142.738 300.316 143.49 300.181C143.329 299.537 142.776 300.348 142.364 300.002C141.376 299.811 141.21 298.714 141.213 297.951C140.985 297.312 141.787 296.964 141.664 296.35C140.889 296.21 140.402 295.801 140.166 295.092C140.15 294.504 139.834 293.664 140.617 293.492C141.569 293.27 142.286 293.936 143.137 294.14C143.865 292.133 141.235 293.82 141.254 292.049C140.635 292.103 139.865 292.031 139.579 291.535C139.288 290.589 139.073 289.705 139.957 289.108C140.264 289.047 140.456 289.654 140.733 289.249C140.41 288.722 139.628 288.512 139.462 287.798C139.295 287.084 139.336 286.351 139.957 285.916C139.631 284.556 138.664 283.426 139.408 282.008C139.448 281.658 138.884 281.568 138.886 281.186C138.428 279.908 141.717 279.031 139.262 277.927C139.125 277.557 138.971 276.98 139.254 276.643C139.635 276.645 139.312 276.118 139.394 275.868C138.953 275.177 139.099 274.471 139.114 273.845C139.665 272.201 138.302 270.099 139.54 268.776C138.478 268.14 139.884 267.15 138.691 266.595C138.414 265.405 138.69 265.494 138.804 264.711C139.026 264.068 139.942 263.433 139.225 262.767C139.356 261.089 138.367 259.683 138.799 257.877C137.254 257.664 135.563 257.777 134.631 259.419C133.767 259.46 132.393 262.008 132.511 262.171C131.075 262.816 130.737 264.512 129.215 264.957C128.817 265.581 128.045 266.273 127.311 266.614C126.584 268.621 123.805 268.586 123.283 270.955C122.719 271.248 122.163 272.441 121.2 272.143C120.73 270.726 119.22 270.928 118.751 269.512C118.243 269.66 117.536 269.514 117.055 269.173C116.879 267.94 118.217 266.574 116.336 265.697C115.941 265.939 115.008 265.986 115.149 265.21C114.454 265.202 114.488 264.4 113.876 264.141C113.948 263.372 114.672 262.129 113.138 262.436C112.933 262.072 112.48 262.458 112.218 262.238C112.731 260.563 109.773 260.057 111.5 258.38C111.409 257.729 112.105 257.356 112.477 256.838C112.821 256.808 113.307 257.217 113.647 256.736C113.519 256.054 112.747 256.363 112.373 256.049C112.033 256.529 111.339 256.521 111.015 255.993C110.629 255.542 110.637 254.846 110.277 254.288C110.785 253.758 110.268 253.386 109.716 253.435C109.439 253.84 108.772 253.344 108.667 252.936C108.543 252.705 108.55 252.391 108.489 252.084C109.435 251.794 108.501 250.626 109.334 250.241C108.526 248.924 107.315 247.78 106.94 246.251C105.794 246.247 106.599 245.135 106.313 244.64C106.773 243.941 107.351 245.001 107.811 244.302C107.67 243.481 107.872 243.012 107.456 242.216C106.587 241.806 106.201 241.354 106.016 240.433C106.594 239.897 106.515 239.383 107.467 239.161C106.94 237.889 109.255 238.173 108.389 236.999C108.729 236.519 109.002 235.662 108.125 235.565C107.651 235.294 107.296 234.804 107.837 234.236C108.061 232.829 109.624 233.248 110.067 231.961C110.907 231.645 111.936 232.7 112.494 232.339C113.141 231.797 113.638 232.725 114.346 232.49C114.198 231.982 113.938 231.381 113.374 231.291C112.274 231.005 110.87 231.231 110.707 229.754C110.787 228.671 110.396 227.768 111.119 226.907C111.737 227.235 112.446 227 113.079 226.702C113.024 226.464 113.074 226.251 112.787 226.137C112.498 226.406 111.896 226.666 111.842 226.046C112.432 225.648 111.739 225.257 112.004 224.714C113.019 224.417 113.667 223.493 114.85 223.528C114.896 222.865 114.787 222.007 115.564 221.767C116.235 221.5 116.844 220.926 117.539 220.935C117.929 220.242 118.651 219.763 119.468 220.386C121.169 220.792 121.965 222.354 123.786 222.542C124.923 222.86 124.097 224.527 125.506 224.37C125.783 225.561 127.15 224.921 126.45 226.44C127.257 226.543 128.27 226.628 128.988 227.294C128.967 227.851 128.363 228.493 128.931 229.034C129.22 228.766 129.671 228.761 129.913 229.157C129.949 229.57 129.641 230.013 129.921 230.44C130.184 230.278 130.84 229.041 131.073 230.131C130.11 231.811 134.363 230.851 131.579 232.343C131.372 232.36 131.128 232.347 131.008 232.566C130.894 232.853 131.245 232.892 131.363 233.055C133.14 231.547 134.237 234.575 135.84 232.666C136.977 233.364 138.001 232.373 139.146 232.377C139.674 231.672 139.26 230.494 140.251 229.921C139.139 227.52 139.73 225.144 140.847 222.826C140.398 220.853 138.941 218.863 140.562 217.16C141.285 216.3 141.159 214.853 140.937 213.901C141.066 212.988 140.714 211.734 140.855 210.959C141.48 210.973 141.045 210.352 141.408 210.147C142.049 209.536 142.755 208.468 141.85 207.645C141.095 206.947 143.001 206.122 141.946 205.173C141.724 204.603 141.902 203.858 142.604 203.555C143.104 203.719 143.257 203.081 143.408 202.825C143.222 202.286 142.253 201.919 142.687 201.326C143.529 200.629 144.1 200.023 144.143 198.91C143.868 198.552 143.055 198.38 143.458 197.824C143.538 196.36 147.022 197.306 144.63 195.744C144.764 195.282 144.226 195.085 144.433 194.686C144.585 192.833 146.82 194.2 146.752 192.61C146.176 192.383 145.187 192.573 145.178 191.672C145.149 190.945 146.16 190.198 146.275 189.529C147.711 190.479 148.332 188.447 149.768 189.398C150.075 189.336 150.431 189.444 150.657 189.251C149.85 187.552 148.052 189.617 146.966 188.705C146.66 188.767 146.523 188.397 146.267 188.245C146.138 187.563 146.561 186.832 147.156 186.503C147.999 187.019 149.198 186.429 150.116 186.626C151.111 186.887 151.963 186.709 152.71 186.123C152.591 184.364 150.214 185.75 149.191 184.764C148.64 184.812 148.165 184.541 147.702 184.407C147.556 183.518 148.526 183.503 149.021 183.217C149.394 183.913 149.736 183.051 150.08 183.021C151.691 182.395 153.578 184.937 154.764 182.613C154.578 182.074 154.299 181.266 153.491 181.544C152.225 181.758 150.798 181.71 149.756 180.898C149.714 180.416 149.164 180.082 149.335 179.651C149.784 178.814 150.738 179.424 151.453 179.258C152.557 179.994 154.369 179.282 155.524 180.187C156.12 179.858 155.991 179.175 155.328 179.129C153.738 179.198 152.66 177.592 151.096 177.554C150.653 177.246 150.673 176.689 150.331 176.337C150.521 175.731 151.213 174.907 151.874 175.335C152.254 175.718 152.723 175.92 153.206 175.879C153.569 175.673 153.85 174.122 154.329 175.226C154.14 175.45 154.308 175.782 154.3 176.095C154.792 176.955 155.739 176.283 156.39 176.191C156.541 175.935 157.161 175.881 156.875 175.385C155.551 174.529 153.956 174.529 152.72 173.492C152.484 172.784 153.38 172.706 153.695 172.331C154.625 172.666 155.35 173.02 156.278 172.905C156.709 173.075 156.706 173.839 157.308 173.578C157.49 173.285 157.81 172.979 158.179 173.225C158.522 173.577 158.613 174.228 159.245 174.311C160.054 174.033 159.73 173.506 159.613 172.961C159.595 172.754 159.571 172.479 159.547 172.203C157.675 170.631 154.733 170.714 153.622 168.313C153.895 167.456 154.417 168.278 154.887 168.098C155.889 168.046 156.157 169.931 157.518 169.222C157.89 170.301 159.464 169.261 159.24 170.669C159.939 171.128 160.396 171.192 161.064 171.69C162.298 171.513 163.423 171.692 164.522 170.764C163.581 169.909 163.193 168.242 161.628 168.205C161.099 167.314 160.165 167.743 159.579 166.996C158.108 167.228 157.042 166.141 155.881 165.166C155.889 164.853 155.74 164.346 156.228 164.373C157.549 164.397 158.325 166.133 159.842 165.62C161.301 165.25 162.332 169.115 163.456 166.484C162.297 165.128 161.109 163.046 159.114 162.837C158.333 162.246 157.737 160.98 156.635 161.076C156.402 159.986 154.292 160.066 154.929 158.622C155.335 157.303 156.383 158.183 157.141 158.117C157.599 159.396 158.851 159.426 159.592 160.367C159.905 160.375 160.1 160.219 160.219 160C159.691 157.513 156.891 156.439 155.364 154.837C156.161 154.039 154.436 153.356 155.496 152.778C156.051 153.181 157.028 153.235 157.068 154.099C158.167 154.766 158.602 155.769 159.632 156.443C160.029 157.414 160.88 157.618 161.214 158.665C163.582 159.569 159.85 160.137 161.654 161.333C163.385 162.085 163.767 163.681 165.095 164.988C165.779 164.478 166.044 165.53 166.52 165.801C166.566 165.139 168.545 164.757 167.496 164.259C167.027 164.057 166.368 164.461 165.988 164.078C166.021 163.659 166.516 163.373 166.267 162.909C165.887 162.525 165.579 162.969 165.079 162.804C164.636 162.496 164.656 161.939 164.313 161.586C164.302 159.853 166.853 162.06 166.047 159.979C166.927 158.93 163.657 158.036 165.665 156.785C166.8 156.27 167.39 159.063 168.099 156.85C168.244 154.93 166.211 154.69 165.359 153.273C165.574 152.559 164.275 151.979 164.383 151.241C164.576 150.253 163.554 150.48 163.583 149.611C162.55 149.701 162.435 148.392 161.786 148.101C161.848 146.43 159.334 145.851 159.353 144.08C158.678 142.3 157.053 141.574 155.945 140.005C156.141 139.467 155.731 138.74 156.396 138.404C157.059 138.45 157.487 139.385 158.017 139.893C158.739 141.011 160.303 141.43 160.139 143.144C161.454 144.696 163.202 146.035 163.92 147.915C166.174 147.893 165.129 151.037 166.979 151.951C167.226 152.797 168.2 153.233 168.812 153.874C169.156 153.844 169.327 153.413 169.553 153.219C169.617 151.167 167.745 149.595 167.29 147.552C166.411 146.622 165.537 145.762 165.26 144.572C164.912 143.769 164.164 143.141 163.653 142.456C163.664 141.379 161.741 141.617 162.371 140.486C161.298 139.712 160.951 138.91 160.836 137.601C160.213 136.822 159.892 135.913 159.068 135.222C158.43 135.069 157.937 134.592 157.319 134.264C157.57 133.964 157.609 133.614 157.504 133.207C155.857 131.823 158.028 130.454 157.827 128.945C158.693 128.523 158.426 129.448 158.801 129.763C158.746 130.739 160.272 131.127 160.062 132.29C160.511 132.668 160.233 133.455 160.55 133.913C161.071 135.117 162.194 136.06 162.42 137.463C163.361 138.7 164.163 139.948 164.439 141.52C165.661 141.206 165.512 142.676 166.311 143.092C166.943 144.772 168.378 146.104 168.697 147.777C169.479 147.986 170.178 150.042 170.858 149.081C170.81 148.53 171.582 147.837 170.783 147.422C171.103 145.52 168.646 144.797 169.354 142.966C168.097 142.486 168.404 140.828 167.136 140.21C167.214 139.509 166.3 139.381 166.146 138.804C166.429 136.871 164.279 136.087 164.837 134.13C163.318 133.429 164.441 131.18 162.369 131.291C161.696 130.344 161.52 129.11 160.245 128.422C159.582 128.376 158.954 129.125 158.38 128.516C158.206 128.114 158.816 127.541 158.26 127.138C159.153 125.846 158.396 124.315 158.62 122.909C158.921 122.778 159.088 123.11 159.395 123.049C160.143 124.06 162.569 124.82 162.118 126.42C162.797 127.437 162.73 128.657 163.922 129.213C164.176 130.127 165.005 130.888 165.347 131.621C165.604 132.987 166.686 133.448 166.981 134.845C167.374 134.984 168.007 135.068 168.123 135.613C168 136.595 168.907 137.037 168.815 137.981C169.362 139.079 170.273 139.972 170.387 141.28C171.293 141.722 170.837 142.871 171.461 143.65C172.253 144.379 172.16 145.706 173.435 146.011C173.266 144.464 173.594 142.25 171.764 141.16C171.334 140.607 172.319 139.966 171.483 139.519C171.16 138.61 171.481 136.709 170.418 136.072C167.656 135.029 169.961 131.22 166.967 130.301C166.585 128.703 166.923 127.008 165.425 125.751C165.891 123.524 162.688 123.005 163.51 120.886C162.036 119.905 163.481 118.564 162.603 117.253C163.276 116.604 162.196 115.761 163.081 115.163C162.944 114.794 163.239 114.595 163.428 114.37C163.784 114.478 164.06 114.453 164.271 114.886C164.269 115.65 166.435 115.427 165.498 116.619C165.896 117.209 166.212 118.048 165.858 118.773C166.519 119.584 166.433 120.979 167.376 121.452C167.699 121.979 168.298 122.482 168.873 122.71C168.529 121.143 168.561 119.128 167.546 117.828C167.366 117.359 166.982 116.524 167.239 116.294C167.224 115.323 166.364 114.218 166.838 113.275C166.544 111.496 167.251 109.665 166.777 107.798C167.473 107.425 166.972 105.664 168.259 106.489C168.682 106.973 169.108 107.074 169.419 107.464C168.994 105.766 169.982 104.362 169.204 103.007C168.826 102.241 170.055 101.614 169.713 100.88C170.002 100.612 170.501 99.5627 171.212 100.16C171.672 101.057 173.046 101.701 172.586 102.781Z" fill="white"/>
</svg>
