<svg width="514" height="459" viewBox="0 0 514 459" fill="none" xmlns="http://www.w3.org/2000/svg">
<path d="M70.3622 0.867752L37.2161 1.55301C18.0839 1.94855 4.20762 19.914 8.65915 38.5253L105.51 443.448C107.663 452.448 115.708 458.796 124.962 458.796H469.487C486.667 458.796 495.852 438.563 484.542 425.63L139.972 31.6029C122.454 11.5704 96.9682 0.317701 70.3622 0.867752Z" fill="#DE0038"/>
<path d="M336.723 311.755C336.723 311.755 334.836 309.519 333.246 309.519C331.508 309.519 329.968 311.755 329.968 311.755H336.723ZM83.2589 174.815C81.6198 174.715 133.972 172.232 150.76 175.51C167.598 178.739 183.443 180.924 198.94 203.275C214.436 225.478 228.443 247.929 237.682 260.794C266.788 301.175 266.788 307.631 299.123 310.512C316.458 312.052 321.077 311.158 325.448 309.122C330.812 306.539 333.346 303.608 340.796 309.519C349.339 316.373 361.111 314.685 360.813 315.728H113.955C113.955 315.728 101.984 316.124 97.7624 308.575L103.922 306.29C103.922 306.29 105.263 314.138 129.8 311.803C154.287 309.518 186.324 303.459 186.324 303.459L110.329 196.172C105.61 190.311 99.1532 184.203 92.9941 178.739C92.9941 178.739 123.69 181.967 136.604 200.692C149.717 219.716 207.93 299.536 207.93 299.536L211.903 298.89L137.548 195.528C137.548 195.528 126.62 178.043 83.2589 174.815Z" fill="white"/>
<path d="M333.297 299.238C337.668 299.238 341.244 304.851 341.244 304.851H325.201C325.201 304.851 328.926 299.238 333.297 299.238Z" fill="white"/>
</svg>
