<svg width="514" height="459" viewBox="0 0 514 459" fill="none" xmlns="http://www.w3.org/2000/svg">
<path d="M70.3622 0.867752L37.2161 1.55301C18.0839 1.94855 4.20762 19.914 8.65915 38.5253L105.51 443.448C107.663 452.448 115.708 458.796 124.962 458.796H469.487C486.667 458.796 495.852 438.563 484.542 425.63L139.972 31.6029C122.454 11.5704 96.9682 0.317701 70.3622 0.867752Z" fill="#288067"/>
<mask id="mask0_23_8224" style="mask-type:alpha" maskUnits="userSpaceOnUse" x="7" y="0" width="483" height="459">
<path d="M70.3622 0.867752L37.2161 1.55301C18.0839 1.94855 4.20762 19.914 8.65915 38.5253L105.51 443.448C107.663 452.448 115.708 458.796 124.962 458.796H469.487C486.667 458.796 495.852 438.563 484.542 425.63L139.972 31.6029C122.454 11.5704 96.9682 0.317701 70.3622 0.867752Z" fill="white"/>
</mask>
<g mask="url(#mask0_23_8224)">
<path d="M153.249 197.686C145.774 197.686 139.256 201.721 136.906 209.481L126.703 243.175C125.748 245.856 127.696 244.655 128.552 244.146C134.691 240.493 140.925 239.061 147.504 239.061H245.596C258.212 239.061 265.303 232.336 268.062 223.252L275.828 197.686H153.249Z" fill="white"/>
<path d="M138.259 250.7C130.784 250.7 124.266 254.734 121.916 262.495L111.712 296.189C110.757 298.869 112.706 297.669 113.561 297.159C119.7 293.507 125.935 292.075 132.514 292.075H225.614C238.23 292.075 245.32 285.35 248.08 276.265L255.846 250.7H138.259Z" fill="white"/>
<path d="M150.728 344.402C163.344 344.402 170.435 337.677 173.194 328.593L180.96 303.027L124.947 303.027C117.471 303.027 110.954 307.062 108.603 314.823L99.666 344.336L150.728 344.402Z" fill="white"/>
</g>
</svg>
