<svg width="514" height="459" viewBox="0 0 514 459" fill="none" xmlns="http://www.w3.org/2000/svg">
<path d="M70.3622 0.867752L37.2161 1.55301C18.0839 1.94855 4.20762 19.914 8.65915 38.5253L105.51 443.448C107.663 452.448 115.708 458.796 124.962 458.796H469.487C486.667 458.796 495.852 438.563 484.542 425.63L139.972 31.6029C122.454 11.5704 96.9682 0.317701 70.3622 0.867752Z" fill="#4C12A1"/>
<mask id="mask0_100_56" style="mask-type:alpha" maskUnits="userSpaceOnUse" x="7" y="0" width="483" height="459">
<path d="M70.3622 0.867752L37.2161 1.55301C18.0839 1.94855 4.20762 19.914 8.65915 38.5253L105.51 443.448C107.663 452.448 115.708 458.796 124.962 458.796H469.487C486.667 458.796 495.852 438.563 484.542 425.63L139.972 31.6029C122.454 11.5704 96.9682 0.317701 70.3622 0.867752Z" fill="white"/>
</mask>
<g mask="url(#mask0_100_56)">
<path d="M320.3 387.574H313.848L310.318 409.481C310.135 410.519 309.283 411.037 308.248 411.037C307.213 411.037 306.361 410.519 306.179 409.481L302.344 387.574H295.892L300.092 410.461C300.822 414.496 304.048 416.975 308.248 416.975C312.448 416.975 315.309 414.496 316.039 410.461L317.074 405.042L320.3 387.574ZM383.287 417.038C391.589 417.038 398.276 410.293 398.276 402.049C398.276 393.748 391.589 387.06 383.287 387.06C375.044 387.06 368.299 393.748 368.299 402.049C368.299 410.293 375.044 417.038 383.287 417.038ZM383.287 411.273C378.387 411.273 374.352 407.122 374.352 402.049C374.352 396.918 378.387 392.825 383.287 392.825C388.245 392.825 392.223 396.918 392.223 402.049C392.223 407.122 388.245 411.273 383.287 411.273ZM357.749 416.462H363.802V376.107H357.749V416.462ZM353.137 399.974C352.272 392.652 345.988 387.06 338.436 387.06C330.135 387.06 323.447 393.748 323.447 402.049C323.447 410.351 330.135 417.038 338.436 417.038C344.778 417.038 349.505 414.156 352.157 409.832L347.545 407.468C345.815 410.12 342.933 411.907 338.897 411.907C333.824 411.907 330.25 408.333 329.558 403.433H353.31C353.367 402.28 353.31 401.242 353.137 399.974ZM338.436 391.384C342.529 391.384 345.931 393.921 346.968 397.726C347.141 398.302 347.257 399.051 347.314 399.743H329.558C330.308 394.785 333.709 391.384 338.436 391.384ZM279.607 387.06C274.303 387.06 269.864 389.02 267.155 391.903L269.749 395.247C272.228 392.998 275.226 391.903 278.396 391.903C282.893 391.903 285.776 394.555 286.294 398.879C283.815 398.475 281.394 398.302 279.031 398.302C270.383 398.302 265.425 401.703 265.425 407.757C265.425 413.003 269.864 417.038 276.033 417.038C280.529 417.038 284.161 415.136 286.756 412.138L286.871 416.462H292.405V400.262C292.405 392.306 287.332 387.06 279.607 387.06ZM277.128 412.714C273.496 412.714 271.075 410.408 271.075 407.411C271.075 403.836 274.015 401.819 279.204 401.819C281.51 401.819 283.931 402.165 286.352 402.683C286.237 408.506 282.374 412.714 277.128 412.714Z" fill="white"/>
<path d="M243.72 173.295C231.671 175.258 219.466 178.416 205.864 179.618L113.877 187.748C39.0489 196.627 -32.5438 209.096 -78.9694 249.482L-50.856 282.051C-23.7031 258.612 35.8911 237.097 104.042 231.102L216.34 221.223L190.168 330.874C174.284 397.419 144.297 453.233 117.144 476.671L145.257 509.24C191.991 469.21 214.781 400.205 234.493 327.476L255.969 237.663C259.145 224.382 264.051 212.769 267.753 201.136L243.72 173.295Z" fill="#FFCD00"/>
<path d="M182 101.794C169.95 103.757 157.746 106.915 144.144 108.117L52.1571 116.247C-22.6713 125.126 -94.264 137.595 -140.69 177.981L-112.576 210.55C-85.4233 187.111 -25.8291 165.596 42.3222 159.601L154.619 149.723L128.447 259.373C112.564 325.918 82.5766 381.732 55.4237 405.17L83.537 437.739C130.271 397.709 153.061 328.704 172.772 255.975L194.249 166.162C197.425 152.881 202.331 141.268 206.033 129.635L182 101.794Z" fill="white"/>
<path d="M119.461 29.3449C107.411 31.3082 95.2064 34.4656 81.6041 35.6679L-10.3825 43.798C-85.2108 52.6772 -156.804 65.1455 -203.229 105.532L-175.116 138.1C-147.963 114.662 -88.3687 93.1464 -20.2174 87.1514L92.0798 77.2733L65.9079 186.924C50.0245 253.469 20.0371 309.282 -7.11589 332.721L20.9975 365.289C67.7311 325.26 90.521 256.255 110.233 183.526L131.709 93.7127C134.885 80.4318 139.791 68.8192 143.493 57.1854L119.461 29.3449Z" fill="#00C1D4"/>
</g>
</svg>
