<svg width="514" height="459" viewBox="0 0 514 459" fill="none" xmlns="http://www.w3.org/2000/svg">
<mask id="mask0_46_785" style="mask-type:alpha" maskUnits="userSpaceOnUse" x="7" y="0" width="483" height="459">
<path d="M70.3622 0.867752L37.2161 1.55301C18.0839 1.94855 4.20762 19.914 8.65915 38.5253L105.51 443.448C107.663 452.448 115.708 458.796 124.962 458.796H469.487C486.667 458.796 495.852 438.563 484.542 425.63L139.972 31.6029C122.454 11.5704 96.9682 0.317701 70.3622 0.867752Z" fill="white"/>
</mask>
<g mask="url(#mask0_46_785)">
<path d="M70.3622 0.867752L37.2161 1.55301C18.0839 1.94855 4.20762 19.914 8.65915 38.5253L105.51 443.448C107.663 452.448 115.708 458.796 124.962 458.796H469.487C486.667 458.796 495.852 438.563 484.542 425.63L139.972 31.6029C122.454 11.5704 96.9682 0.317701 70.3622 0.867752Z" fill="#FF1022"/>
<path d="M231.318 125.74C153.933 112.27 57.7117 49.909 16.8984 -31.1664L72.764 -45.3005L205.883 2.33501L231.318 125.74Z" fill="#2A2A2A"/>
<path d="M13.7109 -36.4915C49.9265 44.4237 163.849 119.467 243.459 127.95" stroke="white" stroke-width="13"/>
<path d="M202.391 365.588C167.3 383.72 172.412 406.686 97.9961 434.653L105.609 509.562L479.241 467.509C397.001 398.231 289.73 320.459 202.391 365.588Z" fill="#04925F"/>
<path d="M97.9961 434.653C172.412 406.686 167.3 383.72 202.391 365.588C289.73 320.459 397.001 398.231 479.241 467.509" stroke="white" stroke-width="13"/>
<path d="M212.049 160.209C212.049 160.209 182.864 146.169 148.209 160.331C148.209 160.331 101.61 179.685 89.3877 220.406C89.3877 220.406 71.0819 259.022 96.2816 296.508C96.2816 296.508 111.844 323.001 145.752 327.146C145.752 327.146 189.253 333.693 217.518 306.742C217.518 306.742 261.416 276.776 256.673 224.596C256.673 224.596 255.971 178.19 212.049 160.209ZM245.066 248.391C239.141 272.563 203.756 302.653 203.756 302.653C139.079 344.759 106.648 298.091 106.648 298.091C87.8518 267.537 102.843 234.651 102.843 234.651C116.531 197.842 148.422 180.229 148.422 180.229C193.023 154.716 222.342 174.364 222.342 174.364C263.381 198.296 245.066 248.391 245.066 248.391Z" fill="white"/>
<path d="M141.565 209.994C141.565 209.994 128.051 255.168 128.089 257.795C128.089 257.795 123.897 278.776 129.263 298.143L162.017 295.383C162.017 295.383 152.492 292.073 155.564 268.327C155.564 268.327 157.895 254.129 160.629 252.767C160.629 252.767 161.257 251.385 162.047 253.656C162.047 253.656 171.184 276.268 190.597 291.94C190.597 291.94 203.195 305.749 231.367 313.048C231.367 313.048 255.695 316.595 268.38 303.326C268.38 303.326 279.491 294.701 277.345 273.638C277.345 273.638 277.305 271.483 275.478 273.335C275.478 273.335 267.772 284.194 244.998 284.956C244.998 284.956 238.404 287.018 218.1 274.88L174.664 246.71C174.664 246.71 172.703 245.617 175.261 245.055C175.261 245.055 197.88 238.275 204.015 232.052C204.015 232.052 223.623 219.48 224.723 203.943C224.723 203.943 227.126 186.779 219.371 177.74C219.371 177.74 216.862 176.445 216.293 178.352C216.293 178.352 205.815 191.953 196.321 199.692L168.012 223.017C168.012 223.017 165.844 224.842 167.264 221.002L173.423 196.641C173.423 196.641 177.438 188.035 164.066 190.612C164.066 190.612 143.964 194.98 134.303 210.113C134.303 210.113 133.482 210.654 135.102 210.995L141.565 209.994Z" fill="white"/>
</g>
</svg>
