<svg width="514" height="462" viewBox="0 0 514 462" fill="none" xmlns="http://www.w3.org/2000/svg">
<path d="M70.3622 2.01924L37.2161 2.7045C18.0839 3.10004 4.20762 21.0655 8.65915 39.6768L105.51 444.6C107.663 453.599 115.708 459.947 124.962 459.947H469.487C486.667 459.947 495.852 439.714 484.542 426.781L139.972 32.7544C122.454 12.7219 96.9682 1.46919 70.3622 2.01924Z" fill="white"/>
<path d="M70.3418 1.01965C97.2433 0.463578 123.012 11.8409 140.725 32.0958L485.295 426.123C497.17 439.703 487.527 460.947 469.487 460.947H124.962C115.246 460.947 106.798 454.282 104.538 444.832L7.68652 39.9093C3.08669 20.6777 17.4255 2.11399 37.1953 1.7052L70.3418 1.01965Z" stroke="#1E1E1E" stroke-width="2"/>
<path d="M107.754 290.345C101.575 301.219 108.126 315.595 110.406 319.536C113.823 325.54 122.508 336.306 135.853 326.784C149.229 317.282 141.319 304.201 138.35 300.472C135.92 297.451 114.812 277.909 107.754 290.345Z" fill="#F1551A"/>
<path d="M123.118 241.824C113.92 248.649 118.313 262.791 124.556 272.597C130.827 282.385 139.534 288.557 151.055 280.165C162.54 271.771 153.444 255.796 147.026 248.964C140.643 242.104 130.31 236.469 123.118 241.824Z" fill="#F1551A"/>
<path d="M151.871 204.719C144.546 209.58 144.153 221.206 152.488 237.205C160.834 253.163 173.773 253.683 182.127 247.581C190.502 241.507 190.067 225.598 179.925 214.002C169.801 202.443 159.32 199.754 151.871 204.719Z" fill="#F1551A"/>
<path d="M190.992 187.638C184.457 193.541 192.366 210.55 198.064 220.933C203.729 231.324 212.406 246.046 225.32 237.679C238.236 229.327 233.92 212.962 229.563 206.787C218.693 191.496 198.266 181.067 190.992 187.638Z" fill="#F1551A"/>
<path d="M255.871 210.047C244.855 210.528 244.01 220.157 245.752 232.281C247.484 244.4 254.259 249.956 263.469 248.942C272.681 247.947 275.223 239.256 274.343 229.182C273.466 219.073 265.172 209.638 255.871 210.047Z" fill="#F1551A"/>
<path d="M232.624 358.776C257.087 329.961 280.708 304.373 281.87 286.393C282.555 275.862 274.27 262.309 232.532 263.623C220.579 264 207.518 256.56 198.592 259.11C181.404 264.035 177.281 284.464 173.531 292.757C165.66 310.229 145.533 331.323 155.965 352.062C164.354 368.788 210.306 385.056 232.624 358.776Z" fill="#F1551A"/>
<path d="M87.7363 274.518C86.9216 271.486 88.7125 268.368 91.7512 267.551C94.7781 266.738 97.902 268.536 98.7166 271.569C99.5313 274.602 97.7297 277.727 94.7028 278.54C91.6641 279.356 88.5509 277.551 87.7363 274.518Z" fill="#F1551A"/>
<path d="M98.425 228.465C97.6129 225.442 99.4182 222.331 102.457 221.515C105.484 220.702 108.593 222.493 109.405 225.516C110.222 228.554 108.429 231.666 105.402 232.479C102.364 233.296 99.2412 231.504 98.425 228.465Z" fill="#F1551A"/>
<path d="M129.207 195.196C128.389 192.151 130.182 189.041 133.209 188.228C136.269 187.406 139.37 189.201 140.187 192.246C140.996 195.257 139.221 198.392 136.16 199.214C133.135 200.027 130.016 198.207 129.207 195.196Z" fill="#F1551A"/>
<path d="M173.714 176.376C172.892 173.315 174.678 170.218 177.726 169.399C180.755 168.585 183.874 170.365 184.696 173.426C185.506 176.441 183.707 179.574 180.678 180.387C177.631 181.205 174.524 179.391 173.714 176.376Z" fill="#F1551A"/>
<path d="M243.243 195.954C242.429 192.925 244.216 189.791 247.255 188.975C250.282 188.162 253.42 189.973 254.233 193.002C255.043 196.017 253.233 199.15 250.206 199.963C247.168 200.779 244.053 198.969 243.243 195.954Z" fill="#F1551A"/>
</svg>
