<svg width="514" height="459" viewBox="0 0 514 459" fill="none" xmlns="http://www.w3.org/2000/svg">
<path d="M70.3622 0.867752L37.2161 1.55301C18.0839 1.94855 4.20762 19.914 8.65915 38.5253L105.51 443.448C107.663 452.448 115.708 458.796 124.962 458.796H469.487C486.667 458.796 495.852 438.563 484.542 425.63L139.972 31.6029C122.454 11.5704 96.9682 0.317701 70.3622 0.867752Z" fill="#005D63"/>
<mask id="mask0_18_91" style="mask-type:alpha" maskUnits="userSpaceOnUse" x="5" y="-2" width="487" height="463">
<path d="M70.3418 -0.131836C97.2433 -0.687911 123.012 10.6894 140.725 30.9443L485.295 424.972C497.17 438.551 487.527 459.796 469.487 459.796H124.962C115.246 459.796 106.798 453.13 104.538 443.681L7.68652 38.7578C3.08669 19.5262 17.4255 0.962498 37.1953 0.553711L70.3418 -0.131836Z" fill="white" stroke="#1E1E1E" stroke-width="2"/>
</mask>
<g mask="url(#mask0_18_91)">
<path d="M377.791 312.271C376.144 306.241 358.746 308.803 344.368 307.488C331.362 306.343 314.616 303.918 294.474 296.914C275.668 290.293 257.481 282.704 241.626 274.071C241.626 274.071 235.141 270.639 234.453 270.26C233.184 269.461 232.156 268.873 230.785 268.078C230.063 267.591 228.826 266.858 228.006 266.515C226.869 265.996 226.151 265.405 225.157 264.815C224.194 264.195 222.821 263.538 221.898 262.945C220.386 262.009 219.494 261.35 218.121 260.309C217.298 259.687 216.851 259.477 215.719 258.856C215.031 258.406 213.831 257.708 213.181 257.294C211.91 256.462 211.119 255.735 209.85 254.903C209.028 254.279 208.478 253.934 207.553 253.343C206.59 252.823 205.697 252.06 204.877 251.471C204.428 251.124 203.845 250.745 203.4 250.292C202.473 249.394 201.549 248.562 200.552 247.832C199.692 247.138 198.837 246.27 197.909 245.646C197.237 245.064 196.551 244.498 195.852 243.949C194.444 242.944 193.551 242.148 192.108 241.141C191.218 240.448 190.43 239.512 189.537 238.784C188.473 238.025 187.546 237.153 186.446 236.464C185.796 235.907 185.008 235.318 184.494 234.731C183.77 233.932 183.189 233.379 182.398 232.581C181.851 231.992 180.886 231.299 180.305 230.709C179.379 229.599 178.143 228.455 177.01 227.521C176.291 226.827 176.083 226.514 175.81 226.17C175.605 225.854 175.295 225.509 174.814 224.989L173.785 223.95C173.512 223.707 173.235 223.463 172.48 222.702C172.243 222.461 171.793 221.837 171.383 221.28C171.041 220.83 170.695 220.344 170.523 220.101C169.77 219.305 169.29 218.855 168.845 218.3C168.499 217.917 168.124 217.502 167.643 217.086C167.371 216.782 167.14 216.443 166.955 216.079C166.756 215.737 166.526 215.413 166.271 215.11C165.824 214.591 165.514 214.8 165.414 214.866C165.173 215.11 165.07 215.527 165.378 216.151C165.72 216.842 166.269 217.609 166.615 218.056C166.653 218.148 166.712 218.23 166.785 218.298C166.888 218.542 167.026 218.749 167.129 218.993C167.343 219.316 167.538 219.652 167.712 219.998C168.295 220.725 168.912 221.28 169.395 221.87L169.976 222.461C170.319 222.875 170.664 223.293 170.938 223.707C171.246 224.19 171.555 224.677 171.966 225.127C172.174 225.268 172.31 225.476 172.516 225.72C172.652 225.959 172.86 226.203 173.065 226.48L174.026 227.452C174.54 228.004 175.123 228.523 175.605 228.977C175.981 229.322 176.429 229.773 176.874 230.223C177.902 231.469 179.07 232.755 179.998 233.968C180.545 234.663 181.505 235.178 182.16 235.665C182.946 236.222 183.429 237.052 183.978 237.745C184.42 238.265 185.348 239.061 185.727 239.652C186.791 241.003 187.544 241.799 188.953 242.772C189.775 243.43 190.43 243.951 191.116 244.853C191.491 245.336 192.691 246.55 193.173 247.069C194.306 248.562 194.82 249.979 194.647 249.979C193.861 250.19 191.936 248.456 190.807 247.763C189.844 247.139 189.708 246.895 188.851 246.204C188.611 245.995 187.237 244.989 186.758 244.4C186.377 244.018 185.35 242.942 185.006 242.497C183.429 240.45 182.845 240.311 180.991 238.545C179.617 237.194 178.006 236.014 176.668 234.763C176.261 234.376 175.871 233.972 175.5 233.551C175.123 233.1 174.573 232.683 174.198 232.306C173.543 231.505 172.757 230.014 172.033 229.427C171.247 228.836 170.695 228.353 169.94 227.691C169.633 227.554 169.393 227.205 169.154 226.966C168.74 226.722 168.295 226.376 168.021 225.959C167.129 224.885 166.269 223.707 165.378 222.563C165.001 221.975 164.35 221.521 163.971 220.969C163.081 219.754 162.357 218.473 161.466 217.26C160.23 215.629 158.481 214.452 157.211 212.822C156.044 211.157 155.256 209.182 154.123 207.449C153.642 206.653 152.854 206.062 152.304 205.404C151.961 204.954 151.822 204.467 151.518 203.984C150.868 203.037 150.204 202.101 149.525 201.176C148.737 200.033 148.187 198.644 147.363 197.398C147.226 197.191 146.918 196.425 146.503 195.732C145.956 195.074 145.508 194.383 144.961 193.482C144.447 192.611 144.137 192.023 143.76 191.365C143.315 190.741 143.073 190.153 142.765 189.703C142.524 189.285 141.941 188.489 141.736 188.14C140.945 187.032 140.772 186.444 139.984 185.332C139.506 184.744 138.988 184.192 138.612 184.366C138.268 184.607 138.369 184.988 138.474 185.299C138.751 186.236 138.751 186.098 139.162 186.789C139.779 187.9 139.984 188.453 140.672 189.459C140.945 189.978 141.494 191.122 141.941 191.784C142.386 192.406 142.765 193.097 143.073 193.651C143.346 194.242 143.829 195.665 144.343 196.251C144.684 196.669 145.134 197.606 145.408 198.226C146.094 199.512 146.882 200.552 147.569 201.557C148.013 202.389 148.46 203.29 148.873 204.086C149.765 205.473 150.83 206.686 151.722 208.073L153.299 210.983C153.814 211.782 154.568 212.442 155.047 213.276C155.702 214.209 156.044 215.283 156.661 216.217C157.108 217.016 157.794 217.678 158.276 218.473C159.168 219.756 159.956 220.967 160.814 222.181C161.328 222.875 161.947 223.394 162.426 224.089C163.081 225.022 163.628 226.06 164.35 226.86C165.173 227.659 165.378 228.145 166.064 228.872C167.093 230.084 169.426 233.551 169.082 233.551C167.643 233.724 164.933 230.603 163.695 229.496C162.84 228.595 161.844 227.935 161.225 227.104C160.333 225.821 159.647 224.434 158.754 223.255C158.413 222.807 157.827 222.461 157.554 222.007C156.902 221.211 156.321 220.344 155.597 219.584C155.289 219.305 154.947 219.094 154.706 218.749C153.573 217.258 152.649 215.735 151.516 214.209C151.103 213.62 150.484 213.063 150.075 212.442C149.729 211.992 149.525 211.506 149.182 210.95C148.806 210.256 148.187 209.599 147.774 208.905C147.43 208.419 147.227 207.867 146.882 207.448C146.331 206.514 145.508 205.749 144.925 204.816C144.479 204.086 144.378 203.152 143.896 202.353C142.66 200.516 141.286 198.575 140.122 196.669C139.848 196.183 139.675 195.665 139.401 195.11C138.474 193.585 137.551 191.954 136.553 190.395C136.209 189.839 136.072 189.184 135.659 188.66C135.25 187.9 134.562 187.415 134.153 186.721C133.776 186.167 133.602 185.645 133.329 185.057C132.985 184.258 132.505 183.429 132.093 182.735C131.85 182.216 131.714 181.729 131.405 181.277C130.283 179.41 129.275 177.477 128.385 175.488C127.838 174.414 127.116 173.481 126.633 172.405C126.088 171.262 125.536 169.98 125.023 168.868C124.712 168.105 124.404 167.309 124.235 166.547C123.652 165.265 122.757 164.222 122.21 162.94C121.83 162.144 121.625 161.312 121.283 160.582C121.042 160.169 120.664 159.787 120.323 159.997C120.05 160.169 120.012 160.514 120.218 161.209C120.561 162.558 121.247 163.983 121.592 164.741C122.28 166.198 122.552 167.759 123.24 169.217C123.584 170.012 124.131 170.812 124.473 171.642L126.364 175.801C126.705 176.528 127.014 177.327 127.457 178.02C127.633 178.471 128.007 178.921 128.18 179.302C128.593 180.31 128.729 181.243 129.107 182.18C129.621 183.116 130.34 183.912 130.686 184.849C132.947 189.532 135.181 194.137 137.891 198.333C138.612 199.512 138.988 200.966 139.743 202.147C140.567 203.391 141.599 204.259 142.386 205.509C142.969 206.516 143.177 207.867 143.692 208.905C144.617 210.5 145.716 211.885 146.677 213.309C146.918 213.759 146.985 214.209 147.258 214.589C147.602 215.179 148.118 215.803 148.46 216.39C148.942 217.191 149.182 218.056 149.729 218.749C150.312 219.544 151.103 220.206 151.618 220.968C152.371 221.975 152.854 223.118 153.573 224.053C154.087 224.745 154.842 225.228 155.358 225.926C156.183 226.997 159.031 230.709 159.855 231.818C161.055 233.379 163.285 235.77 164.35 237.848C164.659 238.544 165.755 239.998 165.514 240.309C164.933 240.759 162.152 237.676 161.671 237.193C160.537 236.046 159.509 234.52 158.513 233.238C158.24 232.928 155.53 230.328 155.287 230.012C155.032 229.642 154.792 229.262 154.568 228.872C153.777 227.796 153.332 226.478 152.544 225.371C152.2 224.989 151.721 224.644 151.38 224.19C150.794 223.362 150.348 222.425 149.765 221.56C148.804 220.275 147.568 219.166 146.641 217.777C145.544 216.392 144.822 214.696 143.791 213.202C143.246 212.509 142.629 211.92 142.146 211.157C141.872 210.813 141.803 210.467 141.599 210.118C141.186 209.562 140.672 208.869 140.431 208.212C140.12 207.62 139.917 207.1 139.575 206.549C138.478 204.775 137.391 202.995 136.313 201.21C135.831 200.483 135.522 199.582 135.044 198.783C134.253 197.537 133.121 196.425 132.333 195.074C131.305 193.548 130.822 191.714 129.862 190.153C129.212 189.146 128.421 188.213 127.838 187.205C127.116 186.098 126.774 184.815 126.191 183.668C125.604 182.666 124.817 181.693 124.335 180.691C123.821 179.543 123.481 178.471 122.966 177.327C122.655 176.738 122.21 176.114 121.969 175.488C121.625 174.73 121.524 173.931 121.178 173.168C120.254 171.051 118.777 169.041 117.816 166.965C117.076 165.436 116.434 163.86 115.897 162.249C115.618 161.381 115.447 160.513 115.037 159.719C114.177 157.811 113.116 155.729 112.22 153.754C111.873 152.737 111.52 151.721 111.161 150.707C111.133 150.395 111.051 150.09 110.92 149.806C110.506 148.906 110.028 148.038 109.682 147.132C109.307 146.065 108.952 144.991 108.618 143.911C107.282 140.515 106.012 136.665 104.742 133.098C104.606 132.436 104.537 131.673 104.296 130.981C103.679 129.146 102.991 127.271 102.341 125.437C101.964 124.501 101.072 124.846 101.313 125.781C101.55 127.029 101.758 127.376 101.894 128.347C101.999 128.902 102.1 129.353 102.205 129.839C102.341 130.461 102.685 131.121 102.855 131.673C103.196 132.785 103.232 133.823 103.608 134.935C104.124 136.355 104.638 137.845 105.153 139.337C105.292 140.028 105.429 140.791 105.565 141.59C105.839 142.28 106.08 143.046 106.32 143.67C107.041 145.542 107.794 147.273 108.413 149.145C108.654 150.188 108.963 151.224 109.237 152.338C109.546 152.923 109.992 153.514 110.165 154.103C110.439 154.554 110.473 155.073 110.68 155.626C111.161 156.772 111.606 158.022 112.085 159.199C112.532 160.169 113.116 161.174 113.491 162.25C113.663 162.701 113.663 163.151 113.835 163.637C114.932 166.79 116.201 170.081 117.507 173.027C117.852 173.789 117.954 174.519 118.263 175.315C118.54 175.939 118.949 176.527 119.19 177.188C119.328 177.57 119.464 177.984 119.635 178.434C120.05 179.266 120.7 179.997 121.142 180.829C122.311 183.256 123.307 185.576 124.712 187.657C126.088 189.531 126.633 192.161 127.633 194.486C128.144 195.524 128.731 196.461 129.348 197.398C129.654 197.882 129.862 198.506 130.101 198.993C130.719 200.17 131.063 201.208 131.922 202.252C132.505 203.152 132.433 203.391 132.947 204.572C133.088 204.918 133.702 207.205 133.566 207.205C133.362 207.344 132.261 206.653 131.922 206.2C131.372 205.648 130.581 204.918 130.031 203.671C129.757 202.977 129.212 201.935 128.934 201.351C128.248 199.825 127.014 198.575 126.191 197.191C125.64 196.425 125.4 195.456 124.954 194.591C124.234 192.993 123.376 191.365 122.621 189.703C122.311 189.044 121.83 188.42 121.419 187.759C121.042 187.174 120.837 186.444 120.39 185.782C119.568 184.399 118.54 182.874 117.852 181.348C117.338 180.203 117.061 179.06 116.547 177.984C116.411 177.64 116.102 177.291 115.897 176.946C115.551 176.389 115.415 175.801 115.073 175.145C114.697 174.277 114.145 173.481 113.699 172.58C112.908 170.844 112.43 169.076 111.639 167.415C111.262 166.547 110.611 165.853 110.268 165.09C109.751 163.878 109.651 162.352 108.999 161.07C107.591 157.706 105.875 154.241 104.537 150.638C104.365 150.045 104.296 149.356 104.124 148.763C103.577 147.173 102.855 145.75 102.236 144.256C101.999 143.565 101.963 142.974 101.758 142.28C101.381 141.209 100.865 140.097 100.489 139.095C100.384 138.746 100.348 138.332 100.21 137.983C99.801 137.049 99.5243 135.87 99.0805 134.867C98.8381 134.342 98.4287 133.787 98.2552 133.235C97.8458 132.197 97.9506 130.981 97.6411 129.941C97.1174 128.464 96.5671 126.996 95.9904 125.539C95.7529 124.71 95.6841 123.911 95.3402 123.079C94.9964 122.11 94.6525 121.035 94.3102 120.135C93.9336 119.092 93.9663 118.121 93.6241 117.046C93.4328 116.246 93.1566 115.468 92.8004 114.726C92.3222 113.268 92.1126 111.778 91.636 110.494C91.5743 110.258 91.4938 110.027 91.3953 109.803C91.2545 109.42 90.981 109.075 90.6404 109.179C90.2621 109.317 90.2621 109.87 90.2621 110.218C90.3636 111.189 90.7403 112.125 91.0498 112.993C91.3265 113.825 91.5312 114.759 91.7376 115.594C91.8735 116.178 91.8407 116.735 91.9766 117.326C92.183 118.158 92.4597 118.921 92.6972 119.753C92.9052 120.479 92.8004 121.343 92.9739 121.936C93.4881 123.669 94.0351 125.644 94.6197 127.271C94.8604 128.139 94.9309 129.146 95.1699 129.839C95.5122 130.773 95.7857 131.673 96.0952 132.505C96.3719 133.304 96.4391 133.93 96.7125 134.619C97.0564 135.418 97.4675 136.145 97.7082 137.013C97.9817 138.055 97.9817 139.126 98.3239 140.097C98.979 141.797 99.6979 143.323 100.248 144.949C100.453 145.506 100.489 146.13 100.694 146.721C101.208 148.07 101.55 149.562 101.999 150.946C102.754 152.854 103.679 154.796 104.296 156.736C105.051 158.643 105.153 160.932 105.908 162.701C106.32 163.601 107.144 164.158 107.522 164.988C107.832 165.573 107.727 166.166 107.932 166.858C108.14 167.589 108.482 168.28 108.723 168.973C108.896 169.631 109.066 170.219 109.237 170.812C109.548 171.537 110.097 172.231 110.337 172.924C110.851 174.065 111.161 175.315 111.778 176.288C112.22 177.051 112.876 177.778 113.323 178.678C113.768 179.615 113.904 180.653 114.282 181.625C114.932 183.082 115.756 184.431 116.237 185.994C116.752 187.309 116.925 188.8 117.613 189.978C118.194 191.227 119.051 192.3 119.737 193.482C120.119 194.383 120.492 195.215 120.905 196.183C121.248 196.807 121.866 197.501 122.313 198.226C122.757 199.094 123.307 200.065 123.685 200.966C124.027 201.695 124.131 202.353 124.471 202.977C125.09 203.878 125.536 204.677 126.119 205.612C126.692 206.503 127.187 207.442 127.597 208.419C127.907 209.218 128.18 209.945 128.593 210.602C129.071 211.227 129.654 211.851 130.031 212.477C130.445 213.169 130.959 215.457 130.719 215.527C130.309 215.698 128.934 214.416 128.524 213.965C127.493 212.578 126.91 210.846 125.983 209.462C124.922 207.936 124.268 207.1 123.481 205.368C122.997 204.366 122.21 202.597 121.592 201.659C121.042 200.83 120.323 200.065 119.909 199.127C119.568 198.402 119.362 197.432 119.051 196.669C118.54 195.56 117.507 194.835 116.992 193.759C116.342 192.474 116.102 191.122 115.447 189.876C115.173 189.357 114.728 188.699 114.487 188.075C114.145 187.309 113.94 186.581 113.594 185.818C112.876 184.258 111.778 182.976 111.125 181.384C110.337 179.789 109.925 178.123 109.101 176.46C108.724 175.664 108.036 174.865 107.627 173.964C107.041 172.819 106.803 171.642 106.219 170.466C105.908 169.772 105.429 169.074 105.084 168.385C104.638 167.415 104.467 166.27 104.023 165.229C102.922 162.838 101.894 160.447 100.829 158.055C100.453 157.121 100.348 156.217 99.9058 155.246C99.5619 154.447 99.1149 153.722 98.7366 152.854C97.8458 150.772 97.5002 148.313 96.575 146.235C96.0952 145.157 95.5433 144.155 95.1012 143.046C94.4838 141.209 94.1743 139.37 93.5553 137.536C92.5596 134.729 91.7376 131.747 90.7403 129.043C90.4668 128.139 90.398 127.376 90.1262 126.512C89.815 125.676 89.5432 124.846 89.2304 124.05C89.0257 123.425 88.8882 122.419 88.6835 121.587C87.9613 119.196 87.2424 116.838 86.4514 114.449C86.3139 113.858 86.2451 112.888 86.042 112.091C85.9716 111.711 85.6965 111.189 85.6277 110.843C85.423 110.324 85.423 109.87 85.2855 109.284C84.6354 107.548 84.1883 105.503 83.6037 103.77C83.5021 103.251 83.4661 102.452 83.2598 101.795C82.4737 99.3686 82.0922 96.3178 81.1686 94.0333C80.9639 93.6157 80.6871 93.1621 80.2401 93.2669C79.7947 93.3717 79.8995 93.8581 79.9322 94.2397C80.0681 95.4171 80.4824 96.3538 80.6855 97.3232C80.7543 97.7048 80.7543 98.2943 80.7543 98.7774C80.8591 99.231 80.9279 99.7862 81.0654 100.169C81.5108 101.658 81.9923 103.39 82.4377 104.879C82.5736 105.573 82.4737 106.651 82.6424 107.444C83.2614 109.769 83.7068 112.576 84.5993 114.726C85.423 116.596 85.5589 118.921 86.0404 120.998C86.2451 121.864 86.3139 122.766 86.3827 123.705C86.5546 124.533 87.0377 125.195 87.3095 125.92C87.5142 126.477 87.5142 126.926 87.6862 127.447C88.1005 128.938 88.4427 130.46 89.0257 131.953C89.3696 132.991 89.9166 133.999 90.2621 135.037C90.4668 135.454 90.3636 135.869 90.4995 136.355C90.7403 137.395 90.9482 138.435 91.2905 139.473C91.9783 141.487 92.6644 143.737 93.3833 145.748C93.796 146.926 93.8975 148.038 94.3102 149.145C95.8888 153.514 97.569 157.953 99.1149 162.319C99.4244 163.256 99.6618 164.222 99.9058 165.159C100.248 166.166 100.829 167.066 101.276 167.898C101.827 169.076 101.894 170.256 102.341 171.468C102.855 172.819 103.541 173.931 104.023 175.42C104.26 176.114 104.537 176.877 104.846 177.57C105.084 178.123 105.567 178.61 105.839 179.06C106.183 179.961 106.253 181.105 106.699 181.936C107.108 182.836 107.832 183.498 108.313 184.366C108.827 185.093 108.86 186.03 109.237 186.927C109.889 188.245 110.611 189.459 111.194 190.915C111.467 191.507 111.606 192.059 111.849 192.611C112.085 193.237 112.635 193.897 112.908 194.555C112.908 194.555 112.977 194.555 112.977 194.591C113.013 194.728 113.013 194.835 113.08 194.968C113.12 195.279 113.201 195.583 113.321 195.873C113.458 196.25 113.904 196.911 114.041 197.15C114.145 197.293 114.454 197.642 114.697 197.951C114.828 198.087 114.942 198.238 115.037 198.402C115.62 199.269 115.654 200.621 116.134 201.59C116.583 202.597 117.407 203.391 117.919 204.366C118.263 205.162 118.435 207.1 118.021 207.136C116.066 207.136 115.897 204.366 115.278 202.941C114.695 201.765 113.94 200.83 113.321 199.72C113.143 199.374 112.994 199.014 112.876 198.644C112.736 198.297 112.566 197.882 112.43 197.537C112.189 197.018 112.189 197.051 112.053 196.705C111.847 196.356 111.297 195.665 111.125 195.28V195.215C110.337 194.036 109.82 192.3 109.237 191.468C108.963 190.985 108.549 190.535 108.277 190.05C107.796 189.285 107.522 188.35 107.144 187.413C106.767 186.683 106.184 185.889 105.839 185.093C105.393 184.12 105.325 182.874 104.879 181.867C104.638 181.348 104.191 180.793 103.954 180.31C103.44 179.129 103.096 177.915 102.513 176.808C102.236 176.252 101.858 175.765 101.55 175.213C101.141 174.277 100.865 173.273 100.384 172.336C99.3556 170.499 98.2552 168.453 97.4003 166.477C96.9172 165.265 96.7125 164.084 96.1983 162.94C95.7857 161.97 95.2027 160.968 94.7573 160.064C94.4838 159.438 94.3806 158.818 94.1383 158.16C93.7289 157.015 93.2474 155.872 92.8004 154.76C92.5596 154.067 92.3549 152.336 92.183 151.644C91.8391 150.844 91.4281 149.94 91.0858 149.145C90.5683 147.933 90.3636 146.652 89.8167 145.403C89.44 144.502 88.993 143.461 88.6147 142.527C88.3052 141.695 88.2708 140.965 87.9269 140.169C87.6878 139.612 87.3095 138.92 87.1376 138.332C86.8314 137.637 86.6922 136.458 86.4498 135.52C86.1092 134.482 85.6638 133.479 85.3526 132.436C85.1135 131.673 85.1135 129.872 84.8728 129.423C83.8116 126.236 82.816 122.768 81.7876 119.542C81.406 118.122 81.1686 116.596 80.7232 115.143C80.5856 114.552 80.5856 113.825 80.412 113.232C80.1369 112.335 79.7259 111.326 79.4851 110.462C79.3132 109.767 79.2117 109.111 79.0758 108.485C78.9038 107.828 78.5583 107.101 78.3208 106.441C77.7018 104.534 77.3923 102.452 76.8421 100.618C76.6014 99.7862 76.6014 98.7774 76.4327 98.0503C75.6778 95.7299 75.4731 93.0606 74.8541 90.5322C74.7181 89.8346 74.5446 89.1435 74.4086 88.4508C73.2394 83.9098 72.6924 78.7776 71.3873 74.3758C71.1466 73.5439 71.4233 72.5056 71.2841 71.5706C70.9746 70.5651 70.7011 69.6284 70.3916 68.7277C70.2557 68.2414 70.2557 67.8926 70.1509 67.4455C69.9135 66.6463 69.5679 66.0585 69.2273 66.1633C68.7459 66.3696 68.813 66.8199 68.813 67.4455C68.8818 68.4837 68.9866 69.2829 69.2273 70.1148C69.3305 70.8746 69.2601 71.3937 69.432 72.0553C69.8414 73.4423 70.015 75.4516 70.1869 76.7322C70.2885 77.289 70.2557 77.9817 70.3556 78.64C70.4964 79.2639 70.9746 80.2023 71.1466 80.859C71.2841 81.8284 71.2841 83.0779 71.3873 84.049C71.5609 84.9169 71.7967 85.7471 72.0751 86.579C72.247 87.2701 72.0751 87.9644 72.3158 88.626C72.4845 89.3187 72.8988 89.9394 72.9987 90.6337C73.1362 91.5344 72.9987 92.7134 73.1723 93.4078C74.1679 97.4624 74.4414 102.144 75.645 106.06C75.7793 106.651 75.7793 107.203 75.9152 107.724C76.9141 111.086 77.6347 114.759 78.6614 118.122C78.7663 118.609 78.7662 119.16 78.9038 119.753C79.2444 120.929 79.4851 122.211 79.7259 123.425C79.8995 123.944 79.8995 124.432 79.9994 124.951C80.3449 126.236 80.8231 127.412 81.2046 128.658C81.3733 129.251 81.406 129.77 81.5108 130.394C81.614 130.879 81.8547 131.398 81.9923 131.812C82.197 132.541 82.1282 133.237 82.3329 133.823C82.4737 134.241 82.816 134.619 82.9159 135.073C83.0567 135.764 83.1566 136.458 83.3646 137.187C83.6037 138.055 84.0524 138.887 84.4257 139.719C84.7041 140.413 84.7041 141.102 84.9399 141.797C85.4574 143.046 85.9716 144.397 86.381 145.647C86.7953 146.685 86.8314 147.725 87.2424 148.799C87.4831 149.457 87.7566 150.188 87.9957 150.88C88.1693 151.432 88.2708 151.92 88.4427 152.508C88.6474 153.027 89.1977 153.859 89.5432 154.485C89.7806 155.246 89.6791 156.217 89.9166 157.015C90.1573 157.847 90.6044 158.472 90.9139 159.199C91.1546 159.997 91.1546 160.724 91.3265 161.52C91.5312 162.144 91.9423 162.699 92.183 163.256C92.4237 163.878 92.6644 164.571 92.9035 165.159C93.0411 165.612 93.4521 166.059 93.6241 166.514C93.9336 167.24 94.2431 168.037 94.5165 168.835C94.998 169.873 95.0668 171.298 95.4074 172.544C95.5122 172.888 95.4434 173.789 95.2027 173.859C94.7212 173.931 94.1383 173.132 93.796 172.647C93.1877 171.76 92.6594 170.821 92.2174 169.84C92.086 169.476 91.9713 169.105 91.8735 168.73C91.5878 167.828 91.2671 166.938 90.9122 166.061C90.7075 165.573 90.3636 164.988 90.1589 164.433C89.8838 163.637 90.0214 162.665 89.7119 161.97C89.4744 161.381 88.9913 160.932 88.6835 160.342C88.5115 159.786 88.4427 159.199 88.202 158.711C87.9263 158.064 87.5814 157.448 87.1736 156.874C86.9329 156.284 86.9329 155.697 86.7282 154.938C86.4858 154.139 86.2451 153.304 85.9045 152.577C85.559 151.781 85.0808 151.052 84.7352 150.186C84.5993 149.806 84.4945 149.356 84.3586 148.906C84.1414 148.3 83.8893 147.708 83.6037 147.132C83.5144 146.662 83.389 146.199 83.2287 145.748C82.9175 145.088 82.5736 144.397 82.3329 143.67C82.1282 143.079 82.0922 142.491 81.8547 141.902C81.5108 140.896 81.2046 139.751 80.8591 138.746C80.6184 137.95 80.5856 137.187 80.3449 136.424C80.0354 135.52 79.6571 134.619 79.3492 133.722C79.0758 132.991 79.007 132.161 78.799 131.467C78.4567 130.461 77.9753 129.597 77.633 128.554C77.4251 127.725 77.4251 126.926 77.2891 126.163C76.7062 124.257 76.0872 122.179 75.4714 120.235C74.8541 118.053 74.7509 115.558 74.0991 113.372C73.6865 111.849 73.1723 110.357 72.6924 108.835C72.4845 108.002 72.4845 107.237 72.3158 106.441C71.8671 104.778 71.2841 102.452 70.7011 100.687C70.3916 99.7174 70.4604 98.7447 70.1869 97.7064C69.9135 96.6993 69.8431 95.4859 69.5679 94.3789C69.3305 93.6845 69.1225 93.2669 68.9866 92.3646C68.7803 91.5344 68.813 90.4961 68.6755 89.8346C68.5395 89.1435 67.408 85.3312 67.3032 84.6369C67.2016 83.9786 67.2016 82.6243 67.1345 82.246C67.0657 81.8988 66.4794 80.2023 66.4467 79.8535C66.3435 79.4031 66.3435 78.9168 66.1388 78.0145C66.0013 77.1498 65.5198 75.3125 65.415 74.7557C65.3151 74.2415 65.3151 73.0935 65.2103 72.6104C65.1088 71.9849 64.7649 70.7731 64.5225 69.8724C64.2147 68.7965 64.4898 67.6158 64.1459 66.5808C63.9412 65.7817 63.6317 65.0841 63.3598 64.3259C63.2223 63.7003 63.016 62.8684 63.016 62.4541C62.9128 61.9317 62.9128 60.6855 62.8768 60.2319C62.8768 59.6096 62.6033 58.6042 62.5345 57.6707C62.4558 56.5688 62.2716 55.477 61.9843 54.4103C61.8811 53.96 61.9171 53.4065 61.8484 53.0249C61.5045 51.8491 61.1966 50.7012 60.5416 50.806C60.1322 50.8387 59.9586 51.1875 60.1649 52.0178C60.4056 52.9201 60.4728 53.6472 60.7135 54.6166C60.9198 55.1079 60.9198 56.3165 60.9542 56.734C60.9542 57.4251 60.9903 57.5299 61.0918 58.1538C61.0918 58.3978 61.1966 59.0545 61.2277 59.3313C61.3325 59.7488 61.5012 60.34 61.5012 60.6855V62.1053C61.5012 62.4541 61.5012 62.5557 61.5732 63.1124C61.7419 63.6643 61.7779 63.702 61.8467 64.1867C61.8795 64.601 61.8467 64.9826 61.8467 65.2953C61.8467 65.7097 61.9155 66.0585 62.0154 66.5072C62.261 67.3079 62.8063 68.4477 62.6016 69.5956C62.3609 70.873 62.7032 72.0553 63.016 73.0935C63.1519 73.8239 63.016 74.5854 63.1519 75.206L63.8397 78.1209C64.0444 78.9856 63.9396 79.6783 64.1443 80.4086C64.4226 81.4845 65.1759 82.9403 65.2087 83.3563C65.3135 83.8737 65.2447 85.1592 65.4134 85.9879C65.5509 86.787 65.7589 87.7237 65.7949 88.2756C65.8637 88.7259 65.7949 89.0027 65.8637 89.3515C65.8965 89.733 66.4451 91.5704 66.5138 92.0568C66.6186 92.5759 66.5826 92.8166 66.6858 93.303C66.7873 93.7861 67.2 95.7626 67.2688 96.4226C67.3703 97.0481 67.3015 97.4624 67.4063 98.0503C67.647 99.0935 68.0564 99.8877 68.23 100.826C68.402 101.551 68.3299 101.969 68.4347 102.559C68.6427 103.427 68.9162 104.221 69.0848 105.053C69.2257 105.711 69.2257 106.373 69.3305 106.993C69.6023 108.418 69.807 109.87 70.1853 111.293C70.4588 112.125 70.9402 112.921 71.181 113.72C71.3857 114.449 71.4217 115.211 71.6264 115.939C71.7967 116.596 72.2454 117.184 72.4141 117.911C72.5516 118.402 72.4828 119.023 72.5876 119.647C72.7923 120.305 73.1018 120.929 73.1706 121.694C73.3426 122.179 73.2378 122.662 73.3426 123.217C73.5145 123.806 73.8207 124.325 73.9616 124.882C74.0975 125.644 74.0975 126.443 74.3022 127.101C74.5069 127.966 74.8524 128.798 75.1259 129.597C75.3994 130.322 75.2978 131.121 75.4354 131.921C75.9136 133.65 76.4998 135.556 77.0828 137.151C77.3563 137.983 77.2875 138.92 77.5282 139.853C77.769 140.446 78.0785 140.896 78.3192 141.448C78.5239 142.005 78.388 142.627 78.5239 143.22C78.7974 144.328 78.9693 145.712 79.3476 146.721C79.6915 147.862 80.376 148.868 80.8214 149.94C81.203 151.12 81.2718 152.338 81.6124 153.514C81.9897 154.514 82.4132 155.496 82.8815 156.456C83.227 157.36 83.1222 158.471 83.4645 159.337C83.7412 160.342 84.4241 161.07 84.8384 162.075C85.3199 163.184 85.559 164.327 85.9028 165.471C86.006 165.958 86.1075 166.408 86.2124 166.965C86.6578 168.385 87.4127 169.631 87.9269 171.018C88.0988 171.712 88.1676 172.23 88.3363 172.819C88.6818 173.859 89.1273 174.865 89.5743 175.906C89.9837 176.738 90.4979 177.57 90.9122 178.471C91.2889 179.266 91.3249 180.098 91.7343 180.933C91.975 181.729 92.3533 182.63 92.6955 183.429C92.9035 183.948 92.9035 184.399 93.141 184.952C94.0678 187.174 95.3059 189.39 96.3343 191.609C96.9172 192.786 97.158 194.105 97.7066 195.318C98.1536 196.32 98.6678 197.191 99.1149 198.226C99.354 198.888 99.4555 199.512 99.765 200.134C100.279 201.312 101.07 202.527 101.615 203.776C101.756 204.017 102.166 205.299 101.961 205.823C101.961 205.856 101.892 205.959 101.858 205.959C101.514 206.062 100.728 205.473 100.346 205.058C98.9053 203.639 98.6678 200.964 97.7393 199.127C97.4658 198.644 97.1252 198.056 96.8124 197.501C96.6749 197.119 96.6077 196.774 96.4374 196.425C95.7824 195.215 95.0651 194.209 94.5149 192.891C94.1383 192.023 94.0335 190.985 93.6912 190.153C92.0078 186.616 90.1557 183.221 88.6474 179.722C87.9269 178.123 87.755 176.252 87.172 174.519C86.7953 173.514 86.1436 172.649 85.7637 171.712C85.4198 170.949 85.3526 170.117 84.9743 169.39C84.4929 168.349 83.8428 167.448 83.5005 166.303C83.2598 165.612 83.1566 164.883 82.8815 164.224C82.572 163.39 82.0234 162.766 81.7139 162.075C81.2718 160.932 81.1669 159.823 80.7526 158.538C80.5718 157.853 80.3425 157.181 80.0665 156.528C79.8978 155.973 79.829 155.385 79.6571 154.796C79.21 153.442 78.4224 152.264 77.8721 150.948C77.5282 150.014 77.6314 148.868 77.2875 147.964C76.9453 147.238 76.3623 146.654 76.0184 145.887C75.7449 145.088 76.0184 144.119 75.7777 143.185C75.5386 142.28 75.1947 141.45 74.8884 140.619C74.7476 140.028 74.7165 139.512 74.5069 139.026C74.0975 137.88 73.7209 136.805 73.3426 135.764C73.1706 135.179 73.1706 134.688 72.9283 134.136C72.6564 133.547 72.1422 132.957 71.8999 132.197C71.6264 131.154 71.5592 130.047 71.3185 128.938C70.8715 127.62 70.39 126.476 70.0134 125.125C69.8398 124.71 69.8398 124.293 69.7726 123.842C69.4287 122.63 69.2584 121.278 68.985 120.135C68.8114 119.542 68.8801 119.023 68.7442 118.471C68.4003 117.359 67.9877 116.178 67.647 115.143C67.4735 114.413 67.4063 113.719 67.2704 113.064C66.7873 111.261 66.2387 109.179 65.6901 107.48C65.587 106.96 65.6541 106.543 65.4494 106.027C65.1072 104.673 64.5225 103.009 64.213 101.658C64.0755 100.826 64.0755 100.027 63.8708 99.2998C63.6988 98.3271 63.3566 97.4624 63.1519 96.5257C63.1158 96.0754 63.1519 95.7299 63.1519 95.4171C63.0471 94.7932 63.0143 94.1349 62.9112 93.6157C62.3282 91.1201 61.3325 88.174 60.8511 85.7111C60.6103 84.8104 60.6103 83.9098 60.5088 83.0779C60.4056 82.4179 60.3729 81.7269 60.1649 81.103C59.9586 80.4414 59.6851 79.8174 59.5819 79.1264C59.4804 78.0882 59.4444 77.0483 59.2708 76.0428C59.2708 75.938 59.2708 75.902 59.2364 75.7988C59.0989 74.587 58.4487 71.9849 58.3112 70.9794C58.1148 69.7715 57.9542 68.5581 57.8297 67.3407C57.8297 66.5808 57.6611 65.7817 57.5923 64.9498C57.3859 63.7003 57.0764 62.5573 56.9765 61.2734C56.9061 60.3728 56.9389 59.6113 56.839 58.9169C56.803 58.3978 56.7358 57.6347 56.1528 57.6347C55.5715 57.6347 55.673 58.2963 55.5977 58.8465C55.5715 60.1304 55.8106 61.863 55.9137 62.6621C56.1184 64.1523 55.9465 65.6409 56.1184 67.1655C56.2216 68.0334 56.4951 68.898 56.5999 69.6644C56.8046 71.117 56.9422 72.6104 57.0781 73.9614V74.0302C57.1469 74.7246 57.1829 75.3125 57.3188 75.938C57.3188 76.0068 57.3188 76.0428 57.3876 76.1083V76.3179C57.4924 76.5963 57.5268 76.9075 57.6283 77.1498C57.7659 77.6706 57.7331 78.1209 57.869 78.7088C58.3144 80.4086 58.2129 82.246 58.6567 83.8737C59.2757 86.3006 59.6196 88.9011 60.3762 91.3641C60.5448 92.0207 60.3762 92.7478 60.5448 93.5093C60.8216 94.2397 60.9935 95.0028 61.1638 95.7299C61.3358 96.6666 61.1982 97.6 61.4357 98.5007C61.6453 99.3686 61.9188 100.237 62.1235 101.068C62.433 102.002 62.433 103.045 62.7065 104.119C63.0176 105.228 63.3615 106.405 63.5285 107.444C63.8069 108.729 63.8741 110.149 64.1475 111.395C64.3195 112.541 64.9712 113.825 65.212 115.039C65.212 115.383 65.212 115.8 65.248 116.25C65.4282 117.089 65.6346 117.921 65.867 118.746C65.9341 119.16 65.8997 119.44 66.0357 119.888C66.4483 121.486 66.9265 123.425 67.3736 124.951C67.5095 125.401 67.5455 125.888 67.6503 126.338C67.9909 127.412 68.3004 128.244 68.4364 128.798C68.5412 129.353 68.646 129.977 68.7475 130.566C68.9882 131.398 69.2601 132.091 69.3649 132.887C69.5024 133.479 69.6056 133.999 69.7743 134.586C69.9479 135.281 70.2574 135.905 70.5308 136.596C70.9763 137.983 71.0811 139.511 71.5265 140.896C71.8 141.695 72.2143 142.491 72.4861 143.321C72.6941 144.153 72.7956 145.088 73.0363 145.989C73.449 147.343 73.9632 148.904 74.443 150.257C75.0604 151.883 75.4026 153.722 75.9169 155.177C76.1609 155.836 76.1248 156.424 76.3295 157.121C76.8126 158.607 77.2908 160.342 77.7706 161.865C78.0457 162.701 78.0457 163.495 78.3896 164.294C78.9054 165.573 79.6604 166.721 80.1385 168.003C80.5185 169.18 80.62 170.255 81.0654 171.367C81.6156 172.786 82.2314 174.173 82.8176 175.696C83.1583 176.738 83.3318 177.776 83.7085 178.783C84.0524 179.543 84.5322 180.447 84.9416 181.243C85.22 181.972 85.5278 182.735 85.6965 183.462C85.9061 184.019 86.4875 184.988 86.9345 185.75C87.3799 186.789 87.4848 187.864 87.8254 188.94C88.4444 190.636 89.2321 192.372 89.9182 193.897C90.2293 194.486 90.2637 195.041 90.5012 195.731C90.9139 196.807 91.6377 197.642 92.0798 198.646C92.5285 199.615 92.6661 200.657 93.0427 201.59C93.6945 202.977 94.1759 203.776 94.1399 205.749C94.1399 205.89 94.0711 206.061 93.8992 206.098C93.5569 206.236 93.1442 205.648 92.9068 205.473C91.8424 204.366 91.7376 203.427 91.0514 201.935C90.023 199.72 88.7539 197.707 87.7222 195.56C87.2801 194.486 87.0377 193.235 86.4875 192.128C86.2156 191.435 85.7669 190.671 85.4591 189.978C84.9416 189.008 84.7058 187.965 84.1899 187.065C83.5021 185.681 82.8848 184.156 82.3034 182.735C82.025 182.111 82.025 181.592 81.7892 181.105C81.5108 180.483 81.1702 179.959 80.8607 179.371C80.5185 178.471 80.2777 177.327 79.9011 176.391C79.1101 174.658 78.2177 172.788 77.4988 170.949C76.9485 169.217 76.603 167.654 75.9856 165.82C75.7482 165.159 75.4026 164.327 75.198 163.637C74.9605 162.94 74.9605 162.421 74.7509 161.8C74.1485 160.207 73.4964 158.634 72.7956 157.082C72.4534 156.322 72.3502 155.592 72.0751 154.796C71.7312 153.859 71.3218 152.749 70.9763 151.783C70.5308 150.6 70.4981 149.146 70.0166 147.758C69.0193 145.023 67.7175 142.041 66.8594 139.026C66.7218 138.332 66.7906 137.637 66.5859 136.945C66.0703 135.376 65.6012 133.792 65.1792 132.196C64.629 130.46 64.7305 128.59 64.1475 126.821C63.4597 124.605 62.7065 122.318 61.9859 120.135C61.7812 119.404 61.8827 118.746 61.678 118.053C61.1982 116.285 60.6136 114.308 60.0306 112.715C59.7211 111.95 59.7211 111.086 59.4477 110.357C59.1038 109.42 58.2146 109.767 58.2473 110.81C58.3144 111.711 58.6567 112.888 58.7615 113.339C58.8647 114.032 58.8647 114.657 59.0022 115.314C59.2397 116.494 59.6212 117.533 59.9619 118.573C60.3058 119.752 60.3058 120.723 60.6496 121.936C60.8833 122.509 61.0668 123.1 61.1982 123.705C61.5765 124.846 61.5765 126.096 61.9859 127.101C62.2713 128.007 62.5339 128.92 62.7736 129.839C62.9472 130.461 62.9144 130.981 63.1191 131.503C63.3599 132.541 63.7021 133.65 64.0476 134.619C64.2163 135.281 64.1475 135.8 64.2851 136.355C64.5258 137.187 64.7305 138.055 64.9712 138.782C65.1792 139.578 65.1792 140.619 65.3479 141.415C65.867 142.873 66.3796 144.397 66.8594 145.748C67.3736 147.238 67.4096 148.868 67.9909 150.394C68.9882 153.165 69.843 156.322 70.8747 159.057C71.1482 159.787 71.045 160.514 71.2841 161.279C71.5625 162.458 71.8 163.637 72.2126 164.782C72.4534 165.334 72.7956 165.922 73.0363 166.477C73.3458 167.135 73.3802 167.797 73.7241 168.524C73.9649 169.076 74.3055 169.667 74.5102 170.219C74.8557 171.123 74.7525 172.199 75.0964 172.994C75.3339 173.687 75.6794 174.381 75.9169 175.074C76.228 175.834 76.228 176.633 76.5031 177.327C76.8126 177.984 77.2564 178.61 77.4988 179.165C77.7722 179.789 77.841 180.414 78.0817 181.035C78.3225 181.693 78.6647 182.391 78.9726 183.015C79.2461 183.67 79.3148 184.431 79.5916 185.198C79.8323 185.782 80.2794 186.444 80.5185 187.065C80.7559 187.759 80.7559 188.558 81.0654 189.285C81.4421 190.395 82.0938 191.26 82.5769 192.372C82.8848 193.065 82.9175 193.929 83.2631 194.692C83.6725 195.626 84.1899 196.53 84.601 197.362C85.1152 198.542 85.6294 199.789 86.042 200.865C86.9345 202.875 87.2784 205.058 88.1021 207.035C88.8571 208.419 89.6808 209.876 90.3653 211.227C90.7092 212.026 90.814 212.857 91.1873 213.652C91.6377 214.553 92.2878 215.251 92.6661 216.151C93.0083 217.016 93.2491 217.848 93.5929 218.713C94.0711 219.792 94.8277 220.83 95.3091 221.835C95.5826 222.461 95.7546 223.118 95.992 223.637C96.5422 224.883 97.4691 225.821 97.9522 227.071C98.2662 227.829 98.5395 228.604 98.771 229.391C99.426 230.603 100.282 231.717 100.936 232.928C101.381 233.931 101.656 234.869 102.169 235.77C102.942 236.953 103.686 238.156 104.399 239.376C104.95 240.207 105.672 241.558 106.081 242.423C106.495 243.43 107.247 244.156 107.696 245.092C108.072 245.993 108.655 246.964 109.137 247.868C109.753 248.87 110.27 249.565 110.853 250.429C111.881 251.954 112.464 253.585 113.46 255.146C114.148 256.182 114.867 257.261 115.658 258.263C117.613 260.969 120.392 265.895 121.627 267.555C122.622 268.837 123.444 270.465 124.337 271.787C125.061 272.89 125.984 273.97 126.707 274.906C127.358 275.807 127.84 276.672 128.423 277.572L128.973 278.231C154.159 310.539 180.069 331.992 201.995 346.036H201.926C213.559 353.348 219.802 355.461 219.802 355.461C221.243 356.119 220.182 357.157 219.495 357.645L89.4761 441.637C89.0945 441.876 88.0677 442.605 88.4444 443.471C88.7883 444.093 90.1262 443.713 90.4684 443.607C194.786 406.624 270.488 376.222 316.779 354.038C363.69 331.509 379.438 318.645 377.791 312.271ZM100.143 188.003C99.9005 187.5 99.6712 186.991 99.4555 186.477C99.2197 185.887 99.2197 185.299 98.979 184.813C98.1514 182.877 97.2822 180.959 96.3719 179.06C96.0264 178.333 95.581 176.877 95.8888 175.939C95.9216 175.801 96.2327 175.906 96.3359 175.939C96.6094 176.252 96.8141 176.391 97.0564 176.705C97.2628 176.946 97.2955 177.221 97.4675 177.534C97.8441 178.159 98.3927 178.816 98.7366 179.474C99.4244 180.999 99.5603 182.63 100.248 184.12C100.694 185.057 101.412 185.889 101.894 186.858C102.1 187.382 102.238 187.9 102.444 188.489C102.546 188.94 102.513 189.459 102.546 189.804C102.546 190.291 102.513 190.636 102.305 190.636C101.072 190.567 100.694 188.94 100.143 188.003ZM105.634 228.283C105.565 228.455 105.498 228.595 105.225 228.595C103.849 228.523 103.44 226.478 102.855 225.476C102.305 224.745 101.894 223.812 101.414 223.046C101.036 222.461 100.556 221.868 100.248 221.28C99.8715 220.448 99.7666 219.584 99.2524 218.886C99.0101 218.506 98.5647 218.161 98.3239 217.779C97.6034 216.777 96.9172 215.698 96.3719 214.416C96.2671 213.896 96.1983 213.482 96.0264 212.958C95.7857 212.2 95.4434 211.332 95.1699 210.5C95.0668 210.05 94.962 209.251 95.0668 208.974C95.1012 208.836 95.1699 208.731 95.2715 208.767C96.2671 208.974 97.3643 211.574 97.8458 212.477C98.4287 213.515 99.3196 214.314 99.8698 215.385C100.246 216.392 100.384 217.568 100.934 218.506C101.311 219.199 101.963 219.792 102.408 220.484C102.991 221.313 103.373 222.526 103.849 223.465C104.296 224.575 105.051 225.44 105.498 226.514C105.67 226.997 105.772 227.796 105.634 228.283ZM134.839 222.319C134.22 222.214 133.876 221.835 133.465 221.521C132.4 220.725 131.51 219.409 131.474 217.568C131.474 217.329 131.51 217.26 131.646 217.26C132.947 217.26 134.289 219.235 134.803 220.206C134.908 220.55 135.248 221.28 135.179 221.767C135.179 222.111 135.044 222.25 134.839 222.319ZM143.587 222.667C142.729 222.944 140.672 220.55 140.089 219.584C138.956 217.953 137.891 216.151 136.691 214.553C135.626 213.028 134.457 212.026 134.153 209.531C134.153 209.218 133.946 208.419 134.153 208.419C135.317 208.523 136.45 210.602 137 211.433C137.446 212.026 137.924 212.578 138.369 213.169C138.853 214.07 139.16 215.146 139.745 215.978C140.466 217.016 141.355 217.917 142.146 218.958C142.558 219.512 143.109 219.998 143.346 220.725C143.52 221.143 143.896 222.526 143.587 222.667ZM174.267 239.823C173.065 239.96 171.591 238.126 171.005 237.225C170.8 236.983 170.114 235.526 170.317 235.319C170.559 235.075 171.966 235.562 172.379 235.876C173.302 236.638 174.093 237.677 174.573 239.512C174.573 239.754 174.37 239.823 174.267 239.823Z" fill="white"/>
</g>
</svg>
